<svg xmlns="http://www.w3.org/2000/svg" version="1.1"><polyline points="65.0,1.5,62.0,9.5,59.5,17.5,56.5,25.0,53.5,33.0,47.5,41.0,47.0,46.0,37.5,58.0,35.0,66.0,34.0,77.0,30.5,82.0,30.0,90.0,31.0,98.0,31.5,106.0,35.0,120.5,39.5,124.0,40.5,112.5,49.0,94.5,53.5,86.5" stroke="black" stroke-width="2" fill="none" />
<polyline points="53.0,92.5,49.5,100.5" stroke="black" stroke-width="2" fill="none" />
<polyline points="42.5,109.0,43.0,101.0,44.0,99.0,44.5,91.0,51.5,87.5,47.0,79.5,43.5,71.0,49.5,62.5,43.5,72.5" stroke="black" stroke-width="2" fill="none" />
<polyline points="49.5,75.0,47.5,78.0" stroke="black" stroke-width="2" fill="none" />
<polyline points="39.0,84.5,41.0,92.0,46.0,100.0,48.0,104.0,56.5,94.5" stroke="black" stroke-width="2" fill="none" />
<polyline points="62.5,107.5,55.0,113.0,64.0,107.0" stroke="black" stroke-width="2" fill="none" />
<polyline points="68.0,121.0,57.0,128.5" stroke="black" stroke-width="2" fill="none" />
<polyline points="71.0,130.5,79.0,123.5,91.0,117.5,86.5,126.5,75.0,133.5,69.5,141.5,63.0,150.5,55.0,158.5,44.0,160.0,38.0,168.0,46.0,179.0,51.0,183.0,46.0,191.0,39.0,199.0,43.0,207.5,37.0,215.5,36.0,223.5,38.0,234.0,42.5,236.5,47.5,237.5,59.5,227.5,67.5,219.5,70.5,216.5,79.0,218.0" stroke="black" stroke-width="2" fill="none" />
<polyline points="71.0,218.5,67.0,219.5,60.0,227.5,56.5,235.0,56.0,243.0,56.0,257.0,64.0,253.0,72.0,250.0,72.0,244.5,79.5,243.0,90.5,250.0,98.5,250.0,108.5,251.0,116.5,259.0,126.5,262.5,129.5,274.5,123.0,282.5,118.5,290.5,126.0,280.0,130.5,284.5,138.5,283.5,151.5,289.5,160.0,293.5,166.0,291.0,185.5,293.5,188.5,298.5,193.5,307.5,196.5,312.5,201.5,324.5,212.5,329.5,212.0,341.5,222.5,332.5,229.0,325.5,233.5,337.0" stroke="black" stroke-width="2" fill="none" />
<polyline points="251.5,328.5,259.5,333.5,267.5,335.5,275.0,331.5,282.5,329.0,290.5,328.0,286.0,335.0,276.5,336.0,284.5,332.0,291.5,339.0" stroke="black" stroke-width="2" fill="none" />
<polyline points="285.5,329.5,280.5,338.0,277.5,338.0" stroke="black" stroke-width="2" fill="none" />
<polyline points="268.5,335.0,280.5,327.0" stroke="black" stroke-width="2" fill="none" />
<polyline points="282.0,307.5,275.5,317.5,284.5,312.0,288.5,304.0,292.5,296.0,293.5,280.0" stroke="black" stroke-width="2" fill="none" />
<polyline points="306.0,274.0,314.0,271.0,322.0,273.0,330.5,271.0,338.5,262.0,351.0,267.0,357.5,273.0" stroke="black" stroke-width="2" fill="none" />
<polyline points="356.5,264.5,356.5,260.0,364.5,259.0,372.5,259.5,379.5,259.0,387.5,255.5,392.0,258.5,400.0,254.5,400.0,257.5,407.5,256.0,415.5,256.0,423.5,254.0,432.0,251.0" stroke="black" stroke-width="2" fill="none" />
<polyline points="433.0,237.0,425.0,238.0,416.5,238.0,408.5,239.0" stroke="black" stroke-width="2" fill="none" />
<polyline points="408.5,247.5,410.5,252.0" stroke="black" stroke-width="2" fill="none" />
<polyline points="409.0,231.5,398.0,233.5,397.0,237.5,389.0,234.5" stroke="black" stroke-width="2" fill="none" />
<polyline points="376.0,228.0,384.5,227.0,376.5,230.0,379.5,238.5,382.5,234.5,390.5,232.5,398.5,230.5,401.5,225.5,409.5,224.0,418.0,223.5,425.0,222.5,433.0,224.5" stroke="black" stroke-width="2" fill="none" />
<polyline points="434.0,233.5,426.0,233.5,418.0,236.0,410.5,236.0,402.5,240.0,394.0,240.5,386.0,240.5,377.5,241.5,369.5,243.0,361.5,242.0,353.5,249.0" stroke="black" stroke-width="2" fill="none" />
<polyline points="355.0,250.0,363.0,249.0,367.5,250.5,364.5,259.0,365.0,267.0" stroke="black" stroke-width="2" fill="none" />
<polyline points="355.5,271.0,352.5,270.5,352.5,262.5,355.5,254.5" stroke="black" stroke-width="2" fill="none" />
<polyline points="357.0,246.0,365.5,247.0" stroke="black" stroke-width="2" fill="none" />
<polyline points="370.0,250.0,378.0,254.0,385.5,252.0,393.5,255.5" stroke="black" stroke-width="2" fill="none" />
<polyline points="388.0,248.0,380.0,248.5,372.0,248.5" stroke="black" stroke-width="2" fill="none" />
<polyline points="355.5,231.5,346.5,223.5,338.5,218.5" stroke="black" stroke-width="2" fill="none" />
<polyline points="341.5,213.5,349.5,205.5,357.5,205.5,365.0,208.5,373.0,214.5" stroke="black" stroke-width="2" fill="none" />
<polyline points="367.5,220.0,375.5,217.0,383.5,218.5" stroke="black" stroke-width="2" fill="none" />
<polyline points="383.5,202.5,375.5,202.5,379.5,206.5,380.0,197.0,372.0,193.0" stroke="black" stroke-width="2" fill="none" />
<polyline points="376.0,188.5,384.0,191.0,391.0,197.5" stroke="black" stroke-width="2" fill="none" />
<polyline points="385.5,207.5,381.0,210.0,373.0,204.5,365.0,198.0,356.5,199.0" stroke="black" stroke-width="2" fill="none" />
<polyline points="358.5,200.0,368.5,208.0,378.5,215.5,388.5,215.5" stroke="black" stroke-width="2" fill="none" />
<polyline points="392.0,217.5,384.0,215.5,376.5,210.0,368.5,203.5,360.5,197.5" stroke="black" stroke-width="2" fill="none" />
<polyline points="362.0,196.5,373.0,204.5,385.0,212.5,395.5,215.5,395.5,219.0" stroke="black" stroke-width="2" fill="none" />
<polyline points="393.0,200.5,387.5,193.5,380.0,191.5,371.5,193.0,363.5,190.0,356.0,189.0,346.0,186.5,353.5,182.5,353.5,171.5,354.5,163.5,349.5,159.0,360.5,154.0,352.5,156.0" stroke="black" stroke-width="2" fill="none" />
<polyline points="357.0,163.0,360.0,157.0,357.0,165.5,356.5,173.5,369.5,170.5,379.5,169.5,387.5,169.5,395.5,172.0,404.0,171.0,412.0,171.5,419.0,169.5,427.0,164.0,429.5,160.0,421.5,168.5,420.5,177.5,428.5,180.5,436.5,182.5,444.0,187.0,449.5,180.5,454.5,182.5,459.5,180.5,457.5,181.0,452.5,187.0,456.5,188.5,464.5,184.5,473.0,185.5" stroke="black" stroke-width="2" fill="none" />
<polyline points="474.0,174.0,482.0,181.0,490.0,179.5,487.0,182.5,496.0,192.0,505.0,187.5,499.0,190.5,510.5,188.5,505.0,193.0,504.0,207.0" stroke="black" stroke-width="2" fill="none" />
<polyline points="505.5,207.0,498.0,208.5,490.0,200.5" stroke="black" stroke-width="2" fill="none" />
<polyline points="485.5,213.0,493.0,212.0,501.5,217.5" stroke="black" stroke-width="2" fill="none" />
<polyline points="496.5,213.5,507.0,221.5" stroke="black" stroke-width="2" fill="none" />
<polyline points="494.0,226.0,486.0,225.0,478.0,224.5" stroke="black" stroke-width="2" fill="none" />
<polyline points="489.0,209.5,481.0,217.5,473.0,223.0,465.0,212.0,457.0,207.5,454.5,204.5,446.5,207.5" stroke="black" stroke-width="2" fill="none" />
<polyline points="446.0,222.0,438.0,215.5,430.5,210.5,426.0,207.0,428.0,199.0" stroke="black" stroke-width="2" fill="none" />
<polyline points="425.5,198.5,420.5,206.5,421.0,211.0,428.0,216.5,433.5,222.5,418.5,226.5,407.0,228.0,410.0,227.0,412.0,231.5,421.0,224.5" stroke="black" stroke-width="2" fill="none" />
<polyline points="447.5,237.5,445.5,245.5,439.5,253.5,428.5,258.5,428.5,266.5,434.0,263.0,442.0,258.5,449.5,246.5,457.0,244.0,465.5,248.5,473.5,248.5,482.5,249.5,491.0,250.5" stroke="black" stroke-width="2" fill="none" />
<polyline points="491.0,254.0,483.0,258.0,479.5,256.5,482.5,248.5" stroke="black" stroke-width="2" fill="none" />
<polyline points="492.5,263.0,494.5,259.5,502.5,257.5,500.5,263.0,492.0,262.0,490.5,268.0,479.5,278.0,487.0,286.5" stroke="black" stroke-width="2" fill="none" />
<polyline points="482.0,281.5,490.0,286.5,498.0,284.5" stroke="black" stroke-width="2" fill="none" />
<polyline points="499.0,284.0,501.0,276.0,498.0,276.5" stroke="black" stroke-width="2" fill="none" />
<polyline points="487.0,274.0,495.0,271.0,502.5,267.0,503.5,269.0,495.5,270.0,494.5,273.0,503.0,269.5,509.5,264.5" stroke="black" stroke-width="2" fill="none" />
<polyline points="503.5,297.5,495.5,297.5,487.5,300.5,485.5,311.5,478.5,317.0,478.0,324.0,470.0,324.5,480.0,322.5,478.0,312.5,486.0,308.0,495.5,300.0,496.5,304.0" stroke="black" stroke-width="2" fill="none" />
<polyline points="498.0,313.0,506.0,312.0" stroke="black" stroke-width="2" fill="none" />
<polyline points="510.5,315.5,502.5,319.5,494.5,323.0,495.0,331.0,491.0,327.5,483.5,335.0,474.5,340.5,488.0,333.0,493.0,325.0,500.0,317.0,509.0,313.0,507.0,309.0,499.5,310.0,491.5,313.0,484.0,317.0,484.5,321.5,479.5,314.5,494.5,311.5,492.0,308.5,484.0,314.5" stroke="black" stroke-width="2" fill="none" />
<polyline points="481.0,320.0,489.0,317.0,493.0,314.5,482.0,315.5,486.0,323.5,490.0,323.5,479.5,332.5,469.5,338.0,477.0,335.0,485.0,330.0,497.0,326.5,505.0,323.5,507.0,325.5,498.5,333.0,488.5,341.0" stroke="black" stroke-width="2" fill="none" />
<polyline points="476.0,327.5,468.0,332.5,464.5,327.0,457.5,321.0,449.5,316.0" stroke="black" stroke-width="2" fill="none" />
<polyline points="449.0,314.0,457.5,308.0,457.0,305.0,464.0,303.5,472.0,299.0,482.5,303.0,490.5,302.5,498.0,300.0,506.0,299.0" stroke="black" stroke-width="2" fill="none" />
<polyline points="485.0,286.0,477.5,287.0,469.5,285.0,461.0,285.0,456.5,285.0,448.5,293.0,440.5,303.0,438.0,306.5,443.0,298.5,450.0,290.0,454.5,290.0,446.5,285.0" stroke="black" stroke-width="2" fill="none" />
<polyline points="446.0,269.5,454.0,270.5,458.0,262.0,466.0,255.5,474.0,258.5,482.0,256.5" stroke="black" stroke-width="2" fill="none" />
<polyline points="464.5,254.5,459.5,262.5,454.5,274.5,469.5,280.5,477.0,283.0,472.0,288.0,461.5,295.0,455.5,307.5,451.5,315.5,462.5,322.5,460.0,326.5,463.0,334.5,466.5,336.0,469.5,335.0,473.0,329.5,480.0,328.5,481.0,324.5,489.0,323.0,492.0,317.0,495.5,315.5,503.5,316.5" stroke="black" stroke-width="2" fill="none" />
<polyline points="502.5,324.5,496.5,326.5,505.0,333.5,503.0,338.5,498.0,337.5,503.5,338.0" stroke="black" stroke-width="2" fill="none" />
<polyline points="512.5,324.0,505.0,330.0,496.5,336.0,493.0,338.0,485.0,339.0,482.5,342.0,474.5,341.0,466.5,341.5,465.0,328.5,467.0,322.5,457.0,314.5,464.0,303.5,468.0,296.0,463.0,288.0" stroke="black" stroke-width="2" fill="none" />
<polyline points="466.0,293.0,458.0,299.0,449.5,302.5,448.5,307.5,440.5,308.0,436.0,311.0,432.0,318.0,423.5,315.5,415.5,325.5" stroke="black" stroke-width="2" fill="none" />
<polyline points="418.0,327.5,426.0,317.5,434.5,314.5,442.5,313.5,445.0,319.5,453.0,325.5,462.0,325.5" stroke="black" stroke-width="2" fill="none" />
<polyline points="450.0,331.0,454.0,339.0" stroke="black" stroke-width="2" fill="none" />
<polyline points="447.5,341.5,446.5,332.5,445.0,340.5,444.0,336.5,451.0,331.0,445.0,324.0,437.0,320.5,429.5,321.0" stroke="black" stroke-width="2" fill="none" />
<polyline points="422.0,325.0,430.0,323.0,438.0,322.5,437.0,326.5,431.5,334.5" stroke="black" stroke-width="2" fill="none" />
<polyline points="420.0,334.0,420.0,326.5" stroke="black" stroke-width="2" fill="none" />
<polyline points="411.5,324.5,423.5,308.5" stroke="black" stroke-width="2" fill="none" />
<polyline points="416.0,307.5,421.5,290.5,420.0,298.5,416.5,306.5,414.5,314.0,411.5,322.0,410.0,330.0,412.5,338.5" stroke="black" stroke-width="2" fill="none" />
<polyline points="392.5,311.0,400.5,302.0" stroke="black" stroke-width="2" fill="none" />
<polyline points="390.5,289.0,399.5,297.0,405.0,289.5,412.0,289.5,419.5,288.0,431.5,283.0,440.0,275.5,447.5,265.5,455.5,258.0,463.5,251.5" stroke="black" stroke-width="2" fill="none" />
<polyline points="459.0,246.5,458.0,254.5,453.0,262.5,453.5,271.5,444.5,271.5,438.5,279.5,444.0,285.5,438.0,293.5,432.0,304.0,432.5,312.0,422.5,316.0,416.5,324.0,415.0,332.0" stroke="black" stroke-width="2" fill="none" />
<polyline points="395.0,339.0,382.0,331.0,378.5,329.5,368.5,327.5,375.0,319.5,370.0,310.0" stroke="black" stroke-width="2" fill="none" />
<polyline points="380.0,318.0,385.5,326.0,382.5,334.0,371.5,338.0" stroke="black" stroke-width="2" fill="none" />
<polyline points="368.5,341.0,369.5,333.5" stroke="black" stroke-width="2" fill="none" />
<polyline points="357.5,328.0,349.5,330.5" stroke="black" stroke-width="2" fill="none" />
<polyline points="363.5,338.0,368.5,329.5,364.5,324.5,353.0,310.5,345.0,302.0" stroke="black" stroke-width="2" fill="none" />
<polyline points="342.5,309.5,340.0,300.0,335.0,290.0,331.0,290.0,323.5,289.0" stroke="black" stroke-width="2" fill="none" />
<polyline points="329.5,283.0,337.0,283.0,342.0,279.0,349.5,281.0,357.5,279.5,366.0,278.5,374.0,278.0,382.0,277.5" stroke="black" stroke-width="2" fill="none" />
<polyline points="381.0,284.0,372.5,287.5,380.5,293.5,371.0,300.5,369.0,303.0,377.0,297.0" stroke="black" stroke-width="2" fill="none" />
<polyline points="371.5,290.5,379.5,292.5,382.5,288.5,388.5,285.5,394.5,291.0,399.5,287.0,407.5,283.0" stroke="black" stroke-width="2" fill="none" />
<polyline points="413.5,283.0,411.5,294.0,409.5,301.5,405.5,309.5,400.5,317.5,403.5,312.5" stroke="black" stroke-width="2" fill="none" />
<polyline points="397.0,335.5,399.5,341.0,391.5,335.0,381.0,336.0,373.0,338.5,359.5,338.5,357.5,332.5,349.5,332.5,346.5,336.0,347.5,340.0,339.5,336.0,341.5,328.0,352.5,319.0,348.5,310.5,342.5,307.5,341.5,299.0,329.5,291.0,320.5,282.5,322.0,273.5,316.5,279.0,308.5,274.0" stroke="black" stroke-width="2" fill="none" />
<polyline points="309.5,271.0,310.5,279.0,319.5,287.0,314.5,295.0,310.5,295.5,306.5,303.5,312.0,311.5,310.5,318.5,319.0,323.0,317.5,330.5,323.5,332.5,323.5,327.5,332.0,328.5,343.0,325.0,350.5,321.5,351.5,313.5" stroke="black" stroke-width="2" fill="none" />
<polyline points="340.0,314.5,348.0,322.5,359.5,327.5,361.5,335.5" stroke="black" stroke-width="2" fill="none" />
<polyline points="333.5,339.0,336.0,330.5,337.5,322.5,338.5,314.5" stroke="black" stroke-width="2" fill="none" />
<polyline points="331.5,321.5,332.5,313.5,329.5,308.0" stroke="black" stroke-width="2" fill="none" />
<polyline points="330.0,302.5,326.5,310.5,325.0,318.5,323.5,326.0,331.5,336.0" stroke="black" stroke-width="2" fill="none" />
<polyline points="321.0,329.5,313.0,329.5" stroke="black" stroke-width="2" fill="none" />
<polyline points="311.5,338.0,319.5,337.0" stroke="black" stroke-width="2" fill="none" />
<polyline points="320.5,308.5,326.5,303.5,332.0,299.0,323.5,296.0,315.5,302.0" stroke="black" stroke-width="2" fill="none" />
<polyline points="300.5,298.0,308.5,309.5,316.0,314.0,323.5,307.0,333.0,303.0,337.5,294.0,345.5,300.0,353.0,295.5,360.5,292.5,368.5,288.0,376.5,283.0,384.0,280.0,392.5,278.5,400.5,276.5,408.5,275.0,416.0,274.0,424.5,272.0,432.5,268.0" stroke="black" stroke-width="2" fill="none" />
<polyline points="444.0,268.5,433.0,276.5,435.0,283.0,431.5,291.0,433.0,299.0,438.5,292.5,443.0,280.5,447.0,277.5,455.0,281.5,458.0,270.0,463.0,276.5,471.0,280.0,479.5,279.0,487.5,270.0,496.0,265.5,504.0,261.5,511.5,256.0" stroke="black" stroke-width="2" fill="none" />
<polyline points="506.5,227.5,505.0,233.0,497.0,231.5,489.0,231.0,481.0,230.5,473.0,229.5,475.5,221.5,482.5,212.5,491.5,204.0,487.5,196.0,485.0,188.5,478.0,180.5,471.5,174.0,476.5,166.0,464.5,170.0,457.0,167.0" stroke="black" stroke-width="2" fill="none" />
<polyline points="459.5,170.0,470.5,178.0,477.5,185.5" stroke="black" stroke-width="2" fill="none" />
<polyline points="497.0,173.5,491.5,169.0,489.5,161.0,480.5,162.0,482.0,157.0,474.0,159.0,467.0,162.0,461.0,155.5,455.5,154.5,446.0,156.0,432.0,159.0,424.5,158.0,420.5,165.0,412.5,163.0,405.0,161.5,396.5,160.0,388.5,161.0,380.0,165.5,376.5,163.5,368.5,166.0,360.5,171.0,363.5,167.5,371.0,153.5,370.0,141.0,362.0,138.0" stroke="black" stroke-width="2" fill="none" />
<polyline points="361.5,136.5,369.5,137.5,377.5,138.0,379.5,143.0,379.0,151.5" stroke="black" stroke-width="2" fill="none" />
<polyline points="388.0,161.5,381.0,169.5,384.0,179.0,377.0,188.0,392.0,192.0,398.5,200.0,401.5,208.0" stroke="black" stroke-width="2" fill="none" />
<polyline points="388.0,201.0,377.5,193.0,365.5,191.5" stroke="black" stroke-width="2" fill="none" />
<polyline points="363.5,185.5,355.5,186.0,347.5,182.5,339.0,184.5,335.0,186.0,326.5,189.0,318.5,190.0,311.0,191.0,303.0,190.0,295.5,186.0,287.0,181.0" stroke="black" stroke-width="2" fill="none" />
<polyline points="289.5,187.0,297.0,187.0,312.5,195.5,328.5,192.5,336.5,190.0" stroke="black" stroke-width="2" fill="none" />
<polyline points="335.5,203.0,344.0,200.0,341.0,210.0,337.5,218.0,332.5,229.5,334.0,237.0,327.5,248.0,336.5,246.0,336.5,244.0,338.0,233.0,342.0,236.0,349.0,240.0,353.5,234.5,363.5,239.5,370.5,244.5,378.5,244.5,387.0,242.0,401.0,243.5,411.0,241.5,419.0,241.0,427.0,240.0,436.0,246.0,434.0,259.5,431.0,261.5,438.5,252.5,440.5,241.5,448.5,239.5,457.0,240.5,465.0,241.0,473.0,241.0,481.0,240.5,489.0,241.0,497.0,240.5,505.0,241.5" stroke="black" stroke-width="2" fill="none" />
<polyline points="502.5,226.5,495.0,228.5,487.0,228.5,479.0,228.5,470.0,222.5,464.0,214.5,460.5,202.5,452.5,199.5,447.0,197.5,435.0,206.5,427.0,198.5,419.0,208.5,411.0,210.0,403.0,206.0,395.5,194.0,387.5,187.5,379.5,183.5,372.5,176.5,364.5,176.0,356.5,177.0,345.5,184.0,335.5,179.0,340.0,170.5,334.0,171.0,323.0,174.5,314.5,180.5,311.5,180.0,305.0,169.0,306.0,161.0,312.5,150.0,323.0,140.0,318.5,136.0,323.5,128.0,318.0,120.0,313.0,116.5,305.0,109.5,302.0,109.0,299.0,101.0,299.0,93.5,299.5,89.5" stroke="black" stroke-width="2" fill="none" />
<polyline points="302.0,90.0,301.0,98.5,308.5,107.0,318.5,115.0,323.5,117.0,328.5,117.0,331.5,125.0,332.0,133.5,334.0,142.5,337.5,146.0,338.0,155.0,330.5,156.0,329.5,169.5,319.0,173.0,318.5,179.0" stroke="black" stroke-width="2" fill="none" />
<polyline points="315.5,169.5,323.5,167.5" stroke="black" stroke-width="2" fill="none" />
<polyline points="334.5,173.0,328.5,181.0,342.0,188.0,339.0,195.5,337.0,203.5,331.0,213.5,333.0,214.5,327.0,225.0,324.5,233.0,321.5,241.0,318.0,250.0,319.0,257.0,319.0,260.0,324.5,257.5,332.5,255.5,334.0,259.0,343.0,256.0,346.5,260.0,351.5,253.0,357.0,255.0,365.5,251.0,371.5,246.0,379.5,246.0,387.5,245.0,395.5,245.0,403.5,245.0,411.5,243.5,420.0,242.0,428.5,242.0,437.0,240.5,443.0,230.5,447.0,228.5,454.5,230.5,462.5,236.5,470.5,236.5,478.5,234.5,486.5,234.5,494.5,234.5,503.0,235.5,510.5,236.5" stroke="black" stroke-width="2" fill="none" />
<polyline points="451.5,242.5,445.5,250.5,440.0,259.0" stroke="black" stroke-width="2" fill="none" />
<polyline points="431.5,281.0,423.5,278.0" stroke="black" stroke-width="2" fill="none" />
<polyline points="420.5,275.0,416.0,283.0,407.0,285.0,401.0,294.0,404.0,299.0,398.0,307.0,393.0,318.5,400.5,326.0,408.5,337.0" stroke="black" stroke-width="2" fill="none" />
<polyline points="450.0,336.5,447.0,328.5,441.0,324.5,433.0,334.5,425.0,341.5,422.0,338.5,421.0,330.5,422.0,322.5,421.0,312.5,428.0,304.5,427.0,296.5,430.0,289.0,423.0,280.5,433.0,272.5,438.0,264.5,451.5,260.5,456.5,253.0,460.5,244.5,455.5,233.5,445.5,237.0,443.0,234.0,436.0,233.0,431.0,224.5,422.0,218.5,414.0,220.5,406.5,221.5,398.5,222.0,390.5,222.5,383.0,223.5,375.0,222.5,367.0,225.5,362.5,224.0,362.5,216.5,370.5,213.0,362.5,216.0,355.0,216.0,347.0,210.0" stroke="black" stroke-width="2" fill="none" />
<polyline points="350.0,204.5,341.5,212.5,351.5,217.5,353.0,227.0,347.5,230.5,355.5,238.5,362.5,246.5,352.0,253.5,343.0,255.5,338.0,263.5,331.0,271.5" stroke="black" stroke-width="2" fill="none" />
<polyline points="331.5,246.0,323.5,246.0,318.5,251.5,311.0,251.5" stroke="black" stroke-width="2" fill="none" />
<polyline points="301.0,250.5,300.0,258.0,305.5,250.0,309.5,242.0,309.5,234.0,305.5,224.0" stroke="black" stroke-width="2" fill="none" />
<polyline points="306.5,220.0,313.5,228.5,320.0,236.5,313.0,245.5,313.0,253.5" stroke="black" stroke-width="2" fill="none" />
<polyline points="291.5,235.5,283.5,236.5" stroke="black" stroke-width="2" fill="none" />
<polyline points="293.5,234.5,285.5,231.5,277.5,227.5,269.5,223.0,261.5,218.0" stroke="black" stroke-width="2" fill="none" />
<polyline points="264.5,219.0,256.5,218.0,244.5,221.0,236.5,215.5,228.0,213.5,220.0,208.0" stroke="black" stroke-width="2" fill="none" />
<polyline points="216.5,208.0,221.5,216.0,231.5,224.0,235.5,231.5,234.0,239.0,230.0,247.0,230.5,254.5,228.5,263.0,227.0,263.5" stroke="black" stroke-width="2" fill="none" />
<polyline points="224.5,273.5,217.0,274.5,206.0,272.0,198.0,273.0,202.0,268.0,208.0,260.0,215.0,256.5,221.0,248.5,224.0,240.5,222.0,243.0,214.0,258.0,206.0,266.0,198.0,271.0,187.0,274.5,179.0,274.0,177.0,270.0,171.0,272.0,165.0,272.0,157.0,268.0,149.0,266.5,140.5,265.0,132.5,268.0,131.5,263.5,124.0,267.0,117.0,263.0,108.5,254.0,100.5,244.0,92.5,244.0,84.5,254.0,77.0,263.0,69.5,267.0,61.0,270.0,61.0,267.0,70.5,266.0,86.0,261.5,86.5,257.5,90.0,250.0,99.0,247.0,97.0,239.0,95.0,231.0,92.0,223.5,86.0,215.5,78.0,203.0,77.0,198.0,67.5,204.5,66.5,198.5,70.0,197.0,79.0,195.5,72.5,188.0,71.0,180.0,76.5,169.5,73.5,161.5,77.5,154.0,81.5,146.5,85.5,139.5,89.0,131.5,92.0,123.5,99.0,116.5,105.0,103.0,112.0,94.5,119.0,86.5,118.0,82.5,114.0,81.0,105.5,87.0" stroke="black" stroke-width="2" fill="none" />
<polyline points="109.5,88.0,117.5,86.0,126.5,89.0,123.5,96.5,117.5,104.5,109.5,112.0,106.5,118.0,98.5,125.5,93.5,133.0,93.0,141.0,96.0,149.0,93.0,155.0,95.0,147.0" stroke="black" stroke-width="2" fill="none" />
<polyline points="99.5,140.5,115.5,139.0,123.5,147.0,120.5,150.0,118.5,158.0,113.5,160.0" stroke="black" stroke-width="2" fill="none" />
<polyline points="105.5,153.0,108.5,150.0,107.5,155.0,102.0,159.5" stroke="black" stroke-width="2" fill="none" />
<polyline points="113.0,181.5,121.0,169.0,129.0,164.0,121.0,170.0,115.0,178.0,108.5,186.0,103.5,194.0,93.0,202.0,89.5,209.5,95.0,217.5,98.0,225.5,106.0,223.5,114.0,223.5,122.5,227.5,125.5,240.5,133.5,249.5,141.0,239.5,145.0,229.5,154.0,232.5,159.0,236.0,160.5,242.0,162.5,238.0" stroke="black" stroke-width="2" fill="none" />
<polyline points="167.0,229.0,165.0,226.0,162.0,218.0,161.5,210.0,166.5,198.5" stroke="black" stroke-width="2" fill="none" />
<polyline points="168.0,189.0,178.0,196.0,181.0,202.0,182.5,211.5,191.0,214.5" stroke="black" stroke-width="2" fill="none" />
<polyline points="186.0,200.5,194.0,197.5" stroke="black" stroke-width="2" fill="none" />
<polyline points="204.0,186.5,212.0,194.5,220.5,201.5,228.5,202.5,236.5,210.5,242.5,224.5,249.5,232.5,252.5,242.0,248.5,250.0,244.5,262.5,246.5,270.5,243.5,272.5,238.0,281.0,236.0,291.0,233.5,305.0,239.5,314.0,251.5,316.0,255.0,324.0,261.5,333.5,261.5,341.5" stroke="black" stroke-width="2" fill="none" />
<polyline points="263.5,327.0,256.0,323.0,248.0,318.5" stroke="black" stroke-width="2" fill="none" />
<polyline points="250.0,325.5,253.0,333.5" stroke="black" stroke-width="2" fill="none" />
<polyline points="258.0,308.5,272.5,300.5,262.5,305.0,261.5,313.0,268.5,308.5,272.5,308.0,280.5,303.5" stroke="black" stroke-width="2" fill="none" />
<polyline points="273.0,305.0,272.0,312.5,265.0,320.5,273.0,313.5" stroke="black" stroke-width="2" fill="none" />
<polyline points="261.0,317.5,253.0,319.0,245.0,306.0" stroke="black" stroke-width="2" fill="none" />
<polyline points="243.5,302.5,251.5,300.5,246.0,301.0,246.0,309.0,245.5,317.0,245.5,325.0,245.5,333.0,244.0,341.0,246.5,341.5,258.5,339.5,266.5,341.5" stroke="black" stroke-width="2" fill="none" />
<polyline points="236.0,324.0,231.5,326.5,234.5,321.5,232.0,320.5,231.5,318.5,223.5,318.5" stroke="black" stroke-width="2" fill="none" />
<polyline points="219.0,324.0,214.0,316.5" stroke="black" stroke-width="2" fill="none" />
<polyline points="207.0,313.0,208.5,307.0,216.5,302.0,223.5,305.0,225.0,308.0,222.5,316.5,225.5,324.5,228.5,331.0,233.0,339.0" stroke="black" stroke-width="2" fill="none" />
<polyline points="224.5,334.5,221.5,328.5,212.5,320.5,205.5,313.5,210.5,305.5,207.5,297.0,201.5,294.0,204.5,293.5,205.0,295.5" stroke="black" stroke-width="2" fill="none" />
<polyline points="189.0,292.0,183.0,281.0,178.5,286.0,174.5,290.0,167.0,287.0,158.5,286.0" stroke="black" stroke-width="2" fill="none" />
<polyline points="150.5,294.0,140.5,302.0,133.5,307.0,141.5,301.0,149.5,295.5,157.5,297.0,165.5,298.0" stroke="black" stroke-width="2" fill="none" />
<polyline points="150.0,305.5,147.0,313.5,145.0,325.0,148.5,332.0" stroke="black" stroke-width="2" fill="none" />
<polyline points="141.5,333.0,149.5,338.0,157.5,340.5,165.0,339.5,173.0,331.5,181.0,327.5,190.0,328.5,177.0,335.5,180.0,336.0,188.0,332.0,196.0,325.5,187.5,335.5,181.5,340.5,189.5,334.5" stroke="black" stroke-width="2" fill="none" />
<polyline points="206.0,337.5,203.5,340.0,211.5,332.5,206.0,319.5,198.0,316.5" stroke="black" stroke-width="2" fill="none" />
<polyline points="202.5,314.5,211.5,322.5,204.0,330.5" stroke="black" stroke-width="2" fill="none" />
<polyline points="180.5,321.5,173.0,322.5" stroke="black" stroke-width="2" fill="none" />
<polyline points="190.0,303.0,182.5,303.0,174.0,304.0,167.0,306.5,172.0,301.5,169.0,293.0,175.0,286.0,168.0,278.0,164.0,270.0,152.0,267.0" stroke="black" stroke-width="2" fill="none" />
<polyline points="157.0,273.0,154.0,281.0,159.5,290.0,160.5,302.0,162.5,306.5,155.0,310.5,163.0,306.0" stroke="black" stroke-width="2" fill="none" />
<polyline points="156.0,314.0,148.0,311.0" stroke="black" stroke-width="2" fill="none" />
<polyline points="147.0,310.0,153.5,302.0,147.5,305.0,142.0,314.0,137.5,325.0,136.0,333.0,147.0,338.5,156.0,338.0,164.0,333.0,172.0,325.0,176.5,329.0,184.0,324.0,185.0,323.0,183.5,327.0,169.5,334.5" stroke="black" stroke-width="2" fill="none" />
<polyline points="162.5,335.0,170.0,327.0,176.5,319.0,178.5,310.0,169.0,310.5,161.5,318.5,153.5,323.0,152.5,320.0,156.5,321.0,152.5,317.5,153.5,310.5,150.5,302.5,159.0,300.0,153.5,292.0,149.5,288.0,153.0,276.0,152.0,268.0,143.0,268.0" stroke="black" stroke-width="2" fill="none" />
<polyline points="140.0,265.5,146.0,273.5,149.0,275.0,148.5,280.5,146.0,286.5,137.5,294.5,132.5,302.5,128.5,310.5,125.5,312.0,124.0,320.5,114.0,327.5,120.0,328.5,116.0,335.0,122.5,337.0,121.5,334.0" stroke="black" stroke-width="2" fill="none" />
<polyline points="137.0,326.5,145.5,323.5,148.5,332.5,156.5,331.5,160.0,327.5" stroke="black" stroke-width="2" fill="none" />
<polyline points="125.0,308.5,117.0,316.5" stroke="black" stroke-width="2" fill="none" />
<polyline points="106.0,326.0,98.5,326.5,91.0,327.0" stroke="black" stroke-width="2" fill="none" />
<polyline points="92.5,328.0,100.0,328.0" stroke="black" stroke-width="2" fill="none" />
<polyline points="104.0,323.5,95.5,323.5,87.5,323.5" stroke="black" stroke-width="2" fill="none" />
<polyline points="83.0,328.0,91.0,330.0,98.5,332.5,106.5,331.5" stroke="black" stroke-width="2" fill="none" />
<polyline points="98.5,317.0,90.5,317.0,82.5,319.0" stroke="black" stroke-width="2" fill="none" />
<polyline points="71.0,329.0,79.0,331.0,89.0,327.0,81.5,329.0,88.5,336.0,95.0,341.5" stroke="black" stroke-width="2" fill="none" />
<polyline points="85.5,340.5,77.0,339.5,69.0,338.5" stroke="black" stroke-width="2" fill="none" />
<polyline points="63.5,312.5,55.5,314.5,46.0,321.5,38.0,327.5,34.5,328.0,26.5,331.5,18.5,327.0,11.0,320.5" stroke="black" stroke-width="2" fill="none" />
<polyline points="10.0,320.5,12.5,328.5,20.5,329.5,24.5,337.5" stroke="black" stroke-width="2" fill="none" />
<polyline points="22.0,323.0,14.0,316.0" stroke="black" stroke-width="2" fill="none" />
<polyline points="14.5,316.0,23.5,324.5,23.5,333.0,31.5,337.0,39.5,339.5,47.5,337.5,56.0,336.5,65.5,326.5,70.5,336.5,78.5,333.0,89.5,333.5,97.0,339.5,105.0,339.5,113.0,334.5" stroke="black" stroke-width="2" fill="none" />
<polyline points="105.5,306.0,103.0,317.5,101.0,314.5,97.0,308.0,97.0,311.5,93.0,308.5,84.5,312.5,77.0,317.5,72.0,318.5,71.0,322.0,67.0,331.5,75.0,333.5,62.0,326.0,68.5,318.0,76.5,309.0,78.0,310.5,69.0,311.5,61.0,316.0,53.0,320.0,52.0,327.0,44.0,331.0,36.0,332.0,28.0,333.0,24.5,320.5,18.5,312.5,20.5,309.0,6.5,306.5,9.5,302.5,9.5,302.5,1.0,302.5" stroke="black" stroke-width="2" fill="none" />
<polyline points="0.5,309.5,9.0,308.5,9.0,313.5,4.5,317.5,5.0,317.0,10.0,317.0,18.5,310.5,23.5,319.0,31.5,321.5,35.0,316.5,37.5,322.0,40.0,314.5,48.0,312.5,48.0,306.5,56.5,304.5,64.5,305.5,72.0,299.5" stroke="black" stroke-width="2" fill="none" />
<polyline points="72.5,291.5,64.0,292.5,55.0,291.0,52.0,284.0,51.5,276.0,64.5,263.0,67.5,256.5,79.5,248.0,83.0,237.5,74.0,229.5,66.0,235.0" stroke="black" stroke-width="2" fill="none" />
<polyline points="68.5,229.0,62.0,237.0,60.5,245.0,60.5,252.5,67.5,257.0,76.0,252.5" stroke="black" stroke-width="2" fill="none" />
<polyline points="81.5,234.5,73.0,229.5" stroke="black" stroke-width="2" fill="none" />
<polyline points="72.0,230.0,67.0,238.0,63.5,246.0,71.5,247.0,71.5,242.0,79.5,240.5" stroke="black" stroke-width="2" fill="none" />
<polyline points="71.0,221.5,79.0,224.5,81.5,232.0,86.5,240.0,85.5,250.5,81.5,262.0,68.5,270.5,66.0,273.5,74.0,267.5,82.5,265.5,90.5,261.5,95.5,271.5,95.5,263.5,93.5,272.0,90.5,280.0,83.0,288.0,75.0,288.5,71.5,295.5,70.0,301.0,67.5,314.0,61.0,316.5,50.5,325.0,50.5,329.0,33.0,332.5,46.5,340.5,48.5,333.5,56.0,334.0,64.0,325.0,63.5,318.5,66.5,319.5,74.0,312.5,80.5,298.5,88.5,290.0,95.5,295.0" stroke="black" stroke-width="2" fill="none" />
<polyline points="87.5,288.5,83.5,296.5,83.5,302.5,78.0,310.5,77.0,317.0,71.0,319.0,69.0,327.0,61.5,329.5,47.0,333.5" stroke="black" stroke-width="2" fill="none" />
<polyline points="39.5,312.5,31.5,314.0,23.0,312.0,19.0,302.5,18.0,298.0,9.5,298.0,7.0,291.0,6.5,294.0,5.5,297.0" stroke="black" stroke-width="2" fill="none" />
<polyline points="21.5,289.0,13.5,277.0,5.5,272.5" stroke="black" stroke-width="2" fill="none" />
<polyline points="9.5,273.0,16.5,281.0,20.5,289.0,33.5,297.0,41.5,302.0,49.5,302.0,57.5,301.5,66.0,300.0,70.5,295.0,79.0,290.5,87.0,284.5,95.0,271.5" stroke="black" stroke-width="2" fill="none" />
<polyline points="101.0,265.5,97.0,273.5,95.0,281.0,90.5,288.5,98.5,290.5,93.5,296.0,101.5,297.5,109.5,297.5" stroke="black" stroke-width="2" fill="none" />
<polyline points="113.5,299.0,113.5,307.0,107.5,306.0,108.5,314.0,117.5,309.5" stroke="black" stroke-width="2" fill="none" />
<polyline points="124.0,298.5,122.0,306.5,131.5,304.0,139.5,293.0,147.0,285.5" stroke="black" stroke-width="2" fill="none" />
<polyline points="168.0,279.0,176.0,277.0,190.5,282.0,187.0,295.0,182.5,304.0,192.0,314.0,196.5,322.0,205.5,331.0,193.5,335.0,194.0,336.0,202.0,335.0,206.0,327.0,214.0,331.0" stroke="black" stroke-width="2" fill="none" />
<polyline points="253.5,297.5,258.5,300.5,255.0,309.0,254.0,312.0,258.0,309.5,267.0,307.0,271.5,300.5,279.0,289.5" stroke="black" stroke-width="2" fill="none" />
<polyline points="280.5,290.0,277.5,291.0,272.0,299.0,265.0,299.5,260.5,304.5,257.5,311.5,257.5,320.5,262.0,322.0,270.0,322.0,278.0,318.5,282.0,320.5,286.0,323.0,293.0,324.5,297.0,324.5,295.0,332.5,300.0,337.0,296.0,339.0,278.5,339.5,285.5,335.5,294.5,336.5,298.5,327.5,303.5,328.5,311.5,326.0,319.0,326.5,327.5,323.5,338.5,315.0,343.0,320.0,354.0,321.0,362.5,323.0,370.5,323.0,379.5,317.0,387.5,328.0" stroke="black" stroke-width="2" fill="none" />
<polyline points="409.0,293.0,417.5,287.0" stroke="black" stroke-width="2" fill="none" />
<polyline points="388.0,284.5,389.5,292.5,389.5,300.5,389.5,308.5,390.5,316.5,399.0,325.0,407.0,333.0,410.0,340.5" stroke="black" stroke-width="2" fill="none" />
<polyline points="362.5,341.0,350.5,340.0,344.0,337.0,346.0,329.0,354.0,321.5,351.5,318.0,344.0,317.5,343.0,309.5,349.0,298.5,364.0,291.0,377.0,283.0" stroke="black" stroke-width="2" fill="none" />
<polyline points="352.0,274.5,344.5,274.5,337.5,273.5,346.5,263.5,341.0,255.0,339.0,247.0,341.0,239.0,339.5,230.5" stroke="black" stroke-width="2" fill="none" />
<polyline points="337.0,232.5,335.0,240.5" stroke="black" stroke-width="2" fill="none" />
<polyline points="330.5,224.0,338.0,225.0,344.5,228.5,352.5,228.5" stroke="black" stroke-width="2" fill="none" />
<polyline points="365.0,225.5,368.0,233.5" stroke="black" stroke-width="2" fill="none" />
<polyline points="365.0,243.5,359.5,235.0,359.5,227.5,369.5,219.5,373.5,214.5,360.0,206.5" stroke="black" stroke-width="2" fill="none" />
<polyline points="343.0,190.5,335.0,201.5,327.0,200.5,319.0,201.0,311.5,201.0,303.0,201.0,295.0,201.0" stroke="black" stroke-width="2" fill="none" />
<polyline points="294.0,199.0,302.0,198.0,310.5,198.0" stroke="black" stroke-width="2" fill="none" />
<polyline points="312.5,195.0,304.5,192.0" stroke="black" stroke-width="2" fill="none" />
<polyline points="300.0,210.0,308.0,213.0,316.0,211.5,327.0,204.0" stroke="black" stroke-width="2" fill="none" />
<polyline points="325.5,203.5,320.0,211.5,320.5,219.5,315.0,221.5,318.5,228.5,320.5,236.5,331.5,240.0" stroke="black" stroke-width="2" fill="none" />
<polyline points="334.0,229.0,325.5,239.0,317.5,239.5,309.5,239.5,302.0,257.0,289.0,271.5,281.0,267.5,273.0,261.0,271.0,271.0,267.0,282.0,260.0,283.5,258.5,273.5,255.5,272.0,252.5,270.0,257.5,262.0,261.0,253.5,266.0,245.5,266.0,237.0,259.0,228.5" stroke="black" stroke-width="2" fill="none" />
<polyline points="263.0,235.5,263.0,232.0,254.5,230.5,244.0,226.5,236.0,219.0,228.0,215.0,220.0,213.0" stroke="black" stroke-width="2" fill="none" />
<polyline points="217.5,217.0,226.5,225.0,232.0,231.5,230.0,239.5,226.5,247.0,225.5,256.0,224.0,252.0,231.5,235.5" stroke="black" stroke-width="2" fill="none" />
<polyline points="239.0,227.5,230.5,220.5" stroke="black" stroke-width="2" fill="none" />
<polyline points="230.0,215.5,237.0,223.5,243.5,231.0,252.0,235.5,249.0,244.0,244.0,252.5,243.0,260.5,240.0,268.5,234.0,276.5,224.0,284.5,224.0,289.5,232.0,289.5,239.5,286.5,239.0,279.5,243.5,272.5,251.0,270.5,254.0,281.5,264.5,285.0,273.0,279.0,276.0,271.5,283.0,275.5,286.0,277.0,288.5,287.0,294.0,298.0,306.0,299.0,313.5,295.5,317.5,283.0,318.5,287.0,326.5,285.0,334.5,286.5,342.5,285.0,350.5,284.0,359.0,283.0,367.5,281.0,376.0,281.0,385.0,282.5,393.0,283.0,401.5,280.0,410.5,278.5,416.5,282.5,422.0,275.5,430.0,273.0,432.0,277.0,440.0,271.0,446.0,262.5,454.0,254.5,457.5,246.0,465.5,244.5,473.0,245.0,480.5,245.0,488.5,246.0,496.5,246.0" stroke="black" stroke-width="2" fill="none" />
<polyline points="473.5,301.0,468.0,308.5,463.0,316.5,463.0,315.5,466.0,317.0,474.5,315.0,482.0,307.0" stroke="black" stroke-width="2" fill="none" />
<polyline points="475.5,303.5,474.5,311.5,469.5,306.5" stroke="black" stroke-width="2" fill="none" />
<polyline points="433.0,220.5,432.0,219.5,424.0,210.5,420.5,215.0,416.5,214.5,408.5,213.5,400.5,211.5,392.0,210.0,391.5,212.5,384.0,211.0,384.0,207.0,388.0,196.5,381.5,188.5" stroke="black" stroke-width="2" fill="none" />
<polyline points="390.0,175.0,388.0,177.0,392.5,185.0,398.5,193.0" stroke="black" stroke-width="2" fill="none" />
<polyline points="408.5,192.5,405.0,184.0,401.0,176.5" stroke="black" stroke-width="2" fill="none" />
<polyline points="400.0,175.0,392.0,174.0,384.0,172.5,375.5,173.5,367.5,172.5" stroke="black" stroke-width="2" fill="none" />
<polyline points="367.0,163.0,375.0,160.0,382.5,157.0,390.0,154.0,398.0,153.0" stroke="black" stroke-width="2" fill="none" />
<polyline points="405.5,143.0,410.0,137.0,404.0,123.5,389.5,110.5" stroke="black" stroke-width="2" fill="none" />
<polyline points="392.5,109.0,400.5,113.5,408.5,116.0,417.5,121.0" stroke="black" stroke-width="2" fill="none" />
<polyline points="403.0,125.0,395.0,118.5" stroke="black" stroke-width="2" fill="none" />
<polyline points="386.0,117.0,394.0,116.5,402.0,120.5,410.5,126.0,417.5,126.5,425.0,121.0" stroke="black" stroke-width="2" fill="none" />
<polyline points="426.5,120.0,431.5,112.0,429.0,115.0,423.0,116.0,413.0,115.0,401.0,104.0,388.0,98.0,392.0,90.5,385.0,88.0,381.0,80.5,384.0,72.5,387.5,64.5,388.0,64.0,380.0,78.0" stroke="black" stroke-width="2" fill="none" />
<polyline points="381.0,82.0,389.0,66.0,385.0,74.0,379.0,86.5,382.0,94.5,382.0,102.5,378.0,109.5,374.5,117.0,369.5,125.0,367.5,116.5,375.5,114.0,383.5,99.0,391.0,96.0,396.0,90.0,400.0,103.0,408.0,110.0,416.0,103.0,421.0,93.0,429.5,95.0,438.0,94.0,444.0,93.5,450.0,104.5,457.5,113.5,465.5,116.5,469.5,119.5,473.0,124.0,476.5,128.0,484.5,134.0,486.0,142.0,494.0,143.0,502.0,140.0" stroke="black" stroke-width="2" fill="none" />
<polyline points="505.0,136.5,497.0,131.5" stroke="black" stroke-width="2" fill="none" />
<polyline points="495.0,129.0,503.0,137.0,502.0,145.0,503.0,143.0,511.0,141.0" stroke="black" stroke-width="2" fill="none" />
<polyline points="498.0,118.0,490.0,116.0" stroke="black" stroke-width="2" fill="none" />
<polyline points="486.5,124.0,478.0,126.0" stroke="black" stroke-width="2" fill="none" />
<polyline points="475.0,119.5,481.5,127.5,481.5,132.5" stroke="black" stroke-width="2" fill="none" />
<polyline points="481.5,144.5,474.0,137.5,466.0,139.5,457.5,145.5,453.0,159.5,445.0,163.5,443.0,161.5,451.0,153.5,455.0,151.5,461.0,144.0,462.0,134.0,463.0,126.0,461.0,118.0,451.5,110.0,451.0,102.0,441.0,91.0,433.0,88.0" stroke="black" stroke-width="2" fill="none" />
<polyline points="430.5,84.0,438.5,87.5,446.0,87.5,454.0,84.5,457.0,84.5,452.0,93.0,456.0,100.5,467.0,108.5,466.0,116.5,471.0,123.5,476.0,131.5,482.0,139.5,474.0,149.5,475.0,155.5,473.0,157.5,481.0,151.5,489.0,153.5,500.0,151.0,508.0,153.0,508.5,156.0" stroke="black" stroke-width="2" fill="none" />
<polyline points="509.0,172.0,503.0,181.0,495.0,186.5,495.5,187.5,505.5,180.0,503.0,167.0,508.0,158.5,498.0,150.5,490.0,141.5,485.0,140.5,486.0,128.5,481.0,120.5,487.0,112.5,493.0,106.5,482.0,98.0,482.5,86.0,488.5,72.0,494.5,63.5,495.0,56.0,489.0,50.0,486.5,46.0,492.5,45.0,494.5,37.5,501.5,31.5,493.5,33.5,485.5,37.5,477.5,42.5" stroke="black" stroke-width="2" fill="none" />
<polyline points="480.5,44.0,482.5,52.0,487.5,59.5" stroke="black" stroke-width="2" fill="none" />
<polyline points="500.0,64.0,495.0,55.0,486.5,57.5,478.5,49.5" stroke="black" stroke-width="2" fill="none" />
<polyline points="483.5,45.5,491.5,47.5,499.5,49.5" stroke="black" stroke-width="2" fill="none" />
<polyline points="494.5,37.0,502.0,32.0" stroke="black" stroke-width="2" fill="none" />
<polyline points="481.0,43.5,489.0,40.5,497.0,43.5,499.0,49.5,504.0,57.5,505.0,65.5,504.0,70.5,506.0,70.0" stroke="black" stroke-width="2" fill="none" />
<polyline points="493.0,68.5,485.0,75.5,477.0,77.5,469.0,73.5,461.0,69.0" stroke="black" stroke-width="2" fill="none" />
<polyline points="459.0,81.5,451.0,93.5" stroke="black" stroke-width="2" fill="none" />
<polyline points="452.0,95.5,460.0,101.5,468.0,107.0,473.0,115.0,481.0,106.0,491.0,110.0" stroke="black" stroke-width="2" fill="none" />
<polyline points="496.0,107.0,488.5,115.0,497.5,123.0,498.0,123.0,504.0,123.5" stroke="black" stroke-width="2" fill="none" />
<polyline points="509.0,132.5,501.0,131.5,492.0,125.5,490.0,121.5,482.0,119.0,474.0,117.5" stroke="black" stroke-width="2" fill="none" />
<polyline points="469.5,131.5,476.0,139.5,474.0,149.0" stroke="black" stroke-width="2" fill="none" />
<polyline points="471.5,142.5,463.0,142.5" stroke="black" stroke-width="2" fill="none" />
<polyline points="452.5,153.5,451.5,161.5" stroke="black" stroke-width="2" fill="none" />
<polyline points="453.0,175.5,448.5,183.5" stroke="black" stroke-width="2" fill="none" />
<polyline points="449.0,176.5,441.0,184.5" stroke="black" stroke-width="2" fill="none" />
<polyline points="433.5,171.5,435.5,160.5" stroke="black" stroke-width="2" fill="none" />
<polyline points="434.0,160.5,429.5,168.5,432.5,184.0,442.5,191.5,446.0,199.5,441.0,207.5,442.0,219.5" stroke="black" stroke-width="2" fill="none" />
<polyline points="416.5,169.5,407.5,161.5" stroke="black" stroke-width="2" fill="none" />
<polyline points="421.0,156.5,419.0,164.5,421.0,152.5,429.5,145.5,437.5,146.0" stroke="black" stroke-width="2" fill="none" />
<polyline points="433.0,149.0,425.5,148.0" stroke="black" stroke-width="2" fill="none" />
<polyline points="424.5,147.5,435.5,151.5,443.5,150.5" stroke="black" stroke-width="2" fill="none" />
<polyline points="444.5,141.0,436.5,143.0,429.0,142.5,421.0,141.5" stroke="black" stroke-width="2" fill="none" />
<polyline points="421.0,139.5,429.0,140.5,436.5,140.5,444.5,137.5" stroke="black" stroke-width="2" fill="none" />
<polyline points="440.5,135.5,448.0,132.5,445.5,130.5,444.5,116.0,436.0,108.0,437.0,94.0,428.0,91.0,429.0,83.0,426.5,73.0,436.5,65.0,434.5,57.0,437.5,48.0,436.0,39.5,442.0,36.5,433.0,29.5,424.5,22.5,417.0,16.0" stroke="black" stroke-width="2" fill="none" />
<polyline points="417.0,13.5,424.5,14.0" stroke="black" stroke-width="2" fill="none" />
<polyline points="426.5,2.5,429.0,3.5,431.0,7.5,435.5,8.0,441.5,10.0,449.0,10.0,456.5,18.0" stroke="black" stroke-width="2" fill="none" />
<polyline points="454.5,19.0,446.5,18.0" stroke="black" stroke-width="2" fill="none" />
<polyline points="440.5,21.0,448.5,28.0" stroke="black" stroke-width="2" fill="none" />
<polyline points="450.5,27.0,442.5,21.0,434.5,20.5,436.5,18.5,443.0,10.5,446.5,2.5,448.0,3.5" stroke="black" stroke-width="2" fill="none" />
<polyline points="449.5,4.5,458.5,4.0,463.5,12.0,472.5,20.5,469.5,28.5,462.0,37.5,459.5,43.0" stroke="black" stroke-width="2" fill="none" />
<polyline points="450.5,49.5,443.0,58.0,435.0,56.5,427.0,51.5,419.0,59.0,411.5,68.5,404.0,67.5" stroke="black" stroke-width="2" fill="none" />
<polyline points="414.5,72.5,418.5,63.5,413.0,69.5,421.0,64.0,423.0,70.0,423.0,78.0,419.0,81.0" stroke="black" stroke-width="2" fill="none" />
<polyline points="418.0,81.0,420.0,73.0,417.0,76.0" stroke="black" stroke-width="2" fill="none" />
<polyline points="427.0,73.0,434.5,65.5,441.5,67.0" stroke="black" stroke-width="2" fill="none" />
<polyline points="444.0,65.0,450.0,73.0,456.0,80.5" stroke="black" stroke-width="2" fill="none" />
<polyline points="464.0,91.0,466.0,99.0,472.0,100.0,480.0,103.5,487.5,108.5" stroke="black" stroke-width="2" fill="none" />
<polyline points="497.5,107.5,508.5,115.5,504.0,124.0" stroke="black" stroke-width="2" fill="none" />
<polyline points="509.5,102.5,501.0,96.5" stroke="black" stroke-width="2" fill="none" />
<polyline points="499.5,95.0,507.0,95.0" stroke="black" stroke-width="2" fill="none" />
<polyline points="506.5,101.5,499.5,93.0" stroke="black" stroke-width="2" fill="none" />
<polyline points="502.5,110.5,494.5,106.0,486.5,101.0,478.0,97.0,470.5,94.5,462.5,92.5" stroke="black" stroke-width="2" fill="none" />
<polyline points="475.0,101.0,481.5,109.0,474.5,115.0,468.5,123.0,464.5,136.0,449.0,144.0,444.5,146.5,452.5,142.5,460.5,138.0,468.0,129.0,468.0,125.0,481.0,135.0,491.5,144.0" stroke="black" stroke-width="2" fill="none" />
<polyline points="503.0,166.5,495.0,170.5,487.5,166.0,478.0,166.0,470.0,164.5,462.0,164.0,454.0,170.0,445.5,180.0,437.5,186.5,425.0,184.5,417.0,185.5,422.0,180.0,410.5,171.5,415.5,161.5,420.5,153.0,421.0,145.0,419.0,137.0" stroke="black" stroke-width="2" fill="none" />
<polyline points="394.5,127.5,387.0,127.0,379.0,128.0" stroke="black" stroke-width="2" fill="none" />
<polyline points="383.0,131.5,391.0,134.5,391.5,143.0" stroke="black" stroke-width="2" fill="none" />
<polyline points="408.5,152.5,400.5,147.5,395.5,150.5,383.5,150.0,374.5,155.5,368.5,152.5,369.5,144.0,360.0,136.0" stroke="black" stroke-width="2" fill="none" />
<polyline points="340.0,115.0,332.0,110.0,324.0,105.5,316.5,100.5" stroke="black" stroke-width="2" fill="none" />
<polyline points="317.0,108.5,319.0,104.0,327.0,109.0,335.0,112.5" stroke="black" stroke-width="2" fill="none" />
<polyline points="327.5,122.0,319.0,120.0" stroke="black" stroke-width="2" fill="none" />
<polyline points="314.0,114.0,325.0,121.0,329.0,129.5,327.0,137.5" stroke="black" stroke-width="2" fill="none" />
<polyline points="341.0,153.5,336.0,161.5,328.0,162.0,319.5,161.0,311.5,169.0,303.5,167.5" stroke="black" stroke-width="2" fill="none" />
<polyline points="290.0,164.0,282.0,159.0,274.0,170.0,271.0,181.5,266.5,176.5,258.0,171.5,250.0,170.0,242.0,170.0,233.5,167.5,231.0,168.5,235.0,160.5,236.0,152.0,230.5,152.0,222.5,156.5,214.0,161.5,213.5,161.5,226.5,153.5,236.5,152.0,240.0,144.0,244.0,136.5,251.5,128.0,258.0,120.0,250.0,121.0,242.0,121.0,234.0,123.0" stroke="black" stroke-width="2" fill="none" />
<polyline points="235.5,122.5,243.5,122.5,251.5,122.5" stroke="black" stroke-width="2" fill="none" />
<polyline points="257.5,134.0,256.5,134.0,252.0,141.5,246.0,149.0,241.0,157.5,239.0,159.5,247.0,149.0,252.0,133.0,257.0,134.5,265.5,130.5,273.5,134.0,281.0,137.5,289.0,142.5" stroke="black" stroke-width="2" fill="none" />
<polyline points="294.0,133.5,286.0,132.5" stroke="black" stroke-width="2" fill="none" />
<polyline points="276.0,129.5,284.5,137.5,292.5,140.0,300.0,146.0" stroke="black" stroke-width="2" fill="none" />
<polyline points="291.5,129.0,283.5,125.5,276.0,128.0" stroke="black" stroke-width="2" fill="none" />
<polyline points="273.5,122.5,276.5,130.5,287.0,138.5,298.5,145.0,295.0,153.5,294.5,161.5,293.5,173.0,302.0,177.5,310.0,177.5" stroke="black" stroke-width="2" fill="none" />
<polyline points="281.0,172.5,277.0,182.5" stroke="black" stroke-width="2" fill="none" />
<polyline points="260.5,187.0,253.5,183.0,246.0,181.0,244.5,186.0,239.0,188.0,241.0,184.0,233.5,182.0" stroke="black" stroke-width="2" fill="none" />
<polyline points="234.0,171.5,241.5,171.5" stroke="black" stroke-width="2" fill="none" />
<polyline points="239.0,173.0,247.0,173.0" stroke="black" stroke-width="2" fill="none" />
<polyline points="259.5,180.5,264.5,188.5,255.5,193.5,255.5,201.0,255.5,206.0,258.5,209.0,266.5,207.0,270.5,210.0,278.0,211.0,277.0,221.0,285.0,226.5,293.0,230.5,301.0,226.5,309.5,221.5,317.5,225.0,319.0,232.5,329.0,223.5,332.0,214.0,338.0,223.0,344.0,206.0" stroke="black" stroke-width="2" fill="none" />
<polyline points="324.0,206.5,322.0,214.5,322.0,223.0,329.0,227.0,327.5,235.0" stroke="black" stroke-width="2" fill="none" />
<polyline points="304.0,220.0,306.0,228.0,305.0,236.0,302.0,244.5,307.0,255.0,308.5,261.0" stroke="black" stroke-width="2" fill="none" />
<polyline points="273.5,248.5,269.5,247.0,264.5,250.5,257.0,254.0,249.0,257.5" stroke="black" stroke-width="2" fill="none" />
<polyline points="254.5,259.5,266.5,254.0,262.0,262.0,257.0,260.5,263.5,260.5,270.0,265.5,278.0,262.5,285.5,262.5,286.5,267.5,284.0,262.5,284.0,270.5,262.5,271.5,271.0,276.5,267.0,283.5" stroke="black" stroke-width="2" fill="none" />
<polyline points="255.5,285.0,248.0,279.0,240.0,284.5" stroke="black" stroke-width="2" fill="none" />
<polyline points="248.0,279.0,248.0,287.0,244.0,288.5,244.0,299.5,239.0,303.0,239.5,302.5,242.5,293.5,251.5,296.0,261.0,297.0,274.0,302.0,279.0,297.5" stroke="black" stroke-width="2" fill="none" />
<polyline points="294.0,297.5,298.5,305.5,303.0,314.0,309.0,315.0,307.0,322.5" stroke="black" stroke-width="2" fill="none" />
<polyline points="268.0,269.5,260.5,270.5,258.5,284.0,250.0,276.0" stroke="black" stroke-width="2" fill="none" />
<polyline points="245.5,272.5,241.5,280.5,237.5,282.0,233.5,290.0,235.5,294.5,243.5,287.0" stroke="black" stroke-width="2" fill="none" />
<polyline points="245.5,249.0,246.5,245.5" stroke="black" stroke-width="2" fill="none" />
<polyline points="254.5,244.0,244.5,235.0,234.5,230.0,224.0,232.0,220.0,235.0,212.5,240.5,204.5,254.5,196.5,257.5,198.5,250.0,199.5,242.0,201.5,233.5,189.5,227.5,201.5,224.5,198.5,221.5,203.5,210.5,203.0,202.5,197.0,193.5,199.5,187.5,195.5,180.5,189.5,175.5,193.5,166.5,193.5,158.5,197.5,150.5,190.5,144.0,180.5,136.0,167.0,128.0,155.5,129.5" stroke="black" stroke-width="2" fill="none" />
<polyline points="154.5,123.5,162.5,124.5,170.5,128.5,179.0,134.0,187.0,134.5,186.0,139.5" stroke="black" stroke-width="2" fill="none" />
<polyline points="186.0,128.0,194.0,134.0,203.0,131.5" stroke="black" stroke-width="2" fill="none" />
<polyline points="206.5,150.0,207.5,158.0,193.5,166.0,199.0,164.0" stroke="black" stroke-width="2" fill="none" />
<polyline points="197.5,168.0,205.5,173.0,217.0,188.0,225.0,192.0,233.0,194.5,240.5,197.5,248.5,201.5,257.0,201.0,264.5,202.0,272.5,201.0,280.0,199.0,280.0,204.0,286.5,193.5" stroke="black" stroke-width="2" fill="none" />
<polyline points="274.5,193.5,266.5,197.0,262.5,194.0,259.0,197.0,257.0,193.0,248.0,202.0,240.5,203.0,232.5,197.0" stroke="black" stroke-width="2" fill="none" />
<polyline points="229.0,194.0,236.0,202.0,247.0,206.5,248.0,210.0,250.5,221.0,258.0,221.5,259.0,213.5,266.5,216.0" stroke="black" stroke-width="2" fill="none" />
<polyline points="265.0,221.0,280.5,228.5,284.5,240.0,284.5,239.5" stroke="black" stroke-width="2" fill="none" />
<polyline points="292.5,243.0,293.5,239.5,287.5,252.5,279.5,237.5,271.5,230.5,263.5,227.5,255.5,225.5,247.5,222.5,234.5,215.0,228.5,213.0,225.5,204.5,217.5,203.5,209.5,214.0,202.0,227.0,194.0,223.0,186.5,231.0" stroke="black" stroke-width="2" fill="none" />
<polyline points="193.0,241.5,192.0,249.0,186.0,257.0,195.0,270.0,200.0,278.0,208.0,274.0,219.5,277.0" stroke="black" stroke-width="2" fill="none" />
<polyline points="207.5,274.5,200.0,286.5,208.5,287.5,216.5,288.5,224.5,283.0,232.5,276.5,242.5,263.0,251.0,260.5,251.0,263.5,257.0,269.0,265.0,265.0" stroke="black" stroke-width="2" fill="none" />
<polyline points="270.5,276.0,267.0,272.5,263.0,268.5,269.0,266.5,267.5,258.0,269.5,250.0,262.5,247.0,261.5,239.0" stroke="black" stroke-width="2" fill="none" />
<polyline points="270.0,229.5,279.0,237.5,284.0,245.5,288.5,253.5,291.5,262.0,293.0,271.5,291.0,279.5,294.0,279.0,297.0,287.0,299.0,295.0,302.0,303.0,302.0,311.0,303.0,318.5,305.0,319.5,311.0,328.5,312.5,339.0,322.0,340.5,325.0,340.0" stroke="black" stroke-width="2" fill="none" />
<polyline points="213.5,276.0,222.5,271.0,215.5,258.0" stroke="black" stroke-width="2" fill="none" />
<polyline points="210.0,252.5,205.0,261.0" stroke="black" stroke-width="2" fill="none" />
<polyline points="197.0,269.0,189.0,265.0" stroke="black" stroke-width="2" fill="none" />
<polyline points="192.0,280.0,184.5,280.0,176.5,283.0" stroke="black" stroke-width="2" fill="none" />
<polyline points="169.5,262.5,177.0,261.0,183.0,269.5,191.0,274.0,202.5,275.0" stroke="black" stroke-width="2" fill="none" />
<polyline points="174.0,255.0,165.5,256.0,157.5,249.0,149.5,249.0,149.0,251.0" stroke="black" stroke-width="2" fill="none" />
<polyline points="150.0,253.5,158.0,252.5,161.0,254.5,164.5,254.5,172.5,253.5" stroke="black" stroke-width="2" fill="none" />
<polyline points="176.0,249.0,169.0,261.0,177.0,269.5,175.0,279.0,176.0,282.0,179.0,287.0,175.0,294.0,177.5,302.0,179.5,308.5,173.5,309.5,166.5,311.5,160.5,319.5,158.0,329.0,161.0,325.0,169.0,324.5,177.0,315.0" stroke="black" stroke-width="2" fill="none" />
<polyline points="144.5,281.0,136.5,279.5,128.5,271.5" stroke="black" stroke-width="2" fill="none" />
<polyline points="139.0,288.5,137.0,289.5,122.5,280.5,123.0,272.5,116.0,261.5,115.0,257.0,110.0,256.0,124.0,247.0,124.0,239.0,118.5,230.5,119.5,222.5,113.0,217.0,112.0,209.0,111.5,201.0,114.0,193.0,120.0,185.5,118.5,179.5,118.5,167.5,127.0,159.5,136.0,151.5,137.0,144.0,152.0,140.0,156.0,132.5,159.0,124.5,148.0,121.5,140.0,120.0,132.0,120.5,123.5,119.5" stroke="black" stroke-width="2" fill="none" />
<polyline points="118.5,113.5,126.5,113.5,134.5,114.5,142.5,115.0,150.5,115.0,159.0,115.0,167.0,114.5,175.5,115.5,184.0,115.0" stroke="black" stroke-width="2" fill="none" />
<polyline points="180.5,106.0,188.5,114.0,198.5,127.0,200.5,135.0" stroke="black" stroke-width="2" fill="none" />
<polyline points="219.5,144.5,227.5,139.5,236.0,135.5,233.0,133.5,226.0,141.5,220.5,141.5,227.0,131.5" stroke="black" stroke-width="2" fill="none" />
<polyline points="229.5,130.0,220.0,137.5,217.0,148.5,222.5,146.5,230.5,145.5" stroke="black" stroke-width="2" fill="none" />
<polyline points="224.5,136.0,232.5,129.0,226.5,128.5,217.0,136.5,218.0,144.5,217.0,150.5,217.5,155.0" stroke="black" stroke-width="2" fill="none" />
<polyline points="214.5,167.0,222.5,168.5,230.5,169.5" stroke="black" stroke-width="2" fill="none" />
<polyline points="214.5,177.5,226.0,185.5,236.5,193.0,246.5,208.0,252.5,215.5,250.0,220.5,252.5,225.5,258.0,233.0,260.5,241.0,258.5,248.5,252.5,252.0,251.5,250.5" stroke="black" stroke-width="2" fill="none" />
<polyline points="231.0,230.0,223.0,221.0,215.0,221.0" stroke="black" stroke-width="2" fill="none" />
<polyline points="216.0,216.5,214.0,224.5,212.0,233.5,206.0,241.5,203.0,249.5,198.0,257.0" stroke="black" stroke-width="2" fill="none" />
<polyline points="187.0,257.0,184.0,255.0,188.0,250.0,192.0,242.5,186.0,247.5,188.0,252.0,186.0,254.0,181.5,255.5,177.5,249.5,171.0,248.0,180.0,239.5,181.5,231.0,177.0,230.0,169.5,236.5,161.5,247.5,153.5,247.0,145.5,247.5" stroke="black" stroke-width="2" fill="none" />
<polyline points="171.5,229.5,171.5,221.0,173.5,213.0,165.0,209.5" stroke="black" stroke-width="2" fill="none" />
<polyline points="161.0,210.0,169.0,208.0,172.5,203.0,177.5,208.0" stroke="black" stroke-width="2" fill="none" />
<polyline points="175.5,191.0,175.5,186.0,186.5,181.0,190.5,186.0" stroke="black" stroke-width="2" fill="none" />
<polyline points="196.5,177.5,205.0,176.5,213.5,175.5,221.5,180.5,229.0,187.5,234.5,183.5,232.5,184.5,234.5,190.5" stroke="black" stroke-width="2" fill="none" />
<polyline points="214.0,178.0,222.0,184.0,231.0,179.0,236.0,174.5,244.0,175.5,251.5,176.5,260.0,179.5,268.0,186.5,268.5,190.5,278.5,195.0" stroke="black" stroke-width="2" fill="none" />
<polyline points="302.5,212.0,300.5,220.0,300.5,228.0,298.5,235.5,300.5,238.5,303.5,248.0,298.5,256.0,289.5,268.5,284.0,276.5,282.0,284.5,287.5,292.0,284.0,300.5,283.0,304.0,282.0,312.0,275.0,319.5,269.0,322.5,273.0,328.0,274.0,324.0,282.0,322.0,290.0,324.5,298.0,321.0,307.0,315.5,312.0,315.5" stroke="black" stroke-width="2" fill="none" />
<polyline points="238.0,224.0,229.5,218.0,225.5,208.5,217.5,208.5,204.5,211.0,197.5,216.5,200.0,212.5,200.0,204.0,207.5,202.0,210.5,194.0,199.0,184.0,191.5,177.0,183.5,179.0,175.5,177.0,167.5,182.0" stroke="black" stroke-width="2" fill="none" />
<polyline points="169.5,185.0,177.5,182.0,185.0,182.5,193.0,188.0" stroke="black" stroke-width="2" fill="none" />
<polyline points="187.0,170.0,195.0,172.0,203.5,175.0,212.5,184.0,218.0,192.0" stroke="black" stroke-width="2" fill="none" />
<polyline points="203.5,164.5,195.5,168.5" stroke="black" stroke-width="2" fill="none" />
<polyline points="188.5,169.5,195.5,177.5,205.5,185.0,204.5,192.5,198.5,205.5,196.5,213.5,189.5,216.5,187.5,224.0,187.5,227.5,186.0,236.0,185.0,244.0,183.0,252.0,179.0,262.5,183.5,270.5,192.5,276.0,197.5,284.0,190.5,289.0,194.0,299.0,187.0,307.0,179.5,313.0,169.5,321.0,158.5,330.0,157.0,335.0" stroke="black" stroke-width="2" fill="none" />
<polyline points="150.0,300.0,143.0,310.0,132.5,311.0,126.0,318.0,121.5,320.5,119.5,331.5,117.5,328.5,119.5,320.5,121.5,315.0,125.5,306.5,128.5,298.5" stroke="black" stroke-width="2" fill="none" />
<polyline points="102.5,280.5,103.0,273.5,104.0,265.5" stroke="black" stroke-width="2" fill="none" />
<polyline points="105.5,251.0,105.5,258.5,106.0,266.5,108.0,270.0,94.5,277.0,100.5,278.0,102.5,274.0,115.5,271.0,123.5,271.0,132.0,272.0,140.0,273.5,148.5,277.5,153.0,286.0" stroke="black" stroke-width="2" fill="none" />
<polyline points="164.5,224.5,162.0,217.5" stroke="black" stroke-width="2" fill="none" />
<polyline points="144.0,201.0,142.0,187.0" stroke="black" stroke-width="2" fill="none" />
<polyline points="135.0,188.0,136.0,196.0,138.0,203.0,137.0,207.0,141.0,209.5,144.0,217.5,144.0,226.5,147.0,230.5,151.5,238.5,140.5,246.5" stroke="black" stroke-width="2" fill="none" />
<polyline points="162.0,246.0,158.0,238.0,158.0,231.0,155.5,223.0,153.5,214.5,151.5,206.5,143.5,202.5,138.5,194.0,139.0,186.0,134.0,184.5,130.0,188.0,122.0,188.0" stroke="black" stroke-width="2" fill="none" />
<polyline points="132.0,191.0,129.0,199.0,125.0,205.5,127.0,213.0,128.5,208.0,132.0,213.5,141.5,216.0" stroke="black" stroke-width="2" fill="none" />
<polyline points="152.0,204.5,145.5,197.5,143.0,189.0,132.0,181.0" stroke="black" stroke-width="2" fill="none" />
<polyline points="127.0,177.5,135.5,170.0" stroke="black" stroke-width="2" fill="none" />
<polyline points="133.0,168.5,136.0,177.5,129.0,185.5,125.0,193.0,120.0,200.5,119.0,208.5,126.5,216.0,134.5,215.5,130.0,223.0,124.5,231.0,127.5,225.0,135.5,229.0" stroke="black" stroke-width="2" fill="none" />
<polyline points="133.5,254.0,128.0,246.0,139.0,241.5,144.5,233.5,137.5,231.0,141.0,223.0,138.0,215.0,134.0,201.0,126.0,198.0,118.0,205.0" stroke="black" stroke-width="2" fill="none" />
<polyline points="85.5,207.0,93.5,209.0,107.0,203.5,116.0,192.5,122.0,176.5,128.0,169.5,132.0,169.0,141.5,168.5" stroke="black" stroke-width="2" fill="none" />
<polyline points="152.5,173.0,160.5,167.0,162.0,172.0,160.5,172.5,164.5,174.5,166.0,173.0,174.0,174.0,182.0,175.5,187.0,182.0,194.5,185.5,196.0,193.5,202.0,203.5,210.5,204.5,212.5,200.0,212.0,210.5,206.5,219.0,202.5,226.5,205.5,227.5,206.0,233.5,217.0,230.5,225.0,229.0" stroke="black" stroke-width="2" fill="none" />
<polyline points="220.0,227.5,208.5,230.5,200.0,228.5" stroke="black" stroke-width="2" fill="none" />
<polyline points="211.0,240.0,207.0,248.0,201.5,256.0,197.0,264.0,202.0,264.0,210.5,252.0" stroke="black" stroke-width="2" fill="none" />
<polyline points="154.5,235.5,146.5,242.5,138.5,249.0,131.0,251.0,123.0,251.0,120.0,249.0,112.5,250.0,104.0,235.0" stroke="black" stroke-width="2" fill="none" />
<polyline points="83.5,204.0,91.5,203.0,99.5,197.0,107.5,190.0" stroke="black" stroke-width="2" fill="none" />
<polyline points="96.5,191.5,88.5,191.5,81.0,191.5,73.0,190.5" stroke="black" stroke-width="2" fill="none" />
<polyline points="90.0,188.5,82.0,187.5,81.0,185.5,102.0,172.5,107.0,164.0,104.5,159.0,96.5,165.5,88.5,166.5,80.5,166.0,72.5,165.0,84.0,162.5,68.5,160.5" stroke="black" stroke-width="2" fill="none" />
<polyline points="70.5,164.0,78.5,149.0,86.0,136.0,96.0,130.0,104.5,121.0,113.0,114.0,120.5,119.5,128.0,123.5,128.0,127.5" stroke="black" stroke-width="2" fill="none" />
<polyline points="124.0,139.0,132.5,145.5" stroke="black" stroke-width="2" fill="none" />
<polyline points="144.5,145.0,156.5,148.0,157.5,156.0,146.5,164.0" stroke="black" stroke-width="2" fill="none" />
<polyline points="149.5,185.0,141.5,179.0,133.5,176.0,125.5,181.0,120.0,181.5,112.0,187.0,101.0,178.0,96.5,182.5,88.5,181.5,80.5,182.5,70.5,178.5,62.5,182.5,59.5,187.5,53.0,188.0,48.5,194.0,43.5,194.0,35.5,203.0,31.0,195.5,22.0,193.0,14.0,201.5,3.5,191.5,1.5,193.5" stroke="black" stroke-width="2" fill="none" />
<polyline points="2.0,199.5,10.0,195.0" stroke="black" stroke-width="2" fill="none" />
<polyline points="6.0,205.0,2.5,203.0" stroke="black" stroke-width="2" fill="none" />
<polyline points="27.5,209.5,37.0,206.5,33.0,214.0,28.0,219.0,32.0,227.0,35.0,235.5,31.0,243.5,28.5,247.0" stroke="black" stroke-width="2" fill="none" />
<polyline points="28.0,259.5,21.0,267.5,23.0,262.0,31.5,260.0,39.5,268.5,47.5,264.5,55.0,261.5,62.5,260.5,70.5,258.5,78.0,255.5" stroke="black" stroke-width="2" fill="none" />
<polyline points="86.5,238.5,78.5,228.0,71.0,229.5,63.0,236.5,59.0,238.0,61.0,230.0,69.0,222.0,59.0,234.5" stroke="black" stroke-width="2" fill="none" />
<polyline points="52.5,238.5,54.0,230.5,55.5,222.0,60.5,214.0,58.0,217.0" stroke="black" stroke-width="2" fill="none" />
<polyline points="52.0,220.0,50.0,228.0" stroke="black" stroke-width="2" fill="none" />
<polyline points="51.0,224.0,59.0,211.0,67.0,210.0,75.0,209.5,83.0,211.5,91.5,220.0,101.5,220.0,110.0,221.0,119.0,220.5,128.0,229.5,136.0,232.0,141.0,235.5" stroke="black" stroke-width="2" fill="none" />
<polyline points="153.0,230.0,152.5,222.0,150.0,214.0,149.0,206.5,148.5,198.5,149.5,190.5,150.0,188.5,158.0,177.5,161.0,166.0,158.0,157.0,150.0,162.5,142.0,165.5,139.0,160.5,131.0,165.0,123.0,165.5,112.5,172.5,105.0,174.5,97.0,177.0,89.5,179.0,91.5,170.0,91.0,163.0,89.0,154.5,88.0,146.5,90.0,139.0,77.0,136.0,77.0,139.0" stroke="black" stroke-width="2" fill="none" />
<polyline points="91.5,134.0,91.5,142.5,91.5,150.0" stroke="black" stroke-width="2" fill="none" />
<polyline points="68.5,155.0,77.0,143.0,77.0,142.5,72.0,150.5,69.5,158.5,65.5,166.5,76.5,174.5,75.5,179.0,83.5,176.0,91.0,174.5,99.0,172.5,107.0,169.0,115.0,166.0,119.0,155.0" stroke="black" stroke-width="2" fill="none" />
<polyline points="143.5,130.0,146.0,132.0,141.0,132.0,136.0,122.0,134.0,133.0,126.5,133.0,122.5,130.0,117.0,122.0,109.5,120.5,97.5,121.5,107.5,110.5,113.5,102.5,109.5,97.5,101.5,105.0" stroke="black" stroke-width="2" fill="none" />
<polyline points="106.0,115.0,114.0,107.0,122.0,102.5,130.0,102.5,138.0,102.5" stroke="black" stroke-width="2" fill="none" />
<polyline points="152.5,99.5,153.0,91.0,152.0,83.0,146.5,74.5,148.5,66.5,143.5,66.5" stroke="black" stroke-width="2" fill="none" />
<polyline points="145.5,72.5,153.5,79.0,160.5,77.5,169.0,74.0,177.0,68.0,182.5,56.0,189.5,50.5,197.5,45.5,205.5,39.5,214.0,30.5" stroke="black" stroke-width="2" fill="none" />
<polyline points="221.5,34.5,214.0,42.5,213.0,44.0,220.5,34.0,233.5,22.0" stroke="black" stroke-width="2" fill="none" />
<polyline points="237.5,10.5,245.5,10.5,253.5,15.5,261.0,12.5,267.0,10.0,275.0,11.5,283.5,9.5,291.5,3.0" stroke="black" stroke-width="2" fill="none" />
<polyline points="296.5,2.0,291.5,10.0,284.5,17.5,292.5,15.5,300.5,17.0,308.5,19.5,316.5,23.5" stroke="black" stroke-width="2" fill="none" />
<polyline points="312.0,25.0,304.0,22.0,295.5,20.0,287.5,21.0,279.0,22.0,270.5,20.0,267.5,21.0" stroke="black" stroke-width="2" fill="none" />
<polyline points="272.5,23.0,280.5,23.0,279.0,31.5" stroke="black" stroke-width="2" fill="none" />
<polyline points="268.5,43.5,260.5,43.5" stroke="black" stroke-width="2" fill="none" />
<polyline points="259.5,41.0,267.5,41.0,275.5,34.0,283.0,29.0,291.0,28.0,281.5,37.0" stroke="black" stroke-width="2" fill="none" />
<polyline points="292.0,42.0,289.0,50.0,283.0,58.5,278.0,66.5,271.5,74.0,261.5,82.0,256.5,96.0,262.0,96.0,266.0,90.0" stroke="black" stroke-width="2" fill="none" />
<polyline points="267.0,88.0,262.0,96.0,266.0,111.0" stroke="black" stroke-width="2" fill="none" />
<polyline points="272.5,122.5,279.0,118.5,295.0,126.5" stroke="black" stroke-width="2" fill="none" />
<polyline points="295.5,126.5,287.0,122.0,278.5,119.0,270.5,119.0,264.0,124.0,255.5,118.0,247.5,118.0,239.5,117.5,232.5,114.0,224.5,120.0,217.0,128.0,209.5,135.5,201.5,134.0,191.0,134.5,184.0,126.5,180.5,121.0,178.5,121.5,171.0,119.5,163.0,120.5,158.0,116.0,150.0,118.0,142.0,116.5,134.0,117.0,126.0,117.0,121.5,118.0,119.5,110.0,123.5,102.0,123.5,106.0" stroke="black" stroke-width="2" fill="none" />
<polyline points="113.5,103.5,105.5,114.5,97.5,120.5,93.5,120.5,85.0,129.5,77.0,131.5,69.0,139.5,65.5,147.5,57.5,155.5,49.5,163.0,41.5,163.0,40.5,168.5" stroke="black" stroke-width="2" fill="none" />
<polyline points="38.0,172.5,39.5,167.5,44.5,166.0,40.5,174.0,42.0,182.0" stroke="black" stroke-width="2" fill="none" />
<polyline points="54.0,174.0,62.0,171.0" stroke="black" stroke-width="2" fill="none" />
<polyline points="62.0,163.5,70.0,169.5,78.0,175.0,86.0,173.0" stroke="black" stroke-width="2" fill="none" />
<polyline points="62.0,167.0,54.0,172.0" stroke="black" stroke-width="2" fill="none" />
<polyline points="54.5,162.5,63.0,159.5,71.0,148.0,69.5,151.0,63.5,159.5,55.5,163.5,60.5,165.5,53.5,174.0,63.0,185.0,54.5,193.0,52.5,196.0,53.0,203.0,46.0,211.5,41.0,219.5,31.0,223.5" stroke="black" stroke-width="2" fill="none" />
<polyline points="35.5,217.5,44.0,206.5" stroke="black" stroke-width="2" fill="none" />
<polyline points="43.0,219.0,41.0,227.0,38.0,234.5,34.5,242.5,28.5,250.0,36.5,244.0,44.5,245.0,52.0,248.0,64.0,252.0,71.5,247.0" stroke="black" stroke-width="2" fill="none" />
<polyline points="48.0,271.0,56.0,269.0,44.5,276.0,47.5,284.0,51.0,292.0" stroke="black" stroke-width="2" fill="none" />
<polyline points="53.5,286.0,61.0,294.5,69.0,292.5,77.0,290.5" stroke="black" stroke-width="2" fill="none" />
<polyline points="57.0,305.5,54.0,314.0,46.5,322.0,41.0,324.0" stroke="black" stroke-width="2" fill="none" />
<polyline points="46.0,318.0,54.0,310.5" stroke="black" stroke-width="2" fill="none" />
<polyline points="49.5,292.5,41.5,290.0" stroke="black" stroke-width="2" fill="none" />
<polyline points="41.0,287.5,49.0,283.5,49.0,286.0,54.0,272.0,65.0,265.5" stroke="black" stroke-width="2" fill="none" />
<polyline points="36.0,270.5,32.5,262.0" stroke="black" stroke-width="2" fill="none" />
<polyline points="29.5,270.5,21.5,266.5" stroke="black" stroke-width="2" fill="none" />
<polyline points="17.5,274.0,10.0,267.0,2.0,263.0" stroke="black" stroke-width="2" fill="none" />
<polyline points="11.5,270.0,23.5,278.0,24.0,286.0,35.5,286.0,40.0,294.0,48.5,296.5" stroke="black" stroke-width="2" fill="none" />
<polyline points="46.5,295.5,35.5,287.5" stroke="black" stroke-width="2" fill="none" />
<polyline points="32.5,287.5,28.5,295.5,40.0,303.5,40.5,313.5,41.0,322.5,36.0,326.5,35.0,327.5,42.5,323.5,50.5,314.5,58.0,310.5,66.0,310.5,74.0,305.5" stroke="black" stroke-width="2" fill="none" />
<polyline points="41.5,228.5,49.5,213.5,57.5,207.5,65.5,208.5" stroke="black" stroke-width="2" fill="none" />
<polyline points="57.0,208.0,50.0,216.0,45.5,224.0,42.5,231.5,47.5,239.5,55.5,251.0,55.5,259.0,39.5,266.5,40.0,269.0,48.0,266.0,56.5,265.0,64.5,262.0,72.5,259.0,80.5,256.5" stroke="black" stroke-width="2" fill="none" />
<polyline points="39.0,223.0,47.5,209.0,55.5,204.0,56.5,196.0,64.5,195.0,72.5,196.5,80.5,197.0,88.5,194.5" stroke="black" stroke-width="2" fill="none" />
<polyline points="66.0,200.0,58.0,202.0" stroke="black" stroke-width="2" fill="none" />
<polyline points="40.5,203.0,29.0,221.0,15.0,213.0,7.0,221.0,1.0,229.0,4.0,215.0,12.0,208.5,4.0,214.5,8.5,219.5,17.0,211.5,16.0,203.5,19.5,196.0,26.5,193.0" stroke="black" stroke-width="2" fill="none" />
<polyline points="28.5,184.0,20.5,183.0" stroke="black" stroke-width="2" fill="none" />
<polyline points="19.0,167.0,27.0,175.0,35.5,181.0,45.5,179.5,53.5,180.5,61.5,181.5,72.0,185.5,80.0,185.5,83.5,184.5,91.5,185.0,99.5,185.0" stroke="black" stroke-width="2" fill="none" />
<polyline points="44.0,182.0,33.0,190.0,29.0,186.0,26.5,181.0,18.5,174.0,13.5,180.5,9.0,176.5,6.0,175.5,15.5,175.0,22.0,167.5,20.5,159.5,20.5,151.5" stroke="black" stroke-width="2" fill="none" />
<polyline points="7.5,154.0,4.0,157.5,8.0,149.5,3.0,148.5,3.0,140.0,6.0,133.5,3.0,124.0,3.0,116.0,5.0,108.5,8.0,107.5,7.0,99.5,7.0,91.0,9.0,83.0,6.5,75.5,3.5,70.5,8.5,58.5,7.5,50.5,13.5,44.0,10.5,44.0,1.5,49.0" stroke="black" stroke-width="2" fill="none" />
<polyline points="2.0,59.0,14.0,53.0,22.0,55.5,30.5,51.5,40.0,49.0,48.0,41.0,56.0,27.5" stroke="black" stroke-width="2" fill="none" />
<polyline points="75.0,26.5,83.5,24.0,91.5,30.0" stroke="black" stroke-width="2" fill="none" />
<polyline points="82.5,36.5,90.5,41.5,98.0,44.0,106.0,49.0,114.5,50.0,122.5,36.0,130.0,34.0,134.0,37.0,139.0,46.0,135.0,54.0,131.5,56.5,131.5,51.5,137.5,42.5,145.5,42.5" stroke="black" stroke-width="2" fill="none" />
<polyline points="150.5,46.0,142.5,50.0" stroke="black" stroke-width="2" fill="none" />
<polyline points="142.5,53.5,150.5,55.5" stroke="black" stroke-width="2" fill="none" />
<polyline points="147.5,73.0,154.5,81.0,154.0,89.0,149.0,91.0" stroke="black" stroke-width="2" fill="none" />
<polyline points="160.5,70.5,168.5,63.5,177.0,60.5,185.0,56.5,192.5,57.0,200.5,57.0,208.5,54.0,216.0,48.5,223.0,51.5,225.0,59.5,225.0,67.5" stroke="black" stroke-width="2" fill="none" />
<polyline points="230.5,75.0,227.5,82.5,228.0,91.0,233.0,91.5,234.5,97.5" stroke="black" stroke-width="2" fill="none" />
<polyline points="242.0,101.0,250.0,103.5,258.0,105.0" stroke="black" stroke-width="2" fill="none" />
<polyline points="242.5,107.5,234.5,104.5,226.5,103.5" stroke="black" stroke-width="2" fill="none" />
<polyline points="225.0,100.5,232.5,98.0,240.5,98.0,248.5,99.5,256.0,102.0" stroke="black" stroke-width="2" fill="none" />
<polyline points="259.0,100.5,250.5,97.5,242.5,97.0,235.0,92.0,228.0,95.5,225.5,98.0,224.0,92.0,222.5,93.5,217.5,90.5,224.0,76.0,234.0,68.0,229.0,72.0,221.0,80.0,213.0,84.5,205.0,89.5" stroke="black" stroke-width="2" fill="none" />
<polyline points="202.5,95.5,189.5,96.0,181.5,98.0" stroke="black" stroke-width="2" fill="none" />
<polyline points="178.0,103.0,182.0,111.0" stroke="black" stroke-width="2" fill="none" />
<polyline points="180.0,105.0,188.0,110.0,196.0,113.0" stroke="black" stroke-width="2" fill="none" />
<polyline points="202.0,114.0,211.5,106.5" stroke="black" stroke-width="2" fill="none" />
<polyline points="209.0,105.5,209.0,111.5,204.0,114.5,208.0,113.5" stroke="black" stroke-width="2" fill="none" />
<polyline points="217.5,111.5,213.5,121.0,211.0,119.0,216.5,118.0,215.0,116.0,225.0,108.0,218.0,100.0,212.0,92.0" stroke="black" stroke-width="2" fill="none" />
<polyline points="232.5,76.5,231.0,84.5,234.0,88.0,241.5,90.0,249.5,80.0,257.0,82.5,265.0,74.5,273.0,67.5,281.0,54.0" stroke="black" stroke-width="2" fill="none" />
<polyline points="277.0,49.0,269.0,51.0" stroke="black" stroke-width="2" fill="none" />
<polyline points="263.5,48.5,271.5,47.0,280.0,42.0,288.5,40.0,288.0,40.5,280.0,42.0,269.5,53.0,272.5,53.0,281.0,50.5,292.0,39.5,295.0,41.5,307.0,28.5,318.0,39.5,318.5,47.5,324.0,55.5,322.5,63.5,327.5,71.5,334.5,80.0,339.5,92.5,343.5,101.0,345.5,109.0,345.5,118.0,343.5,126.0" stroke="black" stroke-width="2" fill="none" />
<polyline points="352.5,101.0,348.5,93.5,347.5,86.5,342.5,79.0,334.5,75.0,326.0,67.0" stroke="black" stroke-width="2" fill="none" />
<polyline points="325.0,66.5,333.5,75.5,342.5,76.0,346.5,86.0,355.0,92.5" stroke="black" stroke-width="2" fill="none" />
<polyline points="358.5,97.5,348.5,89.5" stroke="black" stroke-width="2" fill="none" />
<polyline points="343.5,79.0,351.5,89.0,359.5,89.0,371.5,87.0,374.5,92.5,385.5,83.5,399.5,86.0,410.5,86.0,411.5,90.0" stroke="black" stroke-width="2" fill="none" />
<polyline points="424.0,92.0,416.5,100.0,413.0,108.0,417.0,107.0,425.0,107.0,433.0,108.0,441.0,116.0" stroke="black" stroke-width="2" fill="none" />
<polyline points="434.0,110.5,444.0,118.0,441.5,126.0" stroke="black" stroke-width="2" fill="none" />
<polyline points="441.0,130.5,433.0,135.0,425.0,136.0,416.0,138.0,408.5,132.0,400.5,135.0,396.5,139.5,388.5,140.0,383.5,146.0,387.0,145.5,381.0,146.0,384.0,133.0,379.5,131.0,376.5,125.0,380.5,117.0,387.5,109.5,387.5,101.5,387.5,108.5,379.5,118.5,371.5,131.5,363.0,126.0,367.5,118.0,360.5,110.5,361.5,102.5,360.5,96.0,354.5,88.0,349.5,80.0,348.0,72.0,339.0,74.0" stroke="black" stroke-width="2" fill="none" />
<polyline points="347.0,69.5,355.0,78.5,367.0,82.5,366.0,90.5,366.0,100.5,370.0,102.5" stroke="black" stroke-width="2" fill="none" />
<polyline points="366.5,115.0,371.0,107.5,375.0,99.5,371.0,92.5,368.0,85.0" stroke="black" stroke-width="2" fill="none" />
<polyline points="365.5,99.0,358.5,90.5,357.0,82.5,350.5,74.5" stroke="black" stroke-width="2" fill="none" />
<polyline points="355.0,57.0,363.0,59.0" stroke="black" stroke-width="2" fill="none" />
<polyline points="371.0,64.0,370.0,55.5,364.0,47.5,356.5,39.5,361.5,37.5,358.5,36.5" stroke="black" stroke-width="2" fill="none" />
<polyline points="358.5,38.5,369.5,46.5,377.0,54.0" stroke="black" stroke-width="2" fill="none" />
<polyline points="379.0,37.5,371.0,38.0,363.0,35.0" stroke="black" stroke-width="2" fill="none" />
<polyline points="362.0,29.5,370.0,30.0" stroke="black" stroke-width="2" fill="none" />
<polyline points="363.5,41.0,371.0,42.0,375.0,46.5" stroke="black" stroke-width="2" fill="none" />
<polyline points="365.0,48.5,356.5,43.5" stroke="black" stroke-width="2" fill="none" />
<polyline points="354.5,46.5,362.5,52.0" stroke="black" stroke-width="2" fill="none" />
<polyline points="367.0,62.5,358.5,61.5,354.5,58.0,355.0,50.0,353.0,42.5,350.5,34.5" stroke="black" stroke-width="2" fill="none" />
<polyline points="349.0,35.0,339.0,42.5,334.0,50.0,331.5,58.0,325.0,66.0,332.0,74.0,338.0,75.5,339.5,83.0,342.5,82.5,344.5,90.0,347.5,98.5,354.5,101.5,362.0,100.5,363.0,115.0,371.0,108.0" stroke="black" stroke-width="2" fill="none" />
<polyline points="337.0,92.5,333.5,82.5,326.0,78.5,318.0,78.5,310.0,82.5" stroke="black" stroke-width="2" fill="none" />
<polyline points="310.0,86.0,317.0,96.0,325.0,104.0,339.0,112.5,337.0,119.5,337.0,124.0,345.0,120.5" stroke="black" stroke-width="2" fill="none" />
<polyline points="329.5,101.5,323.5,96.5,315.0,97.5,306.5,94.5" stroke="black" stroke-width="2" fill="none" />
<polyline points="301.0,97.5,309.0,104.5,316.5,110.0,324.5,112.5,326.0,119.0,332.0,117.5,339.0,123.5" stroke="black" stroke-width="2" fill="none" />
<polyline points="343.5,99.5,335.5,89.5,330.5,85.5,322.5,94.5,323.0,93.5,328.0,81.5,324.0,76.5,311.5,75.5,304.0,86.5" stroke="black" stroke-width="2" fill="none" />
<polyline points="306.5,87.0,315.0,90.0,323.0,90.0" stroke="black" stroke-width="2" fill="none" />
<polyline points="325.0,86.0,317.0,82.5" stroke="black" stroke-width="2" fill="none" />
<polyline points="316.5,78.5,323.5,86.5" stroke="black" stroke-width="2" fill="none" />
<polyline points="326.5,75.5,325.5,71.5,313.0,67.0,305.0,74.0,309.0,67.5,314.0,60.5,306.5,67.0" stroke="black" stroke-width="2" fill="none" />
<polyline points="311.5,64.0,303.5,72.0,317.5,58.0,304.5,53.5,303.0,60.5,295.5,67.5,293.5,74.0,293.5,66.0,302.0,58.5,301.5,54.5,308.5,54.0" stroke="black" stroke-width="2" fill="none" />
<polyline points="297.5,49.5,294.5,57.5,290.0,65.5,280.0,73.5,273.5,81.5,272.5,87.0,269.5,95.0,269.5,103.0,272.5,110.0,265.5,121.0,264.0,125.0,270.5,132.0,272.0,140.0,271.0,148.0,272.0,147.0,276.0,150.0,283.0,148.0" stroke="black" stroke-width="2" fill="none" />
<polyline points="282.5,156.0,278.5,164.0,270.0,166.0,270.0,174.5,269.0,182.5,266.0,200.5,264.5,207.5,255.0,216.0,259.0,222.5,279.0,225.5,295.0,233.5,296.5,241.5,292.5,249.5,288.0,252.0,290.5,262.5,298.5,265.5,306.5,264.5,315.0,263.5,323.0,263.5" stroke="black" stroke-width="2" fill="none" />
<polyline points="350.5,174.5,348.0,166.5" stroke="black" stroke-width="2" fill="none" />
<polyline points="345.5,166.0,346.0,174.0" stroke="black" stroke-width="2" fill="none" />
<polyline points="331.5,137.0,329.5,129.0,327.0,120.5,316.0,113.5,308.5,108.5,300.5,100.5" stroke="black" stroke-width="2" fill="none" />
<polyline points="289.5,102.5,301.5,110.0,303.5,119.5,305.5,125.0,309.5,133.5,306.5,142.0,305.5,150.0,306.5,158.0,313.5,147.5,322.0,143.0,329.5,140.0" stroke="black" stroke-width="2" fill="none" />
<polyline points="321.0,127.5,311.0,121.0,305.0,109.0,301.5,106.5,293.5,103.5,285.0,103.5" stroke="black" stroke-width="2" fill="none" />
<polyline points="287.0,105.5,295.0,112.5" stroke="black" stroke-width="2" fill="none" />
<polyline points="293.0,117.5,289.0,109.5,287.5,101.5" stroke="black" stroke-width="2" fill="none" />
<polyline points="273.0,81.0,281.5,72.0,289.5,65.0,294.5,55.5" stroke="black" stroke-width="2" fill="none" />
<polyline points="287.0,51.5,279.0,63.0,271.0,73.0,263.0,79.0,255.0,88.0,250.0,93.5,244.0,85.5,254.0,76.5,263.0,76.5,273.0,69.0,279.5,61.0,284.0,53.0,290.0,44.5,294.0,39.0" stroke="black" stroke-width="2" fill="none" />
<polyline points="306.0,26.5,298.5,25.0,290.5,26.0,282.5,28.0,274.0,31.0,278.5,28.5,292.5,19.0" stroke="black" stroke-width="2" fill="none" />
<polyline points="301.5,20.0,318.5,27.0" stroke="black" stroke-width="2" fill="none" />
<polyline points="322.0,16.5,320.0,24.5,315.5,32.0,314.5,40.0,313.0,41.0,313.0,49.0,317.0,57.0,314.5,65.5,306.5,73.5,307.0,81.5,304.0,89.5,304.0,97.5,312.5,105.0,315.5,105.0,326.5,109.0,327.5,113.0,334.5,121.0,338.5,129.0" stroke="black" stroke-width="2" fill="none" />
<polyline points="313.5,134.0,307.5,126.0" stroke="black" stroke-width="2" fill="none" />
<polyline points="276.0,137.5,267.5,132.5" stroke="black" stroke-width="2" fill="none" />
<polyline points="273.0,133.5,286.0,141.5,290.0,149.5,287.0,157.5,293.0,165.0,304.0,165.5" stroke="black" stroke-width="2" fill="none" />
<polyline points="285.0,159.0,289.5,167.0,296.5,175.0,309.5,183.0,317.0,183.0,324.5,183.0,332.5,180.0,333.0,174.5" stroke="black" stroke-width="2" fill="none" />
<polyline points="261.5,145.5,253.5,160.5,245.5,164.5,248.5,163.0,254.5,155.0,259.0,147.0,262.5,139.0,256.5,138.0,254.5,136.0" stroke="black" stroke-width="2" fill="none" />
<polyline points="231.5,118.5,224.0,120.0,216.0,128.0,206.0,136.5,207.5,144.5,212.5,148.0,214.0,156.5,206.0,162.5,196.0,164.0,213.0,177.5,220.5,186.0" stroke="black" stroke-width="2" fill="none" />
<polyline points="194.5,215.0,186.5,225.0,176.0,244.5,168.0,249.5,166.0,243.0,170.0,234.5,176.0,227.0,178.0,226.0,174.0,219.0,181.0,214.0,177.5,206.0,172.5,198.0,170.5,197.5,169.0,189.0,168.0,184.0,174.0,175.5" stroke="black" stroke-width="2" fill="none" />
<polyline points="163.0,165.0,155.0,168.0,154.0,168.5,161.5,160.5,163.0,151.0,161.0,149.0,161.0,141.0" stroke="black" stroke-width="2" fill="none" />
<polyline points="157.5,136.5,152.5,145.0,145.5,146.5,142.0,155.0,136.0,158.0,141.0,165.0,134.0,173.0,123.0,179.0,118.5,187.0,111.5,195.0,107.5,203.0,99.5,211.0,98.0,218.5,100.0,226.5,99.5,234.5,100.0,236.5,103.0,238.5,105.0,247.0,107.0,250.0,106.0,252.0,109.0,261.0,110.0,269.0,111.5,277.0,109.0,279.0,117.0,281.0,116.5,292.0,120.5,299.5,118.5,307.5,116.0,315.0,111.5,320.0,109.5,325.5,113.5,333.5" stroke="black" stroke-width="2" fill="none" />
<polyline points="18.0,226.0,9.5,234.0,1.5,238.0" stroke="black" stroke-width="2" fill="none" />
<polyline points="29.5,144.5,21.0,141.5,24.0,134.0" stroke="black" stroke-width="2" fill="none" />
<polyline points="26.5,122.0,18.0,122.0" stroke="black" stroke-width="2" fill="none" />
<polyline points="13.0,119.5,10.5,127.5,10.5,126.5" stroke="black" stroke-width="2" fill="none" />
<polyline points="3.5,118.0,9.0,121.0,4.0,129.0,6.0,126.0,17.0,119.5,25.0,117.5,31.0,122.5" stroke="black" stroke-width="2" fill="none" />
<polyline points="37.5,96.5,35.5,88.5,37.5,85.5,30.5,79.5,22.5,83.0" stroke="black" stroke-width="2" fill="none" />
<polyline points="33.5,85.0,33.5,93.0,35.5,101.0,35.5,109.0,34.0,117.0,28.0,125.0,31.0,133.0,36.5,141.0,33.0,146.0,29.0,154.0,25.0,162.0,28.5,170.5,29.5,176.5,38.5,185.0,30.5,197.0,30.5,205.0,29.5,213.0,26.5,217.0,20.5,225.0,12.5,233.0,5.0,239.5,7.5,242.5,5.5,244.5,11.0,244.5" stroke="black" stroke-width="2" fill="none" />
<polyline points="23.0,112.5,18.5,96.5" stroke="black" stroke-width="2" fill="none" />
<polyline points="16.0,97.0,19.5,105.0,21.0,100.0,29.0,110.0" stroke="black" stroke-width="2" fill="none" />
<polyline points="25.5,103.0,19.5,89.5,11.5,94.5" stroke="black" stroke-width="2" fill="none" />
<polyline points="11.5,90.0,11.5,98.0,13.0,106.0,19.0,114.0,19.5,125.0,18.5,139.0,15.5,146.5,11.5,154.5,9.5,162.5,4.0,171.0,5.0,179.0,4.0,170.5,12.0,153.0,20.0,144.5,22.0,132.5,30.0,134.5,26.5,141.5" stroke="black" stroke-width="2" fill="none" />
<polyline points="34.0,81.5,29.0,77.5,21.0,74.5,13.5,72.5,5.5,73.5" stroke="black" stroke-width="2" fill="none" />
<polyline points="0.5,78.5,2.0,78.5,3.0,86.5,2.5,94.0,2.5,103.0,12.5,98.5,15.5,106.5,21.5,110.0" stroke="black" stroke-width="2" fill="none" />
<polyline points="22.5,58.0,30.5,62.5,40.0,63.0,43.0,63.0,48.5,61.0,54.5,55.0,62.5,58.5,70.0,55.5,77.0,44.5" stroke="black" stroke-width="2" fill="none" />
<polyline points="69.5,45.0,74.5,48.0,68.5,56.0,60.0,63.0,64.5,71.5,68.5,73.5,69.5,64.5,82.5,69.0,90.5,68.0,98.0,71.0,107.0,67.0,115.0,73.0,119.0,82.0,122.0,73.0,125.5,90.0,130.0,98.0,136.5,105.0,144.5,102.5,153.0,101.5,161.5,97.0,169.5,92.0,176.0,96.5,180.0,89.5,188.5,83.5,200.5,86.5,208.5,82.5,216.5,77.5,225.0,71.5,233.0,66.0,231.0,67.0,222.0,74.5,208.0,83.0,204.0,91.0,207.5,99.5,205.5,104.0,197.5,110.0,198.0,115.0,194.0,126.0,195.0,135.0,203.0,139.0,212.0,136.5,217.0,136.0,225.0,129.5,233.0,126.5,241.5,128.0,244.5,136.0,244.5,127.0,252.5,128.5,253.0,125.5" stroke="black" stroke-width="2" fill="none" />
<polyline points="250.0,111.0,246.5,110.0,242.5,102.0" stroke="black" stroke-width="2" fill="none" />
<polyline points="243.5,91.5,252.0,95.0,260.0,90.5,268.0,83.5,275.5,73.5,283.5,65.5,291.5,52.5,299.5,44.5,300.5,47.5,294.5,49.0,289.0,57.0,284.0,65.0,276.5,73.0,269.0,81.0,260.0,88.5" stroke="black" stroke-width="2" fill="none" />
<polyline points="262.5,89.0,256.5,97.0" stroke="black" stroke-width="2" fill="none" />
<polyline points="253.0,89.0,260.0,81.0" stroke="black" stroke-width="2" fill="none" />
<polyline points="255.0,76.0,247.5,76.5,239.5,78.5,231.5,74.5" stroke="black" stroke-width="2" fill="none" />
<polyline points="215.5,65.5,218.0,57.0,214.5,57.0,213.5,62.0,216.0,54.0,219.5,41.0,217.5,35.0,209.5,39.5" stroke="black" stroke-width="2" fill="none" />
<polyline points="224.5,37.5,220.5,45.5,209.0,53.5,215.0,46.5,222.5,34.5,230.5,51.5,239.0,43.5,242.5,34.0" stroke="black" stroke-width="2" fill="none" />
<polyline points="238.0,32.5,237.5,28.5,231.5,10.5,230.5,19.5,229.5,14.0,221.5,16.0,213.5,8.0,205.0,4.5" stroke="black" stroke-width="2" fill="none" />
<polyline points="207.0,1.5,218.0,9.5,220.5,17.5,224.0,25.5,221.0,33.5,212.5,33.5,210.0,38.0" stroke="black" stroke-width="2" fill="none" />
<polyline points="209.5,18.0,209.5,26.0,210.5,32.0,203.5,40.0,192.5,48.0,185.5,51.0,172.0,61.0,161.0,69.5,160.0,77.5,159.5,85.5,161.5,97.5,173.0,87.5,181.0,74.0" stroke="black" stroke-width="2" fill="none" />
<polyline points="187.0,76.5,182.0,84.5,182.0,90.0,185.5,78.0,193.5,74.0,193.5,80.0" stroke="black" stroke-width="2" fill="none" />
<polyline points="188.5,78.0,195.5,86.5,192.5,87.0,193.5,95.0,188.5,102.0,196.5,97.5,208.5,91.5,216.5,98.0,225.0,108.0,233.0,111.0,237.0,117.0,244.5,117.0,252.5,117.0,261.0,116.0,269.0,115.5,277.0,116.5,285.5,119.0,294.0,124.0,305.0,119.0,308.0,124.5,316.0,131.5,322.5,136.5,334.5,142.0,342.5,139.5" stroke="black" stroke-width="2" fill="none" />
<polyline points="341.5,123.0,343.5,117.0,342.5,109.0,340.5,101.0,336.5,93.0" stroke="black" stroke-width="2" fill="none" />
<polyline points="324.5,67.5,332.5,57.5" stroke="black" stroke-width="2" fill="none" />
<polyline points="325.0,45.0,333.0,40.0,341.0,29.0,331.5,34.0" stroke="black" stroke-width="2" fill="none" />
<polyline points="335.5,35.0,336.5,27.0" stroke="black" stroke-width="2" fill="none" />
<polyline points="351.5,24.5,342.5,33.0,345.0,31.0,353.0,25.5,355.5,29.0,363.5,25.0,371.5,25.0,379.5,27.0,388.0,24.0,396.0,26.0,404.5,26.5,412.0,21.5,419.5,28.5" stroke="black" stroke-width="2" fill="none" />
<polyline points="418.0,30.0,414.0,22.0" stroke="black" stroke-width="2" fill="none" />
<polyline points="400.0,21.5,391.5,19.5,384.0,18.5" stroke="black" stroke-width="2" fill="none" />
<polyline points="383.5,19.0,380.5,27.0,387.5,35.5,398.5,43.0,383.5,50.0,378.5,58.0,375.0,60.0,374.0,58.0,374.5,60.0,382.0,49.5,390.0,43.0,391.0,39.0,392.5,37.5,398.5,47.5,406.5,41.0" stroke="black" stroke-width="2" fill="none" />
<polyline points="404.0,44.0,413.0,36.0,403.5,35.5,399.0,33.0,391.0,30.0" stroke="black" stroke-width="2" fill="none" />
<polyline points="380.5,13.5,388.5,14.0,396.5,15.0,404.5,14.0" stroke="black" stroke-width="2" fill="none" />
<polyline points="414.0,35.0,406.0,30.5,399.0,36.5,390.5,36.5,384.5,29.5,374.5,33.0,366.5,33.0,358.5,34.0,347.5,35.0,340.0,42.0,329.0,51.5,321.0,44.5" stroke="black" stroke-width="2" fill="none" />
<polyline points="303.0,53.0,295.0,62.0,293.0,67.5,302.0,63.5,307.5,62.0,309.5,54.0,306.0,52.0,310.0,43.5,311.5,35.5,315.5,25.5,302.5,17.5" stroke="black" stroke-width="2" fill="none" />
<polyline points="302.5,2.5,309.0,11.0,319.0,11.0,327.0,13.0,331.5,14.5" stroke="black" stroke-width="2" fill="none" />
<polyline points="325.5,6.5,317.0,4.5" stroke="black" stroke-width="2" fill="none" />
<polyline points="314.5,3.0,319.5,11.5,333.5,12.5,329.0,18.0,327.0,25.5,324.0,33.5,321.0,41.0,322.0,48.5,319.5,50.0" stroke="black" stroke-width="2" fill="none" />
<polyline points="336.5,34.5,336.0,42.0,328.0,44.5,331.5,51.0,335.0,43.0,339.5,34.5,342.5,26.5,345.0,19.0,350.0,11.0" stroke="black" stroke-width="2" fill="none" />
<polyline points="348.0,3.5,356.0,8.0,364.0,8.0,372.0,7.5,380.0,8.5,388.0,5.5,396.0,3.5,405.0,5.0,415.0,16.5,424.0,25.0,426.0,33.0,419.0,41.0,421.5,37.5,430.0,32.5,433.0,36.5,433.0,42.0,440.0,40.5,448.0,41.0,451.0,39.0,459.0,35.0,467.0,34.0" stroke="black" stroke-width="2" fill="none" />
<polyline points="472.0,43.0,475.0,51.0,471.0,58.5,473.5,66.5,477.0,74.0" stroke="black" stroke-width="2" fill="none" />
<polyline points="470.5,62.5,462.5,64.0,462.5,61.0,474.0,58.0,466.5,59.0,458.5,63.5,450.0,62.5,442.0,59.5" stroke="black" stroke-width="2" fill="none" />
<polyline points="441.5,61.0,449.5,64.0,457.5,75.0,465.0,81.0,473.0,84.0,481.0,82.0" stroke="black" stroke-width="2" fill="none" />
<polyline points="442.0,72.0,434.0,69.0" stroke="black" stroke-width="2" fill="none" />
<polyline points="428.0,78.5,432.0,71.5,428.0,80.0,441.0,93.0,437.0,101.0" stroke="black" stroke-width="2" fill="none" />
<polyline points="429.5,111.0,424.5,119.0" stroke="black" stroke-width="2" fill="none" />
<polyline points="410.5,119.5,413.5,112.0,421.5,104.0" stroke="black" stroke-width="2" fill="none" />
<polyline points="424.5,93.5,433.0,101.5,437.5,110.0,446.0,118.0,446.5,125.5,444.0,133.5,433.0,131.0,441.0,128.5" stroke="black" stroke-width="2" fill="none" />
<polyline points="457.5,132.0,458.0,124.0" stroke="black" stroke-width="2" fill="none" />
<polyline points="426.0,51.5,418.0,59.0,411.0,67.0,401.0,82.5,397.0,93.5,394.0,101.5,394.5,109.5,392.5,113.5,395.0,123.5,401.5,124.5,400.0,139.5,400.5,147.5,385.5,155.5,368.0,164.5,366.5,172.5,375.5,180.5,373.5,179.5,381.5,180.0,394.0,184.0,401.5,196.5" stroke="black" stroke-width="2" fill="none" />
<polyline points="486.5,77.0,478.5,79.5,473.5,76.5,459.5,68.5,449.5,63.0,443.5,55.0,451.0,46.5,442.0,38.5" stroke="black" stroke-width="2" fill="none" />
<polyline points="436.0,47.0,428.0,39.0" stroke="black" stroke-width="2" fill="none" />
<polyline points="426.5,35.5,418.5,45.5,410.5,54.0,403.0,62.0,401.5,63.5,407.5,55.0,415.5,47.0,422.0,38.5,428.0,30.5" stroke="black" stroke-width="2" fill="none" />
<polyline points="439.5,17.0,448.5,25.0,454.5,23.5" stroke="black" stroke-width="2" fill="none" />
<polyline points="459.5,20.0,451.0,12.0" stroke="black" stroke-width="2" fill="none" />
<polyline points="452.5,8.5,460.0,15.5,468.0,21.5" stroke="black" stroke-width="2" fill="none" />
<polyline points="478.5,16.0,483.0,8.0,478.0,8.0,470.0,3.5" stroke="black" stroke-width="2" fill="none" />
<polyline points="463.0,5.5,471.0,11.5,468.0,15.5,476.0,20.0" stroke="black" stroke-width="2" fill="none" />
<polyline points="469.5,19.0,461.5,13.5,453.5,5.5" stroke="black" stroke-width="2" fill="none" />
<polyline points="454.0,7.0,461.5,15.0" stroke="black" stroke-width="2" fill="none" />
<polyline points="458.0,6.0,463.0,5.0,472.0,6.0,481.5,6.0,489.5,7.5,498.0,3.5,505.5,2.5,509.5,5.5,506.5,6.5,504.5,7.5" stroke="black" stroke-width="2" fill="none" />
<polyline points="492.5,5.5,487.5,13.5,486.5,21.5,496.5,32.5,482.0,40.0,478.0,48.0,483.0,55.5" stroke="black" stroke-width="2" fill="none" />
<polyline points="464.0,21.5,454.0,13.5,447.0,5.5" stroke="black" stroke-width="2" fill="none" />
<polyline points="434.5,4.0,426.0,3.0,417.0,9.0,412.0,7.5,404.0,2.5,395.0,11.5,387.5,11.5,379.5,13.0" stroke="black" stroke-width="2" fill="none" />
<polyline points="349.5,2.5,348.0,9.5,339.0,17.5,334.0,25.5,330.0,32.5,325.5,40.5,325.0,39.0,332.5,24.0,340.0,13.0,344.0,13.5" stroke="black" stroke-width="2" fill="none" />
<polyline points="271.5,6.0,264.0,3.0,256.0,2.0" stroke="black" stroke-width="2" fill="none" />
<polyline points="257.5,2.0,265.5,10.0,266.5,18.0,266.5,25.5,268.0,33.5,271.0,40.0,279.0,39.0,286.5,34.0" stroke="black" stroke-width="2" fill="none" />
<polyline points="255.0,6.0,246.5,6.5,238.5,4.5" stroke="black" stroke-width="2" fill="none" />
<polyline points="237.5,10.0,245.5,4.5,253.0,4.5,259.0,9.0,249.5,16.0,246.5,18.0,246.5,15.0,254.0,8.0,263.0,5.5" stroke="black" stroke-width="2" fill="none" />
<polyline points="245.5,1.5,240.5,5.5,227.0,4.5,230.0,6.0,228.5,14.0,233.0,19.0,230.5,27.0,237.5,35.5,242.5,33.5,240.5,42.0,235.5,50.0,242.5,57.0,248.0,43.0,250.0,44.5,241.0,55.5,245.5,61.0,242.5,70.5" stroke="black" stroke-width="2" fill="none" />
<polyline points="193.0,65.0,187.0,73.0,182.0,81.0,179.0,88.5,186.5,75.0" stroke="black" stroke-width="2" fill="none" />
<polyline points="186.0,64.5,178.0,72.5,169.5,80.0,165.5,88.0,161.5,96.0,163.5,101.0,171.5,101.0,179.5,102.0,187.5,106.0,195.5,105.0" stroke="black" stroke-width="2" fill="none" />
<polyline points="172.5,123.5,164.5,122.5" stroke="black" stroke-width="2" fill="none" />
<polyline points="149.0,87.5,144.5,89.5,146.5,81.5,136.5,82.5,128.5,75.5,120.0,65.5" stroke="black" stroke-width="2" fill="none" />
<polyline points="119.5,65.5,124.0,73.5,132.0,80.0,136.5,83.0,145.0,91.0,149.0,99.0,147.5,105.0,156.0,105.0,164.0,105.5,172.0,106.0,180.0,108.0,188.0,114.0,195.5,118.5,200.5,113.5,203.0,110.5" stroke="black" stroke-width="2" fill="none" />
<polyline points="223.5,114.0,217.5,104.5,207.5,104.0,199.5,103.5,195.5,109.0,188.5,107.5,186.5,100.5,180.5,95.0,173.5,94.0,174.5,86.0,178.5,78.0,184.5,70.0,191.0,62.5" stroke="black" stroke-width="2" fill="none" />
<polyline points="172.5,55.0,164.5,59.5,157.0,68.5,164.0,62.0,172.5,54.0,177.5,46.0,179.0,38.0,167.5,52.0,163.5,52.0,170.5,44.0,179.5,36.0,169.0,46.0,160.5,54.5,157.5,60.5,149.5,57.5,141.0,55.5,142.0,49.5,151.5,40.5,140.5,32.5,136.5,34.5,128.5,29.5" stroke="black" stroke-width="2" fill="none" />
<polyline points="129.5,27.5,137.0,29.5,143.0,31.5,151.0,33.5,154.5,24.5" stroke="black" stroke-width="2" fill="none" />
<polyline points="150.5,24.5,158.5,19.5,164.0,19.0,172.0,13.0,180.0,11.5,188.0,4.5,191.0,10.0,198.5,12.0,206.5,9.0,214.0,12.0" stroke="black" stroke-width="2" fill="none" />
<polyline points="209.5,8.5,209.5,16.5" stroke="black" stroke-width="2" fill="none" />
<polyline points="222.0,11.5,214.0,2.5" stroke="black" stroke-width="2" fill="none" />
<polyline points="213.5,1.5,222.0,9.5,224.5,18.5,226.5,26.5,234.0,37.0,227.5,38.0,229.0,46.5,227.0,49.5,229.0,57.0" stroke="black" stroke-width="2" fill="none" />
<polyline points="184.5,66.0,179.5,71.0,171.5,78.0,165.0,81.5,156.0,92.0,157.5,79.0,155.5,71.0,153.0,61.0,138.5,54.5,131.5,48.0,134.5,40.5,138.5,32.5,141.5,25.0,137.5,17.0" stroke="black" stroke-width="2" fill="none" />
<polyline points="136.0,13.0,131.0,21.5,123.0,29.5,117.0,37.5,109.0,45.5,112.0,51.5" stroke="black" stroke-width="2" fill="none" />
<polyline points="118.0,45.0,126.0,46.0,134.0,43.0,145.0,36.0,153.0,37.5" stroke="black" stroke-width="2" fill="none" />
<polyline points="167.0,29.0,161.0,35.0,168.5,26.5,172.5,18.5,168.0,15.5,168.5,7.0,167.5,5.0,159.0,4.5" stroke="black" stroke-width="2" fill="none" />
<polyline points="157.5,6.0,157.0,14.0,160.0,22.0,157.0,25.5,154.0,33.5" stroke="black" stroke-width="2" fill="none" />
<polyline points="163.5,40.5,161.0,38.5,168.5,30.5" stroke="black" stroke-width="2" fill="none" />
<polyline points="162.5,20.5,154.5,15.5,146.5,18.5" stroke="black" stroke-width="2" fill="none" />
<polyline points="157.0,24.0,153.0,27.0,149.0,27.0,146.0,18.0,150.5,10.0,157.5,2.0" stroke="black" stroke-width="2" fill="none" />
<polyline points="169.5,2.5,177.5,5.5" stroke="black" stroke-width="2" fill="none" />
<polyline points="182.5,13.5,190.5,14.5" stroke="black" stroke-width="2" fill="none" />
<polyline points="194.5,14.0,186.5,11.5" stroke="black" stroke-width="2" fill="none" />
<polyline points="189.0,2.5,181.0,10.5,183.0,19.5,175.5,27.0,170.0,35.0,162.5,36.5,164.0,42.5,160.0,41.0,161.5,37.0,169.5,29.0,174.5,27.0,182.5,19.0,190.5,21.0,198.5,23.0,206.5,17.0" stroke="black" stroke-width="2" fill="none" />
<polyline points="182.0,40.0,182.0,47.5,184.5,55.5,176.5,69.5,164.0,77.0" stroke="black" stroke-width="2" fill="none" />
<polyline points="130.5,82.0,114.5,81.0,101.5,83.0,95.5,82.0,83.0,90.0,81.0,88.5,82.0,80.5,79.0,81.0,78.5,73.5,78.5,65.5,81.5,57.5,85.0,49.5,77.0,61.5" stroke="black" stroke-width="2" fill="none" />
<polyline points="89.5,68.5,95.5,76.5,98.0,84.5,100.0,84.0,101.0,91.0" stroke="black" stroke-width="2" fill="none" />
<polyline points="110.0,90.5,118.0,88.5" stroke="black" stroke-width="2" fill="none" />
<polyline points="124.5,94.0,116.5,96.0,108.5,102.0,100.5,109.0,93.0,116.0,81.0,116.5,73.5,123.0,64.5,126.0,60.0,134.5,52.0,140.5,44.5,143.5,36.5,155.5,33.5,164.5,31.0,167.5,37.0,159.5,35.5,156.0,40.0,148.5,52.0,140.5,65.0,132.5,74.0,128.0,85.0,120.0,86.0,112.0" stroke="black" stroke-width="2" fill="none" />
<polyline points="97.5,91.5,97.5,86.5,90.0,80.0,82.0,76.0,82.5,94.0,74.0,90.5,69.0,85.0,72.5,77.0,70.0,66.5,70.5,58.0,75.0,50.0,73.0,53.5,65.0,62.5,57.5,58.5,49.5,56.5" stroke="black" stroke-width="2" fill="none" />
<polyline points="56.5,56.0,58.5,64.0,60.5,72.0,55.5,80.0,54.5,82.0,55.5,84.0,58.5,87.0,62.0,86.5,70.5,77.5,78.0,70.5,86.5,72.5,96.0,73.5" stroke="black" stroke-width="2" fill="none" />
<polyline points="102.0,71.0,105.0,72.0,103.5,80.5,105.5,82.5,102.5,95.0,97.5,102.5,87.5,110.5,75.0,114.5,55.5,119.5,51.5,113.5,59.5,103.5,67.5,98.0,56.5,101.5,50.5,110.0,44.5,118.5,40.5,126.0,53.5,117.0,61.5,113.0,69.5,109.5" stroke="black" stroke-width="2" fill="none" />
<polyline points="94.0,97.0,90.5,97.0,83.0,108.0,75.0,112.0,67.0,114.0,59.0,118.0,51.5,117.0,55.5,109.0,64.0,100.5,71.0,100.0,76.0,100.5,69.0,105.5,68.5,98.0,61.0,98.0,53.0,107.0,45.5,116.0,44.5,129.0,36.5,141.0,39.0,128.5,33.5,126.5,26.5,122.5,29.5,111.5,22.5,104.0,22.5,96.5,24.5,89.0,28.5,78.0,33.5,70.0,25.5,62.0,15.0,54.0,22.0,47.0,26.0,39.0,20.5,31.0,17.0,29.5,9.0,28.0,12.0,20.0,9.0,13.0,17.0,4.5,9.0,4.5,1.0,4.5" stroke="black" stroke-width="2" fill="none" />
<polyline points="7.0,8.0,5.0,8.0,3.5,16.0,3.0,23.5,6.5,21.5,13.5,13.5,21.5,12.5,29.5,13.0,37.5,13.5,45.5,14.5,54.0,12.0,55.0,9.5,64.5,5.5" stroke="black" stroke-width="2" fill="none" />
<polyline points="69.5,4.5,65.5,15.5,66.0,9.5,68.0,1.5" stroke="black" stroke-width="2" fill="none" />
<polyline points="71.0,2.0,60.0,6.0,58.0,14.5,55.0,22.5,52.0,30.5,46.5,38.5,39.5,47.0,30.5,58.0,37.5,54.0,45.5,50.0" stroke="black" stroke-width="2" fill="none" />
<polyline points="36.0,28.5,28.0,16.0,20.5,16.0,16.5,18.0" stroke="black" stroke-width="2" fill="none" />
<polyline points="4.5,11.5,12.0,10.5,20.0,6.0,28.0,5.0,36.0,3.0,42.5,7.0,51.0,3.0" stroke="black" stroke-width="2" fill="none" />
<polyline points="49.5,8.5,53.0,16.0,45.0,17.0,52.0,18.0,53.0,16.0" stroke="black" stroke-width="2" fill="none" />
<polyline points="54.0,25.5,46.0,39.5,37.5,48.5,32.5,49.5,37.5,41.0,33.5,37.0,25.5,47.5,21.5,55.0,27.5,47.0,33.0,39.5,36.0,32.0,33.5,24.0,31.0,21.0,26.0,25.5,17.5,23.0,10.0,27.0,2.0,28.0" stroke="black" stroke-width="2" fill="none" />
<polyline points="15.0,47.5,23.5,45.5" stroke="black" stroke-width="2" fill="none" />
<polyline points="44.5,20.5,38.5,12.5" stroke="black" stroke-width="2" fill="none" />
<polyline points="77.5,13.0,66.5,21.0,67.5,27.0,75.5,21.0,88.5,16.5" stroke="black" stroke-width="2" fill="none" />
<polyline points="90.5,13.0,79.0,21.0,77.0,29.0,82.5,37.0,81.0,51.5,77.5,60.0,75.5,67.5,68.0,75.5,63.5,83.5,67.5,85.5,77.5,93.0,76.5,100.5,68.0,108.5,48.5,117.0,45.5,125.0,41.5,133.5" stroke="black" stroke-width="2" fill="none" />
<polyline points="64.5,122.5,60.0,132.5,50.0,128.5,61.0,120.5,82.0,109.5,89.0,101.5,90.5,93.5,90.5,85.5" stroke="black" stroke-width="2" fill="none" />
<polyline points="107.5,75.5,109.5,86.5,111.0,78.5" stroke="black" stroke-width="2" fill="none" />
<polyline points="117.0,67.0,125.0,54.0" stroke="black" stroke-width="2" fill="none" />
<polyline points="128.0,44.0,120.0,43.0" stroke="black" stroke-width="2" fill="none" />
<polyline points="124.0,33.0,121.0,41.0,128.0,48.5,123.0,56.5,118.0,64.5,119.0,72.5,124.0,80.5,129.0,91.0,113.5,96.5,106.0,104.5,97.0,112.5,88.5,113.5,79.5,116.5,75.5,120.5,68.5,128.5,53.5,128.0,50.5,132.5,48.0,129.5,56.0,122.5,64.5,118.5,72.5,116.5,80.5,113.5,89.0,111.0,97.0,105.0" stroke="black" stroke-width="2" fill="none" />
<polyline points="113.0,117.5,108.0,126.0,108.0,134.0,99.0,139.0,100.0,136.5,108.0,137.5,114.0,138.0,122.0,145.5,122.0,150.5,127.0,154.5" stroke="black" stroke-width="2" fill="none" />
<polyline points="153.0,146.0,145.5,148.5,137.5,152.0,129.5,159.5,121.5,160.5,121.5,163.5,114.5,174.5,106.5,178.0,101.5,181.5,102.5,190.5,94.5,197.5,92.5,197.0,104.0,189.0,110.0,180.5,115.5,168.5,123.0,162.0,128.0,143.0,126.0,135.0,124.0,126.0,113.5,118.0" stroke="black" stroke-width="2" fill="none" />
<polyline points="115.0,115.0,124.5,123.5,135.5,125.5,137.5,134.0,136.5,142.0,139.5,144.0,145.5,138.0,152.5,142.0,161.5,143.0" stroke="black" stroke-width="2" fill="none" />
<polyline points="110.0,53.5,99.0,45.0,97.0,36.5,105.0,28.5,106.5,20.5,104.0,12.5,102.0,4.5,97.0,2.0" stroke="black" stroke-width="2" fill="none" />
<polyline points="106.0,3.5,114.0,17.5,121.5,16.5,129.0,4.5,127.0,7.5,122.0,15.0" stroke="black" stroke-width="2" fill="none" />
<polyline points="122.5,7.0,118.5,13.5,110.5,4.5" stroke="black" stroke-width="2" fill="none" />
<polyline points="111.0,2.0,116.0,10.0" stroke="black" stroke-width="2" fill="none" />
<polyline points="114.0,18.5,109.5,11.0,106.5,3.0" stroke="black" stroke-width="2" fill="none" />
<polyline points="86.0,8.5,80.5,16.5,71.5,24.0,63.5,32.0,68.5,20.0,76.5,15.0,77.5,18.0,85.0,12.0,87.0,14.0" stroke="black" stroke-width="2" fill="none" />
<polyline points="83.0,7.0,71.0,15.0,62.5,23.0,61.0,27.0,69.0,17.5,77.0,12.5,85.0,7.5,95.5,12.5" stroke="black" stroke-width="2" fill="none" />
<polyline points="79.0,7.5,86.5,4.0,93.5,8.0,95.5,16.0,97.0,24.0,97.0,32.0,84.5,37.0,99.0,35.5" stroke="black" stroke-width="2" fill="none" />
<polyline points="77.5,29.5,86.0,36.5,94.0,38.5,102.0,43.5,109.5,45.0,117.0,39.0,125.0,30.0,133.0,20.5,140.5,18.5,150.5,10.0,158.0,4.0,162.5,10.5,163.5,8.0,169.5,8.5" stroke="black" stroke-width="2" fill="none" />
<polyline points="176.5,39.0,173.0,46.5,166.0,53.0" stroke="black" stroke-width="2" fill="none" />
<polyline points="243.0,10.0,240.0,18.0,232.0,27.5,240.5,24.5,247.5,21.0,255.5,19.0,261.5,14.0,269.5,13.5,277.0,15.5,285.0,14.0,293.0,7.0,306.0,8.0,314.0,13.5,322.5,13.5,326.0,16.0" stroke="black" stroke-width="2" fill="none" />
<polyline points="424.5,2.0,419.5,13.0,428.5,19.0,440.0,22.5,450.0,30.5,449.0,38.5,455.0,42.5,462.5,39.5,475.0,49.0" stroke="black" stroke-width="2" fill="none" />
<polyline points="494.0,26.5,486.0,21.0,472.0,25.5,464.0,30.0,456.0,30.5,448.0,34.5,456.5,34.0,456.5,30.0,452.5,19.5,447.5,11.0,437.5,3.0,431.5,0.5" stroke="black" stroke-width="2" fill="none" />
</svg>