<svg xmlns="http://www.w3.org/2000/svg" version="1.1"><polyline points="262.5,1.0,250.5,3.5,260.5,19.5,287.0,33.0,293.0,25.5,309.0,15.5,325.0,14.0,341.0,24.0,357.0,20.5,355.0,14.5,371.5,6.5,387.0,6.5,402.5,4.0" stroke="black" stroke-width="2" fill="none" />
<polyline points="396.5,42.0,404.5,52.0,419.0,56.5,429.5,75.0,423.5,91.0,424.0,103.5,414.0,119.0,418.5,107.0,422.5,99.0" stroke="black" stroke-width="2" fill="none" />
<polyline points="436.5,76.0,453.0,76.0" stroke="black" stroke-width="2" fill="none" />
<polyline points="500.5,75.0,488.5,89.0,500.5,89.0" stroke="black" stroke-width="2" fill="none" />
<polyline points="463.0,133.0,463.0,149.0,463.0,165.0,465.5,182.5,471.5,177.0,487.5,169.0,504.0,171.0" stroke="black" stroke-width="2" fill="none" />
<polyline points="504.5,187.0,488.5,181.0" stroke="black" stroke-width="2" fill="none" />
<polyline points="465.0,201.0,461.0,199.0,471.0,217.0,469.5,232.5,479.0,256.5,491.5,262.5,507.5,259.0" stroke="black" stroke-width="2" fill="none" />
<polyline points="499.5,231.0,491.5,237.0,475.5,235.0" stroke="black" stroke-width="2" fill="none" />
<polyline points="468.5,212.0,485.0,212.0,481.5,222.0,498.0,216.0" stroke="black" stroke-width="2" fill="none" />
<polyline points="496.0,205.5,486.0,203.5,480.5,198.0,464.5,202.0" stroke="black" stroke-width="2" fill="none" />
<polyline points="504.0,239.0,502.5,227.0,486.5,224.5,471.0,226.5,455.0,224.0,454.5,212.0,438.5,211.5,438.5,200.0,423.0,196.0,441.0,171.5,447.0,157.5,455.0,141.0,468.5,125.0,484.5,109.5,486.5,108.0,470.5,122.0,454.5,132.0" stroke="black" stroke-width="2" fill="none" />
<polyline points="445.0,170.0,429.0,174.0,413.0,174.5" stroke="black" stroke-width="2" fill="none" />
<polyline points="385.5,158.0,401.5,156.0,408.0,170.0,390.0,192.0,400.0,195.5,419.5,202.0,435.5,206.0" stroke="black" stroke-width="2" fill="none" />
<polyline points="426.0,214.5,410.0,217.0,390.0,207.0,388.0,213.0" stroke="black" stroke-width="2" fill="none" />
<polyline points="370.0,220.0,386.0,226.0,402.0,232.0,417.5,232.0,435.5,237.5,447.0,237.5,435.0,251.5,453.0,251.5,469.0,255.5,484.5,255.0,498.5,259.0,508.5,263.5" stroke="black" stroke-width="2" fill="none" />
<polyline points="508.0,281.5,492.0,279.0,476.0,273.0,460.0,265.0" stroke="black" stroke-width="2" fill="none" />
<polyline points="470.5,283.0,489.0,299.0" stroke="black" stroke-width="2" fill="none" />
<polyline points="465.0,305.5,449.0,303.0,433.0,303.0" stroke="black" stroke-width="2" fill="none" />
<polyline points="454.0,297.0,438.0,299.0,422.0,311.0,429.5,295.5,429.5,281.5,413.5,277.5" stroke="black" stroke-width="2" fill="none" />
<polyline points="416.0,264.5,436.0,280.5,440.0,284.5" stroke="black" stroke-width="2" fill="none" />
<polyline points="442.0,278.5,426.0,270.0,410.5,258.0" stroke="black" stroke-width="2" fill="none" />
<polyline points="408.5,253.5,424.0,259.5,440.0,268.0,456.0,282.5,472.0,285.0,488.0,291.0,504.0,299.0" stroke="black" stroke-width="2" fill="none" />
<polyline points="505.5,288.0,489.5,274.5,474.0,268.5,458.0,262.5,454.0,258.5,438.0,256.5,429.5,254.5,413.5,246.5,397.5,240.5,395.5,246.0,380.0,242.5,364.0,231.0,348.0,231.0" stroke="black" stroke-width="2" fill="none" />
<polyline points="348.5,236.0,348.5,252.0,346.5,266.0,362.5,272.0" stroke="black" stroke-width="2" fill="none" />
<polyline points="356.0,257.0,372.0,263.5,388.0,263.5" stroke="black" stroke-width="2" fill="none" />
<polyline points="378.0,253.0,362.0,237.0" stroke="black" stroke-width="2" fill="none" />
<polyline points="363.0,239.0,367.0,255.0,368.5,277.0,376.5,289.0,368.5,304.5,376.0,318.5,374.0,336.0,376.0,354.0" stroke="black" stroke-width="2" fill="none" />
<polyline points="377.0,317.0,360.5,327.0,344.0,319.0,327.5,307.0" stroke="black" stroke-width="2" fill="none" />
<polyline points="326.0,308.0,341.5,310.0,357.0,314.0,371.0,308.0,374.5,324.0,390.5,326.0" stroke="black" stroke-width="2" fill="none" />
<polyline points="341.5,333.5,326.0,327.0" stroke="black" stroke-width="2" fill="none" />
<polyline points="319.0,321.0,329.0,309.5,321.5,325.5,323.5,348.0,342.0,349.5" stroke="black" stroke-width="2" fill="none" />
<polyline points="332.0,349.5,316.0,341.5" stroke="black" stroke-width="2" fill="none" />
<polyline points="344.0,346.0,328.0,343.5,311.5,342.0,306.0,354.0,289.5,345.5,279.5,333.5,263.0,323.0" stroke="black" stroke-width="2" fill="none" />
<polyline points="257.0,312.5,261.0,298.5,277.0,294.0" stroke="black" stroke-width="2" fill="none" />
<polyline points="302.5,275.0,318.5,275.5,334.0,269.5" stroke="black" stroke-width="2" fill="none" />
<polyline points="353.5,242.0,370.0,256.0,386.0,260.0" stroke="black" stroke-width="2" fill="none" />
<polyline points="383.0,240.5,399.0,256.5,397.5,272.5,401.5,288.5,401.5,304.5,401.0,320.5,414.5,326.5,430.5,320.5,446.5,330.5,462.0,340.5,478.0,342.5" stroke="black" stroke-width="2" fill="none" />
<polyline points="477.0,347.5,445.0,331.5" stroke="black" stroke-width="2" fill="none" />
<polyline points="419.5,340.0,437.5,333.0,417.5,344.5,397.5,350.5,381.5,350.5,373.5,334.5,357.5,346.5,342.0,347.0,296.0,349.5,284.5,344.0,274.5,328.5,290.5,306.5,292.5,291.0,288.5,285.0,284.5,276.5,294.0,256.5,306.0,240.5,300.0,226.5,300.0,210.0,305.5,201.5,295.5,198.0,301.5,172.0,329.5,164.0,339.5,154.0,329.5,150.0,321.5,150.0,317.0,149.5,317.0,133.5,317.0,117.5,315.5,102.0,325.5,80.5,337.5,58.5,349.0,42.0,369.0,26.0,363.0,32.5,359.0,26.5,343.0,28.0,325.5,30.0,310.0,36.5,294.0,24.5,290.0,16.0,304.0,8.0,292.0,11.5,276.0,15.5,260.5,17.0" stroke="black" stroke-width="2" fill="none" />
<polyline points="270.5,25.0,286.5,25.0" stroke="black" stroke-width="2" fill="none" />
<polyline points="255.0,33.5,275.0,37.5,289.0,54.0,287.0,70.0,273.0,96.0,268.5,112.5,277.0,128.5,270.5,144.5,274.5,154.0,264.0,163.5,260.5,167.5,270.0,149.5,290.0,152.0,308.0,138.5" stroke="black" stroke-width="2" fill="none" />
<polyline points="299.5,129.0,301.0,113.0" stroke="black" stroke-width="2" fill="none" />
<polyline points="316.5,87.5,300.0,89.5,297.5,79.0,281.0,85.0,273.0,85.0,261.0,85.0,253.0,79.0,236.5,81.0,220.5,83.0,204.5,83.0" stroke="black" stroke-width="2" fill="none" />
<polyline points="199.0,86.0,203.0,72.0,201.5,88.0,207.5,92.0,198.0,104.0,196.0,120.5,196.0,136.0,196.0,152.0,200.0,168.0,205.5,174.0,213.5,188.0,206.0,210.0,186.0,220.0,190.5,226.0,176.5,230.0,170.0,245.5,172.0,259.5,172.0,277.5,171.5,300.0,175.5,300.5,185.5,296.5,189.0,276.5,211.5,292.0,223.5,287.5,230.0,277.0,242.5,271.5,242.5,289.5,260.0,287.5,276.0,286.0,277.5,290.0,293.5,292.0,305.5,286.5,307.5,294.0,323.5,289.5,339.0,285.5,355.0,282.0,371.0,290.0,387.0,290.0" stroke="black" stroke-width="2" fill="none" />
<polyline points="419.5,258.5,451.0,274.5,458.5,290.0,462.5,294.0,476.5,289.5" stroke="black" stroke-width="2" fill="none" />
<polyline points="406.0,238.0,390.0,232.0,374.5,230.0" stroke="black" stroke-width="2" fill="none" />
<polyline points="366.0,231.5,392.0,233.5,410.0,260.0,413.5,276.0,411.5,292.5,411.5,308.5,405.5,322.5,404.0,332.5,406.0,346.5,412.0,352.5" stroke="black" stroke-width="2" fill="none" />
<polyline points="308.0,269.0,308.0,251.0,308.0,261.0,290.0,270.5,298.0,262.5,310.0,246.5,318.0,245.0,318.5,229.0,314.5,227.5,314.5,211.5,305.0,219.5,303.0,226.0" stroke="black" stroke-width="2" fill="none" />
<polyline points="321.5,232.5,321.5,248.5" stroke="black" stroke-width="2" fill="none" />
<polyline points="330.0,232.5,330.0,248.5,300.5,268.0,316.0,266.5" stroke="black" stroke-width="2" fill="none" />
<polyline points="285.0,250.0,282.5,240.0,282.0,224.0,286.0,224.0,278.0,222.0" stroke="black" stroke-width="2" fill="none" />
<polyline points="282.0,202.5,270.0,205.5,253.5,231.5,251.5,241.0,235.5,251.5" stroke="black" stroke-width="2" fill="none" />
<polyline points="217.5,233.5,217.5,249.5,211.5,234.0" stroke="black" stroke-width="2" fill="none" />
<polyline points="203.0,218.0,223.0,232.5,223.5,248.5,209.5,252.5" stroke="black" stroke-width="2" fill="none" />
<polyline points="180.0,234.0,182.0,250.5,190.0,276.5,192.0,289.0" stroke="black" stroke-width="2" fill="none" />
<polyline points="208.5,315.0,200.0,319.0,206.0,303.5,203.5,283.0,205.5,267.0,195.0,264.5,194.5,248.0,194.5,232.0,204.5,220.0,219.0,211.5,227.0,195.5,225.0,167.5,221.0,161.5,249.0,153.5,261.0,138.0,265.0,122.0,261.5,116.0,245.5,116.5" stroke="black" stroke-width="2" fill="none" />
<polyline points="238.0,99.0,244.0,111.0,240.0,127.0,248.0,107.0,264.0,107.0,274.0,103.0,283.5,103.5,292.0,92.0,304.0,108.5,316.0,101.0,322.0,97.0,338.0,109.0,354.0,105.0,370.0,96.5,386.0,90.5,400.0,88.5" stroke="black" stroke-width="2" fill="none" />
<polyline points="398.0,60.0,404.0,68.0,407.5,85.5,393.5,106.0,408.0,118.0,412.0,125.5" stroke="black" stroke-width="2" fill="none" />
<polyline points="388.5,120.5,392.5,137.0,376.5,153.0,382.0,161.0,384.0,177.0,364.5,165.0,372.0,174.5,389.5,164.5,401.5,166.0,409.5,170.0,417.5,158.0,441.5,158.0" stroke="black" stroke-width="2" fill="none" />
<polyline points="506.5,195.0,491.0,195.0,475.0,193.0,453.5,202.5,443.5,188.5,441.5,182.0,425.5,183.5,410.0,185.0,394.0,184.5,378.0,184.5,362.0,184.5" stroke="black" stroke-width="2" fill="none" />
<polyline points="350.5,169.0,354.5,158.5,370.5,158.5,380.0,146.5" stroke="black" stroke-width="2" fill="none" />
<polyline points="373.0,118.0,358.5,118.0,382.5,114.0" stroke="black" stroke-width="2" fill="none" />
<polyline points="381.0,90.0,397.5,73.5,404.0,57.5,390.5,45.5,375.0,49.5,359.0,59.5" stroke="black" stroke-width="2" fill="none" />
<polyline points="382.5,58.0,366.5,74.5,370.0,68.5,396.0,54.5,412.0,54.5" stroke="black" stroke-width="2" fill="none" />
<polyline points="400.5,101.0,384.0,103.5,368.0,108.0,352.0,110.0" stroke="black" stroke-width="2" fill="none" />
<polyline points="347.0,131.5,347.5,116.0,351.5,94.0,335.5,90.0" stroke="black" stroke-width="2" fill="none" />
<polyline points="335.5,93.5,339.0,109.5,341.0,125.5,335.0,141.0,333.0,138.5,358.5,124.5,374.5,116.5,390.0,119.0,406.0,121.5" stroke="black" stroke-width="2" fill="none" />
<polyline points="385.0,196.0,381.0,190.0,365.0,190.0,355.0,200.5,339.0,196.5" stroke="black" stroke-width="2" fill="none" />
<polyline points="337.5,196.0,345.5,212.0,339.5,228.0,341.0,243.5,341.0,259.5,325.5,265.5,347.5,285.5,335.5,303.5,339.5,318.0,347.5,340.0,357.5,352.0" stroke="black" stroke-width="2" fill="none" />
<polyline points="306.5,192.5,291.0,185.0,274.5,183.0" stroke="black" stroke-width="2" fill="none" />
<polyline points="263.5,188.5,253.5,204.0,253.0,220.0,253.0,236.5,245.0,253.0,235.0,265.0,225.0,269.0,218.0,277.0,208.0,279.0,228.5,289.0,224.5,305.0" stroke="black" stroke-width="2" fill="none" />
<polyline points="236.0,286.5,230.0,266.5,232.0,251.0,242.5,246.5,241.0,231.0,229.0,209.0,229.5,203.0" stroke="black" stroke-width="2" fill="none" />
<polyline points="259.0,194.5,261.0,210.5,259.0,226.5,257.0,242.5,253.5,256.5,271.5,248.5,285.5,234.5,304.0,234.5" stroke="black" stroke-width="2" fill="none" />
<polyline points="295.5,166.5,279.5,175.0,263.5,177.0" stroke="black" stroke-width="2" fill="none" />
<polyline points="213.0,151.5,197.0,153.5" stroke="black" stroke-width="2" fill="none" />
<polyline points="205.5,133.0,211.5,129.0" stroke="black" stroke-width="2" fill="none" />
<polyline points="186.5,109.5,187.0,125.5,173.0,141.5,159.0,150.0,157.0,159.5,148.5,165.5" stroke="black" stroke-width="2" fill="none" />
<polyline points="145.5,158.5,171.5,154.5,170.0,170.5" stroke="black" stroke-width="2" fill="none" />
<polyline points="145.5,135.0,161.5,145.5,179.5,149.5,177.5,159.5,178.0,175.5,198.0,181.0,210.5,195.0,214.5,167.5,228.5,155.5,244.5,159.5,260.5,139.0,256.5,123.5" stroke="black" stroke-width="2" fill="none" />
<polyline points="252.5,98.0,268.5,92.0,274.0,104.0,286.0,107.5,277.5,113.5,289.0,125.5,287.0,141.5,305.5,153.5,286.0,169.5,290.0,197.5,268.0,214.0,278.0,224.0,275.5,239.5,263.5,256.0,254.0,262.0,256.0,279.5,266.0,296.0,254.0,312.5,260.0,336.5,260.0,352.0,256.0,350.0" stroke="black" stroke-width="2" fill="none" />
<polyline points="200.5,339.0,184.5,341.0" stroke="black" stroke-width="2" fill="none" />
<polyline points="165.0,332.5,167.0,320.5,183.0,322.0,199.0,319.5" stroke="black" stroke-width="2" fill="none" />
<polyline points="215.5,322.0,199.0,326.0,183.0,330.0,166.5,326.0" stroke="black" stroke-width="2" fill="none" />
<polyline points="124.0,346.5,108.0,332.5,103.5,350.5,87.0,354.0,97.5,340.0,110.0,338.0,111.5,322.0,127.5,294.5,141.5,278.5" stroke="black" stroke-width="2" fill="none" />
<polyline points="105.0,260.5,121.0,246.5,113.0,251.0,106.5,267.5,105.5,281.5,91.0,286.0,77.5,298.5,79.5,298.5,95.5,288.5,107.0,297.0,121.0,305.0,137.5,299.5,153.5,293.5,166.0,294.0,171.5,280.0,184.0,277.5,200.0,262.0,220.0,273.5,242.5,267.5,267.0,273.0,289.0,263.0" stroke="black" stroke-width="2" fill="none" />
<polyline points="177.5,222.5,193.5,204.5,209.5,202.5,225.5,200.0,241.0,190.0,256.5,187.5,272.0,188.0,288.0,196.0,302.0,206.5,318.0,212.5,330.0,223.0,348.0,213.0,360.0,210.5,355.5,214.0,371.5,214.5,387.5,220.5,403.5,222.5,420.0,228.5,424.0,238.5,440.0,240.5,456.0,242.5,473.5,246.5,489.5,250.0,505.5,248.5" stroke="black" stroke-width="2" fill="none" />
<polyline points="476.0,13.0,471.5,5.0,455.5,3.0" stroke="black" stroke-width="2" fill="none" />
<polyline points="452.5,2.0,480.0,18.0,461.5,34.0,435.0,44.0,423.0,62.0,439.0,64.0,443.0,70.5,459.0,70.5" stroke="black" stroke-width="2" fill="none" />
<polyline points="504.0,8.5,488.5,4.5,480.5,22.5,464.5,34.5,449.0,40.5,441.0,49.0,425.0,55.5,409.0,49.0,400.5,37.0,388.5,38.5,372.0,42.5,356.0,48.0,340.0,55.5,336.0,67.5,359.5,53.5,343.5,59.5,327.5,67.5" stroke="black" stroke-width="2" fill="none" />
<polyline points="327.0,36.5,321.0,52.5,331.0,40.0,346.5,32.0" stroke="black" stroke-width="2" fill="none" />
<polyline points="340.0,8.5,320.0,28.5,318.0,24.5,308.0,30.5,292.0,44.5,282.0,42.5,266.0,30.5,249.5,28.5,233.0,40.0,217.5,62.0,210.0,46.0,195.5,50.0,191.5,66.5,181.5,80.5,179.5,92.0,163.5,93.5,147.5,101.5,131.5,101.5,115.5,83.5,116.0,67.5,106.5,52.0,121.0,38.0,102.5,22.5,74.5,6.5" stroke="black" stroke-width="2" fill="none" />
<polyline points="69.5,17.5,99.5,33.0,109.5,54.5,125.0,68.0,129.0,71.5,139.0,77.5,154.5,73.0,162.0,60.5,175.5,50.5,191.0,45.0,196.5,39.0" stroke="black" stroke-width="2" fill="none" />
<polyline points="200.0,56.5,190.0,72.5,181.5,80.5,185.5,82.5,183.5,99.0,176.0,103.0,173.5,118.5,167.0,118.5,165.0,134.0,163.0,150.0,165.0,165.5,165.0,187.5,151.5,209.5,145.5,234.0,137.5,238.0,133.5,250.0,109.5,276.0,117.5,270.0" stroke="black" stroke-width="2" fill="none" />
<polyline points="99.5,272.0,115.5,261.5,113.5,287.5,109.5,301.5,98.0,313.5,90.0,327.5,68.0,345.5,72.0,354.5,88.0,347.0,103.5,341.0,119.5,335.0,135.5,333.0,151.5,334.5,168.0,338.5,184.5,336.5,200.5,330.5,216.5,332.5,232.5,326.5" stroke="black" stroke-width="2" fill="none" />
<polyline points="107.5,328.5,91.5,336.5,75.5,338.0" stroke="black" stroke-width="2" fill="none" />
<polyline points="70.5,330.5,86.0,324.5" stroke="black" stroke-width="2" fill="none" />
<polyline points="89.5,327.5,73.5,336.0,57.5,334.5,41.5,334.5" stroke="black" stroke-width="2" fill="none" />
<polyline points="43.0,351.5,39.5,346.0,35.5,348.0,45.5,324.5,47.5,308.0,67.5,290.0,71.5,274.0,79.5,257.5,77.5,243.5,105.5,246.0,137.5,230.0,143.5,220.0,179.0,210.0,193.0,191.5,187.0,180.0,193.0,164.0,219.5,150.0,216.0,146.0,210.0,128.0,220.5,118.0,226.5,114.0,226.0,98.5,220.0,90.5,225.5,78.0,217.5,62.0,227.5,46.0,247.5,30.0,241.5,14.0,245.5,6.0,236.0,4.0" stroke="black" stroke-width="2" fill="none" />
<polyline points="240.5,71.5,224.5,75.5" stroke="black" stroke-width="2" fill="none" />
<polyline points="224.0,43.5,208.0,35.5,192.5,31.5,176.5,34.0,160.5,34.0,145.0,44.0" stroke="black" stroke-width="2" fill="none" />
<polyline points="153.0,49.5,169.0,47.5,185.0,41.5,165.0,51.5" stroke="black" stroke-width="2" fill="none" />
<polyline points="151.0,59.0,152.5,45.0,158.0,39.5,146.0,41.5,152.0,58.0,160.0,63.5,159.5,81.5,175.5,69.5,189.5,76.0,195.5,76.0,208.0,58.0,229.5,66.0,245.0,66.0,261.0,68.0,278.5,68.0,292.5,74.0,309.0,78.5,325.0,80.5,341.0,84.5,357.5,78.5,361.5,93.0,369.5,89.0,367.5,93.0,353.5,117.5,352.0,141.0,346.0,160.5,346.5,176.0,348.5,187.5,368.5,191.0,365.0,198.5,381.0,218.0,379.0,232.0,414.5,246.5,434.5,254.5,458.5,261.0,482.5,277.0,498.0,295.0,504.0,303.0" stroke="black" stroke-width="2" fill="none" />
<polyline points="271.5,165.5,255.0,175.5,239.0,175.0,235.5,181.0,219.5,185.0,203.0,189.5,193.5,199.5,187.5,171.5,183.5,167.5,189.5,159.5,185.5,143.5,163.5,135.5,147.5,131.5" stroke="black" stroke-width="2" fill="none" />
<polyline points="143.5,131.0,159.5,127.0" stroke="black" stroke-width="2" fill="none" />
<polyline points="145.0,188.0,145.0,171.5,145.0,155.5,135.0,149.5,145.0,146.0,131.0,130.0,105.0,118.5,103.0,103.0,103.0,87.0,107.5,71.0,103.5,61.0,87.0,55.0,71.0,51.0" stroke="black" stroke-width="2" fill="none" />
<polyline points="42.0,42.5,58.0,44.0,74.0,44.0,90.0,50.0,106.0,51.5,121.5,46.0" stroke="black" stroke-width="2" fill="none" />
<polyline points="133.0,19.5,117.0,11.5" stroke="black" stroke-width="2" fill="none" />
<polyline points="107.5,3.0,117.5,11.0,139.0,28.0" stroke="black" stroke-width="2" fill="none" />
<polyline points="162.5,10.0,178.5,8.0,194.5,9.5" stroke="black" stroke-width="2" fill="none" />
<polyline points="192.5,15.0,180.5,5.0,160.5,5.0" stroke="black" stroke-width="2" fill="none" />
<polyline points="186.0,61.0,170.5,77.0,162.5,105.0,160.5,121.0,182.5,101.0,186.5,111.0,212.5,109.0" stroke="black" stroke-width="2" fill="none" />
<polyline points="155.5,121.5,139.5,121.0,123.5,123.5,108.0,121.5,97.5,127.5,89.5,103.0,73.5,105.0,57.5,105.0,42.0,109.5,26.0,113.5,10.0,119.5,2.0,139.5" stroke="black" stroke-width="2" fill="none" />
<polyline points="2.0,129.5,18.0,125.5,34.0,135.5,50.5,153.0" stroke="black" stroke-width="2" fill="none" />
<polyline points="57.0,140.5,55.0,156.5,53.0,172.5" stroke="black" stroke-width="2" fill="none" />
<polyline points="46.0,176.5,44.0,166.5,44.0,148.5,48.0,142.5,60.0,126.5,60.0,124.5" stroke="black" stroke-width="2" fill="none" />
<polyline points="68.5,125.5,72.5,141.5,74.0,157.0,72.0,173.0,81.5,174.5,81.5,170.5,97.5,174.5,113.5,176.5,129.5,166.5,131.5,174.5" stroke="black" stroke-width="2" fill="none" />
<polyline points="125.5,214.0,124.0,208.0,108.0,213.5,92.5,211.5,88.5,218.0,72.0,224.0,48.0,228.0,31.5,230.5,16.0,236.0" stroke="black" stroke-width="2" fill="none" />
<polyline points="2.5,234.0,18.5,230.0,22.5,218.5" stroke="black" stroke-width="2" fill="none" />
<polyline points="13.5,214.0,29.5,216.0,45.5,216.0,59.5,220.5,75.5,212.0,85.5,200.0,101.5,198.0,103.5,201.5,124.0,193.5" stroke="black" stroke-width="2" fill="none" />
<polyline points="140.0,237.5,134.5,233.0,118.5,233.0,102.5,247.0,87.0,253.0,71.0,263.0,54.5,267.5,54.0,279.5,37.5,286.0,29.5,280.0,25.5,294.0,9.5,300.0,5.0,310.5,1.0,318.5" stroke="black" stroke-width="2" fill="none" />
<polyline points="40.5,314.0,56.5,310.0,39.0,312.0,25.0,322.5,49.0,322.0,64.5,326.0,80.5,318.0,96.5,310.0,108.0,304.0,126.0,296.0,142.5,277.5,158.5,275.5,174.0,256.0" stroke="black" stroke-width="2" fill="none" />
<polyline points="166.0,225.5,164.0,215.5,146.0,227.5,140.0,224.0,124.0,228.0,113.5,242.0,95.5,240.0,80.0,251.5,72.0,250.0,55.5,256.0,39.5,260.5,29.5,268.5,13.5,275.0,10.0,289.0,3.5,287.5,7.5,271.5" stroke="black" stroke-width="2" fill="none" />
<polyline points="1.5,272.5,17.5,264.5,23.5,250.5,39.5,244.5,45.5,248.0,58.0,243.5,68.5,243.5,75.0,237.5,93.0,245.5" stroke="black" stroke-width="2" fill="none" />
<polyline points="49.5,260.0,58.0,282.0,56.0,297.5,24.5,303.5,40.5,296.0" stroke="black" stroke-width="2" fill="none" />
<polyline points="54.0,315.5,72.0,317.5,97.5,307.5,97.0,291.5" stroke="black" stroke-width="2" fill="none" />
<polyline points="57.0,197.0,41.0,195.0,25.0,195.0,8.5,191.0" stroke="black" stroke-width="2" fill="none" />
<polyline points="18.0,189.0,34.0,187.0,49.5,189.0" stroke="black" stroke-width="2" fill="none" />
<polyline points="36.5,177.0,21.0,177.5" stroke="black" stroke-width="2" fill="none" />
<polyline points="16.0,183.5,32.0,182.0,48.0,182.0" stroke="black" stroke-width="2" fill="none" />
<polyline points="31.5,156.0,25.5,142.0,17.5,158.0,13.5,174.0" stroke="black" stroke-width="2" fill="none" />
<polyline points="1.5,151.5,15.5,149.5,7.5,165.5,19.5,171.5,3.0,184.0,11.0,200.0,8.5,208.0,27.0,204.0,43.5,206.5,71.5,194.5,87.5,190.5,101.5,190.5,118.0,188.5" stroke="black" stroke-width="2" fill="none" />
<polyline points="151.5,209.5,164.0,197.5,148.0,204.0,140.0,215.5,124.0,223.5,108.5,227.0,99.0,233.0,79.0,231.0,98.5,233.5,114.5,218.0,98.0,222.5,82.5,228.5,66.0,232.5,50.0,232.0,34.0,236.0,17.5,240.0,1.5,244.0" stroke="black" stroke-width="2" fill="none" />
<polyline points="12.5,120.0,28.5,120.0,44.0,119.5,60.0,113.5,76.0,114.0" stroke="black" stroke-width="2" fill="none" />
<polyline points="90.5,88.0,88.5,104.0,86.5,118.0,90.5,134.0,104.5,142.0,100.5,157.5,94.5,179.5,78.5,187.5,74.5,199.5,68.5,215.0,64.5,225.0,52.5,243.0,32.0,263.0,40.5,267.5,26.5,275.5,39.0,286.0,12.5,311.5,22.5,319.5,14.5,321.5,12.5,338.0,9.0,336.0,12.5,316.0,24.5,312.0,40.5,307.5,56.0,297.5,70.0,295.5,78.0,293.5,94.0,284.0,104.0,292.0,122.0,287.5,128.0,282.0,144.0,272.0,160.0,266.0" stroke="black" stroke-width="2" fill="none" />
<polyline points="164.0,258.0,158.0,242.0,166.0,230.0,172.0,214.5" stroke="black" stroke-width="2" fill="none" />
<polyline points="155.0,94.0,138.5,92.0,124.5,91.5,108.5,93.5,90.5,93.5,85.0,84.0,68.5,81.5,48.5,81.5,32.0,89.0,18.5,89.0,2.5,91.0" stroke="black" stroke-width="2" fill="none" />
<polyline points="3.5,102.5,19.5,101.0" stroke="black" stroke-width="2" fill="none" />
<polyline points="3.0,74.0,18.5,82.0,34.5,69.5,50.5,71.5,57.0,67.0,73.0,71.0" stroke="black" stroke-width="2" fill="none" />
<polyline points="56.0,79.0,52.0,94.5,68.5,98.5" stroke="black" stroke-width="2" fill="none" />
<polyline points="41.5,38.5,57.5,38.5,74.0,38.5,90.5,37.0,107.0,43.0" stroke="black" stroke-width="2" fill="none" />
<polyline points="100.0,19.5,84.0,12.0,76.0,6.0,59.5,4.0" stroke="black" stroke-width="2" fill="none" />
<polyline points="28.0,4.0,43.5,14.0,59.0,14.0,74.5,18.0,90.0,29.5,106.0,35.5" stroke="black" stroke-width="2" fill="none" />
<polyline points="130.5,102.5,136.5,86.5,134.5,70.5,113.0,88.0,97.0,72.0,87.5,61.0,71.5,65.0,65.5,53.0,55.0,51.0,53.0,61.0,36.5,61.5,30.5,53.5,20.5,61.5,17.0,60.0,19.0,42.0,6.5,42.5,2.5,36.0" stroke="black" stroke-width="2" fill="none" />
<polyline points="2.5,27.5,18.5,41.5" stroke="black" stroke-width="2" fill="none" />
<polyline points="40.0,20.0,26.5,4.0,2.5,4.0" stroke="black" stroke-width="2" fill="none" />
<polyline points="334.0,1.5,332.0,17.5,304.5,31.5,296.5,40.0,298.5,66.0,293.0,84.5,286.5,101.0,298.5,116.5,310.5,122.5,294.0,144.5,296.0,170.5,312.0,162.5,328.0,158.5,346.0,144.5,348.0,124.5,364.0,112.5,380.0,110.5,399.5,92.5,405.5,82.0,421.5,92.0,439.5,88.0,456.0,88.0,472.0,89.5,488.5,79.5,504.5,74.0" stroke="black" stroke-width="2" fill="none" />
</svg>