<svg xmlns="http://www.w3.org/2000/svg" version="1.1"><polyline points="4.5,119.5,21.0,119.5,38.0,120.0,55.0,120.5" stroke="black" stroke-width="2" fill="none" />
<polyline points="74.5,125.5,90.0,125.5,106.0,124.5,122.0,124.0,137.5,123.0,152.5,122.0,168.0,121.0,183.5,120.5" stroke="black" stroke-width="2" fill="none" />
<polyline points="166.0,119.0,150.5,134.5,134.5,151.0,118.5,167.0,102.0,182.0,86.5,197.5,71.0,214.5,57.0,230.0" stroke="black" stroke-width="2" fill="none" />
<polyline points="40.0,230.0,23.5,246.0,7.5,262.0" stroke="black" stroke-width="2" fill="none" />
<polyline points="10.0,270.0,26.0,269.5,42.5,268.5,58.5,268.0,74.0,267.5,89.0,266.5,103.5,266.0,118.5,265.5,133.5,264.0,149.0,262.5,164.5,262.5,181.0,262.0,197.5,260.5,215.0,259.5,231.5,258.0" stroke="black" stroke-width="2" fill="none" />
<polyline points="250.0,259.5,266.5,244.0" stroke="black" stroke-width="2" fill="none" />
<polyline points="268.0,233.5,251.5,234.5" stroke="black" stroke-width="2" fill="none" />
<polyline points="250.5,230.0,267.0,214.0" stroke="black" stroke-width="2" fill="none" />
<polyline points="249.0,213.5,233.5,229.0" stroke="black" stroke-width="2" fill="none" />
<polyline points="234.0,215.0,250.5,199.5,266.5,184.5" stroke="black" stroke-width="2" fill="none" />
<polyline points="248.5,181.0,232.0,197.0,216.0,212.0" stroke="black" stroke-width="2" fill="none" />
<polyline points="214.0,193.0,230.5,177.5" stroke="black" stroke-width="2" fill="none" />
<polyline points="250.5,138.0,266.0,138.0" stroke="black" stroke-width="2" fill="none" />
<polyline points="282.5,139.0,298.0,139.5,313.5,140.0,329.0,140.5" stroke="black" stroke-width="2" fill="none" />
<polyline points="312.0,136.5,327.5,120.0" stroke="black" stroke-width="2" fill="none" />
<polyline points="312.0,117.5,329.5,101.5" stroke="black" stroke-width="2" fill="none" />
<polyline points="331.5,79.5,315.5,80.5" stroke="black" stroke-width="2" fill="none" />
<polyline points="344.5,91.5,329.5,91.5,314.5,91.5,299.5,91.5,284.0,92.5,268.5,93.5" stroke="black" stroke-width="2" fill="none" />
<polyline points="249.5,42.5,233.0,43.5" stroke="black" stroke-width="2" fill="none" />
<polyline points="217.0,73.5,233.0,73.5,248.5,73.0,264.5,72.5,280.0,72.5,295.5,72.5" stroke="black" stroke-width="2" fill="none" />
<polyline points="342.5,120.0,326.0,120.5,310.0,120.5,294.0,120.5,277.5,121.0,263.0,121.5,248.0,121.0,232.5,121.5,216.5,122.5,201.0,122.5" stroke="black" stroke-width="2" fill="none" />
<polyline points="164.5,135.5,148.0,151.0,131.5,165.5,115.5,180.5,100.0,196.5,84.0,213.0,69.0,228.5,55.0,244.5,40.0,261.0,25.0,277.0,9.0,293.5" stroke="black" stroke-width="2" fill="none" />
<polyline points="6.5,300.5,22.5,299.0,39.5,299.0,56.5,298.5,73.5,298.5,90.0,298.0,106.0,296.0,122.5,294.0,138.5,293.0,154.5,292.5,171.0,292.0,186.5,290.5,201.0,289.5,216.5,289.0,232.5,290.0,247.5,290.0,263.0,288.5" stroke="black" stroke-width="2" fill="none" />
<polyline points="277.0,284.0,294.0,283.5" stroke="black" stroke-width="2" fill="none" />
<polyline points="298.5,268.0,314.5,267.0" stroke="black" stroke-width="2" fill="none" />
<polyline points="313.0,250.0,297.0,251.0" stroke="black" stroke-width="2" fill="none" />
<polyline points="297.5,233.5,313.0,233.5,327.5,233.0" stroke="black" stroke-width="2" fill="none" />
<polyline points="315.0,201.5,330.5,201.5,346.0,202.0" stroke="black" stroke-width="2" fill="none" />
<polyline points="358.0,187.0,374.5,186.0,391.0,186.0,407.0,185.0,423.5,184.5,439.5,184.0" stroke="black" stroke-width="2" fill="none" />
<polyline points="441.5,198.0,457.5,198.5,473.5,198.5,489.0,198.5,504.0,199.5,520.0,199.5" stroke="black" stroke-width="2" fill="none" />
<polyline points="520.5,219.0,505.0,220.5" stroke="black" stroke-width="2" fill="none" />
<polyline points="520.5,183.0,504.5,182.0,489.0,182.5,474.5,183.5,459.0,185.0" stroke="black" stroke-width="2" fill="none" />
<polyline points="487.0,117.5,471.5,119.0,455.0,120.5,437.5,121.5,421.0,123.0,404.5,123.5" stroke="black" stroke-width="2" fill="none" />
<polyline points="390.5,138.5,406.5,138.5,421.5,137.5,437.5,137.5,453.5,138.0,469.0,138.0,485.0,137.0,502.0,136.0,519.5,134.5" stroke="black" stroke-width="2" fill="none" />
<polyline points="391.5,202.0,375.5,202.5" stroke="black" stroke-width="2" fill="none" />
<polyline points="360.5,172.0,376.5,172.0,393.5,172.5,409.5,172.0,425.5,171.0,442.0,171.0,457.0,170.0,473.0,169.0,489.5,168.5,506.0,168.5,522.5,168.5" stroke="black" stroke-width="2" fill="none" />
<polyline points="518.5,314.0,502.5,314.5" stroke="black" stroke-width="2" fill="none" />
<polyline points="518.5,150.0,502.5,150.5,487.0,151.0,471.5,150.5,456.0,150.5,440.5,151.5,425.5,152.5,410.0,152.5,394.5,153.5,378.5,154.5,361.0,154.5,345.0,154.5" stroke="black" stroke-width="2" fill="none" />
<polyline points="345.5,186.5,329.5,188.0,314.5,189.5" stroke="black" stroke-width="2" fill="none" />
<polyline points="203.0,279.0,187.0,295.5,170.5,311.0" stroke="black" stroke-width="2" fill="none" />
<polyline points="185.0,325.0,201.0,310.5" stroke="black" stroke-width="2" fill="none" />
<polyline points="200.0,325.0,185.0,340.5" stroke="black" stroke-width="2" fill="none" />
<polyline points="201.0,340.0,218.0,325.0" stroke="black" stroke-width="2" fill="none" />
<polyline points="198.0,294.0,182.5,309.0,167.5,324.5" stroke="black" stroke-width="2" fill="none" />
<polyline points="152.0,328.5,135.5,345.0" stroke="black" stroke-width="2" fill="none" />
<polyline points="120.0,327.0,136.0,311.5" stroke="black" stroke-width="2" fill="none" />
<polyline points="153.0,311.5,169.5,296.5,186.5,281.5" stroke="black" stroke-width="2" fill="none" />
<polyline points="166.5,279.5,150.5,295.0" stroke="black" stroke-width="2" fill="none" />
<polyline points="150.0,282.5,134.0,297.5,119.0,313.0" stroke="black" stroke-width="2" fill="none" />
<polyline points="99.5,311.5,115.0,296.5,130.5,280.5,146.5,265.0" stroke="black" stroke-width="2" fill="none" />
<polyline points="152.0,249.5,135.5,265.0,119.0,280.0,102.5,296.0" stroke="black" stroke-width="2" fill="none" />
<polyline points="83.5,294.0,101.0,279.0,118.0,263.5,134.0,247.0,150.5,231.5" stroke="black" stroke-width="2" fill="none" />
<polyline points="139.0,226.5,124.0,242.0,108.0,258.5,91.5,275.0,74.0,291.5,55.5,307.5,40.0,324.0,24.0,340.0" stroke="black" stroke-width="2" fill="none" />
<polyline points="9.5,335.0,25.5,334.0,41.0,333.0,56.5,331.5,71.0,329.5,85.0,328.5,101.0,328.0,117.0,326.0,133.0,325.5,150.0,325.5,166.5,325.5,182.5,325.0,198.5,324.5,214.5,324.0,230.0,322.5,247.0,322.0" stroke="black" stroke-width="2" fill="none" />
<polyline points="134.5,217.0,119.0,232.5,103.5,247.5,88.5,262.0,73.0,277.5,57.5,293.5,41.0,308.5,24.0,324.0,7.5,340.0" stroke="black" stroke-width="2" fill="none" />
<polyline points="8.5,324.0,24.5,308.0,39.5,292.5,54.5,277.5,70.5,262.0,86.0,246.5,102.5,231.5,119.0,217.0,135.5,202.0" stroke="black" stroke-width="2" fill="none" />
<polyline points="134.5,184.5,119.0,200.0,104.5,216.0,89.0,231.5,74.0,247.0,58.5,262.0,42.5,278.0,26.5,293.5,10.0,308.5" stroke="black" stroke-width="2" fill="none" />
<polyline points="8.0,316.5,24.0,317.0,40.5,316.0,56.5,315.0,73.0,313.5,89.5,311.5,104.5,311.5,120.0,311.5,136.0,311.5,152.0,311.5,169.0,311.5,184.5,310.0,200.0,308.5,216.0,307.0,232.5,305.0,249.0,304.0,265.5,304.0" stroke="black" stroke-width="2" fill="none" />
<polyline points="88.0,313.5,72.5,330.0,57.0,346.5" stroke="black" stroke-width="2" fill="none" />
<polyline points="41.5,343.0,58.0,327.0,74.5,311.0" stroke="black" stroke-width="2" fill="none" />
<polyline points="7.0,285.5,23.5,285.0,39.5,284.0,56.0,283.0,73.0,282.0,89.5,281.0,106.0,279.5,122.0,278.0,138.0,276.0,153.5,274.0,169.5,273.0,185.5,273.5,201.5,273.5,217.0,273.5,232.0,274.5,248.0,274.5" stroke="black" stroke-width="2" fill="none" />
<polyline points="150.5,119.0,135.0,135.0,119.0,151.5,102.5,167.5,86.0,183.0,69.5,197.0,53.5,213.0" stroke="black" stroke-width="2" fill="none" />
<polyline points="20.0,198.0,4.5,213.0" stroke="black" stroke-width="2" fill="none" />
<polyline points="11.0,220.0,27.0,219.0,43.0,217.5,58.0,217.0,73.0,216.5,88.5,216.5,104.0,216.0,120.0,215.5,136.0,215.0,151.0,214.5,166.0,214.0,182.5,213.0,199.0,213.0,215.0,212.0,231.5,211.5,247.5,211.0,264.0,210.5,281.0,210.5,297.5,210.5,314.5,210.0,331.0,209.0,347.0,209.5" stroke="black" stroke-width="2" fill="none" />
<polyline points="280.0,57.5,264.0,58.5,248.0,58.0,232.5,57.5,218.0,58.0,202.5,59.0" stroke="black" stroke-width="2" fill="none" />
<polyline points="137.5,88.5,121.0,104.0" stroke="black" stroke-width="2" fill="none" />
<polyline points="120.0,112.5,136.5,112.5" stroke="black" stroke-width="2" fill="none" />
<polyline points="136.0,106.5,119.5,121.5,103.5,136.5,88.0,151.5,72.5,167.0,57.0,183.0,40.0,198.0,24.5,213.0,8.0,228.5" stroke="black" stroke-width="2" fill="none" />
<polyline points="11.5,233.5,27.0,233.5,42.0,232.5,57.5,232.0,72.5,231.5,89.0,231.0,104.5,231.5,120.0,230.5,135.5,230.0,152.0,229.5,167.5,229.5,183.5,229.0,200.5,228.0,216.5,227.5,232.0,227.5" stroke="black" stroke-width="2" fill="none" />
<polyline points="136.5,131.0,120.5,132.0" stroke="black" stroke-width="2" fill="none" />
<polyline points="104.0,108.5,120.0,107.5,135.5,107.0,152.0,106.5,169.0,105.5,185.0,105.5,201.0,104.5,216.0,103.5,231.0,103.0,246.0,102.5,261.0,101.0,277.5,101.5,294.0,101.5,311.0,101.5,327.5,101.5,344.5,100.5,361.0,99.5" stroke="black" stroke-width="2" fill="none" />
<polyline points="147.5,106.5,131.5,121.5,116.5,136.0,101.5,150.0,86.0,164.0,70.0,178.5,54.5,193.0,38.5,209.0,22.5,224.5,7.0,239.0" stroke="black" stroke-width="2" fill="none" />
<polyline points="11.0,250.5,27.0,250.0,42.5,251.0,58.0,251.5,73.0,251.5,88.0,251.0,104.0,249.5,119.5,248.5,135.0,247.5,151.0,246.0,166.5,245.5,182.5,245.5,197.5,244.5,213.5,244.5,229.5,245.0,245.0,245.0,261.0,244.0,278.0,243.0" stroke="black" stroke-width="2" fill="none" />
<polyline points="249.0,87.0,232.5,87.5,216.0,89.0,200.0,90.0,184.0,90.0,167.5,90.0,151.0,90.0,134.5,90.0,118.0,90.5" stroke="black" stroke-width="2" fill="none" />
<polyline points="120.5,75.5,136.5,75.5,152.5,75.5,168.5,75.5,184.0,76.0,200.5,76.0" stroke="black" stroke-width="2" fill="none" />
<polyline points="74.5,154.5,58.0,169.5" stroke="black" stroke-width="2" fill="none" />
<polyline points="27.5,187.0,43.0,186.5,59.0,185.5,74.5,185.0,89.5,184.5,105.5,183.5,120.0,183.0,134.0,182.5,148.5,181.5,164.5,181.0,180.0,181.0,196.5,180.0,214.0,180.0,231.5,180.0,249.0,179.5,266.5,179.5,283.0,179.0,299.5,178.5" stroke="black" stroke-width="2" fill="none" />
<polyline points="37.0,246.0,21.5,262.5,6.0,278.5" stroke="black" stroke-width="2" fill="none" />
<polyline points="12.5,203.0,28.5,202.5,44.0,202.5,59.5,201.5,75.0,200.5,90.5,200.5,106.0,200.0,120.5,199.5,136.0,200.0,152.5,200.0,168.5,199.0,184.5,199.0,201.5,199.5,217.5,199.0,233.5,198.0,250.0,198.0,265.0,197.0,281.0,196.0,297.5,195.5" stroke="black" stroke-width="2" fill="none" />
<polyline points="342.5,161.0,326.5,161.5,311.0,162.0,295.5,161.5,280.0,161.5,264.5,162.5,249.5,163.5,234.0,163.5,218.5,164.5,202.5,165.5,185.0,165.5,169.0,165.5,153.0,166.5,137.5,166.5,121.5,168.0,104.5,170.0,88.5,171.0,72.0,171.5,55.5,171.5,39.0,171.5,23.0,172.5,7.0,172.0" stroke="black" stroke-width="2" fill="none" />
<polyline points="4.0,156.5,20.5,155.5,36.5,155.0,53.5,154.5,70.5,153.5,87.5,152.5,105.0,152.0,122.0,152.0,138.5,151.5,154.5,149.5,171.0,148.5,186.5,148.5,202.0,149.0,217.0,149.0,232.0,148.0,246.0,147.5,262.0,148.0,277.5,148.0,292.5,147.0,308.0,146.0,324.5,145.5" stroke="black" stroke-width="2" fill="none" />
<polyline points="234.0,132.0,218.0,132.5,201.5,133.5,185.5,135.0,170.5,136.5,154.5,136.5,138.0,136.5,121.5,136.5,104.5,136.5,87.0,137.0,71.0,137.5,54.5,138.5,38.0,139.0,22.0,139.5,6.0,140.0" stroke="black" stroke-width="2" fill="none" />
</svg>