<svg xmlns="http://www.w3.org/2000/svg" version="1.1"><polyline points="43.5,6.0,61.5,11.0,94.0,31.5,104.5,34.0,137.5,49.5,145.5,42.0,166.0,32.5,186.0,17.5,206.0,18.0,226.0,38.5,231.0,61.0,263.5,58.5,281.0,56.0,293.0,36.0,313.0,33.5,323.0,48.5,340.5,33.5,365.0,20.5,369.5,30.0,389.5,32.5,410.0,30.0,419.5,5.0,439.5,5.5,404.5,18.0,395.0,45.0,370.5,67.5,355.0,92.5,355.0,120.0,342.5,140.0,385.0,152.5,405.5,157.5,400.5,177.5,385.5,202.5,345.5,212.0,353.0,222.0,333.0,246.5,348.0,266.0,363.5,274.0,373.5,281.5,375.5,296.5,400.5,299.0,390.5,309.0,383.0,329.0,397.5,333.5,370.0,333.5,377.5,325.5,395.0,326.0,418.0,311.5,433.5,317.0,453.5,312.5,453.5,307.5,473.5,297.0,470.5,317.0,482.5,316.5,502.0,311.5,507.0,319.5" stroke="black" stroke-width="2" fill="none" />
<polyline points="508.5,318.0,500.5,318.5" stroke="black" stroke-width="2" fill="none" />
<polyline points="498.5,324.0,506.5,323.5,515.5,322.5" stroke="black" stroke-width="2" fill="none" />
<polyline points="514.0,334.5,505.5,335.0" stroke="black" stroke-width="2" fill="none" />
<polyline points="500.0,310.5,508.0,310.0,516.5,310.0" stroke="black" stroke-width="2" fill="none" />
<polyline points="508.0,302.0,500.0,302.5" stroke="black" stroke-width="2" fill="none" />
<polyline points="505.0,277.0,513.5,276.5" stroke="black" stroke-width="2" fill="none" />
<polyline points="514.5,266.5,506.5,266.5" stroke="black" stroke-width="2" fill="none" />
<polyline points="503.0,252.5,500.5,272.0,508.0,292.0" stroke="black" stroke-width="2" fill="none" />
<polyline points="492.0,261.5,484.5,262.5" stroke="black" stroke-width="2" fill="none" />
<polyline points="475.5,270.0,467.5,270.0" stroke="black" stroke-width="2" fill="none" />
<polyline points="468.0,261.5,476.0,261.0" stroke="black" stroke-width="2" fill="none" />
<polyline points="477.5,247.0,467.5,267.0,462.5,279.5" stroke="black" stroke-width="2" fill="none" />
<polyline points="451.0,309.5,443.0,310.0,435.0,310.0" stroke="black" stroke-width="2" fill="none" />
<polyline points="436.5,251.5,428.0,251.5" stroke="black" stroke-width="2" fill="none" />
<polyline points="427.5,245.0,435.5,244.5" stroke="black" stroke-width="2" fill="none" />
<polyline points="427.5,221.5,420.0,222.5" stroke="black" stroke-width="2" fill="none" />
<polyline points="417.5,238.0,410.0,238.0" stroke="black" stroke-width="2" fill="none" />
<polyline points="404.0,215.5,412.0,215.0,419.5,214.5,427.5,213.5" stroke="black" stroke-width="2" fill="none" />
<polyline points="427.5,206.0,435.5,205.5,443.5,205.0,451.5,204.5,459.0,203.5" stroke="black" stroke-width="2" fill="none" />
<polyline points="469.0,189.0,477.0,188.5,484.5,188.0,492.5,187.5,500.5,187.0,507.5,187.0,515.5,186.5" stroke="black" stroke-width="2" fill="none" />
<polyline points="515.5,186.0,507.5,194.0" stroke="black" stroke-width="2" fill="none" />
<polyline points="509.0,188.0,501.5,196.0" stroke="black" stroke-width="2" fill="none" />
<polyline points="516.0,194.0,508.5,195.0,500.5,195.5,492.5,196.0,484.5,196.5" stroke="black" stroke-width="2" fill="none" />
<polyline points="498.5,220.5,506.5,220.5,514.0,220.0" stroke="black" stroke-width="2" fill="none" />
<polyline points="516.0,212.5,508.0,213.0" stroke="black" stroke-width="2" fill="none" />
<polyline points="501.0,237.5,493.0,237.5,484.5,237.5" stroke="black" stroke-width="2" fill="none" />
<polyline points="498.0,244.5,506.5,244.5" stroke="black" stroke-width="2" fill="none" />
<polyline points="475.0,220.0,467.5,221.0,459.5,222.0,452.0,223.0" stroke="black" stroke-width="2" fill="none" />
<polyline points="438.5,211.5,444.0,224.0,439.0,244.5,426.5,259.5,444.0,282.5" stroke="black" stroke-width="2" fill="none" />
<polyline points="386.0,261.5,377.0,262.5" stroke="black" stroke-width="2" fill="none" />
<polyline points="354.5,238.5,346.5,239.5" stroke="black" stroke-width="2" fill="none" />
<polyline points="346.5,244.0,338.0,244.5" stroke="black" stroke-width="2" fill="none" />
<polyline points="334.0,222.5,342.0,221.0" stroke="black" stroke-width="2" fill="none" />
<polyline points="347.0,223.0,355.0,222.5" stroke="black" stroke-width="2" fill="none" />
<polyline points="357.5,213.5,350.0,214.0" stroke="black" stroke-width="2" fill="none" />
<polyline points="357.5,198.0,365.0,198.0,373.0,198.0,381.0,197.5,389.0,197.0" stroke="black" stroke-width="2" fill="none" />
<polyline points="399.0,199.5,404.0,192.5,406.5,222.0,411.5,231.5,434.0,249.0,421.5,254.5" stroke="black" stroke-width="2" fill="none" />
<polyline points="395.5,211.0,387.0,211.5" stroke="black" stroke-width="2" fill="none" />
<polyline points="401.0,206.5,421.0,206.5,443.5,189.0,463.5,189.5,483.5,187.0" stroke="black" stroke-width="2" fill="none" />
<polyline points="475.5,195.0,467.0,195.0,459.0,195.0,451.0,195.5,442.5,196.5,434.0,197.5,426.0,198.0" stroke="black" stroke-width="2" fill="none" />
<polyline points="425.5,182.0,433.5,181.0,442.0,180.0,450.5,179.0,458.5,178.5,467.0,178.0,475.5,177.5,484.0,177.0,492.0,177.0,500.0,176.0,508.5,175.5,516.5,174.5" stroke="black" stroke-width="2" fill="none" />
<polyline points="515.5,170.5,507.5,171.0,500.0,171.5,492.0,172.5,484.0,172.5,475.5,172.5,467.5,172.5,460.0,172.5,452.0,173.0" stroke="black" stroke-width="2" fill="none" />
<polyline points="461.5,166.0,469.5,165.0,477.0,164.0,484.0,163.5,491.0,163.5,498.0,162.5,506.5,162.5,514.5,161.5" stroke="black" stroke-width="2" fill="none" />
<polyline points="515.5,146.0,507.0,146.5,498.5,147.0,490.5,147.5,482.0,147.5,474.0,148.5,466.0,149.0,458.0,149.5,450.0,150.0" stroke="black" stroke-width="2" fill="none" />
<polyline points="436.5,140.5,444.5,140.5,452.0,140.5,460.0,140.5,467.5,140.5,475.5,140.0,483.0,139.0,491.0,138.0,498.0,137.0,505.0,136.0,513.0,136.0" stroke="black" stroke-width="2" fill="none" />
<polyline points="492.0,124.5,484.0,125.5,476.0,126.0" stroke="black" stroke-width="2" fill="none" />
<polyline points="458.0,120.5,450.0,121.0,442.5,121.5,434.0,122.5,426.5,124.0,419.0,124.5,412.0,125.0,404.0,125.5" stroke="black" stroke-width="2" fill="none" />
<polyline points="402.5,117.0,411.0,116.5,419.0,116.0,427.0,115.5,435.0,115.0,443.0,114.5,451.0,114.5,459.5,114.5,468.0,114.5" stroke="black" stroke-width="2" fill="none" />
<polyline points="479.5,88.5,499.5,86.0" stroke="black" stroke-width="2" fill="none" />
<polyline points="502.0,49.5,482.0,56.5,472.5,64.0,452.5,66.5,452.5,89.0,475.0,94.0,497.5,74.0,469.5,54.0,484.5,34.5,491.5,20.0,471.0,22.5" stroke="black" stroke-width="2" fill="none" />
<polyline points="458.5,6.5,450.5,7.0" stroke="black" stroke-width="2" fill="none" />
<polyline points="451.0,32.5,431.0,40.0,411.0,47.5,386.0,72.0,383.5,64.5,364.0,62.0,336.5,74.0,316.5,74.0,304.5,79.0,284.5,79.0" stroke="black" stroke-width="2" fill="none" />
<polyline points="285.0,91.5,276.5,98.5" stroke="black" stroke-width="2" fill="none" />
<polyline points="276.0,93.0,268.0,100.5" stroke="black" stroke-width="2" fill="none" />
<polyline points="267.5,101.0,275.5,100.5,283.5,100.0,291.5,100.0,299.0,99.5,306.5,99.0,314.0,98.0,322.0,97.0,329.5,96.5,337.0,96.0,345.0,95.5" stroke="black" stroke-width="2" fill="none" />
<polyline points="349.0,99.0,341.0,107.0" stroke="black" stroke-width="2" fill="none" />
<polyline points="332.5,99.0,340.5,91.5" stroke="black" stroke-width="2" fill="none" />
<polyline points="333.0,83.5,341.5,76.5" stroke="black" stroke-width="2" fill="none" />
<polyline points="325.0,75.0,317.0,83.0" stroke="black" stroke-width="2" fill="none" />
<polyline points="318.0,87.5,338.0,90.0" stroke="black" stroke-width="2" fill="none" />
<polyline points="324.0,108.0,316.0,115.5,308.0,122.5" stroke="black" stroke-width="2" fill="none" />
<polyline points="308.0,121.0,316.0,120.5" stroke="black" stroke-width="2" fill="none" />
<polyline points="322.5,116.5,315.0,124.5,307.5,132.0" stroke="black" stroke-width="2" fill="none" />
<polyline points="314.0,133.0,322.0,132.5,330.0,132.0" stroke="black" stroke-width="2" fill="none" />
<polyline points="325.0,130.5,333.0,123.5" stroke="black" stroke-width="2" fill="none" />
<polyline points="325.0,125.0,317.0,132.0" stroke="black" stroke-width="2" fill="none" />
<polyline points="314.0,148.5,322.0,148.5" stroke="black" stroke-width="2" fill="none" />
<polyline points="317.0,150.0,329.5,147.5,335.0,152.0,352.5,164.5,370.0,132.0,397.0,141.5,417.5,141.5,440.0,131.5" stroke="black" stroke-width="2" fill="none" />
<polyline points="435.5,149.0,428.0,149.5,419.5,150.5" stroke="black" stroke-width="2" fill="none" />
<polyline points="427.0,164.5,435.5,164.0" stroke="black" stroke-width="2" fill="none" />
<polyline points="410.5,134.5,418.5,134.5,427.5,134.0,436.0,134.0,444.0,133.5,452.0,132.5,460.0,131.5,467.0,130.0,474.5,129.0,481.5,129.0,489.0,128.0,497.5,127.5,505.5,127.0" stroke="black" stroke-width="2" fill="none" />
<polyline points="516.0,149.0,508.0,149.5,499.5,149.5,491.5,150.5,483.5,151.0,475.5,151.0,468.0,151.5,460.0,152.5,452.0,153.0,444.0,153.5,436.0,153.5,428.5,153.5,421.0,154.0,413.0,154.5,405.0,155.0,396.5,156.0,388.5,157.0,381.0,158.0,373.0,159.0" stroke="black" stroke-width="2" fill="none" />
<polyline points="379.5,150.5,388.0,150.0,396.0,149.5,403.5,149.0,411.5,148.5" stroke="black" stroke-width="2" fill="none" />
<polyline points="419.5,162.0,411.5,163.0,404.0,163.5,397.0,163.5,389.0,164.0" stroke="black" stroke-width="2" fill="none" />
<polyline points="388.5,143.5,396.5,142.5,404.0,141.0,411.0,140.0,418.5,138.5,426.5,137.0" stroke="black" stroke-width="2" fill="none" />
<polyline points="403.0,132.5,395.0,133.0,387.5,133.5" stroke="black" stroke-width="2" fill="none" />
<polyline points="370.5,148.0,362.0,148.0,353.5,148.0,345.0,148.0,337.0,148.5" stroke="black" stroke-width="2" fill="none" />
<polyline points="340.0,141.5,348.0,141.5,356.0,141.0,364.0,140.0,372.0,139.0" stroke="black" stroke-width="2" fill="none" />
<polyline points="380.0,164.0,372.0,164.0,364.0,164.0,355.0,164.0,347.0,164.0" stroke="black" stroke-width="2" fill="none" />
<polyline points="347.0,156.5,355.0,155.5" stroke="black" stroke-width="2" fill="none" />
<polyline points="348.5,174.0,356.5,173.5,364.0,172.5,372.0,172.0,380.0,171.0,387.5,170.5,395.5,171.0,403.5,170.5,411.5,170.0,419.5,169.0,428.0,168.0,436.0,167.5,443.5,167.5" stroke="black" stroke-width="2" fill="none" />
<polyline points="420.0,178.0,412.0,179.5,404.5,180.0,397.0,180.0,389.0,180.5,381.5,181.5,373.0,181.5" stroke="black" stroke-width="2" fill="none" />
<polyline points="355.5,190.0,364.0,189.5,372.5,188.5,381.0,188.0,389.0,188.0,397.0,188.0,405.5,187.0,413.5,186.0" stroke="black" stroke-width="2" fill="none" />
<polyline points="411.5,197.5,403.5,197.5" stroke="black" stroke-width="2" fill="none" />
<polyline points="331.0,213.5,323.0,214.5" stroke="black" stroke-width="2" fill="none" />
<polyline points="322.0,216.5,342.0,232.0" stroke="black" stroke-width="2" fill="none" />
<polyline points="313.0,243.5,305.0,244.0" stroke="black" stroke-width="2" fill="none" />
<polyline points="301.5,236.5,309.5,236.0" stroke="black" stroke-width="2" fill="none" />
<polyline points="311.5,222.5,304.0,242.5,309.5,257.0,294.5,257.0,287.5,270.0,287.5,290.0,300.0,312.5,302.5,325.0,320.0,332.5" stroke="black" stroke-width="2" fill="none" />
<polyline points="315.0,324.0,334.5,321.5,354.5,319.0" stroke="black" stroke-width="2" fill="none" />
<polyline points="347.0,307.0,338.5,307.0" stroke="black" stroke-width="2" fill="none" />
<polyline points="327.0,294.5,306.5,284.5" stroke="black" stroke-width="2" fill="none" />
<polyline points="301.5,270.5,293.5,271.0" stroke="black" stroke-width="2" fill="none" />
<polyline points="301.0,262.0,309.0,261.5,316.5,260.5,324.0,259.5" stroke="black" stroke-width="2" fill="none" />
<polyline points="299.0,245.0,291.0,245.0" stroke="black" stroke-width="2" fill="none" />
<polyline points="293.0,231.0,300.5,230.5,308.0,230.0,316.0,229.5,323.5,229.0" stroke="black" stroke-width="2" fill="none" />
<polyline points="325.5,220.0,317.0,221.0,309.0,221.5,301.0,222.0,293.5,222.5,286.0,223.5" stroke="black" stroke-width="2" fill="none" />
<polyline points="278.0,211.0,269.5,218.5,261.0,225.5,252.5,233.0" stroke="black" stroke-width="2" fill="none" />
<polyline points="252.5,232.5,260.0,232.0" stroke="black" stroke-width="2" fill="none" />
<polyline points="260.0,225.5,268.0,225.0" stroke="black" stroke-width="2" fill="none" />
<polyline points="267.0,211.0,259.0,218.5,251.5,226.0,244.0,233.5" stroke="black" stroke-width="2" fill="none" />
<polyline points="242.5,237.5,250.5,237.0,258.5,237.0" stroke="black" stroke-width="2" fill="none" />
<polyline points="257.5,246.0,250.0,253.5,242.0,260.5" stroke="black" stroke-width="2" fill="none" />
<polyline points="244.5,260.0,252.5,259.5" stroke="black" stroke-width="2" fill="none" />
<polyline points="257.0,260.5,265.5,252.5" stroke="black" stroke-width="2" fill="none" />
<polyline points="258.0,253.0,250.5,260.5" stroke="black" stroke-width="2" fill="none" />
<polyline points="244.0,245.5,252.5,245.0,260.5,245.0" stroke="black" stroke-width="2" fill="none" />
<polyline points="267.5,242.0,287.5,237.0,306.5,242.0,326.5,257.0,344.0,277.0" stroke="black" stroke-width="2" fill="none" />
<polyline points="319.0,264.5,306.5,262.5,274.0,247.5,274.0,255.0,255.0,247.5,225.0,257.5,220.0,237.5,199.5,235.0" stroke="black" stroke-width="2" fill="none" />
<polyline points="203.0,226.0,210.5,218.5" stroke="black" stroke-width="2" fill="none" />
<polyline points="211.0,216.5,203.0,217.5" stroke="black" stroke-width="2" fill="none" />
<polyline points="201.5,219.0,209.5,211.5,217.5,204.5" stroke="black" stroke-width="2" fill="none" />
<polyline points="218.0,211.5,226.0,204.5,234.5,196.5,242.0,189.0" stroke="black" stroke-width="2" fill="none" />
<polyline points="242.5,194.0,250.5,193.5" stroke="black" stroke-width="2" fill="none" />
<polyline points="251.0,187.5,243.0,194.5,235.0,201.5,227.5,209.0" stroke="black" stroke-width="2" fill="none" />
<polyline points="236.0,211.0,227.5,218.5" stroke="black" stroke-width="2" fill="none" />
<polyline points="235.0,219.5,243.0,212.0" stroke="black" stroke-width="2" fill="none" />
<polyline points="237.0,207.5,257.0,205.0,282.0,180.5,294.5,185.5" stroke="black" stroke-width="2" fill="none" />
<polyline points="290.0,188.0,282.0,188.5,274.0,188.5,265.5,188.5,257.5,189.0,249.5,189.0,241.5,189.5,233.5,190.0,225.0,190.5,217.5,191.0,211.0,191.5,204.0,192.0,195.5,192.5,187.5,192.5,180.0,193.0,172.5,193.5,165.0,194.5,156.5,194.5,148.5,195.0,140.0,196.0,132.0,196.5,124.0,197.5,116.0,197.5,108.5,197.5,100.5,197.5,92.5,198.0,84.5,198.0,76.5,198.5,69.0,200.0,61.0,201.0,53.0,202.0,44.5,203.0,36.5,204.0,28.0,204.5,19.5,205.5,11.5,206.0,3.5,206.5" stroke="black" stroke-width="2" fill="none" />
<polyline points="2.5,209.0,11.0,201.5,19.0,194.0,27.5,186.0,35.5,178.0" stroke="black" stroke-width="2" fill="none" />
<polyline points="29.5,184.0,37.5,183.5,45.5,183.0,53.5,182.5,61.0,182.0,69.0,181.0,77.0,180.5,84.0,179.0,91.5,178.5,99.5,177.5,108.0,177.0,115.5,177.0,123.0,176.5,131.5,176.0,140.5,175.5,148.5,175.0,156.0,174.5,164.0,173.5,172.0,173.0,180.5,172.5,188.5,172.5,197.0,172.0,204.5,171.0,212.5,170.0,221.0,169.0,229.0,168.0,237.0,167.0,245.5,166.5,253.5,166.5,261.0,166.0,269.0,165.5,277.0,165.5,285.0,164.5,292.5,163.5,300.0,162.5,308.0,161.5,316.0,161.5,325.0,162.0,333.5,162.5" stroke="black" stroke-width="2" fill="none" />
<polyline points="338.0,171.5,329.5,172.0,321.0,173.0,313.5,173.5" stroke="black" stroke-width="2" fill="none" />
<polyline points="312.0,167.0,284.5,165.0,272.5,165.0,255.5,175.0,235.5,172.5" stroke="black" stroke-width="2" fill="none" />
<polyline points="234.0,172.0,225.5,179.5,217.5,187.0,210.0,194.5" stroke="black" stroke-width="2" fill="none" />
<polyline points="210.0,202.5,218.5,195.5" stroke="black" stroke-width="2" fill="none" />
<polyline points="226.0,186.5,234.0,179.0" stroke="black" stroke-width="2" fill="none" />
<polyline points="227.0,172.0,218.5,179.5" stroke="black" stroke-width="2" fill="none" />
<polyline points="209.5,186.0,202.0,193.5" stroke="black" stroke-width="2" fill="none" />
<polyline points="197.0,189.0,188.5,196.0" stroke="black" stroke-width="2" fill="none" />
<polyline points="187.0,187.0,195.0,179.5" stroke="black" stroke-width="2" fill="none" />
<polyline points="193.5,170.0,185.5,177.5,177.5,185.5" stroke="black" stroke-width="2" fill="none" />
<polyline points="170.0,184.5,160.0,204.5" stroke="black" stroke-width="2" fill="none" />
<polyline points="156.5,212.5,148.5,220.5" stroke="black" stroke-width="2" fill="none" />
<polyline points="139.5,219.0,131.5,226.5,124.0,234.0,116.0,241.5,107.5,249.0,99.5,257.0,91.5,265.0,84.0,272.5,76.0,280.0,67.5,287.0,59.5,294.0,51.5,301.5,43.5,309.5,36.0,317.0,28.0,325.5,20.5,333.0" stroke="black" stroke-width="2" fill="none" />
<polyline points="27.5,337.0,35.0,329.5,43.0,322.0,51.5,315.0,59.0,308.0,66.0,300.5,74.0,292.5" stroke="black" stroke-width="2" fill="none" />
<polyline points="84.5,289.5,92.5,282.0,101.0,274.5,109.0,267.0,117.0,259.0,124.5,251.0,132.0,243.5,140.0,236.0" stroke="black" stroke-width="2" fill="none" />
<polyline points="139.5,228.0,132.0,235.5,124.0,243.0,116.0,250.5,108.5,258.0,100.5,266.0,92.5,273.5,84.0,280.5" stroke="black" stroke-width="2" fill="none" />
<polyline points="91.5,288.0,91.5,288.0,94.5,308.0,104.5,327.5,107.5,332.0" stroke="black" stroke-width="2" fill="none" />
<polyline points="115.0,332.0,107.0,339.5" stroke="black" stroke-width="2" fill="none" />
<polyline points="94.0,332.5,103.0,325.0" stroke="black" stroke-width="2" fill="none" />
<polyline points="114.5,312.5,122.5,305.0,130.0,298.0" stroke="black" stroke-width="2" fill="none" />
<polyline points="131.5,291.5,124.0,299.0,116.0,306.0,107.5,313.0" stroke="black" stroke-width="2" fill="none" />
<polyline points="101.0,308.0,93.0,315.0,84.5,322.0" stroke="black" stroke-width="2" fill="none" />
<polyline points="82.5,314.5,75.0,322.0,67.0,329.5,59.5,337.5" stroke="black" stroke-width="2" fill="none" />
<polyline points="65.5,339.5,73.5,332.0" stroke="black" stroke-width="2" fill="none" />
<polyline points="65.5,322.5,73.5,315.0" stroke="black" stroke-width="2" fill="none" />
<polyline points="73.5,308.0,65.5,315.5,58.0,323.0" stroke="black" stroke-width="2" fill="none" />
<polyline points="60.5,331.0,52.5,338.5" stroke="black" stroke-width="2" fill="none" />
<polyline points="50.0,331.5,42.5,339.0" stroke="black" stroke-width="2" fill="none" />
<polyline points="44.5,337.0,36.5,337.0" stroke="black" stroke-width="2" fill="none" />
<polyline points="36.0,336.0,44.5,328.5,52.5,320.5,60.5,313.0,68.0,305.5" stroke="black" stroke-width="2" fill="none" />
<polyline points="53.0,311.5,45.5,312.5" stroke="black" stroke-width="2" fill="none" />
<polyline points="39.5,312.0,49.5,332.0" stroke="black" stroke-width="2" fill="none" />
<polyline points="37.0,328.5,29.5,328.5" stroke="black" stroke-width="2" fill="none" />
<polyline points="29.0,322.5,36.5,321.5" stroke="black" stroke-width="2" fill="none" />
<polyline points="38.5,331.0,36.0,310.5,41.0,308.0" stroke="black" stroke-width="2" fill="none" />
<polyline points="44.5,303.0,52.5,303.0" stroke="black" stroke-width="2" fill="none" />
<polyline points="32.5,292.5,25.0,312.5,22.5,333.0" stroke="black" stroke-width="2" fill="none" />
<polyline points="10.5,329.5,18.5,322.0,26.5,314.5,35.0,307.5,43.0,300.5,51.5,293.5,59.0,286.5,66.5,279.0,74.5,271.5,83.0,263.5,91.5,256.0,99.5,248.5,108.0,241.0,116.5,233.5,125.0,227.0,133.0,219.5" stroke="black" stroke-width="2" fill="none" />
<polyline points="132.5,209.5,124.5,217.0,116.5,225.0,109.0,233.0,101.5,240.5,93.5,248.0,85.5,255.5,77.0,263.0,69.0,270.5,61.0,278.5,53.0,285.5,44.5,293.0,36.5,300.5,28.5,308.0,20.0,316.0,11.5,323.5,4.0,331.0" stroke="black" stroke-width="2" fill="none" />
<polyline points="6.0,334.5,14.0,334.0,21.5,333.0,29.0,333.0,36.5,332.5,44.0,332.5,51.5,331.5,58.5,330.5,66.0,330.5,74.0,330.5,81.5,330.0,89.5,329.5,98.0,328.5,106.5,327.0,115.0,326.0,123.0,325.0,131.0,324.0,139.0,323.5,147.0,323.0,155.5,322.0,163.5,322.0,171.5,321.5,179.5,321.5,188.0,321.5,196.0,321.5,204.0,321.0,211.5,321.0,219.5,321.0,227.0,321.0,234.5,321.0,242.5,321.0" stroke="black" stroke-width="2" fill="none" />
<polyline points="250.5,334.0,258.5,333.0" stroke="black" stroke-width="2" fill="none" />
<polyline points="261.5,317.0,269.5,316.5" stroke="black" stroke-width="2" fill="none" />
<polyline points="275.0,302.5,283.0,301.5" stroke="black" stroke-width="2" fill="none" />
<polyline points="282.5,296.0,274.5,296.5" stroke="black" stroke-width="2" fill="none" />
<polyline points="277.5,289.5,290.0,309.5" stroke="black" stroke-width="2" fill="none" />
<polyline points="281.5,279.0,273.5,279.5" stroke="black" stroke-width="2" fill="none" />
<polyline points="273.5,281.5,280.5,301.5,285.5,322.0" stroke="black" stroke-width="2" fill="none" />
<polyline points="281.5,284.0,273.0,284.5,265.0,285.0" stroke="black" stroke-width="2" fill="none" />
<polyline points="260.0,292.5,252.5,293.5,244.5,293.5" stroke="black" stroke-width="2" fill="none" />
<polyline points="249.0,288.0,269.0,310.5,274.5,295.5,294.5,303.0,314.5,300.0,337.0,305.0,347.0,305.0,367.0,292.0,387.5,269.0" stroke="black" stroke-width="2" fill="none" />
<polyline points="395.0,250.0,375.0,270.0,347.5,247.5,335.0,227.5,322.5,207.5,337.5,198.0,317.5,210.5" stroke="black" stroke-width="2" fill="none" />
<polyline points="314.0,211.5,306.0,211.5" stroke="black" stroke-width="2" fill="none" />
<polyline points="309.5,215.5,329.5,235.5,357.0,223.5,377.0,221.0,394.5,221.0" stroke="black" stroke-width="2" fill="none" />
<polyline points="338.0,196.0,330.0,197.0,322.5,198.0,315.0,198.5" stroke="black" stroke-width="2" fill="none" />
<polyline points="308.0,204.5,316.0,204.0,323.5,204.5,331.5,204.5,339.5,204.0" stroke="black" stroke-width="2" fill="none" />
<polyline points="338.0,188.5,329.5,188.5,321.5,188.5,313.0,189.0" stroke="black" stroke-width="2" fill="none" />
<polyline points="291.5,190.5,309.0,210.5,309.0,230.5,323.5,250.0" stroke="black" stroke-width="2" fill="none" />
<polyline points="290.0,209.5,282.0,210.5,274.5,211.0,266.5,211.0,259.0,211.0,251.5,211.0,243.5,211.0,236.0,211.0,228.0,211.5,220.0,211.5,211.5,211.5,203.5,211.5,195.5,212.0" stroke="black" stroke-width="2" fill="none" />
<polyline points="195.5,220.0,187.5,227.0" stroke="black" stroke-width="2" fill="none" />
<polyline points="194.0,225.5,186.0,233.5" stroke="black" stroke-width="2" fill="none" />
<polyline points="183.0,244.0,162.5,264.0,172.0,284.0,167.0,311.5,161.5,331.5" stroke="black" stroke-width="2" fill="none" />
<polyline points="172.0,329.5,180.5,322.5,188.5,315.5" stroke="black" stroke-width="2" fill="none" />
<polyline points="187.5,307.0,180.0,314.5" stroke="black" stroke-width="2" fill="none" />
<polyline points="178.0,308.0,186.5,301.0,194.0,293.5" stroke="black" stroke-width="2" fill="none" />
<polyline points="193.5,284.5,185.5,291.5,177.5,299.0,170.5,306.0,163.0,313.0" stroke="black" stroke-width="2" fill="none" />
<polyline points="165.0,312.0,173.0,311.5" stroke="black" stroke-width="2" fill="none" />
<polyline points="171.5,299.0,163.5,306.5,155.5,314.5" stroke="black" stroke-width="2" fill="none" />
<polyline points="155.5,322.0,147.5,329.0,138.5,337.0" stroke="black" stroke-width="2" fill="none" />
<polyline points="137.5,330.5,145.5,323.5" stroke="black" stroke-width="2" fill="none" />
<polyline points="139.0,321.5,131.5,329.0" stroke="black" stroke-width="2" fill="none" />
<polyline points="131.5,321.5,140.0,313.5" stroke="black" stroke-width="2" fill="none" />
<polyline points="141.0,307.5,133.0,315.0,124.5,321.5" stroke="black" stroke-width="2" fill="none" />
<polyline points="121.5,314.0,129.5,306.5" stroke="black" stroke-width="2" fill="none" />
<polyline points="131.0,297.0,123.0,297.5" stroke="black" stroke-width="2" fill="none" />
<polyline points="117.0,298.5,124.5,291.5,131.5,284.0,139.0,276.5,146.5,269.0,154.0,261.0,161.5,253.5" stroke="black" stroke-width="2" fill="none" />
<polyline points="156.5,253.0,148.5,260.5,141.0,267.5,132.5,275.0" stroke="black" stroke-width="2" fill="none" />
<polyline points="132.0,264.5,140.5,264.0" stroke="black" stroke-width="2" fill="none" />
<polyline points="140.5,256.0,132.5,257.0" stroke="black" stroke-width="2" fill="none" />
<polyline points="140.0,253.0,132.5,260.5,124.5,268.5,117.0,275.5,109.5,282.5" stroke="black" stroke-width="2" fill="none" />
<polyline points="116.0,281.5,123.5,274.0,131.5,266.5,139.5,258.0,147.5,250.5" stroke="black" stroke-width="2" fill="none" />
<polyline points="139.5,249.5,159.5,234.5,169.0,247.0,171.5,254.5,184.0,235.0,204.0,230.0" stroke="black" stroke-width="2" fill="none" />
<polyline points="219.0,230.5,211.5,231.0,204.5,231.0,196.5,232.0,188.5,233.0,181.0,234.0,173.0,234.5,165.5,235.0,157.0,236.0,148.5,236.5,140.5,237.0,132.0,237.0,123.5,237.5,115.5,238.5,107.5,239.0,99.5,239.5,91.5,239.5,84.0,240.0,75.5,241.0,67.0,241.5,59.5,242.5,52.0,243.0,44.0,243.5,36.5,244.5,29.0,245.0,21.0,245.5,13.0,246.5,5.0,246.5" stroke="black" stroke-width="2" fill="none" />
<polyline points="3.0,248.5,10.0,241.5,17.5,234.0,26.0,227.0,33.5,219.5" stroke="black" stroke-width="2" fill="none" />
<polyline points="29.5,220.5,49.5,218.0,62.0,200.0,82.0,202.5" stroke="black" stroke-width="2" fill="none" />
<polyline points="82.5,193.0,90.5,193.0" stroke="black" stroke-width="2" fill="none" />
<polyline points="100.5,202.0,108.5,201.5,116.5,201.0" stroke="black" stroke-width="2" fill="none" />
<polyline points="123.0,209.5,131.0,209.0" stroke="black" stroke-width="2" fill="none" />
<polyline points="133.0,203.0,125.0,210.5,116.5,218.0,108.0,225.5,100.0,233.0,92.0,240.5,84.0,248.0,76.0,255.0,67.5,263.0,59.5,270.5,51.0,278.5,43.5,286.0,35.5,294.0,28.0,301.0,20.5,308.5,13.0,315.5,5.0,323.0" stroke="black" stroke-width="2" fill="none" />
<polyline points="5.5,325.0,14.0,324.5,22.0,324.0,29.5,323.0,37.0,322.0,45.0,321.0,53.0,321.0,61.0,321.0,68.5,321.0,76.0,321.0,84.0,320.5,92.0,320.0,100.0,319.5,108.0,319.0,116.5,318.0,124.5,318.0,132.0,317.0,139.5,316.5,147.5,316.0,156.0,316.0,164.5,315.5,172.0,315.0,179.0,314.0,186.5,313.5,194.5,313.5,202.5,313.0,210.5,312.5,218.5,312.0,226.5,311.5,234.5,311.0,242.5,311.0" stroke="black" stroke-width="2" fill="none" />
<polyline points="244.0,302.0,252.0,302.0,259.5,301.5" stroke="black" stroke-width="2" fill="none" />
<polyline points="260.0,308.0,252.5,308.5,245.0,309.0,237.5,310.0,229.5,311.0" stroke="black" stroke-width="2" fill="none" />
<polyline points="219.0,315.0,211.0,323.0" stroke="black" stroke-width="2" fill="none" />
<polyline points="213.0,330.0,205.0,337.5" stroke="black" stroke-width="2" fill="none" />
<polyline points="203.5,334.5,211.0,334.5" stroke="black" stroke-width="2" fill="none" />
<polyline points="213.0,340.0,221.0,333.0" stroke="black" stroke-width="2" fill="none" />
<polyline points="202.0,330.5,194.0,338.0" stroke="black" stroke-width="2" fill="none" />
<polyline points="194.0,329.0,202.5,321.5" stroke="black" stroke-width="2" fill="none" />
<polyline points="203.0,314.0,195.0,321.0,187.0,328.5,179.5,337.0" stroke="black" stroke-width="2" fill="none" />
<polyline points="171.5,337.0,180.0,329.5,188.0,322.0,196.5,315.0,204.5,307.5" stroke="black" stroke-width="2" fill="none" />
<polyline points="205.0,301.5,197.0,308.5" stroke="black" stroke-width="2" fill="none" />
<polyline points="212.5,311.0,220.5,310.5" stroke="black" stroke-width="2" fill="none" />
<polyline points="218.0,283.0,226.0,275.5" stroke="black" stroke-width="2" fill="none" />
<polyline points="236.0,279.0,228.5,279.0,220.0,279.5,212.0,280.0,204.0,280.5,195.5,281.5,187.5,283.0,180.0,283.5,172.5,284.0,164.5,284.5,156.5,284.5,149.0,285.0,141.0,286.0,133.0,286.5,125.0,286.5,117.0,287.5,108.5,288.0,100.0,288.5,91.5,288.5,83.0,289.0,75.0,289.5,67.0,290.0,59.0,290.5,51.0,290.5,42.5,291.0,35.5,291.5,28.0,291.5,20.0,292.0,12.0,293.0,4.5,293.0" stroke="black" stroke-width="2" fill="none" />
<polyline points="2.5,292.5,11.0,285.0,19.0,277.0,27.5,269.0,35.5,261.5,44.0,254.0,52.0,246.5,60.0,239.0,68.5,231.5,76.5,224.0,84.0,217.0,92.0,209.5,100.0,202.5,108.0,195.5,116.0,188.0,124.5,180.5,133.0,172.5" stroke="black" stroke-width="2" fill="none" />
<polyline points="131.5,180.0,123.5,187.5,115.5,195.5,107.0,203.0,99.0,210.0,90.5,217.0,82.5,224.0,74.5,231.5,66.5,238.5,59.0,245.5,51.5,253.0,43.5,260.0,34.5,268.0,26.0,276.0,17.5,284.5,9.0,293.0,1.5,300.5" stroke="black" stroke-width="2" fill="none" />
<polyline points="4.5,300.5,12.5,300.5,20.0,300.0,28.0,299.5,36.0,299.0,43.5,299.0,51.5,299.0,60.0,298.5,68.0,298.0,75.5,298.0,83.5,298.0,91.5,297.0,99.0,296.0,107.0,295.5,115.0,295.0,123.0,294.5,131.5,293.5,140.0,293.0,148.0,293.0,156.0,293.0,164.0,293.0,172.5,292.5,180.5,291.5,188.5,290.5,196.5,290.0,204.5,289.5,212.5,288.5,220.0,288.0,228.0,287.5,236.0,287.0" stroke="black" stroke-width="2" fill="none" />
<polyline points="253.0,278.0,253.0,297.5,260.5,317.0" stroke="black" stroke-width="2" fill="none" />
<polyline points="252.0,301.0,244.5,301.5,236.0,301.5,228.0,302.5,219.5,304.0,211.5,305.0,203.5,306.0,195.5,306.5,187.5,307.0,179.0,308.0,170.5,308.0,162.5,309.0,155.0,309.5,147.5,309.5,140.0,309.0,132.0,309.5,123.5,309.5,117.0,309.5,109.5,309.5,102.0,309.5,94.0,309.5,85.5,310.0,78.0,311.0,69.5,312.0,61.0,313.0,52.5,313.5,44.5,314.0,36.5,314.5,28.5,315.5,20.5,316.0,13.0,316.5,5.0,317.0" stroke="black" stroke-width="2" fill="none" />
<polyline points="5.0,317.5,12.5,310.5,19.5,303.0,27.0,295.5,34.5,288.0,42.0,280.0,49.5,272.5,57.5,265.0,65.5,257.5,74.0,249.5,82.5,242.0,91.5,234.0,99.5,226.5,108.0,219.5,116.5,212.0,124.5,204.5,133.0,197.0" stroke="black" stroke-width="2" fill="none" />
<polyline points="133.0,189.5,125.0,196.5,117.0,204.0,108.5,211.0,100.5,218.5,92.0,225.5,83.5,233.0,74.5,239.5,66.0,246.5,58.5,254.5,50.5,262.0,43.0,269.5,34.5,277.0,27.0,284.5,19.5,292.0,11.5,299.5,4.0,307.0" stroke="black" stroke-width="2" fill="none" />
<polyline points="4.5,309.5,12.5,309.0,20.5,308.0,28.5,307.5,36.5,306.5,44.5,306.5,52.0,306.0,59.5,306.0,67.5,305.5,75.5,305.5,83.0,305.5,91.5,305.0,99.5,304.0,108.0,303.0,116.5,302.5,124.5,302.5,132.5,301.5,140.0,301.0,147.5,301.0,155.0,300.5,163.0,300.5,171.0,300.0,179.5,300.0,187.0,299.5,194.5,298.5,203.0,298.5" stroke="black" stroke-width="2" fill="none" />
<polyline points="187.5,284.5,179.5,292.0" stroke="black" stroke-width="2" fill="none" />
<polyline points="171.0,290.0,178.5,282.0,186.5,274.0" stroke="black" stroke-width="2" fill="none" />
<polyline points="185.5,267.5,178.0,275.5" stroke="black" stroke-width="2" fill="none" />
<polyline points="185.0,266.5,210.5,271.5,208.0,299.5,211.0,319.5" stroke="black" stroke-width="2" fill="none" />
<polyline points="188.0,281.5,208.0,299.5,230.5,299.5,240.5,274.0,260.5,271.5,275.0,271.0,282.0,291.0,292.0,263.5,311.5,268.5" stroke="black" stroke-width="2" fill="none" />
<polyline points="252.5,268.5,244.5,269.0,236.5,270.0,228.0,270.5,220.0,271.0,212.5,271.0,205.0,271.5,196.5,272.5,188.5,273.5,180.5,274.5,172.5,275.5,164.0,276.5,156.0,276.5,148.0,277.0,140.0,277.5,132.0,278.5,124.5,279.0,116.0,279.5,108.0,280.0,99.5,280.5,91.5,281.5,84.0,282.0,76.0,282.5,68.0,283.0,60.0,283.5,51.5,283.5,44.0,283.5,36.0,284.0,28.0,284.0,20.0,284.0,13.0,284.5,5.0,285.5" stroke="black" stroke-width="2" fill="none" />
<polyline points="3.0,291.0,11.5,284.0" stroke="black" stroke-width="2" fill="none" />
<polyline points="3.0,282.0,11.0,274.5" stroke="black" stroke-width="2" fill="none" />
<polyline points="10.5,267.5,18.5,260.0,27.0,252.0,35.0,244.5" stroke="black" stroke-width="2" fill="none" />
<polyline points="35.5,236.5,27.0,244.0,18.5,251.5,10.5,258.5,2.5,265.0" stroke="black" stroke-width="2" fill="none" />
<polyline points="4.0,268.0,12.0,268.0,20.0,268.0,28.0,267.5,36.0,267.0,44.5,266.0,52.5,266.0,60.5,266.5,68.5,266.5,76.0,266.0,84.0,265.5,92.0,265.5,100.5,265.5,108.0,265.0,116.0,264.5,124.5,264.0,132.5,263.5,140.0,262.5,148.0,262.0,155.5,261.5,163.5,261.0,171.5,260.5,180.0,260.0,188.0,259.5,196.0,259.0,204.0,258.5,211.5,257.5,219.0,256.5,227.0,255.5" stroke="black" stroke-width="2" fill="none" />
<polyline points="219.5,258.0,211.5,265.5" stroke="black" stroke-width="2" fill="none" />
<polyline points="217.5,267.5,237.5,260.0,257.5,259.5,277.5,262.0" stroke="black" stroke-width="2" fill="none" />
<polyline points="258.5,228.5,250.0,229.0,241.5,229.5" stroke="black" stroke-width="2" fill="none" />
<polyline points="242.5,227.0,250.5,220.0" stroke="black" stroke-width="2" fill="none" />
<polyline points="245.0,220.5,237.0,228.0" stroke="black" stroke-width="2" fill="none" />
<polyline points="235.5,223.5,243.5,223.5,251.5,224.0" stroke="black" stroke-width="2" fill="none" />
<polyline points="262.0,202.0,270.0,194.0" stroke="black" stroke-width="2" fill="none" />
<polyline points="259.5,188.0,251.5,195.5,244.0,203.0" stroke="black" stroke-width="2" fill="none" />
<polyline points="242.5,201.5,233.5,202.0" stroke="black" stroke-width="2" fill="none" />
<polyline points="233.5,189.5,236.0,209.5,236.0,229.0,243.5,234.0,230.5,253.5,193.0,263.5,185.5,271.0,193.0,291.5,202.5,291.5,197.5,312.0,207.5,332.0" stroke="black" stroke-width="2" fill="none" />
<polyline points="161.5,320.5,153.5,328.5" stroke="black" stroke-width="2" fill="none" />
<polyline points="155.0,305.5,163.5,298.5" stroke="black" stroke-width="2" fill="none" />
<polyline points="156.5,298.0,165.0,290.5" stroke="black" stroke-width="2" fill="none" />
<polyline points="163.0,275.5,155.5,283.0,147.5,291.0,140.0,298.0" stroke="black" stroke-width="2" fill="none" />
<polyline points="147.0,296.5,155.0,288.5,163.0,280.5,171.0,273.0,179.0,265.0,187.0,258.0" stroke="black" stroke-width="2" fill="none" />
<polyline points="190.5,256.0,210.5,248.5,230.5,244.0" stroke="black" stroke-width="2" fill="none" />
<polyline points="219.0,251.5,211.5,259.0" stroke="black" stroke-width="2" fill="none" />
<polyline points="210.5,250.5,203.0,258.0,195.0,265.5" stroke="black" stroke-width="2" fill="none" />
<polyline points="221.0,266.0,226.0,286.0,226.0,318.5,233.0,328.5,233.0,318.5" stroke="black" stroke-width="2" fill="none" />
<polyline points="236.0,263.0,227.5,263.0,220.0,263.5,212.0,263.5,204.0,264.0,196.5,265.5,188.5,266.5,180.5,267.5,172.0,268.5,163.5,269.0,155.5,269.5,147.5,269.5,139.5,270.0,132.0,270.5,124.0,271.0,116.0,271.5,108.0,271.5,100.5,272.0,92.5,272.5,84.5,273.0,76.5,273.5,68.5,274.0,60.5,274.5,52.0,275.0,43.5,275.0,36.0,275.5,28.0,275.5,20.0,276.0,12.0,277.0,4.0,278.0" stroke="black" stroke-width="2" fill="none" />
<polyline points="20.5,281.5,28.5,280.5" stroke="black" stroke-width="2" fill="none" />
<polyline points="22.5,273.0,40.0,275.5,57.5,278.5,62.5,298.5,62.5,318.5,67.5,291.0,102.5,311.0" stroke="black" stroke-width="2" fill="none" />
<polyline points="107.5,300.0,115.0,292.0,123.0,284.5" stroke="black" stroke-width="2" fill="none" />
<polyline points="121.0,274.5,128.5,279.5,131.0,299.5,141.0,324.0" stroke="black" stroke-width="2" fill="none" />
<polyline points="139.5,290.5,148.0,283.0,156.0,275.5" stroke="black" stroke-width="2" fill="none" />
<polyline points="155.0,277.0,165.0,241.5,182.5,214.0" stroke="black" stroke-width="2" fill="none" />
<polyline points="180.5,209.5,173.0,217.0" stroke="black" stroke-width="2" fill="none" />
<polyline points="179.0,218.5,171.0,225.5" stroke="black" stroke-width="2" fill="none" />
<polyline points="172.5,212.0,180.5,204.5" stroke="black" stroke-width="2" fill="none" />
<polyline points="186.0,200.0,178.5,200.0,171.0,200.0,163.0,200.5,155.5,201.5,147.5,202.5,139.5,203.5,131.5,204.0,123.5,205.0,116.0,205.5,108.0,205.0,100.5,205.5,93.0,206.5,85.5,207.5,77.0,208.0,69.0,208.5,61.0,209.0,53.0,210.5,45.0,211.5,36.5,212.0,28.0,212.5,19.5,213.0,11.0,213.0,3.0,214.0" stroke="black" stroke-width="2" fill="none" />
<polyline points="7.5,216.5,12.0,204.5,32.0,212.0,42.0,197.0,62.0,189.5,82.0,184.5" stroke="black" stroke-width="2" fill="none" />
<polyline points="100.0,178.5,108.0,178.5" stroke="black" stroke-width="2" fill="none" />
<polyline points="124.0,178.0,131.5,178.0" stroke="black" stroke-width="2" fill="none" />
<polyline points="143.0,177.0,158.5,175.0,153.0,195.0,130.5,187.5,135.5,195.0,148.0,207.5,155.5,185.0,165.0,180.0,184.5,172.5,194.5,150.0,214.5,149.5,234.5,155.0,244.5,165.0,264.5,147.5,264.5,137.5,284.5,147.5,299.5,165.0,319.5,177.0,339.5,174.5,359.5,171.5,362.0,154.0,397.0,154.0,402.0,167.0,399.5,189.5,415.0,202.0,382.5,217.0,397.0,232.0,384.5,252.0,372.0,271.5,349.5,293.5,349.5,314.0,324.5,329.0,344.5,334.0" stroke="black" stroke-width="2" fill="none" />
<polyline points="369.5,322.0,366.5,302.0" stroke="black" stroke-width="2" fill="none" />
<polyline points="332.0,162.5,323.5,163.0,315.5,163.5,307.5,164.0,300.0,164.5,292.5,165.5,284.5,165.5" stroke="black" stroke-width="2" fill="none" />
<polyline points="276.5,162.0,284.5,155.0,292.0,148.0" stroke="black" stroke-width="2" fill="none" />
<polyline points="299.5,141.0,307.5,141.0" stroke="black" stroke-width="2" fill="none" />
<polyline points="308.5,134.5,300.5,135.5" stroke="black" stroke-width="2" fill="none" />
<polyline points="291.5,132.5,283.0,133.0" stroke="black" stroke-width="2" fill="none" />
<polyline points="276.5,133.0,268.5,133.5" stroke="black" stroke-width="2" fill="none" />
<polyline points="274.0,132.0,269.5,139.5,259.5,159.5,272.0,167.0,275.0,187.5,290.0,207.5,300.0,232.5,322.5,257.0,332.5,262.0,333.0,274.5,328.0,294.5,340.5,299.5,335.5,315.0,358.0,310.0,365.0,300.0,382.5,297.5,385.0,290.0,405.0,290.0,415.0,280.0,430.0,305.0,452.0,312.5,430.0,322.5,430.0,327.5,425.0,337.5,446.5,335.0,466.5,335.0" stroke="black" stroke-width="2" fill="none" />
<polyline points="495.0,334.5,470.0,329.5,450.0,327.0,425.0,320.0,407.5,332.5,412.5,322.5,415.0,305.0,407.5,285.0,392.5,272.0,382.5,262.0,384.5,242.0,361.5,232.0,379.0,212.5,353.5,175.0,369.0,169.5,353.5,147.0,358.5,127.0,371.0,109.5,391.0,99.0,416.0,84.0,411.0,77.0,419.0,54.5,411.5,47.5,417.0,40.0,397.0,50.5" stroke="black" stroke-width="2" fill="none" />
<polyline points="389.5,22.5,369.5,24.5" stroke="black" stroke-width="2" fill="none" />
<polyline points="365.0,35.0,372.5,55.0,355.0,92.5,375.0,87.5,400.0,72.0,420.5,59.0,425.0,69.5,445.0,62.0,470.0,54.5,492.5,37.5" stroke="black" stroke-width="2" fill="none" />
<polyline points="463.5,47.0,453.5,49.5,435.5,82.0,415.5,104.5,398.0,114.5,378.0,141.5,360.0,162.0,374.0,161.5,386.5,144.0,396.0,131.5,406.0,126.5,424.0,121.5,429.0,129.0,449.5,127.0,452.5,147.0,453.0,139.5,473.5,124.5,463.5,132.0,458.5,144.5,443.5,155.0,438.0,170.0,458.0,160.0,478.0,152.5,498.0,145.0" stroke="black" stroke-width="2" fill="none" />
<polyline points="489.5,137.5,469.5,145.0,449.5,152.5,429.0,154.5,426.5,162.0,419.0,150.0,411.5,132.5,429.0,120.0,446.0,97.0,471.0,77.0,458.5,69.0,458.5,84.0" stroke="black" stroke-width="2" fill="none" />
<polyline points="408.5,90.0,388.5,108.0" stroke="black" stroke-width="2" fill="none" />
<polyline points="348.5,105.5,340.0,106.0,332.0,106.5,324.5,106.5,316.0,107.0,307.5,107.5,299.0,108.0,290.5,109.0,282.0,109.5,274.5,109.5" stroke="black" stroke-width="2" fill="none" />
<polyline points="284.5,113.0,292.5,106.0" stroke="black" stroke-width="2" fill="none" />
<polyline points="293.0,98.5,284.5,106.0" stroke="black" stroke-width="2" fill="none" />
<polyline points="284.5,98.5,277.0,106.0" stroke="black" stroke-width="2" fill="none" />
<polyline points="267.5,107.5,259.5,108.0,251.5,108.5,243.5,109.0,235.5,109.5,227.5,109.5" stroke="black" stroke-width="2" fill="none" />
<polyline points="227.0,100.5,234.5,100.0,242.0,100.5,250.5,100.5,259.5,99.5" stroke="black" stroke-width="2" fill="none" />
<polyline points="259.0,92.0,251.0,92.5" stroke="black" stroke-width="2" fill="none" />
<polyline points="245.5,83.5,253.5,76.0" stroke="black" stroke-width="2" fill="none" />
<polyline points="258.0,78.5,266.0,77.5,274.0,76.5,282.0,75.5,290.0,75.0,298.0,74.5,306.0,73.5,313.5,72.5,321.5,72.5,330.0,72.0,338.0,71.5" stroke="black" stroke-width="2" fill="none" />
<polyline points="348.0,88.5,340.0,89.5,332.5,90.0,325.0,90.5,317.0,90.5,309.0,90.5,301.0,90.5,293.0,91.0,285.0,91.0,277.0,91.0,269.0,91.5" stroke="black" stroke-width="2" fill="none" />
<polyline points="274.5,88.5,294.5,91.0,314.5,81.5,335.0,84.5,317.5,92.0,310.0,102.0,329.5,105.0" stroke="black" stroke-width="2" fill="none" />
<polyline points="315.5,107.5,307.5,115.5" stroke="black" stroke-width="2" fill="none" />
<polyline points="292.5,114.0,284.5,122.0" stroke="black" stroke-width="2" fill="none" />
<polyline points="268.5,125.0,276.5,124.5,284.0,124.5,291.5,123.5,299.0,122.5,306.0,121.5,314.5,121.0,322.5,120.5,330.5,120.5" stroke="black" stroke-width="2" fill="none" />
<polyline points="306.5,85.0,298.0,92.5" stroke="black" stroke-width="2" fill="none" />
<polyline points="292.5,91.5,300.5,84.5" stroke="black" stroke-width="2" fill="none" />
<polyline points="269.0,84.5,277.0,84.5,285.0,83.5,292.5,82.5,300.0,81.5,308.0,80.5,316.0,80.5,325.0,81.0,333.5,81.5,342.0,81.5,350.0,81.5" stroke="black" stroke-width="2" fill="none" />
<polyline points="337.0,107.0,329.5,108.0,321.0,109.0,313.5,110.0,306.0,110.5,298.0,111.0,290.5,111.5,282.5,112.0,274.5,113.0,266.5,113.0,258.5,113.5,250.5,114.0,242.5,114.5,234.5,115.0,226.5,115.5,218.5,115.5,211.0,116.0,204.0,117.0,196.5,117.5" stroke="black" stroke-width="2" fill="none" />
<polyline points="188.0,110.5,196.5,109.5,204.5,108.5,212.5,107.5" stroke="black" stroke-width="2" fill="none" />
<polyline points="219.5,101.0,211.0,102.0,202.5,102.0,194.5,103.0" stroke="black" stroke-width="2" fill="none" />
<polyline points="202.0,105.5,222.0,85.5" stroke="black" stroke-width="2" fill="none" />
<polyline points="235.0,87.0,243.0,86.0,251.0,85.0" stroke="black" stroke-width="2" fill="none" />
<polyline points="259.0,74.5,266.5,67.0" stroke="black" stroke-width="2" fill="none" />
<polyline points="266.5,59.5,258.5,67.0" stroke="black" stroke-width="2" fill="none" />
<polyline points="258.5,64.0,266.0,63.5,274.0,62.5,281.5,61.5" stroke="black" stroke-width="2" fill="none" />
<polyline points="243.5,60.0,235.5,67.0" stroke="black" stroke-width="2" fill="none" />
<polyline points="223.0,60.5,228.0,80.5,228.0,100.5,230.5,130.0,203.0,155.0,220.0,165.0,222.5,190.0,202.0,200.0,197.0,212.0,192.0,232.0,172.5,244.0,164.5,279.5,172.0,299.5,174.5,309.5,184.5,312.0,174.5,337.0,195.0,324.5" stroke="black" stroke-width="2" fill="none" />
<polyline points="216.0,321.0,211.0,300.5,206.0,281.0,196.5,273.0,181.5,255.5,167.0,265.5" stroke="black" stroke-width="2" fill="none" />
<polyline points="158.0,268.0,149.5,275.5,141.0,282.5" stroke="black" stroke-width="2" fill="none" />
<polyline points="123.5,274.0,116.0,274.5" stroke="black" stroke-width="2" fill="none" />
<polyline points="106.5,264.5,122.0,277.0,117.0,297.5,109.5,310.0,111.5,302.5,147.0,302.5,164.5,297.5,190.0,310.5" stroke="black" stroke-width="2" fill="none" />
<polyline points="108.5,292.0,100.0,300.0" stroke="black" stroke-width="2" fill="none" />
<polyline points="92.0,288.0,100.0,280.0,108.5,272.0,116.5,265.0,124.5,257.5,132.5,250.5,140.5,243.0,148.5,235.5" stroke="black" stroke-width="2" fill="none" />
<polyline points="130.0,217.0,122.0,217.5" stroke="black" stroke-width="2" fill="none" />
<polyline points="118.0,230.5,109.5,231.0" stroke="black" stroke-width="2" fill="none" />
<polyline points="115.5,225.5,107.5,226.5,100.0,227.0" stroke="black" stroke-width="2" fill="none" />
<polyline points="108.0,212.0,118.0,232.5" stroke="black" stroke-width="2" fill="none" />
<polyline points="107.5,249.5,99.0,250.0" stroke="black" stroke-width="2" fill="none" />
<polyline points="83.5,248.5,76.0,249.0" stroke="black" stroke-width="2" fill="none" />
<polyline points="74.0,233.0,82.0,232.0" stroke="black" stroke-width="2" fill="none" />
<polyline points="58.5,233.0,78.5,230.5,71.0,242.5,61.5,262.0,56.5,267.0,76.5,281.5,77.0,301.0,87.0,321.5,74.5,333.5,57.0,328.5,67.0,333.5" stroke="black" stroke-width="2" fill="none" />
<polyline points="58.5,272.0,50.5,273.0,42.0,273.5" stroke="black" stroke-width="2" fill="none" />
<polyline points="43.0,265.0,51.0,265.0,58.5,264.0" stroke="black" stroke-width="2" fill="none" />
<polyline points="51.5,256.5,43.5,257.0" stroke="black" stroke-width="2" fill="none" />
<polyline points="43.0,249.5,51.0,248.5,59.5,248.5" stroke="black" stroke-width="2" fill="none" />
<polyline points="44.0,243.5,35.5,251.0,27.0,258.0,19.5,265.5" stroke="black" stroke-width="2" fill="none" />
<polyline points="19.0,265.5,27.5,259.0,35.5,252.0,43.5,244.5,52.0,237.0,60.0,229.0,68.0,220.5,76.5,212.5,85.0,204.5,93.0,197.0,100.5,190.0,108.0,183.0,115.5,175.5,123.5,168.5,131.5,161.0,139.5,153.5,147.5,146.0,155.5,138.5,163.5,131.0,171.5,123.5" stroke="black" stroke-width="2" fill="none" />
<polyline points="171.0,129.0,163.0,137.0" stroke="black" stroke-width="2" fill="none" />
<polyline points="160.0,136.0,122.5,156.5,142.5,151.5,162.5,137.0,155.0,126.5,175.0,106.5,185.0,97.0" stroke="black" stroke-width="2" fill="none" />
<polyline points="179.5,101.0,171.5,108.5,163.5,116.0,155.5,123.0,147.5,130.0,139.5,137.0,131.0,144.5,122.0,152.0,113.5,159.0,105.5,167.0,97.5,174.0,89.5,181.5,81.5,189.0,73.5,196.0,66.5,203.5,59.0,211.0,51.5,218.5,44.0,226.0" stroke="black" stroke-width="2" fill="none" />
<polyline points="51.0,227.5,58.5,220.0,67.0,212.5,75.0,204.5,83.0,197.0,90.5,189.5,98.5,182.0,106.5,174.5,114.5,167.5,122.5,159.5,130.5,152.5,138.5,145.0,147.0,138.0,154.5,131.0,162.0,123.5,170.5,116.0" stroke="black" stroke-width="2" fill="none" />
<polyline points="173.0,113.5,165.0,114.0" stroke="black" stroke-width="2" fill="none" />
<polyline points="154.5,115.0,162.0,108.0,170.0,100.5" stroke="black" stroke-width="2" fill="none" />
<polyline points="172.5,92.5,180.0,92.5,187.5,91.5,195.5,91.5,203.0,91.0,211.0,91.5,219.0,91.0,226.5,90.5,234.0,90.5,242.0,89.5" stroke="black" stroke-width="2" fill="none" />
<polyline points="252.5,121.5,245.0,129.5" stroke="black" stroke-width="2" fill="none" />
<polyline points="243.0,125.0,235.0,132.5" stroke="black" stroke-width="2" fill="none" />
<polyline points="233.5,132.5,241.5,132.0,249.5,132.0" stroke="black" stroke-width="2" fill="none" />
<polyline points="253.5,131.5,245.5,139.0" stroke="black" stroke-width="2" fill="none" />
<polyline points="253.0,139.5,245.0,147.0" stroke="black" stroke-width="2" fill="none" />
<polyline points="242.0,147.0,250.0,146.5,258.5,146.5,267.0,146.0" stroke="black" stroke-width="2" fill="none" />
<polyline points="274.5,150.5,282.5,150.0,290.5,148.5,298.5,148.0,307.0,148.0" stroke="black" stroke-width="2" fill="none" />
<polyline points="306.0,154.5,297.5,154.5,289.5,155.0,282.0,155.5,274.0,156.0,266.5,157.0,259.0,158.0,251.0,159.0,243.0,160.0,235.0,160.0,227.5,160.5,220.0,161.0,212.0,160.5,204.0,161.0,195.5,161.0,188.0,161.5,180.0,161.5,172.5,162.0,164.5,163.0,156.0,163.5,147.5,164.0,139.0,165.0,130.5,166.0,122.5,166.5,114.5,167.0,106.5,167.0,98.5,167.0,91.0,168.0,83.0,168.0,75.5,168.5,67.5,169.5,59.5,170.5,52.0,171.0,44.0,172.0,36.5,172.5,29.0,173.0,21.0,173.0,13.5,172.5,5.5,173.0" stroke="black" stroke-width="2" fill="none" />
<polyline points="3.0,165.5,23.0,170.5,15.5,183.5,15.0,183.5,30.0,191.5,50.0,186.5,55.0,181.5,75.0,179.0,80.0,166.5,100.5,161.0,110.5,174.0,122.5,183.5,130.0,163.5,152.0,156.0,172.0,126.5,192.5,111.5,196.5,94.0,208.5,111.5,215.5,126.5,230.5,136.5" stroke="black" stroke-width="2" fill="none" />
<polyline points="234.0,140.5,242.5,140.5,250.5,140.0" stroke="black" stroke-width="2" fill="none" />
<polyline points="260.0,140.0,267.5,139.5,275.5,139.5" stroke="black" stroke-width="2" fill="none" />
<polyline points="267.5,156.5,275.0,156.0,283.0,156.0,291.5,156.0,300.0,155.5,308.0,155.0,315.5,154.5,323.5,153.5" stroke="black" stroke-width="2" fill="none" />
<polyline points="318.0,159.5,308.0,159.5" stroke="black" stroke-width="2" fill="none" />
<polyline points="276.5,164.5,268.0,165.5,260.0,166.0" stroke="black" stroke-width="2" fill="none" />
<polyline points="258.5,155.5,250.0,156.0,241.5,156.5" stroke="black" stroke-width="2" fill="none" />
<polyline points="241.5,164.5,233.5,164.5" stroke="black" stroke-width="2" fill="none" />
<polyline points="217.5,155.0,209.5,162.5" stroke="black" stroke-width="2" fill="none" />
<polyline points="211.0,166.5,219.5,165.5,228.0,164.5" stroke="black" stroke-width="2" fill="none" />
<polyline points="203.5,148.5,195.5,156.0" stroke="black" stroke-width="2" fill="none" />
<polyline points="195.0,161.5,187.5,161.5,180.0,162.5,171.5,163.0,164.0,163.5,156.0,164.0,148.0,164.5" stroke="black" stroke-width="2" fill="none" />
<polyline points="156.5,171.0,148.5,178.5" stroke="black" stroke-width="2" fill="none" />
<polyline points="164.0,172.0,172.5,165.0,181.0,157.5" stroke="black" stroke-width="2" fill="none" />
<polyline points="188.0,160.0,208.0,165.0,213.0,177.5,198.0,197.5,190.5,219.5,210.0,214.5,230.0,214.0,250.0,213.5,270.0,213.5,282.5,226.0,294.5,228.5,309.5,228.5,319.5,244.0,339.5,252.0,359.5,270.0,372.5,252.5,387.5,247.5,408.0,257.5,428.0,235.0,455.0,247.0,462.5,259.5,482.5,247.5,502.5,229.5" stroke="black" stroke-width="2" fill="none" />
<polyline points="500.0,224.5,503.0,204.5,510.5,184.0" stroke="black" stroke-width="2" fill="none" />
<polyline points="495.0,169.0,487.5,189.0,490.0,209.0,467.5,224.0,452.5,237.0,457.0,257.0,462.0,262.5,472.5,285.0,492.5,292.5,507.0,280.0" stroke="black" stroke-width="2" fill="none" />
<polyline points="506.0,337.5,493.5,325.0,498.0,307.5,493.0,305.0,488.0,285.0,488.5,265.0,501.0,245.0,506.5,234.5,502.0,252.0,482.5,255.0,470.0,280.0,470.0,275.0,450.0,282.5,439.5,287.5,429.5,267.0,419.5,286.5,409.5,291.0,399.5,316.0,379.5,301.5,372.5,321.5,353.0,326.0,333.0,328.5,325.5,311.5,305.5,309.0,300.0,326.5,280.0,327.0,274.5,324.5,272.5,317.0,267.5,297.0,265.0,277.0,277.0,267.0,292.0,247.0,277.0,244.5,279.5,220.0,295.0,225.0,305.0,205.0,310.0,189.5,305.0,167.0,302.5,160.0,305.0,140.0,307.5,129.5,327.5,122.0,302.5,112.0,304.5,102.0,275.0,91.5,272.5,71.5,285.0,61.5,272.5,39.5,257.5,37.5,245.0,18.0,235.0,15.5,214.5,23.0" stroke="black" stroke-width="2" fill="none" />
<polyline points="227.0,36.5,235.5,36.5" stroke="black" stroke-width="2" fill="none" />
<polyline points="237.5,40.5,257.5,53.0,265.5,75.0,260.5,95.0,275.0,105.0,292.5,102.5,310.0,97.0,330.0,94.5,332.5,124.5,342.5,97.0,372.5,110.0,382.5,122.5,402.0,113.0,422.0,115.5,429.5,97.5,429.5,102.5,444.5,112.5,455.0,100.0,465.0,112.0,475.0,104.5,477.5,84.0,497.5,74.0,507.5,101.5" stroke="black" stroke-width="2" fill="none" />
<polyline points="485.0,145.0,470.0,167.0,450.0,179.5,462.5,191.5,445.0,207.0,427.0,209.5,425.0,220.0,415.0,240.0,405.5,242.5,400.5,262.5" stroke="black" stroke-width="2" fill="none" />
<polyline points="323.0,233.0,315.0,234.0,307.5,235.5,299.5,236.5,291.5,237.5,283.0,237.5,275.0,238.5,267.0,238.5,259.0,238.5,250.5,238.5,242.5,239.0,234.0,239.5,226.0,240.5,218.5,240.5,211.0,241.0,203.0,241.5,195.0,241.0,187.5,241.5,179.5,241.5,172.0,242.5,164.5,242.5,156.0,243.5,147.5,244.0,139.0,244.5,132.0,245.5,124.0,246.0,116.0,246.5,108.0,247.5,100.0,248.5,93.0,249.5,85.0,250.0,77.0,251.0,69.0,251.0,60.5,251.5,52.5,252.0,44.0,252.5,36.0,253.0,28.0,253.0,20.0,253.0,12.0,253.5,4.0,253.5" stroke="black" stroke-width="2" fill="none" />
<polyline points="4.0,250.0,12.0,249.5" stroke="black" stroke-width="2" fill="none" />
<polyline points="15.5,252.0,35.5,237.0,43.0,225.0,60.5,207.5,90.0,210.0,110.0,212.5" stroke="black" stroke-width="2" fill="none" />
<polyline points="131.0,161.0,139.0,160.0" stroke="black" stroke-width="2" fill="none" />
<polyline points="165.5,157.0,173.0,156.5,181.0,156.0,188.5,155.0,196.5,154.0,204.5,153.0,211.5,153.0,219.0,152.5,227.0,152.0,234.5,150.5" stroke="black" stroke-width="2" fill="none" />
<polyline points="234.5,125.5,242.5,125.5,250.5,124.5,258.5,123.5" stroke="black" stroke-width="2" fill="none" />
<polyline points="267.5,119.5,290.0,140.0,300.0,142.5,312.5,152.5,317.5,173.0,345.0,185.5,350.0,195.5,370.5,185.5,390.5,175.5,403.0,163.0,423.0,173.0,443.0,175.5,462.5,165.0,482.5,160.0,495.0,169.5,500.0,174.5" stroke="black" stroke-width="2" fill="none" />
<polyline points="482.5,169.5,462.5,177.0,475.0,159.5" stroke="black" stroke-width="2" fill="none" />
<polyline points="434.5,49.5,432.0,57.0,419.0,37.5,398.5,37.0,379.0,51.5,359.0,46.5" stroke="black" stroke-width="2" fill="none" />
<polyline points="316.5,52.0,316.5,19.5,301.5,4.5,282.5,4.5,270.0,4.5,250.0,7.0,227.0,9.5,207.0,9.0,187.5,4.5,153.0,4.5,132.5,4.5,112.5,9.5,100.0,4.5,80.0,4.5,60.0,4.5" stroke="black" stroke-width="2" fill="none" />
<polyline points="64.0,7.5,84.0,12.5,124.0,25.0,127.0,45.0,149.5,47.0,167.0,64.5,180.0,84.5,195.5,87.5,205.5,95.0,200.5,97.5,180.5,103.0,178.0,122.5,173.0,132.0,158.0,152.0,125.5,182.0,128.0,202.0,130.0,222.0,120.0,227.0,127.0,224.5,147.0,222.0,151.5,217.0,174.5,192.0,184.5,205.0,204.5,187.5,231.5,185.0,239.5,187.5,259.5,190.0,280.0,198.0,302.5,188.0,319.5,195.5,337.0,222.5,354.5,207.5,355.0,217.0,375.0,209.5,395.0,204.5,397.0,214.0,417.5,219.0,445.0,196.5,463.0,198.5,483.0,193.5,498.0,193.5,503.0,198.5" stroke="black" stroke-width="2" fill="none" />
<polyline points="298.0,170.0,290.0,171.0,282.5,171.5,275.5,172.0,267.5,172.5,259.5,172.5,252.0,173.0,243.5,173.5,235.5,174.0,226.5,175.0,217.5,176.5,209.0,178.0,201.0,178.0,194.0,178.5,186.5,179.5,178.5,180.5,171.0,181.0,163.0,181.5,154.5,181.5,146.0,181.5,138.0,181.5,129.5,182.0,121.5,183.0,114.5,183.5,107.0,184.0,99.0,184.0,91.0,184.5,83.0,185.5,76.0,186.0,68.5,186.5,60.5,187.0,52.5,187.5,44.0,188.0,35.5,188.0,27.0,188.5,19.0,189.5,10.5,190.0" stroke="black" stroke-width="2" fill="none" />
<polyline points="13.0,181.5,21.0,181.5" stroke="black" stroke-width="2" fill="none" />
<polyline points="21.0,200.0,28.5,192.0,37.0,185.0,44.5,177.5,52.5,170.5,60.0,163.0,67.5,156.0" stroke="black" stroke-width="2" fill="none" />
<polyline points="59.0,156.0,51.0,163.5,43.5,171.0" stroke="black" stroke-width="2" fill="none" />
<polyline points="44.5,196.5,52.5,189.5,60.0,182.0,67.5,174.5,75.5,167.0,83.5,159.5,91.5,152.0,100.0,144.5,108.0,136.5,116.0,128.0,123.5,120.5,131.5,113.0,139.0,105.5,146.5,98.0,155.0,90.5,162.5,83.0" stroke="black" stroke-width="2" fill="none" />
<polyline points="162.0,75.5,170.0,68.0" stroke="black" stroke-width="2" fill="none" />
<polyline points="170.0,64.0,190.0,66.5" stroke="black" stroke-width="2" fill="none" />
<polyline points="195.0,70.5,203.0,70.0" stroke="black" stroke-width="2" fill="none" />
<polyline points="203.0,61.0,211.0,60.5,218.5,59.5,226.5,59.0,234.0,59.0,242.0,58.5,249.5,58.5" stroke="black" stroke-width="2" fill="none" />
<polyline points="251.5,41.5,243.5,42.0,235.5,42.5,227.5,43.5,219.5,43.5,212.0,44.5" stroke="black" stroke-width="2" fill="none" />
<polyline points="221.0,50.0,213.0,58.0" stroke="black" stroke-width="2" fill="none" />
<polyline points="220.0,58.0,212.0,65.5" stroke="black" stroke-width="2" fill="none" />
<polyline points="212.5,70.5,221.0,70.0,228.5,69.0,236.5,68.0,245.0,67.0,253.0,66.0,261.0,65.0,269.5,64.5,277.5,64.5,285.0,64.0" stroke="black" stroke-width="2" fill="none" />
<polyline points="249.5,74.5,241.0,76.0,233.0,76.0,226.0,76.5,218.5,77.5,210.5,78.5,203.0,79.0" stroke="black" stroke-width="2" fill="none" />
<polyline points="196.5,83.0,188.5,90.0" stroke="black" stroke-width="2" fill="none" />
<polyline points="169.5,86.0,162.0,93.0" stroke="black" stroke-width="2" fill="none" />
<polyline points="155.5,90.5,147.0,91.5,139.0,92.0,131.0,92.5,123.0,93.0,115.5,94.0,107.5,95.0" stroke="black" stroke-width="2" fill="none" />
<polyline points="113.5,87.0,121.5,86.5,130.0,85.5,138.5,84.0" stroke="black" stroke-width="2" fill="none" />
<polyline points="139.0,82.0,147.5,74.5" stroke="black" stroke-width="2" fill="none" />
<polyline points="147.0,82.5,155.0,82.0,162.5,82.0,170.0,82.0,178.0,81.5,185.5,81.0,193.5,80.5,201.5,81.0,209.5,81.0,218.0,80.5,226.0,79.5" stroke="black" stroke-width="2" fill="none" />
<polyline points="188.0,73.0,179.5,73.0,171.5,73.5,164.0,74.0,156.5,75.0,148.5,75.0,140.0,76.0,132.0,76.5,124.0,77.0,116.0,77.5" stroke="black" stroke-width="2" fill="none" />
<polyline points="116.0,89.5,123.5,81.5,131.5,74.0" stroke="black" stroke-width="2" fill="none" />
<polyline points="133.0,70.5,140.5,70.0,148.5,69.0,156.0,68.5,164.0,68.0,171.5,67.5,179.5,67.0" stroke="black" stroke-width="2" fill="none" />
<polyline points="179.5,55.0,187.5,54.5,196.0,54.0,204.0,53.5,212.0,53.0,220.0,52.5,227.5,51.5,235.0,50.5,243.0,49.5,250.5,49.0,258.5,48.5" stroke="black" stroke-width="2" fill="none" />
<polyline points="243.0,40.5,260.5,60.5,260.0,78.0,267.5,95.0,267.0,114.5,246.5,117.0,246.5,137.0,239.0,139.0,239.0,159.0,226.5,166.5,249.5,159.5,267.0,187.0,292.0,189.5,272.0,217.0,251.5,236.5,252.0,266.5,232.0,286.5,245.0,287.0,230.0,299.5,235.0,319.0,245.0,314.0,250.5,326.5,268.0,334.5,238.5,337.0" stroke="black" stroke-width="2" fill="none" />
<polyline points="233.5,247.0,226.0,247.5,218.5,248.0,210.5,249.0,202.0,249.5,195.0,250.5,188.0,251.0,180.5,251.5,172.0,252.0,163.5,252.0,156.0,252.5,148.0,253.5,140.5,254.0,132.5,254.0,124.0,254.5,116.5,255.0,108.5,255.5,100.5,256.0,93.0,256.0,85.0,256.5,77.0,257.0,68.5,257.5,60.0,258.0,52.0,259.0,44.0,259.5,36.0,260.0,27.5,260.0,19.5,260.5,11.0,260.5,3.0,261.0" stroke="black" stroke-width="2" fill="none" />
<polyline points="2.5,259.5,10.0,251.5,17.0,244.5,25.0,237.0" stroke="black" stroke-width="2" fill="none" />
<polyline points="11.5,234.5,19.5,228.0,27.0,220.5" stroke="black" stroke-width="2" fill="none" />
<polyline points="28.5,202.5,20.5,209.5,12.0,217.5,4.0,225.0" stroke="black" stroke-width="2" fill="none" />
<polyline points="4.0,222.0,12.0,222.0,20.0,221.5,28.0,220.5,36.5,219.5,44.5,218.5,52.0,218.0,60.0,218.0,68.0,217.5,76.0,217.5,84.5,217.0,92.0,216.0,100.0,215.0,108.0,214.0,116.0,213.0,124.5,212.0,132.5,212.0,140.5,212.0,148.5,211.5,156.5,211.0,164.0,210.5,172.0,210.0,180.0,209.5,187.5,209.0,196.0,208.5,203.5,207.5,211.0,207.5,218.5,206.5,226.0,206.0,233.5,206.0,241.5,205.5,249.5,205.5,257.5,205.5,266.0,205.0,274.0,205.0" stroke="black" stroke-width="2" fill="none" />
<polyline points="236.0,221.5,228.0,222.0,220.5,222.5,212.5,224.0,204.5,225.0,197.0,225.5,189.0,226.5,181.0,227.0,173.0,227.5,165.0,228.0,157.5,228.5,149.5,228.5,141.5,229.0,133.5,229.5,125.0,230.0,116.5,230.0,107.5,230.5,99.0,231.0,90.0,231.0,82.0,232.0,74.0,232.0,66.0,232.5,59.0,233.5,52.0,234.0,44.5,234.5,36.5,235.0,29.0,235.5,21.5,236.0,13.5,237.0,5.5,237.5" stroke="black" stroke-width="2" fill="none" />
<polyline points="2.5,233.0,9.5,225.5,17.5,218.0,25.0,210.5,33.0,203.0" stroke="black" stroke-width="2" fill="none" />
<polyline points="51.0,213.0,58.5,205.0,66.5,197.0,74.5,189.5,82.5,182.5,91.0,175.5,99.0,168.5,107.5,161.5,115.0,154.0,123.0,146.5,130.5,139.0,139.0,131.0,147.0,123.5" stroke="black" stroke-width="2" fill="none" />
<polyline points="141.0,121.5,133.0,128.5,125.0,136.5,116.5,144.5,108.0,152.5,99.5,160.0,91.0,167.5,83.0,174.5,75.0,182.0,66.5,189.0,59.0,196.0,51.0,204.0" stroke="black" stroke-width="2" fill="none" />
<polyline points="43.5,205.5,51.5,198.0,59.5,190.5,67.5,183.0,75.5,175.0,83.5,167.0,91.5,159.0,99.5,151.0,108.0,144.0,116.0,137.0,124.0,129.5,132.5,122.0,140.5,114.5" stroke="black" stroke-width="2" fill="none" />
<polyline points="148.0,115.0,156.0,108.0" stroke="black" stroke-width="2" fill="none" />
<polyline points="149.0,101.5,169.5,99.0" stroke="black" stroke-width="2" fill="none" />
<polyline points="179.5,105.0,172.0,105.5,164.0,106.5,156.5,107.0,148.5,107.0,140.0,107.5,132.5,108.0,124.5,108.5,116.5,109.0,109.0,109.0,101.0,109.5" stroke="black" stroke-width="2" fill="none" />
<polyline points="101.0,103.0,109.0,102.5,116.0,101.5,124.0,100.5,132.0,99.5,140.0,99.0,148.0,98.5,155.0,97.5,163.5,97.0,172.0,96.5,180.5,95.5,188.0,95.5" stroke="black" stroke-width="2" fill="none" />
<polyline points="188.5,126.5,196.5,126.0,204.0,125.5,211.5,125.0,219.5,123.5" stroke="black" stroke-width="2" fill="none" />
<polyline points="209.5,131.0,202.0,138.5" stroke="black" stroke-width="2" fill="none" />
<polyline points="212.5,141.5,192.5,144.0" stroke="black" stroke-width="2" fill="none" />
<polyline points="188.0,135.0,196.5,134.5,204.5,133.5,212.5,132.5,220.5,132.0" stroke="black" stroke-width="2" fill="none" />
<polyline points="228.0,137.5,220.0,138.0,212.5,139.5,204.5,140.5,196.5,141.5,188.0,142.5,179.5,143.0" stroke="black" stroke-width="2" fill="none" />
<polyline points="171.5,150.0,180.0,150.0,188.5,149.5,196.0,149.0,203.0,148.5,210.0,147.5,218.5,147.0,226.5,146.0,234.0,145.5" stroke="black" stroke-width="2" fill="none" />
<polyline points="181.5,118.5,173.5,119.0,165.0,119.0,156.5,119.0,148.5,119.5,140.0,120.5,132.0,121.0,124.0,121.5,115.5,121.5,107.5,122.0,99.0,122.5,91.0,123.5,83.0,124.0,75.0,124.5,67.0,125.0" stroke="black" stroke-width="2" fill="none" />
<polyline points="68.5,118.0,76.0,117.0,84.0,116.0,92.0,115.0,100.0,114.0,108.5,113.0,116.5,113.0,124.5,113.0,132.5,112.5,140.5,112.0,148.0,111.5,156.0,111.0,164.0,110.5,171.5,110.0,180.0,109.5" stroke="black" stroke-width="2" fill="none" />
<polyline points="179.0,125.0,171.5,126.0,163.5,126.5,156.0,127.0,148.0,127.5,140.5,128.0,132.5,129.0,125.0,129.5,117.0,130.0,108.5,130.0,100.5,130.5,92.5,131.5,85.0,132.0,76.5,132.5,68.5,133.0,60.5,133.5,52.0,133.5,44.0,134.0" stroke="black" stroke-width="2" fill="none" />
<polyline points="35.0,132.0,43.5,124.5" stroke="black" stroke-width="2" fill="none" />
<polyline points="33.0,123.0,25.5,131.0" stroke="black" stroke-width="2" fill="none" />
<polyline points="29.0,118.0,37.0,117.0,44.5,116.5,52.0,116.0" stroke="black" stroke-width="2" fill="none" />
<polyline points="60.5,122.5,52.0,122.5,43.5,123.0,35.5,123.5,27.0,124.5,19.0,125.0,11.0,125.5,3.0,126.0" stroke="black" stroke-width="2" fill="none" />
<polyline points="2.0,134.0,10.0,133.5,18.0,133.0,26.5,132.5,35.0,131.5" stroke="black" stroke-width="2" fill="none" />
<polyline points="50.5,154.5,59.0,147.0" stroke="black" stroke-width="2" fill="none" />
<polyline points="77.0,145.5,84.0,137.5,92.0,130.5,100.0,123.0,108.0,116.0,116.5,108.5,125.0,100.5,132.5,92.5" stroke="black" stroke-width="2" fill="none" />
<polyline points="132.5,101.0,124.5,109.0,117.0,117.0,109.0,124.5,101.0,132.0,93.0,139.0,85.5,146.5,77.5,153.5,69.5,160.5,62.0,168.0,54.0,175.0,45.5,182.5" stroke="black" stroke-width="2" fill="none" />
<polyline points="42.5,190.0,50.0,182.5,58.5,175.0,66.5,167.5,74.5,160.0,83.0,152.0,91.0,144.5,99.5,136.5,107.5,129.0,116.0,121.0,124.5,113.5,132.5,106.5,140.5,99.5" stroke="black" stroke-width="2" fill="none" />
<polyline points="147.0,91.5,155.0,84.0" stroke="black" stroke-width="2" fill="none" />
<polyline points="155.0,92.5,135.0,112.5,144.5,132.5,152.5,135.0,127.5,149.5,117.5,162.5,100.0,169.5,120.0,169.5,139.5,172.0,159.0,162.0,179.0,139.0,199.0,132.0,211.5,119.5,232.0,130.0" stroke="black" stroke-width="2" fill="none" />
<polyline points="165.0,140.5,157.0,141.0,148.5,141.0,140.5,141.5,132.5,142.5,125.0,143.0,116.5,143.5,108.5,144.0,100.5,144.5,92.0,144.5,84.0,145.0,76.0,145.5,68.0,146.0,60.0,146.0,53.0,146.5,45.0,147.0,37.5,147.0,29.5,148.0,22.0,148.5,14.0,149.0,6.0,149.5" stroke="black" stroke-width="2" fill="none" />
<polyline points="4.5,142.0,9.5,124.5,29.5,122.0,49.5,112.0,69.0,104.0,77.0,99.0,59.5,119.0,67.5,137.0,77.5,124.5,80.0,126.5" stroke="black" stroke-width="2" fill="none" />
<polyline points="81.5,125.0,74.5,132.0" stroke="black" stroke-width="2" fill="none" />
<polyline points="75.0,138.0,67.5,145.0" stroke="black" stroke-width="2" fill="none" />
<polyline points="84.5,130.0,93.0,122.5" stroke="black" stroke-width="2" fill="none" />
<polyline points="107.0,105.5,115.0,97.5,122.5,89.0,130.0,80.5,138.0,73.0" stroke="black" stroke-width="2" fill="none" />
<polyline points="141.5,81.5,133.5,81.5" stroke="black" stroke-width="2" fill="none" />
<polyline points="143.0,83.0,140.5,77.5,130.0,97.5,102.5,110.0,90.0,135.0,109.5,130.0" stroke="black" stroke-width="2" fill="none" />
<polyline points="123.0,131.0,131.0,130.5" stroke="black" stroke-width="2" fill="none" />
<polyline points="141.0,128.5,148.5,127.5" stroke="black" stroke-width="2" fill="none" />
<polyline points="137.5,121.5,129.0,122.0,121.0,122.5" stroke="black" stroke-width="2" fill="none" />
<polyline points="115.0,113.5,123.0,113.0,131.0,113.0" stroke="black" stroke-width="2" fill="none" />
<polyline points="131.5,105.0,123.5,105.0,115.0,105.5" stroke="black" stroke-width="2" fill="none" />
<polyline points="114.5,80.0,95.0,72.5" stroke="black" stroke-width="2" fill="none" />
<polyline points="69.5,114.5,89.0,114.5,109.0,97.5,136.5,97.5,146.0,100.0,166.0,92.0" stroke="black" stroke-width="2" fill="none" />
<polyline points="164.5,60.5,172.5,60.0" stroke="black" stroke-width="2" fill="none" />
<polyline points="160.0,44.0,180.0,51.5,200.5,49.0,215.5,64.5,222.0,84.5,222.0,109.5,242.0,102.0,262.0,107.0,264.5,117.0,284.0,119.5,294.0,132.0,306.5,127.5,326.5,134.5,331.5,146.5,339.0,141.5,354.0,109.5,369.0,97.5,381.0,80.0,366.0,90.0,381.5,93.0,411.5,78.0,421.5,90.0,429.0,92.0" stroke="black" stroke-width="2" fill="none" />
<polyline points="487.0,151.0,484.5,164.0,469.5,179.0,450.0,179.0,430.0,178.5,410.0,181.0,390.5,181.0,380.5,196.5,360.5,201.5,335.5,189.0,348.0,169.0,325.5,149.5,328.0,135.0,340.5,115.0,337.5,95.0,329.5,75.0,342.0,42.0,312.0,35.0" stroke="black" stroke-width="2" fill="none" />
<polyline points="314.5,28.0,307.0,30.0,312.0,50.0,300.0,70.0,307.5,70.0,290.5,72.0,295.5,62.0" stroke="black" stroke-width="2" fill="none" />
<polyline points="312.0,10.0,294.5,30.0,302.0,17.5,322.0,12.5,345.0,10.5,365.0,5.5,370.0,15.0,390.0,7.0,410.5,7.0,432.5,14.5,452.5,7.0,477.5,14.5,498.0,4.5" stroke="black" stroke-width="2" fill="none" />
<polyline points="290.5,180.0,282.5,180.0,274.5,180.0,266.5,180.5,258.5,181.5,250.5,182.5,242.5,182.5,235.0,183.0,227.0,183.5,219.0,184.0,211.0,184.0,203.5,185.0,195.5,185.5,188.5,185.5,181.0,185.5,172.5,186.0,164.0,186.5,156.5,187.0,149.0,187.0,140.5,187.5,132.0,188.0,123.5,188.5,115.5,189.5,107.5,190.5,98.5,191.0,90.5,192.0,82.0,192.5,74.5,193.0,66.5,194.0,59.0,195.0,51.5,195.5,44.5,196.0,37.0,196.5,29.0,197.0,21.0,197.5,13.0,198.5,5.0,199.0" stroke="black" stroke-width="2" fill="none" />
<polyline points="3.0,199.0,23.0,186.0,42.5,168.5" stroke="black" stroke-width="2" fill="none" />
<polyline points="5.5,164.5,13.5,164.5,21.0,163.5,28.5,163.0,36.0,162.5,44.5,162.0,52.0,162.0,60.0,161.5,67.5,161.0,76.0,160.5,83.5,160.0,91.5,159.5,100.0,159.0,108.0,158.5,116.0,158.0,124.0,158.0,131.5,157.5,139.0,156.5" stroke="black" stroke-width="2" fill="none" />
<polyline points="115.5,146.0,107.0,146.5" stroke="black" stroke-width="2" fill="none" />
<polyline points="157.0,148.0,148.5,148.5,140.5,149.0,132.0,149.0,123.5,149.5,115.5,150.0,107.5,150.5,99.5,151.5,91.0,151.5,83.0,152.5,75.5,153.0,68.0,153.5,60.0,154.0,52.0,154.5,44.0,155.0,36.5,155.0,29.0,155.5,21.5,156.0,13.5,157.0,5.5,158.0" stroke="black" stroke-width="2" fill="none" />
<polyline points="1.5,159.5,21.5,154.5,41.5,144.5,34.5,164.0,54.5,146.5,74.5,158.5,95.0,156.0,115.5,143.5,135.5,134.0" stroke="black" stroke-width="2" fill="none" />
<polyline points="171.0,131.0,163.0,131.5,155.5,132.0,147.5,132.0,140.0,132.5,132.0,133.0,124.5,134.0,117.0,134.0,109.0,135.0,101.0,135.5,92.5,136.0,84.5,136.0,76.5,137.0,68.5,137.0,60.5,138.0,52.0,139.5,44.0,140.0,36.0,140.5,27.5,141.0,19.5,141.0,11.5,142.0,3.5,142.0" stroke="black" stroke-width="2" fill="none" />
<polyline points="2.0,142.0,22.0,137.0,41.5,139.5,41.5,159.5,26.5,175.0,9.0,195.0,4.0,220.0,7.0,247.0,14.5,267.0,12.5,286.5,20.0,309.5,20.0,299.0,32.5,276.5,52.5,279.0,72.0,267.0,92.5,279.5,112.5,282.0,117.5,290.0,122.0,308.0,134.5,322.5,154.5,330.5,159.5,327.5" stroke="black" stroke-width="2" fill="none" />
<polyline points="75.5,254.0,68.0,254.0,55.5,251.0,40.0,251.0,35.0,258.5,30.0,266.5,15.0,279.5,7.5,264.5,2.5,242.5" stroke="black" stroke-width="2" fill="none" />
<polyline points="4.5,231.5,12.5,230.5,20.5,230.0,28.0,229.0,35.5,227.5,42.5,227.0,50.5,226.5,58.5,225.0,66.5,224.5,75.0,224.5,83.0,224.0,91.0,223.5,99.0,223.0,107.0,222.5,115.0,221.5,123.5,221.0,131.5,220.5,140.0,220.5,148.0,220.0,156.0,219.5,164.5,218.5,172.5,218.0,181.0,218.0,189.5,218.0,197.5,217.5,205.5,217.5,213.0,217.0,220.0,216.0,227.5,215.5" stroke="black" stroke-width="2" fill="none" />
<polyline points="209.0,210.5,208.5,220.0,228.5,222.5,228.0,232.5,262.5,227.5" stroke="black" stroke-width="2" fill="none" />
<polyline points="275.5,206.5,265.5,181.5,241.0,196.5,221.5,204.0,205.0,196.5,174.5,196.5,154.5,206.0,150.0,203.5,165.0,183.5,165.5,166.5" stroke="black" stroke-width="2" fill="none" />
<polyline points="20.5,200.5,12.5,200.5" stroke="black" stroke-width="2" fill="none" />
<polyline points="10.0,211.5,1.5,219.0" stroke="black" stroke-width="2" fill="none" />
<polyline points="2.0,115.5,10.5,115.5" stroke="black" stroke-width="2" fill="none" />
<polyline points="15.5,88.0,35.5,93.0,55.0,92.5,62.5,97.5,82.5,92.0,105.0,87.0,125.0,84.5,147.0,74.5,167.0,74.5,175.0,79.0" stroke="black" stroke-width="2" fill="none" />
<polyline points="171.5,38.0,147.0,25.5,124.5,22.5,104.5,15.5,85.0,10.0" stroke="black" stroke-width="2" fill="none" />
<polyline points="85.5,15.0,105.5,22.5,123.5,15.5,143.5,15.0" stroke="black" stroke-width="2" fill="none" />
<polyline points="181.0,17.5,173.5,37.0,156.0,42.0,175.5,52.0,185.0,72.0,200.0,69.5" stroke="black" stroke-width="2" fill="none" />
<polyline points="217.5,64.5,200.0,59.5,180.0,57.0,159.5,62.0,139.5,67.0,120.0,74.0,99.5,66.5,80.0,62.0,60.0,32.0,57.5,16.5,42.5,19.0,40.0,19.0,20.5,19.0,16.0,39.0,18.5,19.0" stroke="black" stroke-width="2" fill="none" />
<polyline points="6.0,19.0,11.5,14.0,9.0,34.0,9.5,54.5,15.0,74.5,15.5,102.0,28.5,107.0,11.0,124.5,36.0,129.5,53.5,122.5,60.5,137.5,60.5,150.0,80.5,142.5,80.5,147.5,95.5,129.5" stroke="black" stroke-width="2" fill="none" />
<polyline points="57.0,67.5,37.0,70.0,32.0,75.0" stroke="black" stroke-width="2" fill="none" />
<polyline points="29.5,62.5,29.5,57.5,25.0,60.0,12.5,82.5,33.0,85.0,53.0,82.5,70.5,70.0,95.5,57.5,98.0,57.5" stroke="black" stroke-width="2" fill="none" />
<polyline points="102.0,40.0,82.0,27.0,62.0,12.0" stroke="black" stroke-width="2" fill="none" />
<polyline points="46.5,34.5,14.0,44.0" stroke="black" stroke-width="2" fill="none" />
<polyline points="27.5,33.0,47.0,40.5,67.0,43.0,87.5,45.0,107.5,47.5" stroke="black" stroke-width="2" fill="none" />
<polyline points="105.0,30.5,85.0,22.5,65.0,27.5,45.0,32.5,25.5,30.0" stroke="black" stroke-width="2" fill="none" />
<polyline points="28.0,28.0,60.5,48.0,75.5,50.5,100.5,78.0,98.0,90.5,67.5,115.0,62.0,135.0,59.5,155.0,64.0,172.5,21.5,197.0,36.5,204.5,49.0,224.5,46.5,244.5,37.0,261.5,27.0,281.5,14.5,281.0,15.0,298.5,8.0,318.5,23.0,334.0,32.5,321.5,47.5,324.0,67.5,311.5,68.0,319.0,88.0,329.5,87.0,307.0,89.5,322.0,109.5,322.0,117.0,327.0,137.0,337.0,164.0,314.5,189.0,299.5,206.5,330.0" stroke="black" stroke-width="2" fill="none" />
<polyline points="133.0,57.5,121.0,39.5,101.0,19.5" stroke="black" stroke-width="2" fill="none" />
<polyline points="199.0,12.0,218.5,32.0,218.5,49.5,208.5,67.0,215.5,87.0,190.5,117.0,183.0,134.5,170.0,154.5,142.5,177.5,137.5,197.5,155.0,220.0,137.5,240.0,142.5,248.0,140.5,268.0,145.5,272.5,128.0,295.0,120.0,310.0,140.0,330.0" stroke="black" stroke-width="2" fill="none" />
<polyline points="199.0,339.5,168.5,334.5,156.0,317.0,146.0,311.5,158.5,294.5,153.5,279.5,153.5,259.5,156.0,242.0,166.0,222.5,179.0,205.0,179.0,200.0,192.0,189.5,182.5,189.5,177.5,169.5,183.0,149.5,213.0,144.0,208.5,121.5,235.5,122.0,235.5,99.5,250.5,89.5,240.0,89.5,242.0,69.5,249.5,67.0,229.0,62.5,224.0,42.5,221.5,27.5,203.5,7.5" stroke="black" stroke-width="2" fill="none" />
</svg>