<svg xmlns="http://www.w3.org/2000/svg" version="1.1"><polyline points="203.0,5.0,207.5,21.0,225.5,29.5,232.0,45.5,242.5,50.0,239.0,66.0,245.5,82.5,233.5,84.5,237.5,101.0,219.5,111.5,223.5,139.5,223.5,155.5,225.5,181.5,207.0,197.5,199.0,213.5,201.0,217.5,217.0,225.5,246.5,241.0,230.0,256.5,200.0,268.5,206.5,274.5,210.0,290.5,202.0,301.0,200.0,317.0,208.5,332.5,233.0,336.5,248.5,328.5,262.5,330.5,276.5,330.5,292.5,330.5,293.0,312.5,309.0,298.5,325.0,292.5,351.0,278.0,363.0,268.0,367.0,285.5,383.0,281.0,393.5,253.5,415.5,263.5,417.0,269.5,435.0,271.5,435.0,307.5,449.0,309.5,460.5,291.0,462.5,295.0,478.5,292.5,492.5,289.0,511.0,299.5" stroke="black" stroke-width="2" fill="none" />
<polyline points="508.0,302.0,500.0,302.5" stroke="black" stroke-width="2" fill="none" />
<polyline points="500.0,310.5,508.0,310.0,516.5,310.0" stroke="black" stroke-width="2" fill="none" />
<polyline points="515.5,322.5,506.5,323.5,498.5,324.0" stroke="black" stroke-width="2" fill="none" />
<polyline points="500.5,318.5,508.5,318.0" stroke="black" stroke-width="2" fill="none" />
<polyline points="505.5,335.0,514.0,334.5" stroke="black" stroke-width="2" fill="none" />
<polyline points="513.5,276.5,505.0,277.0" stroke="black" stroke-width="2" fill="none" />
<polyline points="506.5,266.5,514.5,266.5" stroke="black" stroke-width="2" fill="none" />
<polyline points="506.5,246.0,508.5,254.0,501.5,268.0,509.5,284.0,509.0,301.5" stroke="black" stroke-width="2" fill="none" />
<polyline points="492.0,261.5,484.5,262.5" stroke="black" stroke-width="2" fill="none" />
<polyline points="475.5,270.0,467.5,270.0" stroke="black" stroke-width="2" fill="none" />
<polyline points="474.5,269.5,482.5,249.0,498.5,242.5,510.0,236.0" stroke="black" stroke-width="2" fill="none" />
<polyline points="506.5,244.5,498.0,244.5" stroke="black" stroke-width="2" fill="none" />
<polyline points="501.0,237.5,493.0,237.5,484.5,237.5" stroke="black" stroke-width="2" fill="none" />
<polyline points="498.5,220.5,506.5,220.5,514.0,220.0" stroke="black" stroke-width="2" fill="none" />
<polyline points="516.0,212.5,508.0,213.0" stroke="black" stroke-width="2" fill="none" />
<polyline points="507.5,194.0,515.5,186.0" stroke="black" stroke-width="2" fill="none" />
<polyline points="509.0,188.0,501.5,196.0" stroke="black" stroke-width="2" fill="none" />
<polyline points="516.0,194.0,508.5,195.0,500.5,195.5,492.5,196.0,484.5,196.5" stroke="black" stroke-width="2" fill="none" />
<polyline points="475.5,195.0,467.0,195.0,459.0,195.0,451.0,195.5,442.5,196.5,434.0,197.5,426.0,198.0" stroke="black" stroke-width="2" fill="none" />
<polyline points="427.5,206.0,435.5,205.5,443.5,205.0,451.5,204.5,459.0,203.5" stroke="black" stroke-width="2" fill="none" />
<polyline points="464.0,199.0,480.5,194.5,498.5,194.5,494.0,210.5,502.0,193.0,506.0,186.5" stroke="black" stroke-width="2" fill="none" />
<polyline points="515.5,186.5,507.5,187.0,500.5,187.0,492.5,187.5,484.5,188.0,477.0,188.5,469.0,189.0" stroke="black" stroke-width="2" fill="none" />
<polyline points="472.0,202.0,468.0,204.0,473.5,206.0,461.5,222.0,449.5,238.5,453.5,252.0,447.5,268.0,439.5,268.0,433.5,276.0" stroke="black" stroke-width="2" fill="none" />
<polyline points="436.5,251.5,428.0,251.5" stroke="black" stroke-width="2" fill="none" />
<polyline points="427.5,245.0,435.5,244.5" stroke="black" stroke-width="2" fill="none" />
<polyline points="430.5,231.0,422.0,247.0,422.0,247.0,438.5,246.5,452.5,246.5,468.5,237.0,488.5,232.5,504.5,220.5" stroke="black" stroke-width="2" fill="none" />
<polyline points="476.0,261.0,468.0,261.5" stroke="black" stroke-width="2" fill="none" />
<polyline points="464.5,252.5,481.0,260.5,487.5,278.5" stroke="black" stroke-width="2" fill="none" />
<polyline points="475.0,220.0,467.5,221.0,459.5,222.0,452.0,223.0" stroke="black" stroke-width="2" fill="none" />
<polyline points="427.5,221.5,420.0,222.5" stroke="black" stroke-width="2" fill="none" />
<polyline points="421.0,214.5,416.5,216.5,414.5,232.5,418.5,246.5,414.5,257.0,410.5,265.0,398.5,281.0,376.0,306.5,366.0,320.5" stroke="black" stroke-width="2" fill="none" />
<polyline points="347.0,307.0,338.5,307.0" stroke="black" stroke-width="2" fill="none" />
<polyline points="336.0,290.5,338.0,274.5,346.5,255.0,330.0,255.0,320.0,238.5,318.0,220.5,302.0,224.5,284.5,218.5,282.5,210.5,266.5,193.0,251.0,188.5,229.5,182.5,213.5,166.5,211.5,156.0,195.5,156.5,179.0,164.5,171.0,176.5,150.5,206.5,134.0,214.5,137.5,198.0,131.5,180.0,133.5,164.5,147.5,149.0,173.5,133.0,161.0,148.5,145.0,160.5,131.5,166.5,111.5,154.0,95.5,155.5,79.5,161.5,71.5,156.0,55.5,156.5,47.5,140.0,31.5,138.0,16.0,136.0,6.0,148.0,4.0,130.0,4.0,116.0,24.0,102.0,13.0,82.0,11.0,65.5,8.5,49.5,12.5,37.5" stroke="black" stroke-width="2" fill="none" />
<polyline points="11.0,28.0,27.5,20.5,43.0,12.5,63.0,6.5,65.0,22.5,79.0,46.5,85.0,66.5,98.5,76.5,90.0,82.5,76.0,86.5,58.0,102.0,58.0,118.5,78.0,126.5,68.0,144.5,46.0,158.5,18.0,170.5,22.0,180.5,12.0,204.0,6.0,214.0,22.0,209.5,26.0,199.5,30.0,217.5,46.0,216.0,50.0,208.0,60.5,202.0,76.5,202.0,92.0,204.0,108.0,202.0,124.0,205.5,136.0,199.0,140.0,173.5,156.0,163.5,172.0,153.5,188.0,130.0,194.0,114.0,209.5,102.5,232.0,104.5,234.0,82.5,237.5,67.0,245.5,71.0,257.5,53.0,273.5,49.0,286.0,49.0,298.0,37.5,308.0,23.0,312.0,11.0,320.0,29.0,334.0,33.0,332.0,49.0,336.0,76.5,352.0,78.5,356.0,94.5,361.5,104.5,345.5,120.5,343.5,139.5,333.5,153.5,356.0,171.5,376.0,183.5,392.5,181.5,417.0,208.0,419.0,212.0,439.0,192.0,454.5,189.5,460.5,185.5,476.0,177.5,502.0,175.5" stroke="black" stroke-width="2" fill="none" />
<polyline points="514.5,161.5,506.5,162.5,498.0,162.5,491.0,163.5,484.0,163.5,477.0,164.0,469.5,165.0,461.5,166.0" stroke="black" stroke-width="2" fill="none" />
<polyline points="452.0,173.0,460.0,172.5,467.5,172.5,475.5,172.5,484.0,172.5,492.0,172.5,500.0,171.5,507.5,171.0,515.5,170.5" stroke="black" stroke-width="2" fill="none" />
<polyline points="515.5,146.0,507.0,146.5,498.5,147.0,490.5,147.5,482.0,147.5,474.0,148.5,466.0,149.0,458.0,149.5,450.0,150.0" stroke="black" stroke-width="2" fill="none" />
<polyline points="438.0,152.5,454.5,152.5,470.5,146.0,487.0,138.0,503.0,138.5" stroke="black" stroke-width="2" fill="none" />
<polyline points="492.0,124.5,484.0,125.5,476.0,126.0" stroke="black" stroke-width="2" fill="none" />
<polyline points="474.5,138.5,458.5,154.5,438.5,167.0,441.0,169.0,457.0,160.5,473.0,156.5,488.5,146.5,496.5,144.5" stroke="black" stroke-width="2" fill="none" />
<polyline points="478.0,144.0,466.0,160.0,440.5,176.0,428.5,194.0,428.5,210.0,434.5,212.0,438.0,228.0,443.5,235.5,445.5,249.5,437.5,255.5,417.5,267.5,420.0,287.5,444.0,297.5,452.5,314.0,434.5,318.5,443.0,329.0,423.0,339.0,431.5,339.0,449.5,334.5,465.5,333.0,469.5,339.0,493.5,338.5" stroke="black" stroke-width="2" fill="none" />
<polyline points="451.0,309.5,443.0,310.0,435.0,310.0" stroke="black" stroke-width="2" fill="none" />
<polyline points="441.0,327.0,457.0,329.0,472.5,330.5" stroke="black" stroke-width="2" fill="none" />
<polyline points="417.5,238.0,410.0,238.0" stroke="black" stroke-width="2" fill="none" />
<polyline points="404.0,215.5,412.0,215.0,419.5,214.5,427.5,213.5" stroke="black" stroke-width="2" fill="none" />
<polyline points="441.0,196.5,457.0,203.0,473.0,189.0,489.0,189.0,481.0,177.0,467.0,193.0,442.5,205.0,448.5,216.5,462.0,236.5,464.0,252.5,474.0,268.5,456.0,266.5,438.0,280.5,456.0,292.5,472.0,316.0,500.0,310.0" stroke="black" stroke-width="2" fill="none" />
<polyline points="386.0,261.5,377.0,262.5" stroke="black" stroke-width="2" fill="none" />
<polyline points="360.0,259.0,358.0,275.0,350.0,282.5" stroke="black" stroke-width="2" fill="none" />
<polyline points="346.5,244.0,338.0,244.5" stroke="black" stroke-width="2" fill="none" />
<polyline points="346.5,239.5,354.5,238.5" stroke="black" stroke-width="2" fill="none" />
<polyline points="361.0,243.5,377.5,249.5,394.0,235.5" stroke="black" stroke-width="2" fill="none" />
<polyline points="395.5,211.0,387.0,211.5" stroke="black" stroke-width="2" fill="none" />
<polyline points="398.5,211.0,390.5,227.0,394.5,237.5,398.5,245.5,390.5,261.5,378.5,281.5,376.5,297.5,386.5,297.0,390.5,309.0,398.0,325.0,414.0,323.0,400.0,335.0,410.5,339.0,406.5,323.0,420.5,329.0,432.5,313.0,444.0,319.0,460.0,310.5" stroke="black" stroke-width="2" fill="none" />
<polyline points="411.5,197.5,403.5,197.5" stroke="black" stroke-width="2" fill="none" />
<polyline points="425.5,182.0,433.5,181.0,442.0,180.0,450.5,179.0,458.5,178.5,467.0,178.0,475.5,177.5,484.0,177.0,492.0,177.0,500.0,176.0,508.5,175.5,516.5,174.5" stroke="black" stroke-width="2" fill="none" />
<polyline points="513.0,136.0,505.0,136.0,498.0,137.0,491.0,138.0,483.0,139.0,475.5,140.0,467.5,140.5,460.0,140.5,452.0,140.5,444.5,140.5,436.5,140.5" stroke="black" stroke-width="2" fill="none" />
<polyline points="435.5,149.0,428.0,149.5,419.5,150.5" stroke="black" stroke-width="2" fill="none" />
<polyline points="415.5,153.0,431.5,163.0,431.5,151.0,442.0,149.0,458.0,146.5" stroke="black" stroke-width="2" fill="none" />
<polyline points="447.0,126.5,431.0,122.5,407.0,104.5,391.0,118.5,375.0,121.5,358.5,125.0,334.5,161.0,318.5,157.0" stroke="black" stroke-width="2" fill="none" />
<polyline points="322.0,148.5,314.0,148.5" stroke="black" stroke-width="2" fill="none" />
<polyline points="316.0,148.0,322.0,164.0" stroke="black" stroke-width="2" fill="none" />
<polyline points="313.5,173.5,321.0,173.0,329.5,172.0,338.0,171.5" stroke="black" stroke-width="2" fill="none" />
<polyline points="348.5,174.0,356.5,173.5,364.0,172.5,372.0,172.0,380.0,171.0,387.5,170.5,395.5,171.0,403.5,170.5,411.5,170.0,419.5,169.0,428.0,168.0,436.0,167.5,443.5,167.5" stroke="black" stroke-width="2" fill="none" />
<polyline points="435.5,164.0,427.0,164.5" stroke="black" stroke-width="2" fill="none" />
<polyline points="419.5,162.0,411.5,163.0,404.0,163.5,397.0,163.5,389.0,164.0" stroke="black" stroke-width="2" fill="none" />
<polyline points="379.5,150.5,388.0,150.0,396.0,149.5,403.5,149.0,411.5,148.5" stroke="black" stroke-width="2" fill="none" />
<polyline points="410.0,135.0,426.0,125.0,420.0,138.5,413.5,152.5,414.0,164.0" stroke="black" stroke-width="2" fill="none" />
<polyline points="410.5,134.5,418.5,134.5,427.5,134.0,436.0,134.0,444.0,133.5,452.0,132.5,460.0,131.5,467.0,130.0,474.5,129.0,481.5,129.0,489.0,128.0,497.5,127.5,505.5,127.0" stroke="black" stroke-width="2" fill="none" />
<polyline points="516.0,149.0,508.0,149.5,499.5,149.5,491.5,150.5,483.5,151.0,475.5,151.0,468.0,151.5,460.0,152.5,452.0,153.0,444.0,153.5,436.0,153.5,428.5,153.5,421.0,154.0,413.0,154.5,405.0,155.0,396.5,156.0,388.5,157.0,381.0,158.0,373.0,159.0" stroke="black" stroke-width="2" fill="none" />
<polyline points="388.5,143.5,396.5,142.5,404.0,141.0,411.0,140.0,418.5,138.5,426.5,137.0" stroke="black" stroke-width="2" fill="none" />
<polyline points="404.0,125.5,412.0,125.0,419.0,124.5,426.5,124.0,434.0,122.5,442.5,121.5,450.0,121.0,458.0,120.5" stroke="black" stroke-width="2" fill="none" />
<polyline points="468.0,114.5,459.5,114.5,451.0,114.5,443.0,114.5,435.0,115.0,427.0,115.5,419.0,116.0,411.0,116.5,402.5,117.0" stroke="black" stroke-width="2" fill="none" />
<polyline points="403.0,132.5,395.0,133.0,387.5,133.5" stroke="black" stroke-width="2" fill="none" />
<polyline points="372.0,139.0,364.0,140.0,356.0,141.0,348.0,141.5,340.0,141.5" stroke="black" stroke-width="2" fill="none" />
<polyline points="337.0,148.5,345.0,148.0,353.5,148.0,362.0,148.0,370.5,148.0" stroke="black" stroke-width="2" fill="none" />
<polyline points="380.5,152.0,370.5,136.0" stroke="black" stroke-width="2" fill="none" />
<polyline points="372.0,134.5,355.5,142.5" stroke="black" stroke-width="2" fill="none" />
<polyline points="355.5,142.0,358.0,158.0" stroke="black" stroke-width="2" fill="none" />
<polyline points="355.0,155.5,347.0,156.5" stroke="black" stroke-width="2" fill="none" />
<polyline points="347.0,164.0,355.0,164.0,364.0,164.0,372.0,164.0,380.0,164.0" stroke="black" stroke-width="2" fill="none" />
<polyline points="373.0,181.5,381.5,181.5,389.0,180.5,397.0,180.0,404.5,180.0,412.0,179.5,420.0,178.0" stroke="black" stroke-width="2" fill="none" />
<polyline points="389.0,197.0,381.0,197.5,373.0,198.0,365.0,198.0,357.5,198.0" stroke="black" stroke-width="2" fill="none" />
<polyline points="355.5,190.0,364.0,189.5,372.5,188.5,381.0,188.0,389.0,188.0,397.0,188.0,405.5,187.0,413.5,186.0" stroke="black" stroke-width="2" fill="none" />
<polyline points="357.5,213.5,350.0,214.0" stroke="black" stroke-width="2" fill="none" />
<polyline points="347.0,223.0,355.0,222.5" stroke="black" stroke-width="2" fill="none" />
<polyline points="342.0,221.0,334.0,222.5" stroke="black" stroke-width="2" fill="none" />
<polyline points="331.0,213.5,323.0,214.5" stroke="black" stroke-width="2" fill="none" />
<polyline points="325.5,220.0,317.0,221.0,309.0,221.5,301.0,222.0,293.5,222.5,286.0,223.5" stroke="black" stroke-width="2" fill="none" />
<polyline points="293.0,231.0,300.5,230.5,308.0,230.0,316.0,229.5,323.5,229.0" stroke="black" stroke-width="2" fill="none" />
<polyline points="323.0,233.0,315.0,234.0,307.5,235.5,299.5,236.5,291.5,237.5,283.0,237.5,275.0,238.5,267.0,238.5,259.0,238.5,250.5,238.5,242.5,239.0,234.0,239.5,226.0,240.5,218.5,240.5,211.0,241.0,203.0,241.5,195.0,241.0,187.5,241.5,179.5,241.5,172.0,242.5,164.5,242.5,156.0,243.5,147.5,244.0,139.0,244.5,132.0,245.5,124.0,246.0,116.0,246.5,108.0,247.5,100.0,248.5,93.0,249.5,85.0,250.0,77.0,251.0,69.0,251.0,60.5,251.5,52.5,252.0,44.0,252.5,36.0,253.0,28.0,253.0,20.0,253.0,12.0,253.5,4.0,253.5" stroke="black" stroke-width="2" fill="none" />
<polyline points="4.0,250.0,12.0,249.5" stroke="black" stroke-width="2" fill="none" />
<polyline points="5.0,246.5,13.0,246.5,21.0,245.5,29.0,245.0,36.5,244.5,44.0,243.5,52.0,243.0,59.5,242.5,67.0,241.5,75.5,241.0,84.0,240.0,91.5,239.5,99.5,239.5,107.5,239.0,115.5,238.5,123.5,237.5,132.0,237.0,140.5,237.0,148.5,236.5,157.0,236.0,165.5,235.0,173.0,234.5,181.0,234.0,188.5,233.0,196.5,232.0,204.5,231.0,211.5,231.0,219.0,230.5" stroke="black" stroke-width="2" fill="none" />
<polyline points="210.5,218.5,203.0,226.0" stroke="black" stroke-width="2" fill="none" />
<polyline points="201.5,219.0,209.5,211.5,217.5,204.5" stroke="black" stroke-width="2" fill="none" />
<polyline points="218.0,211.5,226.0,204.5,234.5,196.5,242.0,189.0" stroke="black" stroke-width="2" fill="none" />
<polyline points="242.5,194.0,250.5,193.5" stroke="black" stroke-width="2" fill="none" />
<polyline points="251.0,187.5,243.0,194.5,235.0,201.5,227.5,209.0" stroke="black" stroke-width="2" fill="none" />
<polyline points="229.0,204.0,244.5,198.0,260.5,196.0,279.0,203.5,273.5,219.5,255.5,235.5,261.0,251.0,254.5,269.0,254.0,273.0,249.5,289.0,247.5,304.5,243.5,321.0,236.0,333.0,256.0,335.5" stroke="black" stroke-width="2" fill="none" />
<polyline points="258.5,333.0,250.5,334.0" stroke="black" stroke-width="2" fill="none" />
<polyline points="261.5,317.0,269.5,316.5" stroke="black" stroke-width="2" fill="none" />
<polyline points="275.0,302.5,283.0,301.5" stroke="black" stroke-width="2" fill="none" />
<polyline points="282.5,296.0,274.5,296.5" stroke="black" stroke-width="2" fill="none" />
<polyline points="262.5,296.0,258.5,312.0,248.5,336.0" stroke="black" stroke-width="2" fill="none" />
<polyline points="221.0,333.0,213.0,340.0" stroke="black" stroke-width="2" fill="none" />
<polyline points="205.0,337.5,213.0,330.0" stroke="black" stroke-width="2" fill="none" />
<polyline points="211.0,323.0,219.0,315.0" stroke="black" stroke-width="2" fill="none" />
<polyline points="220.5,310.5,212.5,311.0" stroke="black" stroke-width="2" fill="none" />
<polyline points="213.0,305.0,217.0,321.0" stroke="black" stroke-width="2" fill="none" />
<polyline points="202.5,321.5,194.0,329.0" stroke="black" stroke-width="2" fill="none" />
<polyline points="202.0,330.5,194.0,338.0" stroke="black" stroke-width="2" fill="none" />
<polyline points="203.5,334.5,211.0,334.5" stroke="black" stroke-width="2" fill="none" />
<polyline points="203.0,314.0,195.0,321.0,187.0,328.5,179.5,337.0" stroke="black" stroke-width="2" fill="none" />
<polyline points="171.5,337.0,180.0,329.5,188.0,322.0,196.5,315.0,204.5,307.5" stroke="black" stroke-width="2" fill="none" />
<polyline points="205.0,301.5,197.0,308.5" stroke="black" stroke-width="2" fill="none" />
<polyline points="187.5,307.0,180.0,314.5" stroke="black" stroke-width="2" fill="none" />
<polyline points="178.0,308.0,186.5,301.0,194.0,293.5" stroke="black" stroke-width="2" fill="none" />
<polyline points="193.5,284.5,185.5,291.5,177.5,299.0,170.5,306.0,163.0,313.0" stroke="black" stroke-width="2" fill="none" />
<polyline points="165.0,312.0,173.0,311.5" stroke="black" stroke-width="2" fill="none" />
<polyline points="171.5,299.0,163.5,306.5,155.5,314.5" stroke="black" stroke-width="2" fill="none" />
<polyline points="155.5,322.0,147.5,329.0,138.5,337.0" stroke="black" stroke-width="2" fill="none" />
<polyline points="137.5,330.5,145.5,323.5" stroke="black" stroke-width="2" fill="none" />
<polyline points="139.0,321.5,131.5,329.0" stroke="black" stroke-width="2" fill="none" />
<polyline points="131.5,321.5,140.0,313.5" stroke="black" stroke-width="2" fill="none" />
<polyline points="141.0,307.5,133.0,315.0,124.5,321.5" stroke="black" stroke-width="2" fill="none" />
<polyline points="121.5,314.0,129.5,306.5" stroke="black" stroke-width="2" fill="none" />
<polyline points="130.0,298.0,122.5,305.0,114.5,312.5" stroke="black" stroke-width="2" fill="none" />
<polyline points="117.0,298.5,124.5,291.5,131.5,284.0,139.0,276.5,146.5,269.0,154.0,261.0,161.5,253.5" stroke="black" stroke-width="2" fill="none" />
<polyline points="156.5,253.0,148.5,260.5,141.0,267.5,132.5,275.0" stroke="black" stroke-width="2" fill="none" />
<polyline points="126.0,276.5,134.0,292.5,128.0,296.5" stroke="black" stroke-width="2" fill="none" />
<polyline points="131.0,297.0,123.0,297.5" stroke="black" stroke-width="2" fill="none" />
<polyline points="131.5,291.5,124.0,299.0,116.0,306.0,107.5,313.0" stroke="black" stroke-width="2" fill="none" />
<polyline points="101.0,308.0,93.0,315.0,84.5,322.0" stroke="black" stroke-width="2" fill="none" />
<polyline points="82.5,314.5,75.0,322.0,67.0,329.5,59.5,337.5" stroke="black" stroke-width="2" fill="none" />
<polyline points="65.5,339.5,73.5,332.0" stroke="black" stroke-width="2" fill="none" />
<polyline points="65.5,322.5,73.5,315.0" stroke="black" stroke-width="2" fill="none" />
<polyline points="73.5,308.0,65.5,315.5,58.0,323.0" stroke="black" stroke-width="2" fill="none" />
<polyline points="60.5,331.0,52.5,338.5" stroke="black" stroke-width="2" fill="none" />
<polyline points="50.0,331.5,42.5,339.0" stroke="black" stroke-width="2" fill="none" />
<polyline points="44.5,337.0,36.5,337.0" stroke="black" stroke-width="2" fill="none" />
<polyline points="27.5,337.0,35.0,329.5,43.0,322.0,51.5,315.0,59.0,308.0,66.0,300.5,74.0,292.5" stroke="black" stroke-width="2" fill="none" />
<polyline points="84.5,289.5,92.5,282.0,101.0,274.5,109.0,267.0,117.0,259.0,124.5,251.0,132.0,243.5,140.0,236.0" stroke="black" stroke-width="2" fill="none" />
<polyline points="139.5,228.0,132.0,235.5,124.0,243.0,116.0,250.5,108.5,258.0,100.5,266.0,92.5,273.5,84.0,280.5" stroke="black" stroke-width="2" fill="none" />
<polyline points="92.0,288.0,100.0,280.0,108.5,272.0,116.5,265.0,124.5,257.5,132.5,250.5,140.5,243.0,148.5,235.5" stroke="black" stroke-width="2" fill="none" />
<polyline points="148.5,220.5,156.5,212.5" stroke="black" stroke-width="2" fill="none" />
<polyline points="159.5,212.0,179.5,212.0,171.5,228.5,153.5,246.5,147.5,256.5,145.5,284.5,146.0,303.0,138.5,311.0,126.5,321.0,140.5,331.5,153.0,331.5,152.5,339.0" stroke="black" stroke-width="2" fill="none" />
<polyline points="153.5,328.5,161.5,320.5" stroke="black" stroke-width="2" fill="none" />
<polyline points="172.0,329.5,180.5,322.5,188.5,315.5" stroke="black" stroke-width="2" fill="none" />
<polyline points="179.5,292.0,187.5,284.5" stroke="black" stroke-width="2" fill="none" />
<polyline points="186.5,274.0,178.5,282.0,171.0,290.0" stroke="black" stroke-width="2" fill="none" />
<polyline points="165.0,290.5,156.5,298.0" stroke="black" stroke-width="2" fill="none" />
<polyline points="163.5,298.5,155.0,305.5" stroke="black" stroke-width="2" fill="none" />
<polyline points="147.0,296.5,155.0,288.5,163.0,280.5,171.0,273.0,179.0,265.0,187.0,258.0" stroke="black" stroke-width="2" fill="none" />
<polyline points="185.5,267.5,178.0,275.5" stroke="black" stroke-width="2" fill="none" />
<polyline points="175.0,283.0,164.5,273.5,180.5,261.5,202.5,281.5,200.0,277.5,204.5,294.0,214.5,286.0,236.5,306.0,265.0,298.0,281.5,301.5,291.5,293.5,287.5,289.5,283.0,291.5,280.5,301.5,286.0,317.0,292.0,318.5,308.0,307.0,322.0,310.5,328.0,316.5,351.5,315.0,356.0,319.0,384.0,317.0" stroke="black" stroke-width="2" fill="none" />
<polyline points="417.5,312.0,407.5,312.0,428.0,306.0,406.0,290.0,402.0,272.5,402.5,256.5,408.5,242.5,408.0,226.5,400.0,226.0,391.5,216.0,381.5,221.5,349.5,232.0,349.0,215.5,343.0,213.5,332.5,218.0,329.0,200.0" stroke="black" stroke-width="2" fill="none" />
<polyline points="335.5,196.5,351.5,208.5,365.5,200.5,381.5,198.0,397.5,198.0" stroke="black" stroke-width="2" fill="none" />
<polyline points="338.0,196.0,330.0,197.0,322.5,198.0,315.0,198.5" stroke="black" stroke-width="2" fill="none" />
<polyline points="317.0,207.0,325.0,223.0,328.5,236.5" stroke="black" stroke-width="2" fill="none" />
<polyline points="313.0,243.5,305.0,244.0" stroke="black" stroke-width="2" fill="none" />
<polyline points="301.5,236.5,309.5,236.0" stroke="black" stroke-width="2" fill="none" />
<polyline points="299.0,245.0,291.0,245.0" stroke="black" stroke-width="2" fill="none" />
<polyline points="301.0,262.0,309.0,261.5,316.5,260.5,324.0,259.5" stroke="black" stroke-width="2" fill="none" />
<polyline points="301.5,270.5,293.5,271.0" stroke="black" stroke-width="2" fill="none" />
<polyline points="281.5,279.0,273.5,279.5" stroke="black" stroke-width="2" fill="none" />
<polyline points="281.5,284.0,273.0,284.5,265.0,285.0" stroke="black" stroke-width="2" fill="none" />
<polyline points="261.0,279.5,263.0,273.0,261.0,289.0,269.0,293.0,263.5,308.5,269.5,319.0" stroke="black" stroke-width="2" fill="none" />
<polyline points="259.5,301.5,252.0,302.0,244.0,302.0" stroke="black" stroke-width="2" fill="none" />
<polyline points="244.5,293.5,252.5,293.5,260.0,292.5" stroke="black" stroke-width="2" fill="none" />
<polyline points="260.0,308.0,252.5,308.5,245.0,309.0,237.5,310.0,229.5,311.0" stroke="black" stroke-width="2" fill="none" />
<polyline points="218.0,283.0,226.0,275.5" stroke="black" stroke-width="2" fill="none" />
<polyline points="225.0,272.0,240.5,268.0" stroke="black" stroke-width="2" fill="none" />
<polyline points="242.0,260.5,250.0,253.5,257.5,246.0" stroke="black" stroke-width="2" fill="none" />
<polyline points="260.5,245.0,252.5,245.0,244.0,245.5" stroke="black" stroke-width="2" fill="none" />
<polyline points="242.5,237.5,250.5,237.0,258.5,237.0" stroke="black" stroke-width="2" fill="none" />
<polyline points="261.5,239.0,277.5,230.5,293.5,224.0,305.5,204.0,298.0,220.5,304.5,234.5,311.0,238.5,317.0,258.5,335.5,276.5,331.5,292.0,339.5,304.5,355.5,286.5,381.0,268.5,394.5,243.0,410.5,236.5,418.5,232.5,444.0,236.5,450.0,210.5,460.0,218.5,476.0,219.0,470.5,235.0,470.0,252.5,484.0,276.5,498.0,282.0,501.5,295.5,499.5,311.5,495.5,328.0,488.0,334.0" stroke="black" stroke-width="2" fill="none" />
<polyline points="356.5,319.5,340.5,318.0,325.0,324.5,309.0,326.5" stroke="black" stroke-width="2" fill="none" />
<polyline points="322.0,328.0,318.0,312.0" stroke="black" stroke-width="2" fill="none" />
<polyline points="252.0,301.0,244.5,301.5,236.0,301.5,228.0,302.5,219.5,304.0,211.5,305.0,203.5,306.0,195.5,306.5,187.5,307.0,179.0,308.0,170.5,308.0,162.5,309.0,155.0,309.5,147.5,309.5,140.0,309.0,132.0,309.5,123.5,309.5,117.0,309.5,109.5,309.5,102.0,309.5,94.0,309.5,85.5,310.0,78.0,311.0,69.5,312.0,61.0,313.0,52.5,313.5,44.5,314.0,36.5,314.5,28.5,315.5,20.5,316.0,13.0,316.5,5.0,317.0" stroke="black" stroke-width="2" fill="none" />
<polyline points="5.0,323.0,13.0,315.5,20.5,308.5,28.0,301.0,35.5,294.0,43.5,286.0,51.0,278.5,59.5,270.5,67.5,263.0,76.0,255.0,84.0,248.0,92.0,240.5,100.0,233.0,108.0,225.5,116.5,218.0,125.0,210.5,133.0,203.0" stroke="black" stroke-width="2" fill="none" />
<polyline points="133.0,197.0,124.5,204.5,116.5,212.0,108.0,219.5,99.5,226.5,91.5,234.0,82.5,242.0,74.0,249.5,65.5,257.5,57.5,265.0,49.5,272.5,42.0,280.0,34.5,288.0,27.0,295.5,19.5,303.0,12.5,310.5,5.0,317.5" stroke="black" stroke-width="2" fill="none" />
<polyline points="5.5,325.0,14.0,324.5,22.0,324.0,29.5,323.0,37.0,322.0,45.0,321.0,53.0,321.0,61.0,321.0,68.5,321.0,76.0,321.0,84.0,320.5,92.0,320.0,100.0,319.5,108.0,319.0,116.5,318.0,124.5,318.0,132.0,317.0,139.5,316.5,147.5,316.0,156.0,316.0,164.5,315.5,172.0,315.0,179.0,314.0,186.5,313.5,194.5,313.5,202.5,313.0,210.5,312.5,218.5,312.0,226.5,311.5,234.5,311.0,242.5,311.0" stroke="black" stroke-width="2" fill="none" />
<polyline points="242.5,321.0,234.5,321.0,227.0,321.0,219.5,321.0,211.5,321.0,204.0,321.0,196.0,321.5,188.0,321.5,179.5,321.5,171.5,321.5,163.5,322.0,155.5,322.0,147.0,323.0,139.0,323.5,131.0,324.0,123.0,325.0,115.0,326.0,106.5,327.0,98.0,328.5,89.5,329.5,81.5,330.0,74.0,330.5,66.0,330.5,58.5,330.5,51.5,331.5,44.0,332.5,36.5,332.5,29.0,333.0,21.5,333.0,14.0,334.0,6.0,334.5" stroke="black" stroke-width="2" fill="none" />
<polyline points="20.5,333.0,28.0,325.5,36.0,317.0,43.5,309.5,51.5,301.5,59.5,294.0,67.5,287.0,76.0,280.0,84.0,272.5,91.5,265.0,99.5,257.0,107.5,249.0,116.0,241.5,124.0,234.0,131.5,226.5,139.5,219.0" stroke="black" stroke-width="2" fill="none" />
<polyline points="133.0,219.5,125.0,227.0,116.5,233.5,108.0,241.0,99.5,248.5,91.5,256.0,83.0,263.5,74.5,271.5,66.5,279.0,59.0,286.5,51.5,293.5,43.0,300.5,35.0,307.5,26.5,314.5,18.5,322.0,10.5,329.5" stroke="black" stroke-width="2" fill="none" />
<polyline points="4.0,331.0,11.5,323.5,20.0,316.0,28.5,308.0,36.5,300.5,44.5,293.0,53.0,285.5,61.0,278.5,69.0,270.5,77.0,263.0,85.5,255.5,93.5,248.0,101.5,240.5,109.0,233.0,116.5,225.0,124.5,217.0,132.5,209.5" stroke="black" stroke-width="2" fill="none" />
<polyline points="130.0,217.0,122.0,217.5" stroke="black" stroke-width="2" fill="none" />
<polyline points="123.0,209.5,131.0,209.0" stroke="black" stroke-width="2" fill="none" />
<polyline points="133.0,189.5,125.0,196.5,117.0,204.0,108.5,211.0,100.5,218.5,92.0,225.5,83.5,233.0,74.5,239.5,66.0,246.5,58.5,254.5,50.5,262.0,43.0,269.5,34.5,277.0,27.0,284.5,19.5,292.0,11.5,299.5,4.0,307.0" stroke="black" stroke-width="2" fill="none" />
<polyline points="4.5,309.5,12.5,309.0,20.5,308.0,28.5,307.5,36.5,306.5,44.5,306.5,52.0,306.0,59.5,306.0,67.5,305.5,75.5,305.5,83.0,305.5,91.5,305.0,99.5,304.0,108.0,303.0,116.5,302.5,124.5,302.5,132.5,301.5,140.0,301.0,147.5,301.0,155.0,300.5,163.0,300.5,171.0,300.0,179.5,300.0,187.0,299.5,194.5,298.5,203.0,298.5" stroke="black" stroke-width="2" fill="none" />
<polyline points="206.5,268.5,218.5,272.5,234.5,284.0,214.5,298.0,222.0,310.0,229.5,326.0,237.5,324.0,247.0,316.0,263.0,307.5,268.5,312.0,294.5,301.5,311.0,303.5,327.0,300.0,347.0,304.5,363.5,300.5" stroke="black" stroke-width="2" fill="none" />
<polyline points="351.0,224.0,335.0,227.5,319.0,209.5" stroke="black" stroke-width="2" fill="none" />
<polyline points="314.0,211.5,306.0,211.5" stroke="black" stroke-width="2" fill="none" />
<polyline points="308.0,204.5,316.0,204.0,323.5,204.5,331.5,204.5,339.5,204.0" stroke="black" stroke-width="2" fill="none" />
<polyline points="338.0,188.5,329.5,188.5,321.5,188.5,313.0,189.0" stroke="black" stroke-width="2" fill="none" />
<polyline points="332.0,162.5,323.5,163.0,315.5,163.5,307.5,164.0,300.0,164.5,292.5,165.5,284.5,165.5" stroke="black" stroke-width="2" fill="none" />
<polyline points="276.5,162.0,284.5,155.0,292.0,148.0" stroke="black" stroke-width="2" fill="none" />
<polyline points="292.5,156.5,278.5,172.0,260.5,184.0,280.5,199.5,286.5,215.0,280.5,241.0,265.0,251.0,281.0,241.5,285.0,247.5,300.5,251.5,310.5,255.5,334.5,239.5,354.5,233.5,370.0,223.5,374.5,211.5,390.0,203.5,402.0,209.5" stroke="black" stroke-width="2" fill="none" />
<polyline points="333.0,235.0,317.0,223.0" stroke="black" stroke-width="2" fill="none" />
<polyline points="278.0,211.0,269.5,218.5,261.0,225.5,252.5,233.0" stroke="black" stroke-width="2" fill="none" />
<polyline points="252.5,232.5,260.0,232.0" stroke="black" stroke-width="2" fill="none" />
<polyline points="260.0,225.5,268.0,225.0" stroke="black" stroke-width="2" fill="none" />
<polyline points="258.5,228.5,250.0,229.0,241.5,229.5" stroke="black" stroke-width="2" fill="none" />
<polyline points="244.0,233.5,251.5,226.0,259.0,218.5,267.0,211.0" stroke="black" stroke-width="2" fill="none" />
<polyline points="262.0,202.0,270.0,194.0" stroke="black" stroke-width="2" fill="none" />
<polyline points="272.0,186.0,288.0,193.5,298.0,190.0" stroke="black" stroke-width="2" fill="none" />
<polyline points="290.0,209.5,282.0,210.5,274.5,211.0,266.5,211.0,259.0,211.0,251.5,211.0,243.5,211.0,236.0,211.0,228.0,211.5,220.0,211.5,211.5,211.5,203.5,211.5,195.5,212.0" stroke="black" stroke-width="2" fill="none" />
<polyline points="195.5,220.0,187.5,227.0" stroke="black" stroke-width="2" fill="none" />
<polyline points="194.0,225.5,186.0,233.5" stroke="black" stroke-width="2" fill="none" />
<polyline points="179.0,218.5,171.0,225.5" stroke="black" stroke-width="2" fill="none" />
<polyline points="173.0,217.0,180.5,209.5" stroke="black" stroke-width="2" fill="none" />
<polyline points="182.5,206.0,198.5,200.5,198.5,226.0,212.5,234.0" stroke="black" stroke-width="2" fill="none" />
<polyline points="210.5,250.5,203.0,258.0,195.0,265.5" stroke="black" stroke-width="2" fill="none" />
<polyline points="200.5,263.0,212.0,269.0,220.0,285.5,232.0,303.5,233.5,319.5,253.0,317.5,261.0,317.0,269.0,333.5" stroke="black" stroke-width="2" fill="none" />
<polyline points="247.5,298.5,245.5,282.5" stroke="black" stroke-width="2" fill="none" />
<polyline points="236.0,287.0,228.0,287.5,220.0,288.0,212.5,288.5,204.5,289.5,196.5,290.0,188.5,290.5,180.5,291.5,172.5,292.5,164.0,293.0,156.0,293.0,148.0,293.0,140.0,293.0,131.5,293.5,123.0,294.5,115.0,295.0,107.0,295.5,99.0,296.0,91.5,297.0,83.5,298.0,75.5,298.0,68.0,298.0,60.0,298.5,51.5,299.0,43.5,299.0,36.0,299.0,28.0,299.5,20.0,300.0,12.5,300.5,4.5,300.5" stroke="black" stroke-width="2" fill="none" />
<polyline points="1.5,300.5,9.0,293.0,17.5,284.5,26.0,276.0,34.5,268.0,43.5,260.0,51.5,253.0,59.0,245.5,66.5,238.5,74.5,231.5,82.5,224.0,90.5,217.0,99.0,210.0,107.0,203.0,115.5,195.5,123.5,187.5,131.5,180.0" stroke="black" stroke-width="2" fill="none" />
<polyline points="133.0,172.5,124.5,180.5,116.0,188.0,108.0,195.5,100.0,202.5,92.0,209.5,84.0,217.0,76.5,224.0,68.5,231.5,60.0,239.0,52.0,246.5,44.0,254.0,35.5,261.5,27.5,269.0,19.0,277.0,11.0,285.0,2.5,292.5" stroke="black" stroke-width="2" fill="none" />
<polyline points="3.0,291.0,11.5,284.0" stroke="black" stroke-width="2" fill="none" />
<polyline points="5.0,285.5,13.0,284.5,20.0,284.0,28.0,284.0,36.0,284.0,44.0,283.5,51.5,283.5,60.0,283.5,68.0,283.0,76.0,282.5,84.0,282.0,91.5,281.5,99.5,280.5,108.0,280.0,116.0,279.5,124.5,279.0,132.0,278.5,140.0,277.5,148.0,277.0,156.0,276.5,164.0,276.5,172.5,275.5,180.5,274.5,188.5,273.5,196.5,272.5,205.0,271.5,212.5,271.0,220.0,271.0,228.0,270.5,236.5,270.0,244.5,269.0,252.5,268.5" stroke="black" stroke-width="2" fill="none" />
<polyline points="257.5,270.0,273.0,268.5,289.5,264.5,299.5,264.0,294.0,252.0,292.5,266.0,294.5,268.0,304.5,284.5,296.5,286.5,290.5,306.5,292.5,314.5,300.5,322.5,294.5,328.0,292.5,334.0,306.5,334.0,322.0,332.0,328.0,330.5,344.0,330.5,360.0,324.5,378.0,308.0,384.5,323.5,362.5,330.0" stroke="black" stroke-width="2" fill="none" />
<polyline points="265.5,252.5,257.0,260.5" stroke="black" stroke-width="2" fill="none" />
<polyline points="250.5,260.5,258.0,253.0" stroke="black" stroke-width="2" fill="none" />
<polyline points="252.5,259.5,244.5,260.0" stroke="black" stroke-width="2" fill="none" />
<polyline points="236.0,279.0,228.5,279.0,220.0,279.5,212.0,280.0,204.0,280.5,195.5,281.5,187.5,283.0,180.0,283.5,172.5,284.0,164.5,284.5,156.5,284.5,149.0,285.0,141.0,286.0,133.0,286.5,125.0,286.5,117.0,287.5,108.5,288.0,100.0,288.5,91.5,288.5,83.0,289.0,75.0,289.5,67.0,290.0,59.0,290.5,51.0,290.5,42.5,291.0,35.5,291.5,28.0,291.5,20.0,292.0,12.0,293.0,4.5,293.0" stroke="black" stroke-width="2" fill="none" />
<polyline points="3.0,282.0,11.0,274.5" stroke="black" stroke-width="2" fill="none" />
<polyline points="10.5,267.5,18.5,260.0,27.0,252.0,35.0,244.5" stroke="black" stroke-width="2" fill="none" />
<polyline points="35.5,236.5,27.0,244.0,18.5,251.5,10.5,258.5,2.5,265.0" stroke="black" stroke-width="2" fill="none" />
<polyline points="1.0,268.0,17.0,260.0,25.0,286.0,29.0,305.5,25.0,322.0,33.0,338.0" stroke="black" stroke-width="2" fill="none" />
<polyline points="36.0,336.0,44.5,328.5,52.5,320.5,60.5,313.0,68.0,305.5" stroke="black" stroke-width="2" fill="none" />
<polyline points="52.5,303.0,44.5,303.0" stroke="black" stroke-width="2" fill="none" />
<polyline points="42.0,300.5,46.0,290.5,56.0,305.0,46.0,323.0" stroke="black" stroke-width="2" fill="none" />
<polyline points="45.5,312.5,53.0,311.5" stroke="black" stroke-width="2" fill="none" />
<polyline points="53.5,312.0,70.0,314.0" stroke="black" stroke-width="2" fill="none" />
<polyline points="51.5,303.0,67.5,297.0,81.5,295.0,87.0,310.5,104.5,326.5" stroke="black" stroke-width="2" fill="none" />
<polyline points="103.0,325.0,94.0,332.5" stroke="black" stroke-width="2" fill="none" />
<polyline points="107.0,339.5,115.0,332.0" stroke="black" stroke-width="2" fill="none" />
<polyline points="107.5,300.0,115.0,292.0,123.0,284.5" stroke="black" stroke-width="2" fill="none" />
<polyline points="116.0,281.5,123.5,274.0,131.5,266.5,139.5,258.0,147.5,250.5" stroke="black" stroke-width="2" fill="none" />
<polyline points="147.0,255.5,147.0,249.5,163.5,249.5,182.0,258.0,188.5,262.5,186.5,278.5,193.0,294.5,189.0,306.5,195.0,323.0" stroke="black" stroke-width="2" fill="none" />
<polyline points="163.0,275.5,155.5,283.0,147.5,291.0,140.0,298.0" stroke="black" stroke-width="2" fill="none" />
<polyline points="139.5,290.5,148.0,283.0,156.0,275.5" stroke="black" stroke-width="2" fill="none" />
<polyline points="153.5,274.5,169.5,258.5,159.5,268.5,164.0,255.0,166.0,245.0,176.0,243.0,192.0,239.5,194.0,231.0,210.0,230.5,212.0,240.0,227.5,242.0" stroke="black" stroke-width="2" fill="none" />
<polyline points="219.0,251.5,211.5,259.0" stroke="black" stroke-width="2" fill="none" />
<polyline points="217.5,257.5,233.5,255.5" stroke="black" stroke-width="2" fill="none" />
<polyline points="219.5,258.0,211.5,265.5" stroke="black" stroke-width="2" fill="none" />
<polyline points="219.0,267.5,235.0,261.5,251.0,255.5" stroke="black" stroke-width="2" fill="none" />
<polyline points="236.0,263.0,227.5,263.0,220.0,263.5,212.0,263.5,204.0,264.0,196.5,265.5,188.5,266.5,180.5,267.5,172.0,268.5,163.5,269.0,155.5,269.5,147.5,269.5,139.5,270.0,132.0,270.5,124.0,271.0,116.0,271.5,108.0,271.5,100.5,272.0,92.5,272.5,84.5,273.0,76.5,273.5,68.5,274.0,60.5,274.5,52.0,275.0,43.5,275.0,36.0,275.5,28.0,275.5,20.0,276.0,12.0,277.0,4.0,278.0" stroke="black" stroke-width="2" fill="none" />
<polyline points="4.0,268.0,12.0,268.0,20.0,268.0,28.0,267.5,36.0,267.0,44.5,266.0,52.5,266.0,60.5,266.5,68.5,266.5,76.0,266.0,84.0,265.5,92.0,265.5,100.5,265.5,108.0,265.0,116.0,264.5,124.5,264.0,132.5,263.5,140.0,262.5,148.0,262.0,155.5,261.5,163.5,261.0,171.5,260.5,180.0,260.0,188.0,259.5,196.0,259.0,204.0,258.5,211.5,257.5,219.0,256.5,227.0,255.5" stroke="black" stroke-width="2" fill="none" />
<polyline points="242.5,227.0,250.5,220.0" stroke="black" stroke-width="2" fill="none" />
<polyline points="245.0,220.5,237.0,228.0" stroke="black" stroke-width="2" fill="none" />
<polyline points="235.5,223.5,243.5,223.5,251.5,224.0" stroke="black" stroke-width="2" fill="none" />
<polyline points="243.0,212.0,235.0,219.5" stroke="black" stroke-width="2" fill="none" />
<polyline points="227.5,218.5,236.0,211.0" stroke="black" stroke-width="2" fill="none" />
<polyline points="238.0,207.5,254.0,209.5,270.0,200.0,278.0,196.0,298.5,200.0,324.5,208.0,340.0,204.0,354.0,218.0,364.0,207.5,386.0,213.0,402.0,215.5" stroke="black" stroke-width="2" fill="none" />
<polyline points="333.5,162.5,325.0,162.0,316.0,161.5,308.0,161.5,300.0,162.5,292.5,163.5,285.0,164.5,277.0,165.5,269.0,165.5,261.0,166.0,253.5,166.5,245.5,166.5,237.0,167.0,229.0,168.0,221.0,169.0,212.5,170.0,204.5,171.0,197.0,172.0,188.5,172.5,180.5,172.5,172.0,173.0,164.0,173.5,156.0,174.5,148.5,175.0,140.5,175.5,131.5,176.0,123.0,176.5,115.5,177.0,108.0,177.0,99.5,177.5,91.5,178.5,84.0,179.0,77.0,180.5,69.0,181.0,61.0,182.0,53.5,182.5,45.5,183.0,37.5,183.5,29.5,184.0" stroke="black" stroke-width="2" fill="none" />
<polyline points="35.5,178.0,27.5,186.0,19.0,194.0,11.0,201.5,2.5,209.0" stroke="black" stroke-width="2" fill="none" />
<polyline points="3.5,206.5,11.5,206.0,19.5,205.5,28.0,204.5,36.5,204.0,44.5,203.0,53.0,202.0,61.0,201.0,69.0,200.0,76.5,198.5,84.5,198.0,92.5,198.0,100.5,197.5,108.5,197.5,116.0,197.5,124.0,197.5,132.0,196.5,140.0,196.0,148.5,195.0,156.5,194.5,165.0,194.5,172.5,193.5,180.0,193.0,187.5,192.5,195.5,192.5,204.0,192.0,211.0,191.5,217.5,191.0,225.0,190.5,233.5,190.0,241.5,189.5,249.5,189.0,257.5,189.0,265.5,188.5,274.0,188.5,282.0,188.5,290.0,188.0" stroke="black" stroke-width="2" fill="none" />
<polyline points="290.5,180.0,282.5,180.0,274.5,180.0,266.5,180.5,258.5,181.5,250.5,182.5,242.5,182.5,235.0,183.0,227.0,183.5,219.0,184.0,211.0,184.0,203.5,185.0,195.5,185.5,188.5,185.5,181.0,185.5,172.5,186.0,164.0,186.5,156.5,187.0,149.0,187.0,140.5,187.5,132.0,188.0,123.5,188.5,115.5,189.5,107.5,190.5,98.5,191.0,90.5,192.0,82.0,192.5,74.5,193.0,66.5,194.0,59.0,195.0,51.5,195.5,44.5,196.0,37.0,196.5,29.0,197.0,21.0,197.5,13.0,198.5,5.0,199.0" stroke="black" stroke-width="2" fill="none" />
<polyline points="1.5,199.0,17.5,191.0,34.0,179.0,50.0,166.5,58.5,176.0,74.5,165.5,90.0,163.5,106.0,161.5,122.0,157.5,138.0,157.5,154.5,143.5" stroke="black" stroke-width="2" fill="none" />
<polyline points="163.0,137.0,171.0,129.0" stroke="black" stroke-width="2" fill="none" />
<polyline points="171.5,123.5,163.5,131.0,155.5,138.5,147.5,146.0,139.5,153.5,131.5,161.0,123.5,168.5,115.5,175.5,108.0,183.0,100.5,190.0,93.0,197.0,85.0,204.5,76.5,212.5,68.0,220.5,60.0,229.0,52.0,237.0,43.5,244.5,35.5,252.0,27.5,259.0,19.0,265.5" stroke="black" stroke-width="2" fill="none" />
<polyline points="19.5,265.5,27.0,258.0,35.5,251.0,44.0,243.5" stroke="black" stroke-width="2" fill="none" />
<polyline points="43.0,249.5,51.0,248.5,59.5,248.5" stroke="black" stroke-width="2" fill="none" />
<polyline points="58.5,255.5,60.0,265.5,78.0,279.5,84.0,281.5,88.0,297.0,104.0,311.0" stroke="black" stroke-width="2" fill="none" />
<polyline points="100.0,300.0,108.5,292.0" stroke="black" stroke-width="2" fill="none" />
<polyline points="109.5,282.5,117.0,275.5,124.5,268.5,132.5,260.5,140.0,253.0" stroke="black" stroke-width="2" fill="none" />
<polyline points="140.5,256.0,132.5,257.0" stroke="black" stroke-width="2" fill="none" />
<polyline points="132.0,264.5,140.5,264.0" stroke="black" stroke-width="2" fill="none" />
<polyline points="158.0,268.0,149.5,275.5,141.0,282.5" stroke="black" stroke-width="2" fill="none" />
<polyline points="155.0,278.0,171.0,296.0,187.5,298.0,181.5,304.0,186.0,320.0" stroke="black" stroke-width="2" fill="none" />
<polyline points="182.0,337.0,168.0,330.5,160.0,318.5,154.0,306.0,169.5,303.5,159.5,287.5,151.0,271.0,161.0,255.0,181.0,238.5,159.0,234.5,153.5,224.5,138.0,217.0,156.0,201.0,166.0,185.0,158.0,177.0,174.0,161.0,186.5,145.5,186.5,145.5" stroke="black" stroke-width="2" fill="none" />
<polyline points="185.5,152.0,179.5,168.0,175.5,184.0,176.0,199.5,164.0,199.5,150.0,215.0,160.5,203.0,183.0,175.0,197.0,165.5,212.5,173.5" stroke="black" stroke-width="2" fill="none" />
<polyline points="211.0,166.5,219.5,165.5,228.0,164.5" stroke="black" stroke-width="2" fill="none" />
<polyline points="233.5,164.5,241.5,164.5" stroke="black" stroke-width="2" fill="none" />
<polyline points="241.5,156.5,250.0,156.0,258.5,155.5" stroke="black" stroke-width="2" fill="none" />
<polyline points="255.0,150.5,257.0,166.5" stroke="black" stroke-width="2" fill="none" />
<polyline points="260.0,166.0,268.0,165.5,276.5,164.5" stroke="black" stroke-width="2" fill="none" />
<polyline points="267.5,156.5,275.0,156.0,283.0,156.0,291.5,156.0,300.0,155.5,308.0,155.0,315.5,154.5,323.5,153.5" stroke="black" stroke-width="2" fill="none" />
<polyline points="317.0,132.0,325.0,125.0" stroke="black" stroke-width="2" fill="none" />
<polyline points="325.0,130.5,333.0,123.5" stroke="black" stroke-width="2" fill="none" />
<polyline points="322.5,116.5,315.0,124.5,307.5,132.0" stroke="black" stroke-width="2" fill="none" />
<polyline points="314.0,133.0,322.0,132.5,330.0,132.0" stroke="black" stroke-width="2" fill="none" />
<polyline points="308.0,122.5,316.0,115.5,324.0,108.0" stroke="black" stroke-width="2" fill="none" />
<polyline points="315.5,107.5,307.5,115.5" stroke="black" stroke-width="2" fill="none" />
<polyline points="308.0,121.0,316.0,120.5" stroke="black" stroke-width="2" fill="none" />
<polyline points="308.5,134.5,300.5,135.5" stroke="black" stroke-width="2" fill="none" />
<polyline points="295.5,133.5,301.5,149.5,295.5,165.5" stroke="black" stroke-width="2" fill="none" />
<polyline points="307.0,148.0,298.5,148.0,290.5,148.5,282.5,150.0,274.5,150.5" stroke="black" stroke-width="2" fill="none" />
<polyline points="276.5,133.0,268.5,133.5" stroke="black" stroke-width="2" fill="none" />
<polyline points="271.0,130.5,267.0,146.0,271.0,150.0,270.5,166.0,288.0,196.0,291.5,212.0,297.5,236.0,305.5,246.5,301.5,257.0,309.5,257.0,307.5,273.0,305.5,281.0" stroke="black" stroke-width="2" fill="none" />
<polyline points="324.0,254.0,308.5,242.0,290.5,232.5,274.5,234.0" stroke="black" stroke-width="2" fill="none" />
<polyline points="263.5,244.0,279.5,240.0,295.5,242.0,311.5,252.0" stroke="black" stroke-width="2" fill="none" />
<polyline points="274.0,205.0,266.0,205.0,257.5,205.5,249.5,205.5,241.5,205.5,233.5,206.0,226.0,206.0,218.5,206.5,211.0,207.5,203.5,207.5,196.0,208.5,187.5,209.0,180.0,209.5,172.0,210.0,164.0,210.5,156.5,211.0,148.5,211.5,140.5,212.0,132.5,212.0,124.5,212.0,116.0,213.0,108.0,214.0,100.0,215.0,92.0,216.0,84.5,217.0,76.0,217.5,68.0,217.5,60.0,218.0,52.0,218.0,44.5,218.5,36.5,219.5,28.0,220.5,20.0,221.5,12.0,222.0,4.0,222.0" stroke="black" stroke-width="2" fill="none" />
<polyline points="4.0,225.0,12.0,217.5,20.5,209.5,28.5,202.5" stroke="black" stroke-width="2" fill="none" />
<polyline points="33.0,203.0,25.0,210.5,17.5,218.0,9.5,225.5,2.5,233.0" stroke="black" stroke-width="2" fill="none" />
<polyline points="4.5,231.5,12.5,230.5,20.5,230.0,28.0,229.0,35.5,227.5,42.5,227.0,50.5,226.5,58.5,225.0,66.5,224.5,75.0,224.5,83.0,224.0,91.0,223.5,99.0,223.0,107.0,222.5,115.0,221.5,123.5,221.0,131.5,220.5,140.0,220.5,148.0,220.0,156.0,219.5,164.5,218.5,172.5,218.0,181.0,218.0,189.5,218.0,197.5,217.5,205.5,217.5,213.0,217.0,220.0,216.0,227.5,215.5" stroke="black" stroke-width="2" fill="none" />
<polyline points="222.0,212.0,238.0,214.0,254.0,216.0,270.0,214.0" stroke="black" stroke-width="2" fill="none" />
<polyline points="259.5,188.0,251.5,195.5,244.0,203.0" stroke="black" stroke-width="2" fill="none" />
<polyline points="242.5,201.5,233.5,202.0" stroke="black" stroke-width="2" fill="none" />
<polyline points="218.5,195.5,210.0,202.5" stroke="black" stroke-width="2" fill="none" />
<polyline points="210.0,194.5,217.5,187.0,225.5,179.5,234.0,172.0" stroke="black" stroke-width="2" fill="none" />
<polyline points="227.0,172.0,218.5,179.5" stroke="black" stroke-width="2" fill="none" />
<polyline points="226.0,186.5,234.0,179.0" stroke="black" stroke-width="2" fill="none" />
<polyline points="209.5,186.0,202.0,193.5" stroke="black" stroke-width="2" fill="none" />
<polyline points="199.0,197.0,221.0,192.5,211.0,208.0,223.0,225.5" stroke="black" stroke-width="2" fill="none" />
<polyline points="211.0,216.5,203.0,217.5" stroke="black" stroke-width="2" fill="none" />
<polyline points="188.5,196.0,197.0,189.0" stroke="black" stroke-width="2" fill="none" />
<polyline points="195.0,179.5,187.0,187.0" stroke="black" stroke-width="2" fill="none" />
<polyline points="177.5,185.5,185.5,177.5,193.5,170.0" stroke="black" stroke-width="2" fill="none" />
<polyline points="195.0,161.5,187.5,161.5,180.0,162.5,171.5,163.0,164.0,163.5,156.0,164.0,148.0,164.5" stroke="black" stroke-width="2" fill="none" />
<polyline points="156.5,171.0,148.5,178.5" stroke="black" stroke-width="2" fill="none" />
<polyline points="164.0,172.0,172.5,165.0,181.0,157.5" stroke="black" stroke-width="2" fill="none" />
<polyline points="184.5,154.5,200.5,150.5,216.0,155.0,232.0,173.0,248.0,174.5,264.0,174.5,274.0,158.5,282.5,162.5,290.5,162.0" stroke="black" stroke-width="2" fill="none" />
<polyline points="298.0,170.0,290.0,171.0,282.5,171.5,275.5,172.0,267.5,172.5,259.5,172.5,252.0,173.0,243.5,173.5,235.5,174.0,226.5,175.0,217.5,176.5,209.0,178.0,201.0,178.0,194.0,178.5,186.5,179.5,178.5,180.5,171.0,181.0,163.0,181.5,154.5,181.5,146.0,181.5,138.0,181.5,129.5,182.0,121.5,183.0,114.5,183.5,107.0,184.0,99.0,184.0,91.0,184.5,83.0,185.5,76.0,186.0,68.5,186.5,60.5,187.0,52.5,187.5,44.0,188.0,35.5,188.0,27.0,188.5,19.0,189.5,10.5,190.0" stroke="black" stroke-width="2" fill="none" />
<polyline points="13.0,181.5,21.0,181.5" stroke="black" stroke-width="2" fill="none" />
<polyline points="21.0,195.0,37.0,193.0,53.0,187.5,64.5,179.5,80.5,179.5,86.0,189.5,95.5,185.5,103.5,197.5,111.0,173.5,115.0,167.5,131.0,169.5" stroke="black" stroke-width="2" fill="none" />
<polyline points="131.0,161.0,139.0,160.0" stroke="black" stroke-width="2" fill="none" />
<polyline points="131.5,178.0,124.0,178.0" stroke="black" stroke-width="2" fill="none" />
<polyline points="132.0,179.0,116.0,183.0" stroke="black" stroke-width="2" fill="none" />
<polyline points="111.0,190.5,127.5,196.5,152.0,196.0" stroke="black" stroke-width="2" fill="none" />
<polyline points="172.5,212.0,180.5,204.5" stroke="black" stroke-width="2" fill="none" />
<polyline points="186.0,200.0,178.5,200.0,171.0,200.0,163.0,200.5,155.5,201.5,147.5,202.5,139.5,203.5,131.5,204.0,123.5,205.0,116.0,205.5,108.0,205.0,100.5,205.5,93.0,206.5,85.5,207.5,77.0,208.0,69.0,208.5,61.0,209.0,53.0,210.5,45.0,211.5,36.5,212.0,28.0,212.5,19.5,213.0,11.0,213.0,3.0,214.0" stroke="black" stroke-width="2" fill="none" />
<polyline points="2.5,218.5,18.0,220.5,34.0,225.0,38.0,231.0,44.5,232.5,61.0,224.5,74.5,224.5" stroke="black" stroke-width="2" fill="none" />
<polyline points="68.0,220.5,96.0,206.5,116.5,222.0" stroke="black" stroke-width="2" fill="none" />
<polyline points="118.0,230.5,109.5,231.0" stroke="black" stroke-width="2" fill="none" />
<polyline points="115.5,225.5,107.5,226.5,100.0,227.0" stroke="black" stroke-width="2" fill="none" />
<polyline points="82.0,232.0,74.0,233.0" stroke="black" stroke-width="2" fill="none" />
<polyline points="66.0,234.5,58.0,250.5,62.5,252.5,62.5,264.5,71.0,282.5,77.0,298.5,79.0,314.5,75.0,330.5,93.0,324.5,113.0,322.5" stroke="black" stroke-width="2" fill="none" />
<polyline points="111.0,300.0,117.0,283.5,115.0,281.5,99.0,279.5" stroke="black" stroke-width="2" fill="none" />
<polyline points="92.0,289.0,108.0,302.5" stroke="black" stroke-width="2" fill="none" />
<polyline points="116.0,274.5,123.5,274.0" stroke="black" stroke-width="2" fill="none" />
<polyline points="107.5,249.5,99.0,250.0" stroke="black" stroke-width="2" fill="none" />
<polyline points="83.5,248.5,76.0,249.0" stroke="black" stroke-width="2" fill="none" />
<polyline points="77.5,271.5,79.5,267.5,91.0,290.0,105.5,306.5" stroke="black" stroke-width="2" fill="none" />
<polyline points="58.5,272.0,50.5,273.0,42.0,273.5" stroke="black" stroke-width="2" fill="none" />
<polyline points="43.0,265.0,51.0,265.0,58.5,264.0" stroke="black" stroke-width="2" fill="none" />
<polyline points="51.5,256.5,43.5,257.0" stroke="black" stroke-width="2" fill="none" />
<polyline points="50.0,239.5,66.0,229.5,81.5,229.5" stroke="black" stroke-width="2" fill="none" />
<polyline points="87.0,208.0,113.0,224.0,137.0,232.5" stroke="black" stroke-width="2" fill="none" />
<polyline points="116.5,201.0,108.5,201.5,100.5,202.0" stroke="black" stroke-width="2" fill="none" />
<polyline points="90.5,193.0,82.5,193.0" stroke="black" stroke-width="2" fill="none" />
<polyline points="82.0,206.0,98.0,212.5,114.0,214.5" stroke="black" stroke-width="2" fill="none" />
<polyline points="108.0,178.5,100.0,178.5" stroke="black" stroke-width="2" fill="none" />
<polyline points="107.0,146.5,115.5,146.0" stroke="black" stroke-width="2" fill="none" />
<polyline points="123.0,131.0,131.0,130.5" stroke="black" stroke-width="2" fill="none" />
<polyline points="141.0,128.5,148.5,127.5" stroke="black" stroke-width="2" fill="none" />
<polyline points="147.0,123.5,139.0,131.0,130.5,139.0,123.0,146.5,115.0,154.0,107.5,161.5,99.0,168.5,91.0,175.5,82.5,182.5,74.5,189.5,66.5,197.0,58.5,205.0,51.0,213.0" stroke="black" stroke-width="2" fill="none" />
<polyline points="44.0,226.0,51.5,218.5,59.0,211.0,66.5,203.5,73.5,196.0,81.5,189.0,89.5,181.5,97.5,174.0,105.5,167.0,113.5,159.0,122.0,152.0,131.0,144.5,139.5,137.0,147.5,130.0,155.5,123.0,163.5,116.0,171.5,108.5,179.5,101.0" stroke="black" stroke-width="2" fill="none" />
<polyline points="170.0,100.5,162.0,108.0,154.5,115.0" stroke="black" stroke-width="2" fill="none" />
<polyline points="148.0,115.0,156.0,108.0" stroke="black" stroke-width="2" fill="none" />
<polyline points="147.0,102.5,163.5,98.5,143.5,100.5,142.0,89.0,156.0,79.5,172.0,74.0,184.5,78.0" stroke="black" stroke-width="2" fill="none" />
<polyline points="188.5,90.0,196.5,83.0" stroke="black" stroke-width="2" fill="none" />
<polyline points="203.0,79.0,210.5,78.5,218.5,77.5,226.0,76.5,233.0,76.0,241.0,76.0,249.5,74.5" stroke="black" stroke-width="2" fill="none" />
<polyline points="253.5,76.0,245.5,83.5" stroke="black" stroke-width="2" fill="none" />
<polyline points="251.0,92.5,259.0,92.0" stroke="black" stroke-width="2" fill="none" />
<polyline points="266.0,94.5,282.0,114.5,298.0,108.5,314.0,116.5" stroke="black" stroke-width="2" fill="none" />
<polyline points="301.5,110.5,303.5,126.5,312.0,142.0,314.0,158.0,318.5,174.5,336.5,192.5,352.5,196.5,368.5,194.5,384.5,190.5,400.0,188.5" stroke="black" stroke-width="2" fill="none" />
<polyline points="379.0,150.0,361.0,158.0,371.0,150.5,367.0,135.0" stroke="black" stroke-width="2" fill="none" />
<polyline points="368.5,126.0,378.5,142.0,382.5,158.0" stroke="black" stroke-width="2" fill="none" />
<polyline points="363.0,123.5,358.5,139.5,336.0,153.5,344.0,173.5,359.5,171.5,375.5,162.0,401.5,154.0,401.5,162.5,418.0,164.5,426.0,168.5,434.5,174.5,450.0,173.0,466.0,164.5,482.0,163.0,497.5,161.0,509.5,145.0" stroke="black" stroke-width="2" fill="none" />
<polyline points="509.5,107.5,495.5,105.5,493.5,95.5" stroke="black" stroke-width="2" fill="none" />
<polyline points="492.0,101.0,508.0,117.0" stroke="black" stroke-width="2" fill="none" />
<polyline points="504.5,117.5,489.0,101.0,481.0,89.0" stroke="black" stroke-width="2" fill="none" />
<polyline points="463.0,74.0,465.0,70.5,475.0,76.0,447.0,92.0,461.0,94.5,454.5,110.5,464.5,118.0,492.5,111.5" stroke="black" stroke-width="2" fill="none" />
<polyline points="506.5,70.0,490.0,82.0,470.0,88.5,468.0,82.0,451.5,90.0,433.5,91.5,431.5,85.5,420.0,86.0,404.0,98.5,388.0,90.5,372.5,97.0,362.0,105.0,350.0,126.5,350.0,134.5,334.0,148.5,338.5,130.5,370.5,114.5,376.5,99.0,397.0,80.5,419.5,74.5,411.5,68.5" stroke="black" stroke-width="2" fill="none" />
<polyline points="406.5,56.5,422.5,60.5,438.5,56.0" stroke="black" stroke-width="2" fill="none" />
<polyline points="424.5,76.0,414.5,92.0,416.5,104.0,400.5,114.0,380.0,130.0,391.5,124.0,407.5,122.0,417.5,98.5,433.5,98.5,452.0,98.5" stroke="black" stroke-width="2" fill="none" />
<polyline points="438.5,81.5,438.5,93.5,428.5,109.5,426.5,125.5,398.5,134.0,412.0,140.0,396.0,158.5,402.5,176.5,400.5,188.5,402.0,194.5,416.0,203.0,386.0,215.0,388.0,230.5,382.0,246.5,386.0,256.5,378.0,256.5,372.0,262.0,364.5,264.0,360.5,282.5,342.5,299.0,318.5,307.0,348.5,307.0,339.0,320.5,341.0,334.5,348.5,336.5,364.5,328.5,380.5,314.0,384.5,304.0,400.5,318.0,408.5,310.0,420.5,306.5,436.5,298.5,452.0,301.0,468.0,303.0,478.0,312.5,482.0,318.5,492.0,300.5,496.5,326.5" stroke="black" stroke-width="2" fill="none" />
<polyline points="477.5,169.5,461.5,175.5,475.0,165.5" stroke="black" stroke-width="2" fill="none" />
<polyline points="468.0,137.0,465.5,128.5,477.5,123.0,465.0,128.5,449.0,140.5,438.5,134.0,430.5,127.5,415.0,136.0,414.5,144.0,408.5,142.0,399.0,132.0,383.5,145.5,368.0,157.5,352.0,166.0,336.0,168.0,328.0,150.0,322.0,137.5,318.0,127.5,304.0,133.5,300.0,119.5,286.5,129.5,276.5,131.5,258.5,145.5,238.5,162.0,236.5,150.5,256.5,138.5,268.5,120.0,242.5,114.5,236.5,114.5,241.0,100.5,231.0,92.0,227.0,76.0,223.0,57.5,239.0,49.5,239.0,33.0,221.0,19.0,221.0,17.0" stroke="black" stroke-width="2" fill="none" />
<polyline points="209.5,12.5,223.5,28.0,227.5,44.0,231.0,60.0,238.5,76.0,250.5,84.0,252.5,90.0,244.5,102.0,254.5,118.0,270.0,120.0,289.5,118.0" stroke="black" stroke-width="2" fill="none" />
<polyline points="292.5,114.0,284.5,122.0" stroke="black" stroke-width="2" fill="none" />
<polyline points="284.5,113.0,292.5,106.0" stroke="black" stroke-width="2" fill="none" />
<polyline points="293.0,98.5,284.5,106.0" stroke="black" stroke-width="2" fill="none" />
<polyline points="285.0,108.0,285.0,124.5,301.0,130.5,306.5,147.0,310.5,163.5,296.5,169.5,314.5,179.0,310.0,191.0,310.0,202.5,310.0,208.0,314.0,224.0,322.0,240.0,324.0,248.5,326.0,258.5,328.0,270.5,307.5,286.0,317.5,270.5,333.5,262.0" stroke="black" stroke-width="2" fill="none" />
<polyline points="294.5,183.0,279.0,179.0" stroke="black" stroke-width="2" fill="none" />
<polyline points="277.5,185.0,293.5,187.0,309.0,187.0,325.0,195.0,331.0,217.0,343.0,232.5" stroke="black" stroke-width="2" fill="none" />
<polyline points="307.5,141.0,299.5,141.0" stroke="black" stroke-width="2" fill="none" />
<polyline points="291.5,132.5,283.0,133.0" stroke="black" stroke-width="2" fill="none" />
<polyline points="268.5,125.0,276.5,124.5,284.0,124.5,291.5,123.5,299.0,122.5,306.0,121.5,314.5,121.0,322.5,120.5,330.5,120.5" stroke="black" stroke-width="2" fill="none" />
<polyline points="341.0,107.0,349.0,99.0" stroke="black" stroke-width="2" fill="none" />
<polyline points="340.5,91.5,332.5,99.0" stroke="black" stroke-width="2" fill="none" />
<polyline points="337.0,107.0,329.5,108.0,321.0,109.0,313.5,110.0,306.0,110.5,298.0,111.0,290.5,111.5,282.5,112.0,274.5,113.0,266.5,113.0,258.5,113.5,250.5,114.0,242.5,114.5,234.5,115.0,226.5,115.5,218.5,115.5,211.0,116.0,204.0,117.0,196.5,117.5" stroke="black" stroke-width="2" fill="none" />
<polyline points="188.0,110.5,196.5,109.5,204.5,108.5,212.5,107.5" stroke="black" stroke-width="2" fill="none" />
<polyline points="219.5,101.0,211.0,102.0,202.5,102.0,194.5,103.0" stroke="black" stroke-width="2" fill="none" />
<polyline points="179.5,105.0,172.0,105.5,164.0,106.5,156.5,107.0,148.5,107.0,140.0,107.5,132.5,108.0,124.5,108.5,116.5,109.0,109.0,109.0,101.0,109.5" stroke="black" stroke-width="2" fill="none" />
<polyline points="101.0,103.0,109.0,102.5,116.0,101.5,124.0,100.5,132.0,99.5,140.0,99.0,148.0,98.5,155.0,97.5,163.5,97.0,172.0,96.5,180.5,95.5,188.0,95.5" stroke="black" stroke-width="2" fill="none" />
<polyline points="172.5,92.5,180.0,92.5,187.5,91.5,195.5,91.5,203.0,91.0,211.0,91.5,219.0,91.0,226.5,90.5,234.0,90.5,242.0,89.5" stroke="black" stroke-width="2" fill="none" />
<polyline points="235.0,87.0,243.0,86.0,251.0,85.0" stroke="black" stroke-width="2" fill="none" />
<polyline points="258.0,78.5,266.0,77.5,274.0,76.5,282.0,75.5,290.0,75.0,298.0,74.5,306.0,73.5,313.5,72.5,321.5,72.5,330.0,72.0,338.0,71.5" stroke="black" stroke-width="2" fill="none" />
<polyline points="341.5,76.5,333.0,83.5" stroke="black" stroke-width="2" fill="none" />
<polyline points="327.5,88.0,341.5,90.0,345.5,109.5,335.5,111.5,339.0,119.0" stroke="black" stroke-width="2" fill="none" />
<polyline points="348.5,105.5,340.0,106.0,332.0,106.5,324.5,106.5,316.0,107.0,307.5,107.5,299.0,108.0,290.5,109.0,282.0,109.5,274.5,109.5" stroke="black" stroke-width="2" fill="none" />
<polyline points="277.0,106.0,284.5,98.5" stroke="black" stroke-width="2" fill="none" />
<polyline points="285.0,91.5,276.5,98.5" stroke="black" stroke-width="2" fill="none" />
<polyline points="276.0,93.0,268.0,100.5" stroke="black" stroke-width="2" fill="none" />
<polyline points="267.5,101.0,275.5,100.5,283.5,100.0,291.5,100.0,299.0,99.5,306.5,99.0,314.0,98.0,322.0,97.0,329.5,96.5,337.0,96.0,345.0,95.5" stroke="black" stroke-width="2" fill="none" />
<polyline points="348.0,88.5,340.0,89.5,332.5,90.0,325.0,90.5,317.0,90.5,309.0,90.5,301.0,90.5,293.0,91.0,285.0,91.0,277.0,91.0,269.0,91.5" stroke="black" stroke-width="2" fill="none" />
<polyline points="269.0,84.5,277.0,84.5,285.0,83.5,292.5,82.5,300.0,81.5,308.0,80.5,316.0,80.5,325.0,81.0,333.5,81.5,342.0,81.5,350.0,81.5" stroke="black" stroke-width="2" fill="none" />
<polyline points="365.5,85.0,382.0,79.5,398.5,78.0,404.5,78.0" stroke="black" stroke-width="2" fill="none" />
<polyline points="412.5,84.0,394.5,100.0,386.5,110.0,402.5,94.0,410.5,73.5,426.5,73.5,452.5,70.0,468.0,64.0,484.0,68.0,492.0,64.5,502.0,56.5" stroke="black" stroke-width="2" fill="none" />
<polyline points="510.0,32.0,494.5,54.0,478.5,56.0,474.5,52.5,460.5,52.0,444.5,64.5,428.0,68.5,458.5,54.5,468.5,50.5" stroke="black" stroke-width="2" fill="none" />
<polyline points="466.5,53.0,448.5,49.0,432.5,53.0,424.0,66.5,408.5,68.5,392.5,72.5,376.5,72.0,370.5,68.0,355.0,82.0,371.0,72.0" stroke="black" stroke-width="2" fill="none" />
<polyline points="366.0,35.5,366.0,37.5,364.0,47.5,386.0,38.0,402.0,36.0,415.5,26.5,432.0,16.5,448.0,10.5,463.5,7.0,479.5,15.0,495.5,9.0" stroke="black" stroke-width="2" fill="none" />
<polyline points="503.5,11.0,494.0,30.5,492.0,40.5,486.0,40.5,495.5,24.5,495.5,21.0,483.5,22.5,467.0,20.5,459.0,14.0,443.0,20.0,427.0,28.0,411.0,36.5,395.0,46.5,379.0,54.5,371.5,54.5,403.5,26.5,416.0,16.5,432.0,10.5,454.5,4.5,436.0,8.5,420.5,6.5,404.5,8.0,396.0,15.5,379.5,23.5,363.5,25.5,341.0,39.5,333.0,31.5,325.0,25.5,343.0,1.5,329.5,7.5" stroke="black" stroke-width="2" fill="none" />
<polyline points="330.5,9.5,347.0,7.5,357.0,8.0,361.0,16.5,377.5,14.5,383.5,10.5,403.5,18.5,413.5,14.0" stroke="black" stroke-width="2" fill="none" />
<polyline points="416.0,29.5,400.5,31.5,385.0,32.0,377.5,18.0,361.5,20.5" stroke="black" stroke-width="2" fill="none" />
<polyline points="362.5,32.0,378.5,30.5,394.5,28.5" stroke="black" stroke-width="2" fill="none" />
<polyline points="411.0,37.0,405.0,55.0,420.5,47.0,436.5,38.5,452.0,34.0" stroke="black" stroke-width="2" fill="none" />
<polyline points="450.5,7.0,458.5,6.5" stroke="black" stroke-width="2" fill="none" />
<polyline points="507.0,27.0,511.0,43.0,511.0,61.0,481.0,85.0,489.0,93.0,468.5,102.5,476.0,108.5,458.0,122.5,463.5,110.5,471.5,98.0,487.5,92.0,495.5,84.0,507.5,86.0" stroke="black" stroke-width="2" fill="none" />
<polyline points="376.5,105.5,360.5,119.5" stroke="black" stroke-width="2" fill="none" />
<polyline points="342.5,101.5,326.5,93.5,310.5,97.5" stroke="black" stroke-width="2" fill="none" />
<polyline points="305.5,101.5,321.5,101.5,337.0,107.5" stroke="black" stroke-width="2" fill="none" />
<polyline points="339.5,91.0,328.0,81.0,312.5,85.5,296.5,93.5,312.5,85.0,314.0,74.5,298.0,82.0,281.5,86.0" stroke="black" stroke-width="2" fill="none" />
<polyline points="292.5,91.5,300.5,84.5" stroke="black" stroke-width="2" fill="none" />
<polyline points="306.5,85.0,298.0,92.5" stroke="black" stroke-width="2" fill="none" />
<polyline points="289.0,75.5,304.5,67.0" stroke="black" stroke-width="2" fill="none" />
<polyline points="318.5,73.5,334.5,73.5,362.0,90.0,378.0,88.5,394.0,82.5" stroke="black" stroke-width="2" fill="none" />
<polyline points="325.0,75.0,317.0,83.0" stroke="black" stroke-width="2" fill="none" />
<polyline points="323.0,85.5,305.0,102.0,316.5,122.0" stroke="black" stroke-width="2" fill="none" />
<polyline points="322.0,93.0,341.5,108.5,329.5,118.5,331.0,134.5,326.5,150.5,328.5,155.0,324.0,174.5,319.5,182.5,345.0,194.5,369.0,213.0,373.0,223.0,359.0,241.0,347.0,248.5,333.5,254.0,349.5,260.0,345.5,275.5,358.0,291.0,376.0,291.5,384.0,291.0,398.0,273.0,414.0,281.0,422.0,297.0,428.0,291.5,450.5,282.0,466.5,280.0,482.5,268.0,498.0,276.5,510.0,283.0" stroke="black" stroke-width="2" fill="none" />
<polyline points="275.5,139.5,267.5,139.5,260.0,140.0" stroke="black" stroke-width="2" fill="none" />
<polyline points="253.0,139.5,245.0,147.0" stroke="black" stroke-width="2" fill="none" />
<polyline points="242.0,147.0,250.0,146.5,258.5,146.5,267.0,146.0" stroke="black" stroke-width="2" fill="none" />
<polyline points="253.5,131.5,245.5,139.0" stroke="black" stroke-width="2" fill="none" />
<polyline points="245.0,129.5,252.5,121.5" stroke="black" stroke-width="2" fill="none" />
<polyline points="243.0,125.0,235.0,132.5" stroke="black" stroke-width="2" fill="none" />
<polyline points="233.5,132.5,241.5,132.0,249.5,132.0" stroke="black" stroke-width="2" fill="none" />
<polyline points="250.5,140.0,242.5,140.5,234.0,140.5" stroke="black" stroke-width="2" fill="none" />
<polyline points="234.5,125.5,242.5,125.5,250.5,124.5,258.5,123.5" stroke="black" stroke-width="2" fill="none" />
<polyline points="267.5,107.5,259.5,108.0,251.5,108.5,243.5,109.0,235.5,109.5,227.5,109.5" stroke="black" stroke-width="2" fill="none" />
<polyline points="227.0,100.5,234.5,100.0,242.0,100.5,250.5,100.5,259.5,99.5" stroke="black" stroke-width="2" fill="none" />
<polyline points="259.0,74.5,266.5,67.0" stroke="black" stroke-width="2" fill="none" />
<polyline points="266.5,59.5,258.5,67.0" stroke="black" stroke-width="2" fill="none" />
<polyline points="258.5,64.0,266.0,63.5,274.0,62.5,281.5,61.5" stroke="black" stroke-width="2" fill="none" />
<polyline points="285.0,64.0,277.5,64.5,269.5,64.5,261.0,65.0,253.0,66.0,245.0,67.0,236.5,68.0,228.5,69.0,221.0,70.0,212.5,70.5" stroke="black" stroke-width="2" fill="none" />
<polyline points="212.0,65.5,220.0,58.0" stroke="black" stroke-width="2" fill="none" />
<polyline points="213.0,58.0,221.0,50.0" stroke="black" stroke-width="2" fill="none" />
<polyline points="212.0,44.5,219.5,43.5,227.5,43.5,235.5,42.5,243.5,42.0,251.5,41.5" stroke="black" stroke-width="2" fill="none" />
<polyline points="258.5,48.5,250.5,49.0,243.0,49.5,235.0,50.5,227.5,51.5,220.0,52.5,212.0,53.0,204.0,53.5,196.0,54.0,187.5,54.5,179.5,55.0" stroke="black" stroke-width="2" fill="none" />
<polyline points="186.0,55.5,202.0,61.5" stroke="black" stroke-width="2" fill="none" />
<polyline points="203.0,61.0,211.0,60.5,218.5,59.5,226.5,59.0,234.0,59.0,242.0,58.5,249.5,58.5" stroke="black" stroke-width="2" fill="none" />
<polyline points="255.5,60.0,260.0,76.0,256.0,92.0,262.0,88.0,250.5,104.5,246.5,120.5,248.5,136.5,250.5,152.0,238.5,168.0,233.0,192.0,235.0,206.0,227.0,216.0,229.0,234.5,233.0,234.5" stroke="black" stroke-width="2" fill="none" />
<polyline points="233.5,247.0,226.0,247.5,218.5,248.0,210.5,249.0,202.0,249.5,195.0,250.5,188.0,251.0,180.5,251.5,172.0,252.0,163.5,252.0,156.0,252.5,148.0,253.5,140.5,254.0,132.5,254.0,124.0,254.5,116.5,255.0,108.5,255.5,100.5,256.0,93.0,256.0,85.0,256.5,77.0,257.0,68.5,257.5,60.0,258.0,52.0,259.0,44.0,259.5,36.0,260.0,27.5,260.0,19.5,260.5,11.0,260.5,3.0,261.0" stroke="black" stroke-width="2" fill="none" />
<polyline points="3.0,248.5,10.0,241.5,17.5,234.0,26.0,227.0,33.5,219.5" stroke="black" stroke-width="2" fill="none" />
<polyline points="27.0,220.5,19.5,228.0,11.5,234.5" stroke="black" stroke-width="2" fill="none" />
<polyline points="5.5,237.5,13.5,237.0,21.5,236.0,29.0,235.5,36.5,235.0,44.5,234.5,52.0,234.0,59.0,233.5,66.0,232.5,74.0,232.0,82.0,232.0,90.0,231.0,99.0,231.0,107.5,230.5,116.5,230.0,125.0,230.0,133.5,229.5,141.5,229.0,149.5,228.5,157.5,228.5,165.0,228.0,173.0,227.5,181.0,227.0,189.0,226.5,197.0,225.5,204.5,225.0,212.5,224.0,220.5,222.5,228.0,222.0,236.0,221.5" stroke="black" stroke-width="2" fill="none" />
<polyline points="209.5,162.5,217.5,155.0" stroke="black" stroke-width="2" fill="none" />
<polyline points="203.5,148.5,195.5,156.0" stroke="black" stroke-width="2" fill="none" />
<polyline points="196.0,158.0,216.0,174.0,204.0,188.0,202.0,202.0,179.5,219.5,180.0,245.5,172.0,261.5,166.5,278.0,172.5,296.0,176.5,311.5,170.5,327.5,181.0,327.5" stroke="black" stroke-width="2" fill="none" />
<polyline points="170.5,264.0,186.5,252.0,188.5,244.5,204.5,244.5,196.5,258.0,212.5,250.0,228.5,248.5" stroke="black" stroke-width="2" fill="none" />
<polyline points="234.5,150.5,227.0,152.0,219.0,152.5,211.5,153.0,204.5,153.0,196.5,154.0,188.5,155.0,181.0,156.0,173.0,156.5,165.5,157.0" stroke="black" stroke-width="2" fill="none" />
<polyline points="171.5,150.0,180.0,150.0,188.5,149.5,196.0,149.0,203.0,148.5,210.0,147.5,218.5,147.0,226.5,146.0,234.0,145.5" stroke="black" stroke-width="2" fill="none" />
<polyline points="209.5,131.0,202.0,138.5" stroke="black" stroke-width="2" fill="none" />
<polyline points="188.0,135.0,196.5,134.5,204.5,133.5,212.5,132.5,220.5,132.0" stroke="black" stroke-width="2" fill="none" />
<polyline points="219.5,123.5,211.5,125.0,204.0,125.5,196.5,126.0,188.5,126.5" stroke="black" stroke-width="2" fill="none" />
<polyline points="191.5,128.5,207.5,124.0,223.5,128.0,233.0,138.0,239.0,124.0" stroke="black" stroke-width="2" fill="none" />
<polyline points="228.0,137.5,220.0,138.0,212.5,139.5,204.5,140.5,196.5,141.5,188.0,142.5,179.5,143.0" stroke="black" stroke-width="2" fill="none" />
<polyline points="171.5,135.5,159.0,151.5,149.0,178.0,154.5,180.0,156.5,192.0,150.0,190.0,159.5,174.5,175.5,158.5,191.0,134.5,207.0,130.0,211.0,142.0,227.0,150.0,249.0,132.0,261.0,121.5" stroke="black" stroke-width="2" fill="none" />
<polyline points="224.5,122.0,208.5,118.0" stroke="black" stroke-width="2" fill="none" />
<polyline points="170.5,116.0,162.0,123.5,154.5,131.0,147.0,138.0,138.5,145.0,130.5,152.5,122.5,159.5,114.5,167.5,106.5,174.5,98.5,182.0,90.5,189.5,83.0,197.0,75.0,204.5,67.0,212.5,58.5,220.0,51.0,227.5" stroke="black" stroke-width="2" fill="none" />
<polyline points="51.0,204.0,59.0,196.0,66.5,189.0,75.0,182.0,83.0,174.5,91.0,167.5,99.5,160.0,108.0,152.5,116.5,144.5,125.0,136.5,133.0,128.5,141.0,121.5" stroke="black" stroke-width="2" fill="none" />
<polyline points="140.5,114.5,132.5,122.0,124.0,129.5,116.0,137.0,108.0,144.0,99.5,151.0,91.5,159.0,83.5,167.0,75.5,175.0,67.5,183.0,59.5,190.5,51.5,198.0,43.5,205.5" stroke="black" stroke-width="2" fill="none" />
<polyline points="44.5,196.5,52.5,189.5,60.0,182.0,67.5,174.5,75.5,167.0,83.5,159.5,91.5,152.0,100.0,144.5,108.0,136.5,116.0,128.0,123.5,120.5,131.5,113.0,139.0,105.5,146.5,98.0,155.0,90.5,162.5,83.0" stroke="black" stroke-width="2" fill="none" />
<polyline points="162.0,75.5,170.0,68.0" stroke="black" stroke-width="2" fill="none" />
<polyline points="172.5,60.0,164.5,60.5" stroke="black" stroke-width="2" fill="none" />
<polyline points="179.5,67.0,171.5,67.5,164.0,68.0,156.0,68.5,148.5,69.0,140.5,70.0,133.0,70.5" stroke="black" stroke-width="2" fill="none" />
<polyline points="131.5,74.0,123.5,81.5,116.0,89.5" stroke="black" stroke-width="2" fill="none" />
<polyline points="113.5,87.0,121.5,86.5,130.0,85.5,138.5,84.0" stroke="black" stroke-width="2" fill="none" />
<polyline points="139.0,82.0,147.5,74.5" stroke="black" stroke-width="2" fill="none" />
<polyline points="150.5,72.5,134.5,88.0,100.5,104.0,92.5,109.5,76.5,116.0,94.0,132.0,86.5,126.5,102.5,128.5" stroke="black" stroke-width="2" fill="none" />
<polyline points="93.0,122.5,84.5,130.0" stroke="black" stroke-width="2" fill="none" />
<polyline points="81.5,125.0,74.5,132.0" stroke="black" stroke-width="2" fill="none" />
<polyline points="75.0,138.0,67.5,145.0" stroke="black" stroke-width="2" fill="none" />
<polyline points="59.0,147.0,50.5,154.5" stroke="black" stroke-width="2" fill="none" />
<polyline points="59.0,156.0,51.0,163.5,43.5,171.0" stroke="black" stroke-width="2" fill="none" />
<polyline points="45.5,182.5,54.0,175.0,62.0,168.0,69.5,160.5,77.5,153.5,85.5,146.5,93.0,139.0,101.0,132.0,109.0,124.5,117.0,117.0,124.5,109.0,132.5,101.0" stroke="black" stroke-width="2" fill="none" />
<polyline points="140.5,99.5,132.5,106.5,124.5,113.5,116.0,121.0,107.5,129.0,99.5,136.5,91.0,144.5,83.0,152.0,74.5,160.0,66.5,167.5,58.5,175.0,50.0,182.5,42.5,190.0" stroke="black" stroke-width="2" fill="none" />
<polyline points="38.5,187.0,44.5,177.0" stroke="black" stroke-width="2" fill="none" />
<polyline points="32.5,193.5,42.0,210.0,54.0,222.0,64.0,228.0,54.0,244.0,28.0,240.0,24.5,268.0,20.5,272.0,5.0,276.0,7.0,294.0,15.0,301.5,19.0,314.0,5.0,320.0,5.0,333.5,21.0,331.5,14.5,327.0,16.0,337.0,42.0,333.0,57.5,329.0,59.5,322.5,73.0,328.5,77.5,332.5,83.5,324.5,86.0,337.0,102.0,337.5,108.0,328.0,114.5,332.0,128.5,320.5,139.0,338.5,147.5,329.0,155.5,325.0,171.5,333.0,187.0,335.0" stroke="black" stroke-width="2" fill="none" />
<polyline points="118.0,318.5,102.0,319.0,74.0,325.0,57.5,321.0,41.5,313.0" stroke="black" stroke-width="2" fill="none" />
<polyline points="36.5,321.5,29.0,322.5" stroke="black" stroke-width="2" fill="none" />
<polyline points="29.5,328.5,37.0,328.5" stroke="black" stroke-width="2" fill="none" />
<polyline points="28.5,280.5,20.5,281.5" stroke="black" stroke-width="2" fill="none" />
<polyline points="24.0,272.5,26.5,266.5,42.5,276.5,48.5,292.5,39.5,312.5,33.5,316.5,37.5,332.5" stroke="black" stroke-width="2" fill="none" />
<polyline points="2.5,259.5,10.0,251.5,17.0,244.5,25.0,237.0" stroke="black" stroke-width="2" fill="none" />
<polyline points="18.5,237.5,23.0,253.5,39.0,252.0,39.5,260.0,65.5,240.0,79.0,258.5,105.0,268.5,114.5,268.0" stroke="black" stroke-width="2" fill="none" />
<polyline points="149.0,313.0,135.0,305.0,121.0,305.0,114.5,287.5,108.5,295.5,100.0,271.5,96.5,262.0,86.5,286.0,60.5,270.0,56.0,274.5,56.0,278.5,40.0,275.0,30.5,289.0,22.5,289.0,10.0,284.5,8.0,296.5,9.5,280.5,14.0,264.5,12.0,248.5,6.0,228.0,1.5,242.0" stroke="black" stroke-width="2" fill="none" />
<polyline points="1.5,219.0,10.0,211.5" stroke="black" stroke-width="2" fill="none" />
<polyline points="12.5,200.5,20.5,200.5" stroke="black" stroke-width="2" fill="none" />
<polyline points="21.0,200.0,28.5,192.0,37.0,185.0,44.5,177.5,52.5,170.5,60.0,163.0,67.5,156.0" stroke="black" stroke-width="2" fill="none" />
<polyline points="77.0,145.5,84.0,137.5,92.0,130.5,100.0,123.0,108.0,116.0,116.5,108.5,125.0,100.5,132.5,92.5" stroke="black" stroke-width="2" fill="none" />
<polyline points="133.5,81.5,141.5,81.5" stroke="black" stroke-width="2" fill="none" />
<polyline points="147.0,82.5,155.0,82.0,162.5,82.0,170.0,82.0,178.0,81.5,185.5,81.0,193.5,80.5,201.5,81.0,209.5,81.0,218.0,80.5,226.0,79.5" stroke="black" stroke-width="2" fill="none" />
<polyline points="235.5,67.0,243.5,60.0" stroke="black" stroke-width="2" fill="none" />
<polyline points="241.5,38.0,259.5,54.0,265.0,70.0,279.0,78.0,267.0,96.0,259.0,97.5,260.5,102.0" stroke="black" stroke-width="2" fill="none" />
<polyline points="287.5,71.0,291.5,61.0,311.5,37.5,327.0,55.5" stroke="black" stroke-width="2" fill="none" />
<polyline points="342.5,60.0,344.5,44.0,334.5,44.0,318.0,42.0,302.0,30.0" stroke="black" stroke-width="2" fill="none" />
<polyline points="312.0,31.0,312.0,46.5,312.0,56.5,308.5,66.5" stroke="black" stroke-width="2" fill="none" />
<polyline points="314.0,34.5,326.0,50.0,340.0,46.5" stroke="black" stroke-width="2" fill="none" />
<polyline points="315.5,11.5,311.5,27.5,301.0,33.5,298.5,59.5,300.5,69.5,286.5,77.5,284.5,100.0,300.5,98.0,316.0,87.5,332.5,87.5,348.0,98.0,366.0,78.0,376.5,62.0,382.5,64.0,388.5,42.0,402.5,48.0,418.0,40.0,427.5,47.5,435.5,27.5,449.5,37.5,457.5,19.5,480.0,7.5,496.0,3.5" stroke="black" stroke-width="2" fill="none" />
<polyline points="381.5,3.0,365.5,8.5" stroke="black" stroke-width="2" fill="none" />
<polyline points="312.0,10.5,290.0,26.5,292.0,32.5,294.0,22.5,298.5,9.0" stroke="black" stroke-width="2" fill="none" />
<polyline points="285.0,4.5,274.5,4.0,256.5,8.0,248.5,6.0,234.5,10.0,218.5,12.0,206.5,6.0,188.5,6.5,180.5,16.0,164.5,26.0,154.5,20.0,126.5,22.0,110.5,16.0,94.5,10.0,78.0,26.0,72.0,28.5,56.5,20.5,41.0,20.5,39.0,24.5" stroke="black" stroke-width="2" fill="none" />
<polyline points="48.0,29.0,64.0,31.0,80.0,33.5,100.5,34.0" stroke="black" stroke-width="2" fill="none" />
<polyline points="95.0,22.5,79.0,20.5,63.0,6.5" stroke="black" stroke-width="2" fill="none" />
<polyline points="74.5,5.0,90.5,5.0,106.5,4.5,122.5,4.5,140.5,8.5,156.5,10.5" stroke="black" stroke-width="2" fill="none" />
<polyline points="159.0,14.0,143.0,14.0,127.0,13.5,111.0,11.5" stroke="black" stroke-width="2" fill="none" />
<polyline points="103.0,7.5,119.5,7.5,135.5,4.0,151.5,4.0" stroke="black" stroke-width="2" fill="none" />
<polyline points="121.0,26.5,105.5,20.5,89.5,17.0" stroke="black" stroke-width="2" fill="none" />
<polyline points="97.5,18.0,121.5,34.0,123.0,50.5,117.0,60.5,148.5,44.5,164.5,48.5,180.5,52.5,196.0,50.5,212.0,38.0,228.0,32.0,244.0,40.0,258.0,36.0,273.5,42.0" stroke="black" stroke-width="2" fill="none" />
<polyline points="264.5,34.0,248.5,28.0" stroke="black" stroke-width="2" fill="none" />
<polyline points="235.5,36.5,227.0,36.5" stroke="black" stroke-width="2" fill="none" />
<polyline points="214.5,36.5,214.5,44.5,216.5,60.5,222.5,76.5,222.5,92.0,205.0,107.5,184.5,116.0,156.5,122.0,134.5,142.0,126.5,152.5,126.5,146.5,150.5,138.0,160.5,128.0,178.5,121.5,182.5,111.0" stroke="black" stroke-width="2" fill="none" />
<polyline points="173.0,113.5,165.0,114.0" stroke="black" stroke-width="2" fill="none" />
<polyline points="162.0,93.0,169.5,86.0" stroke="black" stroke-width="2" fill="none" />
<polyline points="155.0,84.0,147.0,91.5" stroke="black" stroke-width="2" fill="none" />
<polyline points="138.0,73.0,130.0,80.5,122.5,89.0,115.0,97.5,107.0,105.5" stroke="black" stroke-width="2" fill="none" />
<polyline points="115.0,105.5,123.5,105.0,131.5,105.0" stroke="black" stroke-width="2" fill="none" />
<polyline points="137.5,121.5,129.0,122.0,121.0,122.5" stroke="black" stroke-width="2" fill="none" />
<polyline points="115.0,113.5,123.0,113.0,131.0,113.0" stroke="black" stroke-width="2" fill="none" />
<polyline points="107.5,95.0,115.5,94.0,123.0,93.0,131.0,92.5,139.0,92.0,147.0,91.5,155.5,90.5" stroke="black" stroke-width="2" fill="none" />
<polyline points="188.0,73.0,179.5,73.0,171.5,73.5,164.0,74.0,156.5,75.0,148.5,75.0,140.0,76.0,132.0,76.5,124.0,77.0,116.0,77.5" stroke="black" stroke-width="2" fill="none" />
<polyline points="95.5,72.0,111.5,80.5,113.5,90.0,133.5,105.5,149.5,95.5,167.5,88.0,183.5,96.5,199.0,96.5" stroke="black" stroke-width="2" fill="none" />
<polyline points="195.0,70.5,203.0,70.0" stroke="black" stroke-width="2" fill="none" />
<polyline points="202.0,70.5,186.0,62.0,174.0,66.0,158.0,63.5,142.0,68.0,126.0,76.0,124.0,64.5,108.0,46.5,91.5,46.5,75.5,38.5,63.5,42.0,41.5,28.0,20.0,4.0,4.0,16.0" stroke="black" stroke-width="2" fill="none" />
<polyline points="12.5,16.0,14.5,21.5,4.5,25.5,8.5,27.5,4.0,44.0,14.5,52.0,28.5,72.0,18.5,90.5,34.0,91.0,56.0,92.5,78.0,99.0,88.0,114.5,103.5,114.5,113.5,96.0,131.0,92.0,147.0,73.5,163.0,71.5,177.0,88.0,179.0,82.0,197.0,102.0,209.5,114.0,223.0,116.5" stroke="black" stroke-width="2" fill="none" />
<polyline points="181.5,118.5,173.5,119.0,165.0,119.0,156.5,119.0,148.5,119.5,140.0,120.5,132.0,121.0,124.0,121.5,115.5,121.5,107.5,122.0,99.0,122.5,91.0,123.5,83.0,124.0,75.0,124.5,67.0,125.0" stroke="black" stroke-width="2" fill="none" />
<polyline points="68.5,118.0,76.0,117.0,84.0,116.0,92.0,115.0,100.0,114.0,108.5,113.0,116.5,113.0,124.5,113.0,132.5,112.5,140.5,112.0,148.0,111.5,156.0,111.0,164.0,110.5,171.5,110.0,180.0,109.5" stroke="black" stroke-width="2" fill="none" />
<polyline points="179.0,125.0,171.5,126.0,163.5,126.5,156.0,127.0,148.0,127.5,140.5,128.0,132.5,129.0,125.0,129.5,117.0,130.0,108.5,130.0,100.5,130.5,92.5,131.5,85.0,132.0,76.5,132.5,68.5,133.0,60.5,133.5,52.0,133.5,44.0,134.0" stroke="black" stroke-width="2" fill="none" />
<polyline points="35.0,132.0,43.5,124.5" stroke="black" stroke-width="2" fill="none" />
<polyline points="33.0,123.0,25.5,131.0" stroke="black" stroke-width="2" fill="none" />
<polyline points="22.5,129.5,38.5,127.5,54.0,129.5" stroke="black" stroke-width="2" fill="none" />
<polyline points="52.0,116.0,44.5,116.5,37.0,117.0,29.0,118.0" stroke="black" stroke-width="2" fill="none" />
<polyline points="21.0,111.5,37.0,114.0,53.0,114.0,69.0,119.5,87.0,129.5,96.5,117.0" stroke="black" stroke-width="2" fill="none" />
<polyline points="95.0,98.5,88.5,88.5,94.5,92.5,108.0,84.5,92.0,94.0,76.0,100.0,74.0,105.5" stroke="black" stroke-width="2" fill="none" />
<polyline points="72.0,90.5,56.0,104.5" stroke="black" stroke-width="2" fill="none" />
<polyline points="35.0,131.5,26.5,132.5,18.0,133.0,10.0,133.5,2.0,134.0" stroke="black" stroke-width="2" fill="none" />
<polyline points="2.0,130.0,17.5,126.0,33.5,122.5,49.5,120.5,69.0,126.5,57.0,138.0,63.0,122.0,79.0,132.5,75.5,150.5,93.5,149.0,105.5,151.0,121.5,143.0" stroke="black" stroke-width="2" fill="none" />
<polyline points="139.0,156.5,131.5,157.5,124.0,158.0,116.0,158.0,108.0,158.5,100.0,159.0,91.5,159.5,83.5,160.0,76.0,160.5,67.5,161.0,60.0,161.5,52.0,162.0,44.5,162.0,36.0,162.5,28.5,163.0,21.0,163.5,13.5,164.5,5.5,164.5" stroke="black" stroke-width="2" fill="none" />
<polyline points="9.0,161.0,25.0,162.5,40.5,146.5" stroke="black" stroke-width="2" fill="none" />
<polyline points="6.0,149.5,14.0,149.0,22.0,148.5,29.5,148.0,37.5,147.0,45.0,147.0,53.0,146.5,60.0,146.0,68.0,146.0,76.0,145.5,84.0,145.0,92.0,144.5,100.5,144.5,108.5,144.0,116.5,143.5,125.0,143.0,132.5,142.5,140.5,141.5,148.5,141.0,157.0,141.0,165.0,140.5" stroke="black" stroke-width="2" fill="none" />
<polyline points="157.0,148.0,148.5,148.5,140.5,149.0,132.0,149.0,123.5,149.5,115.5,150.0,107.5,150.5,99.5,151.5,91.0,151.5,83.0,152.5,75.5,153.0,68.0,153.5,60.0,154.0,52.0,154.5,44.0,155.0,36.5,155.0,29.0,155.5,21.5,156.0,13.5,157.0,5.5,158.0" stroke="black" stroke-width="2" fill="none" />
<polyline points="2.5,160.5,18.0,155.0,34.0,154.5,50.0,159.0,41.5,171.0,21.5,187.0,3.5,192.5,19.5,182.5,27.5,166.5,38.0,150.0,53.5,148.0,70.0,152.0" stroke="black" stroke-width="2" fill="none" />
<polyline points="60.5,122.5,52.0,122.5,43.5,123.0,35.5,123.5,27.0,124.5,19.0,125.0,11.0,125.5,3.0,126.0" stroke="black" stroke-width="2" fill="none" />
<polyline points="2.0,115.5,10.5,115.5" stroke="black" stroke-width="2" fill="none" />
<polyline points="14.5,101.5,30.5,97.5,44.5,123.5,54.0,133.5,64.5,145.5,64.0,143.5,80.0,141.5,95.5,143.0,97.0,135.0" stroke="black" stroke-width="2" fill="none" />
<polyline points="103.0,167.0,87.0,169.5,70.5,170.0,62.5,190.0,46.5,198.5,30.5,196.5" stroke="black" stroke-width="2" fill="none" />
<polyline points="16.5,170.5,0.5,166.5" stroke="black" stroke-width="2" fill="none" />
<polyline points="5.5,173.0,13.5,172.5,21.0,173.0,29.0,173.0,36.5,172.5,44.0,172.0,52.0,171.0,59.5,170.5,67.5,169.5,75.5,168.5,83.0,168.0,91.0,168.0,98.5,167.0,106.5,167.0,114.5,167.0,122.5,166.5,130.5,166.0,139.0,165.0,147.5,164.0,156.0,163.5,164.5,163.0,172.5,162.0,180.0,161.5,188.0,161.5,195.5,161.0,204.0,161.0,212.0,160.5,220.0,161.0,227.5,160.5,235.0,160.0,243.0,160.0,251.0,159.0,259.0,158.0,266.5,157.0,274.0,156.0,282.0,155.5,289.5,155.0,297.5,154.5,306.0,154.5" stroke="black" stroke-width="2" fill="none" />
<polyline points="299.0,259.5,283.5,259.5,267.5,259.5,252.0,261.5,246.5,279.5,230.5,289.5,215.0,297.5,199.0,295.0,169.0,299.0,153.0,303.0,137.0,295.5,125.0,260.0,112.5,250.0,96.5,254.5,80.0,226.5,66.0,204.5,39.5,204.0,51.5,216.0,63.5,199.5" stroke="black" stroke-width="2" fill="none" />
<polyline points="3.5,142.0,11.5,142.0,19.5,141.0,27.5,141.0,36.0,140.5,44.0,140.0,52.0,139.5,60.5,138.0,68.5,137.0,76.5,137.0,84.5,136.0,92.5,136.0,101.0,135.5,109.0,135.0,117.0,134.0,124.5,134.0,132.0,133.0,140.0,132.5,147.5,132.0,155.5,132.0,163.0,131.5,171.0,131.0" stroke="black" stroke-width="2" fill="none" />
<polyline points="193.0,155.5,199.0,171.0,196.5,187.0,192.5,187.0,174.5,203.5,168.0,219.5,160.0,227.5,168.0,233.0,188.0,217.0,204.0,206.5,212.0,214.5,227.5,220.5,243.5,232.5,265.0,225.0" stroke="black" stroke-width="2" fill="none" />
<polyline points="220.5,65.5,220.5,54.0,213.0,44.0,211.0,28.0,195.5,10.0,181.5,20.0,167.5,28.5,163.5,40.0,161.5,34.0,145.5,44.0,145.5,30.0,129.5,30.0,121.5,34.0,97.5,34.0,75.5,26.0,68.5,10.0,46.5,12.0" stroke="black" stroke-width="2" fill="none" />
<polyline points="26.0,29.0,42.0,33.0,58.5,41.0,74.5,45.0,76.5,51.0,92.5,51.0" stroke="black" stroke-width="2" fill="none" />
<polyline points="109.0,49.5,93.5,57.5,78.5,55.5,62.0,67.5,44.0,67.0,28.5,67.0,28.5,71.0,13.0,67.5" stroke="black" stroke-width="2" fill="none" />
<polyline points="21.0,64.5,37.0,56.5" stroke="black" stroke-width="2" fill="none" />
<polyline points="28.0,35.0,44.5,39.0,60.5,47.0,86.5,62.5,94.5,68.0,110.5,73.5,126.5,79.5" stroke="black" stroke-width="2" fill="none" />
<polyline points="153.0,43.0,161.0,59.0,173.0,69.0,183.0,84.5,185.0,96.5,170.5,112.5,146.5,108.5,148.0,126.5,164.0,114.0,170.0,98.0" stroke="black" stroke-width="2" fill="none" />
<polyline points="200.5,61.0,214.5,77.5" stroke="black" stroke-width="2" fill="none" />
<polyline points="213.5,55.5,197.5,55.5" stroke="black" stroke-width="2" fill="none" />
<polyline points="198.5,54.0,200.5,70.5,200.5,80.5,204.5,96.5,184.5,111.0,190.5,129.0,178.5,145.0,165.0,161.0,143.0,177.0,131.0,193.0,135.0,209.0,129.0,225.0,128.5,224.5,144.5,224.5,160.5,220.0,176.5,204.0,194.5,190.0,208.0,186.0,222.0,188.0,238.5,187.5,248.5,177.5,264.5,179.5,280.0,173.5,296.0,175.5" stroke="black" stroke-width="2" fill="none" />
<polyline points="255.5,26.5,261.0,10.5" stroke="black" stroke-width="2" fill="none" />
<polyline points="255.5,8.5,245.5,14.5,249.5,30.5,274.0,48.5,280.0,56.0,290.0,54.0,276.5,68.0,275.0,84.5,283.0,100.5,281.0,118.5,291.0,127.0,279.0,138.5,263.0,144.0,241.0,160.0,241.0,168.0,257.0,158.0,268.5,154.0,284.5,148.0,290.0,168.0,298.0,166.0,313.5,176.0,318.0,180.0,334.0,178.5,342.0,188.5,367.5,180.5,384.0,176.5,400.0,178.5,406.5,185.0,422.5,181.0,438.0,183.0,454.0,178.5,470.0,168.5,486.5,164.0,502.5,164.0,508.5,168.0,510.0,187.5,506.5,199.5,510.5,209.5,501.0,227.0,493.0,229.0,497.0,231.0,499.0,241.0,497.0,251.0,503.0,253.5,491.0,261.5,479.0,270.0,473.0,278.0,479.0,294.5,498.5,298.5,490.5,314.5,482.5,314.0,502.5,326.5,508.5,338.5" stroke="black" stroke-width="2" fill="none" />
<polyline points="59.0,79.0,43.5,82.5,27.5,84.5,12.0,80.5" stroke="black" stroke-width="2" fill="none" />
<polyline points="9.5,49.5,26.0,45.5,66.0,49.5,68.5,66.0" stroke="black" stroke-width="2" fill="none" />
<polyline points="98.0,12.0,129.5,40.0,137.5,52.0,145.5,86.0,133.0,98.0,137.0,114.0,149.0,116.0,144.5,136.0,118.5,144.5,102.5,168.5,106.5,186.5,112.5,186.5,112.5,205.0,117.0,219.0,133.0,224.5,137.0,232.5,144.5,236.5,142.5,252.5,141.0,268.5,161.0,276.5,179.0,277.0,197.0,282.5,208.5,308.5,212.5,324.5,202.5,338.5" stroke="black" stroke-width="2" fill="none" />
</svg>