<svg xmlns="http://www.w3.org/2000/svg" version="1.1"><polyline points="43.5,6.0,61.5,11.0,94.0,31.5,104.5,34.0,137.5,49.5,145.5,42.0,166.0,32.5,186.0,17.5,206.0,18.0,226.0,38.5,231.0,61.0,263.5,58.5,281.0,56.0,293.0,36.0,313.0,33.5,323.0,48.5,340.5,33.5,365.0,20.5,369.5,30.0,389.5,32.5,410.0,30.0,419.5,5.0,439.5,5.5,404.5,18.0,395.0,45.0,370.5,67.5,355.0,92.5,355.0,120.0,342.5,140.0,385.0,152.5,405.5,157.5,400.5,177.5,385.5,202.5,345.5,212.0,353.0,222.0,333.0,246.5,348.0,266.0,363.5,274.0,373.5,281.5,375.5,296.5,400.5,299.0,390.5,309.0,383.0,329.0,397.5,333.5,370.0,333.5,377.5,325.5,395.0,326.0,418.0,311.5,433.5,317.0,453.5,312.5,453.5,307.5,473.5,297.0,470.5,317.0,482.5,316.5,502.0,311.5,507.0,319.5" stroke="black" stroke-width="2" fill="none" />
<polyline points="502.5,314.5,518.5,314.0" stroke="black" stroke-width="2" fill="none" />
<polyline points="495.0,334.5,470.0,329.5,450.0,327.0,425.0,320.0,407.5,332.5,412.5,322.5,415.0,305.0,407.5,285.0,392.5,272.0,382.5,262.0,384.5,242.0,361.5,232.0,379.0,212.5,353.5,175.0,369.0,169.5,353.5,147.0,358.5,127.0,371.0,109.5,391.0,99.0,416.0,84.0,411.0,77.0,419.0,54.5,411.5,47.5,417.0,40.0,397.0,50.5" stroke="black" stroke-width="2" fill="none" />
<polyline points="389.5,22.5,369.5,24.5" stroke="black" stroke-width="2" fill="none" />
<polyline points="365.0,35.0,372.5,55.0,355.0,92.5,375.0,87.5,400.0,72.0,420.5,59.0,425.0,69.5,445.0,62.0,470.0,54.5,492.5,37.5" stroke="black" stroke-width="2" fill="none" />
<polyline points="502.0,49.5,482.0,56.5,472.5,64.0,452.5,66.5,452.5,89.0,475.0,94.0,497.5,74.0,469.5,54.0,484.5,34.5,491.5,20.0,471.0,22.5" stroke="black" stroke-width="2" fill="none" />
<polyline points="451.0,32.5,431.0,40.0,411.0,47.5,386.0,72.0,383.5,64.5,364.0,62.0,336.5,74.0,316.5,74.0,304.5,79.0,284.5,79.0" stroke="black" stroke-width="2" fill="none" />
<polyline points="295.5,72.5,280.0,72.5,264.5,72.5,248.5,73.0,233.0,73.5,217.0,73.5" stroke="black" stroke-width="2" fill="none" />
<polyline points="222.0,85.5,202.0,105.5" stroke="black" stroke-width="2" fill="none" />
<polyline points="201.0,122.5,216.5,122.5,232.5,121.5,248.0,121.0,263.0,121.5,277.5,121.0,294.0,120.5,310.0,120.5,326.0,120.5,342.5,120.0" stroke="black" stroke-width="2" fill="none" />
<polyline points="327.5,120.0,312.0,136.5" stroke="black" stroke-width="2" fill="none" />
<polyline points="317.0,150.0,329.5,147.5,335.0,152.0,352.5,164.5,370.0,132.0,397.0,141.5,417.5,141.5,440.0,131.5" stroke="black" stroke-width="2" fill="none" />
<polyline points="404.5,123.5,421.0,123.0,437.5,121.5,455.0,120.5,471.5,119.0,487.0,117.5" stroke="black" stroke-width="2" fill="none" />
<polyline points="489.5,137.5,469.5,145.0,449.5,152.5,429.0,154.5,426.5,162.0,419.0,150.0,411.5,132.5,429.0,120.0,446.0,97.0,471.0,77.0,458.5,69.0,458.5,84.0" stroke="black" stroke-width="2" fill="none" />
<polyline points="479.5,88.5,499.5,86.0" stroke="black" stroke-width="2" fill="none" />
<polyline points="519.5,134.5,502.0,136.0,485.0,137.0,469.0,138.0,453.5,138.0,437.5,137.5,421.5,137.5,406.5,138.5,390.5,138.5" stroke="black" stroke-width="2" fill="none" />
<polyline points="388.5,108.0,408.5,90.0" stroke="black" stroke-width="2" fill="none" />
<polyline points="344.5,91.5,329.5,91.5,314.5,91.5,299.5,91.5,284.0,92.5,268.5,93.5" stroke="black" stroke-width="2" fill="none" />
<polyline points="274.5,88.5,294.5,91.0,314.5,81.5,335.0,84.5,317.5,92.0,310.0,102.0,329.5,105.0" stroke="black" stroke-width="2" fill="none" />
<polyline points="329.5,101.5,312.0,117.5" stroke="black" stroke-width="2" fill="none" />
<polyline points="329.0,140.5,313.5,140.0,298.0,139.5,282.5,139.0" stroke="black" stroke-width="2" fill="none" />
<polyline points="274.0,132.0,269.5,139.5,259.5,159.5,272.0,167.0,275.0,187.5,290.0,207.5,300.0,232.5,322.5,257.0,332.5,262.0,333.0,274.5,328.0,294.5,340.5,299.5,335.5,315.0,358.0,310.0,365.0,300.0,382.5,297.5,385.0,290.0,405.0,290.0,415.0,280.0,430.0,305.0,452.0,312.5,430.0,322.5,430.0,327.5,425.0,337.5,446.5,335.0,466.5,335.0" stroke="black" stroke-width="2" fill="none" />
<polyline points="444.0,282.5,426.5,259.5,439.0,244.5,444.0,224.0,438.5,211.5" stroke="black" stroke-width="2" fill="none" />
<polyline points="441.5,198.0,457.5,198.5,473.5,198.5,489.0,198.5,504.0,199.5,520.0,199.5" stroke="black" stroke-width="2" fill="none" />
<polyline points="520.5,183.0,504.5,182.0,489.0,182.5,474.5,183.5,459.0,185.0" stroke="black" stroke-width="2" fill="none" />
<polyline points="439.5,184.0,423.5,184.5,407.0,185.0,391.0,186.0,374.5,186.0,358.0,187.0" stroke="black" stroke-width="2" fill="none" />
<polyline points="360.5,172.0,376.5,172.0,393.5,172.5,409.5,172.0,425.5,171.0,442.0,171.0,457.0,170.0,473.0,169.0,489.5,168.5,506.0,168.5,522.5,168.5" stroke="black" stroke-width="2" fill="none" />
<polyline points="518.5,150.0,502.5,150.5,487.0,151.0,471.5,150.5,456.0,150.5,440.5,151.5,425.5,152.5,410.0,152.5,394.5,153.5,378.5,154.5,361.0,154.5,345.0,154.5" stroke="black" stroke-width="2" fill="none" />
<polyline points="345.5,186.5,329.5,188.0,314.5,189.5" stroke="black" stroke-width="2" fill="none" />
<polyline points="315.0,201.5,330.5,201.5,346.0,202.0" stroke="black" stroke-width="2" fill="none" />
<polyline points="347.0,209.5,331.0,209.0,314.5,210.0,297.5,210.5,281.0,210.5,264.0,210.5,247.5,211.0,231.5,211.5,215.0,212.0,199.0,213.0,182.5,213.0,166.0,214.0,151.0,214.5,136.0,215.0,120.0,215.5,104.0,216.0,88.5,216.5,73.0,216.5,58.0,217.0,43.0,217.5,27.0,219.0,11.0,220.0" stroke="black" stroke-width="2" fill="none" />
<polyline points="7.5,216.5,12.0,204.5,32.0,212.0,42.0,197.0,62.0,189.5,82.0,184.5" stroke="black" stroke-width="2" fill="none" />
<polyline points="58.0,169.5,74.5,154.5" stroke="black" stroke-width="2" fill="none" />
<polyline points="74.5,125.5,90.0,125.5,106.0,124.5,122.0,124.0,137.5,123.0,152.5,122.0,168.0,121.0,183.5,120.5" stroke="black" stroke-width="2" fill="none" />
<polyline points="166.0,119.0,150.5,134.5,134.5,151.0,118.5,167.0,102.0,182.0,86.5,197.5,71.0,214.5,57.0,230.0" stroke="black" stroke-width="2" fill="none" />
<polyline points="58.5,233.0,78.5,230.5,71.0,242.5,61.5,262.0,56.5,267.0,76.5,281.5,77.0,301.0,87.0,321.5,74.5,333.5,57.0,328.5,67.0,333.5" stroke="black" stroke-width="2" fill="none" />
<polyline points="57.0,346.5,72.5,330.0,88.0,313.5" stroke="black" stroke-width="2" fill="none" />
<polyline points="99.5,311.5,115.0,296.5,130.5,280.5,146.5,265.0" stroke="black" stroke-width="2" fill="none" />
<polyline points="155.0,277.0,165.0,241.5,182.5,214.0" stroke="black" stroke-width="2" fill="none" />
<polyline points="209.0,210.5,208.5,220.0,228.5,222.5,228.0,232.5,262.5,227.5" stroke="black" stroke-width="2" fill="none" />
<polyline points="250.5,230.0,267.0,214.0" stroke="black" stroke-width="2" fill="none" />
<polyline points="249.0,213.5,233.5,229.0" stroke="black" stroke-width="2" fill="none" />
<polyline points="234.0,215.0,250.5,199.5,266.5,184.5" stroke="black" stroke-width="2" fill="none" />
<polyline points="248.5,181.0,232.0,197.0,216.0,212.0" stroke="black" stroke-width="2" fill="none" />
<polyline points="214.0,193.0,230.5,177.5" stroke="black" stroke-width="2" fill="none" />
<polyline points="235.5,172.5,255.5,175.0,272.5,165.0,284.5,165.0,312.0,167.0" stroke="black" stroke-width="2" fill="none" />
<polyline points="308.0,159.5,318.0,159.5" stroke="black" stroke-width="2" fill="none" />
<polyline points="299.5,178.5,283.0,179.0,266.5,179.5,249.0,179.5,231.5,180.0,214.0,180.0,196.5,180.0,180.0,181.0,164.5,181.0,148.5,181.5,134.0,182.5,120.0,183.0,105.5,183.5,89.5,184.5,74.5,185.0,59.0,185.5,43.0,186.5,27.5,187.0" stroke="black" stroke-width="2" fill="none" />
<polyline points="20.0,198.0,4.5,213.0" stroke="black" stroke-width="2" fill="none" />
<polyline points="12.5,203.0,28.5,202.5,44.0,202.5,59.5,201.5,75.0,200.5,90.5,200.5,106.0,200.0,120.5,199.5,136.0,200.0,152.5,200.0,168.5,199.0,184.5,199.0,201.5,199.5,217.5,199.0,233.5,198.0,250.0,198.0,265.0,197.0,281.0,196.0,297.5,195.5" stroke="black" stroke-width="2" fill="none" />
<polyline points="291.5,190.5,309.0,210.5,309.0,230.5,323.5,250.0" stroke="black" stroke-width="2" fill="none" />
<polyline points="314.5,267.0,298.5,268.0" stroke="black" stroke-width="2" fill="none" />
<polyline points="297.0,251.0,313.0,250.0" stroke="black" stroke-width="2" fill="none" />
<polyline points="327.5,233.0,313.0,233.5,297.5,233.5" stroke="black" stroke-width="2" fill="none" />
<polyline points="311.5,222.5,304.0,242.5,309.5,257.0,294.5,257.0,287.5,270.0,287.5,290.0,300.0,312.5,302.5,325.0,320.0,332.5" stroke="black" stroke-width="2" fill="none" />
<polyline points="315.0,324.0,334.5,321.5,354.5,319.0" stroke="black" stroke-width="2" fill="none" />
<polyline points="344.5,334.0,324.5,329.0,349.5,314.0,349.5,293.5,372.0,271.5,384.5,252.0,397.0,232.0,382.5,217.0,415.0,202.0,399.5,189.5,402.0,167.0,397.0,154.0,362.0,154.0,359.5,171.5,339.5,174.5,319.5,177.0,299.5,165.0,284.5,147.5,264.5,137.5,264.5,147.5,244.5,165.0,234.5,155.0,214.5,149.5,194.5,150.0,184.5,172.5,165.0,180.0,155.5,185.0,148.0,207.5,135.5,195.0,130.5,187.5,153.0,195.0,158.5,175.0,143.0,177.0" stroke="black" stroke-width="2" fill="none" />
<polyline points="134.5,184.5,119.0,200.0,104.5,216.0,89.0,231.5,74.0,247.0,58.5,262.0,42.5,278.0,26.5,293.5,10.0,308.5" stroke="black" stroke-width="2" fill="none" />
<polyline points="8.0,316.5,24.0,317.0,40.5,316.0,56.5,315.0,73.0,313.5,89.5,311.5,104.5,311.5,120.0,311.5,136.0,311.5,152.0,311.5,169.0,311.5,184.5,310.0,200.0,308.5,216.0,307.0,232.5,305.0,249.0,304.0,265.5,304.0" stroke="black" stroke-width="2" fill="none" />
<polyline points="263.0,288.5,247.5,290.0,232.5,290.0,216.5,289.0,201.0,289.5,186.5,290.5,171.0,292.0,154.5,292.5,138.5,293.0,122.5,294.0,106.0,296.0,90.0,298.0,73.5,298.5,56.5,298.5,39.5,299.0,22.5,299.0,6.5,300.5" stroke="black" stroke-width="2" fill="none" />
<polyline points="9.0,293.5,25.0,277.0,40.0,261.0,55.0,244.5,69.0,228.5,84.0,213.0,100.0,196.5,115.5,180.5,131.5,165.5,148.0,151.0,164.5,135.5" stroke="black" stroke-width="2" fill="none" />
<polyline points="160.0,136.0,122.5,156.5,142.5,151.5,162.5,137.0,155.0,126.5,175.0,106.5,185.0,97.0" stroke="black" stroke-width="2" fill="none" />
<polyline points="200.5,76.0,184.0,76.0,168.5,75.5,152.5,75.5,136.5,75.5,120.5,75.5" stroke="black" stroke-width="2" fill="none" />
<polyline points="118.0,90.5,134.5,90.0,151.0,90.0,167.5,90.0,184.0,90.0,200.0,90.0,216.0,89.0,232.5,87.5,249.0,87.0" stroke="black" stroke-width="2" fill="none" />
<polyline points="223.0,60.5,228.0,80.5,228.0,100.5,230.5,130.0,203.0,155.0,220.0,165.0,222.5,190.0,202.0,200.0,197.0,212.0,192.0,232.0,172.5,244.0,164.5,279.5,172.0,299.5,174.5,309.5,184.5,312.0,174.5,337.0,195.0,324.5" stroke="black" stroke-width="2" fill="none" />
<polyline points="200.0,325.0,185.0,340.5" stroke="black" stroke-width="2" fill="none" />
<polyline points="201.0,340.0,218.0,325.0" stroke="black" stroke-width="2" fill="none" />
<polyline points="201.0,310.5,185.0,325.0" stroke="black" stroke-width="2" fill="none" />
<polyline points="167.5,324.5,182.5,309.0,198.0,294.0" stroke="black" stroke-width="2" fill="none" />
<polyline points="203.0,279.0,187.0,295.5,170.5,311.0" stroke="black" stroke-width="2" fill="none" />
<polyline points="153.0,311.5,169.5,296.5,186.5,281.5" stroke="black" stroke-width="2" fill="none" />
<polyline points="188.0,281.5,208.0,299.5,230.5,299.5,240.5,274.0,260.5,271.5,275.0,271.0,282.0,291.0,292.0,263.5,311.5,268.5" stroke="black" stroke-width="2" fill="none" />
<polyline points="306.5,284.5,327.0,294.5" stroke="black" stroke-width="2" fill="none" />
<polyline points="294.0,283.5,277.0,284.0" stroke="black" stroke-width="2" fill="none" />
<polyline points="273.5,281.5,280.5,301.5,285.5,322.0" stroke="black" stroke-width="2" fill="none" />
<polyline points="290.0,309.5,277.5,289.5" stroke="black" stroke-width="2" fill="none" />
<polyline points="253.0,278.0,253.0,297.5,260.5,317.0" stroke="black" stroke-width="2" fill="none" />
<polyline points="247.0,322.0,230.0,322.5,214.5,324.0,198.5,324.5,182.5,325.0,166.5,325.5,150.0,325.5,133.0,325.5,117.0,326.0,101.0,328.0,85.0,328.5,71.0,329.5,56.5,331.5,41.0,333.0,25.5,334.0,9.5,335.0" stroke="black" stroke-width="2" fill="none" />
<polyline points="24.0,340.0,40.0,324.0,55.5,307.5,74.0,291.5,91.5,275.0,108.0,258.5,124.0,242.0,139.0,226.5" stroke="black" stroke-width="2" fill="none" />
<polyline points="134.5,217.0,119.0,232.5,103.5,247.5,88.5,262.0,73.0,277.5,57.5,293.5,41.0,308.5,24.0,324.0,7.5,340.0" stroke="black" stroke-width="2" fill="none" />
<polyline points="8.5,324.0,24.5,308.0,39.5,292.5,54.5,277.5,70.5,262.0,86.0,246.5,102.5,231.5,119.0,217.0,135.5,202.0" stroke="black" stroke-width="2" fill="none" />
<polyline points="110.0,212.5,90.0,210.0,60.5,207.5,43.0,225.0,35.5,237.0,15.5,252.0" stroke="black" stroke-width="2" fill="none" />
<polyline points="11.0,250.5,27.0,250.0,42.5,251.0,58.0,251.5,73.0,251.5,88.0,251.0,104.0,249.5,119.5,248.5,135.0,247.5,151.0,246.0,166.5,245.5,182.5,245.5,197.5,244.5,213.5,244.5,229.5,245.0,245.0,245.0,261.0,244.0,278.0,243.0" stroke="black" stroke-width="2" fill="none" />
<polyline points="267.5,242.0,287.5,237.0,306.5,242.0,326.5,257.0,344.0,277.0" stroke="black" stroke-width="2" fill="none" />
<polyline points="319.0,264.5,306.5,262.5,274.0,247.5,274.0,255.0,255.0,247.5,225.0,257.5,220.0,237.5,199.5,235.0" stroke="black" stroke-width="2" fill="none" />
<polyline points="204.0,230.0,184.0,235.0,171.5,254.5,169.0,247.0,159.5,234.5,139.5,249.5" stroke="black" stroke-width="2" fill="none" />
<polyline points="152.0,249.5,135.5,265.0,119.0,280.0,102.5,296.0" stroke="black" stroke-width="2" fill="none" />
<polyline points="91.5,288.0,91.5,288.0,94.5,308.0,104.5,327.5,107.5,332.0" stroke="black" stroke-width="2" fill="none" />
<polyline points="135.5,345.0,152.0,328.5" stroke="black" stroke-width="2" fill="none" />
<polyline points="136.0,311.5,120.0,327.0" stroke="black" stroke-width="2" fill="none" />
<polyline points="150.5,295.0,166.5,279.5" stroke="black" stroke-width="2" fill="none" />
<polyline points="167.0,265.5,181.5,255.5,196.5,273.0,206.0,281.0,211.0,300.5,216.0,321.0" stroke="black" stroke-width="2" fill="none" />
<polyline points="249.0,288.0,269.0,310.5,274.5,295.5,294.5,303.0,314.5,300.0,337.0,305.0,347.0,305.0,367.0,292.0,387.5,269.0" stroke="black" stroke-width="2" fill="none" />
<polyline points="421.5,254.5,434.0,249.0,411.5,231.5,406.5,222.0,404.0,192.5,399.0,199.5" stroke="black" stroke-width="2" fill="none" />
<polyline points="401.0,206.5,421.0,206.5,443.5,189.0,463.5,189.5,483.5,187.0" stroke="black" stroke-width="2" fill="none" />
<polyline points="495.0,169.0,487.5,189.0,490.0,209.0,467.5,224.0,452.5,237.0,457.0,257.0,462.0,262.5,472.5,285.0,492.5,292.5,507.0,280.0" stroke="black" stroke-width="2" fill="none" />
<polyline points="508.0,292.0,500.5,272.0,503.0,252.5" stroke="black" stroke-width="2" fill="none" />
<polyline points="502.5,229.5,482.5,247.5,462.5,259.5,455.0,247.0,428.0,235.0,408.0,257.5,387.5,247.5,372.5,252.5,359.5,270.0,339.5,252.0,319.5,244.0,309.5,228.5,294.5,228.5,282.5,226.0,270.0,213.5,250.0,213.5,230.0,214.0,210.0,214.5,190.5,219.5,198.0,197.5,213.0,177.5,208.0,165.0,188.0,160.0" stroke="black" stroke-width="2" fill="none" />
<polyline points="192.5,144.0,212.5,141.5" stroke="black" stroke-width="2" fill="none" />
<polyline points="250.5,138.0,266.0,138.0" stroke="black" stroke-width="2" fill="none" />
<polyline points="267.5,119.5,290.0,140.0,300.0,142.5,312.5,152.5,317.5,173.0,345.0,185.5,350.0,195.5,370.5,185.5,390.5,175.5,403.0,163.0,423.0,173.0,443.0,175.5,462.5,165.0,482.5,160.0,495.0,169.5,500.0,174.5" stroke="black" stroke-width="2" fill="none" />
<polyline points="510.5,184.0,503.0,204.5,500.0,224.5" stroke="black" stroke-width="2" fill="none" />
<polyline points="505.0,220.5,520.5,219.0" stroke="black" stroke-width="2" fill="none" />
<polyline points="477.5,247.0,467.5,267.0,462.5,279.5" stroke="black" stroke-width="2" fill="none" />
<polyline points="395.0,250.0,375.0,270.0,347.5,247.5,335.0,227.5,322.5,207.5,337.5,198.0,317.5,210.5" stroke="black" stroke-width="2" fill="none" />
<polyline points="322.0,216.5,342.0,232.0" stroke="black" stroke-width="2" fill="none" />
<polyline points="309.5,215.5,329.5,235.5,357.0,223.5,377.0,221.0,394.5,221.0" stroke="black" stroke-width="2" fill="none" />
<polyline points="391.5,202.0,375.5,202.5" stroke="black" stroke-width="2" fill="none" />
<polyline points="342.5,161.0,326.5,161.5,311.0,162.0,295.5,161.5,280.0,161.5,264.5,162.5,249.5,163.5,234.0,163.5,218.5,164.5,202.5,165.5,185.0,165.5,169.0,165.5,153.0,166.5,137.5,166.5,121.5,168.0,104.5,170.0,88.5,171.0,72.0,171.5,55.5,171.5,39.0,171.5,23.0,172.5,7.0,172.0" stroke="black" stroke-width="2" fill="none" />
<polyline points="3.0,165.5,23.0,170.5,15.5,183.5,15.0,183.5,30.0,191.5,50.0,186.5,55.0,181.5,75.0,179.0,80.0,166.5,100.5,161.0,110.5,174.0,122.5,183.5,130.0,163.5,152.0,156.0,172.0,126.5,192.5,111.5,196.5,94.0,208.5,111.5,215.5,126.5,230.5,136.5" stroke="black" stroke-width="2" fill="none" />
<polyline points="234.0,132.0,218.0,132.5,201.5,133.5,185.5,135.0,170.5,136.5,154.5,136.5,138.0,136.5,121.5,136.5,104.5,136.5,87.0,137.0,71.0,137.5,54.5,138.5,38.0,139.0,22.0,139.5,6.0,140.0" stroke="black" stroke-width="2" fill="none" />
<polyline points="4.5,142.0,9.5,124.5,29.5,122.0,49.5,112.0,69.0,104.0,77.0,99.0,59.5,119.0,67.5,137.0,77.5,124.5,80.0,126.5" stroke="black" stroke-width="2" fill="none" />
<polyline points="69.5,114.5,89.0,114.5,109.0,97.5,136.5,97.5,146.0,100.0,166.0,92.0" stroke="black" stroke-width="2" fill="none" />
<polyline points="169.5,99.0,149.0,101.5" stroke="black" stroke-width="2" fill="none" />
<polyline points="147.5,106.5,131.5,121.5,116.5,136.0,101.5,150.0,86.0,164.0,70.0,178.5,54.5,193.0,38.5,209.0,22.5,224.5,7.0,239.0" stroke="black" stroke-width="2" fill="none" />
<polyline points="2.5,242.5,7.5,264.5,15.0,279.5,30.0,266.5,35.0,258.5,40.0,251.0,55.5,251.0,68.0,254.0,75.5,254.0" stroke="black" stroke-width="2" fill="none" />
<polyline points="106.5,264.5,122.0,277.0,117.0,297.5,109.5,310.0,111.5,302.5,147.0,302.5,164.5,297.5,190.0,310.5" stroke="black" stroke-width="2" fill="none" />
<polyline points="211.0,319.5,208.0,299.5,210.5,271.5,185.0,266.5" stroke="black" stroke-width="2" fill="none" />
<polyline points="190.5,256.0,210.5,248.5,230.5,244.0" stroke="black" stroke-width="2" fill="none" />
<polyline points="251.5,234.5,268.0,233.5" stroke="black" stroke-width="2" fill="none" />
<polyline points="266.5,244.0,250.0,259.5" stroke="black" stroke-width="2" fill="none" />
<polyline points="248.0,274.5,232.0,274.5,217.0,273.5,201.5,273.5,185.5,273.5,169.5,273.0,153.5,274.0,138.0,276.0,122.0,278.0,106.0,279.5,89.5,281.0,73.0,282.0,56.0,283.0,39.5,284.0,23.5,285.0,7.0,285.5" stroke="black" stroke-width="2" fill="none" />
<polyline points="6.0,278.5,21.5,262.5,37.0,246.0" stroke="black" stroke-width="2" fill="none" />
<polyline points="40.0,230.0,23.5,246.0,7.5,262.0" stroke="black" stroke-width="2" fill="none" />
<polyline points="10.0,270.0,26.0,269.5,42.5,268.5,58.5,268.0,74.0,267.5,89.0,266.5,103.5,266.0,118.5,265.5,133.5,264.0,149.0,262.5,164.5,262.5,181.0,262.0,197.5,260.5,215.0,259.5,231.5,258.0" stroke="black" stroke-width="2" fill="none" />
<polyline points="221.0,266.0,226.0,286.0,226.0,318.5,233.0,328.5,233.0,318.5" stroke="black" stroke-width="2" fill="none" />
<polyline points="217.5,267.5,237.5,260.0,257.5,259.5,277.5,262.0" stroke="black" stroke-width="2" fill="none" />
<polyline points="232.0,227.5,216.5,227.5,200.5,228.0,183.5,229.0,167.5,229.5,152.0,229.5,135.5,230.0,120.0,230.5,104.5,231.5,89.0,231.0,72.5,231.5,57.5,232.0,42.0,232.5,27.0,233.5,11.5,233.5" stroke="black" stroke-width="2" fill="none" />
<polyline points="8.0,228.5,24.5,213.0,40.0,198.0,57.0,183.0,72.5,167.0,88.0,151.5,103.5,136.5,119.5,121.5,136.0,106.5" stroke="black" stroke-width="2" fill="none" />
<polyline points="121.0,104.0,137.5,88.5" stroke="black" stroke-width="2" fill="none" />
<polyline points="143.0,83.0,140.5,77.5,130.0,97.5,102.5,110.0,90.0,135.0,109.5,130.0" stroke="black" stroke-width="2" fill="none" />
<polyline points="120.5,132.0,136.5,131.0" stroke="black" stroke-width="2" fill="none" />
<polyline points="150.5,119.0,135.0,135.0,119.0,151.5,102.5,167.5,86.0,183.0,69.5,197.0,53.5,213.0" stroke="black" stroke-width="2" fill="none" />
<polyline points="29.5,220.5,49.5,218.0,62.0,200.0,82.0,202.5" stroke="black" stroke-width="2" fill="none" />
<polyline points="108.0,212.0,118.0,232.5" stroke="black" stroke-width="2" fill="none" />
<polyline points="150.5,231.5,134.0,247.0,118.0,263.5,101.0,279.0,83.5,294.0" stroke="black" stroke-width="2" fill="none" />
<polyline points="74.5,311.0,58.0,327.0,41.5,343.0" stroke="black" stroke-width="2" fill="none" />
<polyline points="38.5,331.0,36.0,310.5,41.0,308.0" stroke="black" stroke-width="2" fill="none" />
<polyline points="39.5,312.0,49.5,332.0" stroke="black" stroke-width="2" fill="none" />
<polyline points="22.5,333.0,25.0,312.5,32.5,292.5" stroke="black" stroke-width="2" fill="none" />
<polyline points="22.5,273.0,40.0,275.5,57.5,278.5,62.5,298.5,62.5,318.5,67.5,291.0,102.5,311.0" stroke="black" stroke-width="2" fill="none" />
<polyline points="119.0,313.0,134.0,297.5,150.0,282.5" stroke="black" stroke-width="2" fill="none" />
<polyline points="121.0,274.5,128.5,279.5,131.0,299.5,141.0,324.0" stroke="black" stroke-width="2" fill="none" />
<polyline points="159.5,327.5,154.5,330.5,134.5,322.5,122.0,308.0,117.5,290.0,112.5,282.0,92.5,279.5,72.0,267.0,52.5,279.0,32.5,276.5,20.0,299.0,20.0,309.5,12.5,286.5,14.5,267.0,7.0,247.0,4.0,220.0,9.0,195.0,26.5,175.0,41.5,159.5,41.5,139.5,22.0,137.0,2.0,142.0" stroke="black" stroke-width="2" fill="none" />
<polyline points="4.0,156.5,20.5,155.5,36.5,155.0,53.5,154.5,70.5,153.5,87.5,152.5,105.0,152.0,122.0,152.0,138.5,151.5,154.5,149.5,171.0,148.5,186.5,148.5,202.0,149.0,217.0,149.0,232.0,148.0,246.0,147.5,262.0,148.0,277.5,148.0,292.5,147.0,308.0,146.0,324.5,145.5" stroke="black" stroke-width="2" fill="none" />
<polyline points="338.0,90.0,318.0,87.5" stroke="black" stroke-width="2" fill="none" />
<polyline points="315.5,80.5,331.5,79.5" stroke="black" stroke-width="2" fill="none" />
<polyline points="361.0,99.5,344.5,100.5,327.5,101.5,311.0,101.5,294.0,101.5,277.5,101.5,261.0,101.0,246.0,102.5,231.0,103.0,216.0,103.5,201.0,104.5,185.0,105.5,169.0,105.5,152.0,106.5,135.5,107.0,120.0,107.5,104.0,108.5" stroke="black" stroke-width="2" fill="none" />
<polyline points="120.0,112.5,136.5,112.5" stroke="black" stroke-width="2" fill="none" />
<polyline points="135.5,134.0,115.5,143.5,95.0,156.0,74.5,158.5,54.5,146.5,34.5,164.0,41.5,144.5,21.5,154.5,1.5,159.5" stroke="black" stroke-width="2" fill="none" />
<polyline points="3.0,199.0,23.0,186.0,42.5,168.5" stroke="black" stroke-width="2" fill="none" />
<polyline points="55.0,120.5,38.0,120.0,21.0,119.5,4.5,119.5" stroke="black" stroke-width="2" fill="none" />
<polyline points="15.5,88.0,35.5,93.0,55.0,92.5,62.5,97.5,82.5,92.0,105.0,87.0,125.0,84.5,147.0,74.5,167.0,74.5,175.0,79.0" stroke="black" stroke-width="2" fill="none" />
<polyline points="170.0,64.0,190.0,66.5" stroke="black" stroke-width="2" fill="none" />
<polyline points="202.5,59.0,218.0,58.0,232.5,57.5,248.0,58.0,264.0,58.5,280.0,57.5" stroke="black" stroke-width="2" fill="none" />
<polyline points="249.5,42.5,233.0,43.5" stroke="black" stroke-width="2" fill="none" />
<polyline points="237.5,40.5,257.5,53.0,265.5,75.0,260.5,95.0,275.0,105.0,292.5,102.5,310.0,97.0,330.0,94.5,332.5,124.5,342.5,97.0,372.5,110.0,382.5,122.5,402.0,113.0,422.0,115.5,429.5,97.5,429.5,102.5,444.5,112.5,455.0,100.0,465.0,112.0,475.0,104.5,477.5,84.0,497.5,74.0,507.5,101.5" stroke="black" stroke-width="2" fill="none" />
<polyline points="485.0,145.0,470.0,167.0,450.0,179.5,462.5,191.5,445.0,207.0,427.0,209.5,425.0,220.0,415.0,240.0,405.5,242.5,400.5,262.5" stroke="black" stroke-width="2" fill="none" />
<polyline points="366.5,302.0,369.5,322.0" stroke="black" stroke-width="2" fill="none" />
<polyline points="294.5,185.5,282.0,180.5,257.0,205.0,237.0,207.5" stroke="black" stroke-width="2" fill="none" />
<polyline points="233.5,189.5,236.0,209.5,236.0,229.0,243.5,234.0,230.5,253.5,193.0,263.5,185.5,271.0,193.0,291.5,202.5,291.5,197.5,312.0,207.5,332.0" stroke="black" stroke-width="2" fill="none" />
<polyline points="161.5,331.5,167.0,311.5,172.0,284.0,162.5,264.0,183.0,244.0" stroke="black" stroke-width="2" fill="none" />
<polyline points="160.0,204.5,170.0,184.5" stroke="black" stroke-width="2" fill="none" />
<polyline points="165.5,166.5,165.0,183.5,150.0,203.5,154.5,206.0,174.5,196.5,205.0,196.5,221.5,204.0,241.0,196.5,265.5,181.5,275.5,206.5" stroke="black" stroke-width="2" fill="none" />
<polyline points="316.5,52.0,316.5,19.5,301.5,4.5,282.5,4.5,270.0,4.5,250.0,7.0,227.0,9.5,207.0,9.0,187.5,4.5,153.0,4.5,132.5,4.5,112.5,9.5,100.0,4.5,80.0,4.5,60.0,4.5" stroke="black" stroke-width="2" fill="none" />
<polyline points="64.0,7.5,84.0,12.5,124.0,25.0,127.0,45.0,149.5,47.0,167.0,64.5,180.0,84.5,195.5,87.5,205.5,95.0,200.5,97.5,180.5,103.0,178.0,122.5,173.0,132.0,158.0,152.0,125.5,182.0,128.0,202.0,130.0,222.0,120.0,227.0,127.0,224.5,147.0,222.0,151.5,217.0,174.5,192.0,184.5,205.0,204.5,187.5,231.5,185.0,239.5,187.5,259.5,190.0,280.0,198.0,302.5,188.0,319.5,195.5,337.0,222.5,354.5,207.5,355.0,217.0,375.0,209.5,395.0,204.5,397.0,214.0,417.5,219.0,445.0,196.5,463.0,198.5,483.0,193.5,498.0,193.5,503.0,198.5" stroke="black" stroke-width="2" fill="none" />
<polyline points="482.5,169.5,462.5,177.0,475.0,159.5" stroke="black" stroke-width="2" fill="none" />
<polyline points="429.0,92.0,421.5,90.0,411.5,78.0,381.5,93.0,366.0,90.0,381.0,80.0,369.0,97.5,354.0,109.5,339.0,141.5,331.5,146.5,326.5,134.5,306.5,127.5,294.0,132.0,284.0,119.5,264.5,117.0,262.0,107.0,242.0,102.0,222.0,109.5,222.0,84.5,215.5,64.5,200.5,49.0,180.0,51.5,160.0,44.0" stroke="black" stroke-width="2" fill="none" />
<polyline points="143.5,15.0,123.5,15.5,105.5,22.5,85.5,15.0" stroke="black" stroke-width="2" fill="none" />
<polyline points="85.0,10.0,104.5,15.5,124.5,22.5,147.0,25.5,171.5,38.0" stroke="black" stroke-width="2" fill="none" />
<polyline points="181.0,17.5,173.5,37.0,156.0,42.0,175.5,52.0,185.0,72.0,200.0,69.5" stroke="black" stroke-width="2" fill="none" />
<polyline points="214.5,23.0,235.0,15.5,245.0,18.0,257.5,37.5,272.5,39.5,285.0,61.5,272.5,71.5,275.0,91.5,304.5,102.0,302.5,112.0,327.5,122.0,307.5,129.5,305.0,140.0,302.5,160.0,305.0,167.0,310.0,189.5,305.0,205.0,295.0,225.0,279.5,220.0,277.0,244.5,292.0,247.0,277.0,267.0,265.0,277.0,267.5,297.0,272.5,317.0,274.5,324.5,280.0,327.0,300.0,326.5,305.5,309.0,325.5,311.5,333.0,328.5,353.0,326.0,372.5,321.5,379.5,301.5,399.5,316.0,409.5,291.0,419.5,286.5,429.5,267.0,439.5,287.5,450.0,282.5,470.0,275.0,470.0,280.0,482.5,255.0,502.0,252.0,506.5,234.5,501.0,245.0,488.5,265.0,488.0,285.0,493.0,305.0,498.0,307.5,493.5,325.0,506.0,337.5" stroke="black" stroke-width="2" fill="none" />
<polyline points="498.0,145.0,478.0,152.5,458.0,160.0,438.0,170.0,443.5,155.0,458.5,144.5,463.5,132.0,473.5,124.5,453.0,139.5,452.5,147.0,449.5,127.0,429.0,129.0,424.0,121.5,406.0,126.5,396.0,131.5,386.5,144.0,374.0,161.5,360.0,162.0,378.0,141.5,398.0,114.5,415.5,104.5,435.5,82.0,453.5,49.5,463.5,47.0" stroke="black" stroke-width="2" fill="none" />
<polyline points="434.5,49.5,432.0,57.0,419.0,37.5,398.5,37.0,379.0,51.5,359.0,46.5" stroke="black" stroke-width="2" fill="none" />
<polyline points="314.5,28.0,307.0,30.0,312.0,50.0,300.0,70.0,307.5,70.0,290.5,72.0,295.5,62.0" stroke="black" stroke-width="2" fill="none" />
<polyline points="312.0,35.0,342.0,42.0,329.5,75.0,337.5,95.0,340.5,115.0,328.0,135.0,325.5,149.5,348.0,169.0,335.5,189.0,360.5,201.5,380.5,196.5,390.5,181.0,410.0,181.0,430.0,178.5,450.0,179.0,469.5,179.0,484.5,164.0,487.0,151.0" stroke="black" stroke-width="2" fill="none" />
<polyline points="498.0,4.5,477.5,14.5,452.5,7.0,432.5,14.5,410.5,7.0,390.0,7.0,370.0,15.0,365.0,5.5,345.0,10.5,322.0,12.5,302.0,17.5,294.5,30.0,312.0,10.0" stroke="black" stroke-width="2" fill="none" />
<polyline points="243.0,40.5,260.5,60.5,260.0,78.0,267.5,95.0,267.0,114.5,246.5,117.0,246.5,137.0,239.0,139.0,239.0,159.0,226.5,166.5,249.5,159.5,267.0,187.0,292.0,189.5,272.0,217.0,251.5,236.5,252.0,266.5,232.0,286.5,245.0,287.0,230.0,299.5,235.0,319.0,245.0,314.0,250.5,326.5,268.0,334.5,238.5,337.0" stroke="black" stroke-width="2" fill="none" />
<polyline points="95.5,129.5,80.5,147.5,80.5,142.5,60.5,150.0,60.5,137.5,53.5,122.5,36.0,129.5,11.0,124.5,28.5,107.0,15.5,102.0,15.0,74.5,9.5,54.5,9.0,34.0,11.5,14.0,6.0,19.0" stroke="black" stroke-width="2" fill="none" />
<polyline points="18.5,19.0,16.0,39.0,20.5,19.0,40.0,19.0,42.5,19.0,57.5,16.5,60.0,32.0,80.0,62.0,99.5,66.5,120.0,74.0,139.5,67.0,159.5,62.0,180.0,57.0,200.0,59.5,217.5,64.5" stroke="black" stroke-width="2" fill="none" />
<polyline points="199.0,12.0,218.5,32.0,218.5,49.5,208.5,67.0,215.5,87.0,190.5,117.0,183.0,134.5,170.0,154.5,142.5,177.5,137.5,197.5,155.0,220.0,137.5,240.0,142.5,248.0,140.5,268.0,145.5,272.5,128.0,295.0,120.0,310.0,140.0,330.0" stroke="black" stroke-width="2" fill="none" />
<polyline points="232.0,130.0,211.5,119.5,199.0,132.0,179.0,139.0,159.0,162.0,139.5,172.0,120.0,169.5,100.0,169.5,117.5,162.5,127.5,149.5,152.5,135.0,144.5,132.5,135.0,112.5,155.0,92.5" stroke="black" stroke-width="2" fill="none" />
<polyline points="114.5,80.0,95.0,72.5" stroke="black" stroke-width="2" fill="none" />
<polyline points="102.0,40.0,82.0,27.0,62.0,12.0" stroke="black" stroke-width="2" fill="none" />
<polyline points="46.5,34.5,14.0,44.0" stroke="black" stroke-width="2" fill="none" />
<polyline points="27.5,33.0,47.0,40.5,67.0,43.0,87.5,45.0,107.5,47.5" stroke="black" stroke-width="2" fill="none" />
<polyline points="98.0,57.5,95.5,57.5,70.5,70.0,53.0,82.5,33.0,85.0,12.5,82.5,25.0,60.0,29.5,57.5,29.5,62.5" stroke="black" stroke-width="2" fill="none" />
<polyline points="32.0,75.0,37.0,70.0,57.0,67.5" stroke="black" stroke-width="2" fill="none" />
<polyline points="25.5,30.0,45.0,32.5,65.0,27.5,85.0,22.5,105.0,30.5" stroke="black" stroke-width="2" fill="none" />
<polyline points="101.0,19.5,121.0,39.5,133.0,57.5" stroke="black" stroke-width="2" fill="none" />
<polyline points="203.5,7.5,221.5,27.5,224.0,42.5,229.0,62.5,249.5,67.0,242.0,69.5,240.0,89.5,250.5,89.5,235.5,99.5,235.5,122.0,208.5,121.5,213.0,144.0,183.0,149.5,177.5,169.5,182.5,189.5,192.0,189.5,179.0,200.0,179.0,205.0,166.0,222.5,156.0,242.0,153.5,259.5,153.5,279.5,158.5,294.5,146.0,311.5,156.0,317.0,168.5,334.5,199.0,339.5" stroke="black" stroke-width="2" fill="none" />
<polyline points="206.5,330.0,189.0,299.5,164.0,314.5,137.0,337.0,117.0,327.0,109.5,322.0,89.5,322.0,87.0,307.0,88.0,329.5,68.0,319.0,67.5,311.5,47.5,324.0,32.5,321.5,23.0,334.0,8.0,318.5,15.0,298.5,14.5,281.0,27.0,281.5,37.0,261.5,46.5,244.5,49.0,224.5,36.5,204.5,21.5,197.0,64.0,172.5,59.5,155.0,62.0,135.0,67.5,115.0,98.0,90.5,100.5,78.0,75.5,50.5,60.5,48.0,28.0,28.0" stroke="black" stroke-width="2" fill="none" />
</svg>