<svg xmlns="http://www.w3.org/2000/svg" version="1.1"><polyline points="203.0,5.0,207.5,21.0,225.5,29.5,232.0,45.5,242.5,50.0,239.0,66.0,245.5,82.5,233.5,84.5,237.5,101.0,219.5,111.5,223.5,139.5,223.5,155.5,225.5,181.5,207.0,197.5,199.0,213.5,201.0,217.5,217.0,225.5,246.5,241.0,230.0,256.5,200.0,268.5,206.5,274.5,210.0,290.5,202.0,301.0,200.0,317.0,208.5,332.5,233.0,336.5,248.5,328.5,262.5,330.5,276.5,330.5,292.5,330.5,293.0,312.5,309.0,298.5,325.0,292.5,351.0,278.0,363.0,268.0,367.0,285.5,383.0,281.0,393.5,253.5,415.5,263.5,417.0,269.5,435.0,271.5,435.0,307.5,449.0,309.5,460.5,291.0,462.5,295.0,478.5,292.5,492.5,289.0,511.0,299.5" stroke="black" stroke-width="2" fill="none" />
<polyline points="509.0,301.5,509.5,284.0,501.5,268.0,508.5,254.0,506.5,246.0" stroke="black" stroke-width="2" fill="none" />
<polyline points="510.0,236.0,498.5,242.5,482.5,249.0,474.5,269.5" stroke="black" stroke-width="2" fill="none" />
<polyline points="487.5,278.5,481.0,260.5,464.5,252.5" stroke="black" stroke-width="2" fill="none" />
<polyline points="433.5,276.0,439.5,268.0,447.5,268.0,453.5,252.0,449.5,238.5,461.5,222.0,473.5,206.0,468.0,204.0,472.0,202.0" stroke="black" stroke-width="2" fill="none" />
<polyline points="464.0,199.0,480.5,194.5,498.5,194.5,494.0,210.5,502.0,193.0,506.0,186.5" stroke="black" stroke-width="2" fill="none" />
<polyline points="502.0,175.5,476.0,177.5,460.5,185.5,454.5,189.5,439.0,192.0,419.0,212.0,417.0,208.0,392.5,181.5,376.0,183.5,356.0,171.5,333.5,153.5,343.5,139.5,345.5,120.5,361.5,104.5,356.0,94.5,352.0,78.5,336.0,76.5,332.0,49.0,334.0,33.0,320.0,29.0,312.0,11.0,308.0,23.0,298.0,37.5,286.0,49.0,273.5,49.0,257.5,53.0,245.5,71.0,237.5,67.0,234.0,82.5,232.0,104.5,209.5,102.5,194.0,114.0,188.0,130.0,172.0,153.5,156.0,163.5,140.0,173.5,136.0,199.0,124.0,205.5,108.0,202.0,92.0,204.0,76.5,202.0,60.5,202.0,50.0,208.0,46.0,216.0,30.0,217.5,26.0,199.5,22.0,209.5,6.0,214.0,12.0,204.0,22.0,180.5,18.0,170.5,46.0,158.5,68.0,144.5,78.0,126.5,58.0,118.5,58.0,102.0,76.0,86.5,90.0,82.5,98.5,76.5,85.0,66.5,79.0,46.5,65.0,22.5,63.0,6.5,43.0,12.5,27.5,20.5,11.0,28.0" stroke="black" stroke-width="2" fill="none" />
<polyline points="12.5,37.5,8.5,49.5,11.0,65.5,13.0,82.0,24.0,102.0,4.0,116.0,4.0,130.0,6.0,148.0,16.0,136.0,31.5,138.0,47.5,140.0,55.5,156.5,71.5,156.0,79.5,161.5,95.5,155.5,111.5,154.0,131.5,166.5,145.0,160.5,161.0,148.5,173.5,133.0,147.5,149.0,133.5,164.5,131.5,180.0,137.5,198.0,134.0,214.5,150.5,206.5,171.0,176.5,179.0,164.5,195.5,156.5,211.5,156.0,213.5,166.5,229.5,182.5,251.0,188.5,266.5,193.0,282.5,210.5,284.5,218.5,302.0,224.5,318.0,220.5,320.0,238.5,330.0,255.0,346.5,255.0,338.0,274.5,336.0,290.5" stroke="black" stroke-width="2" fill="none" />
<polyline points="318.0,312.0,322.0,328.0" stroke="black" stroke-width="2" fill="none" />
<polyline points="309.0,326.5,325.0,324.5,340.5,318.0,356.5,319.5" stroke="black" stroke-width="2" fill="none" />
<polyline points="362.5,330.0,384.5,323.5,378.0,308.0,360.0,324.5,344.0,330.5,328.0,330.5,322.0,332.0,306.5,334.0,292.5,334.0,294.5,328.0,300.5,322.5,292.5,314.5,290.5,306.5,296.5,286.5,304.5,284.5,294.5,268.0,292.5,266.0,294.0,252.0,299.5,264.0,289.5,264.5,273.0,268.5,257.5,270.0" stroke="black" stroke-width="2" fill="none" />
<polyline points="261.0,279.5,263.0,273.0,261.0,289.0,269.0,293.0,263.5,308.5,269.5,319.0" stroke="black" stroke-width="2" fill="none" />
<polyline points="256.0,335.5,236.0,333.0,243.5,321.0,247.5,304.5,249.5,289.0,254.0,273.0,254.5,269.0,261.0,251.0,255.5,235.5,273.5,219.5,279.0,203.5,260.5,196.0,244.5,198.0,229.0,204.0" stroke="black" stroke-width="2" fill="none" />
<polyline points="238.0,207.5,254.0,209.5,270.0,200.0,278.0,196.0,298.5,200.0,324.5,208.0,340.0,204.0,354.0,218.0,364.0,207.5,386.0,213.0,402.0,215.5" stroke="black" stroke-width="2" fill="none" />
<polyline points="398.5,211.0,390.5,227.0,394.5,237.5,398.5,245.5,390.5,261.5,378.5,281.5,376.5,297.5,386.5,297.0,390.5,309.0,398.0,325.0,414.0,323.0,400.0,335.0,410.5,339.0,406.5,323.0,420.5,329.0,432.5,313.0,444.0,319.0,460.0,310.5" stroke="black" stroke-width="2" fill="none" />
<polyline points="472.5,330.5,457.0,329.0,441.0,327.0" stroke="black" stroke-width="2" fill="none" />
<polyline points="500.0,310.0,472.0,316.0,456.0,292.5,438.0,280.5,456.0,266.5,474.0,268.5,464.0,252.5,462.0,236.5,448.5,216.5,442.5,205.0,467.0,193.0,481.0,177.0,489.0,189.0,473.0,189.0,457.0,203.0,441.0,196.5" stroke="black" stroke-width="2" fill="none" />
<polyline points="421.0,214.5,416.5,216.5,414.5,232.5,418.5,246.5,414.5,257.0,410.5,265.0,398.5,281.0,376.0,306.5,366.0,320.5" stroke="black" stroke-width="2" fill="none" />
<polyline points="417.5,312.0,407.5,312.0,428.0,306.0,406.0,290.0,402.0,272.5,402.5,256.5,408.5,242.5,408.0,226.5,400.0,226.0,391.5,216.0,381.5,221.5,349.5,232.0,349.0,215.5,343.0,213.5,332.5,218.0,329.0,200.0" stroke="black" stroke-width="2" fill="none" />
<polyline points="335.5,196.5,351.5,208.5,365.5,200.5,381.5,198.0,397.5,198.0" stroke="black" stroke-width="2" fill="none" />
<polyline points="414.0,164.0,413.5,152.5,420.0,138.5,426.0,125.0,410.0,135.0" stroke="black" stroke-width="2" fill="none" />
<polyline points="415.5,153.0,431.5,163.0,431.5,151.0,442.0,149.0,458.0,146.5" stroke="black" stroke-width="2" fill="none" />
<polyline points="468.0,137.0,465.5,128.5,477.5,123.0,465.0,128.5,449.0,140.5,438.5,134.0,430.5,127.5,415.0,136.0,414.5,144.0,408.5,142.0,399.0,132.0,383.5,145.5,368.0,157.5,352.0,166.0,336.0,168.0,328.0,150.0,322.0,137.5,318.0,127.5,304.0,133.5,300.0,119.5,286.5,129.5,276.5,131.5,258.5,145.5,238.5,162.0,236.5,150.5,256.5,138.5,268.5,120.0,242.5,114.5,236.5,114.5,241.0,100.5,231.0,92.0,227.0,76.0,223.0,57.5,239.0,49.5,239.0,33.0,221.0,19.0,221.0,17.0" stroke="black" stroke-width="2" fill="none" />
<polyline points="209.5,12.5,223.5,28.0,227.5,44.0,231.0,60.0,238.5,76.0,250.5,84.0,252.5,90.0,244.5,102.0,254.5,118.0,270.0,120.0,289.5,118.0" stroke="black" stroke-width="2" fill="none" />
<polyline points="285.0,108.0,285.0,124.5,301.0,130.5,306.5,147.0,310.5,163.5,296.5,169.5,314.5,179.0,310.0,191.0,310.0,202.5,310.0,208.0,314.0,224.0,322.0,240.0,324.0,248.5,326.0,258.5,328.0,270.5,307.5,286.0,317.5,270.5,333.5,262.0" stroke="black" stroke-width="2" fill="none" />
<polyline points="324.0,254.0,308.5,242.0,290.5,232.5,274.5,234.0" stroke="black" stroke-width="2" fill="none" />
<polyline points="261.5,239.0,277.5,230.5,293.5,224.0,305.5,204.0,298.0,220.5,304.5,234.5,311.0,238.5,317.0,258.5,335.5,276.5,331.5,292.0,339.5,304.5,355.5,286.5,381.0,268.5,394.5,243.0,410.5,236.5,418.5,232.5,444.0,236.5,450.0,210.5,460.0,218.5,476.0,219.0,470.5,235.0,470.0,252.5,484.0,276.5,498.0,282.0,501.5,295.5,499.5,311.5,495.5,328.0,488.0,334.0" stroke="black" stroke-width="2" fill="none" />
<polyline points="384.0,317.0,356.0,319.0,351.5,315.0,328.0,316.5,322.0,310.5,308.0,307.0,292.0,318.5,286.0,317.0,280.5,301.5,283.0,291.5,287.5,289.5,291.5,293.5,281.5,301.5,265.0,298.0,236.5,306.0,214.5,286.0,204.5,294.0,200.0,277.5,202.5,281.5,180.5,261.5,164.5,273.5,175.0,283.0" stroke="black" stroke-width="2" fill="none" />
<polyline points="170.5,264.0,186.5,252.0,188.5,244.5,204.5,244.5,196.5,258.0,212.5,250.0,228.5,248.5" stroke="black" stroke-width="2" fill="none" />
<polyline points="233.5,255.5,217.5,257.5" stroke="black" stroke-width="2" fill="none" />
<polyline points="219.0,267.5,235.0,261.5,251.0,255.5" stroke="black" stroke-width="2" fill="none" />
<polyline points="263.5,244.0,279.5,240.0,295.5,242.0,311.5,252.0" stroke="black" stroke-width="2" fill="none" />
<polyline points="333.0,235.0,317.0,223.0" stroke="black" stroke-width="2" fill="none" />
<polyline points="319.0,209.5,335.0,227.5,351.0,224.0" stroke="black" stroke-width="2" fill="none" />
<polyline points="361.0,243.5,377.5,249.5,394.0,235.5" stroke="black" stroke-width="2" fill="none" />
<polyline points="430.5,231.0,422.0,247.0,422.0,247.0,438.5,246.5,452.5,246.5,468.5,237.0,488.5,232.5,504.5,220.5" stroke="black" stroke-width="2" fill="none" />
<polyline points="477.5,169.5,461.5,175.5,475.0,165.5" stroke="black" stroke-width="2" fill="none" />
<polyline points="478.0,144.0,466.0,160.0,440.5,176.0,428.5,194.0,428.5,210.0,434.5,212.0,438.0,228.0,443.5,235.5,445.5,249.5,437.5,255.5,417.5,267.5,420.0,287.5,444.0,297.5,452.5,314.0,434.5,318.5,443.0,329.0,423.0,339.0,431.5,339.0,449.5,334.5,465.5,333.0,469.5,339.0,493.5,338.5" stroke="black" stroke-width="2" fill="none" />
<polyline points="363.5,300.5,347.0,304.5,327.0,300.0,311.0,303.5,294.5,301.5,268.5,312.0,263.0,307.5,247.0,316.0,237.5,324.0,229.5,326.0,222.0,310.0,214.5,298.0,234.5,284.0,218.5,272.5,206.5,268.5" stroke="black" stroke-width="2" fill="none" />
<polyline points="200.5,263.0,212.0,269.0,220.0,285.5,232.0,303.5,233.5,319.5,253.0,317.5,261.0,317.0,269.0,333.5" stroke="black" stroke-width="2" fill="none" />
<polyline points="248.5,336.0,258.5,312.0,262.5,296.0" stroke="black" stroke-width="2" fill="none" />
<polyline points="247.5,298.5,245.5,282.5" stroke="black" stroke-width="2" fill="none" />
<polyline points="240.5,268.0,225.0,272.0" stroke="black" stroke-width="2" fill="none" />
<polyline points="227.5,242.0,212.0,240.0,210.0,230.5,194.0,231.0,192.0,239.5,176.0,243.0,166.0,245.0,164.0,255.0,159.5,268.5,169.5,258.5,153.5,274.5" stroke="black" stroke-width="2" fill="none" />
<polyline points="155.0,278.0,171.0,296.0,187.5,298.0,181.5,304.0,186.0,320.0" stroke="black" stroke-width="2" fill="none" />
<polyline points="182.0,337.0,168.0,330.5,160.0,318.5,154.0,306.0,169.5,303.5,159.5,287.5,151.0,271.0,161.0,255.0,181.0,238.5,159.0,234.5,153.5,224.5,138.0,217.0,156.0,201.0,166.0,185.0,158.0,177.0,174.0,161.0,186.5,145.5,186.5,145.5" stroke="black" stroke-width="2" fill="none" />
<polyline points="185.5,152.0,179.5,168.0,175.5,184.0,176.0,199.5,164.0,199.5,150.0,215.0,160.5,203.0,183.0,175.0,197.0,165.5,212.5,173.5" stroke="black" stroke-width="2" fill="none" />
<polyline points="196.0,158.0,216.0,174.0,204.0,188.0,202.0,202.0,179.5,219.5,180.0,245.5,172.0,261.5,166.5,278.0,172.5,296.0,176.5,311.5,170.5,327.5,181.0,327.5" stroke="black" stroke-width="2" fill="none" />
<polyline points="152.5,339.0,153.0,331.5,140.5,331.5,126.5,321.0,138.5,311.0,146.0,303.0,145.5,284.5,147.5,256.5,153.5,246.5,171.5,228.5,179.5,212.0,159.5,212.0" stroke="black" stroke-width="2" fill="none" />
<polyline points="182.5,206.0,198.5,200.5,198.5,226.0,212.5,234.0" stroke="black" stroke-width="2" fill="none" />
<polyline points="222.0,212.0,238.0,214.0,254.0,216.0,270.0,214.0" stroke="black" stroke-width="2" fill="none" />
<polyline points="272.0,186.0,288.0,193.5,298.0,190.0" stroke="black" stroke-width="2" fill="none" />
<polyline points="294.5,183.0,279.0,179.0" stroke="black" stroke-width="2" fill="none" />
<polyline points="277.5,185.0,293.5,187.0,309.0,187.0,325.0,195.0,331.0,217.0,343.0,232.5" stroke="black" stroke-width="2" fill="none" />
<polyline points="360.0,259.0,358.0,275.0,350.0,282.5" stroke="black" stroke-width="2" fill="none" />
<polyline points="328.5,236.5,325.0,223.0,317.0,207.0" stroke="black" stroke-width="2" fill="none" />
<polyline points="318.5,157.0,334.5,161.0,358.5,125.0,375.0,121.5,391.0,118.5,407.0,104.5,431.0,122.5,447.0,126.5" stroke="black" stroke-width="2" fill="none" />
<polyline points="438.0,152.5,454.5,152.5,470.5,146.0,487.0,138.0,503.0,138.5" stroke="black" stroke-width="2" fill="none" />
<polyline points="508.0,117.0,492.0,101.0" stroke="black" stroke-width="2" fill="none" />
<polyline points="493.5,95.5,495.5,105.5,509.5,107.5" stroke="black" stroke-width="2" fill="none" />
<polyline points="504.5,117.5,489.0,101.0,481.0,89.0" stroke="black" stroke-width="2" fill="none" />
<polyline points="463.0,74.0,465.0,70.5,475.0,76.0,447.0,92.0,461.0,94.5,454.5,110.5,464.5,118.0,492.5,111.5" stroke="black" stroke-width="2" fill="none" />
<polyline points="474.5,138.5,458.5,154.5,438.5,167.0,441.0,169.0,457.0,160.5,473.0,156.5,488.5,146.5,496.5,144.5" stroke="black" stroke-width="2" fill="none" />
<polyline points="506.5,70.0,490.0,82.0,470.0,88.5,468.0,82.0,451.5,90.0,433.5,91.5,431.5,85.5,420.0,86.0,404.0,98.5,388.0,90.5,372.5,97.0,362.0,105.0,350.0,126.5,350.0,134.5,334.0,148.5,338.5,130.5,370.5,114.5,376.5,99.0,397.0,80.5,419.5,74.5,411.5,68.5" stroke="black" stroke-width="2" fill="none" />
<polyline points="406.5,56.5,422.5,60.5,438.5,56.0" stroke="black" stroke-width="2" fill="none" />
<polyline points="424.5,76.0,414.5,92.0,416.5,104.0,400.5,114.0,380.0,130.0,391.5,124.0,407.5,122.0,417.5,98.5,433.5,98.5,452.0,98.5" stroke="black" stroke-width="2" fill="none" />
<polyline points="438.5,81.5,438.5,93.5,428.5,109.5,426.5,125.5,398.5,134.0,412.0,140.0,396.0,158.5,402.5,176.5,400.5,188.5,402.0,194.5,416.0,203.0,386.0,215.0,388.0,230.5,382.0,246.5,386.0,256.5,378.0,256.5,372.0,262.0,364.5,264.0,360.5,282.5,342.5,299.0,318.5,307.0,348.5,307.0,339.0,320.5,341.0,334.5,348.5,336.5,364.5,328.5,380.5,314.0,384.5,304.0,400.5,318.0,408.5,310.0,420.5,306.5,436.5,298.5,452.0,301.0,468.0,303.0,478.0,312.5,482.0,318.5,492.0,300.5,496.5,326.5" stroke="black" stroke-width="2" fill="none" />
<polyline points="299.0,259.5,283.5,259.5,267.5,259.5,252.0,261.5,246.5,279.5,230.5,289.5,215.0,297.5,199.0,295.0,169.0,299.0,153.0,303.0,137.0,295.5,125.0,260.0,112.5,250.0,96.5,254.5,80.0,226.5,66.0,204.5,39.5,204.0,51.5,216.0,63.5,199.5" stroke="black" stroke-width="2" fill="none" />
<polyline points="82.0,206.0,98.0,212.5,114.0,214.5" stroke="black" stroke-width="2" fill="none" />
<polyline points="111.0,190.5,127.5,196.5,152.0,196.0" stroke="black" stroke-width="2" fill="none" />
<polyline points="132.0,179.0,116.0,183.0" stroke="black" stroke-width="2" fill="none" />
<polyline points="103.0,167.0,87.0,169.5,70.5,170.0,62.5,190.0,46.5,198.5,30.5,196.5" stroke="black" stroke-width="2" fill="none" />
<polyline points="32.5,193.5,42.0,210.0,54.0,222.0,64.0,228.0,54.0,244.0,28.0,240.0,24.5,268.0,20.5,272.0,5.0,276.0,7.0,294.0,15.0,301.5,19.0,314.0,5.0,320.0,5.0,333.5,21.0,331.5,14.5,327.0,16.0,337.0,42.0,333.0,57.5,329.0,59.5,322.5,73.0,328.5,77.5,332.5,83.5,324.5,86.0,337.0,102.0,337.5,108.0,328.0,114.5,332.0,128.5,320.5,139.0,338.5,147.5,329.0,155.5,325.0,171.5,333.0,187.0,335.0" stroke="black" stroke-width="2" fill="none" />
<polyline points="195.0,323.0,189.0,306.5,193.0,294.5,186.5,278.5,188.5,262.5,182.0,258.0,163.5,249.5,147.0,249.5,147.0,255.5" stroke="black" stroke-width="2" fill="none" />
<polyline points="126.0,276.5,134.0,292.5,128.0,296.5" stroke="black" stroke-width="2" fill="none" />
<polyline points="111.0,300.0,117.0,283.5,115.0,281.5,99.0,279.5" stroke="black" stroke-width="2" fill="none" />
<polyline points="92.0,289.0,108.0,302.5" stroke="black" stroke-width="2" fill="none" />
<polyline points="105.5,306.5,91.0,290.0,79.5,267.5,77.5,271.5" stroke="black" stroke-width="2" fill="none" />
<polyline points="58.5,255.5,60.0,265.5,78.0,279.5,84.0,281.5,88.0,297.0,104.0,311.0" stroke="black" stroke-width="2" fill="none" />
<polyline points="70.0,314.0,53.5,312.0" stroke="black" stroke-width="2" fill="none" />
<polyline points="51.5,303.0,67.5,297.0,81.5,295.0,87.0,310.5,104.5,326.5" stroke="black" stroke-width="2" fill="none" />
<polyline points="118.0,318.5,102.0,319.0,74.0,325.0,57.5,321.0,41.5,313.0" stroke="black" stroke-width="2" fill="none" />
<polyline points="46.0,323.0,56.0,305.0,46.0,290.5,42.0,300.5" stroke="black" stroke-width="2" fill="none" />
<polyline points="37.5,332.5,33.5,316.5,39.5,312.5,48.5,292.5,42.5,276.5,26.5,266.5,24.0,272.5" stroke="black" stroke-width="2" fill="none" />
<polyline points="1.0,268.0,17.0,260.0,25.0,286.0,29.0,305.5,25.0,322.0,33.0,338.0" stroke="black" stroke-width="2" fill="none" />
<polyline points="50.0,239.5,66.0,229.5,81.5,229.5" stroke="black" stroke-width="2" fill="none" />
<polyline points="68.0,220.5,96.0,206.5,116.5,222.0" stroke="black" stroke-width="2" fill="none" />
<polyline points="137.0,232.5,113.0,224.0,87.0,208.0" stroke="black" stroke-width="2" fill="none" />
<polyline points="74.5,224.5,61.0,224.5,44.5,232.5,38.0,231.0,34.0,225.0,18.0,220.5,2.5,218.5" stroke="black" stroke-width="2" fill="none" />
<polyline points="1.5,199.0,17.5,191.0,34.0,179.0,50.0,166.5,58.5,176.0,74.5,165.5,90.0,163.5,106.0,161.5,122.0,157.5,138.0,157.5,154.5,143.5" stroke="black" stroke-width="2" fill="none" />
<polyline points="171.5,135.5,159.0,151.5,149.0,178.0,154.5,180.0,156.5,192.0,150.0,190.0,159.5,174.5,175.5,158.5,191.0,134.5,207.0,130.0,211.0,142.0,227.0,150.0,249.0,132.0,261.0,121.5" stroke="black" stroke-width="2" fill="none" />
<polyline points="271.0,130.5,267.0,146.0,271.0,150.0,270.5,166.0,288.0,196.0,291.5,212.0,297.5,236.0,305.5,246.5,301.5,257.0,309.5,257.0,307.5,273.0,305.5,281.0" stroke="black" stroke-width="2" fill="none" />
<polyline points="213.0,305.0,217.0,321.0" stroke="black" stroke-width="2" fill="none" />
<polyline points="223.0,225.5,211.0,208.0,221.0,192.5,199.0,197.0" stroke="black" stroke-width="2" fill="none" />
<polyline points="193.0,155.5,199.0,171.0,196.5,187.0,192.5,187.0,174.5,203.5,168.0,219.5,160.0,227.5,168.0,233.0,188.0,217.0,204.0,206.5,212.0,214.5,227.5,220.5,243.5,232.5,265.0,225.0" stroke="black" stroke-width="2" fill="none" />
<polyline points="290.5,162.0,282.5,162.5,274.0,158.5,264.0,174.5,248.0,174.5,232.0,173.0,216.0,155.0,200.5,150.5,184.5,154.5" stroke="black" stroke-width="2" fill="none" />
<polyline points="191.5,128.5,207.5,124.0,223.5,128.0,233.0,138.0,239.0,124.0" stroke="black" stroke-width="2" fill="none" />
<polyline points="224.5,122.0,208.5,118.0" stroke="black" stroke-width="2" fill="none" />
<polyline points="184.5,78.0,172.0,74.0,156.0,79.5,142.0,89.0,143.5,100.5,163.5,98.5,147.0,102.5" stroke="black" stroke-width="2" fill="none" />
<polyline points="150.5,72.5,134.5,88.0,100.5,104.0,92.5,109.5,76.5,116.0,94.0,132.0,86.5,126.5,102.5,128.5" stroke="black" stroke-width="2" fill="none" />
<polyline points="95.0,98.5,88.5,88.5,94.5,92.5,108.0,84.5,92.0,94.0,76.0,100.0,74.0,105.5" stroke="black" stroke-width="2" fill="none" />
<polyline points="72.0,90.5,56.0,104.5" stroke="black" stroke-width="2" fill="none" />
<polyline points="54.0,129.5,38.5,127.5,22.5,129.5" stroke="black" stroke-width="2" fill="none" />
<polyline points="21.0,111.5,37.0,114.0,53.0,114.0,69.0,119.5,87.0,129.5,96.5,117.0" stroke="black" stroke-width="2" fill="none" />
<polyline points="95.5,72.0,111.5,80.5,113.5,90.0,133.5,105.5,149.5,95.5,167.5,88.0,183.5,96.5,199.0,96.5" stroke="black" stroke-width="2" fill="none" />
<polyline points="202.0,61.5,186.0,55.5" stroke="black" stroke-width="2" fill="none" />
<polyline points="197.5,55.5,213.5,55.5" stroke="black" stroke-width="2" fill="none" />
<polyline points="220.5,65.5,220.5,54.0,213.0,44.0,211.0,28.0,195.5,10.0,181.5,20.0,167.5,28.5,163.5,40.0,161.5,34.0,145.5,44.0,145.5,30.0,129.5,30.0,121.5,34.0,97.5,34.0,75.5,26.0,68.5,10.0,46.5,12.0" stroke="black" stroke-width="2" fill="none" />
<polyline points="39.0,24.5,41.0,20.5,56.5,20.5,72.0,28.5,78.0,26.0,94.5,10.0,110.5,16.0,126.5,22.0,154.5,20.0,164.5,26.0,180.5,16.0,188.5,6.5,206.5,6.0,218.5,12.0,234.5,10.0,248.5,6.0,256.5,8.0,274.5,4.0,285.0,4.5" stroke="black" stroke-width="2" fill="none" />
<polyline points="298.5,9.0,294.0,22.5,292.0,32.5,290.0,26.5,312.0,10.5" stroke="black" stroke-width="2" fill="none" />
<polyline points="315.5,11.5,311.5,27.5,301.0,33.5,298.5,59.5,300.5,69.5,286.5,77.5,284.5,100.0,300.5,98.0,316.0,87.5,332.5,87.5,348.0,98.0,366.0,78.0,376.5,62.0,382.5,64.0,388.5,42.0,402.5,48.0,418.0,40.0,427.5,47.5,435.5,27.5,449.5,37.5,457.5,19.5,480.0,7.5,496.0,3.5" stroke="black" stroke-width="2" fill="none" />
<polyline points="495.5,9.0,479.5,15.0,463.5,7.0,448.0,10.5,432.0,16.5,415.5,26.5,402.0,36.0,386.0,38.0,364.0,47.5,366.0,37.5,366.0,35.5" stroke="black" stroke-width="2" fill="none" />
<polyline points="362.5,32.0,378.5,30.5,394.5,28.5" stroke="black" stroke-width="2" fill="none" />
<polyline points="411.0,37.0,405.0,55.0,420.5,47.0,436.5,38.5,452.0,34.0" stroke="black" stroke-width="2" fill="none" />
<polyline points="468.5,50.5,458.5,54.5,428.0,68.5,444.5,64.5,460.5,52.0,474.5,52.5,478.5,56.0,494.5,54.0,510.0,32.0" stroke="black" stroke-width="2" fill="none" />
<polyline points="507.0,27.0,511.0,43.0,511.0,61.0,481.0,85.0,489.0,93.0,468.5,102.5,476.0,108.5,458.0,122.5,463.5,110.5,471.5,98.0,487.5,92.0,495.5,84.0,507.5,86.0" stroke="black" stroke-width="2" fill="none" />
<polyline points="503.5,11.0,494.0,30.5,492.0,40.5,486.0,40.5,495.5,24.5,495.5,21.0,483.5,22.5,467.0,20.5,459.0,14.0,443.0,20.0,427.0,28.0,411.0,36.5,395.0,46.5,379.0,54.5,371.5,54.5,403.5,26.5,416.0,16.5,432.0,10.5,454.5,4.5,436.0,8.5,420.5,6.5,404.5,8.0,396.0,15.5,379.5,23.5,363.5,25.5,341.0,39.5,333.0,31.5,325.0,25.5,343.0,1.5,329.5,7.5" stroke="black" stroke-width="2" fill="none" />
<polyline points="330.5,9.5,347.0,7.5,357.0,8.0,361.0,16.5,377.5,14.5,383.5,10.5,403.5,18.5,413.5,14.0" stroke="black" stroke-width="2" fill="none" />
<polyline points="381.5,3.0,365.5,8.5" stroke="black" stroke-width="2" fill="none" />
<polyline points="361.5,20.5,377.5,18.0,385.0,32.0,400.5,31.5,416.0,29.5" stroke="black" stroke-width="2" fill="none" />
<polyline points="404.5,78.0,398.5,78.0,382.0,79.5,365.5,85.0" stroke="black" stroke-width="2" fill="none" />
<polyline points="371.0,72.0,355.0,82.0,370.5,68.0,376.5,72.0,392.5,72.5,408.5,68.5,424.0,66.5,432.5,53.0,448.5,49.0,466.5,53.0" stroke="black" stroke-width="2" fill="none" />
<polyline points="502.0,56.5,492.0,64.5,484.0,68.0,468.0,64.0,452.5,70.0,426.5,73.5,410.5,73.5,402.5,94.0,386.5,110.0,394.5,100.0,412.5,84.0" stroke="black" stroke-width="2" fill="none" />
<polyline points="376.5,105.5,360.5,119.5" stroke="black" stroke-width="2" fill="none" />
<polyline points="363.0,123.5,358.5,139.5,336.0,153.5,344.0,173.5,359.5,171.5,375.5,162.0,401.5,154.0,401.5,162.5,418.0,164.5,426.0,168.5,434.5,174.5,450.0,173.0,466.0,164.5,482.0,163.0,497.5,161.0,509.5,145.0" stroke="black" stroke-width="2" fill="none" />
<polyline points="372.0,134.5,355.5,142.5" stroke="black" stroke-width="2" fill="none" />
<polyline points="355.5,142.0,358.0,158.0" stroke="black" stroke-width="2" fill="none" />
<polyline points="380.5,152.0,370.5,136.0" stroke="black" stroke-width="2" fill="none" />
<polyline points="367.0,135.0,371.0,150.5,361.0,158.0,379.0,150.0" stroke="black" stroke-width="2" fill="none" />
<polyline points="382.5,158.0,378.5,142.0,368.5,126.0" stroke="black" stroke-width="2" fill="none" />
<polyline points="394.0,82.5,378.0,88.5,362.0,90.0,334.5,73.5,318.5,73.5" stroke="black" stroke-width="2" fill="none" />
<polyline points="323.0,85.5,305.0,102.0,316.5,122.0" stroke="black" stroke-width="2" fill="none" />
<polyline points="314.0,116.5,298.0,108.5,282.0,114.5,266.0,94.5" stroke="black" stroke-width="2" fill="none" />
<polyline points="281.5,86.0,298.0,82.0,314.0,74.5,312.5,85.0,296.5,93.5,312.5,85.5,328.0,81.0,339.5,91.0" stroke="black" stroke-width="2" fill="none" />
<polyline points="342.5,101.5,326.5,93.5,310.5,97.5" stroke="black" stroke-width="2" fill="none" />
<polyline points="305.5,101.5,321.5,101.5,337.0,107.5" stroke="black" stroke-width="2" fill="none" />
<polyline points="322.0,93.0,341.5,108.5,329.5,118.5,331.0,134.5,326.5,150.5,328.5,155.0,324.0,174.5,319.5,182.5,345.0,194.5,369.0,213.0,373.0,223.0,359.0,241.0,347.0,248.5,333.5,254.0,349.5,260.0,345.5,275.5,358.0,291.0,376.0,291.5,384.0,291.0,398.0,273.0,414.0,281.0,422.0,297.0,428.0,291.5,450.5,282.0,466.5,280.0,482.5,268.0,498.0,276.5,510.0,283.0" stroke="black" stroke-width="2" fill="none" />
<polyline points="402.0,209.5,390.0,203.5,374.5,211.5,370.0,223.5,354.5,233.5,334.5,239.5,310.5,255.5,300.5,251.5,285.0,247.5,281.0,241.5,265.0,251.0,280.5,241.0,286.5,215.0,280.5,199.5,260.5,184.0,278.5,172.0,292.5,156.5" stroke="black" stroke-width="2" fill="none" />
<polyline points="295.5,165.5,301.5,149.5,295.5,133.5" stroke="black" stroke-width="2" fill="none" />
<polyline points="301.5,110.5,303.5,126.5,312.0,142.0,314.0,158.0,318.5,174.5,336.5,192.5,352.5,196.5,368.5,194.5,384.5,190.5,400.0,188.5" stroke="black" stroke-width="2" fill="none" />
<polyline points="322.0,164.0,316.0,148.0" stroke="black" stroke-width="2" fill="none" />
<polyline points="255.0,150.5,257.0,166.5" stroke="black" stroke-width="2" fill="none" />
<polyline points="289.0,75.5,304.5,67.0" stroke="black" stroke-width="2" fill="none" />
<polyline points="287.5,71.0,291.5,61.0,311.5,37.5,327.0,55.5" stroke="black" stroke-width="2" fill="none" />
<polyline points="342.5,60.0,344.5,44.0,334.5,44.0,318.0,42.0,302.0,30.0" stroke="black" stroke-width="2" fill="none" />
<polyline points="312.0,31.0,312.0,46.5,312.0,56.5,308.5,66.5" stroke="black" stroke-width="2" fill="none" />
<polyline points="327.5,88.0,341.5,90.0,345.5,109.5,335.5,111.5,339.0,119.0" stroke="black" stroke-width="2" fill="none" />
<polyline points="296.0,175.5,280.0,173.5,264.5,179.5,248.5,177.5,238.5,187.5,222.0,188.0,208.0,186.0,194.5,190.0,176.5,204.0,160.5,220.0,144.5,224.5,128.5,224.5,129.0,225.0,135.0,209.0,131.0,193.0,143.0,177.0,165.0,161.0,178.5,145.0,190.5,129.0,184.5,111.0,204.5,96.5,200.5,80.5,200.5,70.5,198.5,54.0" stroke="black" stroke-width="2" fill="none" />
<polyline points="200.5,61.0,214.5,77.5" stroke="black" stroke-width="2" fill="none" />
<polyline points="223.0,116.5,209.5,114.0,197.0,102.0,179.0,82.0,177.0,88.0,163.0,71.5,147.0,73.5,131.0,92.0,113.5,96.0,103.5,114.5,88.0,114.5,78.0,99.0,56.0,92.5,34.0,91.0,18.5,90.5,28.5,72.0,14.5,52.0,4.0,44.0,8.5,27.5,4.5,25.5,14.5,21.5,12.5,16.0" stroke="black" stroke-width="2" fill="none" />
<polyline points="4.0,16.0,20.0,4.0,41.5,28.0,63.5,42.0,75.5,38.5,91.5,46.5,108.0,46.5,124.0,64.5,126.0,76.0,142.0,68.0,158.0,63.5,174.0,66.0,186.0,62.0,202.0,70.5" stroke="black" stroke-width="2" fill="none" />
<polyline points="214.5,36.5,214.5,44.5,216.5,60.5,222.5,76.5,222.5,92.0,205.0,107.5,184.5,116.0,156.5,122.0,134.5,142.0,126.5,152.5,126.5,146.5,150.5,138.0,160.5,128.0,178.5,121.5,182.5,111.0" stroke="black" stroke-width="2" fill="none" />
<polyline points="126.5,79.5,110.5,73.5,94.5,68.0,86.5,62.5,60.5,47.0,44.5,39.0,28.0,35.0" stroke="black" stroke-width="2" fill="none" />
<polyline points="26.0,29.0,42.0,33.0,58.5,41.0,74.5,45.0,76.5,51.0,92.5,51.0" stroke="black" stroke-width="2" fill="none" />
<polyline points="95.0,22.5,79.0,20.5,63.0,6.5" stroke="black" stroke-width="2" fill="none" />
<polyline points="74.5,5.0,90.5,5.0,106.5,4.5,122.5,4.5,140.5,8.5,156.5,10.5" stroke="black" stroke-width="2" fill="none" />
<polyline points="159.0,14.0,143.0,14.0,127.0,13.5,111.0,11.5" stroke="black" stroke-width="2" fill="none" />
<polyline points="103.0,7.5,119.5,7.5,135.5,4.0,151.5,4.0" stroke="black" stroke-width="2" fill="none" />
<polyline points="121.0,26.5,105.5,20.5,89.5,17.0" stroke="black" stroke-width="2" fill="none" />
<polyline points="97.5,18.0,121.5,34.0,123.0,50.5,117.0,60.5,148.5,44.5,164.5,48.5,180.5,52.5,196.0,50.5,212.0,38.0,228.0,32.0,244.0,40.0,258.0,36.0,273.5,42.0" stroke="black" stroke-width="2" fill="none" />
<polyline points="264.5,34.0,248.5,28.0" stroke="black" stroke-width="2" fill="none" />
<polyline points="241.5,38.0,259.5,54.0,265.0,70.0,279.0,78.0,267.0,96.0,259.0,97.5,260.5,102.0" stroke="black" stroke-width="2" fill="none" />
<polyline points="255.5,60.0,260.0,76.0,256.0,92.0,262.0,88.0,250.5,104.5,246.5,120.5,248.5,136.5,250.5,152.0,238.5,168.0,233.0,192.0,235.0,206.0,227.0,216.0,229.0,234.5,233.0,234.5" stroke="black" stroke-width="2" fill="none" />
<polyline points="131.0,169.5,115.0,167.5,111.0,173.5,103.5,197.5,95.5,185.5,86.0,189.5,80.5,179.5,64.5,179.5,53.0,187.5,37.0,193.0,21.0,195.0" stroke="black" stroke-width="2" fill="none" />
<polyline points="38.5,187.0,44.5,177.0" stroke="black" stroke-width="2" fill="none" />
<polyline points="40.5,146.5,25.0,162.5,9.0,161.0" stroke="black" stroke-width="2" fill="none" />
<polyline points="2.5,160.5,18.0,155.0,34.0,154.5,50.0,159.0,41.5,171.0,21.5,187.0,3.5,192.5,19.5,182.5,27.5,166.5,38.0,150.0,53.5,148.0,70.0,152.0" stroke="black" stroke-width="2" fill="none" />
<polyline points="97.0,135.0,95.5,143.0,80.0,141.5,64.0,143.5,64.5,145.5,54.0,133.5,44.5,123.5,30.5,97.5,14.5,101.5" stroke="black" stroke-width="2" fill="none" />
<polyline points="12.0,80.5,27.5,84.5,43.5,82.5,59.0,79.0" stroke="black" stroke-width="2" fill="none" />
<polyline points="37.0,56.5,21.0,64.5" stroke="black" stroke-width="2" fill="none" />
<polyline points="13.0,67.5,28.5,71.0,28.5,67.0,44.0,67.0,62.0,67.5,78.5,55.5,93.5,57.5,109.0,49.5" stroke="black" stroke-width="2" fill="none" />
<polyline points="100.5,34.0,80.0,33.5,64.0,31.0,48.0,29.0" stroke="black" stroke-width="2" fill="none" />
<polyline points="68.5,66.0,66.0,49.5,26.0,45.5,9.5,49.5" stroke="black" stroke-width="2" fill="none" />
<polyline points="2.0,130.0,17.5,126.0,33.5,122.5,49.5,120.5,69.0,126.5,57.0,138.0,63.0,122.0,79.0,132.5,75.5,150.5,93.5,149.0,105.5,151.0,121.5,143.0" stroke="black" stroke-width="2" fill="none" />
<polyline points="170.0,98.0,164.0,114.0,148.0,126.5,146.5,108.5,170.5,112.5,185.0,96.5,183.0,84.5,173.0,69.0,161.0,59.0,153.0,43.0" stroke="black" stroke-width="2" fill="none" />
<polyline points="98.0,12.0,129.5,40.0,137.5,52.0,145.5,86.0,133.0,98.0,137.0,114.0,149.0,116.0,144.5,136.0,118.5,144.5,102.5,168.5,106.5,186.5,112.5,186.5,112.5,205.0,117.0,219.0,133.0,224.5,137.0,232.5,144.5,236.5,142.5,252.5,141.0,268.5,161.0,276.5,179.0,277.0,197.0,282.5,208.5,308.5,212.5,324.5,202.5,338.5" stroke="black" stroke-width="2" fill="none" />
<polyline points="114.5,268.0,105.0,268.5,79.0,258.5,65.5,240.0,39.5,260.0,39.0,252.0,23.0,253.5,18.5,237.5" stroke="black" stroke-width="2" fill="none" />
<polyline points="1.5,242.0,6.0,228.0,12.0,248.5,14.0,264.5,9.5,280.5,8.0,296.5,10.0,284.5,22.5,289.0,30.5,289.0,40.0,275.0,56.0,278.5,56.0,274.5,60.5,270.0,86.5,286.0,96.5,262.0,100.0,271.5,108.5,295.5,114.5,287.5,121.0,305.0,135.0,305.0,149.0,313.0" stroke="black" stroke-width="2" fill="none" />
<polyline points="113.0,322.5,93.0,324.5,75.0,330.5,79.0,314.5,77.0,298.5,71.0,282.5,62.5,264.5,62.5,252.5,58.0,250.5,66.0,234.5" stroke="black" stroke-width="2" fill="none" />
<polyline points="16.5,170.5,0.5,166.5" stroke="black" stroke-width="2" fill="none" />
<polyline points="255.5,26.5,261.0,10.5" stroke="black" stroke-width="2" fill="none" />
<polyline points="255.5,8.5,245.5,14.5,249.5,30.5,274.0,48.5,280.0,56.0,290.0,54.0,276.5,68.0,275.0,84.5,283.0,100.5,281.0,118.5,291.0,127.0,279.0,138.5,263.0,144.0,241.0,160.0,241.0,168.0,257.0,158.0,268.5,154.0,284.5,148.0,290.0,168.0,298.0,166.0,313.5,176.0,318.0,180.0,334.0,178.5,342.0,188.5,367.5,180.5,384.0,176.5,400.0,178.5,406.5,185.0,422.5,181.0,438.0,183.0,454.0,178.5,470.0,168.5,486.5,164.0,502.5,164.0,508.5,168.0,510.0,187.5,506.5,199.5,510.5,209.5,501.0,227.0,493.0,229.0,497.0,231.0,499.0,241.0,497.0,251.0,503.0,253.5,491.0,261.5,479.0,270.0,473.0,278.0,479.0,294.5,498.5,298.5,490.5,314.5,482.5,314.0,502.5,326.5,508.5,338.5" stroke="black" stroke-width="2" fill="none" />
<polyline points="340.0,46.5,326.0,50.0,314.0,34.5" stroke="black" stroke-width="2" fill="none" />
</svg>