<svg xmlns="http://www.w3.org/2000/svg" version="1.1"><polyline points="196.0,1.0,183.0,13.0,184.5,18.0,167.0,31.5" stroke="black" stroke-width="2" fill="none" />
<polyline points="178.5,28.5,166.5,31.5,154.5,34.5" stroke="black" stroke-width="2" fill="none" />
<polyline points="152.5,44.0,164.5,49.5,176.5,55.0,188.0,51.5,199.5,49.5,211.5,40.0,220.5,38.5,235.5,29.5,247.5,43.5,258.0,43.5" stroke="black" stroke-width="2" fill="none" />
<polyline points="263.5,39.5,251.5,26.0" stroke="black" stroke-width="2" fill="none" />
<polyline points="257.0,28.0,269.0,33.5,285.5,34.0,294.5,22.0,306.5,16.5,318.5,18.0,321.5,30.0,338.5,37.5,350.5,37.5,369.0,27.0,380.5,25.0,393.0,22.5,405.0,18.0,421.0,30.5,433.0,25.5,445.0,21.0,457.0,18.0" stroke="black" stroke-width="2" fill="none" />
<polyline points="468.5,9.0,456.5,21.0,447.0,34.5" stroke="black" stroke-width="2" fill="none" />
<polyline points="448.0,35.5,441.0,41.5,429.0,47.5,417.0,52.0,401.5,64.0,395.5,76.0,383.0,80.0,371.5,81.5,359.5,88.5,353.5,81.5,358.0,69.5,373.0,64.0" stroke="black" stroke-width="2" fill="none" />
<polyline points="373.5,68.0,385.0,67.5,397.0,69.0,409.0,67.5,420.5,64.5" stroke="black" stroke-width="2" fill="none" />
<polyline points="422.0,74.0,420.5,80.0,414.5,91.5,396.5,93.0,414.0,91.0,414.0,77.5,426.0,74.5" stroke="black" stroke-width="2" fill="none" />
<polyline points="423.5,90.0,406.5,91.5,393.0,104.0,374.5,110.0,356.5,122.0,345.5,134.0,346.5,140.5,345.0,146.5,358.0,140.5,365.5,131.0,376.0,135.5,379.0,143.0,391.0,144.5,403.0,148.5,415.0,143.0,427.0,131.0,439.5,119.0,440.0,128.5,448.0,113.5,460.0,111.0,472.0,115.5,484.0,100.5,485.5,94.0,494.5,106.0,505.0,101.5,511.0,110.5,503.5,115.0" stroke="black" stroke-width="2" fill="none" />
<polyline points="503.5,121.0,490.0,116.5,484.0,111.0,478.0,113.0,469.0,109.0,473.5,103.0,476.0,103.5,488.5,92.0,502.0,81.5,503.5,83.0" stroke="black" stroke-width="2" fill="none" />
<polyline points="495.5,93.0,492.5,103.5" stroke="black" stroke-width="2" fill="none" />
<polyline points="476.5,92.0,488.5,86.0,500.0,81.5,504.5,71.0,485.0,83.5,468.0,95.5,453.0,103.0,449.5,115.0,462.5,122.5,469.0,133.0,458.5,142.0,458.5,146.5,442.0,166.0,441.0,176.0,453.5,169.5,466.0,165.5,478.0,162.0,490.5,161.0,502.5,159.5" stroke="black" stroke-width="2" fill="none" />
<polyline points="505.5,148.5,493.5,150.0,481.5,150.5" stroke="black" stroke-width="2" fill="none" />
<polyline points="484.0,147.5,472.0,158.0,460.0,165.5,470.5,148.5,473.5,136.5" stroke="black" stroke-width="2" fill="none" />
<polyline points="473.5,124.0,467.5,125.0,454.0,137.0,455.5,154.5,467.5,149.5,481.0,140.5,493.5,137.5,505.5,136.5,501.0,144.0" stroke="black" stroke-width="2" fill="none" />
<polyline points="498.0,182.5,510.0,188.5" stroke="black" stroke-width="2" fill="none" />
<polyline points="495.0,192.0,507.0,195.0,505.5,207.0,500.5,219.0,493.0,231.0,483.5,234.0,470.5,252.0,478.0,264.0,470.0,276.0,462.5,280.0,479.0,289.0,484.5,296.5,479.0,305.5,492.5,313.5" stroke="black" stroke-width="2" fill="none" />
<polyline points="507.5,290.0,507.5,278.0,509.0,266.0,510.5,255.5" stroke="black" stroke-width="2" fill="none" />
<polyline points="494.5,256.5,496.0,260.0,509.0,251.5,503.0,263.5,497.0,270.0,500.0,270.0,500.0,282.5" stroke="black" stroke-width="2" fill="none" />
<polyline points="498.0,282.0,487.5,272.5,480.0,257.5,474.0,267.5,458.0,282.5,446.0,282.5,437.5,284.5,452.5,274.0,458.5,260.5,451.5,258.0,454.5,245.5,451.5,232.0,443.5,230.0,443.5,218.0,452.5,203.0,464.5,194.0,481.0,182.5,488.5,188.5,476.5,195.0,464.5,198.0" stroke="black" stroke-width="2" fill="none" />
<polyline points="465.0,197.0,453.5,209.5,454.5,220.0,453.0,235.0,447.0,236.5,453.0,223.0,460.5,218.5,460.0,203.5,470.0,206.5" stroke="black" stroke-width="2" fill="none" />
<polyline points="475.0,200.0,463.0,205.5,469.0,211.5,467.5,217.5,461.0,230.0,463.0,245.0,467.5,258.5" stroke="black" stroke-width="2" fill="none" />
<polyline points="474.0,252.0,486.0,247.5,498.0,246.0,504.0,233.5,509.5,216.5" stroke="black" stroke-width="2" fill="none" />
<polyline points="510.0,208.0,508.5,217.0,507.0,223.0,496.5,228.5,501.0,230.0,498.0,239.0,498.0,246.0,490.5,258.0,484.5,270.0,490.5,274.5,490.5,286.5,493.5,303.0,489.0,321.0,501.0,313.5,505.5,318.5" stroke="black" stroke-width="2" fill="none" />
<polyline points="501.5,324.5,509.0,309.5,510.5,300.5,504.5,287.0,492.5,287.0,488.5,291.5,488.5,280.0,491.5,267.5,482.5,254.0,473.5,251.0,463.0,245.0" stroke="black" stroke-width="2" fill="none" />
<polyline points="457.0,254.0,461.5,260.0,457.0,272.0,457.5,285.5,465.0,288.5,468.0,278.5,480.5,267.5" stroke="black" stroke-width="2" fill="none" />
<polyline points="492.5,270.0,498.5,282.0,490.5,294.0" stroke="black" stroke-width="2" fill="none" />
<polyline points="475.5,302.0,463.5,302.0,451.0,300.5" stroke="black" stroke-width="2" fill="none" />
<polyline points="443.0,302.0,455.0,306.5,469.5,311.5,469.5,323.5,461.0,338.5,468.5,338.5" stroke="black" stroke-width="2" fill="none" />
<polyline points="465.5,333.0,453.5,336.0" stroke="black" stroke-width="2" fill="none" />
<polyline points="442.0,338.5,442.0,329.5,433.5,329.5,449.0,317.5,458.0,318.0" stroke="black" stroke-width="2" fill="none" />
<polyline points="447.5,291.5,431.0,289.0,419.0,289.0" stroke="black" stroke-width="2" fill="none" />
<polyline points="410.0,300.0,398.0,301.0,382.0,308.0,364.0,300.0,352.5,310.0,351.5,316.0,339.5,319.0,327.5,323.5,315.0,324.0,310.5,316.5,324.0,297.5,330.0,285.5,333.0,274.0,329.0,278.5,320.0,275.5,308.0,287.5,296.0,268.0,284.5,266.5,272.5,268.5,260.5,271.5,267.5,282.5,273.0,270.0,295.5,256.5,298.5,241.5,286.0,240.0,273.5,238.5,261.5,241.5" stroke="black" stroke-width="2" fill="none" />
<polyline points="260.0,239.5,272.0,235.0,284.0,233.0,296.0,234.5,308.0,242.0" stroke="black" stroke-width="2" fill="none" />
<polyline points="301.0,246.0,310.0,258.0" stroke="black" stroke-width="2" fill="none" />
<polyline points="309.5,263.5,297.5,248.5" stroke="black" stroke-width="2" fill="none" />
<polyline points="307.0,252.5,302.5,246.5,287.5,245.0,276.0,256.0,264.0,253.0,254.5,259.5,242.5,259.5,229.0,270.0,227.5,265.5,215.5,271.5" stroke="black" stroke-width="2" fill="none" />
<polyline points="217.0,273.5,229.5,277.0" stroke="black" stroke-width="2" fill="none" />
<polyline points="234.0,292.0,246.0,298.0,245.0,320.5,238.0,332.5" stroke="black" stroke-width="2" fill="none" />
<polyline points="235.0,319.0,223.0,310.0" stroke="black" stroke-width="2" fill="none" />
<polyline points="221.0,298.5,218.0,311.0,225.5,318.5,233.0,328.0,245.5,322.0" stroke="black" stroke-width="2" fill="none" />
<polyline points="252.5,317.0,254.0,329.5" stroke="black" stroke-width="2" fill="none" />
<polyline points="249.5,304.5,262.0,298.5,264.0,310.0,276.0,316.0" stroke="black" stroke-width="2" fill="none" />
<polyline points="271.0,300.5,289.0,305.0,301.0,296.0" stroke="black" stroke-width="2" fill="none" />
<polyline points="291.0,293.5,287.0,302.5,275.0,296.5" stroke="black" stroke-width="2" fill="none" />
<polyline points="264.0,298.5,271.5,310.5,274.0,323.0,279.0,322.0,296.0,321.5,303.5,305.0,316.0,296.0" stroke="black" stroke-width="2" fill="none" />
<polyline points="331.0,304.5,319.0,313.5" stroke="black" stroke-width="2" fill="none" />
<polyline points="322.5,321.0,335.0,318.0,345.5,304.5" stroke="black" stroke-width="2" fill="none" />
<polyline points="341.0,318.0,350.0,313.5,345.5,303.0,344.0,285.5,342.0,273.5" stroke="black" stroke-width="2" fill="none" />
<polyline points="331.0,250.0,319.0,236.5" stroke="black" stroke-width="2" fill="none" />
<polyline points="322.5,234.0,333.0,246.5" stroke="black" stroke-width="2" fill="none" />
<polyline points="313.5,231.0,325.5,247.5,340.0,266.5,338.5,278.5,335.5,283.5,328.0,304.5,317.5,309.5,307.0,321.5,337.0,332.0,345.0,338.0" stroke="black" stroke-width="2" fill="none" />
<polyline points="323.0,328.0,335.0,333.0,347.5,330.0,359.5,324.0,358.0,320.0,372.0,318.5,384.0,315.5" stroke="black" stroke-width="2" fill="none" />
<polyline points="388.5,324.5,385.5,325.0,373.5,333.5,370.5,330.0,382.5,325.5,403.5,323.0,417.0,319.0" stroke="black" stroke-width="2" fill="none" />
<polyline points="410.0,338.5,417.5,326.5,422.5,317.0,427.0,309.5,431.0,297.5,423.5,292.5,415.5,280.5,413.5,271.5,418.0,259.5,416.5,247.0,414.5,242.5,418.0,230.5,424.0,218.5,431.5,208.0,449.5,196.5,434.5,195.0,453.0,183.0,480.5,176.0,485.0,170.0,473.5,173.0,461.5,176.5" stroke="black" stroke-width="2" fill="none" />
<polyline points="464.0,170.0,448.5,182.0" stroke="black" stroke-width="2" fill="none" />
<polyline points="418.5,163.0,406.5,161.5,400.5,154.0,391.5,169.0,379.5,170.5,367.0,182.5" stroke="black" stroke-width="2" fill="none" />
<polyline points="377.5,153.5,370.0,137.0" stroke="black" stroke-width="2" fill="none" />
<polyline points="380.5,129.0,378.0,141.0,363.0,154.5" stroke="black" stroke-width="2" fill="none" />
<polyline points="346.5,131.5,358.0,123.0,365.5,120.0,377.5,109.5,389.5,109.5,401.5,95.5,413.5,86.5" stroke="black" stroke-width="2" fill="none" />
<polyline points="416.5,100.0,428.0,97.0,437.0,91.0,449.0,88.0,461.0,80.5,462.0,84.0,474.0,79.0" stroke="black" stroke-width="2" fill="none" />
<polyline points="476.5,76.0,467.5,70.0,455.5,73.5,438.5,82.0,426.5,91.0,415.0,96.0,397.0,91.5,385.5,91.0,374.0,93.5,359.5,107.0,344.5,120.5,347.5,123.5,364.0,113.0,376.0,101.0,397.0,84.5" stroke="black" stroke-width="2" fill="none" />
<polyline points="403.5,107.0,412.5,114.5,404.5,114.0,412.0,127.5,424.0,120.0,431.5,117.0,449.5,108.0" stroke="black" stroke-width="2" fill="none" />
<polyline points="442.5,133.5,429.0,136.5,433.0,145.0,421.0,151.0,412.0,167.0,424.0,168.5,445.0,161.0" stroke="black" stroke-width="2" fill="none" />
<polyline points="457.0,143.5,443.5,133.0,431.0,139.5,427.0,135.5,413.5,132.5,401.5,137.0,403.5,131.0,391.5,120.5,385.0,111.0,400.0,113.5,415.0,107.0,416.5,106.5,404.5,110.5,392.5,118.0,380.5,123.0,368.0,120.0" stroke="black" stroke-width="2" fill="none" />
<polyline points="361.5,110.5,373.5,103.0" stroke="black" stroke-width="2" fill="none" />
<polyline points="368.0,77.0,380.5,75.5" stroke="black" stroke-width="2" fill="none" />
<polyline points="394.0,52.0,406.0,46.0,418.5,40.0,411.0,43.0,391.5,49.5,403.5,43.5" stroke="black" stroke-width="2" fill="none" />
<polyline points="415.0,37.0,403.0,37.0,391.0,38.5,407.5,40.0,389.0,43.0" stroke="black" stroke-width="2" fill="none" />
<polyline points="389.0,29.0,401.0,27.5,413.5,18.5" stroke="black" stroke-width="2" fill="none" />
<polyline points="395.5,25.5,384.0,28.5,372.0,31.5,360.0,33.0" stroke="black" stroke-width="2" fill="none" />
<polyline points="360.0,42.5,360.0,42.5,373.0,45.0,374.5,45.0,379.0,54.5,391.0,56.0,403.0,54.5,415.0,46.5,426.5,42.0,438.5,38.0,450.5,29.0,462.5,23.0,474.5,19.0,479.5,20.0,487.5,20.0,499.5,20.0" stroke="black" stroke-width="2" fill="none" />
<polyline points="497.5,24.5,485.5,29.0" stroke="black" stroke-width="2" fill="none" />
<polyline points="486.5,17.5,468.5,20.0,450.5,25.0,463.0,19.0,477.0,14.5,489.0,13.0,490.5,17.0,502.5,16.5,508.5,22.5" stroke="black" stroke-width="2" fill="none" />
<polyline points="508.0,4.5,503.5,11.5,507.0,26.5,510.5,40.0,503.5,52.0,510.5,60.5" stroke="black" stroke-width="2" fill="none" />
<polyline points="511.0,54.5,499.5,57.5,488.0,58.0,476.0,56.5" stroke="black" stroke-width="2" fill="none" />
<polyline points="485.0,68.5,473.0,73.0,460.5,76.0" stroke="black" stroke-width="2" fill="none" />
<polyline points="467.5,79.5,452.0,92.5,438.5,101.5,427.5,113.5,431.5,118.0,418.0,121.5,407.0,133.0,391.5,137.5,385.0,145.0,395.5,150.0,394.0,156.0,404.5,159.0,428.5,166.0,415.5,161.0,426.0,161.0,438.0,156.0,443.0,152.5,455.0,151.5,458.0,146.5,470.0,134.5" stroke="black" stroke-width="2" fill="none" />
<polyline points="451.0,172.5,468.5,160.0,463.5,157.0,451.5,163.0,440.0,169.0,428.5,175.0,416.5,182.0,404.0,184.5,392.5,195.0,380.0,198.0,368.0,201.0,356.0,201.5,350.0,192.5,338.0,194.5,326.0,194.5,309.5,192.5,297.5,191.0,282.5,189.5,270.5,186.5,259.0,183.5,247.5,178.0,247.5,175.5,235.5,171.0,234.0,180.0,217.5,191.5,208.5,190.5,201.0,205.5,199.0,201.0,187.0,205.5,182.5,216.0,169.0,216.5,160.5,232.5,147.0,229.5,139.0,247.0,130.5,237.0,113.5,223.5,118.0,220.5,116.0,210.0,128.0,204.0,132.5,192.0,134.0,176.5,150.5,169.0,156.5,159.5,158.0,154.0,167.0,141.5,188.0,129.5,198.5,122.0,204.5,114.5,216.5,102.5,216.0,87.5,213.0,75.5,201.5,63.0,197.0,54.0,185.0,55.5" stroke="black" stroke-width="2" fill="none" />
<polyline points="178.0,56.5,190.0,67.0,194.5,76.0" stroke="black" stroke-width="2" fill="none" />
<polyline points="197.0,61.0,209.0,68.5" stroke="black" stroke-width="2" fill="none" />
<polyline points="215.5,61.0,227.5,77.5" stroke="black" stroke-width="2" fill="none" />
<polyline points="232.5,72.0,220.0,51.0" stroke="black" stroke-width="2" fill="none" />
<polyline points="203.0,55.0,215.0,53.0,216.0,62.0,217.0,66.5,213.5,75.5" stroke="black" stroke-width="2" fill="none" />
<polyline points="243.0,82.0,240.0,70.5,241.5,58.0,246.0,46.0,237.5,34.0,230.5,17.5,218.5,17.5" stroke="black" stroke-width="2" fill="none" />
<polyline points="222.5,11.0,224.0,23.0,225.0,37.0,228.0,49.0,227.5,61.0,226.0,73.0,229.0,85.0" stroke="black" stroke-width="2" fill="none" />
<polyline points="255.5,106.5,267.5,109.5" stroke="black" stroke-width="2" fill="none" />
<polyline points="270.0,121.5,265.5,127.0,265.0,139.0,259.0,140.5,256.0,145.5,254.0,157.5,261.5,139.5,270.5,142.0,279.5,139.0,288.5,140.0,294.5,140.0,297.0,146.0,303.0,158.0" stroke="black" stroke-width="2" fill="none" />
<polyline points="319.5,148.0,321.0,151.0,318.5,157.0,330.5,172.5,343.0,174.5,355.5,180.5,364.0,178.5,388.5,178.0,403.0,167.5,394.0,169.0,391.0,181.0,382.0,192.5" stroke="black" stroke-width="2" fill="none" />
<polyline points="399.0,184.5,388.5,196.5,380.0,214.5,372.5,226.0" stroke="black" stroke-width="2" fill="none" />
<polyline points="388.5,219.5,400.5,215.0,412.5,215.5,406.5,220.0,406.0,229.5,404.0,241.5,390.5,253.5,387.5,265.5,378.0,277.0,381.0,292.0,398.0,291.5,408.5,290.5,420.5,299.5,427.0,318.0,439.5,315.5,441.0,320.0,453.0,314.0,463.5,315.5,475.5,311.0,487.5,298.5" stroke="black" stroke-width="2" fill="none" />
<polyline points="480.5,238.0,480.5,235.0,495.0,223.0" stroke="black" stroke-width="2" fill="none" />
<polyline points="508.5,204.0,502.5,193.5,492.0,209.0,487.5,197.0,479.5,204.5,494.0,205.0,503.0,192.5,491.0,189.5" stroke="black" stroke-width="2" fill="none" />
<polyline points="483.0,195.0,480.0,206.5,484.0,208.0,473.5,211.0,470.5,223.0,470.0,235.0,459.5,242.5,453.0,254.0,448.5,266.0,445.5,270.0,453.0,253.5,460.5,229.5,472.0,233.0,475.5,220.0" stroke="black" stroke-width="2" fill="none" />
<polyline points="438.5,235.5,426.5,240.0" stroke="black" stroke-width="2" fill="none" />
<polyline points="431.5,228.0,427.0,240.0,442.0,253.5,426.5,261.0,434.5,262.5" stroke="black" stroke-width="2" fill="none" />
<polyline points="413.0,249.0,416.0,261.0,407.5,270.0,404.5,282.0,413.5,297.0,413.5,310.5,414.5,322.5,437.0,337.0,444.0,336.5,451.5,330.5,462.0,330.5,474.0,330.5,490.5,335.5,504.0,331.0" stroke="black" stroke-width="2" fill="none" />
<polyline points="457.0,226.5,447.0,244.5,435.0,249.0,431.0,259.5,416.5,271.5,408.0,268.5,400.5,289.5,388.5,290.5,400.0,278.5,394.0,277.5,403.5,271.0,403.5,259.0,404.0,247.0,410.0,242.5,416.0,230.5,417.5,218.5,414.0,208.5,417.0,201.0,412.0,205.5,400.0,213.0" stroke="black" stroke-width="2" fill="none" />
<polyline points="394.5,214.5,389.5,226.0,392.5,229.0,387.5,241.0,380.0,253.5,383.5,255.0,375.0,267.0,382.0,262.5,396.5,249.0,420.5,234.0" stroke="black" stroke-width="2" fill="none" />
<polyline points="429.5,222.5,420.0,234.5,423.0,246.5,422.5,259.0,425.5,264.5,428.5,272.5,440.5,265.0,437.5,250.5" stroke="black" stroke-width="2" fill="none" />
<polyline points="378.0,251.0,366.0,248.0" stroke="black" stroke-width="2" fill="none" />
<polyline points="372.0,259.0,370.5,271.0,358.0,283.0,365.0,301.0,360.5,312.5,364.0,315.5,356.5,327.5" stroke="black" stroke-width="2" fill="none" />
<polyline points="375.5,321.0,362.0,332.5,378.0,332.5" stroke="black" stroke-width="2" fill="none" />
<polyline points="339.0,250.0,327.0,241.0,314.5,229.0,302.5,226.0" stroke="black" stroke-width="2" fill="none" />
<polyline points="284.0,230.5,296.0,230.5,308.0,239.5,321.5,247.0,321.0,259.0,335.0,261.5,354.5,258.5,364.0,267.5,355.0,279.5,359.5,282.0,371.5,276.0,373.0,279.0,385.0,268.5,392.5,270.0,398.5,278.5,416.0,290.5,426.5,277.0,429.5,295.5,441.5,301.5,453.5,297.5,465.5,299.0,477.5,294.5" stroke="black" stroke-width="2" fill="none" />
<polyline points="486.5,301.0,482.0,313.0,470.0,316.0,458.0,319.0,446.0,325.0,434.0,334.0,420.5,335.5,411.5,328.5,399.5,330.0,393.5,313.5,389.0,303.5,377.0,305.0,368.0,293.0,356.0,291.5,350.0,288.5,339.5,294.5,339.5,301.5,333.5,312.5,331.0,318.5,337.0,306.5,349.0,294.5,350.5,282.5,349.5,270.5,352.5,258.5,349.5,249.0,351.0,229.5,348.0,221.0,342.0,209.0,334.0,195.5,315.5,185.5,318.5,182.0,314.0,177.5,302.0,173.0,291.5,165.0,298.0,162.0,286.0,165.5,274.0,173.0,281.5,167.0,296.5,157.5,290.5,145.5,297.0,134.0,291.0,132.5,294.0,123.5,289.5,117.5,281.5,99.5,281.0,83.0,278.0,83.0,274.5,71.0,269.5,65.0,276.5,52.5,284.0,51.0,269.0,63.0" stroke="black" stroke-width="2" fill="none" />
<polyline points="273.5,64.0,287.0,58.0,280.5,70.0,285.0,73.0,300.0,69.0" stroke="black" stroke-width="2" fill="none" />
<polyline points="306.5,74.0,304.0,66.0,301.0,63.0,313.0,55.5,322.5,44.5,324.0,37.0,317.5,25.0,298.0,36.5" stroke="black" stroke-width="2" fill="none" />
<polyline points="293.5,26.0,313.0,31.5,317.5,44.0,332.5,39.0,335.5,34.0" stroke="black" stroke-width="2" fill="none" />
<polyline points="330.0,36.5,318.0,31.0" stroke="black" stroke-width="2" fill="none" />
<polyline points="309.0,21.0,321.0,22.5,333.0,22.5" stroke="black" stroke-width="2" fill="none" />
<polyline points="331.0,9.0,345.0,21.5,321.0,24.5,336.0,36.5,339.0,44.0,340.5,47.0,335.0,62.0,318.5,72.0,297.5,84.0,284.0,88.0,294.5,92.5,276.5,91.0,288.0,86.0,299.5,83.0,311.0,78.5,322.5,66.5,328.0,73.5,340.0,78.0,353.5,78.0,365.5,68.5,370.0,73.0,382.0,71.5,394.0,71.5,406.0,72.0,418.5,69.5,431.0,68.0,443.0,59.0,455.5,55.0,467.5,47.5,480.0,47.5,487.5,35.5,492.0,49.0" stroke="black" stroke-width="2" fill="none" />
<polyline points="501.5,74.5,489.5,82.0,477.5,88.5,459.5,105.0,447.0,96.0,439.5,103.5,435.0,109.5,423.5,104.5,416.5,116.0,410.5,123.5,398.0,128.0,399.0,132.0,387.5,130.0,375.5,128.5,363.5,123.5,351.5,134.0,339.5,137.5,338.0,146.5,333.0,150.0,321.0,142.5,310.0,133.5,295.0,130.5,286.0,106.5,275.5,105.5,267.0,86.0,264.0,73.5" stroke="black" stroke-width="2" fill="none" />
<polyline points="272.5,71.0,274.0,83.0,268.0,98.0,256.0,110.0,281.5,114.0,281.5,126.0,271.0,134.0,267.5,146.0,261.5,158.0,266.0,179.5,272.0,182.5,284.0,185.5,296.0,187.0,308.5,186.5,320.5,194.0,332.5,203.5,332.5,207.5,344.5,212.0,356.0,205.0,371.0,214.0,383.0,208.0,395.0,206.5,401.0,196.5,413.0,193.5,426.0,196.5,434.0,199.5,446.0,188.5,456.5,193.0,459.0,182.0,462.0,184.5,474.5,180.0,486.5,172.5,494.0,175.5,506.0,172.5" stroke="black" stroke-width="2" fill="none" />
<polyline points="509.5,110.5,503.5,110.5,499.0,116.5,487.0,110.5,472.0,118.0,460.5,119.0,451.5,126.0,444.5,138.0,438.5,145.0,427.0,143.5,418.5,146.5,411.0,142.0,399.0,142.5,391.5,150.0,378.0,162.0,376.0,157.5,364.0,160.5,351.5,165.0,339.0,169.5,337.0,158.0,340.0,146.0,331.0,143.5,331.0,131.5,338.5,120.0,356.5,109.5,357.0,103.5,370.5,99.0,371.0,94.5,395.5,82.5,399.0,85.5,397.5,82.5,385.5,86.5,373.0,89.5,371.5,94.5,360.0,100.0,346.5,100.0,344.0,91.0,336.5,91.0,324.5,88.0,312.5,91.0,300.0,100.5,288.0,102.0,280.0,106.5,268.0,96.0,256.0,94.5,248.5,106.5,238.0,132.0,228.5,125.5,225.5,113.5,216.0,103.0,204.5,115.0,195.5,114.0,183.0,124.5,166.0,142.5,162.0,156.0,144.0,157.0,142.5,154.0,157.5,142.0,174.0,130.5,178.5,130.0,192.0,118.0,198.5,115.0,211.0,103.0,212.5,91.0,205.0,88.0,208.0,84.0,203.5,72.0,188.0,60.0,177.5,60.0,167.0,52.5,155.0,32.5,145.5,20.5,152.5,20.5,144.5,16.0" stroke="black" stroke-width="2" fill="none" />
<polyline points="138.0,44.5,150.0,46.5,162.0,54.0,175.5,70.5,181.5,78.0,196.5,90.0,194.5,100.5,184.0,112.0,180.5,113.5,170.0,121.0,182.0,118.0,194.0,110.5,203.0,110.5" stroke="black" stroke-width="2" fill="none" />
<polyline points="200.5,120.0,212.5,120.5,224.0,122.0,242.0,124.0,263.5,124.5" stroke="black" stroke-width="2" fill="none" />
<polyline points="273.0,130.5,277.5,143.0,268.5,152.0,269.0,164.5,279.5,158.5,283.0,154.0" stroke="black" stroke-width="2" fill="none" />
<polyline points="285.5,149.5,282.5,161.5" stroke="black" stroke-width="2" fill="none" />
<polyline points="289.5,168.5,277.0,171.5" stroke="black" stroke-width="2" fill="none" />
<polyline points="267.5,154.0,279.5,147.0,291.5,148.5,309.0,159.5" stroke="black" stroke-width="2" fill="none" />
<polyline points="329.5,155.5,342.0,160.5,354.0,160.5,365.5,156.5" stroke="black" stroke-width="2" fill="none" />
<polyline points="335.5,111.5,323.5,107.0,316.0,122.5,304.0,113.5" stroke="black" stroke-width="2" fill="none" />
<polyline points="305.5,103.5,318.0,103.0,330.0,104.5" stroke="black" stroke-width="2" fill="none" />
<polyline points="331.5,113.5,322.5,114.0,325.0,112.5,334.0,104.5,323.5,92.5" stroke="black" stroke-width="2" fill="none" />
<polyline points="316.5,93.5,311.0,107.0,305.0,117.5,302.0,135.5,306.5,147.5,308.0,159.5,322.0,171.5,338.5,186.5,339.0,206.0,339.0,215.0,345.0,234.5,362.0,239.5,358.5,251.5,363.0,254.5,360.0,266.5,357.0,274.0,379.5,262.0,389.5,248.5,393.5,233.5,405.5,247.0,417.5,225.5,431.0,212.5,438.5,209.5,434.0,217.0,443.0,214.0,449.0,214.0,449.0,194.5,456.5,198.5,468.5,191.0,480.5,181.5,495.5,171.0,501.5,178.5" stroke="black" stroke-width="2" fill="none" />
<polyline points="487.0,122.5,475.0,124.0,463.0,124.0,458.5,136.0,446.5,148.0,435.0,148.0,415.5,157.0,411.0,146.0,423.0,134.0" stroke="black" stroke-width="2" fill="none" />
<polyline points="423.0,119.0,418.5,132.5,405.0,152.5,416.5,152.5" stroke="black" stroke-width="2" fill="none" />
<polyline points="389.5,210.0,383.5,222.0,397.5,232.5,393.0,245.0,386.0,257.0,380.0,269.0,371.0,284.0,377.0,288.5,374.0,291.5,376.5,308.0,384.0,314.0,396.0,325.0,405.0,332.0" stroke="black" stroke-width="2" fill="none" />
<polyline points="336.0,243.0,325.5,231.5,313.0,221.0,308.5,215.0,294.5,202.0" stroke="black" stroke-width="2" fill="none" />
<polyline points="291.0,191.0,294.5,203.0,305.0,205.0,302.0,217.0,307.5,226.0,309.5,238.0,306.5,242.5,310.0,246.0,317.5,256.5,315.5,268.5,315.5,268.0,327.5,263.5,323.5,252.5,343.0,260.0,350.5,254.0,362.0,244.5,370.0,256.5" stroke="black" stroke-width="2" fill="none" />
<polyline points="337.0,190.5,332.0,199.0,326.0,187.0,333.0,175.0,320.0,163.0,317.0,151.5,321.0,147.0,298.0,130.5" stroke="black" stroke-width="2" fill="none" />
<polyline points="292.5,114.5,297.0,126.5,310.5,143.0,314.0,154.5,317.0,166.5" stroke="black" stroke-width="2" fill="none" />
<polyline points="316.0,192.5,314.5,204.5,322.0,216.5,316.0,219.0,329.5,231.5,337.0,230.0,349.5,230.0" stroke="black" stroke-width="2" fill="none" />
<polyline points="324.5,223.0,313.5,214.0,299.5,197.5,281.5,201.5,269.5,189.5,260.5,204.5,248.0,204.5" stroke="black" stroke-width="2" fill="none" />
<polyline points="238.0,200.0,250.0,195.0,261.5,196.5,268.0,195.5,269.5,207.5,282.0,207.5" stroke="black" stroke-width="2" fill="none" />
<polyline points="273.5,230.5,285.5,223.0,297.0,237.0,288.0,246.0,288.5,250.5,299.0,253.5,308.0,265.0,305.0,269.5" stroke="black" stroke-width="2" fill="none" />
<polyline points="305.0,267.5,293.5,256.5,281.5,261.0,269.5,261.0,258.0,259.5" stroke="black" stroke-width="2" fill="none" />
<polyline points="279.5,284.0,282.0,284.0,280.5,287.0,276.0,299.0,283.5,310.5,286.5,322.5,283.5,334.5" stroke="black" stroke-width="2" fill="none" />
<polyline points="280.5,328.5,277.5,319.5,277.5,309.0,270.0,300.5,267.0,288.5,262.5,286.0,256.5,283.0,253.0,282.0,248.5,274.5,248.5,262.5,253.0,246.0,258.0,234.0,271.5,222.5,276.5,203.0,265.0,193.5,253.0,189.0,241.0,188.5,229.0,194.5" stroke="black" stroke-width="2" fill="none" />
<polyline points="219.0,205.5,220.5,191.0,232.0,185.0,244.0,185.0,252.0,180.5,233.5,189.0,224.5,203.0,214.0,218.0,234.5,238.0,214.0,253.0,202.0,262.0,196.0,274.0,195.0,286.0,199.5,298.0,204.5,310.0,210.5,316.0,212.5,328.0" stroke="black" stroke-width="2" fill="none" />
<polyline points="196.5,287.5,206.5,289.0,215.5,281.5,227.5,281.5,238.0,269.0,247.5,275.5" stroke="black" stroke-width="2" fill="none" />
<polyline points="260.5,298.5,257.5,310.5,265.0,322.0,269.5,334.0,254.5,334.0,238.0,338.5" stroke="black" stroke-width="2" fill="none" />
<polyline points="273.0,333.0,270.0,321.0,264.0,309.5,252.0,302.0,249.0,290.0,248.0,284.0,236.0,284.0,225.5,292.5,215.0,297.5,215.0,293.0,206.0,302.0,202.0,290.0,199.0,277.5,207.0,271.5,214.5,262.5,207.0,267.5" stroke="black" stroke-width="2" fill="none" />
<polyline points="213.0,267.0,211.5,279.0,219.5,291.0,240.5,301.5,237.5,307.0,249.5,310.0,261.5,332.5,273.5,332.0,287.5,337.5,295.0,328.5,308.5,321.0,314.5,310.5,318.5,304.0,330.5,299.5" stroke="black" stroke-width="2" fill="none" />
<polyline points="336.5,289.0,324.5,297.0,312.0,300.0,307.0,309.5,294.5,316.0,288.5,314.5,293.5,302.5,280.5,295.5,294.0,286.5,292.5,274.5" stroke="black" stroke-width="2" fill="none" />
<polyline points="292.0,266.0,302.5,278.0,315.0,291.5" stroke="black" stroke-width="2" fill="none" />
<polyline points="263.0,218.5,250.0,226.0,246.0,226.0,259.5,223.0,268.5,214.0,256.5,217.0,244.0,214.0,232.5,218.5" stroke="black" stroke-width="2" fill="none" />
<polyline points="209.5,218.0,221.5,213.5,233.0,212.0,236.0,209.0,248.0,210.5,251.0,201.0,262.5,200.0" stroke="black" stroke-width="2" fill="none" />
<polyline points="260.5,185.5,276.5,197.5,272.0,207.0,282.5,211.5,287.5,212.5,279.0,224.5,260.5,239.5,269.5,244.0,271.0,244.0,271.0,248.5" stroke="black" stroke-width="2" fill="none" />
<polyline points="232.0,238.0,220.0,238.0,208.0,238.5,196.0,237.5,183.5,241.0,171.5,247.0,159.5,252.5" stroke="black" stroke-width="2" fill="none" />
<polyline points="175.0,254.5,163.0,266.5,160.0,278.0,163.0,288.5,169.5,267.0,174.0,254.5,186.0,247.0,197.5,246.0,209.5,249.0,222.0,253.5,223.5,248.5" stroke="black" stroke-width="2" fill="none" />
<polyline points="216.5,268.0,221.0,280.0,227.0,294.0,229.0,306.5,232.0,318.5,224.5,329.0" stroke="black" stroke-width="2" fill="none" />
<polyline points="197.0,333.0,186.0,321.0,183.0,309.5,176.0,298.0,177.5,287.5,177.5,275.5,194.5,265.0,208.0,261.5,208.0,256.5,196.0,268.5" stroke="black" stroke-width="2" fill="none" />
<polyline points="189.5,275.5,191.0,289.0,188.0,307.0,189.5,317.5,197.0,329.0" stroke="black" stroke-width="2" fill="none" />
<polyline points="211.0,334.5,203.5,322.5,197.0,310.5,195.5,298.5,189.0,286.5,186.0,274.5,185.5,262.5,196.0,254.0,183.5,268.0" stroke="black" stroke-width="2" fill="none" />
<polyline points="175.0,264.0,169.0,276.0,174.0,278.5,169.5,275.5,178.0,257.5,182.5,259.0,191.5,251.0,206.5,254.0,214.0,258.5,224.5,260.0,236.5,257.5,247.0,257.5,252.5,271.5,264.5,283.5,276.5,275.5,279.5,278.5,285.5,271.0,295.0,284.5,307.0,279.5" stroke="black" stroke-width="2" fill="none" />
<polyline points="240.5,236.5,228.5,237.0,216.0,237.0,204.0,235.5,194.5,224.5,190.0,234.5,198.5,216.0,200.0,210.0,208.5,198.0" stroke="black" stroke-width="2" fill="none" />
<polyline points="191.5,194.5,179.0,205.0" stroke="black" stroke-width="2" fill="none" />
<polyline points="184.5,192.5,172.5,200.0,161.0,204.5,149.0,213.5" stroke="black" stroke-width="2" fill="none" />
<polyline points="138.0,219.0,150.0,208.5,161.5,196.0" stroke="black" stroke-width="2" fill="none" />
<polyline points="158.0,176.5,152.0,188.5,143.5,189.0,155.5,191.5,169.0,181.0,181.5,175.5" stroke="black" stroke-width="2" fill="none" />
<polyline points="193.0,175.0,189.5,187.5,191.0,172.0,203.0,175.5" stroke="black" stroke-width="2" fill="none" />
<polyline points="205.5,169.0,193.0,160.0" stroke="black" stroke-width="2" fill="none" />
<polyline points="191.5,162.0,197.5,174.0,197.5,185.5,189.0,197.0,180.0,201.5,175.5,213.0,173.0,224.5,165.5,237.0,176.0,238.0,188.0,230.5,191.0,233.5,203.0,229.0,215.0,229.5,226.0,242.0" stroke="black" stroke-width="2" fill="none" />
<polyline points="185.0,248.5,175.0,250.0,155.5,262.0,152.5,274.0,157.5,286.0,163.5,298.0,169.5,310.0,166.5,321.5,161.5,332.0,169.0,335.0" stroke="black" stroke-width="2" fill="none" />
<polyline points="202.5,340.0,190.5,333.5,178.5,338.0,167.5,330.5,151.0,328.5,149.5,328.5,135.5,319.5,144.5,305.5,137.0,286.5,135.5,279.5,140.0,272.0,142.0,259.5,134.0,247.5,131.5,229.5,128.5,228.0,132.5,216.0,137.0,213.0,141.5,201.0,151.5,195.0,160.5,195.0,166.5,183.0,171.0,171.5,165.0,159.5,168.0,153.5,180.5,141.5,186.5,126.5,185.0,133.0,184.0,145.0" stroke="black" stroke-width="2" fill="none" />
<polyline points="189.5,153.0,180.5,165.0,176.0,176.5,171.5,184.0,168.5,196.0,156.5,208.0,150.5,219.5,143.5,222.5,136.0,235.0,145.0,247.5,148.0,246.0,152.5,249.0,163.5,235.0,175.5,233.5,190.0,244.0,202.0,244.0,203.5,240.5,215.5,246.5,227.5,246.5,232.0,249.5,244.0,248.5,263.5,229.0,273.5,228.0,285.5,217.5,296.0,224.5,311.0,217.0,323.0,229.0,335.5,244.0,353.5,246.5" stroke="black" stroke-width="2" fill="none" />
<polyline points="363.5,224.5,351.0,226.0,343.5,224.5,331.5,219.5,319.5,212.0,326.0,206.0,320.0,194.0" stroke="black" stroke-width="2" fill="none" />
<polyline points="238.0,229.5,226.0,220.5,218.0,222.5,206.0,221.5,201.5,209.5,189.5,221.5,170.0,232.5,165.5,246.0,153.0,258.0,145.5,259.5,156.0,246.0,164.0,233.5,163.0,227.0,161.5,219.5,174.5,207.5,175.5,195.0,180.5,193.0,182.0,181.0,191.0,167.0,194.0,155.0" stroke="black" stroke-width="2" fill="none" />
<polyline points="196.0,158.0,215.5,170.0,212.5,182.0,202.0,186.5,197.5,194.0,208.5,183.5" stroke="black" stroke-width="2" fill="none" />
<polyline points="210.0,167.0,197.5,160.0,185.5,163.0" stroke="black" stroke-width="2" fill="none" />
<polyline points="178.0,156.0,190.0,147.5,195.5,149.0,192.5,139.5,182.5,151.5,172.0,163.0,158.5,174.5,147.5,178.5,143.0,190.0,133.5,201.5,120.0,211.5,132.0,203.0,144.5,194.5,147.5,189.0,155.5,173.0,168.0,167.0,171.0,169.0,177.0,174.0,180.0,166.5,192.5,153.0,205.0,150.0,217.0,154.5,220.5,162.0,238.0,175.5,248.0,183.0,264.5,179.0,276.0,180.0,288.0,182.5,299.5,180.5,301.0,182.0,307.0,188.0,298.0,195.5,304.0,195.5,319.5,204.5,328.5,216.5,339.0,238.0,344.0,237.5,353.0,235.0,365.0,230.0,377.5,221.0,382.0,212.0,385.0,218.0,386.5,201.0,406.0,198.0,423.5,209.0,433.5,204.5,448.5,206.0,433.5,218.0,439.0,230.0,440.5,242.0,446.5,249.5,443.5,261.5,439.5,267.0,424.5,279.0,420.5,276.5,408.5,281.0,396.5,293.0,384.5,297.5,398.5,297.5,409.0,311.0,411.0,318.5,393.0,333.5,400.0,336.5,403.0,337.5" stroke="black" stroke-width="2" fill="none" />
<polyline points="509.0,337.5,505.0,329.5,499.0,320.5,496.0,314.5,498.5,313.0,501.5,301.5,506.0,297.0,497.0,297.0,485.5,316.5,473.5,318.0,464.5,311.0,453.0,311.0,441.0,309.5,433.0,300.5,421.0,306.5,410.0,303.5,402.5,320.0,390.5,324.5,378.5,320.0,366.0,325.5,354.0,333.0,341.5,339.5,328.0,335.0,316.0,330.5,313.0,335.0,304.5,341.0,297.0,339.5,295.5,321.5,302.0,309.5,311.5,307.5,311.5,294.0,301.0,287.0,316.0,279.5,329.5,267.5,326.0,258.5,335.0,257.5,327.5,252.5,322.5,242.5,315.0,230.0,304.5,228.5,284.5,222.5,290.5,210.5,275.5,201.5,286.0,194.0,275.5,189.5,256.5,178.0,256.5,174.0,252.5,162.5,248.0,157.5,247.0,145.5,252.0,133.5,247.0,121.5,253.0,109.5,252.5,94.5,253.5,82.5,253.5,72.0,267.0,64.0,273.0,50.0,262.0,38.0,252.5,25.5,254.0,13.0,261.0,8.0,241.5,9.0" stroke="black" stroke-width="2" fill="none" />
<polyline points="246.5,5.5,248.0,17.5,258.5,31.0,252.5,47.5,250.0,60.0,244.0,66.0,247.0,77.5,239.5,89.0,238.5,98.0,229.0,99.5,238.0,96.5,250.0,96.5,252.0,83.0,262.5,72.5,273.0,69.5,279.0,66.5,289.0,62.0,301.0,63.0,312.5,62.0,314.0,56.0,320.0,56.0,332.0,59.0,333.0,63.5,342.0,59.0,354.0,64.0,360.0,59.5" stroke="black" stroke-width="2" fill="none" />
<polyline points="352.0,51.5,355.0,64.0,358.0,82.0,356.5,94.0,358.0,114.0,344.5,121.5,341.5,132.0,357.0,139.5,358.5,141.0,369.0,147.0,375.0,148.5,387.0,151.5,368.5,158.5,368.5,169.0,373.0,171.5,382.0,177.5,368.5,186.5,363.5,188.0,375.5,185.0,388.0,181.5,400.0,181.5" stroke="black" stroke-width="2" fill="none" />
<polyline points="340.5,101.5,331.5,90.0" stroke="black" stroke-width="2" fill="none" />
<polyline points="328.5,82.5,346.0,84.0,348.5,96.0,345.5,108.0,340.5,109.5,328.5,113.0,316.5,128.0,318.0,140.5,333.5,149.5,327.5,164.5,346.0,175.0,350.0,193.5" stroke="black" stroke-width="2" fill="none" />
<polyline points="253.0,161.5,242.5,161.5,241.0,149.5,240.0,137.5" stroke="black" stroke-width="2" fill="none" />
<polyline points="216.5,113.5,213.5,116.5" stroke="black" stroke-width="2" fill="none" />
<polyline points="221.0,138.0,208.5,142.5,196.5,141.0" stroke="black" stroke-width="2" fill="none" />
<polyline points="192.5,129.0,204.5,126.5,207.5,123.5,219.5,129.5" stroke="black" stroke-width="2" fill="none" />
<polyline points="212.0,158.5,200.5,156.0" stroke="black" stroke-width="2" fill="none" />
<polyline points="200.0,155.5,215.0,155.5,221.0,167.5,233.5,182.0,217.0,191.0,220.0,196.0,220.0,207.5,209.5,215.0,221.0,221.5,236.0,230.5,246.5,242.5,237.5,247.0,228.5,259.5,234.5,273.0,237.0,283.5,240.5,289.5,245.0,290.5,243.5,302.5,240.0,308.0" stroke="black" stroke-width="2" fill="none" />
<polyline points="207.0,321.5,192.5,310.5,187.5,298.5,182.5,286.5,167.5,299.0,155.5,296.0,150.5,305.5,138.5,303.0,135.0,300.0,132.0,288.0,121.5,274.5" stroke="black" stroke-width="2" fill="none" />
<polyline points="120.5,266.5,122.0,278.5,129.5,291.0,128.0,303.0,132.0,316.5,125.0,328.5,141.5,332.5,138.5,340.0" stroke="black" stroke-width="2" fill="none" />
<polyline points="189.0,318.0,177.0,298.5" stroke="black" stroke-width="2" fill="none" />
<polyline points="159.0,274.0,141.0,272.0" stroke="black" stroke-width="2" fill="none" />
<polyline points="152.0,266.5,164.0,254.5,176.0,248.5,171.5,240.0" stroke="black" stroke-width="2" fill="none" />
<polyline points="185.0,252.0,178.0,264.0,172.0,264.0,166.0,275.5,167.5,287.0,173.5,300.0,176.5,313.5,173.5,322.5" stroke="black" stroke-width="2" fill="none" />
<polyline points="142.0,284.5,130.0,283.0,115.0,288.5,113.5,284.0,111.5,288.0,99.0,289.0" stroke="black" stroke-width="2" fill="none" />
<polyline points="90.5,283.0,93.5,295.0,107.5,297.5,118.0,294.5,131.5,296.0,138.5,310.5,151.0,315.0" stroke="black" stroke-width="2" fill="none" />
<polyline points="116.0,315.0,103.5,312.0,91.0,301.5" stroke="black" stroke-width="2" fill="none" />
<polyline points="88.0,279.0,86.0,291.0,92.0,303.0,102.5,309.0,108.5,314.5,120.5,317.5" stroke="black" stroke-width="2" fill="none" />
<polyline points="90.5,268.5,102.5,264.0,109.0,259.5,87.0,266.0,94.5,265.0,105.5,250.0,122.5,245.5,128.5,244.5" stroke="black" stroke-width="2" fill="none" />
<polyline points="118.0,210.5,106.0,205.0,94.0,205.0,88.0,210.5" stroke="black" stroke-width="2" fill="none" />
<polyline points="80.0,221.5,68.0,223.0" stroke="black" stroke-width="2" fill="none" />
<polyline points="68.5,220.5,80.5,219.0,105.5,216.5,116.0,229.0" stroke="black" stroke-width="2" fill="none" />
<polyline points="89.0,251.0,77.5,248.0" stroke="black" stroke-width="2" fill="none" />
<polyline points="72.0,235.0,72.0,247.0,78.0,273.0,77.5,276.0,89.5,280.5,90.5,286.5,99.0,276.0,100.5,268.5,112.0,262.5,121.0,249.0" stroke="black" stroke-width="2" fill="none" />
<polyline points="113.0,270.5,101.5,272.0,88.0,266.0,76.0,267.5,63.5,266.0,59.0,258.5" stroke="black" stroke-width="2" fill="none" />
<polyline points="47.5,246.5,47.5,238.0,35.5,239.0" stroke="black" stroke-width="2" fill="none" />
<polyline points="29.0,228.0,17.0,229.5,5.0,228.0" stroke="black" stroke-width="2" fill="none" />
<polyline points="1.0,227.0,13.5,221.0,21.0,225.5,30.5,217.0,42.5,216.0,54.5,215.0,61.0,203.0,73.0,200.5,84.0,203.5,96.5,195.0" stroke="black" stroke-width="2" fill="none" />
<polyline points="116.0,164.5,128.0,164.5,139.5,164.5,151.0,159.0,161.5,145.0,145.0,157.0,132.5,169.0" stroke="black" stroke-width="2" fill="none" />
<polyline points="128.0,153.0,116.0,156.0" stroke="black" stroke-width="2" fill="none" />
<polyline points="92.5,144.0,80.5,142.0,68.5,145.0,56.0,143.0,44.0,144.0,32.0,149.0" stroke="black" stroke-width="2" fill="none" />
<polyline points="49.0,144.0,38.0,159.0,42.5,160.5,55.0,160.0,56.5,173.5,68.5,169.5,73.0,166.0,85.0,167.5,97.0,166.0,109.0,163.0,112.0,170.5,124.0,170.5" stroke="black" stroke-width="2" fill="none" />
<polyline points="93.0,181.0,81.0,187.0,68.5,190.0,56.5,191.5,47.0,200.5,39.5,204.5,33.5,208.5,20.0,206.5,2.0,214.0" stroke="black" stroke-width="2" fill="none" />
<polyline points="5.5,218.5,17.5,221.5,29.0,226.5,41.0,226.5,33.5,235.0,18.5,248.5,20.0,253.0,25.0,262.0,32.5,273.5,37.0,276.5,49.0,279.0,61.0,285.0,68.5,277.5,75.0,283.5,76.0,292.5,84.5,301.5,96.5,300.0,109.0,302.0,110.5,306.5,119.5,306.5,131.5,309.5,136.0,320.0" stroke="black" stroke-width="2" fill="none" />
<polyline points="123.5,327.5,111.5,328.0,100.0,327.0,88.5,321.0,77.0,315.0,60.5,310.5" stroke="black" stroke-width="2" fill="none" />
<polyline points="57.0,311.0,64.0,295.5,53.5,307.5,65.5,319.0,74.5,331.0,88.0,335.5,92.0,340.0,104.5,340.0" stroke="black" stroke-width="2" fill="none" />
<polyline points="94.5,333.5,90.0,321.5,87.5,309.5,74.0,307.5,54.5,312.0" stroke="black" stroke-width="2" fill="none" />
<polyline points="49.0,300.0,37.5,303.0" stroke="black" stroke-width="2" fill="none" />
<polyline points="38.0,300.0,39.5,292.5,48.0,283.5,60.0,289.5" stroke="black" stroke-width="2" fill="none" />
<polyline points="77.0,275.0,80.0,287.0,86.0,299.5,107.0,305.5,113.0,317.5" stroke="black" stroke-width="2" fill="none" />
<polyline points="148.0,322.5,147.5,322.5,144.5,327.0,140.0,327.5,128.0,333.5,113.5,332.0,98.0,330.5,86.0,329.5,74.0,324.5,61.5,326.0,61.5,328.5,49.5,339.0,38.0,339.5,26.0,340.0,24.5,331.0,28.0,319.5,20.0,313.5,27.5,301.0,26.0,289.0,35.0,280.0,31.0,278.5,34.0,272.5,29.5,262.5,22.5,257.5,12.5,251.5,17.0,247.0,23.0,239.0,8.0,230.5,22.5,217.0,12.0,212.5,14.5,200.5,33.5,188.5,52.5,194.0,51.0,188.0,39.0,194.5,27.0,195.0" stroke="black" stroke-width="2" fill="none" />
<polyline points="15.0,211.5,27.0,213.0,39.0,210.0,50.5,206.5,55.0,197.5,62.5,207.5,70.0,205.0,78.0,208.5,95.0,207.5,107.0,215.5,111.5,212.5,131.0,219.5,135.0,227.0,146.5,222.0,158.0,220.5" stroke="black" stroke-width="2" fill="none" />
<polyline points="142.0,243.5,147.5,231.5,135.5,223.5,144.5,211.5,153.5,198.0,138.5,211.0,134.0,194.5,141.5,182.5,139.5,185.5,128.0,186.5,123.5,177.5,111.5,178.0,120.5,171.5,108.5,176.5,100.0,169.5,88.5,169.5,80.0,175.5,65.0,169.5,57.5,177.0,48.0,173.0,28.0,171.5,22.0,177.5,13.0,188.0,3.5,192.0,23.5,180.0,28.0,166.5,20.5,165.0,4.5,170.5" stroke="black" stroke-width="2" fill="none" />
<polyline points="1.0,166.0,13.5,167.5,15.5,168.5,14.0,180.0,35.5,183.0,47.5,181.5,52.0,184.5,56.5,181.5,68.5,181.5,80.0,180.0,92.0,173.0,87.5,181.5,95.0,188.0,98.5,191.5,103.0,197.5,107.5,190.5,119.5,193.5" stroke="black" stroke-width="2" fill="none" />
<polyline points="94.0,241.5,82.0,243.0,76.5,231.0,72.0,235.5,60.0,226.5,55.5,224.5,43.5,229.0,32.5,238.0,20.5,235.0,9.5,239.0,3.0,243.0,13.0,235.5,1.0,231.0" stroke="black" stroke-width="2" fill="none" />
<polyline points="11.5,209.5,11.0,205.0,23.0,195.0,35.0,187.5,40.5,207.0,41.5,211.5,52.0,223.0,55.0,231.0,49.0,243.0,40.0,240.5,35.5,252.5,33.5,248.0,37.0,261.0,56.5,250.5,57.0,234.5,69.0,226.5,81.0,227.0,83.0,233.0,83.0,245.5,77.5,247.0,68.5,254.5,59.0,256.0,57.5,275.0,72.5,287.0,66.0,296.0,67.5,308.0,63.0,311.0,51.0,307.5,63.0,294.0,69.0,309.0,86.0,318.0,98.0,322.5,110.0,322.5,124.0,310.5,136.0,312.0" stroke="black" stroke-width="2" fill="none" />
<polyline points="102.5,335.5,90.5,334.0,80.0,329.5,71.0,331.0,59.0,335.5,47.0,334.5,56.0,327.0,39.5,315.5,29.5,302.0,14.5,290.0,18.0,273.5,13.5,272.0,7.5,283.0" stroke="black" stroke-width="2" fill="none" />
<polyline points="20.0,273.5,32.0,269.0" stroke="black" stroke-width="2" fill="none" />
<polyline points="1.0,263.0,4.0,261.5,6.0,273.5,10.5,291.5,14.0,303.5,17.5,303.5,19.0,315.5,30.0,308.5,40.5,314.5,48.0,303.0,45.5,294.0,47.0,304.5,35.0,317.0,36.0,332.0,42.0,335.0,52.5,324.0,55.0,321.5,67.0,319.5" stroke="black" stroke-width="2" fill="none" />
<polyline points="7.5,337.0,10.5,324.5,1.5,323.0" stroke="black" stroke-width="2" fill="none" />
<polyline points="18.5,338.0,6.0,339.5,5.0,330.5,3.5,323.5,8.0,312.0,3.5,309.5,8.0,297.0,3.5,286.5,9.5,282.0,15.0,269.5,13.5,257.5,1.5,259.0" stroke="black" stroke-width="2" fill="none" />
<polyline points="60.0,238.0,51.0,241.0,67.5,235.0" stroke="black" stroke-width="2" fill="none" />
<polyline points="64.0,229.5,55.5,241.5,52.5,255.5,65.0,251.0,74.0,255.5,85.5,259.0,88.5,253.0" stroke="black" stroke-width="2" fill="none" />
<polyline points="44.5,162.5,32.5,167.0,29.5,159.5,17.5,161.5,5.5,161.0" stroke="black" stroke-width="2" fill="none" />
<polyline points="1.0,160.5,13.0,156.0,25.0,155.0,37.0,156.5,49.5,155.5,61.5,160.0,73.5,157.0,85.5,150.5,88.5,155.0" stroke="black" stroke-width="2" fill="none" />
<polyline points="84.0,119.5,96.0,119.5,102.0,107.5,111.0,105.5" stroke="black" stroke-width="2" fill="none" />
<polyline points="101.0,95.0,89.0,98.5" stroke="black" stroke-width="2" fill="none" />
<polyline points="87.0,89.5,99.5,85.0,111.5,85.0,123.5,85.0" stroke="black" stroke-width="2" fill="none" />
<polyline points="119.0,79.5,107.0,78.0,95.0,70.5" stroke="black" stroke-width="2" fill="none" />
<polyline points="92.5,69.0,110.5,87.0,101.5,102.0,110.5,109.5,98.5,128.0" stroke="black" stroke-width="2" fill="none" />
<polyline points="109.5,127.5,118.5,121.5,101.5,123.0,89.5,127.5,77.5,120.0,77.5,111.0,73.5,108.0" stroke="black" stroke-width="2" fill="none" />
<polyline points="74.0,108.5,77.0,120.5" stroke="black" stroke-width="2" fill="none" />
<polyline points="78.5,111.0,91.0,109.5,94.0,101.0,106.0,100.0,118.5,95.5" stroke="black" stroke-width="2" fill="none" />
<polyline points="135.5,110.5,148.0,121.0" stroke="black" stroke-width="2" fill="none" />
<polyline points="144.5,114.0,157.0,113.5,161.5,112.0,143.0,113.5,147.5,108.0,159.5,103.0,171.5,98.5,184.0,96.5" stroke="black" stroke-width="2" fill="none" />
<polyline points="189.0,89.0,170.5,89.0,158.5,92.0" stroke="black" stroke-width="2" fill="none" />
<polyline points="157.0,92.0,143.5,104.0" stroke="black" stroke-width="2" fill="none" />
<polyline points="153.0,107.5,165.0,106.0" stroke="black" stroke-width="2" fill="none" />
<polyline points="192.5,105.5,180.5,113.0,174.0,122.0,168.0,126.5,156.5,127.5,138.5,124.5,126.5,118.5,114.5,120.0,102.0,126.0,102.0,134.0,87.0,131.5,75.0,124.0,63.0,119.5,53.5,131.5,37.0,122.0,25.0,124.5,12.5,130.5,14.0,134.0,4.0,118.5,13.0,108.5,16.5,90.5,15.0,77.0,11.0,65.0,10.0,53.0,10.0,41.0,10.0,29.5,13.0,22.0" stroke="black" stroke-width="2" fill="none" />
<polyline points="8.5,19.5,20.5,15.0,32.0,16.0,44.0,20.5,56.0,19.0,66.5,25.0,72.5,37.0,84.0,42.5,95.5,45.5" stroke="black" stroke-width="2" fill="none" />
<polyline points="94.5,27.5,96.0,31.0,104.0,32.5,105.5,40.5,111.5,62.0,114.5,66.5" stroke="black" stroke-width="2" fill="none" />
<polyline points="95.5,66.5,107.5,84.5,100.0,95.0,92.5,110.0,98.0,117.5,103.5,119.0,111.0,110.0" stroke="black" stroke-width="2" fill="none" />
<polyline points="123.5,129.5,116.0,141.5,120.5,135.5" stroke="black" stroke-width="2" fill="none" />
<polyline points="127.0,130.5,123.5,143.0,119.0,158.0,131.0,155.0,143.0,153.5,155.0,143.0,167.5,135.5" stroke="black" stroke-width="2" fill="none" />
<polyline points="123.0,145.0,111.0,151.0,99.0,154.0,91.5,149.5,79.5,150.5,67.5,153.5,55.5,149.0,44.0,151.5,40.5,142.0,28.5,146.0,24.0,141.5,13.5,147.0,1.0,141.0" stroke="black" stroke-width="2" fill="none" />
<polyline points="8.5,118.5,20.5,121.0,29.5,131.0,41.5,126.0" stroke="black" stroke-width="2" fill="none" />
<polyline points="47.0,113.0,68.0,125.0,78.0,137.0,58.5,149.0,55.5,154.0,67.5,161.5,79.5,163.0,92.0,158.0,104.0,156.5,116.5,151.5,128.5,146.0,128.5,135.0,140.5,132.0,146.5,139.5,156.5,131.0,163.0,119.0,167.5,114.5,172.0,103.0,176.0,99.0" stroke="black" stroke-width="2" fill="none" />
<polyline points="207.0,95.5,194.5,98.5,186.5,80.0,183.5,74.0,171.5,71.0,159.0,70.0,158.0,77.5,149.0,82.5,134.0,73.5,122.0,76.5,110.0,76.5,97.5,68.5,85.5,65.5,82.5,66.0,73.5,62.5,67.0,76.5,58.0,72.0,46.0,78.0,35.5,75.5,23.5,77.0,25.0,75.0,14.5,64.0,11.5,47.5,2.5,35.5,7.0,23.0,2.5,18.5,19.0,3.0,7.0,3.0,1.0,18.0" stroke="black" stroke-width="2" fill="none" />
<polyline points="9.0,12.5,21.0,9.5,22.0,12.5,26.5,21.0,32.5,31.5,44.5,34.0,56.5,40.0,68.5,44.5,80.5,47.5,92.5,50.0,104.5,51.0,122.5,37.5,134.5,33.5" stroke="black" stroke-width="2" fill="none" />
<polyline points="123.5,21.0,112.0,16.5,100.0,13.5,88.0,12.5,73.5,16.0,61.5,8.5" stroke="black" stroke-width="2" fill="none" />
<polyline points="64.0,10.5,76.0,24.0,88.0,28.5,100.5,27.0" stroke="black" stroke-width="2" fill="none" />
<polyline points="99.0,19.5,121.5,31.5,122.5,43.5,130.0,46.0,128.0,50.0,135.0,38.0,147.0,39.5,159.0,37.5" stroke="black" stroke-width="2" fill="none" />
<polyline points="149.5,46.0,160.0,58.0,159.5,70.0,140.5,80.5,133.0,92.0,134.5,109.0,143.5,120.5,146.5,135.5,140.0,134.0,127.5,146.0,117.0,162.0,111.0,170.0,106.5,186.5,108.5,182.5,120.5,184.0,133.0,181.0,145.0,171.5,157.5,164.0,160.5,166.5,172.5,155.5,178.5,143.5,190.5,134.5,202.5,132.0,214.0,132.0,226.0,142.5,246.5,139.5,258.0,133.5,270.0,130.5,281.5,130.5,289.0,132.0,301.0,127.5,313.0,132.0,315.0,132.0,327.5,137.0,326.5,134.5,338.5,121.0,336.0,107.5" stroke="black" stroke-width="2" fill="none" />
<polyline points="315.5,90.5,297.5,102.5" stroke="black" stroke-width="2" fill="none" />
<polyline points="319.5,80.5,300.0,92.5,302.0,92.0,314.0,83.0,326.5,79.0,338.5,82.0" stroke="black" stroke-width="2" fill="none" />
<polyline points="376.0,33.0,388.0,31.5,400.0,30.0,412.0,30.0,424.0,31.0,435.5,32.5,443.0,38.5,413.0,54.0,425.0,54.0,437.0,50.0,446.0,50.0,431.0,53.0" stroke="black" stroke-width="2" fill="none" />
<polyline points="441.5,65.0,434.0,63.5,448.5,51.5" stroke="black" stroke-width="2" fill="none" />
<polyline points="463.5,65.0,456.0,69.5,467.5,65.0,479.5,62.0,491.5,62.5" stroke="black" stroke-width="2" fill="none" />
<polyline points="485.5,8.5,473.5,9.0,463.0,6.0,449.5,3.0,437.5,6.0,425.5,6.0,413.5,9.5,401.5,9.5,389.0,12.5,377.0,15.5,364.5,17.5,345.5,20.5,347.0,7.0,342.5,5.5,330.5,5.5,317.0,14.5,305.0,5.5,297.0,4.0,285.0,8.0,278.0,6.0,266.0,11.0,258.5,8.0,246.5,5.0,238.0,14.0,226.0,14.0,214.0,15.5,208.5,6.5,195.0,3.5,186.0,17.5,174.0,20.5,162.0,20.5,157.5,29.0,157.0,32.0,151.0,29.5,138.5,31.0,126.5,32.5,116.0,25.0,104.0,21.0,92.0,18.0,80.5,20.5,66.5,16.5,63.5,11.5,54.5,16.0,42.5,13.0,30.5,11.5" stroke="black" stroke-width="2" fill="none" />
<polyline points="30.0,10.0,45.0,19.0,49.5,38.5,72.0,50.5,79.5,56.5,79.5,63.5,67.5,69.5,66.0,84.5,63.0,92.0,60.0,88.5,72.0,82.5" stroke="black" stroke-width="2" fill="none" />
<polyline points="68.5,103.0,80.5,100.0,81.0,100.5,67.5,100.5,65.0,111.5,74.0,124.0" stroke="black" stroke-width="2" fill="none" />
<polyline points="73.0,126.5,65.5,132.5,57.5,125.0,45.5,120.5,33.5,112.5,21.5,108.0" stroke="black" stroke-width="2" fill="none" />
<polyline points="13.0,104.0,25.0,104.0,37.0,104.0,41.5,110.0,53.5,115.0,65.5,112.0,65.0,108.0,78.0,96.0,90.0,96.0,102.0,88.5" stroke="black" stroke-width="2" fill="none" />
<polyline points="96.0,80.0,78.0,83.5,70.5,95.5,62.5,100.5,74.5,93.5,92.5,83.0,103.0,93.0,110.0,94.5,122.0,94.0,135.5,83.0,147.5,74.0,159.5,72.5,171.5,77.5,173.0,82.0,185.0,85.0" stroke="black" stroke-width="2" fill="none" />
<polyline points="181.5,89.0,169.5,84.5,158.0,80.0,154.0,95.0,142.5,105.5,136.5,99.5,141.0,88.0" stroke="black" stroke-width="2" fill="none" />
<polyline points="173.0,25.0,167.0,15.5,155.5,14.0,143.5,12.5,131.5,15.5,119.5,14.5,107.5,13.0" stroke="black" stroke-width="2" fill="none" />
<polyline points="73.0,3.0,85.0,3.0,97.0,3.5,109.0,3.5,121.5,3.5,133.5,3.5,145.5,4.0,157.5,4.5,171.0,12.0" stroke="black" stroke-width="2" fill="none" />
<polyline points="193.0,5.5,204.0,17.5,210.0,29.5,205.5,35.5,209.0,45.5,221.0,51.5,224.5,63.5,223.5,77.0,223.5,89.0,223.5,101.0,227.0,108.0,213.0,115.5,211.5,135.5,230.5,152.0,238.0,164.0,237.5,167.0,252.0,166.0,264.0,172.0,269.5,166.0,281.5,161.0,295.0,156.5,298.0,165.5,310.0,171.5,322.0,172.5,325.0,186.5,334.0,180.5,336.0,185.0,348.5,190.0,352.0,197.5,364.0,195.0,376.0,192.0,388.0,189.0,394.0,191.5,403.0,178.0,413.5,178.0,418.0,190.0,425.5,187.0,428.5,181.0,440.0,183.5,452.0,179.0,464.0,170.0,476.0,167.0,488.0,164.0,492.5,168.5,504.5,162.5,510.0,168.5" stroke="black" stroke-width="2" fill="none" />
<polyline points="504.5,48.0,492.5,53.5,481.0,52.0,469.0,49.0,463.5,57.0,451.5,46.0,449.5,51.0,437.5,55.5,425.5,58.5,413.5,57.0,401.5,57.0,398.5,59.5,387.0,64.0,375.0,62.0,363.0,65.0,350.5,72.5,330.0,52.0,315.0,46.5,306.0,42.5,306.0,30.5,302.5,29.5,293.5,29.5,290.0,26.5,308.0,20.5,309.5,12.0" stroke="black" stroke-width="2" fill="none" />
<polyline points="304.0,21.5,304.0,30.0,316.0,42.0,328.5,51.0,331.5,46.5,337.5,46.5,351.0,51.0,359.0,45.0,371.0,51.0" stroke="black" stroke-width="2" fill="none" />
<polyline points="360.0,20.0,372.0,21.0,382.5,10.5,388.5,19.0,400.0,16.0,412.0,14.5" stroke="black" stroke-width="2" fill="none" />
<polyline points="390.0,7.0,378.5,5.5,369.5,11.5,366.5,4.0,354.5,8.5" stroke="black" stroke-width="2" fill="none" />
<polyline points="296.5,63.0,291.5,78.0,294.5,66.0,300.5,54.5,288.5,48.5,277.0,59.0" stroke="black" stroke-width="2" fill="none" />
<polyline points="256.0,58.0,260.5,70.5,257.5,82.5,262.0,83.0,262.0,94.5,254.5,100.5,251.5,119.0,260.5,116.5,272.5,124.0,286.0,110.5,298.0,109.5,310.0,97.5,322.0,95.0,334.0,99.5" stroke="black" stroke-width="2" fill="none" />
<polyline points="278.0,11.0,266.0,10.5" stroke="black" stroke-width="2" fill="none" />
<polyline points="228.0,12.0,228.0,24.0,238.5,40.5,240.0,52.5,237.0,70.5" stroke="black" stroke-width="2" fill="none" />
<polyline points="206.5,71.5,194.5,62.5,181.0,63.0,169.0,62.0,167.5,60.5,155.5,67.0,143.5,68.5,131.5,69.5,119.5,69.5,115.0,59.0,103.5,55.5,91.0,53.0,79.0,52.0,64.0,49.0,37.0,37.0,34.0,19.0" stroke="black" stroke-width="2" fill="none" />
<polyline points="37.5,24.5,50.0,26.0,53.0,31.0,65.5,31.5,77.5,36.5" stroke="black" stroke-width="2" fill="none" />
<polyline points="72.5,38.0,81.5,57.5,93.0,57.5,105.0,59.0,118.5,63.5" stroke="black" stroke-width="2" fill="none" />
<polyline points="74.0,53.0,61.5,45.5,49.5,41.5,37.0,37.0,25.5,32.0" stroke="black" stroke-width="2" fill="none" />
<polyline points="15.5,51.0,27.5,51.0,27.5,63.0,27.0,66.5,39.0,69.5,50.5,68.5" stroke="black" stroke-width="2" fill="none" />
<polyline points="41.5,82.5,29.5,78.0,28.0,84.5" stroke="black" stroke-width="2" fill="none" />
<polyline points="22.5,89.0,34.0,89.0,46.0,87.5,58.5,90.0,71.0,85.5" stroke="black" stroke-width="2" fill="none" />
<polyline points="57.0,81.0,45.5,83.0,34.0,86.0,22.0,86.0,22.5,78.5" stroke="black" stroke-width="2" fill="none" />
<polyline points="16.5,91.0,28.5,92.5" stroke="black" stroke-width="2" fill="none" />
<polyline points="36.5,62.0,30.5,56.0,18.5,56.0" stroke="black" stroke-width="2" fill="none" />
<polyline points="28.5,47.5,16.5,49.5,4.5,55.5,4.5,43.5" stroke="black" stroke-width="2" fill="none" />
<polyline points="4.0,114.5,16.0,110.0,2.5,127.0,7.0,131.5,10.0,138.5,23.5,137.0,35.5,139.0,37.0,139.0,48.5,140.5,60.5,137.0,72.5,140.0,81.5,138.5,94.0,134.0" stroke="black" stroke-width="2" fill="none" />
<polyline points="200.0,168.5,204.5,177.5" stroke="black" stroke-width="2" fill="none" />
<polyline points="208.5,280.0,219.0,292.0,214.5,298.0,214.5,309.5,219.0,321.5,219.0,333.0" stroke="black" stroke-width="2" fill="none" />
<polyline points="274.5,50.0,262.5,56.0,253.0,54.5,232.0,59.0,222.5,33.5,222.5,27.5,213.5,33.5,210.5,23.0,198.5,11.0,183.0,5.0,171.5,3.5,160.0,6.5,152.5,9.5,140.5,9.5,128.5,8.0,116.5,8.0,105.0,8.0,93.5,9.5,75.5,18.5,66.5,7.0" stroke="black" stroke-width="2" fill="none" />
<polyline points="201.0,2.5,207.0,14.5,219.0,26.5,231.5,38.5,233.0,50.0,228.5,51.5,233.5,63.5,234.0,76.0,238.5,76.0,232.5,83.5,231.0,91.5,229.5,103.0,238.5,108.5,238.5,120.5,244.5,122.0,243.0,128.0,239.5,132.5,224.5,144.5,216.5,146.0,225.5,152.0,226.5,161.0,219.5,179.0,215.0,185.5,206.0,197.5,199.5,199.0,180.5,212.5,182.0,223.0,176.5,229.5,175.0,244.5,155.0,256.5,144.5,274.0,144.5,275.5,151.0,287.0,157.0,303.5,157.0,311.0,156.5,322.5,158.5,331.5,160.0,339.0,168.0,325.0,171.0,311.5,175.5,328.0,187.5,328.0,199.5,328.0,226.5,337.5,235.5,330.0,241.5,336.5,253.5,330.5" stroke="black" stroke-width="2" fill="none" />
<polyline points="443.5,5.0,428.0,18.5,423.5,20.0,435.5,9.5,439.5,12.5,451.5,9.5" stroke="black" stroke-width="2" fill="none" />
</svg>