<svg xmlns="http://www.w3.org/2000/svg" version="1.1"><polyline points="43.5,6.0,61.5,11.0,94.0,31.5,104.5,34.0,137.5,49.5,145.5,42.0,166.0,32.5,186.0,17.5,206.0,18.0,226.0,38.5,231.0,61.0,263.5,58.5,281.0,56.0,293.0,36.0,313.0,33.5,323.0,48.5,340.5,33.5,365.0,20.5,369.5,30.0,389.5,32.5,410.0,30.0,419.5,5.0,439.5,5.5,404.5,18.0,395.0,45.0,370.5,67.5,355.0,92.5,355.0,120.0,342.5,140.0,385.0,152.5,405.5,157.5,400.5,177.5,385.5,202.5,345.5,212.0,353.0,222.0,333.0,246.5,348.0,266.0,363.5,274.0,373.5,281.5,375.5,296.5,400.5,299.0,390.5,309.0,383.0,329.0,397.5,333.5,370.0,333.5,377.5,325.5,395.0,326.0,418.0,311.5,433.5,317.0,453.5,312.5,453.5,307.5,473.5,297.0,470.5,317.0,482.5,316.5,502.0,311.5,507.0,319.5" stroke="black" stroke-width="2" fill="none" />
<polyline points="495.0,334.5,470.0,329.5,450.0,327.0,425.0,320.0,407.5,332.5,412.5,322.5,415.0,305.0,407.5,285.0,392.5,272.0,382.5,262.0,384.5,242.0,361.5,232.0,379.0,212.5,353.5,175.0,369.0,169.5,353.5,147.0,358.5,127.0,371.0,109.5,391.0,99.0,416.0,84.0,411.0,77.0,419.0,54.5,411.5,47.5,417.0,40.0,397.0,50.5" stroke="black" stroke-width="2" fill="none" />
<polyline points="389.5,22.5,369.5,24.5" stroke="black" stroke-width="2" fill="none" />
<polyline points="365.0,35.0,372.5,55.0,355.0,92.5,375.0,87.5,400.0,72.0,420.5,59.0,425.0,69.5,445.0,62.0,470.0,54.5,492.5,37.5" stroke="black" stroke-width="2" fill="none" />
<polyline points="502.0,49.5,482.0,56.5,472.5,64.0,452.5,66.5,452.5,89.0,475.0,94.0,497.5,74.0,469.5,54.0,484.5,34.5,491.5,20.0,471.0,22.5" stroke="black" stroke-width="2" fill="none" />
<polyline points="451.0,32.5,431.0,40.0,411.0,47.5,386.0,72.0,383.5,64.5,364.0,62.0,336.5,74.0,316.5,74.0,304.5,79.0,284.5,79.0" stroke="black" stroke-width="2" fill="none" />
<polyline points="274.5,88.5,294.5,91.0,314.5,81.5,335.0,84.5,317.5,92.0,310.0,102.0,329.5,105.0" stroke="black" stroke-width="2" fill="none" />
<polyline points="338.0,90.0,318.0,87.5" stroke="black" stroke-width="2" fill="none" />
<polyline points="316.5,52.0,316.5,19.5,301.5,4.5,282.5,4.5,270.0,4.5,250.0,7.0,227.0,9.5,207.0,9.0,187.5,4.5,153.0,4.5,132.5,4.5,112.5,9.5,100.0,4.5,80.0,4.5,60.0,4.5" stroke="black" stroke-width="2" fill="none" />
<polyline points="64.0,7.5,84.0,12.5,124.0,25.0,127.0,45.0,149.5,47.0,167.0,64.5,180.0,84.5,195.5,87.5,205.5,95.0,200.5,97.5,180.5,103.0,178.0,122.5,173.0,132.0,158.0,152.0,125.5,182.0,128.0,202.0,130.0,222.0,120.0,227.0,127.0,224.5,147.0,222.0,151.5,217.0,174.5,192.0,184.5,205.0,204.5,187.5,231.5,185.0,239.5,187.5,259.5,190.0,280.0,198.0,302.5,188.0,319.5,195.5,337.0,222.5,354.5,207.5,355.0,217.0,375.0,209.5,395.0,204.5,397.0,214.0,417.5,219.0,445.0,196.5,463.0,198.5,483.0,193.5,498.0,193.5,503.0,198.5" stroke="black" stroke-width="2" fill="none" />
<polyline points="510.5,184.0,503.0,204.5,500.0,224.5" stroke="black" stroke-width="2" fill="none" />
<polyline points="502.5,229.5,482.5,247.5,462.5,259.5,455.0,247.0,428.0,235.0,408.0,257.5,387.5,247.5,372.5,252.5,359.5,270.0,339.5,252.0,319.5,244.0,309.5,228.5,294.5,228.5,282.5,226.0,270.0,213.5,250.0,213.5,230.0,214.0,210.0,214.5,190.5,219.5,198.0,197.5,213.0,177.5,208.0,165.0,188.0,160.0" stroke="black" stroke-width="2" fill="none" />
<polyline points="192.5,144.0,212.5,141.5" stroke="black" stroke-width="2" fill="none" />
<polyline points="202.0,105.5,222.0,85.5" stroke="black" stroke-width="2" fill="none" />
<polyline points="223.0,60.5,228.0,80.5,228.0,100.5,230.5,130.0,203.0,155.0,220.0,165.0,222.5,190.0,202.0,200.0,197.0,212.0,192.0,232.0,172.5,244.0,164.5,279.5,172.0,299.5,174.5,309.5,184.5,312.0,174.5,337.0,195.0,324.5" stroke="black" stroke-width="2" fill="none" />
<polyline points="188.0,281.5,208.0,299.5,230.5,299.5,240.5,274.0,260.5,271.5,275.0,271.0,282.0,291.0,292.0,263.5,311.5,268.5" stroke="black" stroke-width="2" fill="none" />
<polyline points="306.5,284.5,327.0,294.5" stroke="black" stroke-width="2" fill="none" />
<polyline points="315.0,324.0,334.5,321.5,354.5,319.0" stroke="black" stroke-width="2" fill="none" />
<polyline points="344.5,334.0,324.5,329.0,349.5,314.0,349.5,293.5,372.0,271.5,384.5,252.0,397.0,232.0,382.5,217.0,415.0,202.0,399.5,189.5,402.0,167.0,397.0,154.0,362.0,154.0,359.5,171.5,339.5,174.5,319.5,177.0,299.5,165.0,284.5,147.5,264.5,137.5,264.5,147.5,244.5,165.0,234.5,155.0,214.5,149.5,194.5,150.0,184.5,172.5,165.0,180.0,155.5,185.0,148.0,207.5,135.5,195.0,130.5,187.5,153.0,195.0,158.5,175.0,143.0,177.0" stroke="black" stroke-width="2" fill="none" />
<polyline points="165.5,166.5,165.0,183.5,150.0,203.5,154.5,206.0,174.5,196.5,205.0,196.5,221.5,204.0,241.0,196.5,265.5,181.5,275.5,206.5" stroke="black" stroke-width="2" fill="none" />
<polyline points="291.5,190.5,309.0,210.5,309.0,230.5,323.5,250.0" stroke="black" stroke-width="2" fill="none" />
<polyline points="342.0,232.0,322.0,216.5" stroke="black" stroke-width="2" fill="none" />
<polyline points="317.5,210.5,337.5,198.0,322.5,207.5,335.0,227.5,347.5,247.5,375.0,270.0,395.0,250.0" stroke="black" stroke-width="2" fill="none" />
<polyline points="401.0,206.5,421.0,206.5,443.5,189.0,463.5,189.5,483.5,187.0" stroke="black" stroke-width="2" fill="none" />
<polyline points="495.0,169.0,487.5,189.0,490.0,209.0,467.5,224.0,452.5,237.0,457.0,257.0,462.0,262.5,472.5,285.0,492.5,292.5,507.0,280.0" stroke="black" stroke-width="2" fill="none" />
<polyline points="508.0,292.0,500.5,272.0,503.0,252.5" stroke="black" stroke-width="2" fill="none" />
<polyline points="477.5,247.0,467.5,267.0,462.5,279.5" stroke="black" stroke-width="2" fill="none" />
<polyline points="444.0,282.5,426.5,259.5,439.0,244.5,444.0,224.0,438.5,211.5" stroke="black" stroke-width="2" fill="none" />
<polyline points="399.0,199.5,404.0,192.5,406.5,222.0,411.5,231.5,434.0,249.0,421.5,254.5" stroke="black" stroke-width="2" fill="none" />
<polyline points="394.5,221.0,377.0,221.0,357.0,223.5,329.5,235.5,309.5,215.5" stroke="black" stroke-width="2" fill="none" />
<polyline points="311.5,222.5,304.0,242.5,309.5,257.0,294.5,257.0,287.5,270.0,287.5,290.0,300.0,312.5,302.5,325.0,320.0,332.5" stroke="black" stroke-width="2" fill="none" />
<polyline points="369.5,322.0,366.5,302.0" stroke="black" stroke-width="2" fill="none" />
<polyline points="344.0,277.0,326.5,257.0,306.5,242.0,287.5,237.0,267.5,242.0" stroke="black" stroke-width="2" fill="none" />
<polyline points="277.5,262.0,257.5,259.5,237.5,260.0,217.5,267.5" stroke="black" stroke-width="2" fill="none" />
<polyline points="221.0,266.0,226.0,286.0,226.0,318.5,233.0,328.5,233.0,318.5" stroke="black" stroke-width="2" fill="none" />
<polyline points="249.0,288.0,269.0,310.5,274.5,295.5,294.5,303.0,314.5,300.0,337.0,305.0,347.0,305.0,367.0,292.0,387.5,269.0" stroke="black" stroke-width="2" fill="none" />
<polyline points="319.0,264.5,306.5,262.5,274.0,247.5,274.0,255.0,255.0,247.5,225.0,257.5,220.0,237.5,199.5,235.0" stroke="black" stroke-width="2" fill="none" />
<polyline points="204.0,230.0,184.0,235.0,171.5,254.5,169.0,247.0,159.5,234.5,139.5,249.5" stroke="black" stroke-width="2" fill="none" />
<polyline points="121.0,274.5,128.5,279.5,131.0,299.5,141.0,324.0" stroke="black" stroke-width="2" fill="none" />
<polyline points="155.0,277.0,165.0,241.5,182.5,214.0" stroke="black" stroke-width="2" fill="none" />
<polyline points="209.0,210.5,208.5,220.0,228.5,222.5,228.0,232.5,262.5,227.5" stroke="black" stroke-width="2" fill="none" />
<polyline points="237.0,207.5,257.0,205.0,282.0,180.5,294.5,185.5" stroke="black" stroke-width="2" fill="none" />
<polyline points="312.0,167.0,284.5,165.0,272.5,165.0,255.5,175.0,235.5,172.5" stroke="black" stroke-width="2" fill="none" />
<polyline points="233.5,189.5,236.0,209.5,236.0,229.0,243.5,234.0,230.5,253.5,193.0,263.5,185.5,271.0,193.0,291.5,202.5,291.5,197.5,312.0,207.5,332.0" stroke="black" stroke-width="2" fill="none" />
<polyline points="211.0,319.5,208.0,299.5,210.5,271.5,185.0,266.5" stroke="black" stroke-width="2" fill="none" />
<polyline points="190.5,256.0,210.5,248.5,230.5,244.0" stroke="black" stroke-width="2" fill="none" />
<polyline points="253.0,278.0,253.0,297.5,260.5,317.0" stroke="black" stroke-width="2" fill="none" />
<polyline points="290.0,309.5,277.5,289.5" stroke="black" stroke-width="2" fill="none" />
<polyline points="273.5,281.5,280.5,301.5,285.5,322.0" stroke="black" stroke-width="2" fill="none" />
<polyline points="216.0,321.0,211.0,300.5,206.0,281.0,196.5,273.0,181.5,255.5,167.0,265.5" stroke="black" stroke-width="2" fill="none" />
<polyline points="183.0,244.0,162.5,264.0,172.0,284.0,167.0,311.5,161.5,331.5" stroke="black" stroke-width="2" fill="none" />
<polyline points="190.0,310.5,164.5,297.5,147.0,302.5,111.5,302.5,109.5,310.0,117.0,297.5,122.0,277.0,106.5,264.5" stroke="black" stroke-width="2" fill="none" />
<polyline points="91.5,288.0,91.5,288.0,94.5,308.0,104.5,327.5,107.5,332.0" stroke="black" stroke-width="2" fill="none" />
<polyline points="67.0,333.5,57.0,328.5,74.5,333.5,87.0,321.5,77.0,301.0,76.5,281.5,56.5,267.0,61.5,262.0,71.0,242.5,78.5,230.5,58.5,233.0" stroke="black" stroke-width="2" fill="none" />
<polyline points="29.5,220.5,49.5,218.0,62.0,200.0,82.0,202.5" stroke="black" stroke-width="2" fill="none" />
<polyline points="82.0,184.5,62.0,189.5,42.0,197.0,32.0,212.0,12.0,204.5,7.5,216.5" stroke="black" stroke-width="2" fill="none" />
<polyline points="3.0,199.0,23.0,186.0,42.5,168.5" stroke="black" stroke-width="2" fill="none" />
<polyline points="3.0,165.5,23.0,170.5,15.5,183.5,15.0,183.5,30.0,191.5,50.0,186.5,55.0,181.5,75.0,179.0,80.0,166.5,100.5,161.0,110.5,174.0,122.5,183.5,130.0,163.5,152.0,156.0,172.0,126.5,192.5,111.5,196.5,94.0,208.5,111.5,215.5,126.5,230.5,136.5" stroke="black" stroke-width="2" fill="none" />
<polyline points="267.5,119.5,290.0,140.0,300.0,142.5,312.5,152.5,317.5,173.0,345.0,185.5,350.0,195.5,370.5,185.5,390.5,175.5,403.0,163.0,423.0,173.0,443.0,175.5,462.5,165.0,482.5,160.0,495.0,169.5,500.0,174.5" stroke="black" stroke-width="2" fill="none" />
<polyline points="482.5,169.5,462.5,177.0,475.0,159.5" stroke="black" stroke-width="2" fill="none" />
<polyline points="485.0,145.0,470.0,167.0,450.0,179.5,462.5,191.5,445.0,207.0,427.0,209.5,425.0,220.0,415.0,240.0,405.5,242.5,400.5,262.5" stroke="black" stroke-width="2" fill="none" />
<polyline points="440.0,131.5,417.5,141.5,397.0,141.5,370.0,132.0,352.5,164.5,335.0,152.0,329.5,147.5,317.0,150.0" stroke="black" stroke-width="2" fill="none" />
<polyline points="318.0,159.5,308.0,159.5" stroke="black" stroke-width="2" fill="none" />
<polyline points="274.0,132.0,269.5,139.5,259.5,159.5,272.0,167.0,275.0,187.5,290.0,207.5,300.0,232.5,322.5,257.0,332.5,262.0,333.0,274.5,328.0,294.5,340.5,299.5,335.5,315.0,358.0,310.0,365.0,300.0,382.5,297.5,385.0,290.0,405.0,290.0,415.0,280.0,430.0,305.0,452.0,312.5,430.0,322.5,430.0,327.5,425.0,337.5,446.5,335.0,466.5,335.0" stroke="black" stroke-width="2" fill="none" />
<polyline points="489.5,137.5,469.5,145.0,449.5,152.5,429.0,154.5,426.5,162.0,419.0,150.0,411.5,132.5,429.0,120.0,446.0,97.0,471.0,77.0,458.5,69.0,458.5,84.0" stroke="black" stroke-width="2" fill="none" />
<polyline points="479.5,88.5,499.5,86.0" stroke="black" stroke-width="2" fill="none" />
<polyline points="507.5,101.5,497.5,74.0,477.5,84.0,475.0,104.5,465.0,112.0,455.0,100.0,444.5,112.5,429.5,102.5,429.5,97.5,422.0,115.5,402.0,113.0,382.5,122.5,372.5,110.0,342.5,97.0,332.5,124.5,330.0,94.5,310.0,97.0,292.5,102.5,275.0,105.0,260.5,95.0,265.5,75.0,257.5,53.0,237.5,40.5" stroke="black" stroke-width="2" fill="none" />
<polyline points="243.0,40.5,260.5,60.5,260.0,78.0,267.5,95.0,267.0,114.5,246.5,117.0,246.5,137.0,239.0,139.0,239.0,159.0,226.5,166.5,249.5,159.5,267.0,187.0,292.0,189.5,272.0,217.0,251.5,236.5,252.0,266.5,232.0,286.5,245.0,287.0,230.0,299.5,235.0,319.0,245.0,314.0,250.5,326.5,268.0,334.5,238.5,337.0" stroke="black" stroke-width="2" fill="none" />
<polyline points="102.5,311.0,67.5,291.0,62.5,318.5,62.5,298.5,57.5,278.5,40.0,275.5,22.5,273.0" stroke="black" stroke-width="2" fill="none" />
<polyline points="32.5,292.5,25.0,312.5,22.5,333.0" stroke="black" stroke-width="2" fill="none" />
<polyline points="38.5,331.0,36.0,310.5,41.0,308.0" stroke="black" stroke-width="2" fill="none" />
<polyline points="39.5,312.0,49.5,332.0" stroke="black" stroke-width="2" fill="none" />
<polyline points="15.5,252.0,35.5,237.0,43.0,225.0,60.5,207.5,90.0,210.0,110.0,212.5" stroke="black" stroke-width="2" fill="none" />
<polyline points="108.0,212.0,118.0,232.5" stroke="black" stroke-width="2" fill="none" />
<polyline points="75.5,254.0,68.0,254.0,55.5,251.0,40.0,251.0,35.0,258.5,30.0,266.5,15.0,279.5,7.5,264.5,2.5,242.5" stroke="black" stroke-width="2" fill="none" />
<polyline points="1.5,159.5,21.5,154.5,41.5,144.5,34.5,164.0,54.5,146.5,74.5,158.5,95.0,156.0,115.5,143.5,135.5,134.0" stroke="black" stroke-width="2" fill="none" />
<polyline points="160.0,136.0,122.5,156.5,142.5,151.5,162.5,137.0,155.0,126.5,175.0,106.5,185.0,97.0" stroke="black" stroke-width="2" fill="none" />
<polyline points="169.5,99.0,149.0,101.5" stroke="black" stroke-width="2" fill="none" />
<polyline points="155.0,92.5,135.0,112.5,144.5,132.5,152.5,135.0,127.5,149.5,117.5,162.5,100.0,169.5,120.0,169.5,139.5,172.0,159.0,162.0,179.0,139.0,199.0,132.0,211.5,119.5,232.0,130.0" stroke="black" stroke-width="2" fill="none" />
<polyline points="190.0,66.5,170.0,64.0" stroke="black" stroke-width="2" fill="none" />
<polyline points="160.0,44.0,180.0,51.5,200.5,49.0,215.5,64.5,222.0,84.5,222.0,109.5,242.0,102.0,262.0,107.0,264.5,117.0,284.0,119.5,294.0,132.0,306.5,127.5,326.5,134.5,331.5,146.5,339.0,141.5,354.0,109.5,369.0,97.5,381.0,80.0,366.0,90.0,381.5,93.0,411.5,78.0,421.5,90.0,429.0,92.0" stroke="black" stroke-width="2" fill="none" />
<polyline points="408.5,90.0,388.5,108.0" stroke="black" stroke-width="2" fill="none" />
<polyline points="359.0,46.5,379.0,51.5,398.5,37.0,419.0,37.5,432.0,57.0,434.5,49.5" stroke="black" stroke-width="2" fill="none" />
<polyline points="463.5,47.0,453.5,49.5,435.5,82.0,415.5,104.5,398.0,114.5,378.0,141.5,360.0,162.0,374.0,161.5,386.5,144.0,396.0,131.5,406.0,126.5,424.0,121.5,429.0,129.0,449.5,127.0,452.5,147.0,453.0,139.5,473.5,124.5,463.5,132.0,458.5,144.5,443.5,155.0,438.0,170.0,458.0,160.0,478.0,152.5,498.0,145.0" stroke="black" stroke-width="2" fill="none" />
<polyline points="506.0,337.5,493.5,325.0,498.0,307.5,493.0,305.0,488.0,285.0,488.5,265.0,501.0,245.0,506.5,234.5,502.0,252.0,482.5,255.0,470.0,280.0,470.0,275.0,450.0,282.5,439.5,287.5,429.5,267.0,419.5,286.5,409.5,291.0,399.5,316.0,379.5,301.5,372.5,321.5,353.0,326.0,333.0,328.5,325.5,311.5,305.5,309.0,300.0,326.5,280.0,327.0,274.5,324.5,272.5,317.0,267.5,297.0,265.0,277.0,277.0,267.0,292.0,247.0,277.0,244.5,279.5,220.0,295.0,225.0,305.0,205.0,310.0,189.5,305.0,167.0,302.5,160.0,305.0,140.0,307.5,129.5,327.5,122.0,302.5,112.0,304.5,102.0,275.0,91.5,272.5,71.5,285.0,61.5,272.5,39.5,257.5,37.5,245.0,18.0,235.0,15.5,214.5,23.0" stroke="black" stroke-width="2" fill="none" />
<polyline points="203.5,7.5,221.5,27.5,224.0,42.5,229.0,62.5,249.5,67.0,242.0,69.5,240.0,89.5,250.5,89.5,235.5,99.5,235.5,122.0,208.5,121.5,213.0,144.0,183.0,149.5,177.5,169.5,182.5,189.5,192.0,189.5,179.0,200.0,179.0,205.0,166.0,222.5,156.0,242.0,153.5,259.5,153.5,279.5,158.5,294.5,146.0,311.5,156.0,317.0,168.5,334.5,199.0,339.5" stroke="black" stroke-width="2" fill="none" />
<polyline points="159.5,327.5,154.5,330.5,134.5,322.5,122.0,308.0,117.5,290.0,112.5,282.0,92.5,279.5,72.0,267.0,52.5,279.0,32.5,276.5,20.0,299.0,20.0,309.5,12.5,286.5,14.5,267.0,7.0,247.0,4.0,220.0,9.0,195.0,26.5,175.0,41.5,159.5,41.5,139.5,22.0,137.0,2.0,142.0" stroke="black" stroke-width="2" fill="none" />
<polyline points="4.5,142.0,9.5,124.5,29.5,122.0,49.5,112.0,69.0,104.0,77.0,99.0,59.5,119.0,67.5,137.0,77.5,124.5,80.0,126.5" stroke="black" stroke-width="2" fill="none" />
<polyline points="69.5,114.5,89.0,114.5,109.0,97.5,136.5,97.5,146.0,100.0,166.0,92.0" stroke="black" stroke-width="2" fill="none" />
<polyline points="143.0,83.0,140.5,77.5,130.0,97.5,102.5,110.0,90.0,135.0,109.5,130.0" stroke="black" stroke-width="2" fill="none" />
<polyline points="114.5,80.0,95.0,72.5" stroke="black" stroke-width="2" fill="none" />
<polyline points="102.0,40.0,82.0,27.0,62.0,12.0" stroke="black" stroke-width="2" fill="none" />
<polyline points="85.0,10.0,104.5,15.5,124.5,22.5,147.0,25.5,171.5,38.0" stroke="black" stroke-width="2" fill="none" />
<polyline points="181.0,17.5,173.5,37.0,156.0,42.0,175.5,52.0,185.0,72.0,200.0,69.5" stroke="black" stroke-width="2" fill="none" />
<polyline points="175.0,79.0,167.0,74.5,147.0,74.5,125.0,84.5,105.0,87.0,82.5,92.0,62.5,97.5,55.0,92.5,35.5,93.0,15.5,88.0" stroke="black" stroke-width="2" fill="none" />
<polyline points="32.0,75.0,37.0,70.0,57.0,67.5" stroke="black" stroke-width="2" fill="none" />
<polyline points="29.5,62.5,29.5,57.5,25.0,60.0,12.5,82.5,33.0,85.0,53.0,82.5,70.5,70.0,95.5,57.5,98.0,57.5" stroke="black" stroke-width="2" fill="none" />
<polyline points="107.5,47.5,87.5,45.0,67.0,43.0,47.0,40.5,27.5,33.0" stroke="black" stroke-width="2" fill="none" />
<polyline points="25.5,30.0,45.0,32.5,65.0,27.5,85.0,22.5,105.0,30.5" stroke="black" stroke-width="2" fill="none" />
<polyline points="101.0,19.5,121.0,39.5,133.0,57.5" stroke="black" stroke-width="2" fill="none" />
<polyline points="143.5,15.0,123.5,15.5,105.5,22.5,85.5,15.0" stroke="black" stroke-width="2" fill="none" />
<polyline points="46.5,34.5,14.0,44.0" stroke="black" stroke-width="2" fill="none" />
<polyline points="28.0,28.0,60.5,48.0,75.5,50.5,100.5,78.0,98.0,90.5,67.5,115.0,62.0,135.0,59.5,155.0,64.0,172.5,21.5,197.0,36.5,204.5,49.0,224.5,46.5,244.5,37.0,261.5,27.0,281.5,14.5,281.0,15.0,298.5,8.0,318.5,23.0,334.0,32.5,321.5,47.5,324.0,67.5,311.5,68.0,319.0,88.0,329.5,87.0,307.0,89.5,322.0,109.5,322.0,117.0,327.0,137.0,337.0,164.0,314.5,189.0,299.5,206.5,330.0" stroke="black" stroke-width="2" fill="none" />
<polyline points="160.0,204.5,170.0,184.5" stroke="black" stroke-width="2" fill="none" />
<polyline points="95.5,129.5,80.5,147.5,80.5,142.5,60.5,150.0,60.5,137.5,53.5,122.5,36.0,129.5,11.0,124.5,28.5,107.0,15.5,102.0,15.0,74.5,9.5,54.5,9.0,34.0,11.5,14.0,6.0,19.0" stroke="black" stroke-width="2" fill="none" />
<polyline points="18.5,19.0,16.0,39.0,20.5,19.0,40.0,19.0,42.5,19.0,57.5,16.5,60.0,32.0,80.0,62.0,99.5,66.5,120.0,74.0,139.5,67.0,159.5,62.0,180.0,57.0,200.0,59.5,217.5,64.5" stroke="black" stroke-width="2" fill="none" />
<polyline points="199.0,12.0,218.5,32.0,218.5,49.5,208.5,67.0,215.5,87.0,190.5,117.0,183.0,134.5,170.0,154.5,142.5,177.5,137.5,197.5,155.0,220.0,137.5,240.0,142.5,248.0,140.5,268.0,145.5,272.5,128.0,295.0,120.0,310.0,140.0,330.0" stroke="black" stroke-width="2" fill="none" />
<polyline points="312.0,35.0,342.0,42.0,329.5,75.0,337.5,95.0,340.5,115.0,328.0,135.0,325.5,149.5,348.0,169.0,335.5,189.0,360.5,201.5,380.5,196.5,390.5,181.0,410.0,181.0,430.0,178.5,450.0,179.0,469.5,179.0,484.5,164.0,487.0,151.0" stroke="black" stroke-width="2" fill="none" />
<polyline points="295.5,62.0,290.5,72.0,307.5,70.0,300.0,70.0,312.0,50.0,307.0,30.0,314.5,28.0" stroke="black" stroke-width="2" fill="none" />
<polyline points="312.0,10.0,294.5,30.0,302.0,17.5,322.0,12.5,345.0,10.5,365.0,5.5,370.0,15.0,390.0,7.0,410.5,7.0,432.5,14.5,452.5,7.0,477.5,14.5,498.0,4.5" stroke="black" stroke-width="2" fill="none" />
</svg>