<svg xmlns="http://www.w3.org/2000/svg" version="1.1"><polyline points="11.5,3.0,22.0,19.0,35.5,13.0,23.0,20.5,27.0,28.5,29.0,40.0,19.0,56.0,21.5,71.5,13.5,87.5" stroke="black" stroke-width="2" fill="none" />
<polyline points="6.0,75.5,21.5,74.5,37.0,74.0" stroke="black" stroke-width="2" fill="none" />
<polyline points="52.5,74.5,68.5,56.5" stroke="black" stroke-width="2" fill="none" />
<polyline points="76.5,50.0,72.5,39.5,56.0,36.0,42.0,30.0,26.0,42.0,20.0,39.5,4.0,39.5" stroke="black" stroke-width="2" fill="none" />
<polyline points="4.0,41.0,6.0,56.5,20.0,64.5,6.5,70.0,8.5,86.0,21.0,88.0,33.0,64.0,46.5,30.0,62.5,27.5,68.0,31.5,78.0,29.5,94.0,25.5,102.0,8.0,118.0,26.0" stroke="black" stroke-width="2" fill="none" />
<polyline points="110.5,36.5,95.0,32.5" stroke="black" stroke-width="2" fill="none" />
<polyline points="104.5,20.5,88.5,21.0,72.5,11.0" stroke="black" stroke-width="2" fill="none" />
<polyline points="64.0,3.0,80.5,3.0,84.5,15.0,102.5,19.0,108.5,31.0,112.0,31.5,108.0,48.0,96.0,60.0,90.0,80.5,66.0,97.5,54.0,111.5,50.0,127.5,46.0,143.0,20.0,155.0,27.0,170.5,37.0,184.0,29.0,199.5,43.0,181.5,55.0,175.5,63.0,176.0,79.5,155.5" stroke="black" stroke-width="2" fill="none" />
<polyline points="78.5,162.5,94.5,151.0,111.0,147.0,131.0,152.5,146.5,134.5,162.5,139.0,174.5,151.0" stroke="black" stroke-width="2" fill="none" />
<polyline points="172.0,153.0,187.0,152.5,201.5,152.5,215.5,152.5,230.0,152.5,245.5,152.5,260.5,153.0,276.0,153.5" stroke="black" stroke-width="2" fill="none" />
<polyline points="283.0,151.5,267.5,167.0" stroke="black" stroke-width="2" fill="none" />
<polyline points="264.0,149.5,248.5,164.5" stroke="black" stroke-width="2" fill="none" />
<polyline points="250.5,149.5,266.0,134.5" stroke="black" stroke-width="2" fill="none" />
<polyline points="265.5,122.0,250.0,123.5,234.0,126.0,217.5,127.0,201.5,128.0" stroke="black" stroke-width="2" fill="none" />
<polyline points="213.0,120.5,229.0,126.5,245.0,128.5,234.5,144.5,238.0,166.5,254.0,168.5,264.0,166.5,280.0,155.0,295.5,155.0,303.5,151.0,307.0,163.0,299.0,179.0,299.5,195.0,291.5,195.0,288.0,203.0,308.0,195.0,326.0,182.5,330.0,194.5,336.5,196.5,344.5,172.0,360.5,158.0,372.5,158.0,382.5,176.0,378.5,184.0,372.0,202.0,378.0,228.0,376.0,236.0,380.0,248.0" stroke="black" stroke-width="2" fill="none" />
<polyline points="373.5,268.5,390.0,267.5,407.5,266.5,424.0,266.0,440.0,265.5,456.0,265.5,472.0,264.0,488.5,264.0,505.0,263.5,521.5,263.5" stroke="black" stroke-width="2" fill="none" />
<polyline points="524.0,260.5,507.0,276.5" stroke="black" stroke-width="2" fill="none" />
<polyline points="507.0,243.5,523.5,227.0" stroke="black" stroke-width="2" fill="none" />
<polyline points="521.0,217.5,505.0,232.5" stroke="black" stroke-width="2" fill="none" />
<polyline points="499.5,234.0,508.0,238.0,498.0,240.0,492.0,256.0,498.0,260.0,504.0,276.0,500.0,294.0,502.5,302.0,499.0,298.0,510.5,284.0" stroke="black" stroke-width="2" fill="none" />
<polyline points="470.5,267.5,454.0,283.5" stroke="black" stroke-width="2" fill="none" />
<polyline points="461.0,275.5,477.5,271.5" stroke="black" stroke-width="2" fill="none" />
<polyline points="455.5,263.0,472.0,247.5" stroke="black" stroke-width="2" fill="none" />
<polyline points="456.0,245.0,440.5,260.5" stroke="black" stroke-width="2" fill="none" />
<polyline points="422.5,277.5,438.5,277.0,454.5,277.0,470.0,277.5,486.0,278.0,502.0,278.5,518.0,278.5" stroke="black" stroke-width="2" fill="none" />
<polyline points="521.5,329.5,506.0,345.0" stroke="black" stroke-width="2" fill="none" />
<polyline points="501.0,330.0,485.0,346.0" stroke="black" stroke-width="2" fill="none" />
<polyline points="457.0,332.0,472.5,331.0,489.0,331.0,505.0,330.5,521.0,330.5" stroke="black" stroke-width="2" fill="none" />
<polyline points="502.0,314.5,487.0,314.0,471.0,315.0" stroke="black" stroke-width="2" fill="none" />
<polyline points="427.0,329.0,410.5,329.0,395.0,328.5,379.0,328.5,361.5,329.5,344.5,329.5,328.0,330.5,311.5,330.0,295.0,331.0,278.5,331.5,263.0,332.5" stroke="black" stroke-width="2" fill="none" />
<polyline points="280.5,326.0,295.5,309.5,311.0,293.5" stroke="black" stroke-width="2" fill="none" />
<polyline points="295.5,295.0,279.0,310.5" stroke="black" stroke-width="2" fill="none" />
<polyline points="264.5,309.0,280.5,294.0" stroke="black" stroke-width="2" fill="none" />
<polyline points="265.0,298.0,280.5,300.0,296.0,310.5,312.0,300.5,340.0,290.5,350.5,300.5,366.5,302.5,380.5,304.0,397.0,305.5" stroke="black" stroke-width="2" fill="none" />
<polyline points="406.0,326.5,390.5,343.0" stroke="black" stroke-width="2" fill="none" />
<polyline points="405.5,338.0,421.5,336.5" stroke="black" stroke-width="2" fill="none" />
<polyline points="374.0,332.0,357.5,348.0" stroke="black" stroke-width="2" fill="none" />
<polyline points="357.5,326.0,374.0,311.0" stroke="black" stroke-width="2" fill="none" />
<polyline points="366.0,320.5,369.5,314.5,385.5,316.5,387.5,323.0,403.5,321.0,419.5,323.5,435.5,327.5,451.5,331.5,467.5,335.5,483.5,339.5" stroke="black" stroke-width="2" fill="none" />
<polyline points="457.0,306.5,440.0,306.5,423.0,307.5,407.0,308.0,390.5,308.5,374.5,308.5,359.0,308.5,342.0,310.0,325.0,311.0,308.5,311.5,293.0,311.5,277.0,311.0,261.0,311.5,245.0,311.5,229.0,311.5,213.5,311.5,197.0,311.5" stroke="black" stroke-width="2" fill="none" />
<polyline points="200.0,310.5,217.5,295.5,233.5,280.5" stroke="black" stroke-width="2" fill="none" />
<polyline points="234.5,286.5,228.5,290.5" stroke="black" stroke-width="2" fill="none" />
<polyline points="230.5,292.0,214.5,308.0" stroke="black" stroke-width="2" fill="none" />
<polyline points="228.5,326.5,245.0,309.5,261.0,293.5,277.0,277.5" stroke="black" stroke-width="2" fill="none" />
<polyline points="268.0,279.0,251.0,294.5,234.5,310.0,218.5,326.0" stroke="black" stroke-width="2" fill="none" />
<polyline points="185.5,300.0,201.0,300.0,216.5,299.0,231.0,297.5,245.0,296.5,260.5,295.5,276.5,294.5,292.0,293.5,307.5,293.0,322.5,293.0,338.5,293.0,355.0,293.0,371.5,292.0,389.0,291.5" stroke="black" stroke-width="2" fill="none" />
<polyline points="387.0,284.0,402.5,284.0,418.5,286.0,434.5,288.0,452.0,288.0,462.0,304.0,458.5,306.0,450.5,317.5" stroke="black" stroke-width="2" fill="none" />
<polyline points="480.0,302.0,478.0,286.0,454.0,280.0,438.0,278.0,422.5,278.0" stroke="black" stroke-width="2" fill="none" />
<polyline points="425.0,246.0,397.0,226.0,390.5,212.0,374.0,216.0" stroke="black" stroke-width="2" fill="none" />
<polyline points="378.5,217.5,388.5,227.5,396.5,243.5" stroke="black" stroke-width="2" fill="none" />
<polyline points="412.5,237.0,398.5,235.0,373.0,236.5,363.0,236.5,347.0,232.5,355.0,216.5,353.0,199.0,367.5,197.5,371.5,179.5,371.5,164.0,363.0,162.0,375.5,146.0,387.0,122.0,385.0,106.0,375.0,104.0,373.0,113.5" stroke="black" stroke-width="2" fill="none" />
<polyline points="370.0,111.0,366.0,111.0,362.0,126.5,362.0,136.5,352.0,152.5,334.0,174.5,340.5,190.0,314.5,194.0,318.5,210.0,294.5,228.0,302.5,236.0,301.0,248.0,296.5,264.0,296.5,279.5,300.5,305.5,290.5,317.5,292.5,333.5" stroke="black" stroke-width="2" fill="none" />
<polyline points="295.5,328.0,280.0,343.5" stroke="black" stroke-width="2" fill="none" />
<polyline points="278.5,337.0,264.5,331.0,272.5,317.0,270.0,303.0,264.0,303.0,266.0,303.5" stroke="black" stroke-width="2" fill="none" />
<polyline points="258.5,284.0,274.0,282.0" stroke="black" stroke-width="2" fill="none" />
<polyline points="265.0,254.0,281.0,254.0,297.0,253.5,312.5,253.0,328.5,251.5,345.0,251.0,361.0,250.0,377.5,249.0,393.5,248.0,409.5,248.0,425.0,248.5,442.0,247.5,458.5,246.0,474.0,244.5,489.0,243.5,504.0,242.5,519.5,242.0" stroke="black" stroke-width="2" fill="none" />
<polyline points="503.5,216.5,487.5,232.0" stroke="black" stroke-width="2" fill="none" />
<polyline points="471.0,228.0,486.5,213.0" stroke="black" stroke-width="2" fill="none" />
<polyline points="485.0,203.0,501.0,209.0" stroke="black" stroke-width="2" fill="none" />
<polyline points="489.5,199.0,472.5,215.0" stroke="black" stroke-width="2" fill="none" />
<polyline points="490.5,200.0,474.5,201.0,458.0,202.0,441.5,202.0,426.0,203.0,409.0,203.5,392.0,204.5,376.0,204.5,360.0,205.0" stroke="black" stroke-width="2" fill="none" />
<polyline points="362.0,189.0,377.5,187.5,393.5,186.5,409.5,185.0,425.0,183.0,440.0,181.5,456.0,180.0,472.0,179.5,488.0,178.5" stroke="black" stroke-width="2" fill="none" />
<polyline points="488.5,168.5,472.0,169.0,455.0,168.0,438.5,168.0,422.0,167.5,406.5,167.0,390.5,168.0" stroke="black" stroke-width="2" fill="none" />
<polyline points="391.5,173.0,391.5,189.0,393.0,213.0,383.0,229.5,382.5,246.0" stroke="black" stroke-width="2" fill="none" />
<polyline points="373.0,278.5,367.0,295.0,363.0,313.0,369.0,327.0,397.0,327.0,429.0,337.0" stroke="black" stroke-width="2" fill="none" />
<polyline points="429.5,274.0,414.0,272.0,398.0,270.0,382.0,268.0,366.0,268.0,350.0,266.0,334.0,264.0,318.0,260.0" stroke="black" stroke-width="2" fill="none" />
<polyline points="315.5,267.0,315.5,283.0,331.5,307.0,313.5,311.0,297.0,317.0,303.0,323.5,301.0,313.5" stroke="black" stroke-width="2" fill="none" />
<polyline points="317.5,314.0,311.5,330.0" stroke="black" stroke-width="2" fill="none" />
<polyline points="331.0,334.5,327.0,330.5,329.0,315.0" stroke="black" stroke-width="2" fill="none" />
<polyline points="348.0,304.5,358.0,314.0,356.0,330.0" stroke="black" stroke-width="2" fill="none" />
<polyline points="401.0,296.0,385.0,300.0,378.5,286.5,388.5,282.5" stroke="black" stroke-width="2" fill="none" />
<polyline points="354.5,272.5,332.0,288.5,344.0,314.5,348.5,332.5,372.5,338.5" stroke="black" stroke-width="2" fill="none" />
<polyline points="451.5,335.5,427.5,333.5,411.5,329.5,400.0,339.5,384.0,338.0,382.0,324.0,372.0,338.0,356.0,336.5,346.0,317.0,330.0,300.5,320.5,306.5,312.5,324.0,306.5,322.0,298.5,335.5,282.5,337.5,276.5,327.5,264.5,319.5,248.5,321.0,233.0,327.0,216.5,327.5,200.5,322.0,192.0,324.0,182.0,322.0,173.5,338.5,197.5,322.5,173.5,306.5,151.5,296.5,165.5,288.5,167.5,273.0,184.0,262.5,187.5,252.5,188.0,236.0,198.5,220.5,186.5,210.0,189.0,194.0,185.0,182.0,191.5,172.0,177.5,164.0,175.5,153.5,189.0,140.0,185.0,123.5,173.0,107.5,209.0,89.5,245.0,70.0,251.0,60.5,260.0,43.0,260.0,27.0,264.0,11.5,262.0,15.5" stroke="black" stroke-width="2" fill="none" />
<polyline points="268.0,12.5,284.0,4.5,292.0,24.5,275.5,32.5,271.5,48.5,264.0,64.0,282.5,72.5,287.0,84.5,299.0,82.5,301.0,92.5,317.5,80.5,325.5,70.5,341.0,50.5,358.5,44.5,374.0,38.0,389.5,34.0,405.5,27.5,421.5,21.5,429.5,35.5,438.5,17.5,444.5,35.5,446.0,51.5,452.0,71.5,459.5,91.5,465.5,108.0,461.5,124.0,449.0,122.0,453.5,138.0,451.5,154.0,463.5,172.0,469.5,174.0,487.5,180.5,495.5,196.0" stroke="black" stroke-width="2" fill="none" />
<polyline points="481.0,190.5,483.0,206.0,475.0,228.0,485.0,240.0" stroke="black" stroke-width="2" fill="none" />
<polyline points="520.5,215.0,505.5,215.0,488.5,216.5,471.5,218.0,454.5,219.5,438.5,219.5,422.5,219.5,407.0,220.5,391.5,221.0,375.5,221.0,359.5,221.5,344.0,222.5" stroke="black" stroke-width="2" fill="none" />
<polyline points="344.5,221.0,342.5,237.0" stroke="black" stroke-width="2" fill="none" />
<polyline points="325.5,229.0,309.5,244.0" stroke="black" stroke-width="2" fill="none" />
<polyline points="292.0,229.5,276.0,245.5" stroke="black" stroke-width="2" fill="none" />
<polyline points="283.5,241.0,299.5,237.0" stroke="black" stroke-width="2" fill="none" />
<polyline points="277.5,230.5,262.5,246.5" stroke="black" stroke-width="2" fill="none" />
<polyline points="249.0,243.0,266.0,228.0,282.5,212.5" stroke="black" stroke-width="2" fill="none" />
<polyline points="264.5,212.0,248.0,228.0,232.5,244.0" stroke="black" stroke-width="2" fill="none" />
<polyline points="232.5,233.0,248.0,218.0" stroke="black" stroke-width="2" fill="none" />
<polyline points="256.0,212.5,240.0,210.0" stroke="black" stroke-width="2" fill="none" />
<polyline points="243.0,204.0,259.5,203.0,276.0,202.0" stroke="black" stroke-width="2" fill="none" />
<polyline points="267.0,189.5,283.5,189.0,300.0,188.0,315.5,187.0" stroke="black" stroke-width="2" fill="none" />
<polyline points="327.0,186.0,343.5,185.5" stroke="black" stroke-width="2" fill="none" />
<polyline points="360.0,172.0,376.5,171.5" stroke="black" stroke-width="2" fill="none" />
<polyline points="387.5,154.5,403.0,153.5,419.0,153.5" stroke="black" stroke-width="2" fill="none" />
<polyline points="411.0,147.0,427.0,139.0,437.5,123.0" stroke="black" stroke-width="2" fill="none" />
<polyline points="439.5,119.0,423.0,135.5" stroke="black" stroke-width="2" fill="none" />
<polyline points="438.5,137.5,422.5,137.5,407.0,137.5" stroke="black" stroke-width="2" fill="none" />
<polyline points="402.5,122.0,419.0,122.0,435.5,121.5,453.0,120.0" stroke="black" stroke-width="2" fill="none" />
<polyline points="458.5,132.0,471.0,136.0,468.5,152.0,482.5,158.5,490.0,140.5" stroke="black" stroke-width="2" fill="none" />
<polyline points="483.5,134.5,495.5,126.5,489.0,142.5,490.5,130.5,506.0,122.0,505.5,114.0" stroke="black" stroke-width="2" fill="none" />
<polyline points="505.5,108.0,520.5,108.0" stroke="black" stroke-width="2" fill="none" />
<polyline points="521.0,93.5,504.0,93.5" stroke="black" stroke-width="2" fill="none" />
<polyline points="507.0,78.5,523.0,78.0" stroke="black" stroke-width="2" fill="none" />
<polyline points="521.5,61.5,505.5,62.0" stroke="black" stroke-width="2" fill="none" />
<polyline points="500.5,65.0,504.0,81.0,502.0,97.0,495.5,112.5,485.5,128.0,481.5,144.0,489.5,156.0,494.0,168.0,490.0,176.0,496.5,196.5" stroke="black" stroke-width="2" fill="none" />
<polyline points="516.5,223.5,500.0,224.0,485.0,224.5,468.0,225.5,452.5,226.0,436.5,226.5,420.0,227.5,404.0,227.5,388.5,229.0,373.5,230.0,359.0,230.0,344.0,230.0,330.0,230.0,314.0,231.0,298.0,231.5,282.0,232.0,266.5,232.5,250.5,231.5,234.5,232.5,218.5,233.0,202.5,233.5,186.5,234.0,170.0,234.5,154.5,236.0,138.5,237.0,122.0,238.0,105.5,239.0,89.0,239.5" stroke="black" stroke-width="2" fill="none" />
<polyline points="86.5,253.5,103.0,253.0,120.5,252.5,137.0,251.5,153.5,250.5" stroke="black" stroke-width="2" fill="none" />
<polyline points="149.5,266.0,165.5,268.0,181.0,260.0" stroke="black" stroke-width="2" fill="none" />
<polyline points="209.0,263.0,225.0,263.0,242.0,263.0" stroke="black" stroke-width="2" fill="none" />
<polyline points="271.0,266.5,254.5,264.5,252.5,272.5,236.0,272.0,228.0,260.5,224.0,244.5,230.0,228.5" stroke="black" stroke-width="2" fill="none" />
<polyline points="225.5,220.0,242.0,238.0,258.0,228.5" stroke="black" stroke-width="2" fill="none" />
<polyline points="229.0,199.0,213.0,199.5" stroke="black" stroke-width="2" fill="none" />
<polyline points="200.0,215.0,192.5,201.0,199.0,185.0,209.5,169.0,203.5,167.0,199.5,159.0,197.5,153.0,185.5,166.5,169.5,172.5,169.0,146.0,144.5,169.5,130.5,159.5,115.0,155.5,109.0,165.5,93.5,183.0,79.5,175.0,75.5,187.0,67.0,187.0,72.5,189.5,70.0,173.5,76.0,157.5,90.0,141.5,92.0,125.5,94.0,109.5,112.0,93.0,94.0,109.0" stroke="black" stroke-width="2" fill="none" />
<polyline points="106.5,107.5,100.5,124.0,96.5,140.0,91.0,156.5,93.0,168.5,91.0,192.5,71.0,209.0,77.0,211.0,75.0,223.0,73.0,229.0,77.0,215.0" stroke="black" stroke-width="2" fill="none" />
<polyline points="71.0,211.0,87.5,194.5" stroke="black" stroke-width="2" fill="none" />
<polyline points="83.0,183.0,67.0,198.5,52.5,215.0,37.5,231.5" stroke="black" stroke-width="2" fill="none" />
<polyline points="44.0,238.0,60.0,237.0,75.0,236.0" stroke="black" stroke-width="2" fill="none" />
<polyline points="70.5,233.0,54.5,243.0,39.0,245.0" stroke="black" stroke-width="2" fill="none" />
<polyline points="43.5,251.0,45.5,265.0,65.0,259.0,81.0,257.0,95.0,247.0,111.0,243.0" stroke="black" stroke-width="2" fill="none" />
<polyline points="137.5,233.0,153.0,217.5" stroke="black" stroke-width="2" fill="none" />
<polyline points="149.5,232.0,166.0,232.0,182.0,220.0" stroke="black" stroke-width="2" fill="none" />
<polyline points="170.5,196.5,166.5,212.5,148.0,228.5,138.0,250.5,154.0,246.5,170.0,252.0,188.0,266.0,203.5,265.5,220.0,263.5,240.0,257.5,256.0,259.5,282.0,255.5,304.5,255.5,318.0,239.5,334.0,246.0,350.0,242.0" stroke="black" stroke-width="2" fill="none" />
<polyline points="335.5,237.0,335.5,221.0,351.5,215.5,335.5,218.0" stroke="black" stroke-width="2" fill="none" />
<polyline points="345.0,169.5,328.5,169.5,312.0,170.0,296.0,170.0" stroke="black" stroke-width="2" fill="none" />
<polyline points="300.5,175.5,316.5,163.5,332.5,162.0,348.5,162.0,352.0,180.0,353.5,196.0,365.5,196.0,389.5,198.5,406.0,192.5,426.0,196.5,442.0,214.5" stroke="black" stroke-width="2" fill="none" />
<polyline points="406.0,183.5,421.5,168.5" stroke="black" stroke-width="2" fill="none" />
<polyline points="396.5,153.0,412.5,169.0,414.0,185.0,432.0,202.5,444.0,218.5,444.0,234.5" stroke="black" stroke-width="2" fill="none" />
<polyline points="459.0,158.0,474.5,158.0,490.0,156.5" stroke="black" stroke-width="2" fill="none" />
<polyline points="491.5,157.0,507.5,155.0" stroke="black" stroke-width="2" fill="none" />
<polyline points="503.0,150.5,487.0,159.0" stroke="black" stroke-width="2" fill="none" />
<polyline points="474.0,140.5,457.0,141.5" stroke="black" stroke-width="2" fill="none" />
<polyline points="450.0,150.5,469.5,174.5,477.5,206.5,487.5,216.5" stroke="black" stroke-width="2" fill="none" />
<polyline points="475.0,259.0,459.0,275.0,443.0,273.0,438.5,261.0,444.5,245.0,430.5,241.5,449.0,229.5,439.0,218.0,434.5,216.5,438.5,234.5,422.5,245.0,402.5,256.5,396.5,253.0,403.0,245.0,386.5,251.0,380.5,254.5,364.0,254.5,364.0,250.5,356.0,246.5,360.0,230.5,374.0,227.0,383.5,209.0,386.0,184.5,392.0,168.5,392.0,152.5,417.5,144.5,430.0,136.5,446.0,120.5,428.5,122.5,426.5,106.5,435.0,106.5,447.0,90.5,446.5,82.5,444.5,67.0,440.5,51.0,438.5,35.5,450.5,29.5,440.0,13.5,451.5,7.0,451.5,7.0,435.5,14.5,419.5,16.5" stroke="black" stroke-width="2" fill="none" />
<polyline points="426.0,4.5,432.0,8.5,420.5,24.5,432.5,28.0,423.0,34.0,427.0,49.5" stroke="black" stroke-width="2" fill="none" />
<polyline points="420.0,42.5,436.0,42.0,452.0,41.5" stroke="black" stroke-width="2" fill="none" />
<polyline points="461.5,47.5,481.5,50.0" stroke="black" stroke-width="2" fill="none" />
<polyline points="469.5,42.5,485.5,41.5,502.0,40.0,518.5,39.5" stroke="black" stroke-width="2" fill="none" />
<polyline points="517.0,22.5,501.0,22.0,485.5,22.0,470.5,22.0,454.5,23.0" stroke="black" stroke-width="2" fill="none" />
<polyline points="439.0,9.0,455.5,9.5,472.0,8.5,487.5,8.5,503.5,8.5,518.5,8.0" stroke="black" stroke-width="2" fill="none" />
<polyline points="453.5,72.0,437.0,72.5,421.0,73.0" stroke="black" stroke-width="2" fill="none" />
<polyline points="411.5,73.0,395.5,88.5" stroke="black" stroke-width="2" fill="none" />
<polyline points="402.5,90.0,419.0,90.0,435.5,89.0,453.0,88.5" stroke="black" stroke-width="2" fill="none" />
<polyline points="448.5,91.5,452.5,107.5,456.5,123.5,458.5,139.5,462.5,155.5,458.5,163.5,462.5,180.0,468.5,196.5,462.5,212.5,462.5,228.5,468.5,252.5,480.5,264.5,474.5,268.5,476.5,282.5,489.0,288.5,493.0,290.5,483.0,296.5,487.0,314.5,481.0,318.5,491.0,316.5,499.0,330.0" stroke="black" stroke-width="2" fill="none" />
<polyline points="502.0,323.5,494.0,329.5,482.0,313.5,469.5,307.5,467.5,291.5,455.0,286.0,465.0,262.0,463.0,256.0,471.5,249.5,479.5,239.5,495.5,235.5,499.5,233.5,493.5,239.5,489.5,229.5,473.5,249.5,457.0,239.5,453.0,251.5,437.5,241.5,425.5,258.0,420.0,258.0,404.0,262.0,387.5,260.0,371.5,260.0,355.5,258.5,347.5,257.0,331.0,255.0,315.5,255.0,299.5,247.0,286.0,252.5,270.0,250.5,264.0,250.0,248.0,250.0,234.0,248.0,238.0,236.0,243.5,234.0,247.0,217.5,257.0,209.5,255.0,193.5,261.0,183.5,249.5,183.5,237.5,167.0,234.0,153.0,246.0,147.5,256.5,139.5,248.5,132.0,268.5,132.0,270.5,116.0,272.5,98.0,272.5,82.0,276.5,74.0,294.5,60.5,295.0,44.0,282.5,28.0,296.5,12.0,321.0,7.5,309.5,7.5,293.5,13.5" stroke="black" stroke-width="2" fill="none" />
<polyline points="293.0,25.0,309.0,12.5,325.0,4.5,325.0,12.0,316.5,17.5,326.0,35.5,342.0,23.5,360.0,37.0,360.0,29.0" stroke="black" stroke-width="2" fill="none" />
<polyline points="356.0,21.5,358.0,37.0,336.0,45.0,336.5,55.0,328.5,75.0,328.5,90.5,314.5,96.5,326.5,98.0,346.5,110.0,360.0,128.0,380.5,137.5" stroke="black" stroke-width="2" fill="none" />
<polyline points="378.0,138.5,394.5,138.0" stroke="black" stroke-width="2" fill="none" />
<polyline points="394.5,124.5,378.5,125.5" stroke="black" stroke-width="2" fill="none" />
<polyline points="379.5,107.0,396.0,106.0" stroke="black" stroke-width="2" fill="none" />
<polyline points="404.5,104.5,420.0,104.0,435.5,103.5,451.5,103.0" stroke="black" stroke-width="2" fill="none" />
<polyline points="434.0,104.0,450.0,84.0,466.0,66.5,480.0,46.0,468.5,62.0,456.5,78.0,462.0,82.0,466.0,84.0,480.0,92.0,481.5,97.5,463.5,113.0,479.5,99.5,496.0,93.5" stroke="black" stroke-width="2" fill="none" />
<polyline points="487.5,100.0,471.0,112.0" stroke="black" stroke-width="2" fill="none" />
<polyline points="472.0,137.0,474.0,153.0,478.0,169.0,480.0,185.5,474.0,201.0,468.0,211.5,470.0,227.5,475.5,245.5,499.5,260.0,509.0,258.0" stroke="black" stroke-width="2" fill="none" />
<polyline points="510.0,264.0,496.0,272.0,496.0,256.0,490.0,258.0,484.5,256.0,470.0,252.0,454.5,269.5,444.5,257.5,428.5,264.0,416.5,275.5,400.5,275.5,384.0,274.0,368.0,272.5,352.0,270.5,336.5,270.5,320.5,269.0,305.0,269.0,283.0,269.0,269.0,250.5,281.0,234.5,279.0,224.5,285.5,198.5,287.0,182.0,290.5,166.5,300.5,148.5,300.5,132.0,308.5,115.5,308.5,89.5,314.5,71.5,321.0,43.5,337.0,27.5,375.0,7.5,375.5,7.5,359.0,7.5,347.0,17.5,331.0,26.0,314.5,30.0,310.5,54.5,294.0,64.5,278.0,52.5,274.0,48.5,258.0,58.0,246.0,62.5,226.0,62.5,207.5,61.0,227.5,53.0,241.5,37.0,235.5,20.5,235.5,4.5,227.5,10.5" stroke="black" stroke-width="2" fill="none" />
<polyline points="217.5,30.0,211.5,22.0,195.5,10.0" stroke="black" stroke-width="2" fill="none" />
<polyline points="189.5,3.5,205.5,11.0,209.5,3.5,226.0,3.5,234.5,25.5" stroke="black" stroke-width="2" fill="none" />
<polyline points="269.5,35.0,279.5,41.0,285.5,57.0" stroke="black" stroke-width="2" fill="none" />
<polyline points="290.5,50.5,274.5,28.5" stroke="black" stroke-width="2" fill="none" />
<polyline points="298.5,45.0,300.5,29.0,308.5,13.0" stroke="black" stroke-width="2" fill="none" />
<polyline points="318.0,55.5,334.0,45.5,347.5,51.5" stroke="black" stroke-width="2" fill="none" />
<polyline points="352.5,59.5,347.0,59.5,337.0,75.5,355.0,65.0,385.0,55.0,395.0,52.5,399.0,68.5,399.0,84.5,405.0,100.5,407.0,116.5,409.0,132.5,411.0,159.0,405.0,175.0,421.0,189.0,427.0,205.0,419.0,221.0,420.5,233.0,422.0,241.0,439.5,241.0" stroke="black" stroke-width="2" fill="none" />
<polyline points="390.5,154.5,406.5,136.5,423.0,132.5" stroke="black" stroke-width="2" fill="none" />
<polyline points="405.5,78.0,390.0,78.5" stroke="black" stroke-width="2" fill="none" />
<polyline points="394.0,72.5,410.0,57.0" stroke="black" stroke-width="2" fill="none" />
<polyline points="420.5,61.0,436.5,60.0,454.0,59.0,471.0,57.5,487.5,55.5" stroke="black" stroke-width="2" fill="none" />
<polyline points="511.0,128.5,510.5,144.5" stroke="black" stroke-width="2" fill="none" />
<polyline points="376.5,91.5,360.0,92.5" stroke="black" stroke-width="2" fill="none" />
<polyline points="360.5,77.5,376.0,77.0" stroke="black" stroke-width="2" fill="none" />
<polyline points="362.5,60.5,378.5,61.5,394.0,61.0,410.0,60.5" stroke="black" stroke-width="2" fill="none" />
<polyline points="381.0,54.0,383.0,70.0,384.5,82.5,400.0,86.5,416.0,95.0,434.0,93.0,460.0,85.0,476.0,85.0,492.0,91.0" stroke="black" stroke-width="2" fill="none" />
<polyline points="359.5,124.5,344.0,125.0" stroke="black" stroke-width="2" fill="none" />
<polyline points="346.5,112.5,348.5,128.5,346.5,154.5,363.0,136.5" stroke="black" stroke-width="2" fill="none" />
<polyline points="363.0,135.0,347.5,135.5,331.5,135.5,315.0,136.5" stroke="black" stroke-width="2" fill="none" />
<polyline points="293.5,134.0,278.5,134.0,263.0,134.5,247.0,134.5,231.0,135.0,215.0,135.5,199.5,135.5,183.5,135.5" stroke="black" stroke-width="2" fill="none" />
<polyline points="200.0,141.5,195.5,131.5,197.5,124.0,205.5,108.0,237.5,100.0,221.5,101.5,205.5,105.5" stroke="black" stroke-width="2" fill="none" />
<polyline points="221.5,104.5,237.5,102.5,235.5,118.5,251.0,118.5,264.5,112.5" stroke="black" stroke-width="2" fill="none" />
<polyline points="264.5,108.5,280.0,108.0" stroke="black" stroke-width="2" fill="none" />
<polyline points="281.0,95.0,265.0,96.0" stroke="black" stroke-width="2" fill="none" />
<polyline points="250.5,81.5,266.5,85.5,260.5,91.5,260.5,108.0,250.5,118.5,228.5,127.0,222.0,143.0,224.0,145.0,240.0,137.0,260.0,128.5,270.0,128.5,281.5,122.5,277.5,142.5,271.5,144.5,261.5,166.5,257.5,182.5,235.5,194.5,233.5,210.5,209.0,217.0,211.0,217.0,226.5,215.0,236.5,193.0,261.0,207.0,271.0,218.5,277.0,222.0,297.0,226.0,313.0,216.0,317.5,228.0,321.5,244.0,302.0,252.5,312.0,258.0,300.0,280.5" stroke="black" stroke-width="2" fill="none" />
<polyline points="292.0,280.5,277.0,281.5,261.5,282.5,246.0,283.0,230.5,283.5,215.0,284.0,199.0,284.5" stroke="black" stroke-width="2" fill="none" />
<polyline points="170.0,298.5,186.5,288.5,202.5,286.5,204.0,282.0,234.0,266.0,250.0,268.5,266.0,270.5,282.5,274.5" stroke="black" stroke-width="2" fill="none" />
<polyline points="316.0,269.5,320.0,285.5,348.0,304.0,352.0,320.0,348.0,326.5,338.0,328.5,322.5,333.0,338.5,329.0" stroke="black" stroke-width="2" fill="none" />
<polyline points="327.0,207.0,311.5,208.0,295.0,208.5,278.0,209.5,262.0,210.5,246.5,212.0,231.0,213.5,215.0,215.0,199.0,215.0,184.0,215.0,168.5,215.5,152.5,216.5,136.5,216.5,120.0,216.5,103.5,217.0,87.5,217.0,71.5,218.0,56.0,219.5,40.0,220.5,24.5,221.5,9.0,222.5" stroke="black" stroke-width="2" fill="none" />
<polyline points="1.0,216.0,16.5,216.0,32.5,212.0,45.0,212.0" stroke="black" stroke-width="2" fill="none" />
<polyline points="43.0,205.5,59.0,205.0,75.0,204.0,91.0,203.0,106.0,202.5,121.5,201.5,137.0,201.5,152.5,202.0" stroke="black" stroke-width="2" fill="none" />
<polyline points="136.5,188.5,120.5,189.5,105.0,189.5,89.0,189.0,73.0,189.0,57.0,189.5,41.5,189.5" stroke="black" stroke-width="2" fill="none" />
<polyline points="52.0,201.5,68.0,185.5" stroke="black" stroke-width="2" fill="none" />
<polyline points="71.5,170.5,56.0,170.0" stroke="black" stroke-width="2" fill="none" />
<polyline points="54.5,159.5,71.0,158.0,87.5,157.0" stroke="black" stroke-width="2" fill="none" />
<polyline points="90.0,171.0,105.5,171.0,120.0,171.0,135.5,171.5" stroke="black" stroke-width="2" fill="none" />
<polyline points="126.0,179.0,122.0,195.0,114.5,211.0,120.5,199.5,137.0,188.0,157.0,186.5" stroke="black" stroke-width="2" fill="none" />
<polyline points="180.0,171.5,196.0,171.0,213.0,170.5,229.0,170.0,245.5,169.0,261.5,167.5,278.0,166.0" stroke="black" stroke-width="2" fill="none" />
<polyline points="283.0,140.0,275.0,156.0,269.5,180.0,269.5,196.0,263.5,212.0,271.5,229.5,247.5,241.5" stroke="black" stroke-width="2" fill="none" />
<polyline points="205.0,250.5,189.0,250.0,179.0,240.0,163.0,236.0,147.5,234.0" stroke="black" stroke-width="2" fill="none" />
<polyline points="119.5,211.0,104.0,226.5" stroke="black" stroke-width="2" fill="none" />
<polyline points="124.5,216.5,128.5,200.5,140.5,184.5,142.0,168.0,102.5,180.0,104.5,152.0,98.5,160.5,82.0,170.5,90.0,176.0,65.5,168.0,72.0,151.5,75.5,147.5,73.5,131.5,77.5,117.0,61.5,119.0" stroke="black" stroke-width="2" fill="none" />
<polyline points="56.0,126.5,66.0,129.0,70.0,137.0,66.0,153.5,60.0,161.5" stroke="black" stroke-width="2" fill="none" />
<polyline points="57.0,143.0,73.0,142.0,88.0,140.5" stroke="black" stroke-width="2" fill="none" />
<polyline points="104.5,140.0,120.0,139.0,135.0,138.0,150.0,138.0" stroke="black" stroke-width="2" fill="none" />
<polyline points="153.5,135.5,137.5,151.5" stroke="black" stroke-width="2" fill="none" />
<polyline points="137.5,148.0,153.0,147.5" stroke="black" stroke-width="2" fill="none" />
<polyline points="153.0,156.0,136.5,156.5,120.5,156.5,104.5,157.0" stroke="black" stroke-width="2" fill="none" />
<polyline points="117.0,164.0,101.0,179.5" stroke="black" stroke-width="2" fill="none" />
<polyline points="116.5,193.5,112.5,209.5,130.5,209.0" stroke="black" stroke-width="2" fill="none" />
<polyline points="132.5,269.5,148.5,283.5,164.5,289.5" stroke="black" stroke-width="2" fill="none" />
<polyline points="139.0,306.5,133.0,290.5" stroke="black" stroke-width="2" fill="none" />
<polyline points="136.5,277.0,146.0,281.0,146.0,297.0,152.0,313.0,142.0,317.0,148.0,327.0,158.0,339.0" stroke="black" stroke-width="2" fill="none" />
<polyline points="180.5,335.5,168.5,332.0,156.0,328.0,160.0,304.0,182.5,288.0,178.5,278.0,172.5,254.0,175.0,250.0,169.0,224.0,152.5,206.5,160.5,204.5,170.5,188.5,182.5,172.5,186.5,156.5,194.5,142.5,190.5,126.0,184.0,110.0,180.0,117.5" stroke="black" stroke-width="2" fill="none" />
<polyline points="169.0,107.5,153.0,108.0,136.5,108.5" stroke="black" stroke-width="2" fill="none" />
<polyline points="151.0,95.0,167.0,103.5,182.5,97.0,198.5,93.0,214.0,87.0,230.0,83.0,246.0,77.0,262.0,73.0,278.0,67.5" stroke="black" stroke-width="2" fill="none" />
<polyline points="288.5,80.5,286.5,96.0,292.0,106.0,307.5,90.0" stroke="black" stroke-width="2" fill="none" />
<polyline points="293.5,90.0,310.0,90.0,327.0,89.5,343.5,89.5" stroke="black" stroke-width="2" fill="none" />
<polyline points="343.0,99.5,359.0,91.0" stroke="black" stroke-width="2" fill="none" />
<polyline points="358.0,90.5,362.0,74.5,358.5,68.5,366.5,52.5,376.5,46.0,392.5,38.5,378.0,22.5,392.0,4.5,385.5,8.5,369.5,18.5,353.0,19.0" stroke="black" stroke-width="2" fill="none" />
<polyline points="351.5,2.0,343.5,18.0,317.5,40.0,307.5,56.0" stroke="black" stroke-width="2" fill="none" />
<polyline points="315.0,72.0,331.0,71.0" stroke="black" stroke-width="2" fill="none" />
<polyline points="356.0,61.0,348.0,77.0,348.5,93.0,332.5,112.5,333.0,128.5,335.0,144.5,351.0,136.0" stroke="black" stroke-width="2" fill="none" />
<polyline points="318.5,162.5,316.5,178.5,308.5,194.5" stroke="black" stroke-width="2" fill="none" />
<polyline points="246.0,135.5,230.5,150.5,214.5,165.5" stroke="black" stroke-width="2" fill="none" />
<polyline points="219.5,171.0,221.5,187.0,217.5,203.0,225.5,219.5,211.5,235.5,207.5,253.5" stroke="black" stroke-width="2" fill="none" />
<polyline points="200.0,256.0,180.0,270.5,166.0,258.5,150.0,261.0,134.0,264.5,118.0,266.5,101.5,268.5,85.0,266.5,69.0,264.0,52.5,264.0" stroke="black" stroke-width="2" fill="none" />
<polyline points="32.0,256.0,52.0,282.0,67.5,274.0,73.5,278.5,89.5,290.5,105.5,302.5,115.5,300.5" stroke="black" stroke-width="2" fill="none" />
<polyline points="107.0,308.5,91.5,298.5,75.5,286.5" stroke="black" stroke-width="2" fill="none" />
<polyline points="82.5,283.0,96.5,298.5,116.0,302.5,116.0,318.5,124.0,334.0" stroke="black" stroke-width="2" fill="none" />
<polyline points="131.5,322.0,122.0,322.0,111.5,312.0,105.5,307.5,83.5,301.5,77.5,285.5,73.5,281.5,55.5,271.5,39.5,281.5,23.5,269.5,7.5,261.5" stroke="black" stroke-width="2" fill="none" />
<polyline points="1.0,271.0,17.0,281.5,33.0,283.5,39.0,293.0,55.0,295.0,71.0,297.0,87.5,309.0,104.0,315.5" stroke="black" stroke-width="2" fill="none" />
<polyline points="95.0,322.0,121.0,338.0" stroke="black" stroke-width="2" fill="none" />
<polyline points="118.5,269.0,103.5,269.5,88.5,270.0" stroke="black" stroke-width="2" fill="none" />
<polyline points="62.5,294.5,68.5,310.5,90.5,314.5,114.5,330.5" stroke="black" stroke-width="2" fill="none" />
<polyline points="67.0,311.0,51.0,311.0" stroke="black" stroke-width="2" fill="none" />
<polyline points="22.5,300.0,22.5,292.5" stroke="black" stroke-width="2" fill="none" />
<polyline points="12.0,307.5,28.0,315.5" stroke="black" stroke-width="2" fill="none" />
<polyline points="14.0,312.5,16.0,324.5" stroke="black" stroke-width="2" fill="none" />
<polyline points="0.5,276.0,16.5,292.0,17.0,302.0,33.5,313.5,48.0,313.5,64.5,299.0,80.5,311.0" stroke="black" stroke-width="2" fill="none" />
<polyline points="38.0,323.5,24.0,307.5,32.5,301.5,15.0,297.5,21.0,279.0,17.5,265.0,9.5,249.0" stroke="black" stroke-width="2" fill="none" />
<polyline points="4.5,241.5,6.5,258.0,14.5,274.0,14.5,286.0,5.0,302.0,7.0,312.0,22.5,312.0,18.0,322.0,23.5,338.0" stroke="black" stroke-width="2" fill="none" />
<polyline points="0.5,249.5,17.0,246.0,19.0,241.5,37.5,234.0,54.0,230.0,70.5,208.0,86.5,196.0" stroke="black" stroke-width="2" fill="none" />
<polyline points="61.5,215.0,55.5,230.5,73.5,246.5,89.5,242.5,95.5,228.0,111.0,223.5" stroke="black" stroke-width="2" fill="none" />
<polyline points="53.5,189.5,45.5,201.5,29.5,202.0" stroke="black" stroke-width="2" fill="none" />
<polyline points="35.0,172.5,18.5,164.5" stroke="black" stroke-width="2" fill="none" />
<polyline points="21.0,153.0,37.0,153.0" stroke="black" stroke-width="2" fill="none" />
<polyline points="50.5,123.0,66.5,97.0,82.5,89.0,99.0,83.0,115.0,73.0,127.0,87.0,137.0,60.5,153.0,52.5,169.0,44.5" stroke="black" stroke-width="2" fill="none" />
<polyline points="168.5,63.5,184.5,43.5,192.5,47.5,190.5,60.0,194.5,66.0" stroke="black" stroke-width="2" fill="none" />
<polyline points="186.0,84.0,170.0,76.0" stroke="black" stroke-width="2" fill="none" />
<polyline points="167.0,83.5,183.0,88.0,167.0,92.0" stroke="black" stroke-width="2" fill="none" />
<polyline points="153.0,58.0,137.5,58.0" stroke="black" stroke-width="2" fill="none" />
<polyline points="151.5,57.5,159.5,71.5,145.5,72.0,147.0,86.5,167.0,57.0,183.0,31.0,185.0,35.5,193.0,49.0" stroke="black" stroke-width="2" fill="none" />
<polyline points="185.5,57.5,177.5,61.5,161.5,82.0,145.0,92.0,129.0,86.0" stroke="black" stroke-width="2" fill="none" />
<polyline points="120.5,72.5,136.5,72.5,152.5,72.0" stroke="black" stroke-width="2" fill="none" />
<polyline points="169.0,120.5,152.5,121.0,136.5,122.0,120.5,123.0" stroke="black" stroke-width="2" fill="none" />
<polyline points="120.5,129.0,136.5,123.0,144.5,120.5" stroke="black" stroke-width="2" fill="none" />
<polyline points="165.5,133.5,157.5,135.5,155.0,151.5,152.0,167.5,146.0,184.0,135.5,206.0,131.5,214.5,123.0,230.5,147.0,241.0,123.5,255.0,130.0,259.0,133.5,275.0,137.0,295.0,153.0,309.0,169.0,291.0,193.0,274.5,209.0,270.0,213.5,275.5,229.5,273.0,247.5,275.0,264.0,277.0,270.0,287.0,286.0,289.5,304.0,289.5,322.0,289.5,338.0,283.5,338.0,275.5,344.5,289.5,359.0,277.0,375.5,279.0,375.5,289.0,389.5,293.0,405.0,291.5,413.0,295.5,400.5,321.5,418.5,311.5,429.0,314.0,441.5,300.5,447.5,290.5,463.5,293.0,463.5,309.0,467.5,323.0" stroke="black" stroke-width="2" fill="none" />
<polyline points="235.5,333.5,251.5,333.5,244.0,331.5,238.0,315.5,250.0,304.0,237.5,296.5,231.5,284.5,223.0,299.0,206.5,303.0,194.5,303.0,180.5,313.0,174.5,317.0,158.0,319.0,154.0,335.0,137.5,335.0,131.5,323.0,123.0,331.0,115.0,337.5,99.5,325.5,83.5,325.5,73.5,333.5,57.5,325.5,39.5,303.5,27.5,287.5,33.5,281.0,35.5,265.0,29.5,248.5,25.5,236.5,30.0,224.5,41.5,215.0,31.0,207.0,29.0,183.0,17.0,167.5,13.0,151.0,9.0,147.0,3.0,134.5,7.5,118.0,3.5,115.5,11.5,99.5,21.5,83.5,37.5,68.0,46.0,51.5,54.0,35.5,69.5,19.5,75.5,13.0,60.0,16.5,44.0,18.5,28.0,4.5,12.0,2.5" stroke="black" stroke-width="2" fill="none" />
<polyline points="6.0,13.5,22.5,13.5" stroke="black" stroke-width="2" fill="none" />
<polyline points="7.0,20.0,23.0,26.0,39.0,22.0" stroke="black" stroke-width="2" fill="none" />
<polyline points="52.0,25.0,36.0,25.0,19.0,24.5,2.0,24.0" stroke="black" stroke-width="2" fill="none" />
<polyline points="5.5,38.0,21.5,37.5" stroke="black" stroke-width="2" fill="none" />
<polyline points="7.5,46.5,23.5,72.5" stroke="black" stroke-width="2" fill="none" />
<polyline points="18.0,66.5,1.5,66.5" stroke="black" stroke-width="2" fill="none" />
<polyline points="6.0,54.5,22.5,53.5,39.0,53.0" stroke="black" stroke-width="2" fill="none" />
<polyline points="41.5,45.0,33.0,61.0" stroke="black" stroke-width="2" fill="none" />
<polyline points="36.5,90.5,22.5,106.5,16.5,123.0,10.5,125.0" stroke="black" stroke-width="2" fill="none" />
<polyline points="2.0,123.0,17.5,117.0,33.0,93.0" stroke="black" stroke-width="2" fill="none" />
<polyline points="32.5,94.0,26.5,110.0,32.5,135.5,10.5,145.5,27.0,142.0" stroke="black" stroke-width="2" fill="none" />
<polyline points="70.5,126.0,86.5,124.5,103.5,123.0" stroke="black" stroke-width="2" fill="none" />
<polyline points="107.5,106.0,91.5,106.5,75.5,106.5" stroke="black" stroke-width="2" fill="none" />
<polyline points="65.0,104.0,81.0,98.5,95.0,106.0,111.0,96.0" stroke="black" stroke-width="2" fill="none" />
<polyline points="97.5,76.0,100.0,68.0" stroke="black" stroke-width="2" fill="none" />
<polyline points="84.5,93.5,100.5,93.5,116.0,93.5,132.0,93.0,147.5,92.0" stroke="black" stroke-width="2" fill="none" />
<polyline points="142.5,21.5,142.5,37.0,134.5,52.5,144.0,56.5,132.5,75.0,128.5,99.0,134.5,114.5,120.0,130.5,122.0,146.0,115.5,170.0,97.5,178.0,96.0,194.0,108.0,214.0,104.0,226.0,84.0,234.0,92.0,240.0,80.0,246.0,86.5,220.0,97.0,214.0,112.5,204.0,118.5,180.5,124.5,164.0,136.5,168.5,150.5,194.5,170.5,186.5,184.5,182.5,196.5,176.5,212.0,158.0,228.0,158.0,244.0,158.0,246.0,143.5,262.0,144.0,274.5,136.0" stroke="black" stroke-width="2" fill="none" />
<polyline points="233.0,136.5,217.0,153.0,201.5,168.5" stroke="black" stroke-width="2" fill="none" />
<polyline points="210.0,172.5,208.0,188.5,206.0,204.5,203.5,206.5,219.5,198.5,223.5,176.5" stroke="black" stroke-width="2" fill="none" />
<polyline points="224.5,169.5,231.0,185.5,231.0,193.0,227.0,208.5,221.0,236.5,218.5,248.0,220.0,264.0,229.5,273.5,215.5,289.5,201.5,307.0,205.0,301.0,207.0,309.5" stroke="black" stroke-width="2" fill="none" />
<polyline points="186.5,167.5,203.0,152.0,219.0,136.0" stroke="black" stroke-width="2" fill="none" />
<polyline points="229.0,89.5,213.0,93.0,199.5,107.0,183.5,111.0,175.0,119.0,153.0,107.0,137.0,99.5,120.5,91.5,108.5,87.5,92.5,93.5,82.5,68.0,74.5,58.0,76.0,42.0,70.5,25.5" stroke="black" stroke-width="2" fill="none" />
<polyline points="59.5,38.0,71.5,54.0,55.5,70.0,49.5,86.0,57.0,76.0,71.0,60.0,85.0,68.0,95.0,57.5,113.5,63.5,129.5,39.5,145.5,15.0,161.5,15.0" stroke="black" stroke-width="2" fill="none" />
<polyline points="158.5,19.5,142.5,19.0" stroke="black" stroke-width="2" fill="none" />
<polyline points="143.5,17.0,133.5,33.0,125.0,48.5,119.0,64.5,100.5,80.5,96.5,104.5,86.5,100.0,76.0,116.0,62.0,128.5,58.0,144.5,54.0,160.5,48.0,166.5,42.0,184.5,58.0,194.0,52.5,210.5,44.5,226.5,45.0,254.5,37.0,250.5,45.5,266.5,53.0,277.0,51.0,285.0,57.0,297.0,51.0,313.0,52.5,328.5,42.5,338.5,56.0,332.5,54.0,320.5,70.0,324.5,98.0,318.5,114.0,330.5,124.0,312.5,140.5,310.5,162.5,308.5,178.0,300.0,196.0,312.0,212.0,318.5,236.0,330.5,250.5,334.5,262.5,334.0,272.5,337.5" stroke="black" stroke-width="2" fill="none" />
<polyline points="25.5,233.0,18.0,221.0,2.0,231.0" stroke="black" stroke-width="2" fill="none" />
<polyline points="218.0,232.0,214.0,246.0,200.0,242.0,188.0,235.5,178.0,229.5,154.5,241.5,138.5,246.0,123.0,258.0,109.0,258.5,93.0,252.5,78.5,246.5,69.0,226.5,81.0,226.5,99.0,210.5,100.5,194.5,106.5,191.0,118.5,185.0,126.5,179.0,130.5,179.0,140.5,163.0,144.5,149.0,148.5,133.0,160.5,117.0,154.5,100.5,158.5,84.5,171.0,68.5,159.0,64.5,179.0,48.5,175.0,46.5,179.5,31.0,177.5,15.0" stroke="black" stroke-width="2" fill="none" />
<polyline points="172.5,11.0,172.5,27.0,170.5,43.0,160.5,58.5,144.0,62.5,124.0,76.0,116.0,82.5,138.5,94.5,140.5,114.5,154.5,116.5,176.5,124.5,178.5,140.5,170.0,144.5,164.0,160.5,152.0,184.5,150.0,200.0,144.0,216.0,133.5,223.5,120.0,233.5,106.0,249.5,106.0,245.5,118.0,235.5,134.5,233.5,152.0,223.5,158.0,228.0,158.0,222.0,171.5,206.0,196.0,180.0,212.0,173.5,222.5,163.5,238.5,185.5" stroke="black" stroke-width="2" fill="none" />
<polyline points="217.5,51.5,212.0,51.5,236.0,49.5,230.0,29.5,214.0,19.0,220.0,8.5,210.0,0.5,195.5,0.5" stroke="black" stroke-width="2" fill="none" />
<polyline points="189.5,0.5,203.5,16.5,213.5,33.0,220.0,33.5,212.0,55.5,210.0,65.5,207.5,67.5,223.0,55.5,228.5,29.0" stroke="black" stroke-width="2" fill="none" />
<polyline points="94.5,1.0,97.0,17.5,109.0,20.0,113.0,44.0,107.0,59.5,102.5,87.5,63.0,107.5,57.0,121.5,53.5,137.0,49.5,153.0,43.5,155.0,33.5,171.0" stroke="black" stroke-width="2" fill="none" />
</svg>