<svg xmlns="http://www.w3.org/2000/svg" version="1.1"><polyline points="84.0,3.0,81.5,15.0,84.0,27.0,88.0,31.0,106.0,43.0,104.5,54.5,100.0,66.5,94.5,75.0,106.5,67.5,118.5,59.5,130.5,34.0,142.5,16.0,154.5,16.0,172.5,9.0" stroke="black" stroke-width="2" fill="none" />
<polyline points="175.0,9.5,172.0,21.0,173.5,32.5,168.5,44.5,163.0,57.0,145.0,58.5,158.5,62.5,158.0,70.0,155.0,81.5,151.5,89.0,154.5,101.0,159.5,111.5,158.0,123.5,153.5,135.5,141.5,138.5,147.5,143.0,143.0,155.0,143.5,158.0,135.0,170.0,128.5,182.0,125.5,194.5,119.5,206.0,116.5,218.5,101.5,226.0,91.0,230.5,97.0,224.5" stroke="black" stroke-width="2" fill="none" />
<polyline points="104.0,226.5,119.5,211.0" stroke="black" stroke-width="2" fill="none" />
<polyline points="137.5,233.0,153.0,217.5" stroke="black" stroke-width="2" fill="none" />
<polyline points="150.0,232.5,161.5,232.5" stroke="black" stroke-width="2" fill="none" />
<polyline points="171.0,230.0,159.0,237.5,147.0,236.0" stroke="black" stroke-width="2" fill="none" />
<polyline points="153.5,250.5,137.0,251.5,120.5,252.5,103.0,253.0,86.5,253.5" stroke="black" stroke-width="2" fill="none" />
<polyline points="89.0,239.5,105.5,239.0,122.0,238.0,138.5,237.0,154.5,236.0,170.0,234.5,186.5,234.0,202.5,233.5,218.5,233.0,234.5,232.5,250.5,231.5,266.5,232.5,282.0,232.0,298.0,231.5,314.0,231.0,330.0,230.0,344.0,230.0,359.0,230.0,373.5,230.0,388.5,229.0,404.0,227.5,420.0,227.5,436.5,226.5,452.5,226.0,468.0,225.5,485.0,224.5,500.0,224.0,516.5,223.5" stroke="black" stroke-width="2" fill="none" />
<polyline points="521.0,217.5,505.0,232.5" stroke="black" stroke-width="2" fill="none" />
<polyline points="504.5,229.5,507.5,241.5,509.5,244.5,503.0,256.5" stroke="black" stroke-width="2" fill="none" />
<polyline points="507.0,276.5,524.0,260.5" stroke="black" stroke-width="2" fill="none" />
<polyline points="507.0,243.5,523.5,227.0" stroke="black" stroke-width="2" fill="none" />
<polyline points="503.5,216.5,487.5,232.0" stroke="black" stroke-width="2" fill="none" />
<polyline points="471.0,228.0,486.5,213.0" stroke="black" stroke-width="2" fill="none" />
<polyline points="491.0,219.5,486.5,216.5,474.5,218.0" stroke="black" stroke-width="2" fill="none" />
<polyline points="472.5,215.0,489.5,199.0" stroke="black" stroke-width="2" fill="none" />
<polyline points="490.5,200.0,474.5,201.0,458.0,202.0,441.5,202.0,426.0,203.0,409.0,203.5,392.0,204.5,376.0,204.5,360.0,205.0" stroke="black" stroke-width="2" fill="none" />
<polyline points="369.5,196.0,363.5,206.5,362.5,211.0,359.5,220.0" stroke="black" stroke-width="2" fill="none" />
<polyline points="374.0,216.5,385.5,204.5,397.5,194.0" stroke="black" stroke-width="2" fill="none" />
<polyline points="406.0,183.5,421.5,168.5" stroke="black" stroke-width="2" fill="none" />
<polyline points="406.5,169.5,405.0,181.0" stroke="black" stroke-width="2" fill="none" />
<polyline points="399.0,181.0,396.0,175.0" stroke="black" stroke-width="2" fill="none" />
<polyline points="390.5,168.0,406.5,167.0,422.0,167.5,438.5,168.0,455.0,168.0,472.0,169.0,488.5,168.5" stroke="black" stroke-width="2" fill="none" />
<polyline points="488.0,178.5,472.0,179.5,456.0,180.0,440.0,181.5,425.0,183.0,409.5,185.0,393.5,186.5,377.5,187.5,362.0,189.0" stroke="black" stroke-width="2" fill="none" />
<polyline points="352.5,178.0,357.0,178.0,353.5,179.5,353.5,191.0,353.0,204.5,353.0,216.5,339.5,228.5,334.5,242.0" stroke="black" stroke-width="2" fill="none" />
<polyline points="325.5,229.0,309.5,244.0" stroke="black" stroke-width="2" fill="none" />
<polyline points="318.0,234.0,330.0,247.0" stroke="black" stroke-width="2" fill="none" />
<polyline points="337.0,265.0,349.5,266.5,361.5,266.5,373.5,263.5,385.5,265.0,397.5,266.5,409.5,267.0" stroke="black" stroke-width="2" fill="none" />
<polyline points="395.5,271.0,407.5,272.5,419.5,274.0,431.5,274.0,444.0,275.0,456.0,276.5,468.5,276.5,477.5,280.0,489.5,277.0,495.5,274.0,507.5,280.0" stroke="black" stroke-width="2" fill="none" />
<polyline points="506.0,284.0,493.0,285.5,490.0,298.0" stroke="black" stroke-width="2" fill="none" />
<polyline points="500.5,302.0,503.5,297.5" stroke="black" stroke-width="2" fill="none" />
<polyline points="502.0,285.0,499.0,297.0,494.5,309.0" stroke="black" stroke-width="2" fill="none" />
<polyline points="501.0,330.0,485.0,346.0" stroke="black" stroke-width="2" fill="none" />
<polyline points="506.0,345.0,521.5,329.5" stroke="black" stroke-width="2" fill="none" />
<polyline points="502.0,314.5,487.0,314.0,471.0,315.0" stroke="black" stroke-width="2" fill="none" />
<polyline points="457.0,332.0,472.5,331.0,489.0,331.0,505.0,330.5,521.0,330.5" stroke="black" stroke-width="2" fill="none" />
<polyline points="518.0,278.5,502.0,278.5,486.0,278.0,470.0,277.5,454.5,277.0,438.5,277.0,422.5,277.5" stroke="black" stroke-width="2" fill="none" />
<polyline points="428.0,279.0,420.5,277.5,412.5,289.5,408.0,300.0,402.0,315.0,405.0,321.0,409.5,311.5,421.5,313.5,433.5,307.0,438.0,313.0,444.0,311.5,445.5,296.5,457.5,298.0,461.5,310.0,464.0,329.5,452.0,337.0,447.5,340.0" stroke="black" stroke-width="2" fill="none" />
<polyline points="427.0,329.0,410.5,329.0,395.0,328.5,379.0,328.5,361.5,329.5,344.5,329.5,328.0,330.5,311.5,330.0,295.0,331.0,278.5,331.5,263.0,332.5" stroke="black" stroke-width="2" fill="none" />
<polyline points="280.5,326.0,295.5,309.5,311.0,293.5" stroke="black" stroke-width="2" fill="none" />
<polyline points="295.5,295.0,279.0,310.5" stroke="black" stroke-width="2" fill="none" />
<polyline points="289.5,305.0,301.5,305.5,313.5,299.0,312.5,309.5,309.5,321.5,305.0,323.0,294.5,335.5" stroke="black" stroke-width="2" fill="none" />
<polyline points="295.5,328.0,280.0,343.5" stroke="black" stroke-width="2" fill="none" />
<polyline points="290.5,327.0,302.5,315.0" stroke="black" stroke-width="2" fill="none" />
<polyline points="287.5,321.5,307.5,311.0,284.5,329.0" stroke="black" stroke-width="2" fill="none" />
<polyline points="264.5,309.0,280.5,294.0" stroke="black" stroke-width="2" fill="none" />
<polyline points="277.0,277.5,261.0,293.5,245.0,309.5,228.5,326.5" stroke="black" stroke-width="2" fill="none" />
<polyline points="218.5,326.0,234.5,310.0,251.0,294.5,268.0,279.0" stroke="black" stroke-width="2" fill="none" />
<polyline points="259.5,283.0,271.5,283.5,283.0,282.0" stroke="black" stroke-width="2" fill="none" />
<polyline points="292.0,280.5,277.0,281.5,261.5,282.5,246.0,283.0,230.5,283.5,215.0,284.0,199.0,284.5" stroke="black" stroke-width="2" fill="none" />
<polyline points="201.0,283.0,189.0,281.5" stroke="black" stroke-width="2" fill="none" />
<polyline points="182.0,287.5,167.5,299.5,178.0,311.5,199.0,314.5,209.5,325.0,215.0,337.5" stroke="black" stroke-width="2" fill="none" />
<polyline points="216.0,325.0,210.0,317.5,198.0,315.0" stroke="black" stroke-width="2" fill="none" />
<polyline points="197.0,311.5,213.5,311.5,229.0,311.5,245.0,311.5,261.0,311.5,277.0,311.0,293.0,311.5,308.5,311.5,325.0,311.0,342.0,310.0,359.0,308.5,374.5,308.5,390.5,308.5,407.0,308.0,423.0,307.5,440.0,306.5,457.0,306.5" stroke="black" stroke-width="2" fill="none" />
<polyline points="462.5,306.0,450.0,287.5,437.5,283.0,425.5,283.0" stroke="black" stroke-width="2" fill="none" />
<polyline points="408.5,296.5,396.5,296.0,385.0,300.0,373.0,305.0,365.0,293.0,361.0,287.0,346.5,286.0,334.5,293.0" stroke="black" stroke-width="2" fill="none" />
<polyline points="335.5,295.5,347.5,298.5,347.5,319.5" stroke="black" stroke-width="2" fill="none" />
<polyline points="345.0,327.5,342.0,327.5,342.5,339.5" stroke="black" stroke-width="2" fill="none" />
<polyline points="357.5,348.0,374.0,332.0" stroke="black" stroke-width="2" fill="none" />
<polyline points="380.5,326.0,374.5,324.5,380.5,309.5,368.0,306.5" stroke="black" stroke-width="2" fill="none" />
<polyline points="371.0,313.0,368.0,325.0,386.0,328.5" stroke="black" stroke-width="2" fill="none" />
<polyline points="381.5,315.5,384.5,312.5,390.5,313.5,398.5,315.0" stroke="black" stroke-width="2" fill="none" />
<polyline points="410.5,321.5,422.0,324.0,433.5,325.5,445.5,328.5,457.5,331.5,469.5,335.0" stroke="black" stroke-width="2" fill="none" />
<polyline points="482.0,326.5,473.5,308.5,464.5,298.0,456.5,285.5,455.0,284.0" stroke="black" stroke-width="2" fill="none" />
<polyline points="454.0,283.5,470.5,267.5" stroke="black" stroke-width="2" fill="none" />
<polyline points="455.5,263.0,472.0,247.5" stroke="black" stroke-width="2" fill="none" />
<polyline points="456.0,245.0,440.5,260.5" stroke="black" stroke-width="2" fill="none" />
<polyline points="417.0,259.5,405.0,262.5,393.0,262.0,381.0,260.0,369.5,258.5,357.0,258.5,344.5,257.5,333.0,256.0,321.5,254.5,312.5,245.5,303.5,243.5,295.5,243.5,283.5,243.5,301.5,225.0,288.0,232.5" stroke="black" stroke-width="2" fill="none" />
<polyline points="292.0,229.5,276.0,245.5" stroke="black" stroke-width="2" fill="none" />
<polyline points="262.5,246.5,277.5,230.5" stroke="black" stroke-width="2" fill="none" />
<polyline points="268.5,221.5,252.5,236.5,243.5,239.5,233.0,241.0,229.5,229.0,240.0,221.5,253.5,215.5,256.0,203.0,254.5,198.5,258.5,195.5,263.0,194.5,251.5,188.0,249.0,176.0,243.0,158.0,230.0,152.0,234.5,140.0,237.5,130.5,233.5,117.0,227.5,111.0,224.5,109.5" stroke="black" stroke-width="2" fill="none" />
<polyline points="225.5,112.0,225.5,101.5,238.0,97.0,224.5,109.0,227.0,121.0,218.0,130.5,224.0,134.5,220.5,137.5,230.5,136.0,242.5,133.0,238.0,145.0" stroke="black" stroke-width="2" fill="none" />
<polyline points="229.5,144.0,242.0,137.0,249.5,131.0,261.0,140.0,273.0,138.5" stroke="black" stroke-width="2" fill="none" />
<polyline points="267.0,133.5,279.5,124.5" stroke="black" stroke-width="2" fill="none" />
<polyline points="266.0,134.5,250.5,149.5" stroke="black" stroke-width="2" fill="none" />
<polyline points="264.0,149.5,248.5,164.5" stroke="black" stroke-width="2" fill="none" />
<polyline points="242.5,174.0,230.5,160.0" stroke="black" stroke-width="2" fill="none" />
<polyline points="225.5,167.0,224.0,179.0,237.5,186.5,242.0,198.5,232.5,192.5,244.5,203.0" stroke="black" stroke-width="2" fill="none" />
<polyline points="243.0,204.0,259.5,203.0,276.0,202.0" stroke="black" stroke-width="2" fill="none" />
<polyline points="282.5,212.5,266.0,228.0,249.0,243.0" stroke="black" stroke-width="2" fill="none" />
<polyline points="232.5,244.0,248.0,228.0,264.5,212.0" stroke="black" stroke-width="2" fill="none" />
<polyline points="261.5,228.5,261.5,240.5,258.5,249.5" stroke="black" stroke-width="2" fill="none" />
<polyline points="265.0,254.0,281.0,254.0,297.0,253.5,312.5,253.0,328.5,251.5,345.0,251.0,361.0,250.0,377.5,249.0,393.5,248.0,409.5,248.0,425.0,248.5,442.0,247.5,458.5,246.0,474.0,244.5,489.0,243.5,504.0,242.5,519.5,242.0" stroke="black" stroke-width="2" fill="none" />
<polyline points="521.5,263.5,505.0,263.5,488.5,264.0,472.0,264.0,456.0,265.5,440.0,265.5,424.0,266.0,407.5,266.5,390.0,267.5,373.5,268.5" stroke="black" stroke-width="2" fill="none" />
<polyline points="368.0,270.0,380.0,269.5,383.0,278.0,399.5,282.5" stroke="black" stroke-width="2" fill="none" />
<polyline points="389.0,291.5,371.5,292.0,355.0,293.0,338.5,293.0,322.5,293.0,307.5,293.0,292.0,293.5,276.5,294.5,260.5,295.5,245.0,296.5,231.0,297.5,216.5,299.0,201.0,300.0,185.5,300.0" stroke="black" stroke-width="2" fill="none" />
<polyline points="182.0,294.5,194.0,293.0,195.5,299.0,201.5,308.0,217.0,308.0,211.0,308.5" stroke="black" stroke-width="2" fill="none" />
<polyline points="214.5,308.0,230.5,292.0" stroke="black" stroke-width="2" fill="none" />
<polyline points="233.5,280.5,217.5,295.5,200.0,310.5" stroke="black" stroke-width="2" fill="none" />
<polyline points="189.0,316.0,201.0,322.5,212.0,325.5,224.0,328.5,236.0,324.5,248.5,321.5,260.5,336.5" stroke="black" stroke-width="2" fill="none" />
<polyline points="258.0,334.5,267.0,322.5,262.5,319.0,250.5,317.5" stroke="black" stroke-width="2" fill="none" />
<polyline points="244.5,314.5,244.5,317.5,247.5,309.0,254.5,325.5" stroke="black" stroke-width="2" fill="none" />
<polyline points="276.0,320.0,271.5,308.5,264.0,302.5,273.0,299.5,269.0,298.0,266.0,304.5" stroke="black" stroke-width="2" fill="none" />
<polyline points="260.5,288.5,272.0,290.5,284.0,291.5" stroke="black" stroke-width="2" fill="none" />
<polyline points="302.5,282.0,287.5,275.0,275.0,272.5,263.0,271.0,250.5,270.0,238.0,268.5" stroke="black" stroke-width="2" fill="none" />
<polyline points="232.5,270.0,244.0,273.0,256.0,274.5,264.5,266.5,277.0,267.5,284.5,260.0,296.5,263.0,320.5,261.5" stroke="black" stroke-width="2" fill="none" />
<polyline points="316.0,268.0,318.0,280.0,322.5,292.0,334.5,303.5,344.5,315.5,349.0,327.0,347.0,339.0,324.5,331.5,330.5,327.5" stroke="black" stroke-width="2" fill="none" />
<polyline points="331.0,324.0,331.0,336.0,332.5,334.0" stroke="black" stroke-width="2" fill="none" />
<polyline points="357.5,326.0,374.0,311.0" stroke="black" stroke-width="2" fill="none" />
<polyline points="377.5,304.5,389.5,306.0,402.0,309.0" stroke="black" stroke-width="2" fill="none" />
<polyline points="406.0,326.5,390.5,343.0" stroke="black" stroke-width="2" fill="none" />
<polyline points="368.0,315.5,379.5,321.5,391.5,322.0,403.5,330.0,415.5,330.0,427.5,336.0" stroke="black" stroke-width="2" fill="none" />
<polyline points="394.0,330.5,382.0,332.0,364.0,309.5,362.5,306.5,350.5,306.5,359.5,296.0,355.0,291.5,343.5,291.5" stroke="black" stroke-width="2" fill="none" />
<polyline points="345.5,294.0,357.5,297.5,369.0,299.0,376.5,288.5,396.0,279.5" stroke="black" stroke-width="2" fill="none" />
<polyline points="392.0,257.0,380.5,255.5,368.5,255.5,356.5,254.0" stroke="black" stroke-width="2" fill="none" />
<polyline points="362.0,238.5,350.0,243.0,347.0,246.0,354.5,238.0,347.0,230.5,352.0,230.0,359.5,218.0,371.5,200.5,372.5,189.0,371.0,177.5,369.5,165.5,366.0,160.0,375.0,151.0,367.5,136.0,370.0,131.5,370.0,119.0,370.0,118.5" stroke="black" stroke-width="2" fill="none" />
<polyline points="368.5,111.0,370.5,105.0,366.0,116.5,368.0,128.5,361.5,137.0,352.5,148.5,348.0,169.5,348.0,175.5,342.0,187.5,330.0,202.5,325.0,215.0,316.5,219.5,318.5,231.5,317.0,243.0,303.5,243.0,302.0,254.5,311.0,249.0,313.0,253.5,325.0,251.0,337.0,252.5,349.0,252.5,355.0,250.5,367.0,250.5,374.5,240.0,386.5,243.5,398.5,239.0,410.0,239.0,417.5,225.0,414.0,238.5" stroke="black" stroke-width="2" fill="none" />
<polyline points="409.5,230.5,417.0,216.5,421.5,215.0,420.5,212.0,420.5,216.5" stroke="black" stroke-width="2" fill="none" />
<polyline points="438.5,216.0,433.0,208.0,421.0,197.5" stroke="black" stroke-width="2" fill="none" />
<polyline points="423.5,194.5,435.5,206.5,439.5,224.5,447.5,234.0,437.0,241.5,442.0,243.5,452.5,254.0,446.5,271.0,458.5,273.0,470.5,259.5,482.5,256.5,494.5,252.0" stroke="black" stroke-width="2" fill="none" />
<polyline points="488.5,250.0,488.5,238.0,494.0,237.0,507.5,231.5,495.5,236.0,483.5,232.0,478.0,230.0,487.0,218.0,488.5,198.5,486.0,194.0" stroke="black" stroke-width="2" fill="none" />
<polyline points="496.5,196.5,494.0,187.5,481.5,176.0" stroke="black" stroke-width="2" fill="none" />
<polyline points="489.0,156.5,501.0,155.0" stroke="black" stroke-width="2" fill="none" />
<polyline points="490.0,156.5,474.5,158.0,459.0,158.0" stroke="black" stroke-width="2" fill="none" />
<polyline points="448.5,151.5,460.5,156.0,463.5,167.5,465.5,181.0" stroke="black" stroke-width="2" fill="none" />
<polyline points="449.5,186.5,458.0,198.5" stroke="black" stroke-width="2" fill="none" />
<polyline points="457.0,141.5,474.0,140.5" stroke="black" stroke-width="2" fill="none" />
<polyline points="470.5,137.5,473.5,149.5,476.5,161.5,478.0,173.5,472.5,178.0,475.5,184.0,469.5,200.5,469.5,215.5,471.0,227.5,471.0,239.5,468.0,251.0,481.5,263.5,489.0,275.0,469.5,294.5,469.5,306.5,471.5,318.5,477.0,323.0,489.0,311.0,492.0,312.5,496.5,305.0,508.5,284.0" stroke="black" stroke-width="2" fill="none" />
<polyline points="503.5,282.0,489.0,284.5,477.0,283.0" stroke="black" stroke-width="2" fill="none" />
<polyline points="477.0,293.0,480.0,305.5,477.0,305.0" stroke="black" stroke-width="2" fill="none" />
<polyline points="503.0,326.0,488.0,332.0,489.0,335.0,468.0,329.0,477.0,318.5,489.0,315.5,488.0,303.0,488.0,295.5,489.0,283.5,476.0,283.0,471.5,270.0,453.5,262.5,467.0,259.0,461.0,253.0,458.0,241.0,461.0,229.5,461.0,218.0,465.5,206.5,464.0,194.5,461.0,182.5,460.0,170.5,457.0,159.0,457.0,154.5,455.5,142.5,457.0,131.0,454.0,118.5,470.0,115.5,465.5,107.5,461.0,95.5,452.0,83.0,461.5,71.0,467.5,58.5,452.5,41.0,440.5,48.5" stroke="black" stroke-width="2" fill="none" />
<polyline points="452.0,41.5,436.0,42.0,420.0,42.5" stroke="black" stroke-width="2" fill="none" />
<polyline points="412.0,33.0,400.0,36.0,394.0,36.0,382.0,45.0,385.0,52.5,380.5,64.5,382.0,77.0,385.0,89.5,385.0,86.5,397.0,83.5,404.5,89.5,404.5,103.0,406.0,115.0,407.5,127.0,399.0,140.5,391.5,155.5,391.5,167.5,393.0,179.5,394.5,191.5,388.5,203.5,382.5,204.5,375.0,220.0,373.5,231.5,376.5,236.0,369.0,248.0,371.0,242.0,379.5,252.5,393.0,246.5,400.5,252.5,400.5,258.5,414.0,263.0,425.5,263.0,429.5,265.0,441.5,265.0,446.0,257.5,461.5,265.0,470.5,254.5,487.0,240.5,501.0,222.0,508.5,241.5" stroke="black" stroke-width="2" fill="none" />
<polyline points="520.5,215.0,505.5,215.0,488.5,216.5,471.5,218.0,454.5,219.5,438.5,219.5,422.5,219.5,407.0,220.5,391.5,221.0,375.5,221.0,359.5,221.5,344.0,222.5" stroke="black" stroke-width="2" fill="none" />
<polyline points="337.5,214.0,349.5,214.0,345.0,226.0,346.0,238.0" stroke="black" stroke-width="2" fill="none" />
<polyline points="327.0,207.0,311.5,208.0,295.0,208.5,278.0,209.5,262.0,210.5,246.5,212.0,231.0,213.5,215.0,215.0,199.0,215.0,184.0,215.0,168.5,215.5,152.5,216.5,136.5,216.5,120.0,216.5,103.5,217.0,87.5,217.0,71.5,218.0,56.0,219.5,40.0,220.5,24.5,221.5,9.0,222.5" stroke="black" stroke-width="2" fill="none" />
<polyline points="7.5,227.0,19.5,222.5" stroke="black" stroke-width="2" fill="none" />
<polyline points="28.5,213.5,16.5,216.5,5.0,218.0,3.5,225.5" stroke="black" stroke-width="2" fill="none" />
<polyline points="3.0,230.5,15.0,231.0,26.5,232.0,38.5,229.0,50.0,233.5" stroke="black" stroke-width="2" fill="none" />
<polyline points="44.0,238.0,60.0,237.0,75.0,236.0" stroke="black" stroke-width="2" fill="none" />
<polyline points="84.0,224.0,85.5,232.0,76.5,240.5,82.5,242.0,88.5,237.0,94.5,246.0" stroke="black" stroke-width="2" fill="none" />
<polyline points="88.5,270.0,103.5,269.5,118.5,269.0" stroke="black" stroke-width="2" fill="none" />
<polyline points="133.5,276.0,139.5,274.5,148.0,286.5,145.0,296.5,149.5,301.0,164.5,297.5,176.0,282.5,189.5,275.0,195.5,275.0,207.0,270.0,208.5,277.5" stroke="black" stroke-width="2" fill="none" />
<polyline points="209.0,263.0,225.0,263.0,242.0,263.0" stroke="black" stroke-width="2" fill="none" />
<polyline points="229.5,267.0,241.5,263.5,254.0,265.0,266.5,260.5,284.5,262.0,297.0,275.5,297.0,287.5,310.5,294.0,322.5,296.0,330.0,294.5,342.0,283.5,357.0,281.0,364.5,281.0,364.5,289.5,376.5,282.0,379.5,293.5,390.0,295.0,401.5,293.0,413.5,291.5,422.0,286.0,434.5,287.5,446.0,290.5,458.0,305.0,461.0,309.5" stroke="black" stroke-width="2" fill="none" />
<polyline points="440.0,299.5,441.5,311.5,426.0,319.0,441.0,322.0,459.0,326.5,471.0,329.5,482.5,338.5" stroke="black" stroke-width="2" fill="none" />
<polyline points="503.0,332.0,506.5,330.5,493.0,320.0,487.0,299.0,475.0,288.5,467.5,284.0,456.0,281.0,444.0,279.5,431.5,277.5,419.5,276.0,407.0,276.0,395.0,275.0,382.5,273.5,370.0,273.5,358.0,272.0,345.5,270.5,334.0,270.5,326.5,262.5,325.5,268.5,314.0,263.0,302.0,270.5,300.5,262.0,288.5,252.0,276.5,253.5,276.5,246.5,264.5,250.5,252.0,250.0,241.5,260.0,230.0,261.5,221.0,275.0,214.5,271.5,207.0,259.5,209.0,252.0,206.0,250.5,213.5,237.0,215.0,228.0,208.5,224.0,201.5,218.0,186.5,210.5,188.5,199.0,189.5,187.0,201.5,169.0,212.0,166.0,208.5,161.5,197.0,179.5" stroke="black" stroke-width="2" fill="none" />
<polyline points="190.5,181.5,193.0,195.0,190.0,207.0" stroke="black" stroke-width="2" fill="none" />
<polyline points="213.0,199.5,229.0,199.0" stroke="black" stroke-width="2" fill="none" />
<polyline points="242.5,184.5,230.5,178.5,218.5,163.5" stroke="black" stroke-width="2" fill="none" />
<polyline points="214.5,165.5,230.5,150.5,246.0,135.5" stroke="black" stroke-width="2" fill="none" />
<polyline points="251.5,124.5,258.5,136.5,263.0,148.5,257.0,156.0,263.0,168.0,254.0,177.0,257.0,189.0,239.0,207.0,240.5,214.5,253.0,217.0,253.0,202.0,260.5,203.5,266.0,215.5,278.0,219.5" stroke="black" stroke-width="2" fill="none" />
<polyline points="296.0,225.5,308.0,219.5,309.5,228.5,300.5,228.5,299.5,240.5" stroke="black" stroke-width="2" fill="none" />
<polyline points="320.5,273.0,332.5,276.0,344.5,276.0,344.0,285.5,348.5,296.5,350.0,315.0,351.5,326.5,353.0,338.5" stroke="black" stroke-width="2" fill="none" />
<polyline points="392.5,333.5,380.5,334.5,369.0,337.5,356.5,336.0,340.5,328.5,340.5,321.0,331.5,307.5,319.5,313.0,315.0,307.0,298.5,326.5,298.5,331.0,286.0,328.5,281.5,325.5,269.5,334.5,283.0,328.5,290.5,318.5,300.0,307.0,304.5,290.5,315.0,286.5,312.0,274.5,306.0,268.5,303.0,257.5,294.0,254.5,279.0,236.5,281.0,225.0,273.5,231.0,267.5,218.5,264.5,214.0,269.0,203.0,270.0,191.0,270.0,179.0,266.5,167.0,275.5,158.0,283.0,152.0,285.0,139.5,285.0,127.5,271.5,123.0,277.5,123.5,273.5,111.5,269.0,117.5,272.0,105.5,272.0,94.0,278.5,89.5,279.5,77.5,295.0,68.0,313.0,53.0,319.5,41.5,318.0,29.5,316.5,18.0,325.5,16.5,331.5,5.0,318.0,14.0,316.5,16.5" stroke="black" stroke-width="2" fill="none" />
<polyline points="321.5,32.0,309.5,35.0" stroke="black" stroke-width="2" fill="none" />
<polyline points="303.5,33.5,316.0,29.0,328.0,29.0,340.5,22.0,352.5,17.5,364.5,19.0,377.0,11.5,389.0,5.5,389.0,5.5,369.0,17.5,379.5,25.5,389.0,33.0,374.0,43.5,368.0,47.5,362.0,58.0,356.0,69.5,344.5,72.5,332.5,71.0,346.5,60.5,354.0,57.5,360.0,53.0,367.0,51.5,352.0,68.0,347.5,80.0,347.5,92.0,345.5,104.0,347.0,117.5,358.5,121.5,348.0,136.5,332.5,142.5,344.5,142.5" stroke="black" stroke-width="2" fill="none" />
<polyline points="345.5,153.0,357.5,142.5,372.5,138.5" stroke="black" stroke-width="2" fill="none" />
<polyline points="378.0,138.5,394.5,138.0" stroke="black" stroke-width="2" fill="none" />
<polyline points="399.5,138.5,378.5,156.0,367.5,155.5,355.5,158.0,344.0,162.5,332.0,162.5,319.5,163.5,309.0,159.0,299.0,156.0,297.5,165.0,285.5,168.0" stroke="black" stroke-width="2" fill="none" />
<polyline points="278.0,166.0,261.5,167.5,245.5,169.0,229.0,170.0,213.0,170.5,196.0,171.0,180.0,171.5" stroke="black" stroke-width="2" fill="none" />
<polyline points="186.5,167.5,203.0,152.0,219.0,136.0" stroke="black" stroke-width="2" fill="none" />
<polyline points="233.0,136.5,217.0,153.0,201.5,168.5" stroke="black" stroke-width="2" fill="none" />
<polyline points="211.5,169.5,216.0,168.0,213.0,180.5,212.0,192.5,212.0,204.5,215.5,207.5,208.0,212.0,202.0,215.5,214.0,220.0,214.5,217.5,221.5,202.5,229.0,216.0,233.0,197.5,242.0,194.5,253.5,193.5" stroke="black" stroke-width="2" fill="none" />
<polyline points="267.0,189.5,283.5,189.0,300.0,188.0,315.5,187.0" stroke="black" stroke-width="2" fill="none" />
<polyline points="327.0,186.0,343.5,185.5" stroke="black" stroke-width="2" fill="none" />
<polyline points="360.0,172.0,376.5,171.5" stroke="black" stroke-width="2" fill="none" />
<polyline points="372.5,169.0,385.5,179.5,389.0,191.5" stroke="black" stroke-width="2" fill="none" />
<polyline points="382.5,214.5,395.0,216.0,396.5,226.5,392.0,238.0,396.5,254.5,399.5,248.0" stroke="black" stroke-width="2" fill="none" />
<polyline points="396.0,236.5,387.0,230.5,387.0,218.5" stroke="black" stroke-width="2" fill="none" />
<polyline points="383.0,216.0,384.5,228.0,384.5,240.5,398.0,243.5,416.0,252.5,428.5,252.0,434.5,246.5,441.0,239.0,451.5,240.5,459.5,240.5,471.5,239.0" stroke="black" stroke-width="2" fill="none" />
<polyline points="497.5,247.0,506.5,252.0,495.0,258.0,490.0,268.5,495.0,262.0,476.5,257.5,472.0,245.5,479.5,244.5,483.5,232.5,503.0,213.5,497.0,198.5,491.0,186.5,492.0,174.0,489.0,169.5,490.5,160.5,478.5,151.5,483.5,139.5,494.0,127.5,511.0,115.5,505.5,112.5,507.5,98.5,509.5,82.0,503.5,85.0,491.5,93.5,479.0,98.0,477.5,83.0,461.0,87.0,463.5,82.5,468.0,70.5,471.0,58.5,479.5,46.5,470.5,56.0,458.0,48.5" stroke="black" stroke-width="2" fill="none" />
<polyline points="469.5,42.5,485.5,41.5,502.0,40.0,518.5,39.5" stroke="black" stroke-width="2" fill="none" />
<polyline points="521.5,61.5,505.5,62.0" stroke="black" stroke-width="2" fill="none" />
<polyline points="500.0,64.0,501.5,76.0,497.0,88.0,486.0,100.0" stroke="black" stroke-width="2" fill="none" />
<polyline points="504.0,93.5,521.0,93.5" stroke="black" stroke-width="2" fill="none" />
<polyline points="520.5,108.0,505.5,108.0" stroke="black" stroke-width="2" fill="none" />
<polyline points="507.0,78.5,523.0,78.0" stroke="black" stroke-width="2" fill="none" />
<polyline points="517.0,22.5,501.0,22.0,485.5,22.0,470.5,22.0,454.5,23.0" stroke="black" stroke-width="2" fill="none" />
<polyline points="458.0,12.5,443.0,8.5,436.0,8.5,434.5,11.5,422.5,19.0,414.5,27.0,402.5,31.5,390.5,34.5,378.5,39.0,366.5,43.5,354.5,46.5,342.5,49.5,338.0,55.5,326.5,60.0,318.5,73.5,312.5,84.0,302.0,94.5,311.0,88.5,314.0,75.0,318.5,67.5,315.5,55.0,322.0,43.0,333.0,30.5,354.0,18.5" stroke="black" stroke-width="2" fill="none" />
<polyline points="355.0,21.5,357.0,33.5,358.5,45.5,334.5,51.0" stroke="black" stroke-width="2" fill="none" />
<polyline points="338.5,53.0,317.5,56.0,330.0,51.5,342.0,42.5" stroke="black" stroke-width="2" fill="none" />
<polyline points="353.0,49.0,344.0,61.0,327.5,73.0,329.0,85.5,326.0,97.0" stroke="black" stroke-width="2" fill="none" />
<polyline points="318.5,101.0,305.0,95.0,293.5,107.0,285.5,104.0,287.5,91.5,289.0,79.5,298.0,74.0,295.0,61.5,295.0,51.0,291.5,39.5,288.5,28.0,281.0,25.0,301.0,13.0,319.0,12.0,318.0,4.5,306.0,10.5,294.0,14.5,282.0,25.0" stroke="black" stroke-width="2" fill="none" />
<polyline points="272.0,25.5,284.0,48.0,296.0,64.5,308.0,58.0,320.5,38.5" stroke="black" stroke-width="2" fill="none" />
<polyline points="298.0,46.0,299.5,34.0,302.0,21.5,295.0,17.0" stroke="black" stroke-width="2" fill="none" />
<polyline points="291.5,2.5,279.0,6.0,268.5,7.5,256.5,31.5" stroke="black" stroke-width="2" fill="none" />
<polyline points="264.5,24.5,271.0,6.5,263.5,18.5,259.0,30.5,260.0,43.0,257.0,55.0,240.0,62.5,242.0,74.0,246.5,74.0,260.0,91.5,260.0,103.5,266.0,115.5,249.5,117.5,258.5,129.5,270.0,140.0,270.0,152.0,259.5,162.0,274.5,160.5,285.0,155.0,295.5,153.0,309.0,148.5" stroke="black" stroke-width="2" fill="none" />
<polyline points="315.0,136.5,331.5,135.5,347.5,135.5,363.0,135.0" stroke="black" stroke-width="2" fill="none" />
<polyline points="359.5,124.5,344.0,125.0" stroke="black" stroke-width="2" fill="none" />
<polyline points="353.5,129.0,365.5,129.5" stroke="black" stroke-width="2" fill="none" />
<polyline points="378.5,125.5,394.5,124.5" stroke="black" stroke-width="2" fill="none" />
<polyline points="402.5,122.0,419.0,122.0,435.5,121.5,453.0,120.0" stroke="black" stroke-width="2" fill="none" />
<polyline points="449.5,118.0,452.0,130.0,465.5,136.0,469.0,146.5,481.0,155.5,486.0,151.0,487.5,143.5,490.5,132.0,502.0,124.5,503.5,118.0,509.5,112.5" stroke="black" stroke-width="2" fill="none" />
<polyline points="501.0,98.0,492.5,123.0,480.0,136.0" stroke="black" stroke-width="2" fill="none" />
<polyline points="459.5,125.0,471.5,113.0,483.5,103.0,495.5,94.0,503.0,95.5,499.0,107.5,497.5,120.0,486.0,132.0,483.0,144.0,489.0,154.0,501.5,151.0,511.5,129.0,511.5,141.0,493.0,161.0,505.0,161.0" stroke="black" stroke-width="2" fill="none" />
<polyline points="457.5,121.5,469.5,108.0" stroke="black" stroke-width="2" fill="none" />
<polyline points="439.5,119.0,423.0,135.5" stroke="black" stroke-width="2" fill="none" />
<polyline points="438.5,137.5,422.5,137.5,407.0,137.5" stroke="black" stroke-width="2" fill="none" />
<polyline points="406.5,136.0,397.5,148.0,403.5,152.0,417.0,144.5,428.5,138.0" stroke="black" stroke-width="2" fill="none" />
<polyline points="419.0,153.5,403.0,153.5,387.5,154.5" stroke="black" stroke-width="2" fill="none" />
<polyline points="379.5,107.0,396.0,106.0" stroke="black" stroke-width="2" fill="none" />
<polyline points="404.5,104.5,420.0,104.0,435.5,103.5,451.5,103.0" stroke="black" stroke-width="2" fill="none" />
<polyline points="453.0,88.5,435.5,89.0,419.0,90.0,402.5,90.0" stroke="black" stroke-width="2" fill="none" />
<polyline points="395.5,88.5,411.5,73.0" stroke="black" stroke-width="2" fill="none" />
<polyline points="421.0,73.0,437.0,72.5,453.5,72.0" stroke="black" stroke-width="2" fill="none" />
<polyline points="420.5,61.0,436.5,60.0,454.0,59.0,471.0,57.5,487.5,55.5" stroke="black" stroke-width="2" fill="none" />
<polyline points="518.5,8.0,503.5,8.5,487.5,8.5,472.0,8.5,455.5,9.5,439.0,9.0" stroke="black" stroke-width="2" fill="none" />
<polyline points="452.0,4.5,449.0,24.0,447.0,35.5,447.0,44.5,447.0,58.0,450.0,70.0,449.5,82.0,449.5,103.0,452.5,115.5,443.5,124.5,431.5,136.5,412.0,144.0,424.0,138.0" stroke="black" stroke-width="2" fill="none" />
<polyline points="431.0,106.5,443.0,94.5" stroke="black" stroke-width="2" fill="none" />
<polyline points="409.0,104.5,411.5,100.0,425.0,99.5,419.0,111.5,419.0,123.5" stroke="black" stroke-width="2" fill="none" />
<polyline points="405.5,78.0,390.0,78.5" stroke="black" stroke-width="2" fill="none" />
<polyline points="394.0,72.5,410.0,57.0" stroke="black" stroke-width="2" fill="none" />
<polyline points="410.0,60.5,394.0,61.0,378.5,61.5,362.5,60.5" stroke="black" stroke-width="2" fill="none" />
<polyline points="358.5,67.0,361.5,79.0,351.0,91.0,348.0,103.5,360.0,118.5,379.5,112.5" stroke="black" stroke-width="2" fill="none" />
<polyline points="365.0,110.0,377.0,103.5,383.0,108.0,384.5,119.5,383.0,131.0,375.5,135.5,382.5,130.5,395.5,133.5,404.5,135.5,416.0,131.0" stroke="black" stroke-width="2" fill="none" />
<polyline points="376.5,91.5,360.0,92.5" stroke="black" stroke-width="2" fill="none" />
<polyline points="361.5,91.0,349.0,92.5" stroke="black" stroke-width="2" fill="none" />
<polyline points="360.5,77.5,376.0,77.0" stroke="black" stroke-width="2" fill="none" />
<polyline points="355.5,70.0,354.0,82.0,347.0,73.0,356.0,64.5" stroke="black" stroke-width="2" fill="none" />
<polyline points="331.0,71.0,315.0,72.0" stroke="black" stroke-width="2" fill="none" />
<polyline points="317.0,88.5,317.0,100.0" stroke="black" stroke-width="2" fill="none" />
<polyline points="331.5,114.0,343.5,109.5,345.0,126.5,337.0,138.5" stroke="black" stroke-width="2" fill="none" />
<polyline points="333.0,135.0,325.5,130.0,333.5,122.5,336.5,110.5" stroke="black" stroke-width="2" fill="none" />
<polyline points="343.5,89.5,327.0,89.5,310.0,90.0,293.5,90.0" stroke="black" stroke-width="2" fill="none" />
<polyline points="285.5,93.5,297.5,82.0" stroke="black" stroke-width="2" fill="none" />
<polyline points="285.5,84.5,300.5,84.5,299.0,97.0" stroke="black" stroke-width="2" fill="none" />
<polyline points="280.0,108.0,264.5,108.5" stroke="black" stroke-width="2" fill="none" />
<polyline points="265.0,96.0,281.0,95.0" stroke="black" stroke-width="2" fill="none" />
<polyline points="279.0,112.0,271.0,126.0,258.5,120.5,239.0,117.5,236.0,122.0,231.0,125.0,219.0,128.0,211.5,120.5,195.5,125.0,191.0,121.5,179.0,118.5" stroke="black" stroke-width="2" fill="none" />
<polyline points="174.0,110.0,186.0,108.5,198.0,108.5" stroke="black" stroke-width="2" fill="none" />
<polyline points="211.0,112.5,222.5,117.0,236.0,106.5,243.0,118.5,246.0,129.5,249.0,140.0,233.5,152.0,234.0,164.0,244.5,176.0,243.0,188.0,243.0,198.5,238.5,203.5,232.5,215.0,240.5,224.0,240.5,236.0,239.0,239.0,227.0,257.5,220.5,269.0,187.5,276.5,176.5,279.5,167.0,291.5,161.5,303.5,152.5,317.0,155.5,329.0,168.0,332.0,174.0,336.5,178.5,336.0,191.0,332.5,212.0,334.0,228.0,334.5,240.0,336.0,244.5,330.0,243.0,334.5,264.5,339.5,274.0,335.0" stroke="black" stroke-width="2" fill="none" />
<polyline points="258.5,248.0,246.5,251.0,234.0,249.5,222.5,249.5,225.5,237.5,218.0,233.0,216.5,216.5,221.0,206.0,227.0,201.0,224.0,193.5,220.5,190.0,216.0,182.5" stroke="black" stroke-width="2" fill="none" />
<polyline points="214.0,176.0,215.5,183.5,208.5,185.0,209.0,197.0,204.5,207.5,212.5,210.5,224.5,192.5,238.0,176.0,249.5,189.5" stroke="black" stroke-width="2" fill="none" />
<polyline points="248.0,218.0,232.5,233.0" stroke="black" stroke-width="2" fill="none" />
<polyline points="239.0,238.5,235.5,229.5,223.5,229.5,209.0,235.5" stroke="black" stroke-width="2" fill="none" />
<polyline points="200.5,257.0,188.5,255.5" stroke="black" stroke-width="2" fill="none" />
<polyline points="186.0,250.5,198.5,252.0,204.5,246.0,216.5,247.5" stroke="black" stroke-width="2" fill="none" />
<polyline points="185.5,241.0,197.5,241.0,209.5,241.0,218.5,241.5,220.0,253.5,227.5,268.5,219.0,274.5,228.5,285.5,236.0,287.0,231.5,297.5,236.0,314.0,235.0,326.0,248.5,323.0,251.5,335.0" stroke="black" stroke-width="2" fill="none" />
<polyline points="199.0,295.5,187.0,305.0,183.0,299.0,170.5,302.0" stroke="black" stroke-width="2" fill="none" />
<polyline points="178.5,318.5,171.5,330.5" stroke="black" stroke-width="2" fill="none" />
<polyline points="195.5,325.0,183.5,324.0,179.5,319.5,168.0,318.0,149.0,295.5,137.0,289.5,135.5,292.5" stroke="black" stroke-width="2" fill="none" />
<polyline points="110.5,295.5,119.5,307.5,128.5,320.5" stroke="black" stroke-width="2" fill="none" />
<polyline points="128.0,338.5,126.0,334.0,120.0,322.0,135.5,310.0,142.0,298.5,143.5,284.5,130.0,281.5,127.0,269.5,120.5,254.0,127.0,245.0,125.0,233.0,128.0,231.5,137.5,219.5,145.0,201.5,154.0,191.0,149.0,179.0,152.0,167.0,153.0,155.0,154.0,143.0,151.0,126.5,138.0,114.5,133.5,102.5,120.5,84.5,127.0,73.0,126.0,61.5,144.0,52.5,139.5,50.5,139.5,38.5,142.5,26.5,135.0,39.0" stroke="black" stroke-width="2" fill="none" />
<polyline points="142.0,29.5,143.5,41.0,128.0,53.0,145.5,65.0,129.0,77.5,130.5,89.5,143.0,92.5,155.0,86.5,167.0,80.5,179.5,87.5" stroke="black" stroke-width="2" fill="none" />
<polyline points="179.5,84.5,168.0,77.0" stroke="black" stroke-width="2" fill="none" />
<polyline points="167.5,85.0,167.5,97.0,168.5,115.0,179.0,127.0,179.0,139.0,171.5,138.5,167.0,147.5,171.0,154.5,168.5,160.5,171.5,172.5,177.5,192.0" stroke="black" stroke-width="2" fill="none" />
<polyline points="155.5,200.5,160.0,213.0" stroke="black" stroke-width="2" fill="none" />
<polyline points="152.5,202.0,137.0,201.5,121.5,201.5,106.0,202.5,91.0,203.0,75.0,204.0,59.0,205.0,43.0,205.5" stroke="black" stroke-width="2" fill="none" />
<polyline points="52.0,201.5,68.0,185.5" stroke="black" stroke-width="2" fill="none" />
<polyline points="80.5,178.5,80.5,184.5,84.5,186.0,84.5,199.0,75.5,211.0,71.0,218.5,67.5,227.5,72.0,230.0,81.0,240.0,80.5,244.0,86.5,251.5,98.5,251.5,112.0,256.0,130.0,267.0,142.0,276.0,154.0,304.5,166.5,286.5,171.5,276.5,180.5,272.0,183.5,267.5,195.5,267.5,208.0,267.5,220.0,266.0,236.5,278.0,254.0,278.5,266.0,277.0,279.0,268.0" stroke="black" stroke-width="2" fill="none" />
<polyline points="247.5,240.0,258.0,228.0" stroke="black" stroke-width="2" fill="none" />
<polyline points="288.5,195.5,290.0,184.0,300.5,178.0,300.5,164.5,306.0,164.5,314.5,145.0,314.5,133.0,308.5,131.5,302.5,124.0" stroke="black" stroke-width="2" fill="none" />
<polyline points="300.0,120.0,311.5,118.5,313.5,123.0,300.0,122.5,300.0,134.0,300.0,146.0,288.5,158.0,285.5,171.5,285.0,183.5,292.5,189.0,286.0,199.5,295.0,195.0,306.0,196.5,321.0,193.5,328.5,177.0,342.0,172.5,357.0,166.5,369.0,159.0,379.5,160.5,380.5,179.0,373.0,189.5,385.0,177.5,405.0,192.0,412.5,192.0,426.5,196.5,438.5,208.5,431.0,220.5,428.0,220.5,423.5,231.5,419.5,232.0,430.5,232.0,434.5,247.0,432.5,258.5,420.5,269.0,432.5,267.5,440.0,270.5,461.0,272.0,480.5,267.5,492.5,263.0,505.0,260.0" stroke="black" stroke-width="2" fill="none" />
<polyline points="506.5,214.5,495.0,209.5,481.0,208.0,481.0,208.0,482.5,196.5,477.5,195.0,479.0,183.5,483.5,173.0,473.0,167.0,465.0,154.5,465.0,142.5,457.5,124.5,466.5,112.5,482.0,100.5,477.5,88.5,470.5,72.0,466.5,85.5,471.5,73.0,466.0,58.0,460.0,74.5,452.5,78.5,438.5,92.0,425.0,95.0,413.0,94.5,409.5,105.0,402.0,94.5,403.5,82.5,398.5,70.5,397.0,59.0,399.5,47.0,390.5,51.0,379.0,57.0,379.0,43.5,379.0,27.0,379.5,23.0,373.0,9.5,382.0,5.0,370.5,13.0,358.5,10.5,346.5,6.5" stroke="black" stroke-width="2" fill="none" />
<polyline points="347.0,6.0,362.0,18.0,333.0,26.5,331.5,32.5,343.0,25.0,355.0,28.0,373.0,44.0,383.0,41.0,395.0,37.0,408.5,37.0" stroke="black" stroke-width="2" fill="none" />
<polyline points="429.5,23.0,441.5,25.5,441.0,28.5,442.5,42.0" stroke="black" stroke-width="2" fill="none" />
<polyline points="424.5,2.0,430.5,14.0,423.0,29.0,424.5,41.0,427.5,53.5,440.0,73.5,443.0,87.0,444.5,93.5,434.5,105.5,427.0,119.0,424.0,131.0,412.0,144.5,410.5,162.0,413.5,173.5,415.0,185.0,422.5,200.0,440.0,211.5,443.0,223.0,435.5,234.5,429.5,246.5,411.5,254.0,420.5,242.0,423.5,243.5,435.5,233.0,438.0,227.5" stroke="black" stroke-width="2" fill="none" />
<polyline points="448.5,286.0,453.0,298.0,454.5,310.5,448.5,318.0,461.0,321.0" stroke="black" stroke-width="2" fill="none" />
<polyline points="413.0,337.5,398.0,339.0,386.0,339.0,365.0,340.5,359.0,325.5,360.5,313.5,380.0,300.0,375.0,292.5,369.0,285.0,369.0,273.5" stroke="black" stroke-width="2" fill="none" />
<polyline points="368.5,272.5,341.5,282.5,328.0,295.0,329.5,313.0,313.0,326.5,307.0,329.5,307.0,338.5,317.0,323.0" stroke="black" stroke-width="2" fill="none" />
<polyline points="365.5,235.0,353.5,227.5,343.0,246.0,331.0,246.0,337.5,228.0,337.5,216.0,325.5,193.5,321.5,194.0,328.5,182.5,337.5,178.0,333.0,166.0,321.0,169.5" stroke="black" stroke-width="2" fill="none" />
<polyline points="324.0,170.0,318.0,170.0,318.5,181.5,318.0,194.0,330.0,196.0,331.5,187.0" stroke="black" stroke-width="2" fill="none" />
<polyline points="345.0,169.5,328.5,169.5,312.0,170.0,296.0,170.0" stroke="black" stroke-width="2" fill="none" />
<polyline points="289.5,176.5,299.5,181.0,301.0,193.5" stroke="black" stroke-width="2" fill="none" />
<polyline points="285.5,187.5,285.0,199.5" stroke="black" stroke-width="2" fill="none" />
<polyline points="307.0,178.0,314.5,167.5,307.0,180.0,310.0,186.5,317.0,203.0,320.0,222.5,333.5,203.5,342.5,187.5,334.0,184.5,346.0,185.5,355.5,167.5,360.0,173.5,365.5,176.5,360.0,188.5,365.0,190.0,367.0,204.5,354.0,218.5,364.5,223.0,360.0,227.5" stroke="black" stroke-width="2" fill="none" />
<polyline points="377.5,230.0,377.5,218.0" stroke="black" stroke-width="2" fill="none" />
<polyline points="307.0,145.0,305.5,133.5" stroke="black" stroke-width="2" fill="none" />
<polyline points="283.0,151.5,267.5,167.0" stroke="black" stroke-width="2" fill="none" />
<polyline points="276.0,153.5,260.5,153.0,245.5,152.5,230.0,152.5,215.5,152.5,201.5,152.5,187.0,152.5,172.0,153.0" stroke="black" stroke-width="2" fill="none" />
<polyline points="168.5,147.5,164.0,149.5" stroke="black" stroke-width="2" fill="none" />
<polyline points="159.5,145.0,171.5,134.5,183.0,134.5,187.5,136.5,185.5,150.5,180.5,162.5,175.5,164.5,178.5,179.5,197.5,175.0,206.5,169.0,199.0,181.0,196.0,193.5,193.0,205.5,196.5,217.5,186.5,232.5,187.0,238.0,182.5,251.5,185.5,263.5,189.0,263.5,175.5,268.5,180.0,261.0,181.5,245.5,183.0,241.0,187.5,227.5,195.5,230.0,202.5,225.0" stroke="black" stroke-width="2" fill="none" />
<polyline points="229.0,181.5,217.0,171.0" stroke="black" stroke-width="2" fill="none" />
<polyline points="201.5,128.0,217.5,127.0,234.0,126.0,250.0,123.5,265.5,122.0" stroke="black" stroke-width="2" fill="none" />
<polyline points="265.5,150.0,259.5,151.5,253.5,160.0,258.0,170.5,264.5,179.5" stroke="black" stroke-width="2" fill="none" />
<polyline points="293.5,134.0,278.5,134.0,263.0,134.5,247.0,134.5,231.0,135.0,215.0,135.5,199.5,135.5,183.5,135.5" stroke="black" stroke-width="2" fill="none" />
<polyline points="198.5,138.0,192.5,136.5,189.0,134.0,176.5,128.5,172.0,120.0,158.5,103.5,147.0,96.5" stroke="black" stroke-width="2" fill="none" />
<polyline points="147.5,92.0,132.0,93.0,116.0,93.5,100.5,93.5,84.5,93.5" stroke="black" stroke-width="2" fill="none" />
<polyline points="90.0,95.5,102.0,89.5,114.0,85.5,106.5,100.5,102.5,113.0,101.5,125.0,98.5,137.0,97.0,148.5,89.5,160.5,86.5,166.0,76.5,170.5,78.0,179.5,64.0,190.0,70.0,197.5,71.0,205.0,59.0,218.5,55.5,230.5,45.5,244.0,42.5,247.0,50.0,247.0,52.5,249.0,59.0,249.0,59.0,239.5,66.5,236.5,68.0,247.0,80.0,253.0,92.5,241.0,104.5,243.0,108.0,225.0,124.0,219.0,128.5,221.5,137.5,211.5,143.5,188.5,149.5,190.0,150.0,194.0,148.5,205.5,145.0,217.5,148.0,232.0,134.5,236.5,132.0,250.0,138.0,257.5,139.5,250.0,151.0,246.0,162.5,246.5,163.0,251.5,167.5,259.0,162.5,277.0,165.0,269.5" stroke="black" stroke-width="2" fill="none" />
<polyline points="160.0,269.5,147.5,266.5" stroke="black" stroke-width="2" fill="none" />
<polyline points="132.5,247.0,144.5,244.0,156.0,242.5,167.5,245.5,170.0,239.0" stroke="black" stroke-width="2" fill="none" />
<polyline points="184.5,221.5,167.0,227.5,155.0,229.0,142.5,236.5,135.0,236.5,120.0,244.0,107.5,257.5,95.0,257.0,82.5,257.5,70.5,257.5,59.0,260.5,42.5,251.5,30.5,235.0" stroke="black" stroke-width="2" fill="none" />
<polyline points="37.5,231.5,52.5,215.0,67.0,198.5,83.0,183.0" stroke="black" stroke-width="2" fill="none" />
<polyline points="87.5,194.5,71.0,211.0" stroke="black" stroke-width="2" fill="none" />
<polyline points="64.5,217.5,76.5,225.5,88.5,219.5,100.5,212.0" stroke="black" stroke-width="2" fill="none" />
<polyline points="81.5,203.0,81.5,215.0,73.0,234.5,67.5,246.0,57.5,247.5,52.0,259.0,55.0,278.5,52.0,277.0,64.0,269.5" stroke="black" stroke-width="2" fill="none" />
<polyline points="62.5,276.0,50.5,283.5,35.5,281.5,24.0,272.0,12.0,261.0,1.5,247.5" stroke="black" stroke-width="2" fill="none" />
<polyline points="1.5,242.0,8.0,251.0,12.5,263.0,21.5,275.0,20.0,282.0,30.0,284.0" stroke="black" stroke-width="2" fill="none" />
<polyline points="22.5,305.0,34.0,314.0" stroke="black" stroke-width="2" fill="none" />
<polyline points="47.0,322.5,59.0,333.0" stroke="black" stroke-width="2" fill="none" />
<polyline points="59.5,326.5,54.0,314.5" stroke="black" stroke-width="2" fill="none" />
<polyline points="43.5,298.0,31.5,298.0,19.5,299.0,7.5,306.5" stroke="black" stroke-width="2" fill="none" />
<polyline points="6.5,315.0,18.5,302.0,31.0,299.0,41.5,299.5,41.5,304.0" stroke="black" stroke-width="2" fill="none" />
<polyline points="59.5,285.0,72.0,278.5,84.0,286.0,96.5,298.0,108.5,305.5,124.0,323.5" stroke="black" stroke-width="2" fill="none" />
<polyline points="144.5,330.0,146.0,318.0,141.5,313.5,155.0,309.0,151.5,297.5,155.0,281.0,156.5,269.0,143.5,256.0,131.0,256.0,123.5,248.5,122.0,251.5,114.0,241.0,114.5,227.5,127.5,221.5,130.5,212.5,127.5,200.5,138.0,188.5,143.0,176.5,149.0,170.5,143.5,155.5,131.5,153.5,120.0,150.5,107.5,152.0" stroke="black" stroke-width="2" fill="none" />
<polyline points="105.5,149.5,117.0,146.5" stroke="black" stroke-width="2" fill="none" />
<polyline points="104.5,140.0,120.0,139.0,135.0,138.0,150.0,138.0" stroke="black" stroke-width="2" fill="none" />
<polyline points="153.5,135.5,137.5,151.5" stroke="black" stroke-width="2" fill="none" />
<polyline points="137.5,148.0,153.0,147.5" stroke="black" stroke-width="2" fill="none" />
<polyline points="153.0,156.0,136.5,156.5,120.5,156.5,104.5,157.0" stroke="black" stroke-width="2" fill="none" />
<polyline points="117.0,164.0,101.0,179.5" stroke="black" stroke-width="2" fill="none" />
<polyline points="90.0,171.0,105.5,171.0,120.0,171.0,135.5,171.5" stroke="black" stroke-width="2" fill="none" />
<polyline points="138.5,169.5,126.5,175.5,122.0,192.0,116.5,199.5,104.5,202.5,106.5,208.5,108.0,196.5,117.0,192.0,119.0,180.0,132.5,168.0,120.0,171.0" stroke="black" stroke-width="2" fill="none" />
<polyline points="127.5,173.5,123.5,185.5,120.5,197.0,113.5,200.0,118.0,209.0,137.5,191.5" stroke="black" stroke-width="2" fill="none" />
<polyline points="136.5,188.5,120.5,189.5,105.0,189.5,89.0,189.0,73.0,189.0,57.0,189.5,41.5,189.5" stroke="black" stroke-width="2" fill="none" />
<polyline points="37.5,194.0,27.0,203.0,39.0,191.0,37.5,179.0,40.5,167.0,43.5,155.0,45.0,171.5,48.0,165.5,50.0,153.5,53.0,141.5,56.0,129.5,62.0,117.5,57.5,116.0,54.5,111.5,53.0,128.0" stroke="black" stroke-width="2" fill="none" />
<polyline points="57.0,143.0,73.0,142.0,88.0,140.5" stroke="black" stroke-width="2" fill="none" />
<polyline points="86.5,141.5,82.0,137.0,75.0,137.0" stroke="black" stroke-width="2" fill="none" />
<polyline points="70.5,126.0,86.5,124.5,103.5,123.0" stroke="black" stroke-width="2" fill="none" />
<polyline points="95.0,113.5,87.5,125.5,93.5,127.0,83.0,128.5,79.5,140.5,76.5,141.0,81.0,147.0,74.5,162.5,70.0,175.0,70.0,182.5,76.5,177.0,88.0,172.5,95.5,177.0,98.0,167.0,110.0,167.0,121.5,164.0" stroke="black" stroke-width="2" fill="none" />
<polyline points="113.5,187.5,102.0,187.5,92.5,183.0,86.0,197.0,83.0,215.0,71.0,216.5,59.0,217.0" stroke="black" stroke-width="2" fill="none" />
<polyline points="42.5,218.5,54.5,202.0,48.0,214.5,30.0,232.5,37.0,238.5,41.5,250.5,49.5,263.0,54.5,269.5,50.0,281.5,53.0,294.0,36.5,306.0,29.0,316.5,41.0,324.0,52.5,318.0,64.0,307.5,63.5,313.5,71.0,322.0,76.5,313.0,81.0,313.0,93.0,320.5,105.0,329.5,117.0,337.0,129.5,339.0" stroke="black" stroke-width="2" fill="none" />
<polyline points="108.5,317.0,96.5,312.5" stroke="black" stroke-width="2" fill="none" />
<polyline points="98.5,325.5,82.0,313.0" stroke="black" stroke-width="2" fill="none" />
<polyline points="105.5,324.0,87.5,311.5,74.0,296.5,74.0,284.0" stroke="black" stroke-width="2" fill="none" />
<polyline points="74.5,281.5,86.5,295.0,99.0,304.0,111.5,310.0" stroke="black" stroke-width="2" fill="none" />
<polyline points="108.0,321.5,107.0,309.5,89.0,298.0,85.0,296.5,77.5,284.5" stroke="black" stroke-width="2" fill="none" />
<polyline points="77.5,280.5,88.0,292.5,104.5,304.5,123.0,315.0,117.0,321.0,112.5,322.5,117.0,332.5" stroke="black" stroke-width="2" fill="none" />
<polyline points="70.5,324.5,63.0,327.5,60.5,315.5,77.0,311.0,67.0,298.5,71.5,291.0,73.5,279.0" stroke="black" stroke-width="2" fill="none" />
<polyline points="61.0,236.5,49.0,239.5,37.0,239.5" stroke="black" stroke-width="2" fill="none" />
<polyline points="14.0,246.5,26.0,247.0,39.0,260.5,36.0,271.0,48.0,274.5,63.0,264.0,75.0,267.0,87.0,266.5,99.5,268.0,111.5,267.5,123.5,266.0,135.5,263.0,147.5,260.5,159.5,264.5" stroke="black" stroke-width="2" fill="none" />
<polyline points="166.5,216.5,154.0,225.0,152.5,213.5,152.0,201.0" stroke="black" stroke-width="2" fill="none" />
<polyline points="142.0,192.5,137.5,198.5" stroke="black" stroke-width="2" fill="none" />
<polyline points="143.0,139.0,143.0,136.0" stroke="black" stroke-width="2" fill="none" />
<polyline points="132.5,125.0,120.5,129.0" stroke="black" stroke-width="2" fill="none" />
<polyline points="120.5,123.0,136.5,122.0,152.5,121.0,169.0,120.5" stroke="black" stroke-width="2" fill="none" />
<polyline points="169.0,107.5,153.0,108.0,136.5,108.5" stroke="black" stroke-width="2" fill="none" />
<polyline points="137.5,102.0,145.0,114.5" stroke="black" stroke-width="2" fill="none" />
<polyline points="154.0,121.5,150.5,117.5,140.0,120.5,132.5,108.5,125.0,96.5,104.0,102.5,92.5,113.0" stroke="black" stroke-width="2" fill="none" />
<polyline points="107.5,106.0,91.5,106.5,75.5,106.5" stroke="black" stroke-width="2" fill="none" />
<polyline points="68.5,103.5,80.5,99.0,77.5,99.0,64.0,112.5,75.5,112.5,74.0,105.0,86.0,99.0,80.0,111.0,90.5,112.5,102.5,97.5,120.5,93.0,132.5,99.0,144.5,105.5,156.0,111.5,169.5,105.5,181.5,99.5,194.0,95.0,206.0,93.5,218.0,87.5,230.5,84.0,243.0,79.0,255.0,76.5,266.5,72.0,278.5,68.5,290.5,65.5" stroke="black" stroke-width="2" fill="none" />
<polyline points="287.0,53.5,275.0,52.5,263.0,57.0,266.0,76.5,262.0,67.5,263.5,59.0,260.5,57.5" stroke="black" stroke-width="2" fill="none" />
<polyline points="270.5,51.0,258.5,55.5,244.5,64.5,227.0,67.5,231.5,56.5,239.0,44.5,235.0,35.0,230.5,29.0,234.0,17.0,214.5,15.5,202.5,9.5,190.5,3.5" stroke="black" stroke-width="2" fill="none" />
<polyline points="188.0,1.0,199.0,13.5,206.5,26.0,217.0,38.0,214.0,48.0,209.0,60.0,218.5,49.5,230.5,36.0" stroke="black" stroke-width="2" fill="none" />
<polyline points="217.5,60.5,221.5,48.5,231.0,56.0,218.5,65.0,229.0,62.0,232.0,48.0,241.0,36.0,236.5,24.0,218.5,15.0,236.5,3.0,221.5,7.0,209.5,3.0" stroke="black" stroke-width="2" fill="none" />
<polyline points="210.0,0.5,215.0,12.5,221.0,32.0" stroke="black" stroke-width="2" fill="none" />
<polyline points="227.5,8.5,217.0,18.0,204.5,19.5,192.5,9.0" stroke="black" stroke-width="2" fill="none" />
<polyline points="193.5,0.5,205.5,12.5,213.0,26.5,213.5,31.5,225.5,37.5" stroke="black" stroke-width="2" fill="none" />
<polyline points="223.5,42.5,212.0,54.5,200.5,56.5,199.0,56.5,194.5,56.5" stroke="black" stroke-width="2" fill="none" />
<polyline points="191.0,63.0,191.0,54.0,179.0,61.5" stroke="black" stroke-width="2" fill="none" />
<polyline points="174.5,63.5,158.5,76.5,146.5,86.5,145.5,80.5,144.0,68.5" stroke="black" stroke-width="2" fill="none" />
<polyline points="137.5,58.0,153.0,58.0" stroke="black" stroke-width="2" fill="none" />
<polyline points="152.5,72.0,136.5,72.5,120.5,72.5" stroke="black" stroke-width="2" fill="none" />
<polyline points="118.0,65.0,114.0,77.0,112.5,91.5,97.5,103.0,75.0,106.0,65.5,120.5,62.0,132.5,58.5,144.0,55.5,156.0,52.5,167.5,58.0,164.5" stroke="black" stroke-width="2" fill="none" />
<polyline points="56.0,170.0,71.5,170.5" stroke="black" stroke-width="2" fill="none" />
<polyline points="54.5,159.5,71.0,158.0,87.5,157.0" stroke="black" stroke-width="2" fill="none" />
<polyline points="83.0,154.0,83.0,157.0,89.0,145.0,90.5,133.0,75.5,133.5,63.5,142.5" stroke="black" stroke-width="2" fill="none" />
<polyline points="63.0,184.0,51.0,192.0" stroke="black" stroke-width="2" fill="none" />
<polyline points="39.5,150.0,30.5,158.0,18.5,152.0" stroke="black" stroke-width="2" fill="none" />
<polyline points="16.0,151.5,28.0,160.5,38.5,163.5,25.0,165.5" stroke="black" stroke-width="2" fill="none" />
<polyline points="17.5,162.5,29.0,173.0" stroke="black" stroke-width="2" fill="none" />
<polyline points="29.0,179.0,18.5,167.0,15.5,155.0,24.5,141.5,24.5,142.0,23.5,139.0,12.0,148.0,4.5,160.5,10.5,148.0,6.5,142.0,7.5,130.0,10.0,116.5,10.0,104.5,16.0,92.5,16.0,88.0,22.0,76.0,28.0,60.5,27.0,48.0,28.0,34.5,23.0,31.5,22.5,19.5,13.5,7.0,7.5,3.0" stroke="black" stroke-width="2" fill="none" />
<polyline points="12.0,6.5,24.5,9.5,36.5,11.5,49.0,17.5" stroke="black" stroke-width="2" fill="none" />
<polyline points="52.0,25.0,36.0,25.0,19.0,24.5,2.0,24.0" stroke="black" stroke-width="2" fill="none" />
<polyline points="6.0,13.5,22.5,13.5" stroke="black" stroke-width="2" fill="none" />
<polyline points="23.0,19.5,35.0,23.5" stroke="black" stroke-width="2" fill="none" />
<polyline points="36.5,13.5,53.0,29.5,65.0,25.0,77.5,18.5,89.5,21.5" stroke="black" stroke-width="2" fill="none" />
<polyline points="93.5,7.0,105.5,16.0,107.5,23.5,106.0,35.0,103.5,39.5,106.5,40.5" stroke="black" stroke-width="2" fill="none" />
<polyline points="124.5,62.0,137.0,54.5" stroke="black" stroke-width="2" fill="none" />
<polyline points="140.5,23.0,152.5,20.0" stroke="black" stroke-width="2" fill="none" />
<polyline points="139.5,18.0,133.0,30.0,128.5,42.0,122.5,54.0,109.0,66.0,97.0,78.0,95.5,93.0,90.0,105.0,81.5,106.0,71.0,112.0,76.0,124.0,69.5,125.5,68.0,131.5,70.0,140.5,67.0,149.5,61.5,151.0,69.0,158.5,67.5,168.0,62.5,174.0,67.0,181.0,61.0,192.0,50.5,192.0,47.5,204.0,40.5,208.5,42.0,222.0,31.5,238.5,33.0,250.0,36.0,262.0,45.0,277.0,57.5,295.0,50.0,307.0,51.5,311.5,45.5,323.5,60.0,337.0,43.0,337.0,51.5,336.0,53.0,340.5,64.5,336.0,73.0,331.5,84.0,331.0,93.0,316.0,105.0,325.0,114.0,327.0,118.5,325.5,134.0,338.0,146.5,332.0,157.0,329.0,157.0,322.5,163.0,321.0" stroke="black" stroke-width="2" fill="none" />
<polyline points="37.5,338.5,41.0,326.5,26.0,314.5,12.5,317.5" stroke="black" stroke-width="2" fill="none" />
<polyline points="13.0,284.0,1.0,276.0" stroke="black" stroke-width="2" fill="none" />
<polyline points="4.5,273.0,13.5,285.0,7.5,297.0,10.0,293.5,16.0,293.5,27.5,290.5" stroke="black" stroke-width="2" fill="none" />
<polyline points="26.5,279.0,14.5,279.0,2.5,271.5" stroke="black" stroke-width="2" fill="none" />
<polyline points="8.0,276.5,20.0,288.5,13.5,300.5,12.0,308.5,16.5,320.5,21.0,332.5,27.0,332.5,27.0,339.5" stroke="black" stroke-width="2" fill="none" />
<polyline points="12.0,244.0,24.0,242.5,37.5,253.0,43.0,265.0,48.5,277.0,41.0,286.0,53.0,289.0,65.0,297.0,64.5,300.0,76.5,304.5,88.0,306.0,95.5,310.5,108.0,315.0,120.0,316.5,132.5,312.0,143.0,307.5,155.0,310.0,167.0,301.0,179.5,295.0,191.5,287.0,203.5,287.0,218.5,288.5,221.5,299.0,235.0,297.5,240.5,305.0" stroke="black" stroke-width="2" fill="none" />
<polyline points="264.0,181.0,253.0,170.5,245.5,159.5,239.5,162.0,241.0,152.0,229.0,152.5,221.5,160.0,209.5,167.5,193.0,159.0,189.0,172.5,179.0,185.5,179.0,182.5,163.0,189.0,151.0,183.0,142.5,162.0,130.0,160.0,118.0,157.0,106.0,155.0,91.0,156.5,78.5,164.0,71.0,159.5,61.5,176.0,49.5,175.5,40.5,195.0,31.5,213.0,35.0,216.5,20.0,218.0,33.5,206.0,43.0,194.0,44.5,181.0,34.0,178.0,32.5,171.0,37.5,159.0,46.5,147.0,49.5,135.0,52.0,122.5,56.5,110.5,64.0,98.5,87.5,86.0,86.0,74.5,86.0,63.0,69.0,46.5,45.0,28.5,33.0,13.5" stroke="black" stroke-width="2" fill="none" />
<polyline points="29.5,9.0,35.0,11.0,40.0,23.0,38.5,33.5,35.5,28.5,50.5,22.5,58.0,12.0,57.0,31.5,54.0,43.0,57.0,55.0,63.5,65.5,56.0,77.5,58.5,83.5,64.5,88.5,68.5,96.0,80.0,90.0,92.0,79.5,94.5,82.5,108.0,71.0,111.5,48.5" stroke="black" stroke-width="2" fill="none" />
<polyline points="80.5,30.5,68.0,26.0" stroke="black" stroke-width="2" fill="none" />
<polyline points="68.0,22.5,60.5,36.0,68.5,57.0,58.0,68.5,54.0,80.5,61.5,64.0,73.5,54.5" stroke="black" stroke-width="2" fill="none" />
<polyline points="62.0,67.0,73.5,59.5,85.5,62.5,99.0,61.5" stroke="black" stroke-width="2" fill="none" />
<polyline points="82.5,34.0,70.0,42.0,58.0,35.0" stroke="black" stroke-width="2" fill="none" />
<polyline points="57.0,29.5,69.0,18.5,63.0,22.5,66.0,31.5,76.5,42.0,81.0,52.5,81.0,64.5,86.0,72.0" stroke="black" stroke-width="2" fill="none" />
<polyline points="76.0,48.5,64.0,40.5,52.0,36.0" stroke="black" stroke-width="2" fill="none" />
<polyline points="48.5,43.5,45.5,55.5,39.0,67.5,27.5,79.5" stroke="black" stroke-width="2" fill="none" />
<polyline points="37.0,74.0,21.5,74.5,6.0,75.5" stroke="black" stroke-width="2" fill="none" />
<polyline points="7.5,84.5,3.5,86.0" stroke="black" stroke-width="2" fill="none" />
<polyline points="3.5,87.5,15.5,92.0,27.5,80.0" stroke="black" stroke-width="2" fill="none" />
<polyline points="16.0,73.5,25.0,66.0,19.0,54.0,14.5,42.0,2.5,37.5" stroke="black" stroke-width="2" fill="none" />
<polyline points="4.0,40.0,10.0,52.0,20.5,64.0,4.5,68.5,6.0,80.5,7.5,92.5,9.0,112.0,7.5,113.0,18.0,120.5,30.0,93.5" stroke="black" stroke-width="2" fill="none" />
<polyline points="33.0,93.5,27.5,105.5,23.0,117.5" stroke="black" stroke-width="2" fill="none" />
<polyline points="16.0,127.5,20.5,115.5,25.0,103.5,35.5,91.5" stroke="black" stroke-width="2" fill="none" />
<polyline points="39.0,53.0,22.5,53.5,6.0,54.5" stroke="black" stroke-width="2" fill="none" />
<polyline points="6.5,44.5,19.0,53.5,31.0,68.5,42.5,45.5,42.5,48.5,33.5,61.0,30.5,64.0,25.0,76.0,37.0,69.5" stroke="black" stroke-width="2" fill="none" />
<polyline points="29.5,58.0,45.0,33.5,51.0,29.0,52.5,16.5,61.5,16.5,78.0,16.5,65.0,10.5,53.0,3.0" stroke="black" stroke-width="2" fill="none" />
<polyline points="86.5,4.5,98.5,7.5,111.0,22.5,112.5,28.5,107.0,40.5,111.5,52.5,105.5,64.0,92.0,71.5,106.0,79.0,115.0,78.5,124.0,84.5,136.0,72.5,140.5,57.5,152.5,53.0,164.0,51.5,180.5,30.5,192.5,32.0" stroke="black" stroke-width="2" fill="none" />
<polyline points="193.0,35.0,199.0,36.5,202.0,36.0" stroke="black" stroke-width="2" fill="none" />
<polyline points="187.5,32.0,179.0,38.0,167.0,56.0,169.0,64.0,176.5,52.0,180.0,40.0" stroke="black" stroke-width="2" fill="none" />
<polyline points="182.5,34.0,190.0,46.0,179.5,58.5,172.0,63.0,178.0,51.0,190.5,45.0,190.5,51.0,201.0,65.5,201.0,70.0,213.0,67.0,225.0,59.5" stroke="black" stroke-width="2" fill="none" />
<polyline points="244.0,84.5,215.5,104.0,209.5,112.5,208.0,124.0,211.0,137.0,205.0,156.5,191.0,168.0,191.0,179.5,189.5,182.0,174.5,186.5,173.0,198.5" stroke="black" stroke-width="2" fill="none" />
<polyline points="198.5,144.5,189.5,152.5,189.5,148.0,180.5,144.0,173.5,165.0,164.5,169.5,165.0,158.0,151.5,147.5,158.5,146.5,166.0,134.5" stroke="black" stroke-width="2" fill="none" />
<polyline points="182.5,104.5,194.5,99.5,207.5,96.5,221.0,90.5,234.5,86.0,246.0,83.0" stroke="black" stroke-width="2" fill="none" />
<polyline points="255.0,110.5,243.0,118.0,231.0,110.5" stroke="black" stroke-width="2" fill="none" />
<polyline points="213.5,114.0,215.0,126.0,207.5,129.5" stroke="black" stroke-width="2" fill="none" />
<polyline points="209.0,91.0,197.0,98.5,179.0,115.0,200.0,117.5,200.5,109.0,211.0,106.0,223.5,100.0,235.5,97.0" stroke="black" stroke-width="2" fill="none" />
<polyline points="281.5,77.5,281.5,89.0,289.0,95.0" stroke="black" stroke-width="2" fill="none" />
<polyline points="301.5,85.5,295.5,81.0,286.5,70.5,277.5,75.0,267.0,88.0,261.0,83.5,270.0,71.5,289.0,59.0,283.0,47.0,277.0,34.5" stroke="black" stroke-width="2" fill="none" />
<polyline points="275.5,40.5,272.0,28.5,266.0,21.0,269.0,9.5" stroke="black" stroke-width="2" fill="none" />
<polyline points="352.0,10.0,356.5,10.5" stroke="black" stroke-width="2" fill="none" />
<polyline points="356.5,24.0,362.0,36.0" stroke="black" stroke-width="2" fill="none" />
<polyline points="466.0,3.0,458.5,15.0,448.0,16.5,437.5,19.0,432.5,31.0,437.0,33.5,440.0,46.0,442.0,58.0,443.5,70.0,442.0,82.0,431.5,101.5,424.0,121.0,432.5,127.0,446.0,118.0" stroke="black" stroke-width="2" fill="none" />
<polyline points="179.0,9.5,177.5,21.5,179.0,33.5,174.5,45.5,166.5,57.5,175.5,63.5,168.0,75.5,163.5,87.0,165.5,99.0,176.0,115.5,188.0,127.0,197.0,130.0,195.5,139.0,194.0,151.0,184.5,158.5,183.0,171.0,172.5,186.0,170.5,198.5,166.0,211.0,173.5,214.0,171.0,220.5,164.5,232.5,172.0,237.0,183.5,243.5,176.0,248.0,169.5,261.5,175.5,273.5,171.0,279.5,165.0,291.5,156.0,303.5,163.5,314.0,154.5,326.0,150.0,334.0,160.5,337.0,174.0,329.5,175.5,324.5,185.0,317.0,197.0,312.0,209.0,305.5,213.0,301.0,216.0,308.0" stroke="black" stroke-width="2" fill="none" />
<polyline points="103.0,140.0,101.5,148.0,104.5,136.0" stroke="black" stroke-width="2" fill="none" />
<polyline points="127.5,125.5,124.5,138.0,123.0,150.0,99.0,160.5,106.5,165.0,106.5,175.5,104.5,184.5,104.0,196.5,99.0,195.0,88.0,204.0,95.5,216.0,103.0,222.0,101.5,234.0,107.5,242.5,101.5,247.5,112.5,242.5,124.0,236.5,145.0,223.0,153.0,202.0,160.5,211.0" stroke="black" stroke-width="2" fill="none" />
<polyline points="3.5,240.5,6.5,252.5,9.0,264.5,16.5,277.0,33.0,278.5,27.0,285.0,22.5,295.5,5.5,304.5,8.5,316.5,2.5,336.0" stroke="black" stroke-width="2" fill="none" />
<polyline points="14.5,70.5,2.5,65.5" stroke="black" stroke-width="2" fill="none" />
<polyline points="13.5,46.0,25.5,43.0,28.5,41.5,40.5,37.5,52.5,27.0,63.0,4.5,75.5,7.0,75.5,13.0" stroke="black" stroke-width="2" fill="none" />
<polyline points="88.0,4.5,101.5,16.5,89.5,25.5,89.5,30.0,101.5,23.0,109.0,26.0,121.0,29.0" stroke="black" stroke-width="2" fill="none" />
<polyline points="21.5,37.5,5.5,38.0" stroke="black" stroke-width="2" fill="none" />
</svg>