<svg xmlns="http://www.w3.org/2000/svg" version="1.1"><polyline points="11.5,3.0,22.0,19.0,35.5,13.0,23.0,20.5,27.0,28.5,29.0,40.0,19.0,56.0,21.5,71.5,13.5,87.5" stroke="black" stroke-width="2" fill="none" />
<polyline points="19.0,79.0,27.0,78.0" stroke="black" stroke-width="2" fill="none" />
<polyline points="12.5,78.5,4.5,79.5" stroke="black" stroke-width="2" fill="none" />
<polyline points="3.0,87.5,11.5,86.5" stroke="black" stroke-width="2" fill="none" />
<polyline points="6.0,71.0,14.0,70.0,21.5,69.5,29.0,68.5,36.5,68.0" stroke="black" stroke-width="2" fill="none" />
<polyline points="45.5,59.5,37.5,60.5,29.5,61.0,21.5,61.0" stroke="black" stroke-width="2" fill="none" />
<polyline points="13.5,62.0,5.5,62.5" stroke="black" stroke-width="2" fill="none" />
<polyline points="1.5,66.5,18.0,66.5" stroke="black" stroke-width="2" fill="none" />
<polyline points="20.5,54.0,12.5,54.5,4.5,54.5" stroke="black" stroke-width="2" fill="none" />
<polyline points="4.5,47.0,12.0,46.5,20.0,45.5,28.0,45.0" stroke="black" stroke-width="2" fill="none" />
<polyline points="35.0,36.5,26.5,36.0,18.5,36.5,10.5,37.0,3.0,37.5" stroke="black" stroke-width="2" fill="none" />
<polyline points="4.0,39.5,20.0,39.5,26.0,42.0,42.0,30.0,56.0,36.0,72.5,39.5,76.5,50.0" stroke="black" stroke-width="2" fill="none" />
<polyline points="68.5,56.5,52.5,74.5" stroke="black" stroke-width="2" fill="none" />
<polyline points="36.5,90.5,22.5,106.5,16.5,123.0,10.5,125.0" stroke="black" stroke-width="2" fill="none" />
<polyline points="2.0,123.0,17.5,117.0,33.0,93.0" stroke="black" stroke-width="2" fill="none" />
<polyline points="32.5,94.0,26.5,110.0,32.5,135.5,10.5,145.5,27.0,142.0" stroke="black" stroke-width="2" fill="none" />
<polyline points="21.0,153.0,37.0,153.0" stroke="black" stroke-width="2" fill="none" />
<polyline points="44.0,166.0,52.0,165.0,59.5,164.5" stroke="black" stroke-width="2" fill="none" />
<polyline points="60.5,159.0,52.5,160.0" stroke="black" stroke-width="2" fill="none" />
<polyline points="52.5,150.0,60.5,149.5,68.0,149.0" stroke="black" stroke-width="2" fill="none" />
<polyline points="66.5,157.0,75.0,156.5,83.5,156.0" stroke="black" stroke-width="2" fill="none" />
<polyline points="85.0,150.5,77.0,150.0" stroke="black" stroke-width="2" fill="none" />
<polyline points="85.0,142.5,92.5,141.5" stroke="black" stroke-width="2" fill="none" />
<polyline points="97.0,141.0,105.5,140.5,113.5,140.0,122.5,139.5,131.5,139.0,140.0,138.5,148.5,138.0,156.5,137.5" stroke="black" stroke-width="2" fill="none" />
<polyline points="156.0,131.0,148.0,130.5,140.0,131.0,131.5,131.0,123.0,131.0,115.0,131.0,107.0,131.0,99.0,132.0" stroke="black" stroke-width="2" fill="none" />
<polyline points="106.0,126.5,114.0,125.5,123.0,125.0,131.5,124.0,139.5,122.5,148.0,122.0,156.5,121.5,164.5,120.5" stroke="black" stroke-width="2" fill="none" />
<polyline points="156.0,123.0,148.0,130.5,140.0,138.0,132.0,145.5" stroke="black" stroke-width="2" fill="none" />
<polyline points="132.5,146.0,140.0,145.5" stroke="black" stroke-width="2" fill="none" />
<polyline points="146.0,147.5,138.0,155.0" stroke="black" stroke-width="2" fill="none" />
<polyline points="138.5,146.5,146.5,139.0" stroke="black" stroke-width="2" fill="none" />
<polyline points="146.5,125.5,138.5,132.5,130.5,139.5,122.5,146.5" stroke="black" stroke-width="2" fill="none" />
<polyline points="122.5,149.0,130.5,148.5,139.0,147.5,147.0,147.0" stroke="black" stroke-width="2" fill="none" />
<polyline points="140.5,138.5,132.0,138.5" stroke="black" stroke-width="2" fill="none" />
<polyline points="124.5,139.0,133.0,131.0,141.0,123.5" stroke="black" stroke-width="2" fill="none" />
<polyline points="139.5,127.0,147.5,127.0" stroke="black" stroke-width="2" fill="none" />
<polyline points="137.5,117.5,145.5,117.0,154.0,117.0,162.5,117.0" stroke="black" stroke-width="2" fill="none" />
<polyline points="164.5,108.5,156.5,109.5,148.5,109.5" stroke="black" stroke-width="2" fill="none" />
<polyline points="149.0,104.5,157.0,97.0" stroke="black" stroke-width="2" fill="none" />
<polyline points="156.0,103.0,147.5,103.5" stroke="black" stroke-width="2" fill="none" />
<polyline points="148.0,99.0,140.0,107.0" stroke="black" stroke-width="2" fill="none" />
<polyline points="133.5,103.0,141.5,102.5,149.0,102.0,157.0,101.5,164.5,101.0" stroke="black" stroke-width="2" fill="none" />
<polyline points="167.0,92.0,183.0,88.0,167.0,83.5" stroke="black" stroke-width="2" fill="none" />
<polyline points="170.0,76.0,186.0,84.0" stroke="black" stroke-width="2" fill="none" />
<polyline points="172.5,69.5,164.5,70.0" stroke="black" stroke-width="2" fill="none" />
<polyline points="168.5,63.5,184.5,43.5,192.5,47.5,190.5,60.0,194.5,66.0" stroke="black" stroke-width="2" fill="none" />
<polyline points="213.5,59.5,221.5,59.5" stroke="black" stroke-width="2" fill="none" />
<polyline points="250.5,81.5,266.5,85.5,260.5,91.5,260.5,108.0,250.5,118.5,228.5,127.0,222.0,143.0,224.0,145.0,240.0,137.0,260.0,128.5,270.0,128.5,281.5,122.5,277.5,142.5,271.5,144.5,261.5,166.5,257.5,182.5,235.5,194.5,233.5,210.5,209.0,217.0,211.0,217.0,226.5,215.0,236.5,193.0,261.0,207.0,271.0,218.5,277.0,222.0,297.0,226.0,313.0,216.0,317.5,228.0,321.5,244.0,302.0,252.5,312.0,258.0,300.0,280.5" stroke="black" stroke-width="2" fill="none" />
<polyline points="299.5,269.5,307.5,269.0" stroke="black" stroke-width="2" fill="none" />
<polyline points="315.5,267.0,315.5,283.0,331.5,307.0,313.5,311.0,297.0,317.0,303.0,323.5,301.0,313.5" stroke="black" stroke-width="2" fill="none" />
<polyline points="307.5,313.5,299.5,321.5,292.0,329.5" stroke="black" stroke-width="2" fill="none" />
<polyline points="291.5,325.5,283.5,332.5,276.0,339.5" stroke="black" stroke-width="2" fill="none" />
<polyline points="275.5,329.0,283.5,322.0,292.0,314.5,299.5,307.0,307.5,299.5" stroke="black" stroke-width="2" fill="none" />
<polyline points="308.5,293.0,300.0,301.0,292.0,308.0,283.5,314.5,276.0,321.0" stroke="black" stroke-width="2" fill="none" />
<polyline points="277.5,315.5,286.0,308.0,294.0,300.5,301.5,293.5" stroke="black" stroke-width="2" fill="none" />
<polyline points="291.5,291.5,283.0,299.0,275.5,306.5,267.0,314.0" stroke="black" stroke-width="2" fill="none" />
<polyline points="266.0,306.0,258.5,314.0" stroke="black" stroke-width="2" fill="none" />
<polyline points="252.0,314.5,260.5,306.0,268.5,298.5,276.5,291.0" stroke="black" stroke-width="2" fill="none" />
<polyline points="282.0,290.5,274.5,297.5" stroke="black" stroke-width="2" fill="none" />
<polyline points="278.0,299.0,286.0,298.5,293.5,298.0,300.5,297.5,308.0,296.5" stroke="black" stroke-width="2" fill="none" />
<polyline points="301.0,303.0,292.5,303.5" stroke="black" stroke-width="2" fill="none" />
<polyline points="314.5,316.5,322.5,316.5,330.5,316.0,339.0,316.0,347.5,315.0,356.0,314.5,364.5,314.5,372.0,314.5,380.5,314.5,388.5,314.0,396.5,314.0,404.5,313.5" stroke="black" stroke-width="2" fill="none" />
<polyline points="405.0,314.5,413.5,307.0" stroke="black" stroke-width="2" fill="none" />
<polyline points="404.5,306.5,396.0,314.0" stroke="black" stroke-width="2" fill="none" />
<polyline points="394.0,324.0,386.0,331.5" stroke="black" stroke-width="2" fill="none" />
<polyline points="393.5,338.5,401.5,331.0" stroke="black" stroke-width="2" fill="none" />
<polyline points="404.0,337.0,412.0,336.5" stroke="black" stroke-width="2" fill="none" />
<polyline points="413.0,330.5,405.0,338.0" stroke="black" stroke-width="2" fill="none" />
<polyline points="405.5,338.0,421.5,336.5" stroke="black" stroke-width="2" fill="none" />
<polyline points="437.0,323.0,445.0,315.5" stroke="black" stroke-width="2" fill="none" />
<polyline points="444.5,321.5,452.0,314.0" stroke="black" stroke-width="2" fill="none" />
<polyline points="451.0,327.5,459.0,327.0,467.0,326.0,475.0,325.0,483.5,324.5,491.5,324.0,499.5,323.5,507.5,323.0,515.5,323.0" stroke="black" stroke-width="2" fill="none" />
<polyline points="517.5,332.0,509.0,339.5" stroke="black" stroke-width="2" fill="none" />
<polyline points="505.5,332.0,497.5,339.5" stroke="black" stroke-width="2" fill="none" />
<polyline points="500.5,339.0,508.5,338.0,517.0,336.5" stroke="black" stroke-width="2" fill="none" />
<polyline points="497.5,332.5,490.0,340.0" stroke="black" stroke-width="2" fill="none" />
<polyline points="485.0,333.0,493.0,325.0" stroke="black" stroke-width="2" fill="none" />
<polyline points="490.0,317.5,498.0,316.5" stroke="black" stroke-width="2" fill="none" />
<polyline points="498.5,307.0,490.5,307.5" stroke="black" stroke-width="2" fill="none" />
<polyline points="482.0,309.0,474.5,309.5" stroke="black" stroke-width="2" fill="none" />
<polyline points="474.0,301.0,481.5,300.5" stroke="black" stroke-width="2" fill="none" />
<polyline points="483.0,292.5,475.0,293.0" stroke="black" stroke-width="2" fill="none" />
<polyline points="467.5,285.5,475.5,284.5,483.5,284.0" stroke="black" stroke-width="2" fill="none" />
<polyline points="490.5,284.5,499.0,284.5,507.5,283.5,515.5,283.0" stroke="black" stroke-width="2" fill="none" />
<polyline points="516.5,276.0,508.5,284.0" stroke="black" stroke-width="2" fill="none" />
<polyline points="508.5,277.0,516.5,269.5" stroke="black" stroke-width="2" fill="none" />
<polyline points="516.0,261.5,508.0,269.5,501.0,277.0,493.0,284.0" stroke="black" stroke-width="2" fill="none" />
<polyline points="490.0,275.0,498.5,268.0,506.0,260.5" stroke="black" stroke-width="2" fill="none" />
<polyline points="508.0,252.5,516.0,245.5" stroke="black" stroke-width="2" fill="none" />
<polyline points="508.0,244.0,516.5,236.5" stroke="black" stroke-width="2" fill="none" />
<polyline points="514.0,227.5,506.0,235.0" stroke="black" stroke-width="2" fill="none" />
<polyline points="499.5,234.0,508.0,238.0,498.0,240.0,492.0,256.0,498.0,260.0,504.0,276.0,500.0,294.0,502.5,302.0,499.0,298.0,510.5,284.0" stroke="black" stroke-width="2" fill="none" />
<polyline points="508.5,275.5,516.5,275.0" stroke="black" stroke-width="2" fill="none" />
<polyline points="516.5,293.0,508.0,293.5" stroke="black" stroke-width="2" fill="none" />
<polyline points="489.5,267.5,497.5,259.5" stroke="black" stroke-width="2" fill="none" />
<polyline points="491.5,261.5,483.5,269.5" stroke="black" stroke-width="2" fill="none" />
<polyline points="476.5,275.0,468.5,283.5" stroke="black" stroke-width="2" fill="none" />
<polyline points="461.0,275.5,477.5,271.5" stroke="black" stroke-width="2" fill="none" />
<polyline points="468.5,267.5,477.0,260.0" stroke="black" stroke-width="2" fill="none" />
<polyline points="467.0,258.5,459.5,266.0" stroke="black" stroke-width="2" fill="none" />
<polyline points="450.0,264.0,458.0,256.5,466.0,248.5,474.5,240.5,483.0,232.5" stroke="black" stroke-width="2" fill="none" />
<polyline points="490.5,236.5,498.5,236.0,507.0,236.0,515.5,236.0" stroke="black" stroke-width="2" fill="none" />
<polyline points="515.0,226.0,507.0,226.5" stroke="black" stroke-width="2" fill="none" />
<polyline points="505.5,225.5,513.5,218.0" stroke="black" stroke-width="2" fill="none" />
<polyline points="514.0,212.5,506.0,219.5,498.0,226.5" stroke="black" stroke-width="2" fill="none" />
<polyline points="490.5,226.5,498.0,219.5,506.0,212.5" stroke="black" stroke-width="2" fill="none" />
<polyline points="500.0,213.0,491.5,220.5,483.0,228.0,474.5,235.5" stroke="black" stroke-width="2" fill="none" />
<polyline points="475.5,227.5,483.5,221.0,491.0,214.0" stroke="black" stroke-width="2" fill="none" />
<polyline points="499.5,217.5,507.5,217.0" stroke="black" stroke-width="2" fill="none" />
<polyline points="482.0,211.5,474.0,218.5" stroke="black" stroke-width="2" fill="none" />
<polyline points="475.0,216.0,483.0,216.0,491.0,216.0" stroke="black" stroke-width="2" fill="none" />
<polyline points="483.5,205.5,475.5,213.0" stroke="black" stroke-width="2" fill="none" />
<polyline points="468.0,212.0,476.0,204.5,483.5,197.0" stroke="black" stroke-width="2" fill="none" />
<polyline points="485.0,203.0,501.0,209.0" stroke="black" stroke-width="2" fill="none" />
<polyline points="506.0,195.5,498.0,196.0,490.0,196.5,482.5,197.5,475.0,198.0,467.0,198.0,459.5,199.0,452.0,199.5,444.0,199.5,436.0,200.0,428.0,200.5,420.0,201.5,412.0,202.5,403.5,203.0,395.5,204.0,387.5,204.5,379.5,204.5,371.5,205.0,363.0,205.0,355.5,205.5" stroke="black" stroke-width="2" fill="none" />
<polyline points="357.0,198.0,365.0,198.0,373.0,198.0,380.5,197.5,388.5,196.5,396.0,195.5,403.5,195.0,411.5,194.5,419.5,193.5,428.0,192.5,436.0,192.0,444.0,191.5,452.0,191.0,460.0,190.5,467.5,190.5,476.0,190.0,483.5,189.5" stroke="black" stroke-width="2" fill="none" />
<polyline points="481.0,190.5,483.0,206.0,475.0,228.0,485.0,240.0" stroke="black" stroke-width="2" fill="none" />
<polyline points="492.0,243.5,500.0,242.5,507.5,242.5,515.0,242.5" stroke="black" stroke-width="2" fill="none" />
<polyline points="468.0,243.0,459.5,250.5,451.5,258.0,443.0,265.5" stroke="black" stroke-width="2" fill="none" />
<polyline points="443.0,258.5,450.5,250.5,459.0,243.5" stroke="black" stroke-width="2" fill="none" />
<polyline points="451.5,242.5,443.5,250.5,435.5,258.0" stroke="black" stroke-width="2" fill="none" />
<polyline points="436.5,252.5,428.5,260.0" stroke="black" stroke-width="2" fill="none" />
<polyline points="426.5,251.0,435.0,243.5" stroke="black" stroke-width="2" fill="none" />
<polyline points="427.5,219.5,435.5,212.0" stroke="black" stroke-width="2" fill="none" />
<polyline points="396.0,210.5,388.0,218.0" stroke="black" stroke-width="2" fill="none" />
<polyline points="395.5,219.5,387.0,226.5" stroke="black" stroke-width="2" fill="none" />
<polyline points="378.5,217.5,388.5,227.5,396.5,243.5" stroke="black" stroke-width="2" fill="none" />
<polyline points="396.5,261.5,404.0,261.0,412.0,260.0,420.0,259.5,428.5,259.5,436.5,259.0,444.0,258.0,452.5,258.0,460.0,257.5,467.5,257.0,475.0,256.5,483.5,256.0,492.0,256.0,500.0,256.0,507.5,255.0,516.0,254.5" stroke="black" stroke-width="2" fill="none" />
<polyline points="481.5,324.0,474.0,331.5" stroke="black" stroke-width="2" fill="none" />
<polyline points="469.5,331.0,477.5,324.0" stroke="black" stroke-width="2" fill="none" />
<polyline points="482.0,333.0,490.5,332.5,499.0,332.0,507.0,331.5,515.0,330.5" stroke="black" stroke-width="2" fill="none" />
<polyline points="482.5,311.5,475.0,312.0,467.0,312.5,458.5,313.5,450.5,314.5,442.0,315.5,434.0,315.5,425.5,316.5,417.5,317.0,409.0,317.5" stroke="black" stroke-width="2" fill="none" />
<polyline points="402.5,323.0,394.0,330.0" stroke="black" stroke-width="2" fill="none" />
<polyline points="381.0,314.0,389.0,306.5" stroke="black" stroke-width="2" fill="none" />
<polyline points="381.5,307.0,374.0,314.5,365.5,322.5" stroke="black" stroke-width="2" fill="none" />
<polyline points="366.0,320.5,369.5,314.5,385.5,316.5,387.5,323.0,403.5,321.0,419.5,323.5,435.5,327.5,451.5,331.5,467.5,335.5,483.5,339.5" stroke="black" stroke-width="2" fill="none" />
<polyline points="515.0,271.0,507.0,271.0,499.0,271.0,491.0,271.0,483.0,271.0,474.5,272.0,466.5,273.0,458.5,273.5,451.0,274.0,443.5,274.5,435.5,275.5,428.0,276.0,420.0,277.0,412.5,278.0,405.0,278.5" stroke="black" stroke-width="2" fill="none" />
<polyline points="388.5,282.5,378.5,286.5,385.0,300.0,401.0,296.0" stroke="black" stroke-width="2" fill="none" />
<polyline points="387.0,284.5,379.0,285.5,370.5,285.5" stroke="black" stroke-width="2" fill="none" />
<polyline points="373.0,278.5,367.0,295.0,363.0,313.0,369.0,327.0,397.0,327.0,429.0,337.0" stroke="black" stroke-width="2" fill="none" />
<polyline points="372.0,323.5,364.0,331.0,356.5,338.5" stroke="black" stroke-width="2" fill="none" />
<polyline points="354.5,333.0,346.5,340.5" stroke="black" stroke-width="2" fill="none" />
<polyline points="338.5,330.0,347.0,322.5" stroke="black" stroke-width="2" fill="none" />
<polyline points="354.5,308.0,362.5,300.5" stroke="black" stroke-width="2" fill="none" />
<polyline points="354.5,298.5,346.5,306.5" stroke="black" stroke-width="2" fill="none" />
<polyline points="348.0,304.5,358.0,314.0,356.0,330.0" stroke="black" stroke-width="2" fill="none" />
<polyline points="362.0,315.0,369.5,308.0" stroke="black" stroke-width="2" fill="none" />
<polyline points="347.0,298.5,338.5,306.0" stroke="black" stroke-width="2" fill="none" />
<polyline points="330.5,314.0,323.0,322.0,315.0,330.0" stroke="black" stroke-width="2" fill="none" />
<polyline points="322.5,332.5,330.5,325.0" stroke="black" stroke-width="2" fill="none" />
<polyline points="331.0,334.5,327.0,330.5,329.0,315.0" stroke="black" stroke-width="2" fill="none" />
<polyline points="317.5,314.0,311.5,330.0" stroke="black" stroke-width="2" fill="none" />
<polyline points="268.5,327.0,277.0,326.0,285.0,325.5,293.5,325.0,301.0,325.0,309.0,324.5,316.0,323.5,323.5,322.0,331.0,321.5,338.5,321.0,346.0,320.5,354.0,319.5,362.5,319.5,371.0,319.0,379.5,318.5,388.0,318.0,396.0,317.5,404.0,317.0,411.5,316.5,419.5,316.0" stroke="black" stroke-width="2" fill="none" />
<polyline points="426.5,322.5,418.0,322.5,410.5,323.0,403.0,323.5,395.5,324.0,387.5,324.0,379.5,324.5,371.5,325.0,363.0,326.0,355.0,326.5,347.0,327.0,339.5,327.5,331.0,328.0,323.5,328.5,316.0,329.0,308.5,329.5,300.5,330.0,293.0,330.5,285.5,331.0,277.5,331.5,269.5,332.0,261.0,332.5" stroke="black" stroke-width="2" fill="none" />
<polyline points="245.0,318.0,237.0,325.0" stroke="black" stroke-width="2" fill="none" />
<polyline points="235.0,316.0,227.5,323.0" stroke="black" stroke-width="2" fill="none" />
<polyline points="220.0,321.0,228.0,314.0,236.5,306.5,244.5,299.0,252.5,291.0,260.5,284.0,268.5,276.5" stroke="black" stroke-width="2" fill="none" />
<polyline points="275.0,275.0,267.5,282.5,260.0,290.5,252.0,298.0,244.0,305.5" stroke="black" stroke-width="2" fill="none" />
<polyline points="250.0,306.5,258.0,306.5" stroke="black" stroke-width="2" fill="none" />
<polyline points="252.5,306.5,261.0,298.5,269.5,290.0" stroke="black" stroke-width="2" fill="none" />
<polyline points="265.0,298.0,280.5,300.0,296.0,310.5,312.0,300.5,340.0,290.5,350.5,300.5,366.5,302.5,380.5,304.0,397.0,305.5" stroke="black" stroke-width="2" fill="none" />
<polyline points="387.0,288.0,378.5,288.5,370.5,289.5,363.0,290.0,355.0,290.0,347.0,290.0,339.5,290.5,331.5,291.0,323.0,291.5,315.0,292.0,307.5,292.5,299.5,293.0,291.5,293.5,284.0,294.0,276.0,294.5,268.0,295.0,260.0,295.0,252.5,296.0,244.5,297.5,236.0,298.5,227.5,299.0,219.5,299.5,211.5,299.5,203.5,300.0,196.0,301.0,188.0,301.5,179.5,302.0" stroke="black" stroke-width="2" fill="none" />
<polyline points="187.0,304.5,196.0,297.0,204.5,289.0,213.0,281.0,221.0,273.5" stroke="black" stroke-width="2" fill="none" />
<polyline points="228.0,274.0,219.5,281.0,211.0,288.5,203.0,296.0,194.5,303.5" stroke="black" stroke-width="2" fill="none" />
<polyline points="195.5,311.5,203.5,303.5,211.0,296.0,219.0,288.5,227.0,281.5,235.5,274.0" stroke="black" stroke-width="2" fill="none" />
<polyline points="244.5,270.0,252.5,269.5,261.0,269.0,269.5,269.0,277.0,268.5" stroke="black" stroke-width="2" fill="none" />
<polyline points="274.5,250.5,282.5,242.5" stroke="black" stroke-width="2" fill="none" />
<polyline points="283.5,241.0,299.5,237.0" stroke="black" stroke-width="2" fill="none" />
<polyline points="308.0,243.5,316.0,235.5" stroke="black" stroke-width="2" fill="none" />
<polyline points="324.0,236.0,316.5,243.5" stroke="black" stroke-width="2" fill="none" />
<polyline points="324.5,244.5,316.5,252.0" stroke="black" stroke-width="2" fill="none" />
<polyline points="318.0,260.0,334.0,264.0,350.0,266.0,366.0,268.0,382.0,268.0,398.0,270.0,414.0,272.0,429.5,274.0" stroke="black" stroke-width="2" fill="none" />
<polyline points="422.5,278.0,438.0,278.0,454.0,280.0,478.0,286.0,480.0,302.0" stroke="black" stroke-width="2" fill="none" />
<polyline points="514.5,258.5,507.5,259.0,499.5,259.0,491.5,260.0,483.0,261.0,475.0,261.5,467.5,262.5,459.5,263.5,451.5,263.5,443.5,263.0,436.0,263.0,428.0,263.0,420.5,263.5,412.0,264.0,404.5,264.5,396.5,265.5,388.5,266.0,380.5,266.5,372.0,267.5,363.5,268.5,356.0,269.5,348.5,270.5,341.0,271.0" stroke="black" stroke-width="2" fill="none" />
<polyline points="339.0,282.5,331.5,282.5,324.0,283.5,316.5,284.5,309.0,285.0,301.0,285.5,293.0,286.5,285.0,287.0,276.5,287.5,268.0,288.0,259.5,288.5,252.0,289.5,244.0,289.5,236.0,290.5,228.5,291.0,220.5,291.5,212.0,292.0,203.5,292.0,195.5,292.0,187.5,293.0,179.5,293.5" stroke="black" stroke-width="2" fill="none" />
<polyline points="188.0,299.0,196.5,291.0" stroke="black" stroke-width="2" fill="none" />
<polyline points="187.0,285.0,195.0,285.0,203.5,285.0,212.0,284.5,220.0,284.0,228.0,283.5,235.5,283.0,243.5,282.5,251.5,282.0,259.5,281.0,268.0,280.5,275.5,280.0,283.5,279.5" stroke="black" stroke-width="2" fill="none" />
<polyline points="300.5,262.0,308.0,261.0,315.5,260.0,323.0,259.5,331.0,259.5,338.5,259.0,347.0,258.5" stroke="black" stroke-width="2" fill="none" />
<polyline points="337.5,254.5,346.0,254.0,354.0,254.0,362.5,253.5,371.0,253.0,380.0,252.0,388.0,251.5,396.5,251.0,404.5,250.5,412.5,250.0,420.5,249.5,429.0,249.0,437.0,248.5,445.5,247.5,453.5,246.0,461.0,245.5,469.0,244.5,476.5,244.5,484.5,243.5,492.0,242.5,500.0,242.0,508.0,241.5,515.5,241.5" stroke="black" stroke-width="2" fill="none" />
<polyline points="483.5,172.5,475.5,173.0,467.5,173.0,459.5,173.5" stroke="black" stroke-width="2" fill="none" />
<polyline points="458.5,165.0,467.0,164.5,475.0,164.5,483.5,164.0" stroke="black" stroke-width="2" fill="none" />
<polyline points="487.0,159.0,503.0,150.5" stroke="black" stroke-width="2" fill="none" />
<polyline points="507.5,155.0,491.5,157.0" stroke="black" stroke-width="2" fill="none" />
<polyline points="476.5,148.0,468.0,148.5,459.5,149.5" stroke="black" stroke-width="2" fill="none" />
<polyline points="450.0,150.5,469.5,174.5,477.5,206.5,487.5,216.5" stroke="black" stroke-width="2" fill="none" />
<polyline points="475.0,141.0,466.5,141.5,458.0,142.0,450.0,142.5" stroke="black" stroke-width="2" fill="none" />
<polyline points="451.5,133.0,459.5,133.0" stroke="black" stroke-width="2" fill="none" />
<polyline points="458.5,132.0,471.0,136.0,468.5,152.0,482.5,158.5,490.0,140.5" stroke="black" stroke-width="2" fill="none" />
<polyline points="483.5,134.5,495.5,126.5,489.0,142.5,490.5,130.5,506.0,122.0,505.5,114.0" stroke="black" stroke-width="2" fill="none" />
<polyline points="507.0,111.0,515.5,110.5" stroke="black" stroke-width="2" fill="none" />
<polyline points="506.0,117.5,497.5,118.0" stroke="black" stroke-width="2" fill="none" />
<polyline points="497.5,102.5,505.5,102.0,513.5,101.0" stroke="black" stroke-width="2" fill="none" />
<polyline points="514.5,84.5,506.0,85.0,497.5,85.0" stroke="black" stroke-width="2" fill="none" />
<polyline points="499.5,78.5,507.5,78.0,515.5,77.0" stroke="black" stroke-width="2" fill="none" />
<polyline points="517.5,69.0,509.5,70.0,502.0,71.0" stroke="black" stroke-width="2" fill="none" />
<polyline points="500.5,65.0,504.0,81.0,502.0,97.0,495.5,112.5,485.5,128.0,481.5,144.0,489.5,156.0,494.0,168.0,490.0,176.0,496.5,196.5" stroke="black" stroke-width="2" fill="none" />
<polyline points="474.5,153.5,466.0,154.0,458.5,154.5,450.5,155.0,442.5,155.5,434.0,156.0,426.0,157.0" stroke="black" stroke-width="2" fill="none" />
<polyline points="411.5,155.5,403.5,163.5,395.0,171.0" stroke="black" stroke-width="2" fill="none" />
<polyline points="394.0,172.0,402.5,171.0,411.0,170.5,419.0,170.0,427.0,169.5,434.5,169.0,442.5,169.5,451.0,170.0" stroke="black" stroke-width="2" fill="none" />
<polyline points="412.5,169.5,404.5,177.5,396.0,185.0" stroke="black" stroke-width="2" fill="none" />
<polyline points="405.0,185.5,413.0,178.0" stroke="black" stroke-width="2" fill="none" />
<polyline points="411.0,164.5,403.0,172.0,395.5,179.0" stroke="black" stroke-width="2" fill="none" />
<polyline points="391.5,173.0,391.5,189.0,393.0,213.0,383.0,229.5,382.5,246.0" stroke="black" stroke-width="2" fill="none" />
<polyline points="385.5,275.5,377.5,276.0" stroke="black" stroke-width="2" fill="none" />
<polyline points="387.0,284.0,402.5,284.0,418.5,286.0,434.5,288.0,452.0,288.0,462.0,304.0,458.5,306.0,450.5,317.5" stroke="black" stroke-width="2" fill="none" />
<polyline points="484.0,228.0,476.5,228.5,469.0,229.0,460.5,229.5,453.0,230.0,445.0,231.0,437.0,232.0,429.0,233.0,421.0,233.5,412.5,234.0,404.0,234.5,396.0,234.5,387.5,235.0,379.0,235.0,371.0,236.0,363.0,237.0,355.0,237.5,347.0,238.0,338.5,238.5" stroke="black" stroke-width="2" fill="none" />
<polyline points="332.5,243.0,324.5,250.0" stroke="black" stroke-width="2" fill="none" />
<polyline points="335.5,237.0,335.5,221.0,351.5,215.5,335.5,218.0" stroke="black" stroke-width="2" fill="none" />
<polyline points="332.0,220.0,340.0,220.0,348.0,219.5,355.5,219.0,363.5,219.5,371.5,219.0,379.0,218.5,386.0,218.0,393.5,217.5,401.5,217.5,409.0,216.5,417.5,216.0,426.0,215.5,434.5,215.5,443.0,215.0,450.5,214.5,459.0,214.0,467.5,213.5,475.5,213.0,483.0,213.0,490.5,212.5,499.0,212.5,507.5,211.5,515.5,211.0" stroke="black" stroke-width="2" fill="none" />
<polyline points="451.0,162.0,443.0,162.5,435.5,163.5,427.5,164.5,419.5,164.5,411.5,164.0,404.0,164.0,396.0,164.0,388.5,164.5" stroke="black" stroke-width="2" fill="none" />
<polyline points="388.5,158.5,397.0,158.0,405.0,157.5,413.5,156.5,421.5,155.0" stroke="black" stroke-width="2" fill="none" />
<polyline points="412.0,162.0,404.5,162.5" stroke="black" stroke-width="2" fill="none" />
<polyline points="403.5,155.5,395.5,163.0" stroke="black" stroke-width="2" fill="none" />
<polyline points="397.0,168.0,405.0,167.5,412.5,167.0" stroke="black" stroke-width="2" fill="none" />
<polyline points="411.0,147.0,427.0,139.0,437.5,123.0" stroke="black" stroke-width="2" fill="none" />
<polyline points="430.0,123.5,422.0,131.0" stroke="black" stroke-width="2" fill="none" />
<polyline points="413.0,130.5,421.5,122.5,429.5,115.0" stroke="black" stroke-width="2" fill="none" />
<polyline points="429.5,107.0,422.0,115.0,413.5,123.0" stroke="black" stroke-width="2" fill="none" />
<polyline points="411.0,125.5,418.5,125.0,426.5,125.0,434.5,125.0,442.5,125.0" stroke="black" stroke-width="2" fill="none" />
<polyline points="452.0,124.0,460.0,123.5" stroke="black" stroke-width="2" fill="none" />
<polyline points="452.0,115.5,443.5,116.0,436.0,116.0,428.5,116.0,421.0,116.5,412.5,117.5,404.5,118.0" stroke="black" stroke-width="2" fill="none" />
<polyline points="403.5,109.0,411.0,108.5,419.0,108.5,426.5,108.0,434.5,107.5,442.0,107.5,450.5,107.0" stroke="black" stroke-width="2" fill="none" />
<polyline points="442.5,98.5,434.5,99.0,427.0,99.5,419.5,100.0,411.5,100.0,403.5,100.5" stroke="black" stroke-width="2" fill="none" />
<polyline points="404.5,95.5,413.0,94.5,420.5,93.0,428.5,92.0,436.5,91.0,444.5,90.5,452.5,90.0" stroke="black" stroke-width="2" fill="none" />
<polyline points="448.5,91.5,452.5,107.5,456.5,123.5,458.5,139.5,462.5,155.5,458.5,163.5,462.5,180.0,468.5,196.5,462.5,212.5,462.5,228.5,468.5,252.5,480.5,264.5,474.5,268.5,476.5,282.5,489.0,288.5,493.0,290.5,483.0,296.5,487.0,314.5,481.0,318.5,491.0,316.5,499.0,330.0" stroke="black" stroke-width="2" fill="none" />
<polyline points="483.5,176.0,475.5,176.5,467.0,177.5,458.5,177.5,451.0,178.0,443.5,178.0,435.5,178.5,427.0,179.0,418.5,179.5,411.0,180.0,402.5,180.5,394.0,180.5,385.5,181.0,377.0,181.5" stroke="black" stroke-width="2" fill="none" />
<polyline points="371.5,180.5,364.0,187.5" stroke="black" stroke-width="2" fill="none" />
<polyline points="363.5,194.5,371.5,186.5" stroke="black" stroke-width="2" fill="none" />
<polyline points="371.0,181.5,363.0,182.0,355.0,183.0" stroke="black" stroke-width="2" fill="none" />
<polyline points="355.0,191.0,363.0,190.5,371.5,189.5,379.5,189.0,388.0,188.0,396.0,187.0,404.0,186.5,412.5,186.5,420.5,186.0,428.5,186.0,437.0,185.5,444.5,185.0,452.0,184.0,460.0,183.0,467.5,182.5,475.5,181.5,483.0,181.0" stroke="black" stroke-width="2" fill="none" />
<polyline points="515.5,202.5,507.5,203.5,500.0,204.0,491.5,204.5,484.0,204.5,476.0,205.0,468.5,206.0,461.0,207.0,453.0,207.5,445.0,208.5,436.5,209.5,429.0,210.0,421.0,210.5,413.0,211.0,405.5,211.5,397.0,211.5,389.0,211.5,380.5,211.5,372.5,212.0,364.0,212.5,355.5,213.0,346.5,214.0,338.0,214.5" stroke="black" stroke-width="2" fill="none" />
<polyline points="344.5,221.0,342.5,237.0" stroke="black" stroke-width="2" fill="none" />
<polyline points="331.5,227.5,339.5,227.0,348.0,226.5,356.0,226.0,363.5,226.0,371.0,225.5,379.0,225.0,386.5,224.5,394.0,224.0,401.5,223.0,409.5,223.0,417.5,222.5,426.0,222.5,433.5,222.5,441.0,222.5,449.0,222.0,457.0,222.5,465.0,222.5,473.5,221.5,482.0,221.0,490.5,220.5,498.0,220.0,506.0,219.5,515.0,219.0" stroke="black" stroke-width="2" fill="none" />
<polyline points="485.0,229.0,477.0,230.0,469.0,231.0,461.0,231.5,452.5,232.0,444.0,232.5,436.0,232.5,427.5,233.0,419.0,233.0,411.0,234.0,403.0,235.0,395.0,235.5,387.0,236.0,378.5,236.5,370.5,236.5,362.5,237.0,354.0,237.0,346.5,237.0,338.5,237.0,331.0,237.5,323.5,238.5,316.0,239.0,308.5,239.5,301.0,239.5,293.0,240.0,284.5,241.0,276.5,242.0,268.0,242.5,260.0,243.0,251.5,243.5,243.0,244.5,234.5,245.5,226.0,246.5,217.5,247.5" stroke="black" stroke-width="2" fill="none" />
<polyline points="219.0,254.0,227.0,253.0" stroke="black" stroke-width="2" fill="none" />
<polyline points="226.5,243.0,235.0,235.5" stroke="black" stroke-width="2" fill="none" />
<polyline points="235.5,239.5,243.5,232.5,251.0,225.0,258.5,217.5,267.0,210.0" stroke="black" stroke-width="2" fill="none" />
<polyline points="268.5,220.0,260.5,227.5,252.5,235.0,244.0,242.0" stroke="black" stroke-width="2" fill="none" />
<polyline points="245.0,233.5,252.5,233.0" stroke="black" stroke-width="2" fill="none" />
<polyline points="259.0,242.0,267.0,234.0,275.0,226.5" stroke="black" stroke-width="2" fill="none" />
<polyline points="282.0,228.0,274.0,235.5,266.5,243.0" stroke="black" stroke-width="2" fill="none" />
<polyline points="268.5,243.0,276.5,242.5" stroke="black" stroke-width="2" fill="none" />
<polyline points="274.5,243.5,282.5,235.5" stroke="black" stroke-width="2" fill="none" />
<polyline points="277.5,234.0,269.5,234.0" stroke="black" stroke-width="2" fill="none" />
<polyline points="267.0,226.0,274.5,218.5" stroke="black" stroke-width="2" fill="none" />
<polyline points="282.0,213.5,290.0,213.0" stroke="black" stroke-width="2" fill="none" />
<polyline points="299.0,212.5,307.0,211.5,315.5,211.5,324.0,211.0" stroke="black" stroke-width="2" fill="none" />
<polyline points="315.5,218.0,307.0,225.5,299.5,233.0" stroke="black" stroke-width="2" fill="none" />
<polyline points="308.0,234.0,316.5,226.5" stroke="black" stroke-width="2" fill="none" />
<polyline points="316.5,224.0,309.0,224.5" stroke="black" stroke-width="2" fill="none" />
<polyline points="299.5,220.5,307.0,220.0,315.0,220.0,323.0,220.0" stroke="black" stroke-width="2" fill="none" />
<polyline points="316.0,196.5,323.5,196.0,331.0,195.5,338.5,195.0" stroke="black" stroke-width="2" fill="none" />
<polyline points="324.0,179.5,332.0,172.5" stroke="black" stroke-width="2" fill="none" />
<polyline points="324.5,172.0,332.5,164.5" stroke="black" stroke-width="2" fill="none" />
<polyline points="338.5,172.5,330.5,173.5,322.5,174.0,314.5,174.5" stroke="black" stroke-width="2" fill="none" />
<polyline points="315.5,180.5,323.0,180.0,331.0,179.5,339.0,179.0" stroke="black" stroke-width="2" fill="none" />
<polyline points="348.5,173.0,356.5,172.5,364.0,171.5,371.5,171.0" stroke="black" stroke-width="2" fill="none" />
<polyline points="371.0,165.5,363.5,166.0,355.5,166.5" stroke="black" stroke-width="2" fill="none" />
<polyline points="354.5,156.5,362.5,155.5,370.5,155.0" stroke="black" stroke-width="2" fill="none" />
<polyline points="390.5,154.5,406.5,136.5,423.0,132.5" stroke="black" stroke-width="2" fill="none" />
<polyline points="427.0,141.5,418.5,142.5,410.0,143.0" stroke="black" stroke-width="2" fill="none" />
<polyline points="420.5,147.5,412.0,147.5,404.0,148.5,396.5,149.0" stroke="black" stroke-width="2" fill="none" />
<polyline points="396.5,153.0,412.5,169.0,414.0,185.0,432.0,202.5,444.0,218.5,444.0,234.5" stroke="black" stroke-width="2" fill="none" />
<polyline points="429.0,295.0,421.5,296.0,413.5,296.0,405.0,296.0,396.5,297.0,388.5,297.5,380.5,297.5,372.5,297.0,364.5,297.5,356.5,298.0,349.0,298.5,341.0,299.0,333.5,299.5,325.5,300.0,317.5,300.5,309.0,301.5,300.5,302.0,292.5,303.0,284.0,304.0,275.5,304.5,267.5,305.0,259.5,305.5,251.0,305.5,243.0,306.5,235.0,307.5,227.0,308.5,218.5,309.0,210.5,309.0,202.5,309.5,195.0,309.5,186.5,310.0" stroke="black" stroke-width="2" fill="none" />
<polyline points="202.5,315.0,210.5,314.5" stroke="black" stroke-width="2" fill="none" />
<polyline points="212.0,314.5,220.0,306.5,227.5,298.5,235.5,290.5" stroke="black" stroke-width="2" fill="none" />
<polyline points="234.5,286.5,228.5,290.5" stroke="black" stroke-width="2" fill="none" />
<polyline points="227.0,290.5,219.5,297.5" stroke="black" stroke-width="2" fill="none" />
<polyline points="213.5,307.0,205.5,314.5" stroke="black" stroke-width="2" fill="none" />
<polyline points="204.5,318.5,212.5,318.0,220.0,317.5,228.0,316.5,236.5,315.5,244.5,315.0,252.5,314.5,260.5,314.5,268.5,314.5,276.5,314.0,284.5,314.0,293.0,313.0,301.0,312.5,309.5,312.0" stroke="black" stroke-width="2" fill="none" />
<polyline points="292.5,333.5,290.5,317.5,300.5,305.5,296.5,279.5,296.5,264.0,301.0,248.0,302.5,236.0,294.5,228.0,318.5,210.0,314.5,194.0,340.5,190.0,334.0,174.5,352.0,152.5,362.0,136.5,362.0,126.5,366.0,111.0,370.0,111.0" stroke="black" stroke-width="2" fill="none" />
<polyline points="373.0,113.5,375.0,104.0,385.0,106.0,387.0,122.0,375.5,146.0,363.0,162.0,371.5,164.0,371.5,179.5,367.5,197.5,353.0,199.0,355.0,216.5,347.0,232.5,363.0,236.5,373.0,236.5,398.5,235.0,412.5,237.0" stroke="black" stroke-width="2" fill="none" />
<polyline points="425.0,246.0,397.0,226.0,390.5,212.0,374.0,216.0" stroke="black" stroke-width="2" fill="none" />
<polyline points="337.5,187.0,329.5,187.5,322.0,187.5,314.0,188.5" stroke="black" stroke-width="2" fill="none" />
<polyline points="307.5,187.5,299.5,188.5,291.5,189.5,283.5,190.0" stroke="black" stroke-width="2" fill="none" />
<polyline points="282.0,199.5,290.0,199.0,297.5,197.5" stroke="black" stroke-width="2" fill="none" />
<polyline points="292.0,178.5,300.5,171.0" stroke="black" stroke-width="2" fill="none" />
<polyline points="300.5,175.5,316.5,163.5,332.5,162.0,348.5,162.0,352.0,180.0,353.5,196.0,365.5,196.0,389.5,198.5,406.0,192.5,426.0,196.5,442.0,214.5" stroke="black" stroke-width="2" fill="none" />
<polyline points="405.0,141.5,397.0,141.5" stroke="black" stroke-width="2" fill="none" />
<polyline points="397.0,132.5,405.0,132.0,413.0,132.0,420.5,132.0,427.5,132.0,435.0,132.0,442.0,131.0" stroke="black" stroke-width="2" fill="none" />
<polyline points="434.0,104.0,450.0,84.0,466.0,66.5,480.0,46.0,468.5,62.0,456.5,78.0,462.0,82.0,466.0,84.0,480.0,92.0,481.5,97.5,463.5,113.0,479.5,99.5,496.0,93.5" stroke="black" stroke-width="2" fill="none" />
<polyline points="490.0,100.0,481.5,100.5" stroke="black" stroke-width="2" fill="none" />
<polyline points="482.5,92.5,490.0,92.0,498.0,91.5,506.0,92.0,515.0,92.0" stroke="black" stroke-width="2" fill="none" />
<polyline points="516.0,60.0,508.5,60.5,500.5,61.5" stroke="black" stroke-width="2" fill="none" />
<polyline points="499.5,53.0,507.5,53.0,515.5,52.5" stroke="black" stroke-width="2" fill="none" />
<polyline points="515.5,27.0,507.0,28.0,498.5,28.5,489.5,29.0,481.5,29.5" stroke="black" stroke-width="2" fill="none" />
<polyline points="477.0,43.5,485.0,43.5,492.0,43.5,499.5,43.5,508.0,44.0,516.0,44.0" stroke="black" stroke-width="2" fill="none" />
<polyline points="475.0,61.5,467.0,62.5,458.5,63.0" stroke="black" stroke-width="2" fill="none" />
<polyline points="459.0,69.5,467.5,69.0" stroke="black" stroke-width="2" fill="none" />
<polyline points="460.0,53.5,468.0,53.0,476.0,52.0" stroke="black" stroke-width="2" fill="none" />
<polyline points="469.5,44.0,461.5,44.5" stroke="black" stroke-width="2" fill="none" />
<polyline points="461.5,47.5,481.5,50.0" stroke="black" stroke-width="2" fill="none" />
<polyline points="452.0,37.0,459.0,36.5,467.0,35.5,474.5,35.0,482.5,35.0,490.5,34.5,497.5,34.0,505.0,33.5,513.0,34.0" stroke="black" stroke-width="2" fill="none" />
<polyline points="475.5,28.0,467.5,28.5,459.5,29.5,452.0,30.0" stroke="black" stroke-width="2" fill="none" />
<polyline points="442.0,22.0,450.0,22.0,458.0,21.5,466.0,20.5,474.0,19.5,482.5,18.5,491.0,18.5,499.0,18.5,507.5,18.5,515.5,18.0" stroke="black" stroke-width="2" fill="none" />
<polyline points="516.5,8.5,509.0,8.5,500.5,9.0,492.5,10.0,484.0,10.5,475.5,11.0,467.5,12.0,459.5,13.0,451.5,13.5,443.0,14.5,434.5,14.5" stroke="black" stroke-width="2" fill="none" />
<polyline points="435.0,5.0,443.5,4.5,451.5,4.0,460.0,3.0,468.0,2.0,476.5,1.5,484.0,1.5,492.0,1.0,500.0,1.0,507.0,0.5,515.5,0.0" stroke="black" stroke-width="2" fill="none" />
<polyline points="434.0,29.0,425.5,29.0,417.5,29.0" stroke="black" stroke-width="2" fill="none" />
<polyline points="412.0,37.0,420.0,36.5,428.0,36.5,435.5,36.0,443.0,35.0" stroke="black" stroke-width="2" fill="none" />
<polyline points="443.5,59.0,435.5,60.0,427.5,60.5,419.5,61.5,411.5,62.5" stroke="black" stroke-width="2" fill="none" />
<polyline points="411.5,55.5,419.5,54.5,427.0,53.5,435.5,52.5,443.5,51.5" stroke="black" stroke-width="2" fill="none" />
<polyline points="442.5,76.0,435.0,77.0,427.0,77.5" stroke="black" stroke-width="2" fill="none" />
<polyline points="419.0,70.0,427.0,69.5,435.0,69.0,443.0,68.5" stroke="black" stroke-width="2" fill="none" />
<polyline points="450.0,85.5,442.0,86.0,434.5,86.5" stroke="black" stroke-width="2" fill="none" />
<polyline points="429.0,98.0,421.0,105.5,413.0,113.5" stroke="black" stroke-width="2" fill="none" />
<polyline points="381.5,109.5,373.0,117.0" stroke="black" stroke-width="2" fill="none" />
<polyline points="372.5,116.0,380.5,115.5,388.5,115.0" stroke="black" stroke-width="2" fill="none" />
<polyline points="386.0,132.5,378.0,133.0,370.0,133.5" stroke="black" stroke-width="2" fill="none" />
<polyline points="370.0,124.5,378.5,124.5,386.5,124.0" stroke="black" stroke-width="2" fill="none" />
<polyline points="387.0,99.5,379.5,100.0,371.5,100.5" stroke="black" stroke-width="2" fill="none" />
<polyline points="363.5,109.5,371.5,109.5,379.5,109.5,387.5,109.0" stroke="black" stroke-width="2" fill="none" />
<polyline points="386.0,85.5,378.0,86.0" stroke="black" stroke-width="2" fill="none" />
<polyline points="378.5,79.0,386.0,78.5,394.5,77.5,402.5,77.0" stroke="black" stroke-width="2" fill="none" />
<polyline points="404.5,75.0,396.5,82.5" stroke="black" stroke-width="2" fill="none" />
<polyline points="397.0,82.0,389.0,82.5" stroke="black" stroke-width="2" fill="none" />
<polyline points="387.0,82.5,395.5,75.5,403.5,68.5" stroke="black" stroke-width="2" fill="none" />
<polyline points="395.5,67.0,387.0,74.5" stroke="black" stroke-width="2" fill="none" />
<polyline points="389.0,75.5,397.0,75.0" stroke="black" stroke-width="2" fill="none" />
<polyline points="387.5,67.5,395.5,60.0" stroke="black" stroke-width="2" fill="none" />
<polyline points="388.5,58.0,396.5,50.5" stroke="black" stroke-width="2" fill="none" />
<polyline points="395.5,65.0,387.5,65.0" stroke="black" stroke-width="2" fill="none" />
<polyline points="380.0,61.5,387.5,61.0,396.5,61.0,404.5,60.5" stroke="black" stroke-width="2" fill="none" />
<polyline points="412.0,46.0,420.0,45.5,427.5,45.0,435.0,44.5,442.5,43.5" stroke="black" stroke-width="2" fill="none" />
<polyline points="427.0,49.5,423.0,34.0,432.5,28.0,420.5,24.5,432.0,8.5,426.0,4.5" stroke="black" stroke-width="2" fill="none" />
<polyline points="419.5,16.5,435.5,14.5,451.5,7.0,451.5,7.0,440.0,13.5,450.5,29.5,438.5,35.5,440.5,51.0,444.5,67.0,446.5,82.5,447.0,90.5,435.0,106.5,426.5,106.5,428.5,122.5,446.0,120.5,430.0,136.5,417.5,144.5,392.0,152.5,392.0,168.5,386.0,184.5,383.5,209.0,374.0,227.0,360.0,230.5,356.0,246.5,364.0,250.5,364.0,254.5,380.5,254.5,386.5,251.0,403.0,245.0,396.5,253.0,402.5,256.5,422.5,245.0,438.5,234.5,434.5,216.5,439.0,218.0,449.0,229.5,430.5,241.5,444.5,245.0,438.5,261.0,443.0,273.0,459.0,275.0,475.0,259.0" stroke="black" stroke-width="2" fill="none" />
<polyline points="502.0,323.5,494.0,329.5,482.0,313.5,469.5,307.5,467.5,291.5,455.0,286.0,465.0,262.0,463.0,256.0,471.5,249.5,479.5,239.5,495.5,235.5,499.5,233.5,493.5,239.5,489.5,229.5,473.5,249.5,457.0,239.5,453.0,251.5,437.5,241.5,425.5,258.0,420.0,258.0,404.0,262.0,387.5,260.0,371.5,260.0,355.5,258.5,347.5,257.0,331.0,255.0,315.5,255.0,299.5,247.0,286.0,252.5,270.0,250.5,264.0,250.0,248.0,250.0,234.0,248.0,238.0,236.0,243.5,234.0,247.0,217.5,257.0,209.5,255.0,193.5,261.0,183.5,249.5,183.5,237.5,167.0,234.0,153.0,246.0,147.5,256.5,139.5,248.5,132.0,268.5,132.0,270.5,116.0,272.5,98.0,272.5,82.0,276.5,74.0,294.5,60.5,295.0,44.0,282.5,28.0,296.5,12.0,321.0,7.5,309.5,7.5,293.5,13.5" stroke="black" stroke-width="2" fill="none" />
<polyline points="293.0,25.0,309.0,12.5,325.0,4.5,325.0,12.0,316.5,17.5,326.0,35.5,342.0,23.5,360.0,37.0,360.0,29.0" stroke="black" stroke-width="2" fill="none" />
<polyline points="356.0,21.5,358.0,37.0,336.0,45.0,336.5,55.0,328.5,75.0,328.5,90.5,314.5,96.5,326.5,98.0,346.5,110.0,360.0,128.0,380.5,137.5" stroke="black" stroke-width="2" fill="none" />
<polyline points="348.0,123.5,340.5,131.5" stroke="black" stroke-width="2" fill="none" />
<polyline points="339.0,122.5,346.5,115.0" stroke="black" stroke-width="2" fill="none" />
<polyline points="346.5,112.5,348.5,128.5,346.5,154.5,363.0,136.5" stroke="black" stroke-width="2" fill="none" />
<polyline points="347.0,108.5,339.0,108.5" stroke="black" stroke-width="2" fill="none" />
<polyline points="343.0,99.5,359.0,91.0" stroke="black" stroke-width="2" fill="none" />
<polyline points="353.5,90.5,361.5,82.5" stroke="black" stroke-width="2" fill="none" />
<polyline points="362.0,76.0,354.0,83.5,346.0,90.5" stroke="black" stroke-width="2" fill="none" />
<polyline points="348.5,92.0,356.5,92.0" stroke="black" stroke-width="2" fill="none" />
<polyline points="363.0,83.0,354.5,84.0,346.5,84.5" stroke="black" stroke-width="2" fill="none" />
<polyline points="346.5,75.5,354.5,75.0,362.5,75.5" stroke="black" stroke-width="2" fill="none" />
<polyline points="364.0,61.0,355.5,61.5" stroke="black" stroke-width="2" fill="none" />
<polyline points="356.0,61.0,348.0,77.0,348.5,93.0,332.5,112.5,333.0,128.5,335.0,144.5,351.0,136.0" stroke="black" stroke-width="2" fill="none" />
<polyline points="353.5,139.5,346.0,139.5,338.0,140.0,330.0,140.0" stroke="black" stroke-width="2" fill="none" />
<polyline points="329.5,132.5,338.0,132.0,346.5,132.0,355.0,131.5" stroke="black" stroke-width="2" fill="none" />
<polyline points="355.5,125.5,347.0,125.5,339.0,126.0,330.5,126.0" stroke="black" stroke-width="2" fill="none" />
<polyline points="330.0,117.5,338.0,116.5,346.5,116.5,355.0,116.0" stroke="black" stroke-width="2" fill="none" />
<polyline points="333.0,94.0,325.0,101.0" stroke="black" stroke-width="2" fill="none" />
<polyline points="324.5,91.5,332.5,84.0" stroke="black" stroke-width="2" fill="none" />
<polyline points="333.5,76.5,325.5,84.0,317.0,91.0" stroke="black" stroke-width="2" fill="none" />
<polyline points="313.0,95.0,321.5,94.5,329.5,94.0" stroke="black" stroke-width="2" fill="none" />
<polyline points="331.0,68.0,323.0,68.0,314.5,68.0" stroke="black" stroke-width="2" fill="none" />
<polyline points="318.0,55.5,334.0,45.5,347.5,51.5" stroke="black" stroke-width="2" fill="none" />
<polyline points="348.5,55.0,357.0,54.0,365.5,53.5,374.0,52.5" stroke="black" stroke-width="2" fill="none" />
<polyline points="380.5,55.0,388.5,54.5,395.5,53.5,403.0,53.0" stroke="black" stroke-width="2" fill="none" />
<polyline points="403.5,70.5,395.5,71.0,387.0,71.5,379.0,71.5" stroke="black" stroke-width="2" fill="none" />
<polyline points="364.5,67.5,356.5,67.5,349.0,68.0" stroke="black" stroke-width="2" fill="none" />
<polyline points="352.5,59.5,347.0,59.5,337.0,75.5,355.0,65.0,385.0,55.0,395.0,52.5,399.0,68.5,399.0,84.5,405.0,100.5,407.0,116.5,409.0,132.5,411.0,159.0,405.0,175.0,421.0,189.0,427.0,205.0,419.0,221.0,420.5,233.0,422.0,241.0,439.5,241.0" stroke="black" stroke-width="2" fill="none" />
<polyline points="495.5,196.0,487.5,180.5,469.5,174.0,463.5,172.0,451.5,154.0,453.5,138.0,449.0,122.0,461.5,124.0,465.5,108.0,459.5,91.5,452.0,71.5,446.0,51.5,444.5,35.5,438.5,17.5,429.5,35.5,421.5,21.5,405.5,27.5,389.5,34.0,374.0,38.0,358.5,44.5,341.0,50.5,325.5,70.5,317.5,80.5,301.0,92.5,299.0,82.5,287.0,84.5,282.5,72.5,264.0,64.0,271.5,48.5,275.5,32.5,292.0,24.5,284.0,4.5,268.0,12.5" stroke="black" stroke-width="2" fill="none" />
<polyline points="262.0,15.5,264.0,11.5,260.0,27.0,260.0,43.0,251.0,60.5,245.0,70.0,209.0,89.5,173.0,107.5,185.0,123.5,189.0,140.0,175.5,153.5,177.5,164.0,191.5,172.0,185.0,182.0,189.0,194.0,186.5,210.0,198.5,220.5,188.0,236.0,187.5,252.5,184.0,262.5,167.5,273.0,165.5,288.5,151.5,296.5,173.5,306.5,197.5,322.5,173.5,338.5,182.0,322.0,192.0,324.0,200.5,322.0,216.5,327.5,233.0,327.0,248.5,321.0,264.5,319.5,276.5,327.5,282.5,337.5,298.5,335.5,306.5,322.0,312.5,324.0,320.5,306.5,330.0,300.5,346.0,317.0,356.0,336.5,372.0,338.0,382.0,324.0,384.0,338.0,400.0,339.5,411.5,329.5,427.5,333.5,451.5,335.5" stroke="black" stroke-width="2" fill="none" />
<polyline points="510.0,264.0,496.0,272.0,496.0,256.0,490.0,258.0,484.5,256.0,470.0,252.0,454.5,269.5,444.5,257.5,428.5,264.0,416.5,275.5,400.5,275.5,384.0,274.0,368.0,272.5,352.0,270.5,336.5,270.5,320.5,269.0,305.0,269.0,283.0,269.0,269.0,250.5,281.0,234.5,279.0,224.5,285.5,198.5,287.0,182.0,290.5,166.5,300.5,148.5,300.5,132.0,308.5,115.5,308.5,89.5,314.5,71.5,321.0,43.5,337.0,27.5,375.0,7.5,375.5,7.5,359.0,7.5,347.0,17.5,331.0,26.0,314.5,30.0,310.5,54.5,294.0,64.5,278.0,52.5,274.0,48.5,258.0,58.0,246.0,62.5,226.0,62.5,207.5,61.0,227.5,53.0,241.5,37.0,235.5,20.5,235.5,4.5,227.5,10.5" stroke="black" stroke-width="2" fill="none" />
<polyline points="217.5,30.0,211.5,22.0,195.5,10.0" stroke="black" stroke-width="2" fill="none" />
<polyline points="189.5,3.5,205.5,11.0,209.5,3.5,226.0,3.5,234.5,25.5" stroke="black" stroke-width="2" fill="none" />
<polyline points="269.5,35.0,279.5,41.0,285.5,57.0" stroke="black" stroke-width="2" fill="none" />
<polyline points="291.5,78.0,300.0,77.5,308.0,77.0,315.5,76.5,322.5,76.0,330.5,76.0" stroke="black" stroke-width="2" fill="none" />
<polyline points="299.5,92.0,291.5,99.0" stroke="black" stroke-width="2" fill="none" />
<polyline points="291.5,102.0,299.5,101.0" stroke="black" stroke-width="2" fill="none" />
<polyline points="299.5,97.5,291.0,105.0" stroke="black" stroke-width="2" fill="none" />
<polyline points="293.5,92.0,301.5,91.0,309.0,91.0" stroke="black" stroke-width="2" fill="none" />
<polyline points="293.0,84.5,300.5,84.5,308.0,84.0,315.5,83.5,323.0,82.5,330.5,82.0" stroke="black" stroke-width="2" fill="none" />
<polyline points="313.5,115.0,306.0,115.5" stroke="black" stroke-width="2" fill="none" />
<polyline points="304.0,124.0,312.5,124.0" stroke="black" stroke-width="2" fill="none" />
<polyline points="316.0,133.0,308.0,133.5" stroke="black" stroke-width="2" fill="none" />
<polyline points="309.0,142.0,316.5,141.5" stroke="black" stroke-width="2" fill="none" />
<polyline points="317.5,148.5,309.0,149.0" stroke="black" stroke-width="2" fill="none" />
<polyline points="308.5,164.0,300.5,164.5,292.5,165.0" stroke="black" stroke-width="2" fill="none" />
<polyline points="290.5,159.5,298.0,159.0,306.0,158.0" stroke="black" stroke-width="2" fill="none" />
<polyline points="315.0,166.0,323.0,166.0,331.5,165.0,339.5,164.5" stroke="black" stroke-width="2" fill="none" />
<polyline points="318.5,162.5,316.5,178.5,308.5,194.5" stroke="black" stroke-width="2" fill="none" />
<polyline points="307.5,178.5,300.0,178.5,292.0,178.5,284.5,179.0" stroke="black" stroke-width="2" fill="none" />
<polyline points="284.5,173.5,292.0,173.0,300.0,172.0,308.0,171.0" stroke="black" stroke-width="2" fill="none" />
<polyline points="277.5,188.0,269.5,188.5,261.5,189.0" stroke="black" stroke-width="2" fill="none" />
<polyline points="260.5,181.5,268.5,180.5,276.5,180.5" stroke="black" stroke-width="2" fill="none" />
<polyline points="274.5,173.0,266.5,173.5,259.0,174.0" stroke="black" stroke-width="2" fill="none" />
<polyline points="259.5,162.0,267.0,154.5" stroke="black" stroke-width="2" fill="none" />
<polyline points="268.5,146.0,260.5,153.5,252.5,161.5,244.5,169.5" stroke="black" stroke-width="2" fill="none" />
<polyline points="243.5,173.5,252.0,173.0" stroke="black" stroke-width="2" fill="none" />
<polyline points="243.5,162.0,251.0,154.5,259.0,147.0,267.5,139.5" stroke="black" stroke-width="2" fill="none" />
<polyline points="257.5,138.5,250.0,146.0" stroke="black" stroke-width="2" fill="none" />
<polyline points="242.5,138.5,251.0,131.0" stroke="black" stroke-width="2" fill="none" />
<polyline points="243.5,132.0,235.5,139.5,227.0,146.5,219.0,153.5,210.5,161.0" stroke="black" stroke-width="2" fill="none" />
<polyline points="202.5,162.0,211.0,154.0,219.5,146.0,227.5,138.0,235.5,130.5" stroke="black" stroke-width="2" fill="none" />
<polyline points="221.5,130.0,213.0,138.0,204.5,145.5,195.5,153.0,187.0,160.5" stroke="black" stroke-width="2" fill="none" />
<polyline points="189.0,168.0,197.0,160.5,205.0,153.0,212.5,146.0,220.0,138.5" stroke="black" stroke-width="2" fill="none" />
<polyline points="220.0,123.0,212.0,131.0,204.0,139.0,196.0,147.0,188.0,154.5" stroke="black" stroke-width="2" fill="none" />
<polyline points="187.0,148.5,195.5,141.0" stroke="black" stroke-width="2" fill="none" />
<polyline points="186.5,132.5,194.5,131.5,203.0,131.0,211.5,130.5,220.0,130.0,228.5,130.0,236.5,130.0,244.5,130.5,252.0,130.0,260.0,129.5,268.5,129.0,276.5,128.5,285.0,128.0" stroke="black" stroke-width="2" fill="none" />
<polyline points="285.5,124.0,277.5,125.0,269.0,125.5" stroke="black" stroke-width="2" fill="none" />
<polyline points="275.5,109.0,267.5,109.0,259.5,109.5" stroke="black" stroke-width="2" fill="none" />
<polyline points="259.5,102.0,267.5,101.5,276.0,101.0" stroke="black" stroke-width="2" fill="none" />
<polyline points="275.5,92.5,267.5,93.0,260.0,93.5" stroke="black" stroke-width="2" fill="none" />
<polyline points="258.5,86.5,266.5,86.0,274.5,86.0" stroke="black" stroke-width="2" fill="none" />
<polyline points="288.5,80.5,286.5,96.0,292.0,106.0,307.5,90.0" stroke="black" stroke-width="2" fill="none" />
<polyline points="261.0,120.5,252.5,121.0,244.0,121.5,236.0,122.0,228.0,122.0,219.5,122.5,211.5,123.5,203.0,124.5" stroke="black" stroke-width="2" fill="none" />
<polyline points="204.5,117.5,212.0,117.0,219.5,117.0" stroke="black" stroke-width="2" fill="none" />
<polyline points="213.0,120.5,229.0,126.5,245.0,128.5,234.5,144.5,238.0,166.5,254.0,168.5,264.0,166.5,280.0,155.0,295.5,155.0,303.5,151.0,307.0,163.0,299.0,179.0,299.5,195.0,291.5,195.0,288.0,203.0,308.0,195.0,326.0,182.5,330.0,194.5,336.5,196.5,344.5,172.0,360.5,158.0,372.5,158.0,382.5,176.0,378.5,184.0,372.0,202.0,378.0,228.0,376.0,236.0,380.0,248.0" stroke="black" stroke-width="2" fill="none" />
<polyline points="354.5,272.5,332.0,288.5,344.0,314.5,348.5,332.5,372.5,338.5" stroke="black" stroke-width="2" fill="none" />
<polyline points="338.5,329.0,322.5,333.0,338.0,328.5,348.0,326.5,352.0,320.0,348.0,304.0,320.0,285.5,316.0,269.5" stroke="black" stroke-width="2" fill="none" />
<polyline points="258.0,276.5,250.0,284.0,242.0,291.5" stroke="black" stroke-width="2" fill="none" />
<polyline points="244.0,291.0,252.0,290.5" stroke="black" stroke-width="2" fill="none" />
<polyline points="258.5,284.0,274.0,282.0" stroke="black" stroke-width="2" fill="none" />
<polyline points="293.5,271.0,285.5,271.5,277.5,272.0,269.5,272.5,261.0,272.5,253.0,273.0,245.5,273.5,237.5,274.5,228.5,276.0,219.5,277.0,211.0,278.5,203.0,279.5,195.0,279.5" stroke="black" stroke-width="2" fill="none" />
<polyline points="204.5,283.0,212.5,275.5" stroke="black" stroke-width="2" fill="none" />
<polyline points="211.5,269.5,219.5,269.0,227.5,268.5,235.0,268.0" stroke="black" stroke-width="2" fill="none" />
<polyline points="242.5,281.0,250.0,273.5" stroke="black" stroke-width="2" fill="none" />
<polyline points="236.5,301.0,228.5,308.0,220.0,315.0,212.0,322.5" stroke="black" stroke-width="2" fill="none" />
<polyline points="219.0,326.0,227.0,325.5,234.5,325.0,242.0,325.0,250.5,325.5,258.5,325.0" stroke="black" stroke-width="2" fill="none" />
<polyline points="266.0,303.5,264.0,303.0,270.0,303.0,272.5,317.0,264.5,331.0,278.5,337.0" stroke="black" stroke-width="2" fill="none" />
<polyline points="235.0,261.5,226.0,262.0,218.0,262.5" stroke="black" stroke-width="2" fill="none" />
<polyline points="212.5,241.5,220.5,234.5" stroke="black" stroke-width="2" fill="none" />
<polyline points="230.0,228.5,224.0,244.5,228.0,260.5,236.0,272.0,252.5,272.5,254.5,264.5,271.0,266.5" stroke="black" stroke-width="2" fill="none" />
<polyline points="242.5,226.0,250.5,218.5" stroke="black" stroke-width="2" fill="none" />
<polyline points="244.0,224.0,252.0,224.0,260.0,223.5,268.0,223.0" stroke="black" stroke-width="2" fill="none" />
<polyline points="251.5,209.0,243.5,216.5,235.5,224.5" stroke="black" stroke-width="2" fill="none" />
<polyline points="236.0,220.5,244.0,213.0" stroke="black" stroke-width="2" fill="none" />
<polyline points="240.0,210.0,256.0,212.5" stroke="black" stroke-width="2" fill="none" />
<polyline points="250.0,197.5,258.5,197.5,266.5,196.5,274.5,195.5" stroke="black" stroke-width="2" fill="none" />
<polyline points="269.5,203.5,261.0,203.5,253.0,204.0,244.5,204.5,236.5,205.0" stroke="black" stroke-width="2" fill="none" />
<polyline points="219.5,204.0,211.5,204.0" stroke="black" stroke-width="2" fill="none" />
<polyline points="212.0,196.5,220.0,196.5,228.0,196.0" stroke="black" stroke-width="2" fill="none" />
<polyline points="225.5,220.0,242.0,238.0,258.0,228.5" stroke="black" stroke-width="2" fill="none" />
<polyline points="203.5,238.0,211.5,237.5,219.0,237.0,227.0,236.5,235.0,236.0,243.0,235.0,252.0,235.0,261.0,234.5,269.5,234.0,277.5,234.0,285.5,233.0,293.5,233.0,301.0,232.5,308.0,231.5,315.5,230.5,322.5,229.5,330.5,228.5" stroke="black" stroke-width="2" fill="none" />
<polyline points="275.5,163.5,267.5,164.0,259.0,164.5,251.0,165.5,243.0,166.5,235.5,167.5" stroke="black" stroke-width="2" fill="none" />
<polyline points="236.5,172.0,229.0,173.0,221.0,174.0,212.5,174.5" stroke="black" stroke-width="2" fill="none" />
<polyline points="210.0,172.5,208.0,188.5,206.0,204.5,203.5,206.5,219.5,198.5,223.5,176.5" stroke="black" stroke-width="2" fill="none" />
<polyline points="219.5,171.0,221.5,187.0,217.5,203.0,225.5,219.5,211.5,235.5,207.5,253.5" stroke="black" stroke-width="2" fill="none" />
<polyline points="196.0,221.5,203.5,221.0,212.0,221.0,220.0,220.5,228.0,220.0,235.5,220.0,243.5,219.5,252.0,218.5,260.5,218.0,268.5,217.0,276.5,216.5,284.5,215.5,292.5,215.5" stroke="black" stroke-width="2" fill="none" />
<polyline points="275.0,209.0,267.0,210.0,259.0,210.5,251.5,211.0,243.5,211.5,236.0,212.5,228.0,212.5,220.5,212.0,212.5,211.5,204.0,212.0,196.0,212.5" stroke="black" stroke-width="2" fill="none" />
<polyline points="197.5,206.0,189.5,206.5" stroke="black" stroke-width="2" fill="none" />
<polyline points="189.0,198.5,197.0,198.0" stroke="black" stroke-width="2" fill="none" />
<polyline points="203.0,191.5,194.5,191.5,187.0,192.0" stroke="black" stroke-width="2" fill="none" />
<polyline points="181.0,203.5,173.0,204.0" stroke="black" stroke-width="2" fill="none" />
<polyline points="173.5,197.5,181.5,197.0" stroke="black" stroke-width="2" fill="none" />
<polyline points="181.5,189.0,174.0,189.5" stroke="black" stroke-width="2" fill="none" />
<polyline points="170.5,196.5,166.5,212.5,148.0,228.5,138.0,250.5,154.0,246.5,170.0,252.0,188.0,266.0,203.5,265.5,220.0,263.5,240.0,257.5,256.0,259.5,282.0,255.5,304.5,255.5,318.0,239.5,334.0,246.0,350.0,242.0" stroke="black" stroke-width="2" fill="none" />
<polyline points="290.5,136.5,282.0,136.0,274.5,136.0,267.0,136.5,259.0,137.0,250.5,138.0,242.0,139.0,233.5,139.5,225.5,140.5,218.0,140.5,210.0,140.5,202.0,140.5,194.5,140.0,186.5,140.5,178.5,140.5" stroke="black" stroke-width="2" fill="none" />
<polyline points="173.0,149.0,181.0,148.5,189.5,148.0,197.5,147.5,205.5,146.5,213.5,146.0,221.5,145.5,229.5,145.0,237.0,144.5,244.0,144.0,252.0,143.5,260.0,143.5,268.0,143.0,276.0,143.0,283.0,142.5,290.5,142.0" stroke="black" stroke-width="2" fill="none" />
<polyline points="283.0,140.0,275.0,156.0,269.5,180.0,269.5,196.0,263.5,212.0,271.5,229.5,247.5,241.5" stroke="black" stroke-width="2" fill="none" />
<polyline points="186.0,220.5,178.0,220.5" stroke="black" stroke-width="2" fill="none" />
<polyline points="163.0,228.0,171.0,227.5,179.0,227.5,187.0,227.0,195.0,226.5,203.0,226.0,211.5,225.5,220.0,224.5,229.0,224.0,237.5,223.0,245.5,222.5,253.5,222.5,261.0,222.5,268.5,222.0,276.5,221.5,284.5,221.5,293.0,221.5,301.5,221.5,310.0,221.5,318.0,221.0,326.0,221.0" stroke="black" stroke-width="2" fill="none" />
<polyline points="275.0,150.0,267.0,150.5,259.5,151.0,251.5,151.0,244.0,151.5,236.0,152.0,228.5,152.5,220.5,153.5,212.5,154.0,204.5,154.5,196.5,155.0,188.0,155.0,180.0,156.0,172.0,156.5" stroke="black" stroke-width="2" fill="none" />
<polyline points="172.0,164.0,180.0,163.5,188.0,163.5,196.0,163.0,203.5,162.5,211.0,161.5,219.0,161.5,227.5,161.5" stroke="black" stroke-width="2" fill="none" />
<polyline points="227.0,155.5,235.0,148.5" stroke="black" stroke-width="2" fill="none" />
<polyline points="224.5,169.5,231.0,185.5,231.0,193.0,227.0,208.5,221.0,236.5,218.5,248.0,220.0,264.0,229.5,273.5,215.5,289.5,201.5,307.0,205.0,301.0,207.0,309.5" stroke="black" stroke-width="2" fill="none" />
<polyline points="180.5,335.5,168.5,332.0,156.0,328.0,160.0,304.0,182.5,288.0,178.5,278.0,172.5,254.0,175.0,250.0,169.0,224.0,152.5,206.5,160.5,204.5,170.5,188.5,182.5,172.5,186.5,156.5,194.5,142.5,190.5,126.0,184.0,110.0,180.0,117.5" stroke="black" stroke-width="2" fill="none" />
<polyline points="187.5,124.5,195.5,124.5" stroke="black" stroke-width="2" fill="none" />
<polyline points="200.0,141.5,195.5,131.5,197.5,124.0,205.5,108.0,237.5,100.0,221.5,101.5,205.5,105.5" stroke="black" stroke-width="2" fill="none" />
<polyline points="214.0,108.0,221.5,108.0" stroke="black" stroke-width="2" fill="none" />
<polyline points="221.5,104.5,237.5,102.5,235.5,118.5,251.0,118.5,264.5,112.5" stroke="black" stroke-width="2" fill="none" />
<polyline points="234.0,102.5,226.5,103.5,218.5,104.5" stroke="black" stroke-width="2" fill="none" />
<polyline points="185.5,57.5,177.5,61.5,161.5,82.0,145.0,92.0,129.0,86.0" stroke="black" stroke-width="2" fill="none" />
<polyline points="130.5,83.5,122.5,90.5" stroke="black" stroke-width="2" fill="none" />
<polyline points="124.5,94.0,132.0,93.0,140.5,93.0,148.5,92.5" stroke="black" stroke-width="2" fill="none" />
<polyline points="147.5,91.0,139.5,98.5" stroke="black" stroke-width="2" fill="none" />
<polyline points="139.5,92.0,131.5,100.0" stroke="black" stroke-width="2" fill="none" />
<polyline points="130.5,92.0,122.5,99.5" stroke="black" stroke-width="2" fill="none" />
<polyline points="115.0,91.5,122.5,84.0" stroke="black" stroke-width="2" fill="none" />
<polyline points="113.5,84.5,106.0,91.5" stroke="black" stroke-width="2" fill="none" />
<polyline points="99.5,91.5,107.5,84.5" stroke="black" stroke-width="2" fill="none" />
<polyline points="106.0,77.0,114.0,76.5,122.0,76.0,130.0,75.5,138.0,75.0,146.5,74.5" stroke="black" stroke-width="2" fill="none" />
<polyline points="148.5,69.0,141.0,69.5,133.0,70.5,125.5,71.0" stroke="black" stroke-width="2" fill="none" />
<polyline points="124.5,62.5,133.0,62.0,141.0,61.0,149.0,60.0" stroke="black" stroke-width="2" fill="none" />
<polyline points="151.5,57.5,159.5,71.5,145.5,72.0,147.0,86.5,167.0,57.0,183.0,31.0,185.0,35.5,193.0,49.0" stroke="black" stroke-width="2" fill="none" />
<polyline points="169.0,44.5,153.0,52.5,137.0,60.5,127.0,87.0,115.0,73.0,99.0,83.0,82.5,89.0,66.5,97.0,50.5,123.0" stroke="black" stroke-width="2" fill="none" />
<polyline points="56.0,126.5,66.0,129.0,70.0,137.0,66.0,153.5,60.0,161.5" stroke="black" stroke-width="2" fill="none" />
<polyline points="68.0,165.0,76.0,164.5" stroke="black" stroke-width="2" fill="none" />
<polyline points="78.5,162.5,94.5,151.0,111.0,147.0,131.0,152.5,146.5,134.5,162.5,139.0,174.5,151.0" stroke="black" stroke-width="2" fill="none" />
<polyline points="165.5,133.5,157.5,135.5,155.0,151.5,152.0,167.5,146.0,184.0,135.5,206.0,131.5,214.5,123.0,230.5,147.0,241.0,123.5,255.0,130.0,259.0,133.5,275.0,137.0,295.0,153.0,309.0,169.0,291.0,193.0,274.5,209.0,270.0,213.5,275.5,229.5,273.0,247.5,275.0,264.0,277.0,270.0,287.0,286.0,289.5,304.0,289.5,322.0,289.5,338.0,283.5,338.0,275.5,344.5,289.5,359.0,277.0,375.5,279.0,375.5,289.0,389.5,293.0,405.0,291.5,413.0,295.5,400.5,321.5,418.5,311.5,429.0,314.0,441.5,300.5,447.5,290.5,463.5,293.0,463.5,309.0,467.5,323.0" stroke="black" stroke-width="2" fill="none" />
<polyline points="509.0,258.0,499.5,260.0,475.5,245.5,470.0,227.5,468.0,211.5,474.0,201.0,480.0,185.5,478.0,169.0,474.0,153.0,472.0,137.0" stroke="black" stroke-width="2" fill="none" />
<polyline points="471.0,112.0,487.5,100.0" stroke="black" stroke-width="2" fill="none" />
<polyline points="511.0,128.5,510.5,144.5" stroke="black" stroke-width="2" fill="none" />
<polyline points="387.0,46.0,379.5,46.5,371.5,47.0,363.5,47.5,356.0,48.0" stroke="black" stroke-width="2" fill="none" />
<polyline points="381.0,54.0,383.0,70.0,384.5,82.5,400.0,86.5,416.0,95.0,434.0,93.0,460.0,85.0,476.0,85.0,492.0,91.0" stroke="black" stroke-width="2" fill="none" />
<polyline points="358.0,90.5,362.0,74.5,358.5,68.5,366.5,52.5,376.5,46.0,392.5,38.5,378.0,22.5,392.0,4.5,385.5,8.5,369.5,18.5,353.0,19.0" stroke="black" stroke-width="2" fill="none" />
<polyline points="351.5,2.0,343.5,18.0,317.5,40.0,307.5,56.0" stroke="black" stroke-width="2" fill="none" />
<polyline points="290.5,50.5,274.5,28.5" stroke="black" stroke-width="2" fill="none" />
<polyline points="298.5,45.0,300.5,29.0,308.5,13.0" stroke="black" stroke-width="2" fill="none" />
<polyline points="278.0,67.5,262.0,73.0,246.0,77.0,230.0,83.0,214.0,87.0,198.5,93.0,182.5,97.0,167.0,103.5,151.0,95.0" stroke="black" stroke-width="2" fill="none" />
<polyline points="123.0,114.0,115.0,114.5" stroke="black" stroke-width="2" fill="none" />
<polyline points="106.5,107.5,100.5,124.0,96.5,140.0,91.0,156.5,93.0,168.5,91.0,192.5,71.0,209.0,77.0,211.0,75.0,223.0,73.0,229.0,77.0,215.0" stroke="black" stroke-width="2" fill="none" />
<polyline points="76.0,222.0,84.0,221.5,92.5,220.5,101.0,219.5,108.5,218.5,116.0,218.0,123.5,217.5,131.5,216.5,139.5,215.5,147.5,214.5,155.5,214.0,163.5,214.0,171.5,214.0" stroke="black" stroke-width="2" fill="none" />
<polyline points="180.5,213.0,172.5,213.5,164.5,214.0,156.5,214.0" stroke="black" stroke-width="2" fill="none" />
<polyline points="157.5,206.0,165.5,205.5" stroke="black" stroke-width="2" fill="none" />
<polyline points="156.5,198.0,148.5,198.5" stroke="black" stroke-width="2" fill="none" />
<polyline points="139.0,195.0,131.0,202.5" stroke="black" stroke-width="2" fill="none" />
<polyline points="137.0,201.5,129.0,209.0" stroke="black" stroke-width="2" fill="none" />
<polyline points="131.5,218.0,139.5,211.0" stroke="black" stroke-width="2" fill="none" />
<polyline points="139.5,219.0,147.5,211.5" stroke="black" stroke-width="2" fill="none" />
<polyline points="146.0,218.0,138.5,225.5,130.0,232.5" stroke="black" stroke-width="2" fill="none" />
<polyline points="130.0,238.5,138.0,238.5" stroke="black" stroke-width="2" fill="none" />
<polyline points="139.5,233.0,147.0,225.5" stroke="black" stroke-width="2" fill="none" />
<polyline points="146.5,223.5,138.5,224.0" stroke="black" stroke-width="2" fill="none" />
<polyline points="147.5,234.0,163.0,236.0,179.0,240.0,189.0,250.0,205.0,250.5" stroke="black" stroke-width="2" fill="none" />
<polyline points="203.0,267.0,195.5,268.0,187.5,268.5,179.0,269.0,170.5,269.0" stroke="black" stroke-width="2" fill="none" />
<polyline points="181.0,260.0,165.5,268.0,149.5,266.0" stroke="black" stroke-width="2" fill="none" />
<polyline points="140.5,258.0,132.5,258.0,124.5,258.0,117.0,258.0,109.0,258.0,101.5,258.0,93.5,258.5,85.5,259.0,77.5,259.5,69.5,260.0" stroke="black" stroke-width="2" fill="none" />
<polyline points="76.0,254.0,84.0,253.5,92.0,252.5,100.0,251.5,107.5,250.5,115.5,249.5,123.5,249.0,131.5,248.0,139.5,247.5,147.0,247.0" stroke="black" stroke-width="2" fill="none" />
<polyline points="139.0,244.5,131.5,244.5,123.5,245.5" stroke="black" stroke-width="2" fill="none" />
<polyline points="123.5,249.5,115.5,257.5,107.0,265.5" stroke="black" stroke-width="2" fill="none" />
<polyline points="115.5,269.0,123.5,261.0,131.0,253.0" stroke="black" stroke-width="2" fill="none" />
<polyline points="132.5,269.5,148.5,283.5,164.5,289.5" stroke="black" stroke-width="2" fill="none" />
<polyline points="170.0,298.5,186.5,288.5,202.5,286.5,204.0,282.0,234.0,266.0,250.0,268.5,266.0,270.5,282.5,274.5" stroke="black" stroke-width="2" fill="none" />
<polyline points="180.0,245.5,172.0,246.0,164.0,247.0" stroke="black" stroke-width="2" fill="none" />
<polyline points="163.0,237.5,171.0,237.0,179.0,236.0,187.5,235.0,196.0,234.5" stroke="black" stroke-width="2" fill="none" />
<polyline points="154.5,224.0,146.5,225.0,138.0,226.0,130.0,227.5,121.5,228.5,113.5,229.5,106.0,230.0,98.5,230.5,91.0,231.0" stroke="black" stroke-width="2" fill="none" />
<polyline points="89.5,237.0,97.5,236.5,105.5,236.0,113.5,236.0" stroke="black" stroke-width="2" fill="none" />
<polyline points="116.0,234.0,124.5,227.0" stroke="black" stroke-width="2" fill="none" />
<polyline points="124.0,218.5,115.5,226.0,107.5,233.5" stroke="black" stroke-width="2" fill="none" />
<polyline points="105.5,226.5,98.0,234.0" stroke="black" stroke-width="2" fill="none" />
<polyline points="106.5,244.5,114.5,244.0" stroke="black" stroke-width="2" fill="none" />
<polyline points="114.0,251.0,106.0,258.5,99.0,265.5" stroke="black" stroke-width="2" fill="none" />
<polyline points="89.5,265.5,97.5,258.5,105.5,250.5" stroke="black" stroke-width="2" fill="none" />
<polyline points="105.0,220.0,112.5,213.0" stroke="black" stroke-width="2" fill="none" />
<polyline points="105.5,212.0,97.0,219.5" stroke="black" stroke-width="2" fill="none" />
<polyline points="91.5,218.5,100.0,211.5,108.5,204.5" stroke="black" stroke-width="2" fill="none" />
<polyline points="108.5,196.5,100.5,203.5" stroke="black" stroke-width="2" fill="none" />
<polyline points="91.5,211.5,83.5,219.5" stroke="black" stroke-width="2" fill="none" />
<polyline points="68.0,209.0,76.0,201.5,84.0,194.5,92.0,187.0" stroke="black" stroke-width="2" fill="none" />
<polyline points="84.0,189.0,76.0,196.5,67.5,204.0,59.0,211.5,50.5,218.5,42.0,225.5" stroke="black" stroke-width="2" fill="none" />
<polyline points="44.0,230.0,52.5,229.5,60.5,229.0" stroke="black" stroke-width="2" fill="none" />
<polyline points="53.5,226.0,61.5,218.5" stroke="black" stroke-width="2" fill="none" />
<polyline points="61.5,215.0,55.5,230.5,73.5,246.5,89.5,242.5,95.5,228.0,111.0,223.5" stroke="black" stroke-width="2" fill="none" />
<polyline points="115.5,196.5,123.5,196.5,132.0,195.5,139.5,195.5" stroke="black" stroke-width="2" fill="none" />
<polyline points="131.5,179.0,123.5,179.5,115.0,180.0,107.0,180.5,99.5,180.5" stroke="black" stroke-width="2" fill="none" />
<polyline points="106.5,178.5,114.0,171.0" stroke="black" stroke-width="2" fill="none" />
<polyline points="114.5,164.5,106.5,172.0,99.0,180.0" stroke="black" stroke-width="2" fill="none" />
<polyline points="100.5,170.0,109.0,162.0" stroke="black" stroke-width="2" fill="none" />
<polyline points="97.0,157.0,105.5,156.5,113.5,156.0,122.5,155.0,131.5,154.0,140.5,153.5,148.5,153.0" stroke="black" stroke-width="2" fill="none" />
<polyline points="132.0,171.5,124.0,171.5,116.0,172.0,107.5,172.5,99.0,173.5,90.5,174.0" stroke="black" stroke-width="2" fill="none" />
<polyline points="84.0,166.5,92.0,166.0,100.0,165.5,108.5,165.0,117.0,164.5,124.5,163.5,133.0,163.5,141.0,162.5" stroke="black" stroke-width="2" fill="none" />
<polyline points="126.0,179.0,122.0,195.0,114.5,211.0,120.5,199.5,137.0,188.0,157.0,186.5" stroke="black" stroke-width="2" fill="none" />
<polyline points="180.0,173.0,188.0,172.0,196.0,172.0,204.0,171.5" stroke="black" stroke-width="2" fill="none" />
<polyline points="203.5,181.5,195.5,181.5" stroke="black" stroke-width="2" fill="none" />
<polyline points="194.5,168.5,187.0,169.5" stroke="black" stroke-width="2" fill="none" />
<polyline points="157.0,182.5,149.5,183.0,142.0,183.5,134.0,183.5,125.5,184.5,117.5,185.0,109.5,186.0,101.5,186.0,93.5,186.5,85.0,186.5,77.0,187.0,68.5,187.5,60.0,188.0,52.0,188.5,44.0,189.5" stroke="black" stroke-width="2" fill="none" />
<polyline points="45.0,188.0,53.5,180.5" stroke="black" stroke-width="2" fill="none" />
<polyline points="51.5,186.0,59.5,185.5" stroke="black" stroke-width="2" fill="none" />
<polyline points="60.0,184.5,68.0,177.0" stroke="black" stroke-width="2" fill="none" />
<polyline points="59.5,178.5,51.0,186.0,42.5,194.0" stroke="black" stroke-width="2" fill="none" />
<polyline points="44.5,193.0,52.5,192.5" stroke="black" stroke-width="2" fill="none" />
<polyline points="52.0,196.5,43.5,204.0" stroke="black" stroke-width="2" fill="none" />
<polyline points="36.0,207.0,43.5,206.5,51.0,206.0,58.5,204.5,66.5,203.5,74.0,203.0,82.5,202.5,91.0,202.0,99.5,201.5,108.0,201.5,116.0,201.0,124.0,200.5,132.5,199.5,141.0,198.5,148.5,197.5" stroke="black" stroke-width="2" fill="none" />
<polyline points="149.0,207.0,141.0,208.0,133.0,208.5,125.0,209.0,117.0,209.5,109.0,209.0,101.0,210.0,93.0,210.5,85.0,211.0,77.0,211.5,69.0,212.0,61.0,213.0,53.0,213.5,45.0,214.5,36.5,215.0,28.5,215.5" stroke="black" stroke-width="2" fill="none" />
<polyline points="30.5,220.0,22.5,227.5" stroke="black" stroke-width="2" fill="none" />
<polyline points="21.0,229.5,28.5,229.0,36.0,229.0" stroke="black" stroke-width="2" fill="none" />
<polyline points="34.5,227.5,43.0,220.0,51.0,213.0" stroke="black" stroke-width="2" fill="none" />
<polyline points="50.5,215.5,58.5,215.5" stroke="black" stroke-width="2" fill="none" />
<polyline points="60.5,212.0,68.5,211.0" stroke="black" stroke-width="2" fill="none" />
<polyline points="69.5,200.0,77.5,199.0,85.0,199.0" stroke="black" stroke-width="2" fill="none" />
<polyline points="84.0,194.0,76.0,194.5" stroke="black" stroke-width="2" fill="none" />
<polyline points="76.0,187.0,68.0,195.0,60.5,202.5" stroke="black" stroke-width="2" fill="none" />
<polyline points="45.5,212.0,37.0,219.5,28.5,227.0" stroke="black" stroke-width="2" fill="none" />
<polyline points="26.0,226.5,18.0,226.5" stroke="black" stroke-width="2" fill="none" />
<polyline points="13.0,227.0,21.0,219.5" stroke="black" stroke-width="2" fill="none" />
<polyline points="4.0,221.0,11.5,221.0,20.0,220.5,28.0,220.0,36.5,219.0,44.5,218.0,52.5,217.0,60.5,217.0,69.0,216.0" stroke="black" stroke-width="2" fill="none" />
<polyline points="58.5,223.0,50.5,223.5" stroke="black" stroke-width="2" fill="none" />
<polyline points="60.0,238.0,68.0,237.5,75.5,237.5" stroke="black" stroke-width="2" fill="none" />
<polyline points="43.5,251.0,45.5,265.0,65.0,259.0,81.0,257.0,95.0,247.0,111.0,243.0" stroke="black" stroke-width="2" fill="none" />
<polyline points="149.5,232.0,166.0,232.0,182.0,220.0" stroke="black" stroke-width="2" fill="none" />
<polyline points="200.0,215.0,192.5,201.0,199.0,185.0,209.5,169.0,203.5,167.0,199.5,159.0,197.5,153.0,185.5,166.5,169.5,172.5,169.0,146.0,144.5,169.5,130.5,159.5,115.0,155.5,109.0,165.5,93.5,183.0,79.5,175.0,75.5,187.0,67.0,187.0,72.5,189.5,70.0,173.5,76.0,157.5,90.0,141.5,92.0,125.5,94.0,109.5,112.0,93.0,94.0,109.0" stroke="black" stroke-width="2" fill="none" />
<polyline points="93.0,109.0,101.0,108.5" stroke="black" stroke-width="2" fill="none" />
<polyline points="85.0,99.0,93.5,91.0" stroke="black" stroke-width="2" fill="none" />
<polyline points="93.0,86.5,101.0,86.0,109.0,85.5,117.5,85.0,125.5,85.0,133.0,84.5,141.5,84.0,150.0,83.0" stroke="black" stroke-width="2" fill="none" />
<polyline points="148.0,46.5,140.5,46.5,132.5,47.0" stroke="black" stroke-width="2" fill="none" />
<polyline points="123.0,51.5,131.0,50.5,138.5,50.5,146.5,50.0" stroke="black" stroke-width="2" fill="none" />
<polyline points="142.5,21.5,142.5,37.0,134.5,52.5,144.0,56.5,132.5,75.0,128.5,99.0,134.5,114.5,120.0,130.5,122.0,146.0,115.5,170.0,97.5,178.0,96.0,194.0,108.0,214.0,104.0,226.0,84.0,234.0,92.0,240.0,80.0,246.0,86.5,220.0,97.0,214.0,112.5,204.0,118.5,180.5,124.5,164.0,136.5,168.5,150.5,194.5,170.5,186.5,184.5,182.5,196.5,176.5,212.0,158.0,228.0,158.0,244.0,158.0,246.0,143.5,262.0,144.0,274.5,136.0" stroke="black" stroke-width="2" fill="none" />
<polyline points="144.5,120.5,136.5,123.0,120.5,129.0" stroke="black" stroke-width="2" fill="none" />
<polyline points="106.0,147.5,98.0,148.0" stroke="black" stroke-width="2" fill="none" />
<polyline points="91.5,118.0,83.5,118.5,76.0,119.0" stroke="black" stroke-width="2" fill="none" />
<polyline points="67.5,110.0,75.0,109.5,83.5,109.0" stroke="black" stroke-width="2" fill="none" />
<polyline points="76.0,98.5,68.0,106.0" stroke="black" stroke-width="2" fill="none" />
<polyline points="68.5,103.0,76.5,102.5,84.5,102.0,92.0,101.5" stroke="black" stroke-width="2" fill="none" />
<polyline points="100.0,92.5,91.5,93.0,83.5,94.0,76.0,94.5" stroke="black" stroke-width="2" fill="none" />
<polyline points="65.0,104.0,81.0,98.5,95.0,106.0,111.0,96.0" stroke="black" stroke-width="2" fill="none" />
<polyline points="102.0,76.5,93.5,77.5" stroke="black" stroke-width="2" fill="none" />
<polyline points="97.5,76.0,100.0,68.0" stroke="black" stroke-width="2" fill="none" />
<polyline points="110.5,36.5,95.0,32.5" stroke="black" stroke-width="2" fill="none" />
<polyline points="83.5,12.5,75.5,13.0" stroke="black" stroke-width="2" fill="none" />
<polyline points="72.5,11.0,88.5,21.0,104.5,20.5" stroke="black" stroke-width="2" fill="none" />
<polyline points="118.0,26.0,102.0,8.0,94.0,25.5,78.0,29.5,68.0,31.5,62.5,27.5,46.5,30.0,33.0,64.0,21.0,88.0,8.5,86.0,6.5,70.0,20.0,64.5,6.0,56.5,4.0,41.0" stroke="black" stroke-width="2" fill="none" />
<polyline points="7.5,46.5,23.5,72.5" stroke="black" stroke-width="2" fill="none" />
<polyline points="33.0,61.0,41.5,45.0" stroke="black" stroke-width="2" fill="none" />
<polyline points="59.5,38.0,71.5,54.0,55.5,70.0,49.5,86.0,57.0,76.0,71.0,60.0,85.0,68.0,95.0,57.5,113.5,63.5,129.5,39.5,145.5,15.0,161.5,15.0" stroke="black" stroke-width="2" fill="none" />
<polyline points="158.5,19.5,142.5,19.0" stroke="black" stroke-width="2" fill="none" />
<polyline points="143.5,17.0,133.5,33.0,125.0,48.5,119.0,64.5,100.5,80.5,96.5,104.5,86.5,100.0,76.0,116.0,62.0,128.5,58.0,144.5,54.0,160.5,48.0,166.5,42.0,184.5,58.0,194.0,52.5,210.5,44.5,226.5,45.0,254.5,37.0,250.5,45.5,266.5,53.0,277.0,51.0,285.0,57.0,297.0,51.0,313.0,52.5,328.5,42.5,338.5,56.0,332.5,54.0,320.5,70.0,324.5,98.0,318.5,114.0,330.5,124.0,312.5,140.5,310.5,162.5,308.5,178.0,300.0,196.0,312.0,212.0,318.5,236.0,330.5,250.5,334.5,262.5,334.0,272.5,337.5" stroke="black" stroke-width="2" fill="none" />
<polyline points="200.0,256.0,180.0,270.5,166.0,258.5,150.0,261.0,134.0,264.5,118.0,266.5,101.5,268.5,85.0,266.5,69.0,264.0,52.5,264.0" stroke="black" stroke-width="2" fill="none" />
<polyline points="32.0,256.0,52.0,282.0,67.5,274.0,73.5,278.5,89.5,290.5,105.5,302.5,115.5,300.5" stroke="black" stroke-width="2" fill="none" />
<polyline points="107.0,308.5,91.5,298.5,75.5,286.5" stroke="black" stroke-width="2" fill="none" />
<polyline points="82.5,283.0,96.5,298.5,116.0,302.5,116.0,318.5,124.0,334.0" stroke="black" stroke-width="2" fill="none" />
<polyline points="131.5,322.0,122.0,322.0,111.5,312.0,105.5,307.5,83.5,301.5,77.5,285.5,73.5,281.5,55.5,271.5,39.5,281.5,23.5,269.5,7.5,261.5" stroke="black" stroke-width="2" fill="none" />
<polyline points="1.0,271.0,17.0,281.5,33.0,283.5,39.0,293.0,55.0,295.0,71.0,297.0,87.5,309.0,104.0,315.5" stroke="black" stroke-width="2" fill="none" />
<polyline points="95.0,322.0,121.0,338.0" stroke="black" stroke-width="2" fill="none" />
<polyline points="80.5,311.0,64.5,299.0,48.0,313.5,33.5,313.5,17.0,302.0,16.5,292.0,0.5,276.0" stroke="black" stroke-width="2" fill="none" />
<polyline points="0.5,249.5,17.0,246.0,19.0,241.5,37.5,234.0,54.0,230.0,70.5,208.0,86.5,196.0" stroke="black" stroke-width="2" fill="none" />
<polyline points="92.0,178.0,84.5,178.0,76.5,179.0,68.5,179.0,60.0,179.5,52.0,180.0,44.0,180.0" stroke="black" stroke-width="2" fill="none" />
<polyline points="44.0,174.5,52.0,174.0,60.0,173.5,68.5,173.0,76.5,172.5" stroke="black" stroke-width="2" fill="none" />
<polyline points="66.5,140.5,58.0,141.0,50.0,141.5" stroke="black" stroke-width="2" fill="none" />
<polyline points="51.5,131.5,59.5,131.5,67.5,131.0,75.5,130.5,83.5,130.0,91.5,130.0" stroke="black" stroke-width="2" fill="none" />
<polyline points="90.5,123.0,82.0,124.0,74.0,124.5,65.5,125.0,57.5,126.0" stroke="black" stroke-width="2" fill="none" />
<polyline points="61.5,119.0,77.5,117.0,73.5,131.5,75.5,147.5,72.0,151.5,65.5,168.0,90.0,176.0,82.0,170.5,98.5,160.5,104.5,152.0,102.5,180.0,142.0,168.0,140.5,184.5,128.5,200.5,124.5,216.5" stroke="black" stroke-width="2" fill="none" />
<polyline points="130.5,209.0,112.5,209.5,116.5,193.5" stroke="black" stroke-width="2" fill="none" />
<polyline points="108.0,194.0,100.0,194.5,92.5,194.5,84.5,194.5,76.5,195.5,68.5,196.0,60.5,197.0,52.0,197.5,43.5,198.0,35.0,198.5" stroke="black" stroke-width="2" fill="none" />
<polyline points="29.5,202.0,45.5,201.5,53.5,189.5" stroke="black" stroke-width="2" fill="none" />
<polyline points="79.5,155.5,63.0,176.0,55.0,175.5,43.0,181.5,29.0,199.5,37.0,184.0,27.0,170.5,20.0,155.0,46.0,143.0,50.0,127.5,54.0,111.5,66.0,97.5,90.0,80.5,96.0,60.0,108.0,48.0,112.0,31.5,108.5,31.0,102.5,19.0,84.5,15.0,80.5,3.0,64.0,3.0" stroke="black" stroke-width="2" fill="none" />
<polyline points="69.5,6.5,77.5,6.0" stroke="black" stroke-width="2" fill="none" />
<polyline points="94.5,1.0,97.0,17.5,109.0,20.0,113.0,44.0,107.0,59.5,102.5,87.5,63.0,107.5,57.0,121.5,53.5,137.0,49.5,153.0,43.5,155.0,33.5,171.0" stroke="black" stroke-width="2" fill="none" />
<polyline points="35.0,172.5,18.5,164.5" stroke="black" stroke-width="2" fill="none" />
<polyline points="1.0,216.0,16.5,216.0,32.5,212.0,45.0,212.0" stroke="black" stroke-width="2" fill="none" />
<polyline points="70.5,233.0,54.5,243.0,39.0,245.0" stroke="black" stroke-width="2" fill="none" />
<polyline points="25.5,233.0,18.0,221.0,2.0,231.0" stroke="black" stroke-width="2" fill="none" />
<polyline points="4.5,241.5,6.5,258.0,14.5,274.0,14.5,286.0,5.0,302.0,7.0,312.0,22.5,312.0,18.0,322.0,23.5,338.0" stroke="black" stroke-width="2" fill="none" />
<polyline points="16.0,324.5,14.0,312.5" stroke="black" stroke-width="2" fill="none" />
<polyline points="12.0,307.5,28.0,315.5" stroke="black" stroke-width="2" fill="none" />
<polyline points="46.0,308.5,53.5,308.0" stroke="black" stroke-width="2" fill="none" />
<polyline points="51.0,311.0,67.0,311.0" stroke="black" stroke-width="2" fill="none" />
<polyline points="62.5,294.5,68.5,310.5,90.5,314.5,114.5,330.5" stroke="black" stroke-width="2" fill="none" />
<polyline points="139.0,306.5,133.0,290.5" stroke="black" stroke-width="2" fill="none" />
<polyline points="136.5,277.0,146.0,281.0,146.0,297.0,152.0,313.0,142.0,317.0,148.0,327.0,158.0,339.0" stroke="black" stroke-width="2" fill="none" />
<polyline points="52.5,301.5,44.5,302.0" stroke="black" stroke-width="2" fill="none" />
<polyline points="22.5,300.0,22.5,292.5" stroke="black" stroke-width="2" fill="none" />
<polyline points="38.0,323.5,24.0,307.5,32.5,301.5,15.0,297.5,21.0,279.0,17.5,265.0,9.5,249.0" stroke="black" stroke-width="2" fill="none" />
<polyline points="56.5,115.5,64.5,115.0" stroke="black" stroke-width="2" fill="none" />
<polyline points="70.5,25.5,76.0,42.0,74.5,58.0,82.5,68.0,92.5,93.5,108.5,87.5,120.5,91.5,137.0,99.5,153.0,107.0,175.0,119.0,183.5,111.0,199.5,107.0,213.0,93.0,229.0,89.5" stroke="black" stroke-width="2" fill="none" />
<polyline points="177.5,15.0,179.5,31.0,175.0,46.5,179.0,48.5,159.0,64.5,171.0,68.5,158.5,84.5,154.5,100.5,160.5,117.0,148.5,133.0,144.5,149.0,140.5,163.0,130.5,179.0,126.5,179.0,118.5,185.0,106.5,191.0,100.5,194.5,99.0,210.5,81.0,226.5,69.0,226.5,78.5,246.5,93.0,252.5,109.0,258.5,123.0,258.0,138.5,246.0,154.5,241.5,178.0,229.5,188.0,235.5,200.0,242.0,214.0,246.0,218.0,232.0" stroke="black" stroke-width="2" fill="none" />
<polyline points="235.5,333.5,251.5,333.5,244.0,331.5,238.0,315.5,250.0,304.0,237.5,296.5,231.5,284.5,223.0,299.0,206.5,303.0,194.5,303.0,180.5,313.0,174.5,317.0,158.0,319.0,154.0,335.0,137.5,335.0,131.5,323.0,123.0,331.0,115.0,337.5,99.5,325.5,83.5,325.5,73.5,333.5,57.5,325.5,39.5,303.5,27.5,287.5,33.5,281.0,35.5,265.0,29.5,248.5,25.5,236.5,30.0,224.5,41.5,215.0,31.0,207.0,29.0,183.0,17.0,167.5,13.0,151.0,9.0,147.0,3.0,134.5,7.5,118.0,3.5,115.5,11.5,99.5,21.5,83.5,37.5,68.0,46.0,51.5,54.0,35.5,69.5,19.5,75.5,13.0,60.0,16.5,44.0,18.5,28.0,4.5,12.0,2.5" stroke="black" stroke-width="2" fill="none" />
<polyline points="18.5,6.0,11.0,6.5,3.0,6.5" stroke="black" stroke-width="2" fill="none" />
<polyline points="1.0,12.0,9.5,12.0,18.0,12.0,26.0,11.5,33.5,11.0,41.5,10.0" stroke="black" stroke-width="2" fill="none" />
<polyline points="51.0,26.0,43.0,26.5,35.0,26.5,27.5,26.0,19.5,26.0,11.0,26.5,3.0,27.0" stroke="black" stroke-width="2" fill="none" />
<polyline points="2.5,19.0,10.5,18.5,19.0,18.5,27.0,18.5,35.5,18.0,43.5,18.0,50.5,17.5" stroke="black" stroke-width="2" fill="none" />
<polyline points="39.0,22.0,23.0,26.0,7.0,20.0" stroke="black" stroke-width="2" fill="none" />
<polyline points="172.5,11.0,172.5,27.0,170.5,43.0,160.5,58.5,144.0,62.5,124.0,76.0,116.0,82.5,138.5,94.5,140.5,114.5,154.5,116.5,176.5,124.5,178.5,140.5,170.0,144.5,164.0,160.5,152.0,184.5,150.0,200.0,144.0,216.0,133.5,223.5,120.0,233.5,106.0,249.5,106.0,245.5,118.0,235.5,134.5,233.5,152.0,223.5,158.0,228.0,158.0,222.0,171.5,206.0,196.0,180.0,212.0,173.5,222.5,163.5,238.5,185.5" stroke="black" stroke-width="2" fill="none" />
<polyline points="217.5,51.5,212.0,51.5,236.0,49.5,230.0,29.5,214.0,19.0,220.0,8.5,210.0,0.5,195.5,0.5" stroke="black" stroke-width="2" fill="none" />
<polyline points="189.5,0.5,203.5,16.5,213.5,33.0,220.0,33.5,212.0,55.5,210.0,65.5,207.5,67.5,223.0,55.5,228.5,29.0" stroke="black" stroke-width="2" fill="none" />
</svg>