<svg xmlns="http://www.w3.org/2000/svg" version="1.1"><polyline points="11.5,3.0,9.5,23.0,19.0,25.5,26.0,32.5,6.0,47.5,16.0,67.0,3.5,79.5,16.5,61.5,34.0,54.0" stroke="black" stroke-width="2" fill="none" />
<polyline points="45.5,59.5,37.5,60.5,29.5,61.0,21.5,61.0" stroke="black" stroke-width="2" fill="none" />
<polyline points="13.5,62.0,5.5,62.5" stroke="black" stroke-width="2" fill="none" />
<polyline points="4.5,54.5,12.5,54.5,20.5,54.0" stroke="black" stroke-width="2" fill="none" />
<polyline points="28.0,45.0,20.0,45.5,12.0,46.5,4.5,47.0" stroke="black" stroke-width="2" fill="none" />
<polyline points="1.0,42.5,21.0,44.5,41.0,34.5,61.0,39.5,74.0,42.0,79.0,62.0,84.0,82.0,61.5,102.0,56.5,121.5,49.0,124.0,41.5,144.0,16.5,144.0,14.0,151.5,19.0,171.5,4.0,194.0,19.0,176.5,31.5,161.5,56.5,121.5,69.0,94.5,89.5,84.5,106.5,89.5,127.0,97.0,147.0,107.0,174.5,119.5,189.5,109.0,189.0,122.0,191.5,127.0,214.0,122.0,234.0,102.0,204.0,115.0,211.0,123.0,206.5,142.5,229.0,132.5,234.5,140.0,247.0,130.0,277.5,122.5,310.0,117.0,345.0,110.0,330.0,125.0,332.0,145.0,337.0,145.0,364.5,157.0,397.0,152.0,417.0,144.5" stroke="black" stroke-width="2" fill="none" />
<polyline points="410.0,143.0,418.5,142.5,427.0,141.5" stroke="black" stroke-width="2" fill="none" />
<polyline points="422.0,131.0,430.0,123.5" stroke="black" stroke-width="2" fill="none" />
<polyline points="429.5,115.0,421.5,122.5,413.0,130.5" stroke="black" stroke-width="2" fill="none" />
<polyline points="411.0,125.5,418.5,125.0,426.5,125.0,434.5,125.0,442.5,125.0" stroke="black" stroke-width="2" fill="none" />
<polyline points="452.0,124.0,460.0,123.5" stroke="black" stroke-width="2" fill="none" />
<polyline points="459.5,133.0,451.5,133.0" stroke="black" stroke-width="2" fill="none" />
<polyline points="457.5,140.0,460.0,160.0,487.5,140.5,500.0,125.5" stroke="black" stroke-width="2" fill="none" />
<polyline points="497.5,118.0,506.0,117.5" stroke="black" stroke-width="2" fill="none" />
<polyline points="508.0,117.0,493.0,137.0" stroke="black" stroke-width="2" fill="none" />
<polyline points="507.0,111.0,515.5,110.5" stroke="black" stroke-width="2" fill="none" />
<polyline points="513.5,101.0,505.5,102.0,497.5,102.5" stroke="black" stroke-width="2" fill="none" />
<polyline points="490.0,100.0,481.5,100.5" stroke="black" stroke-width="2" fill="none" />
<polyline points="482.5,92.5,490.0,92.0,498.0,91.5,506.0,92.0,515.0,92.0" stroke="black" stroke-width="2" fill="none" />
<polyline points="514.5,84.5,506.0,85.0,497.5,85.0" stroke="black" stroke-width="2" fill="none" />
<polyline points="499.5,78.5,507.5,78.0,515.5,77.0" stroke="black" stroke-width="2" fill="none" />
<polyline points="517.5,69.0,509.5,70.0,502.0,71.0" stroke="black" stroke-width="2" fill="none" />
<polyline points="498.5,64.5,498.5,84.5,488.5,97.0,466.0,119.5,483.0,127.0,493.0,102.0" stroke="black" stroke-width="2" fill="none" />
<polyline points="488.0,97.0,483.0,94.5,478.5,107.0,458.5,89.5" stroke="black" stroke-width="2" fill="none" />
<polyline points="459.0,69.5,467.5,69.0" stroke="black" stroke-width="2" fill="none" />
<polyline points="475.0,61.5,467.0,62.5,458.5,63.0" stroke="black" stroke-width="2" fill="none" />
<polyline points="460.0,53.5,468.0,53.0,476.0,52.0" stroke="black" stroke-width="2" fill="none" />
<polyline points="477.5,51.5,457.0,72.0,457.5,94.5,460.0,114.5,470.0,136.5,467.5,156.5,470.0,176.5,488.0,181.5,483.0,198.5,483.0,216.0,478.5,243.5,481.0,263.5,473.0,263.5,475.5,284.0,477.5,304.0,492.0,329.0" stroke="black" stroke-width="2" fill="none" />
<polyline points="493.0,325.0,485.0,333.0" stroke="black" stroke-width="2" fill="none" />
<polyline points="482.0,333.0,490.5,332.5,499.0,332.0,507.0,331.5,515.0,330.5" stroke="black" stroke-width="2" fill="none" />
<polyline points="517.5,332.0,509.0,339.5" stroke="black" stroke-width="2" fill="none" />
<polyline points="505.5,332.0,497.5,339.5" stroke="black" stroke-width="2" fill="none" />
<polyline points="500.5,339.0,508.5,338.0,517.0,336.5" stroke="black" stroke-width="2" fill="none" />
<polyline points="497.5,332.5,490.0,340.0" stroke="black" stroke-width="2" fill="none" />
<polyline points="481.5,324.0,474.0,331.5" stroke="black" stroke-width="2" fill="none" />
<polyline points="469.5,331.0,477.5,324.0" stroke="black" stroke-width="2" fill="none" />
<polyline points="490.0,317.5,498.0,316.5" stroke="black" stroke-width="2" fill="none" />
<polyline points="498.5,307.0,490.5,307.5" stroke="black" stroke-width="2" fill="none" />
<polyline points="482.0,309.0,474.5,309.5" stroke="black" stroke-width="2" fill="none" />
<polyline points="474.0,301.0,481.5,300.5" stroke="black" stroke-width="2" fill="none" />
<polyline points="483.0,292.5,475.0,293.0" stroke="black" stroke-width="2" fill="none" />
<polyline points="467.5,285.5,475.5,284.5,483.5,284.0" stroke="black" stroke-width="2" fill="none" />
<polyline points="490.5,284.5,499.0,284.5,507.5,283.5,515.5,283.0" stroke="black" stroke-width="2" fill="none" />
<polyline points="516.5,276.0,508.5,284.0" stroke="black" stroke-width="2" fill="none" />
<polyline points="508.5,277.0,516.5,269.5" stroke="black" stroke-width="2" fill="none" />
<polyline points="516.0,261.5,508.0,269.5,501.0,277.0,493.0,284.0" stroke="black" stroke-width="2" fill="none" />
<polyline points="490.0,275.0,498.5,268.0,506.0,260.5" stroke="black" stroke-width="2" fill="none" />
<polyline points="508.0,252.5,516.0,245.5" stroke="black" stroke-width="2" fill="none" />
<polyline points="508.0,244.0,516.5,236.5" stroke="black" stroke-width="2" fill="none" />
<polyline points="514.0,227.5,506.0,235.0" stroke="black" stroke-width="2" fill="none" />
<polyline points="507.0,226.5,515.0,226.0" stroke="black" stroke-width="2" fill="none" />
<polyline points="513.5,218.0,505.5,225.5" stroke="black" stroke-width="2" fill="none" />
<polyline points="498.0,226.5,506.0,219.5,514.0,212.5" stroke="black" stroke-width="2" fill="none" />
<polyline points="506.0,212.5,498.0,219.5,490.5,226.5" stroke="black" stroke-width="2" fill="none" />
<polyline points="483.0,232.5,474.5,240.5,466.0,248.5,458.0,256.5,450.0,264.0" stroke="black" stroke-width="2" fill="none" />
<polyline points="459.5,266.0,467.0,258.5" stroke="black" stroke-width="2" fill="none" />
<polyline points="468.5,267.5,477.0,260.0" stroke="black" stroke-width="2" fill="none" />
<polyline points="483.5,269.5,491.5,261.5" stroke="black" stroke-width="2" fill="none" />
<polyline points="497.5,259.5,489.5,267.5" stroke="black" stroke-width="2" fill="none" />
<polyline points="476.5,275.0,468.5,283.5" stroke="black" stroke-width="2" fill="none" />
<polyline points="443.0,265.5,451.5,258.0,459.5,250.5,468.0,243.0" stroke="black" stroke-width="2" fill="none" />
<polyline points="459.0,243.5,450.5,250.5,443.0,258.5" stroke="black" stroke-width="2" fill="none" />
<polyline points="435.5,258.0,443.5,250.5,451.5,242.5" stroke="black" stroke-width="2" fill="none" />
<polyline points="435.0,243.5,426.5,251.0" stroke="black" stroke-width="2" fill="none" />
<polyline points="428.5,260.0,436.5,252.5" stroke="black" stroke-width="2" fill="none" />
<polyline points="427.5,219.5,435.5,212.0" stroke="black" stroke-width="2" fill="none" />
<polyline points="429.5,217.0,414.5,229.5,397.0,237.0,394.5,237.0,394.5,217.0,389.5,189.5,389.5,169.5,397.0,144.5,404.5,124.5,402.0,104.5,392.0,81.5,379.5,76.5,377.0,56.5,420.0,21.5,427.5,1.5,460.0,6.5,440.0,6.0" stroke="black" stroke-width="2" fill="none" />
<polyline points="435.0,5.0,443.5,4.5,451.5,4.0,460.0,3.0,468.0,2.0,476.5,1.5,484.0,1.5,492.0,1.0,500.0,1.0,507.0,0.5,515.5,0.0" stroke="black" stroke-width="2" fill="none" />
<polyline points="515.5,27.0,507.0,28.0,498.5,28.5,489.5,29.0,481.5,29.5" stroke="black" stroke-width="2" fill="none" />
<polyline points="477.0,43.5,485.0,43.5,492.0,43.5,499.5,43.5,508.0,44.0,516.0,44.0" stroke="black" stroke-width="2" fill="none" />
<polyline points="516.0,60.0,508.5,60.5,500.5,61.5" stroke="black" stroke-width="2" fill="none" />
<polyline points="499.5,53.0,507.5,53.0,515.5,52.5" stroke="black" stroke-width="2" fill="none" />
<polyline points="513.0,34.0,505.0,33.5,497.5,34.0,490.5,34.5,482.5,35.0,474.5,35.0,467.0,35.5,459.0,36.5,452.0,37.0" stroke="black" stroke-width="2" fill="none" />
<polyline points="452.0,30.0,459.5,29.5,467.5,28.5,475.5,28.0" stroke="black" stroke-width="2" fill="none" />
<polyline points="469.5,44.0,461.5,44.5" stroke="black" stroke-width="2" fill="none" />
<polyline points="442.0,22.0,450.0,22.0,458.0,21.5,466.0,20.5,474.0,19.5,482.5,18.5,491.0,18.5,499.0,18.5,507.5,18.5,515.5,18.0" stroke="black" stroke-width="2" fill="none" />
<polyline points="516.5,8.5,509.0,8.5,500.5,9.0,492.5,10.0,484.0,10.5,475.5,11.0,467.5,12.0,459.5,13.0,451.5,13.5,443.0,14.5,434.5,14.5" stroke="black" stroke-width="2" fill="none" />
<polyline points="436.0,13.0,426.0,33.0,425.5,52.5,435.5,72.5,447.5,87.5,447.5,95.0,452.5,114.5,457.0,134.5,452.0,142.5,454.5,162.5,457.0,172.5,462.0,192.5,467.0,212.5,457.0,232.0,440.0,252.5,455.0,265.0,470.5,260.0" stroke="black" stroke-width="2" fill="none" />
<polyline points="474.5,235.5,483.0,228.0,491.5,220.5,500.0,213.0" stroke="black" stroke-width="2" fill="none" />
<polyline points="499.5,217.5,507.5,217.0" stroke="black" stroke-width="2" fill="none" />
<polyline points="491.0,214.0,483.5,221.0,475.5,227.5" stroke="black" stroke-width="2" fill="none" />
<polyline points="474.0,218.5,482.0,211.5" stroke="black" stroke-width="2" fill="none" />
<polyline points="483.5,205.5,475.5,213.0" stroke="black" stroke-width="2" fill="none" />
<polyline points="475.0,216.0,483.0,216.0,491.0,216.0" stroke="black" stroke-width="2" fill="none" />
<polyline points="483.5,197.0,476.0,204.5,468.0,212.0" stroke="black" stroke-width="2" fill="none" />
<polyline points="467.0,213.5,469.5,233.5,462.0,253.5,464.5,284.0,452.0,301.0,467.0,301.5,462.0,321.5" stroke="black" stroke-width="2" fill="none" />
<polyline points="452.0,314.0,444.5,321.5" stroke="black" stroke-width="2" fill="none" />
<polyline points="443.5,317.0,463.0,322.0" stroke="black" stroke-width="2" fill="none" />
<polyline points="451.0,327.5,459.0,327.0,467.0,326.0,475.0,325.0,483.5,324.5,491.5,324.0,499.5,323.5,507.5,323.0,515.5,323.0" stroke="black" stroke-width="2" fill="none" />
<polyline points="516.5,293.0,508.0,293.5" stroke="black" stroke-width="2" fill="none" />
<polyline points="508.5,275.5,516.5,275.0" stroke="black" stroke-width="2" fill="none" />
<polyline points="515.0,242.5,507.5,242.5,500.0,242.5,492.0,243.5" stroke="black" stroke-width="2" fill="none" />
<polyline points="490.5,236.5,498.5,236.0,507.0,236.0,515.5,236.0" stroke="black" stroke-width="2" fill="none" />
<polyline points="515.0,271.0,507.0,271.0,499.0,271.0,491.0,271.0,483.0,271.0,474.5,272.0,466.5,273.0,458.5,273.5,451.0,274.0,443.5,274.5,435.5,275.5,428.0,276.0,420.0,277.0,412.5,278.0,405.0,278.5" stroke="black" stroke-width="2" fill="none" />
<polyline points="396.5,261.5,404.0,261.0,412.0,260.0,420.0,259.5,428.5,259.5,436.5,259.0,444.0,258.0,452.5,258.0,460.0,257.5,467.5,257.0,475.0,256.5,483.5,256.0,492.0,256.0,500.0,256.0,507.5,255.0,516.0,254.5" stroke="black" stroke-width="2" fill="none" />
<polyline points="482.5,311.5,475.0,312.0,467.0,312.5,458.5,313.5,450.5,314.5,442.0,315.5,434.0,315.5,425.5,316.5,417.5,317.0,409.0,317.5" stroke="black" stroke-width="2" fill="none" />
<polyline points="405.0,314.5,413.5,307.0" stroke="black" stroke-width="2" fill="none" />
<polyline points="404.5,306.5,396.0,314.0" stroke="black" stroke-width="2" fill="none" />
<polyline points="394.0,324.0,386.0,331.5" stroke="black" stroke-width="2" fill="none" />
<polyline points="393.5,338.5,401.5,331.0" stroke="black" stroke-width="2" fill="none" />
<polyline points="404.0,337.0,412.0,336.5" stroke="black" stroke-width="2" fill="none" />
<polyline points="413.0,330.5,405.0,338.0" stroke="black" stroke-width="2" fill="none" />
<polyline points="398.0,339.5,418.0,337.0" stroke="black" stroke-width="2" fill="none" />
<polyline points="402.5,323.0,394.0,330.0" stroke="black" stroke-width="2" fill="none" />
<polyline points="381.0,314.0,389.0,306.5" stroke="black" stroke-width="2" fill="none" />
<polyline points="381.5,307.0,374.0,314.5,365.5,322.5" stroke="black" stroke-width="2" fill="none" />
<polyline points="372.0,323.5,364.0,331.0,356.5,338.5" stroke="black" stroke-width="2" fill="none" />
<polyline points="354.5,333.0,346.5,340.5" stroke="black" stroke-width="2" fill="none" />
<polyline points="338.5,330.0,347.0,322.5" stroke="black" stroke-width="2" fill="none" />
<polyline points="354.5,308.0,362.5,300.5" stroke="black" stroke-width="2" fill="none" />
<polyline points="354.5,298.5,346.5,306.5" stroke="black" stroke-width="2" fill="none" />
<polyline points="347.0,298.5,338.5,306.0" stroke="black" stroke-width="2" fill="none" />
<polyline points="330.5,314.0,323.0,322.0,315.0,330.0" stroke="black" stroke-width="2" fill="none" />
<polyline points="322.5,332.5,330.5,325.0" stroke="black" stroke-width="2" fill="none" />
<polyline points="314.5,316.5,322.5,316.5,330.5,316.0,339.0,316.0,347.5,315.0,356.0,314.5,364.5,314.5,372.0,314.5,380.5,314.5,388.5,314.0,396.5,314.0,404.5,313.5" stroke="black" stroke-width="2" fill="none" />
<polyline points="419.5,316.0,411.5,316.5,404.0,317.0,396.0,317.5,388.0,318.0,379.5,318.5,371.0,319.0,362.5,319.5,354.0,319.5,346.0,320.5,338.5,321.0,331.0,321.5,323.5,322.0,316.0,323.5,309.0,324.5,301.0,325.0,293.5,325.0,285.0,325.5,277.0,326.0,268.5,327.0" stroke="black" stroke-width="2" fill="none" />
<polyline points="275.5,329.0,283.5,322.0,292.0,314.5,299.5,307.0,307.5,299.5" stroke="black" stroke-width="2" fill="none" />
<polyline points="308.5,293.0,300.0,301.0,292.0,308.0,283.5,314.5,276.0,321.0" stroke="black" stroke-width="2" fill="none" />
<polyline points="277.5,315.5,286.0,308.0,294.0,300.5,301.5,293.5" stroke="black" stroke-width="2" fill="none" />
<polyline points="291.5,291.5,283.0,299.0,275.5,306.5,267.0,314.0" stroke="black" stroke-width="2" fill="none" />
<polyline points="266.0,306.0,258.5,314.0" stroke="black" stroke-width="2" fill="none" />
<polyline points="252.0,314.5,260.5,306.0,268.5,298.5,276.5,291.0" stroke="black" stroke-width="2" fill="none" />
<polyline points="282.0,290.5,274.5,297.5" stroke="black" stroke-width="2" fill="none" />
<polyline points="278.0,299.0,286.0,298.5,293.5,298.0,300.5,297.5,308.0,296.5" stroke="black" stroke-width="2" fill="none" />
<polyline points="301.0,303.0,292.5,303.5" stroke="black" stroke-width="2" fill="none" />
<polyline points="307.5,313.5,299.5,321.5,292.0,329.5" stroke="black" stroke-width="2" fill="none" />
<polyline points="291.5,325.5,283.5,332.5,276.0,339.5" stroke="black" stroke-width="2" fill="none" />
<polyline points="261.0,332.5,269.5,332.0,277.5,331.5,285.5,331.0,293.0,330.5,300.5,330.0,308.5,329.5,316.0,329.0,323.5,328.5,331.0,328.0,339.5,327.5,347.0,327.0,355.0,326.5,363.0,326.0,371.5,325.0,379.5,324.5,387.5,324.0,395.5,324.0,403.0,323.5,410.5,323.0,418.0,322.5,426.5,322.5" stroke="black" stroke-width="2" fill="none" />
<polyline points="437.0,323.0,445.0,315.5" stroke="black" stroke-width="2" fill="none" />
<polyline points="429.0,295.0,421.5,296.0,413.5,296.0,405.0,296.0,396.5,297.0,388.5,297.5,380.5,297.5,372.5,297.0,364.5,297.5,356.5,298.0,349.0,298.5,341.0,299.0,333.5,299.5,325.5,300.0,317.5,300.5,309.0,301.5,300.5,302.0,292.5,303.0,284.0,304.0,275.5,304.5,267.5,305.0,259.5,305.5,251.0,305.5,243.0,306.5,235.0,307.5,227.0,308.5,218.5,309.0,210.5,309.0,202.5,309.5,195.0,309.5,186.5,310.0" stroke="black" stroke-width="2" fill="none" />
<polyline points="195.5,311.5,203.5,303.5,211.0,296.0,219.0,288.5,227.0,281.5,235.5,274.0" stroke="black" stroke-width="2" fill="none" />
<polyline points="228.0,274.0,219.5,281.0,211.0,288.5,203.0,296.0,194.5,303.5" stroke="black" stroke-width="2" fill="none" />
<polyline points="187.0,304.5,196.0,297.0,204.5,289.0,213.0,281.0,221.0,273.5" stroke="black" stroke-width="2" fill="none" />
<polyline points="212.5,275.5,204.5,283.0" stroke="black" stroke-width="2" fill="none" />
<polyline points="195.0,279.5,203.0,279.5,211.0,278.5,219.5,277.0,228.5,276.0,237.5,274.5,245.5,273.5,253.0,273.0,261.0,272.5,269.5,272.5,277.5,272.0,285.5,271.5,293.5,271.0" stroke="black" stroke-width="2" fill="none" />
<polyline points="299.5,269.5,307.5,269.0" stroke="black" stroke-width="2" fill="none" />
<polyline points="300.5,262.0,308.0,261.0,315.5,260.0,323.0,259.5,331.0,259.5,338.5,259.0,347.0,258.5" stroke="black" stroke-width="2" fill="none" />
<polyline points="337.5,254.5,346.0,254.0,354.0,254.0,362.5,253.5,371.0,253.0,380.0,252.0,388.0,251.5,396.5,251.0,404.5,250.5,412.5,250.0,420.5,249.5,429.0,249.0,437.0,248.5,445.5,247.5,453.5,246.0,461.0,245.5,469.0,244.5,476.5,244.5,484.5,243.5,492.0,242.5,500.0,242.0,508.0,241.5,515.5,241.5" stroke="black" stroke-width="2" fill="none" />
<polyline points="483.5,176.0,475.5,176.5,467.0,177.5,458.5,177.5,451.0,178.0,443.5,178.0,435.5,178.5,427.0,179.0,418.5,179.5,411.0,180.0,402.5,180.5,394.0,180.5,385.5,181.0,377.0,181.5" stroke="black" stroke-width="2" fill="none" />
<polyline points="371.5,180.5,364.0,187.5" stroke="black" stroke-width="2" fill="none" />
<polyline points="363.5,194.5,371.5,186.5" stroke="black" stroke-width="2" fill="none" />
<polyline points="371.0,181.5,363.0,182.0,355.0,183.0" stroke="black" stroke-width="2" fill="none" />
<polyline points="355.0,191.0,363.0,190.5,371.5,189.5,379.5,189.0,388.0,188.0,396.0,187.0,404.0,186.5,412.5,186.5,420.5,186.0,428.5,186.0,437.0,185.5,444.5,185.0,452.0,184.0,460.0,183.0,467.5,182.5,475.5,181.5,483.0,181.0" stroke="black" stroke-width="2" fill="none" />
<polyline points="484.0,174.5,487.0,209.5,507.0,212.0" stroke="black" stroke-width="2" fill="none" />
<polyline points="483.5,172.5,475.5,173.0,467.5,173.0,459.5,173.5" stroke="black" stroke-width="2" fill="none" />
<polyline points="458.5,165.0,467.0,164.5,475.0,164.5,483.5,164.0" stroke="black" stroke-width="2" fill="none" />
<polyline points="475.5,168.5,495.5,149.0" stroke="black" stroke-width="2" fill="none" />
<polyline points="476.5,148.0,468.0,148.5,459.5,149.5" stroke="black" stroke-width="2" fill="none" />
<polyline points="450.0,142.5,458.0,142.0,466.5,141.5,475.0,141.0" stroke="black" stroke-width="2" fill="none" />
<polyline points="474.5,153.5,466.0,154.0,458.5,154.5,450.5,155.0,442.5,155.5,434.0,156.0,426.0,157.0" stroke="black" stroke-width="2" fill="none" />
<polyline points="411.5,155.5,403.5,163.5,395.0,171.0" stroke="black" stroke-width="2" fill="none" />
<polyline points="394.0,172.0,402.5,171.0,411.0,170.5,419.0,170.0,427.0,169.5,434.5,169.0,442.5,169.5,451.0,170.0" stroke="black" stroke-width="2" fill="none" />
<polyline points="412.5,169.5,404.5,177.5,396.0,185.0" stroke="black" stroke-width="2" fill="none" />
<polyline points="405.0,185.5,413.0,178.0" stroke="black" stroke-width="2" fill="none" />
<polyline points="411.0,164.5,403.0,172.0,395.5,179.0" stroke="black" stroke-width="2" fill="none" />
<polyline points="397.0,168.0,405.0,167.5,412.5,167.0" stroke="black" stroke-width="2" fill="none" />
<polyline points="412.0,162.0,404.5,162.5" stroke="black" stroke-width="2" fill="none" />
<polyline points="403.5,155.5,395.5,163.0" stroke="black" stroke-width="2" fill="none" />
<polyline points="388.5,164.5,396.0,164.0,404.0,164.0,411.5,164.0,419.5,164.5,427.5,164.5,435.5,163.5,443.0,162.5,451.0,162.0" stroke="black" stroke-width="2" fill="none" />
<polyline points="413.5,123.0,422.0,115.0,429.5,107.0" stroke="black" stroke-width="2" fill="none" />
<polyline points="429.0,98.0,421.0,105.5,413.0,113.5" stroke="black" stroke-width="2" fill="none" />
<polyline points="404.5,118.0,412.5,117.5,421.0,116.5,428.5,116.0,436.0,116.0,443.5,116.0,452.0,115.5" stroke="black" stroke-width="2" fill="none" />
<polyline points="450.0,85.5,442.0,86.0,434.5,86.5" stroke="black" stroke-width="2" fill="none" />
<polyline points="427.0,77.5,435.0,77.0,442.5,76.0" stroke="black" stroke-width="2" fill="none" />
<polyline points="443.0,68.5,435.0,69.0,427.0,69.5,419.0,70.0" stroke="black" stroke-width="2" fill="none" />
<polyline points="411.5,62.5,419.5,61.5,427.5,60.5,435.5,60.0,443.5,59.0" stroke="black" stroke-width="2" fill="none" />
<polyline points="443.5,51.5,435.5,52.5,427.0,53.5,419.5,54.5,411.5,55.5" stroke="black" stroke-width="2" fill="none" />
<polyline points="412.0,46.0,420.0,45.5,427.5,45.0,435.0,44.5,442.5,43.5" stroke="black" stroke-width="2" fill="none" />
<polyline points="443.0,35.0,435.5,36.0,428.0,36.5,420.0,36.5,412.0,37.0" stroke="black" stroke-width="2" fill="none" />
<polyline points="417.5,29.0,425.5,29.0,434.0,29.0" stroke="black" stroke-width="2" fill="none" />
<polyline points="434.5,31.0,439.5,50.5,442.0,70.5,437.5,90.5,425.0,110.5,425.0,112.5,442.5,122.5,420.0,142.0,402.5,172.0,412.0,172.0,420.0,179.0,420.0,199.5,435.0,204.5,437.5,224.5,433.0,224.5,435.5,232.0,435.0,252.0,439.5,279.5,459.0,279.5,471.5,274.5,476.5,284.5,484.0,296.5" stroke="black" stroke-width="2" fill="none" />
<polyline points="385.5,275.5,377.5,276.0" stroke="black" stroke-width="2" fill="none" />
<polyline points="372.5,273.5,362.5,293.5,355.5,321.0,338.0,336.5,346.0,337.0,368.5,327.5,388.5,322.5,409.0,330.0,429.0,337.5" stroke="black" stroke-width="2" fill="none" />
<polyline points="458.0,312.5,435.0,315.0,415.0,312.5,400.0,308.0,380.0,305.5" stroke="black" stroke-width="2" fill="none" />
<polyline points="369.5,308.0,362.0,315.0" stroke="black" stroke-width="2" fill="none" />
<polyline points="370.5,285.5,379.0,285.5,387.0,284.5" stroke="black" stroke-width="2" fill="none" />
<polyline points="387.0,288.0,378.5,288.5,370.5,289.5,363.0,290.0,355.0,290.0,347.0,290.0,339.5,290.5,331.5,291.0,323.0,291.5,315.0,292.0,307.5,292.5,299.5,293.0,291.5,293.5,284.0,294.0,276.0,294.5,268.0,295.0,260.0,295.0,252.5,296.0,244.5,297.5,236.0,298.5,227.5,299.0,219.5,299.5,211.5,299.5,203.5,300.0,196.0,301.0,188.0,301.5,179.5,302.0" stroke="black" stroke-width="2" fill="none" />
<polyline points="179.5,293.5,187.5,293.0,195.5,292.0,203.5,292.0,212.0,292.0,220.5,291.5,228.5,291.0,236.0,290.5,244.0,289.5,252.0,289.5,259.5,288.5,268.0,288.0,276.5,287.5,285.0,287.0,293.0,286.5,301.0,285.5,309.0,285.0,316.5,284.5,324.0,283.5,331.5,282.5,339.0,282.5" stroke="black" stroke-width="2" fill="none" />
<polyline points="348.0,277.5,367.5,280.0,387.5,274.5,407.5,277.0,415.0,287.0,392.5,297.0,395.0,292.0" stroke="black" stroke-width="2" fill="none" />
<polyline points="341.0,271.0,348.5,270.5,356.0,269.5,363.5,268.5,372.0,267.5,380.5,266.5,388.5,266.0,396.5,265.5,404.5,264.5,412.0,264.0,420.5,263.5,428.0,263.0,436.0,263.0,443.5,263.0,451.5,263.5,459.5,263.5,467.5,262.5,475.0,261.5,483.0,261.0,491.5,260.0,499.5,259.0,507.5,259.0,514.5,258.5" stroke="black" stroke-width="2" fill="none" />
<polyline points="506.0,195.5,498.0,196.0,490.0,196.5,482.5,197.5,475.0,198.0,467.0,198.0,459.5,199.0,452.0,199.5,444.0,199.5,436.0,200.0,428.0,200.5,420.0,201.5,412.0,202.5,403.5,203.0,395.5,204.0,387.5,204.5,379.5,204.5,371.5,205.0,363.0,205.0,355.5,205.5" stroke="black" stroke-width="2" fill="none" />
<polyline points="357.0,198.0,365.0,198.0,373.0,198.0,380.5,197.5,388.5,196.5,396.0,195.5,403.5,195.0,411.5,194.5,419.5,193.5,428.0,192.5,436.0,192.0,444.0,191.5,452.0,191.0,460.0,190.5,467.5,190.5,476.0,190.0,483.5,189.5" stroke="black" stroke-width="2" fill="none" />
<polyline points="484.0,228.0,476.5,228.5,469.0,229.0,460.5,229.5,453.0,230.0,445.0,231.0,437.0,232.0,429.0,233.0,421.0,233.5,412.5,234.0,404.0,234.5,396.0,234.5,387.5,235.0,379.0,235.0,371.0,236.0,363.0,237.0,355.0,237.5,347.0,238.0,338.5,238.5" stroke="black" stroke-width="2" fill="none" />
<polyline points="332.5,243.0,324.5,250.0" stroke="black" stroke-width="2" fill="none" />
<polyline points="324.5,244.5,316.5,252.0" stroke="black" stroke-width="2" fill="none" />
<polyline points="318.0,259.5,338.0,262.5,358.0,267.0,378.0,267.0,398.0,269.5,418.5,272.0,438.0,274.5,458.0,274.5" stroke="black" stroke-width="2" fill="none" />
<polyline points="485.0,229.0,477.0,230.0,469.0,231.0,461.0,231.5,452.5,232.0,444.0,232.5,436.0,232.5,427.5,233.0,419.0,233.0,411.0,234.0,403.0,235.0,395.0,235.5,387.0,236.0,378.5,236.5,370.5,236.5,362.5,237.0,354.0,237.0,346.5,237.0,338.5,237.0,331.0,237.5,323.5,238.5,316.0,239.0,308.5,239.5,301.0,239.5,293.0,240.0,284.5,241.0,276.5,242.0,268.0,242.5,260.0,243.0,251.5,243.5,243.0,244.5,234.5,245.5,226.0,246.5,217.5,247.5" stroke="black" stroke-width="2" fill="none" />
<polyline points="219.0,254.0,227.0,253.0" stroke="black" stroke-width="2" fill="none" />
<polyline points="226.5,243.0,235.0,235.5" stroke="black" stroke-width="2" fill="none" />
<polyline points="235.5,239.5,243.5,232.5,251.0,225.0,258.5,217.5,267.0,210.0" stroke="black" stroke-width="2" fill="none" />
<polyline points="268.5,220.0,260.5,227.5,252.5,235.0,244.0,242.0" stroke="black" stroke-width="2" fill="none" />
<polyline points="245.0,233.5,252.5,233.0" stroke="black" stroke-width="2" fill="none" />
<polyline points="259.0,242.0,267.0,234.0,275.0,226.5" stroke="black" stroke-width="2" fill="none" />
<polyline points="282.0,228.0,274.0,235.5,266.5,243.0" stroke="black" stroke-width="2" fill="none" />
<polyline points="268.5,243.0,276.5,242.5" stroke="black" stroke-width="2" fill="none" />
<polyline points="282.5,242.5,274.5,250.5" stroke="black" stroke-width="2" fill="none" />
<polyline points="274.5,243.5,282.5,235.5" stroke="black" stroke-width="2" fill="none" />
<polyline points="277.5,234.0,269.5,234.0" stroke="black" stroke-width="2" fill="none" />
<polyline points="267.0,226.0,274.5,218.5" stroke="black" stroke-width="2" fill="none" />
<polyline points="282.0,213.5,290.0,213.0" stroke="black" stroke-width="2" fill="none" />
<polyline points="299.0,212.5,307.0,211.5,315.5,211.5,324.0,211.0" stroke="black" stroke-width="2" fill="none" />
<polyline points="315.5,218.0,307.0,225.5,299.5,233.0" stroke="black" stroke-width="2" fill="none" />
<polyline points="308.0,234.0,316.5,226.5" stroke="black" stroke-width="2" fill="none" />
<polyline points="316.5,224.0,309.0,224.5" stroke="black" stroke-width="2" fill="none" />
<polyline points="315.0,220.0,310.0,240.0,302.5,252.5,299.5,277.0,316.5,282.0,328.5,289.0,311.0,309.0,308.5,329.0,273.5,321.5,263.0,336.5" stroke="black" stroke-width="2" fill="none" />
<polyline points="245.0,318.0,237.0,325.0" stroke="black" stroke-width="2" fill="none" />
<polyline points="235.0,316.0,227.5,323.0" stroke="black" stroke-width="2" fill="none" />
<polyline points="220.0,321.0,228.0,314.0,236.5,306.5,244.5,299.0,252.5,291.0,260.5,284.0,268.5,276.5" stroke="black" stroke-width="2" fill="none" />
<polyline points="275.0,275.0,267.5,282.5,260.0,290.5,252.0,298.0,244.0,305.5" stroke="black" stroke-width="2" fill="none" />
<polyline points="250.0,306.5,258.0,306.5" stroke="black" stroke-width="2" fill="none" />
<polyline points="252.5,306.5,261.0,298.5,269.5,290.0" stroke="black" stroke-width="2" fill="none" />
<polyline points="261.0,288.0,281.0,290.5,300.5,290.5,320.5,285.5,340.5,283.0,348.0,300.5,368.0,305.0,370.5,290.5,388.0,282.5,408.0,285.0,428.0,287.5,448.0,290.0,468.0,287.5" stroke="black" stroke-width="2" fill="none" />
<polyline points="515.0,219.0,506.0,219.5,498.0,220.0,490.5,220.5,482.0,221.0,473.5,221.5,465.0,222.5,457.0,222.5,449.0,222.0,441.0,222.5,433.5,222.5,426.0,222.5,417.5,222.5,409.5,223.0,401.5,223.0,394.0,224.0,386.5,224.5,379.0,225.0,371.0,225.5,363.5,226.0,356.0,226.0,348.0,226.5,339.5,227.0,331.5,227.5" stroke="black" stroke-width="2" fill="none" />
<polyline points="332.0,220.0,340.0,220.0,348.0,219.5,355.5,219.0,363.5,219.5,371.5,219.0,379.0,218.5,386.0,218.0,393.5,217.5,401.5,217.5,409.0,216.5,417.5,216.0,426.0,215.5,434.5,215.5,443.0,215.0,450.5,214.5,459.0,214.0,467.5,213.5,475.5,213.0,483.0,213.0,490.5,212.5,499.0,212.5,507.5,211.5,515.5,211.0" stroke="black" stroke-width="2" fill="none" />
<polyline points="515.5,202.5,507.5,203.5,500.0,204.0,491.5,204.5,484.0,204.5,476.0,205.0,468.5,206.0,461.0,207.0,453.0,207.5,445.0,208.5,436.5,209.5,429.0,210.0,421.0,210.5,413.0,211.0,405.5,211.5,397.0,211.5,389.0,211.5,380.5,211.5,372.5,212.0,364.0,212.5,355.5,213.0,346.5,214.0,338.0,214.5" stroke="black" stroke-width="2" fill="none" />
<polyline points="336.0,215.0,356.0,225.0,385.5,212.5" stroke="black" stroke-width="2" fill="none" />
<polyline points="388.0,218.0,396.0,210.5" stroke="black" stroke-width="2" fill="none" />
<polyline points="395.5,219.5,387.0,226.5" stroke="black" stroke-width="2" fill="none" />
<polyline points="382.0,220.0,382.0,240.0" stroke="black" stroke-width="2" fill="none" />
<polyline points="377.0,248.0,362.5,235.5,372.5,228.0,365.0,207.5,370.5,202.5,370.5,183.0,357.5,175.5,337.5,177.5" stroke="black" stroke-width="2" fill="none" />
<polyline points="332.0,172.5,324.0,179.5" stroke="black" stroke-width="2" fill="none" />
<polyline points="324.5,172.0,332.5,164.5" stroke="black" stroke-width="2" fill="none" />
<polyline points="339.0,179.0,331.0,179.5,323.0,180.0,315.5,180.5" stroke="black" stroke-width="2" fill="none" />
<polyline points="314.5,174.5,322.5,174.0,330.5,173.5,338.5,172.5" stroke="black" stroke-width="2" fill="none" />
<polyline points="348.5,173.0,356.5,172.5,364.0,171.5,371.5,171.0" stroke="black" stroke-width="2" fill="none" />
<polyline points="371.0,165.5,363.5,166.0,355.5,166.5" stroke="black" stroke-width="2" fill="none" />
<polyline points="354.5,156.5,362.5,155.5,370.5,155.0" stroke="black" stroke-width="2" fill="none" />
<polyline points="388.5,158.5,397.0,158.0,405.0,157.5,413.5,156.5,421.5,155.0" stroke="black" stroke-width="2" fill="none" />
<polyline points="420.5,147.5,412.0,147.5,404.0,148.5,396.5,149.0" stroke="black" stroke-width="2" fill="none" />
<polyline points="397.0,141.5,405.0,141.5" stroke="black" stroke-width="2" fill="none" />
<polyline points="397.0,132.5,405.0,132.0,413.0,132.0,420.5,132.0,427.5,132.0,435.0,132.0,442.0,131.0" stroke="black" stroke-width="2" fill="none" />
<polyline points="450.5,107.0,442.0,107.5,434.5,107.5,426.5,108.0,419.0,108.5,411.0,108.5,403.5,109.0" stroke="black" stroke-width="2" fill="none" />
<polyline points="403.5,100.5,411.5,100.0,419.5,100.0,427.0,99.5,434.5,99.0,442.5,98.5" stroke="black" stroke-width="2" fill="none" />
<polyline points="452.5,90.0,444.5,90.5,436.5,91.0,428.5,92.0,420.5,93.0,413.0,94.5,404.5,95.5" stroke="black" stroke-width="2" fill="none" />
<polyline points="402.5,96.5,422.5,94.0,440.0,94.0,460.0,69.0" stroke="black" stroke-width="2" fill="none" />
<polyline points="504.5,95.5,497.0,100.0,492.0,120.0,480.0,139.5,472.5,144.5,475.5,164.5,478.0,184.5,472.5,204.5,490.0,219.0,502.0,239.0,494.5,246.5,497.0,251.5,482.0,269.5,487.0,287.0,489.5,300.0,484.5,310.0,495.0,315.5" stroke="black" stroke-width="2" fill="none" />
<polyline points="499.5,326.0,484.5,320.5,477.0,338.0,464.0,335.0,444.0,330.0,424.0,325.0,404.0,317.5,384.0,315.0,364.5,320.0,349.5,315.5,330.0,318.0,325.5,300.5,303.5,303.0,303.5,325.5,283.5,335.5,306.0,323.0,291.0,317.5,316.0,292.5,310.5,272.0,325.0,244.0,335.0,226.5,330.5,201.5,340.5,181.5,333.5,166.0,353.5,146.0,366.0,126.0,365.5,106.0,347.5,89.0,349.5,69.0,364.5,49.0,374.5,29.0,359.5,29.0,374.5,11.5,372.0,6.0,352.0,3.5" stroke="black" stroke-width="2" fill="none" />
<polyline points="369.0,17.0,389.5,4.5" stroke="black" stroke-width="2" fill="none" />
<polyline points="396.5,50.5,388.5,58.0" stroke="black" stroke-width="2" fill="none" />
<polyline points="387.5,65.0,395.5,65.0" stroke="black" stroke-width="2" fill="none" />
<polyline points="395.5,67.0,387.0,74.5" stroke="black" stroke-width="2" fill="none" />
<polyline points="389.0,75.5,397.0,75.0" stroke="black" stroke-width="2" fill="none" />
<polyline points="404.5,75.0,396.5,82.5" stroke="black" stroke-width="2" fill="none" />
<polyline points="397.0,82.0,389.0,82.5" stroke="black" stroke-width="2" fill="none" />
<polyline points="387.0,82.5,395.5,75.5,403.5,68.5" stroke="black" stroke-width="2" fill="none" />
<polyline points="395.5,60.0,387.5,67.5" stroke="black" stroke-width="2" fill="none" />
<polyline points="379.0,71.5,387.0,71.5,395.5,71.0,403.5,70.5" stroke="black" stroke-width="2" fill="none" />
<polyline points="386.0,85.5,378.0,86.0" stroke="black" stroke-width="2" fill="none" />
<polyline points="378.5,79.0,386.0,78.5,394.5,77.5,402.5,77.0" stroke="black" stroke-width="2" fill="none" />
<polyline points="404.5,60.5,396.5,61.0,387.5,61.0,380.0,61.5" stroke="black" stroke-width="2" fill="none" />
<polyline points="380.5,55.0,388.5,54.5,395.5,53.5,403.0,53.0" stroke="black" stroke-width="2" fill="none" />
<polyline points="362.0,76.0,354.0,83.5,346.0,90.5" stroke="black" stroke-width="2" fill="none" />
<polyline points="348.5,92.0,356.5,92.0" stroke="black" stroke-width="2" fill="none" />
<polyline points="353.5,90.5,361.5,82.5" stroke="black" stroke-width="2" fill="none" />
<polyline points="363.0,83.0,354.5,84.0,346.5,84.5" stroke="black" stroke-width="2" fill="none" />
<polyline points="346.5,75.5,354.5,75.0,362.5,75.5" stroke="black" stroke-width="2" fill="none" />
<polyline points="364.0,61.0,355.5,61.5" stroke="black" stroke-width="2" fill="none" />
<polyline points="349.0,68.0,356.5,67.5,364.5,67.5" stroke="black" stroke-width="2" fill="none" />
<polyline points="374.0,52.5,365.5,53.5,357.0,54.0,348.5,55.0" stroke="black" stroke-width="2" fill="none" />
<polyline points="356.0,48.0,363.5,47.5,371.5,47.0,379.5,46.5,387.0,46.0" stroke="black" stroke-width="2" fill="none" />
<polyline points="387.0,99.5,379.5,100.0,371.5,100.5" stroke="black" stroke-width="2" fill="none" />
<polyline points="363.5,109.5,371.5,109.5,379.5,109.5,387.5,109.0" stroke="black" stroke-width="2" fill="none" />
<polyline points="381.5,109.5,373.0,117.0" stroke="black" stroke-width="2" fill="none" />
<polyline points="372.5,116.0,380.5,115.5,388.5,115.0" stroke="black" stroke-width="2" fill="none" />
<polyline points="386.0,132.5,378.0,133.0,370.0,133.5" stroke="black" stroke-width="2" fill="none" />
<polyline points="370.0,124.5,378.5,124.5,386.5,124.0" stroke="black" stroke-width="2" fill="none" />
<polyline points="348.0,123.5,340.5,131.5" stroke="black" stroke-width="2" fill="none" />
<polyline points="339.0,122.5,346.5,115.0" stroke="black" stroke-width="2" fill="none" />
<polyline points="344.0,113.0,346.0,133.0" stroke="black" stroke-width="2" fill="none" />
<polyline points="353.5,139.5,346.0,139.5,338.0,140.0,330.0,140.0" stroke="black" stroke-width="2" fill="none" />
<polyline points="329.5,132.5,338.0,132.0,346.5,132.0,355.0,131.5" stroke="black" stroke-width="2" fill="none" />
<polyline points="347.0,108.5,339.0,108.5" stroke="black" stroke-width="2" fill="none" />
<polyline points="330.0,117.5,338.0,116.5,346.5,116.5,355.0,116.0" stroke="black" stroke-width="2" fill="none" />
<polyline points="355.5,125.5,347.0,125.5,339.0,126.0,330.5,126.0" stroke="black" stroke-width="2" fill="none" />
<polyline points="316.0,133.0,308.0,133.5" stroke="black" stroke-width="2" fill="none" />
<polyline points="309.0,142.0,316.5,141.5" stroke="black" stroke-width="2" fill="none" />
<polyline points="317.5,148.5,309.0,149.0" stroke="black" stroke-width="2" fill="none" />
<polyline points="315.0,166.0,323.0,166.0,331.5,165.0,339.5,164.5" stroke="black" stroke-width="2" fill="none" />
<polyline points="338.5,195.0,331.0,195.5,323.5,196.0,316.0,196.5" stroke="black" stroke-width="2" fill="none" />
<polyline points="317.0,196.0,322.5,183.5,342.5,171.0,352.5,188.5,352.5,208.5,347.0,226.5" stroke="black" stroke-width="2" fill="none" />
<polyline points="324.0,236.0,316.5,243.5" stroke="black" stroke-width="2" fill="none" />
<polyline points="316.0,235.5,308.0,243.5" stroke="black" stroke-width="2" fill="none" />
<polyline points="299.5,220.5,307.0,220.0,315.0,220.0,323.0,220.0" stroke="black" stroke-width="2" fill="none" />
<polyline points="314.0,188.5,322.0,187.5,329.5,187.5,337.5,187.0" stroke="black" stroke-width="2" fill="none" />
<polyline points="300.5,171.0,292.0,178.5" stroke="black" stroke-width="2" fill="none" />
<polyline points="284.5,179.0,292.0,178.5,300.0,178.5,307.5,178.5" stroke="black" stroke-width="2" fill="none" />
<polyline points="308.5,164.0,300.5,164.5,292.5,165.0" stroke="black" stroke-width="2" fill="none" />
<polyline points="290.5,159.5,298.0,159.0,306.0,158.0" stroke="black" stroke-width="2" fill="none" />
<polyline points="308.0,171.0,300.0,172.0,292.0,173.0,284.5,173.5" stroke="black" stroke-width="2" fill="none" />
<polyline points="283.5,190.0,291.5,189.5,299.5,188.5,307.5,187.5" stroke="black" stroke-width="2" fill="none" />
<polyline points="297.5,197.5,290.0,199.0,282.0,199.5" stroke="black" stroke-width="2" fill="none" />
<polyline points="277.5,188.0,269.5,188.5,261.5,189.0" stroke="black" stroke-width="2" fill="none" />
<polyline points="260.5,181.5,268.5,180.5,276.5,180.5" stroke="black" stroke-width="2" fill="none" />
<polyline points="274.5,173.0,266.5,173.5,259.0,174.0" stroke="black" stroke-width="2" fill="none" />
<polyline points="259.5,162.0,267.0,154.5" stroke="black" stroke-width="2" fill="none" />
<polyline points="268.5,146.0,260.5,153.5,252.5,161.5,244.5,169.5" stroke="black" stroke-width="2" fill="none" />
<polyline points="243.5,173.5,252.0,173.0" stroke="black" stroke-width="2" fill="none" />
<polyline points="243.5,162.0,251.0,154.5,259.0,147.0,267.5,139.5" stroke="black" stroke-width="2" fill="none" />
<polyline points="257.5,138.5,250.0,146.0" stroke="black" stroke-width="2" fill="none" />
<polyline points="242.5,138.5,251.0,131.0" stroke="black" stroke-width="2" fill="none" />
<polyline points="243.5,132.0,235.5,139.5,227.0,146.5,219.0,153.5,210.5,161.0" stroke="black" stroke-width="2" fill="none" />
<polyline points="210.0,164.5,197.5,184.5,190.0,204.0" stroke="black" stroke-width="2" fill="none" />
<polyline points="189.5,206.5,197.5,206.0" stroke="black" stroke-width="2" fill="none" />
<polyline points="196.0,212.5,204.0,212.0,212.5,211.5,220.5,212.0,228.0,212.5,236.0,212.5,243.5,211.5,251.5,211.0,259.0,210.5,267.0,210.0,275.0,209.0" stroke="black" stroke-width="2" fill="none" />
<polyline points="251.5,209.0,243.5,216.5,235.5,224.5" stroke="black" stroke-width="2" fill="none" />
<polyline points="242.5,226.0,250.5,218.5" stroke="black" stroke-width="2" fill="none" />
<polyline points="244.0,224.0,252.0,224.0,260.0,223.5,268.0,223.0" stroke="black" stroke-width="2" fill="none" />
<polyline points="244.0,213.0,236.0,220.5" stroke="black" stroke-width="2" fill="none" />
<polyline points="228.5,219.5,223.5,239.5,226.5,259.5,214.0,289.5,199.0,294.5,194.0,311.5,201.5,281.5" stroke="black" stroke-width="2" fill="none" />
<polyline points="196.5,291.0,188.0,299.0" stroke="black" stroke-width="2" fill="none" />
<polyline points="187.0,285.0,195.0,285.0,203.5,285.0,212.0,284.5,220.0,284.0,228.0,283.5,235.5,283.0,243.5,282.5,251.5,282.0,259.5,281.0,268.0,280.5,275.5,280.0,283.5,279.5" stroke="black" stroke-width="2" fill="none" />
<polyline points="277.0,268.5,269.5,269.0,261.0,269.0,252.5,269.5,244.5,270.0" stroke="black" stroke-width="2" fill="none" />
<polyline points="250.0,273.5,242.5,281.0" stroke="black" stroke-width="2" fill="none" />
<polyline points="244.0,291.0,252.0,290.5" stroke="black" stroke-width="2" fill="none" />
<polyline points="242.0,291.5,250.0,284.0,258.0,276.5" stroke="black" stroke-width="2" fill="none" />
<polyline points="260.5,283.0,280.0,283.0" stroke="black" stroke-width="2" fill="none" />
<polyline points="288.0,322.0,326.0,314.5,343.5,320.0" stroke="black" stroke-width="2" fill="none" />
<polyline points="309.5,312.0,301.0,312.5,293.0,313.0,284.5,314.0,276.5,314.0,268.5,314.5,260.5,314.5,252.5,314.5,244.5,315.0,236.5,315.5,228.0,316.5,220.0,317.5,212.5,318.0,204.5,318.5" stroke="black" stroke-width="2" fill="none" />
<polyline points="202.5,315.0,210.5,314.5" stroke="black" stroke-width="2" fill="none" />
<polyline points="212.0,314.5,220.0,306.5,227.5,298.5,235.5,290.5" stroke="black" stroke-width="2" fill="none" />
<polyline points="227.0,290.5,219.5,297.5" stroke="black" stroke-width="2" fill="none" />
<polyline points="213.5,307.0,205.5,314.5" stroke="black" stroke-width="2" fill="none" />
<polyline points="212.0,322.5,220.0,315.0,228.5,308.0,236.5,301.0" stroke="black" stroke-width="2" fill="none" />
<polyline points="219.0,326.0,227.0,325.5,234.5,325.0,242.0,325.0,250.5,325.5,258.5,325.0" stroke="black" stroke-width="2" fill="none" />
<polyline points="304.5,325.5,324.5,311.0" stroke="black" stroke-width="2" fill="none" />
<polyline points="235.0,261.5,226.0,262.0,218.0,262.5" stroke="black" stroke-width="2" fill="none" />
<polyline points="211.5,269.5,219.5,269.0,227.5,268.5,235.0,268.0" stroke="black" stroke-width="2" fill="none" />
<polyline points="212.5,241.5,220.5,234.5" stroke="black" stroke-width="2" fill="none" />
<polyline points="203.5,238.0,211.5,237.5,219.0,237.0,227.0,236.5,235.0,236.0,243.0,235.0,252.0,235.0,261.0,234.5,269.5,234.0,277.5,234.0,285.5,233.0,293.5,233.0,301.0,232.5,308.0,231.5,315.5,230.5,322.5,229.5,330.5,228.5" stroke="black" stroke-width="2" fill="none" />
<polyline points="292.5,215.5,284.5,215.5,276.5,216.5,268.5,217.0,260.5,218.0,252.0,218.5,243.5,219.5,235.5,220.0,228.0,220.0,220.0,220.5,212.0,221.0,203.5,221.0,196.0,221.5" stroke="black" stroke-width="2" fill="none" />
<polyline points="186.0,220.5,178.0,220.5" stroke="black" stroke-width="2" fill="none" />
<polyline points="163.0,228.0,171.0,227.5,179.0,227.5,187.0,227.0,195.0,226.5,203.0,226.0,211.5,225.5,220.0,224.5,229.0,224.0,237.5,223.0,245.5,222.5,253.5,222.5,261.0,222.5,268.5,222.0,276.5,221.5,284.5,221.5,293.0,221.5,301.5,221.5,310.0,221.5,318.0,221.0,326.0,221.0" stroke="black" stroke-width="2" fill="none" />
<polyline points="377.5,221.0,365.5,228.5,378.0,248.0" stroke="black" stroke-width="2" fill="none" />
<polyline points="422.0,244.0,418.0,236.5,408.5,229.0,418.5,209.0" stroke="black" stroke-width="2" fill="none" />
<polyline points="433.0,202.5,410.5,190.0,390.0,197.5,377.5,192.5,377.5,172.5" stroke="black" stroke-width="2" fill="none" />
<polyline points="312.5,124.0,304.0,124.0" stroke="black" stroke-width="2" fill="none" />
<polyline points="306.0,115.5,313.5,115.0" stroke="black" stroke-width="2" fill="none" />
<polyline points="312.5,121.0,315.5,141.0,315.5,173.5,315.5,193.0,300.5,218.0,308.0,230.0,295.5,240.0,293.0,265.0,295.5,280.0" stroke="black" stroke-width="2" fill="none" />
<polyline points="274.5,195.5,266.5,196.5,258.5,197.5,250.0,197.5" stroke="black" stroke-width="2" fill="none" />
<polyline points="236.5,205.0,244.5,204.5,253.0,204.0,261.0,203.5,269.5,203.5" stroke="black" stroke-width="2" fill="none" />
<polyline points="275.5,163.5,267.5,164.0,259.0,164.5,251.0,165.5,243.0,166.5,235.5,167.5" stroke="black" stroke-width="2" fill="none" />
<polyline points="235.0,165.0,255.0,164.5,270.0,162.5,287.5,152.5,292.5,167.5,302.5,167.5,322.5,162.5,342.0,162.0,362.0,134.5,382.0,137.0" stroke="black" stroke-width="2" fill="none" />
<polyline points="333.0,94.0,325.0,101.0" stroke="black" stroke-width="2" fill="none" />
<polyline points="324.5,91.5,332.5,84.0" stroke="black" stroke-width="2" fill="none" />
<polyline points="333.5,76.5,325.5,84.0,317.0,91.0" stroke="black" stroke-width="2" fill="none" />
<polyline points="313.0,95.0,321.5,94.5,329.5,94.0" stroke="black" stroke-width="2" fill="none" />
<polyline points="331.0,68.0,323.0,68.0,314.5,68.0" stroke="black" stroke-width="2" fill="none" />
<polyline points="309.0,91.0,301.5,91.0,293.5,92.0" stroke="black" stroke-width="2" fill="none" />
<polyline points="299.5,92.0,291.5,99.0" stroke="black" stroke-width="2" fill="none" />
<polyline points="291.5,102.0,299.5,101.0" stroke="black" stroke-width="2" fill="none" />
<polyline points="299.5,97.5,291.0,105.0" stroke="black" stroke-width="2" fill="none" />
<polyline points="286.0,105.5,306.0,90.5" stroke="black" stroke-width="2" fill="none" />
<polyline points="293.0,84.5,300.5,84.5,308.0,84.0,315.5,83.5,323.0,82.5,330.5,82.0" stroke="black" stroke-width="2" fill="none" />
<polyline points="330.5,76.0,322.5,76.0,315.5,76.5,308.0,77.0,300.0,77.5,291.5,78.0" stroke="black" stroke-width="2" fill="none" />
<polyline points="275.5,92.5,267.5,93.0,260.0,93.5" stroke="black" stroke-width="2" fill="none" />
<polyline points="259.5,87.0,269.5,97.0" stroke="black" stroke-width="2" fill="none" />
<polyline points="276.0,101.0,267.5,101.5,259.5,102.0" stroke="black" stroke-width="2" fill="none" />
<polyline points="259.5,109.5,267.5,109.0,275.5,109.0" stroke="black" stroke-width="2" fill="none" />
<polyline points="269.0,125.5,277.5,125.0,285.5,124.0" stroke="black" stroke-width="2" fill="none" />
<polyline points="274.5,86.0,266.5,86.0,258.5,86.5" stroke="black" stroke-width="2" fill="none" />
<polyline points="267.5,78.0,287.5,70.5,312.5,73.0,318.0,80.5" stroke="black" stroke-width="2" fill="none" />
<polyline points="314.0,33.5,326.5,31.0,309.0,51.5,286.5,81.5,284.5,101.5,274.0,127.0,284.5,137.0,274.5,157.5,270.0,177.5,267.5,197.0,267.5,217.0,282.0,229.5,260.0,237.5" stroke="black" stroke-width="2" fill="none" />
<polyline points="219.5,204.0,211.5,204.0" stroke="black" stroke-width="2" fill="none" />
<polyline points="212.0,196.5,220.0,196.5,228.0,196.0" stroke="black" stroke-width="2" fill="none" />
<polyline points="236.5,172.0,229.0,173.0,221.0,174.0,212.5,174.5" stroke="black" stroke-width="2" fill="none" />
<polyline points="203.5,181.5,195.5,181.5" stroke="black" stroke-width="2" fill="none" />
<polyline points="190.5,182.5,185.0,202.5" stroke="black" stroke-width="2" fill="none" />
<polyline points="189.0,198.5,197.0,198.0" stroke="black" stroke-width="2" fill="none" />
<polyline points="203.0,191.5,194.5,191.5,187.0,192.0" stroke="black" stroke-width="2" fill="none" />
<polyline points="181.0,203.5,173.0,204.0" stroke="black" stroke-width="2" fill="none" />
<polyline points="173.5,197.5,181.5,197.0" stroke="black" stroke-width="2" fill="none" />
<polyline points="181.5,189.0,174.0,189.5" stroke="black" stroke-width="2" fill="none" />
<polyline points="180.0,173.0,188.0,172.0,196.0,172.0,204.0,171.5" stroke="black" stroke-width="2" fill="none" />
<polyline points="202.5,162.0,211.0,154.0,219.5,146.0,227.5,138.0,235.5,130.5" stroke="black" stroke-width="2" fill="none" />
<polyline points="221.5,130.0,213.0,138.0,204.5,145.5,195.5,153.0,187.0,160.5" stroke="black" stroke-width="2" fill="none" />
<polyline points="189.0,168.0,197.0,160.5,205.0,153.0,212.5,146.0,220.0,138.5" stroke="black" stroke-width="2" fill="none" />
<polyline points="220.0,123.0,212.0,131.0,204.0,139.0,196.0,147.0,188.0,154.5" stroke="black" stroke-width="2" fill="none" />
<polyline points="187.0,148.5,195.5,141.0" stroke="black" stroke-width="2" fill="none" />
<polyline points="186.5,132.5,194.5,131.5,203.0,131.0,211.5,130.5,220.0,130.0,228.5,130.0,236.5,130.0,244.5,130.5,252.0,130.0,260.0,129.5,268.5,129.0,276.5,128.5,285.0,128.0" stroke="black" stroke-width="2" fill="none" />
<polyline points="235.0,148.5,227.0,155.5" stroke="black" stroke-width="2" fill="none" />
<polyline points="227.5,161.5,219.0,161.5,211.0,161.5,203.5,162.5,196.0,163.0,188.0,163.5,180.0,163.5,172.0,164.0" stroke="black" stroke-width="2" fill="none" />
<polyline points="172.0,156.5,180.0,156.0,188.0,155.0,196.5,155.0,204.5,154.5,212.5,154.0,220.5,153.5,228.5,152.5,236.0,152.0,244.0,151.5,251.5,151.0,259.5,151.0,267.0,150.5,275.0,150.0" stroke="black" stroke-width="2" fill="none" />
<polyline points="261.0,120.5,252.5,121.0,244.0,121.5,236.0,122.0,228.0,122.0,219.5,122.5,211.5,123.5,203.0,124.5" stroke="black" stroke-width="2" fill="none" />
<polyline points="204.5,117.5,212.0,117.0,219.5,117.0" stroke="black" stroke-width="2" fill="none" />
<polyline points="222.5,120.0,243.0,120.0,263.0,112.5" stroke="black" stroke-width="2" fill="none" />
<polyline points="234.0,102.5,226.5,103.5,218.5,104.5" stroke="black" stroke-width="2" fill="none" />
<polyline points="221.5,108.0,214.0,108.0" stroke="black" stroke-width="2" fill="none" />
<polyline points="219.5,99.0,199.5,99.0" stroke="black" stroke-width="2" fill="none" />
<polyline points="195.5,124.5,187.5,124.5" stroke="black" stroke-width="2" fill="none" />
<polyline points="178.5,140.5,186.5,140.5,194.5,140.0,202.0,140.5,210.0,140.5,218.0,140.5,225.5,140.5,233.5,139.5,242.0,139.0,250.5,138.0,259.0,137.0,267.0,136.5,274.5,136.0,282.0,136.0,290.5,136.5" stroke="black" stroke-width="2" fill="none" />
<polyline points="290.5,142.0,283.0,142.5,276.0,143.0,268.0,143.0,260.0,143.5,252.0,143.5,244.0,144.0,237.0,144.5,229.5,145.0,221.5,145.5,213.5,146.0,205.5,146.5,197.5,147.5,189.5,148.0,181.0,148.5,173.0,149.0" stroke="black" stroke-width="2" fill="none" />
<polyline points="160.0,140.0,165.0,159.5,172.0,179.5,159.0,199.5,171.5,210.0,154.0,222.5,189.5,205.0,217.0,172.5,237.0,185.0" stroke="black" stroke-width="2" fill="none" />
<polyline points="222.5,166.5,217.5,167.0,207.5,187.0,205.5,207.5" stroke="black" stroke-width="2" fill="none" />
<polyline points="194.5,168.5,187.0,169.5" stroke="black" stroke-width="2" fill="none" />
<polyline points="180.5,213.0,172.5,213.5,164.5,214.0,156.5,214.0" stroke="black" stroke-width="2" fill="none" />
<polyline points="157.5,206.0,165.5,205.5" stroke="black" stroke-width="2" fill="none" />
<polyline points="156.5,198.0,148.5,198.5" stroke="black" stroke-width="2" fill="none" />
<polyline points="139.0,195.0,131.0,202.5" stroke="black" stroke-width="2" fill="none" />
<polyline points="133.5,201.0,153.5,184.0" stroke="black" stroke-width="2" fill="none" />
<polyline points="137.0,201.5,129.0,209.0" stroke="black" stroke-width="2" fill="none" />
<polyline points="131.5,218.0,139.5,211.0" stroke="black" stroke-width="2" fill="none" />
<polyline points="139.5,219.0,147.5,211.5" stroke="black" stroke-width="2" fill="none" />
<polyline points="146.0,218.0,138.5,225.5,130.0,232.5" stroke="black" stroke-width="2" fill="none" />
<polyline points="130.0,238.5,138.0,238.5" stroke="black" stroke-width="2" fill="none" />
<polyline points="139.5,233.0,147.0,225.5" stroke="black" stroke-width="2" fill="none" />
<polyline points="146.5,223.5,138.5,224.0" stroke="black" stroke-width="2" fill="none" />
<polyline points="124.5,227.0,116.0,234.0" stroke="black" stroke-width="2" fill="none" />
<polyline points="107.5,233.5,115.5,226.0,124.0,218.5" stroke="black" stroke-width="2" fill="none" />
<polyline points="112.5,213.0,105.0,220.0" stroke="black" stroke-width="2" fill="none" />
<polyline points="105.5,226.5,98.0,234.0" stroke="black" stroke-width="2" fill="none" />
<polyline points="91.0,231.0,98.5,230.5,106.0,230.0,113.5,229.5,121.5,228.5,130.0,227.5,138.0,226.0,146.5,225.0,154.5,224.0" stroke="black" stroke-width="2" fill="none" />
<polyline points="163.0,237.5,171.0,237.0,179.0,236.0,187.5,235.0,196.0,234.5" stroke="black" stroke-width="2" fill="none" />
<polyline points="186.5,249.0,206.5,254.0,231.5,264.0,251.5,266.5,271.5,271.5,291.5,264.0" stroke="black" stroke-width="2" fill="none" />
<polyline points="203.0,267.0,195.5,268.0,187.5,268.5,179.0,269.0,170.5,269.0" stroke="black" stroke-width="2" fill="none" />
<polyline points="164.0,247.0,172.0,246.0,180.0,245.5" stroke="black" stroke-width="2" fill="none" />
<polyline points="131.0,253.0,123.5,261.0,115.5,269.0" stroke="black" stroke-width="2" fill="none" />
<polyline points="107.0,265.5,115.5,257.5,123.5,249.5" stroke="black" stroke-width="2" fill="none" />
<polyline points="123.5,245.5,131.5,244.5,139.0,244.5" stroke="black" stroke-width="2" fill="none" />
<polyline points="114.5,244.0,106.5,244.5" stroke="black" stroke-width="2" fill="none" />
<polyline points="105.5,250.5,97.5,258.5,89.5,265.5" stroke="black" stroke-width="2" fill="none" />
<polyline points="99.0,265.5,106.0,258.5,114.0,251.0" stroke="black" stroke-width="2" fill="none" />
<polyline points="113.5,236.0,105.5,236.0,97.5,236.5,89.5,237.0" stroke="black" stroke-width="2" fill="none" />
<polyline points="75.5,237.5,68.0,237.5,60.0,238.0" stroke="black" stroke-width="2" fill="none" />
<polyline points="53.5,226.0,61.5,218.5" stroke="black" stroke-width="2" fill="none" />
<polyline points="60.5,212.0,68.5,211.0" stroke="black" stroke-width="2" fill="none" />
<polyline points="68.0,209.0,76.0,201.5,84.0,194.5,92.0,187.0" stroke="black" stroke-width="2" fill="none" />
<polyline points="84.0,189.0,76.0,196.5,67.5,204.0,59.0,211.5,50.5,218.5,42.0,225.5" stroke="black" stroke-width="2" fill="none" />
<polyline points="44.0,230.0,52.5,229.5,60.5,229.0" stroke="black" stroke-width="2" fill="none" />
<polyline points="58.5,223.0,50.5,223.5" stroke="black" stroke-width="2" fill="none" />
<polyline points="50.5,215.5,58.5,215.5" stroke="black" stroke-width="2" fill="none" />
<polyline points="51.0,213.0,43.0,220.0,34.5,227.5" stroke="black" stroke-width="2" fill="none" />
<polyline points="28.5,227.0,37.0,219.5,45.5,212.0" stroke="black" stroke-width="2" fill="none" />
<polyline points="43.5,204.0,52.0,196.5" stroke="black" stroke-width="2" fill="none" />
<polyline points="52.5,192.5,44.5,193.0" stroke="black" stroke-width="2" fill="none" />
<polyline points="42.5,194.0,51.0,186.0,59.5,178.5" stroke="black" stroke-width="2" fill="none" />
<polyline points="60.0,184.5,68.0,177.0" stroke="black" stroke-width="2" fill="none" />
<polyline points="68.0,165.0,76.0,164.5" stroke="black" stroke-width="2" fill="none" />
<polyline points="84.0,166.5,92.0,166.0,100.0,165.5,108.5,165.0,117.0,164.5,124.5,163.5,133.0,163.5,141.0,162.5" stroke="black" stroke-width="2" fill="none" />
<polyline points="138.0,155.0,146.0,147.5" stroke="black" stroke-width="2" fill="none" />
<polyline points="138.5,146.5,146.5,139.0" stroke="black" stroke-width="2" fill="none" />
<polyline points="143.0,139.5,163.0,134.5,146.0,134.5,136.5,154.0,132.0,174.0,142.5,188.5,145.0,208.5,147.5,228.5,132.5,246.0,147.5,258.5,162.5,263.5,165.0,286.5,150.0,306.5,145.0,319.0,154.5,336.5,159.5,321.5,179.5,329.0,194.5,319.5,214.5,327.0,234.5,329.5,237.0,337.0,257.0,319.5,269.5,337.0" stroke="black" stroke-width="2" fill="none" />
<polyline points="232.5,334.0,267.5,326.5,250.0,319.0,237.5,311.5,245.0,309.5,247.5,305.0,219.5,320.0,192.0,335.0,187.0,332.0,199.5,322.0,175.0,317.5,182.5,302.5,169.5,290.0,182.0,267.5,184.5,247.5,197.0,230.0,212.0,230.0,219.5,207.5,232.5,202.5,225.0,192.5,250.5,178.0,253.0,158.0,230.5,160.5" stroke="black" stroke-width="2" fill="none" />
<polyline points="164.5,120.5,156.5,121.5,148.0,122.0,139.5,122.5,131.5,124.0,123.0,125.0,114.0,125.5,106.0,126.5" stroke="black" stroke-width="2" fill="none" />
<polyline points="99.0,132.0,107.0,131.0,115.0,131.0,123.0,131.0,131.5,131.0,140.0,131.0,148.0,130.5,156.0,131.0" stroke="black" stroke-width="2" fill="none" />
<polyline points="157.5,133.0,154.5,153.0,152.0,173.0,139.0,182.5,126.5,202.0,124.0,222.0,131.5,224.5,137.0,219.5,164.5,237.0,170.0,227.5" stroke="black" stroke-width="2" fill="none" />
<polyline points="139.5,195.5,132.0,195.5,123.5,196.5,115.5,196.5" stroke="black" stroke-width="2" fill="none" />
<polyline points="108.5,196.5,100.5,203.5" stroke="black" stroke-width="2" fill="none" />
<polyline points="108.5,204.5,100.0,211.5,91.5,218.5" stroke="black" stroke-width="2" fill="none" />
<polyline points="97.0,219.5,105.5,212.0" stroke="black" stroke-width="2" fill="none" />
<polyline points="91.5,211.5,83.5,219.5" stroke="black" stroke-width="2" fill="none" />
<polyline points="76.0,222.0,84.0,221.5,92.5,220.5,101.0,219.5,108.5,218.5,116.0,218.0,123.5,217.5,131.5,216.5,139.5,215.5,147.5,214.5,155.5,214.0,163.5,214.0,171.5,214.0" stroke="black" stroke-width="2" fill="none" />
<polyline points="131.5,179.0,123.5,179.5,115.0,180.0,107.0,180.5,99.5,180.5" stroke="black" stroke-width="2" fill="none" />
<polyline points="106.5,178.5,114.0,171.0" stroke="black" stroke-width="2" fill="none" />
<polyline points="114.5,164.5,106.5,172.0,99.0,180.0" stroke="black" stroke-width="2" fill="none" />
<polyline points="100.5,170.0,109.0,162.0" stroke="black" stroke-width="2" fill="none" />
<polyline points="97.0,157.0,105.5,156.5,113.5,156.0,122.5,155.0,131.5,154.0,140.5,153.5,148.5,153.0" stroke="black" stroke-width="2" fill="none" />
<polyline points="140.0,145.5,132.5,146.0" stroke="black" stroke-width="2" fill="none" />
<polyline points="132.0,145.5,140.0,138.0,148.0,130.5,156.0,123.0" stroke="black" stroke-width="2" fill="none" />
<polyline points="146.5,125.5,138.5,132.5,130.5,139.5,122.5,146.5" stroke="black" stroke-width="2" fill="none" />
<polyline points="122.5,149.0,130.5,148.5,139.0,147.5,147.0,147.0" stroke="black" stroke-width="2" fill="none" />
<polyline points="140.5,138.5,132.0,138.5" stroke="black" stroke-width="2" fill="none" />
<polyline points="124.5,139.0,133.0,131.0,141.0,123.5" stroke="black" stroke-width="2" fill="none" />
<polyline points="139.5,127.0,147.5,127.0" stroke="black" stroke-width="2" fill="none" />
<polyline points="137.5,117.5,145.5,117.0,154.0,117.0,162.5,117.0" stroke="black" stroke-width="2" fill="none" />
<polyline points="164.5,108.5,156.5,109.5,148.5,109.5" stroke="black" stroke-width="2" fill="none" />
<polyline points="149.0,104.5,157.0,97.0" stroke="black" stroke-width="2" fill="none" />
<polyline points="148.0,99.0,140.0,107.0" stroke="black" stroke-width="2" fill="none" />
<polyline points="133.5,103.0,141.5,102.5,149.0,102.0,157.0,101.5,164.5,101.0" stroke="black" stroke-width="2" fill="none" />
<polyline points="156.0,103.0,147.5,103.5" stroke="black" stroke-width="2" fill="none" />
<polyline points="139.5,98.5,147.5,91.0" stroke="black" stroke-width="2" fill="none" />
<polyline points="139.5,92.0,131.5,100.0" stroke="black" stroke-width="2" fill="none" />
<polyline points="130.5,92.0,122.5,99.5" stroke="black" stroke-width="2" fill="none" />
<polyline points="124.5,94.0,132.0,93.0,140.5,93.0,148.5,92.5" stroke="black" stroke-width="2" fill="none" />
<polyline points="130.5,83.5,122.5,90.5" stroke="black" stroke-width="2" fill="none" />
<polyline points="122.5,84.0,115.0,91.5" stroke="black" stroke-width="2" fill="none" />
<polyline points="113.5,84.5,106.0,91.5" stroke="black" stroke-width="2" fill="none" />
<polyline points="99.5,91.5,107.5,84.5" stroke="black" stroke-width="2" fill="none" />
<polyline points="106.0,77.0,114.0,76.5,122.0,76.0,130.0,75.5,138.0,75.0,146.5,74.5" stroke="black" stroke-width="2" fill="none" />
<polyline points="164.5,70.0,172.5,69.5" stroke="black" stroke-width="2" fill="none" />
<polyline points="148.5,69.0,141.0,69.5,133.0,70.5,125.5,71.0" stroke="black" stroke-width="2" fill="none" />
<polyline points="124.5,62.5,133.0,62.0,141.0,61.0,149.0,60.0" stroke="black" stroke-width="2" fill="none" />
<polyline points="148.0,46.5,140.5,46.5,132.5,47.0" stroke="black" stroke-width="2" fill="none" />
<polyline points="123.0,51.5,131.0,50.5,138.5,50.5,146.5,50.0" stroke="black" stroke-width="2" fill="none" />
<polyline points="152.0,46.5,172.0,29.0,177.0,34.5,179.5,42.0,184.5,57.0,165.0,76.5,167.5,94.5,175.5,122.0,178.0,142.0,176.0,162.0,168.5,169.5,183.0,182.0,200.5,179.5,205.5,157.0,213.0,167.5,220.5,160.0,240.0,152.5,242.0,148.0,266.5,153.5" stroke="black" stroke-width="2" fill="none" />
<polyline points="290.0,181.0,300.0,181.0,295.0,178.5,285.0,198.5,284.5,178.5,299.5,173.5,294.5,164.0,299.0,146.5,299.0,127.0,301.5,97.0,327.0,92.0,324.5,72.0,337.5,70.0,345.0,50.0,352.5,45.0,350.0,25.5,327.5,33.0" stroke="black" stroke-width="2" fill="none" />
<polyline points="282.5,27.5,302.5,10.0,322.0,5.0,317.0,19.5,296.5,29.5,304.0,32.0,324.0,27.0,344.0,17.5,364.0,20.0,374.0,52.0,394.0,52.0,397.0,72.0,397.0,92.5,385.0,122.5,405.0,137.5,422.5,132.5" stroke="black" stroke-width="2" fill="none" />
<polyline points="279.5,51.5,276.5,46.5,256.5,51.5,236.5,67.0" stroke="black" stroke-width="2" fill="none" />
<polyline points="221.5,59.5,213.5,59.5" stroke="black" stroke-width="2" fill="none" />
<polyline points="226.5,48.5,231.5,28.0,227.0,18.0,207.0,20.5" stroke="black" stroke-width="2" fill="none" />
<polyline points="189.5,3.0,189.5,5.5,207.0,25.5,217.0,30.5,201.5,68.5,221.5,64.0,229.5,34.0,254.5,31.5,274.0,7.0,281.5,41.5" stroke="black" stroke-width="2" fill="none" />
<polyline points="270.0,8.0,272.5,28.0,282.5,48.0,282.5,73.0,255.0,86.0,260.0,106.0,255.0,126.0,245.0,128.0,240.0,138.0,228.0,158.0,246.0,178.0,258.5,185.0,256.0,205.0,246.0,217.5,246.0,237.0,235.5,229.0,235.5,246.0,255.5,228.5" stroke="black" stroke-width="2" fill="none" />
<polyline points="147.0,247.0,139.5,247.5,131.5,248.0,123.5,249.0,115.5,249.5,107.5,250.5,100.0,251.5,92.0,252.5,84.0,253.5,76.0,254.0" stroke="black" stroke-width="2" fill="none" />
<polyline points="69.5,260.0,77.5,259.5,85.5,259.0,93.5,258.5,101.5,258.0,109.0,258.0,117.0,258.0,124.5,258.0,132.5,258.0,140.5,258.0" stroke="black" stroke-width="2" fill="none" />
<polyline points="132.0,268.5,152.0,293.5,166.5,268.5" stroke="black" stroke-width="2" fill="none" />
<polyline points="130.5,274.0,148.5,289.5,161.0,311.5,164.0,324.5" stroke="black" stroke-width="2" fill="none" />
<polyline points="163.5,312.0,183.5,324.5" stroke="black" stroke-width="2" fill="none" />
<polyline points="124.0,324.5,141.0,304.5,138.5,284.5,130.5,257.0,110.5,257.0,91.0,252.0" stroke="black" stroke-width="2" fill="none" />
<polyline points="70.5,277.5,90.5,290.0,110.5,294.5,123.0,317.0" stroke="black" stroke-width="2" fill="none" />
<polyline points="98.0,305.0,78.0,285.5" stroke="black" stroke-width="2" fill="none" />
<polyline points="76.0,299.5,86.0,322.0,106.0,329.5" stroke="black" stroke-width="2" fill="none" />
<polyline points="53.5,308.0,46.0,308.5" stroke="black" stroke-width="2" fill="none" />
<polyline points="44.5,302.0,52.5,301.5" stroke="black" stroke-width="2" fill="none" />
<polyline points="27.5,300.5,30.0,310.0,29.5,332.5" stroke="black" stroke-width="2" fill="none" />
<polyline points="44.5,321.5,55.0,301.5,40.5,286.5,20.5,286.0,13.5,288.5,11.0,301.0" stroke="black" stroke-width="2" fill="none" />
<polyline points="17.5,297.5,37.0,295.0,57.0,292.5,62.5,295.0,72.5,300.0,103.0,320.0" stroke="black" stroke-width="2" fill="none" />
<polyline points="99.5,247.0,82.5,249.5,73.0,257.0,53.0,257.0,40.0,247.0,45.0,254.5,37.5,254.5,10.0,241.5" stroke="black" stroke-width="2" fill="none" />
<polyline points="9.0,251.0,24.0,271.0,21.0,283.5,21.0,304.0,18.0,322.0,21.0,337.0,55.5,337.5" stroke="black" stroke-width="2" fill="none" />
<polyline points="102.5,327.5,82.5,315.5,62.5,300.5,55.0,315.5,32.5,320.5,12.5,310.5,2.5,325.5" stroke="black" stroke-width="2" fill="none" />
<polyline points="3.5,253.0,23.5,270.0,43.5,282.5,63.5,275.0,63.5,262.0,83.0,264.0,103.0,266.0,123.0,263.5,142.5,263.5,162.0,263.5,182.0,265.5,192.0,255.5,201.5,263.0,221.5,266.0,244.0,256.0,264.0,256.5" stroke="black" stroke-width="2" fill="none" />
<polyline points="106.0,147.5,98.0,148.0" stroke="black" stroke-width="2" fill="none" />
<polyline points="97.0,141.0,105.5,140.5,113.5,140.0,122.5,139.5,131.5,139.0,140.0,138.5,148.5,138.0,156.5,137.5" stroke="black" stroke-width="2" fill="none" />
<polyline points="123.0,114.0,115.0,114.5" stroke="black" stroke-width="2" fill="none" />
<polyline points="101.0,108.5,93.0,109.0" stroke="black" stroke-width="2" fill="none" />
<polyline points="92.0,101.5,84.5,102.0,76.5,102.5,68.5,103.0" stroke="black" stroke-width="2" fill="none" />
<polyline points="68.0,106.0,76.0,98.5" stroke="black" stroke-width="2" fill="none" />
<polyline points="76.0,94.5,83.5,94.0,91.5,93.0,100.0,92.5" stroke="black" stroke-width="2" fill="none" />
<polyline points="93.5,91.0,85.0,99.0" stroke="black" stroke-width="2" fill="none" />
<polyline points="86.5,105.0,97.0,107.5" stroke="black" stroke-width="2" fill="none" />
<polyline points="91.5,118.0,83.5,118.5,76.0,119.0" stroke="black" stroke-width="2" fill="none" />
<polyline points="80.5,112.0,80.5,97.0,103.5,111.5,98.0,132.0,93.0,152.5,95.5,165.0,98.0,185.0,78.0,202.5,58.0,222.5,50.0,245.0,75.0,242.5,80.0,245.5,88.0,223.0,110.5,225.0,125.0,215.0,135.0,190.5" stroke="black" stroke-width="2" fill="none" />
<polyline points="132.0,171.5,124.0,171.5,116.0,172.0,107.5,172.5,99.0,173.5,90.5,174.0" stroke="black" stroke-width="2" fill="none" />
<polyline points="76.0,187.0,68.0,195.0,60.5,202.5" stroke="black" stroke-width="2" fill="none" />
<polyline points="69.5,200.0,77.5,199.0,85.0,199.0" stroke="black" stroke-width="2" fill="none" />
<polyline points="84.0,194.0,76.0,194.5" stroke="black" stroke-width="2" fill="none" />
<polyline points="59.5,185.5,51.5,186.0" stroke="black" stroke-width="2" fill="none" />
<polyline points="53.5,180.5,45.0,188.0" stroke="black" stroke-width="2" fill="none" />
<polyline points="44.0,189.5,52.0,188.5,60.0,188.0,68.5,187.5,77.0,187.0,85.0,186.5,93.5,186.5,101.5,186.0,109.5,186.0,117.5,185.0,125.5,184.5,134.0,183.5,142.0,183.5,149.5,183.0,157.0,182.5" stroke="black" stroke-width="2" fill="none" />
<polyline points="92.5,141.5,85.0,142.5" stroke="black" stroke-width="2" fill="none" />
<polyline points="85.0,150.5,77.0,150.0" stroke="black" stroke-width="2" fill="none" />
<polyline points="83.5,156.0,75.0,156.5,66.5,157.0" stroke="black" stroke-width="2" fill="none" />
<polyline points="60.5,159.0,52.5,160.0" stroke="black" stroke-width="2" fill="none" />
<polyline points="52.5,150.0,60.5,149.5,68.0,149.0" stroke="black" stroke-width="2" fill="none" />
<polyline points="66.5,140.5,58.0,141.0,50.0,141.5" stroke="black" stroke-width="2" fill="none" />
<polyline points="51.5,131.5,59.5,131.5,67.5,131.0,75.5,130.5,83.5,130.0,91.5,130.0" stroke="black" stroke-width="2" fill="none" />
<polyline points="83.5,109.0,75.0,109.5,67.5,110.0" stroke="black" stroke-width="2" fill="none" />
<polyline points="72.5,107.5,92.5,117.5,90.0,137.5,72.5,145.0,90.5,162.5,115.5,157.5,135.5,152.5,135.5,160.0" stroke="black" stroke-width="2" fill="none" />
<polyline points="150.0,83.0,141.5,84.0,133.0,84.5,125.5,85.0,117.5,85.0,109.0,85.5,101.0,86.0,93.0,86.5" stroke="black" stroke-width="2" fill="none" />
<polyline points="93.5,77.5,102.0,76.5" stroke="black" stroke-width="2" fill="none" />
<polyline points="90.5,123.0,82.0,124.0,74.0,124.5,65.5,125.0,57.5,126.0" stroke="black" stroke-width="2" fill="none" />
<polyline points="54.5,130.5,49.5,150.5,40.0,170.5,37.5,190.0,33.0,195.0,53.0,190.0,60.5,184.5,75.0,190.0,75.0,167.5,95.0,177.5,105.0,205.5,112.5,190.0,132.0,172.5" stroke="black" stroke-width="2" fill="none" />
<polyline points="92.0,178.0,84.5,178.0,76.5,179.0,68.5,179.0,60.0,179.5,52.0,180.0,44.0,180.0" stroke="black" stroke-width="2" fill="none" />
<polyline points="44.0,174.5,52.0,174.0,60.0,173.5,68.5,173.0,76.5,172.5" stroke="black" stroke-width="2" fill="none" />
<polyline points="59.5,164.5,52.0,165.0,44.0,166.0" stroke="black" stroke-width="2" fill="none" />
<polyline points="20.0,153.0,39.5,148.0,59.5,133.0,57.0,153.0,42.0,183.0,62.0,178.0,82.0,155.5" stroke="black" stroke-width="2" fill="none" />
<polyline points="64.5,115.0,56.5,115.5" stroke="black" stroke-width="2" fill="none" />
<polyline points="50.0,120.0,70.0,112.5,67.5,142.0,77.5,134.5" stroke="black" stroke-width="2" fill="none" />
<polyline points="84.5,187.0,74.5,204.5,54.5,225.0,34.5,220.0,24.5,215.0,5.0,217.5,2.5,222.5" stroke="black" stroke-width="2" fill="none" />
<polyline points="4.0,221.0,11.5,221.0,20.0,220.5,28.0,220.0,36.5,219.0,44.5,218.0,52.5,217.0,60.5,217.0,69.0,216.0" stroke="black" stroke-width="2" fill="none" />
<polyline points="36.0,207.0,43.5,206.5,51.0,206.0,58.5,204.5,66.5,203.5,74.0,203.0,82.5,202.5,91.0,202.0,99.5,201.5,108.0,201.5,116.0,201.0,124.0,200.5,132.5,199.5,141.0,198.5,148.5,197.5" stroke="black" stroke-width="2" fill="none" />
<polyline points="108.0,194.0,100.0,194.5,92.5,194.5,84.5,194.5,76.5,195.5,68.5,196.0,60.5,197.0,52.0,197.5,43.5,198.0,35.0,198.5" stroke="black" stroke-width="2" fill="none" />
<polyline points="28.5,215.5,36.5,215.0,45.0,214.5,53.0,213.5,61.0,213.0,69.0,212.0,77.0,211.5,85.0,211.0,93.0,210.5,101.0,210.0,109.0,209.0,117.0,209.5,125.0,209.0,133.0,208.5,141.0,208.0,149.0,207.0" stroke="black" stroke-width="2" fill="none" />
<polyline points="30.5,220.0,22.5,227.5" stroke="black" stroke-width="2" fill="none" />
<polyline points="21.0,229.5,28.5,229.0,36.0,229.0" stroke="black" stroke-width="2" fill="none" />
<polyline points="21.0,219.5,13.0,227.0" stroke="black" stroke-width="2" fill="none" />
<polyline points="12.0,231.5,32.0,231.5,42.0,239.5" stroke="black" stroke-width="2" fill="none" />
<polyline points="26.0,226.5,18.0,226.5" stroke="black" stroke-width="2" fill="none" />
<polyline points="4.0,251.0,4.0,271.0,14.0,286.0,19.0,301.5,34.0,321.5,59.0,326.5,56.5,337.0,61.5,329.5,89.0,309.5,109.0,314.5,127.0,339.0" stroke="black" stroke-width="2" fill="none" />
<polyline points="30.0,171.5,20.0,151.5" stroke="black" stroke-width="2" fill="none" />
<polyline points="22.5,143.5,2.5,153.5" stroke="black" stroke-width="2" fill="none" />
<polyline points="3.0,87.5,11.5,86.5" stroke="black" stroke-width="2" fill="none" />
<polyline points="7.0,85.0,27.0,80.0,22.0,107.5,14.5,127.0" stroke="black" stroke-width="2" fill="none" />
<polyline points="19.0,79.0,27.0,78.0" stroke="black" stroke-width="2" fill="none" />
<polyline points="12.5,78.5,4.5,79.5" stroke="black" stroke-width="2" fill="none" />
<polyline points="6.0,71.0,14.0,70.0,21.5,69.5,29.0,68.5,36.5,68.0" stroke="black" stroke-width="2" fill="none" />
<polyline points="35.0,36.5,26.5,36.0,18.5,36.5,10.5,37.0,3.0,37.5" stroke="black" stroke-width="2" fill="none" />
<polyline points="3.0,27.0,11.0,26.5,19.5,26.0,27.5,26.0,35.0,26.5,43.0,26.5,51.0,26.0" stroke="black" stroke-width="2" fill="none" />
<polyline points="50.5,17.5,43.5,18.0,35.5,18.0,27.0,18.5,19.0,18.5,10.5,18.5,2.5,19.0" stroke="black" stroke-width="2" fill="none" />
<polyline points="9.0,22.0,12.0,47.0,9.5,72.0,12.0,107.0,4.5,104.5,12.0,114.5,34.5,92.0" stroke="black" stroke-width="2" fill="none" />
<polyline points="13.0,97.0,30.5,77.0,45.0,57.5,30.0,30.0" stroke="black" stroke-width="2" fill="none" />
<polyline points="25.5,7.5,45.5,20.5,65.5,5.5,70.5,23.0" stroke="black" stroke-width="2" fill="none" />
<polyline points="75.5,13.0,83.5,12.5" stroke="black" stroke-width="2" fill="none" />
<polyline points="77.5,6.0,69.5,6.5" stroke="black" stroke-width="2" fill="none" />
<polyline points="70.5,1.0,63.5,11.5,61.0,27.0,38.5,47.0,28.5,54.0,35.5,66.5,71.0,34.0,78.5,14.0,91.5,21.0,111.5,31.0,104.0,51.0,126.5,38.5,146.0,13.5,131.0,29.0,123.0,49.5,113.5,69.5,103.0,87.5,83.0,102.0,75.5,119.5,81.0,139.5,71.0,152.0,68.5,172.0,48.5,192.0,33.5,202.0,43.5,209.5,34.0,229.5,37.0,242.0,35.0,262.0,68.0,264.5,68.5,277.0,81.0,279.5,101.0,299.5,118.0,307.0,115.5,319.5,125.0,321.5,152.5,309.5,169.5,302.0,169.0,290.0,181.5,290.0,186.0,280.5,206.0,278.5,218.5,290.5,229.0,285.0,239.0,277.5,259.5,277.0,275.0,264.5,282.5,267.0,312.5,259.5,332.5,269.5,353.0,271.5" stroke="black" stroke-width="2" fill="none" />
<polyline points="219.5,58.5,197.0,71.0,185.0,40.5,170.0,60.5,138.0,70.5,117.5,80.0,110.0,65.0,90.0,79.5,73.0,59.0,60.5,89.0,53.0,68.5,71.0,46.0,46.0,28.5,33.5,8.5,13.5,3.5" stroke="black" stroke-width="2" fill="none" />
<polyline points="18.5,6.0,11.0,6.5,3.0,6.5" stroke="black" stroke-width="2" fill="none" />
<polyline points="1.0,12.0,9.5,12.0,18.0,12.0,26.0,11.5,33.5,11.0,41.5,10.0" stroke="black" stroke-width="2" fill="none" />
<polyline points="84.0,0.5,89.0,20.5,84.0,28.5,107.0,49.0,97.0,69.0,67.0,61.5,54.0,66.5,73.5,51.5" stroke="black" stroke-width="2" fill="none" />
<polyline points="92.0,8.0,111.5,20.5" stroke="black" stroke-width="2" fill="none" />
<polyline points="96.5,7.0,101.5,19.5,111.5,44.5,109.0,64.5,109.0,87.5,129.5,108.0,119.5,135.5,127.0,161.0,117.5,181.0,100.0,196.0,100.0,201.0,120.0,201.0,112.5,220.5,82.5,237.5,82.5,229.5,102.5,239.5,122.0,234.0,132.0,233.5,134.5,238.0,144.5,253.0,164.5,248.0,184.5,245.5,204.5,243.0,224.5,218.0,249.0,248.5,269.0,249.0,289.5,251.5,322.0,254.0,341.5,257.0,361.5,259.0,381.5,259.0,401.5,251.5,411.5,257.0" stroke="black" stroke-width="2" fill="none" />
<polyline points="435.0,11.5,425.0,29.5,415.5,24.5,395.5,32.5,375.5,37.5,355.0,45.0,335.5,45.0,315.5,42.5,295.5,62.5,275.0,70.0,257.5,75.5,237.5,80.5,217.5,88.0,197.5,95.5,177.5,100.5,155.0,118.0,135.0,123.0,135.0,123.0,157.5,102.5,162.5,87.5,145.5,85.0,153.0,80.0,153.0,52.5,165.5,50.0,173.5,30.5,173.5,10.5" stroke="black" stroke-width="2" fill="none" />
<polyline points="169.0,12.5,189.0,27.5,211.5,5.0,232.0,7.0" stroke="black" stroke-width="2" fill="none" />
<polyline points="230.0,8.0,240.0,28.0,237.5,48.0,212.5,50.0,219.5,32.5" stroke="black" stroke-width="2" fill="none" />
<polyline points="177.5,62.5,157.5,75.5,137.5,93.0,134.5,72.5,142.5,52.5,142.5,40.5,142.5,21.0" stroke="black" stroke-width="2" fill="none" />
<polyline points="266.5,0.5,259.5,20.5,257.0,40.5,267.0,53.5,237.0,66.5,214.5,86.5,169.5,106.5,184.0,126.5,178.5,157.0,181.0,169.5,181.0,175.0,173.5,194.5,163.5,207.0,153.5,217.0,159.0,232.0,179.0,234.5,196.5,227.0,214.0,214.5,221.5,201.5,236.5,199.0,254.0,209.0,269.0,216.5,276.5,224.0,296.5,239.0,309.0,216.5,301.5,251.5,321.5,236.5,339.0,244.0,341.5,249.5,362.0,249.5,384.0,249.5,407.0,262.0,427.0,257.0,437.0,259.5,439.5,249.0,454.0,237.0,479.0,234.5,499.0,227.0,496.5,259.5" stroke="black" stroke-width="2" fill="none" />
</svg>