<svg xmlns="http://www.w3.org/2000/svg" version="1.1"><polyline points="69.5,1.5,57.0,6.5,49.0,26.5,54.0,58.5,44.0,68.5,54.0,78.5,48.5,98.5,41.5,106.0,38.5,133.5,31.0,138.5,24.0,158.5,36.0,168.5,41.0,191.0,36.5,211.0,37.0,231.5,32.5,237.0,55.0,251.5,20.5,266.5,31.0,291.5,61.0,294.0,63.5,294.5,71.0,296.5,85.5,291.5,102.5,268.5,120.0,268.5,140.0,271.5,149.5,269.0,169.0,286.5,169.0,279.5,194.0,279.5,209.0,284.5,229.0,274.5,249.0,242.0,269.0,229.5,289.0,234.5,289.5,250.0,299.5,265.0,319.5,263.0,319.5,255.0,332.0,240.0,352.0,245.5,372.0,240.0,392.5,245.0,412.5,242.5,432.5,242.0,428.0,214.5,447.5,229.5,467.5,234.5,487.5,234.5,508.0,234.5" stroke="black" stroke-width="2" fill="none" />
<polyline points="519.0,215.5,503.5,215.5,487.0,215.5,470.5,215.0" stroke="black" stroke-width="2" fill="none" />
<polyline points="474.5,228.0,494.5,230.5" stroke="black" stroke-width="2" fill="none" />
<polyline points="516.5,226.5,501.5,227.5,485.0,229.0,469.0,229.0,454.5,230.0,439.5,231.5,424.0,232.0,408.5,232.5,392.0,233.5,375.0,234.5,358.5,235.0,342.5,234.5,326.5,234.5" stroke="black" stroke-width="2" fill="none" />
<polyline points="339.5,222.5,355.5,221.0" stroke="black" stroke-width="2" fill="none" />
<polyline points="373.0,222.0,392.5,222.0,412.5,219.5" stroke="black" stroke-width="2" fill="none" />
<polyline points="421.0,219.5,437.0,219.5" stroke="black" stroke-width="2" fill="none" />
<polyline points="441.5,203.0,458.0,202.0" stroke="black" stroke-width="2" fill="none" />
<polyline points="459.0,201.5,469.0,221.5,478.5,246.5" stroke="black" stroke-width="2" fill="none" />
<polyline points="457.5,235.5,441.0,236.5,423.5,237.5,407.0,238.5,391.0,239.5,375.0,240.5,358.5,241.0,343.0,242.0,327.5,243.0,311.5,244.5,295.5,247.0,279.5,248.0,264.0,248.5,249.0,249.5,233.5,250.0,218.5,251.5,201.5,252.0,185.5,251.5,169.0,251.0,153.0,250.0,136.5,250.0,120.5,250.5,103.0,252.0,85.5,252.5,68.5,253.5,52.5,254.5" stroke="black" stroke-width="2" fill="none" />
<polyline points="53.0,271.0,70.5,270.0,87.0,268.5,103.5,268.0,119.5,267.5,136.0,267.0,153.5,266.5,170.0,266.0,186.0,265.0,202.5,264.5,218.5,264.5,234.0,264.0,250.0,264.0,265.0,263.5,279.5,263.0,295.0,261.0,310.5,260.0,326.5,257.5,343.0,256.0,359.0,255.0,374.5,253.0,391.0,253.5,407.5,253.5,423.0,253.5,438.5,254.0" stroke="black" stroke-width="2" fill="none" />
<polyline points="450.0,245.5,440.0,247.5,424.5,268.0,432.5,290.5,452.5,300.5,472.5,305.5,492.0,298.5,484.0,325.5,479.0,330.5,499.0,307.5" stroke="black" stroke-width="2" fill="none" />
<polyline points="501.5,280.5,485.0,282.0" stroke="black" stroke-width="2" fill="none" />
<polyline points="502.5,297.0,486.5,297.5,469.5,298.5,452.5,299.0,436.5,299.0,420.0,300.0,404.0,301.0,387.5,302.5" stroke="black" stroke-width="2" fill="none" />
<polyline points="387.0,316.5,403.0,316.0,420.5,314.5" stroke="black" stroke-width="2" fill="none" />
<polyline points="439.5,316.0,454.5,315.0,471.0,314.0,487.5,313.0,504.5,310.5,520.0,309.5" stroke="black" stroke-width="2" fill="none" />
<polyline points="517.5,329.5,502.5,329.5,487.0,330.0,471.0,330.5" stroke="black" stroke-width="2" fill="none" />
<polyline points="456.0,330.5,440.0,330.5" stroke="black" stroke-width="2" fill="none" />
<polyline points="406.0,327.5,413.5,307.0,413.5,287.0" stroke="black" stroke-width="2" fill="none" />
<polyline points="405.0,284.0,387.0,289.0,359.0,276.5,346.5,281.5,326.0,284.0" stroke="black" stroke-width="2" fill="none" />
<polyline points="327.5,293.0,343.0,277.0" stroke="black" stroke-width="2" fill="none" />
<polyline points="334.0,272.0,354.0,267.0,356.5,289.5,349.0,309.5,364.0,329.5,382.0,322.5" stroke="black" stroke-width="2" fill="none" />
<polyline points="362.0,296.5,378.0,280.5,394.5,264.5" stroke="black" stroke-width="2" fill="none" />
<polyline points="395.0,276.5,412.0,261.0" stroke="black" stroke-width="2" fill="none" />
<polyline points="424.5,261.5,408.5,277.5" stroke="black" stroke-width="2" fill="none" />
<polyline points="406.5,280.5,406.5,301.0" stroke="black" stroke-width="2" fill="none" />
<polyline points="388.5,283.0,388.5,303.0,396.5,323.5,426.5,336.0" stroke="black" stroke-width="2" fill="none" />
<polyline points="442.5,301.0,440.0,281.0" stroke="black" stroke-width="2" fill="none" />
<polyline points="422.0,278.5,424.5,298.5,429.5,321.0,442.0,331.0" stroke="black" stroke-width="2" fill="none" />
<polyline points="392.5,275.0,376.5,275.5" stroke="black" stroke-width="2" fill="none" />
<polyline points="363.0,278.5,347.0,295.0" stroke="black" stroke-width="2" fill="none" />
<polyline points="346.5,302.5,366.5,320.5" stroke="black" stroke-width="2" fill="none" />
<polyline points="343.0,313.5,327.5,313.5,312.0,314.5" stroke="black" stroke-width="2" fill="none" />
<polyline points="304.5,308.5,324.5,301.5" stroke="black" stroke-width="2" fill="none" />
<polyline points="311.0,291.5,328.5,275.5,344.5,260.5" stroke="black" stroke-width="2" fill="none" />
<polyline points="324.5,272.0,344.5,252.0,369.5,257.0,392.0,229.5,411.5,229.5,431.0,227.0" stroke="black" stroke-width="2" fill="none" />
<polyline points="410.5,216.0,395.0,217.5,380.0,219.0" stroke="black" stroke-width="2" fill="none" />
<polyline points="391.0,205.5,407.0,206.0" stroke="black" stroke-width="2" fill="none" />
<polyline points="424.0,183.5,440.0,168.5,455.5,153.5" stroke="black" stroke-width="2" fill="none" />
<polyline points="437.0,151.5,420.0,166.5" stroke="black" stroke-width="2" fill="none" />
<polyline points="424.0,169.0,439.0,169.5,454.5,169.5,469.5,169.5,484.5,169.5,499.5,170.0,516.0,169.0" stroke="black" stroke-width="2" fill="none" />
<polyline points="518.0,171.0,502.0,186.5" stroke="black" stroke-width="2" fill="none" />
<polyline points="489.0,188.0,505.0,173.0" stroke="black" stroke-width="2" fill="none" />
<polyline points="517.5,186.0,500.5,186.5,485.0,186.5" stroke="black" stroke-width="2" fill="none" />
<polyline points="473.0,172.0,457.5,186.5" stroke="black" stroke-width="2" fill="none" />
<polyline points="457.5,172.0,441.5,187.0" stroke="black" stroke-width="2" fill="none" />
<polyline points="441.0,184.5,456.5,184.0,471.5,184.0" stroke="black" stroke-width="2" fill="none" />
<polyline points="503.5,200.5,519.0,200.5" stroke="black" stroke-width="2" fill="none" />
<polyline points="516.5,151.5,501.0,152.0,485.0,153.0,469.5,153.5,454.5,153.5,439.0,153.5,422.5,153.0" stroke="black" stroke-width="2" fill="none" />
<polyline points="424.5,137.5,439.5,137.5,454.0,137.0" stroke="black" stroke-width="2" fill="none" />
<polyline points="455.0,106.5,471.0,105.5" stroke="black" stroke-width="2" fill="none" />
<polyline points="485.5,109.5,502.0,109.0" stroke="black" stroke-width="2" fill="none" />
<polyline points="475.5,75.5,460.0,76.0" stroke="black" stroke-width="2" fill="none" />
<polyline points="454.0,56.5,438.5,57.0" stroke="black" stroke-width="2" fill="none" />
<polyline points="424.5,45.5,440.0,45.0,455.5,44.5" stroke="black" stroke-width="2" fill="none" />
<polyline points="455.0,10.0,438.5,11.0,422.0,12.0,405.0,12.5" stroke="black" stroke-width="2" fill="none" />
<polyline points="405.0,4.5,435.0,22.0,440.0,36.5,442.5,51.5,432.0,71.5,420.0,76.5,440.0,94.5,455.5,114.0,478.0,126.5,458.5,136.5,443.5,156.5,443.5,176.5,445.5,184.0,420.0,199.5,427.0,215.0,437.0,215.0,444.0,240.0,429.0,264.5,449.0,244.5,457.0,259.5,467.0,247.0,469.5,239.5,489.0,240.0" stroke="black" stroke-width="2" fill="none" />
<polyline points="502.5,259.5,492.5,259.5,477.0,279.5" stroke="black" stroke-width="2" fill="none" />
<polyline points="452.5,249.5,445.0,269.5,447.5,290.0,467.5,298.0,467.5,318.0,450.0,323.0,432.0,328.0,422.0,335.5,424.0,323.0,443.5,315.0,453.5,324.5,466.0,317.0,496.5,317.5,504.0,332.5" stroke="black" stroke-width="2" fill="none" />
<polyline points="394.0,233.0,379.0,249.0" stroke="black" stroke-width="2" fill="none" />
<polyline points="359.0,295.0,342.0,295.5,325.0,297.0,309.5,297.0,294.0,297.0,279.0,297.0,263.5,297.5,248.0,297.0" stroke="black" stroke-width="2" fill="none" />
<polyline points="248.0,295.5,264.0,279.0" stroke="black" stroke-width="2" fill="none" />
<polyline points="263.0,291.5,279.5,275.5" stroke="black" stroke-width="2" fill="none" />
<polyline points="299.0,292.5,315.5,277.5" stroke="black" stroke-width="2" fill="none" />
<polyline points="313.0,266.0,297.0,282.0,280.5,297.5" stroke="black" stroke-width="2" fill="none" />
<polyline points="294.5,315.5,279.0,316.0,264.0,315.5,248.0,316.0" stroke="black" stroke-width="2" fill="none" />
<polyline points="249.5,297.5,269.5,297.0" stroke="black" stroke-width="2" fill="none" />
<polyline points="264.5,284.0,245.0,276.5,225.0,286.5" stroke="black" stroke-width="2" fill="none" />
<polyline points="217.5,278.5,234.0,263.5,250.0,248.0,266.5,232.5" stroke="black" stroke-width="2" fill="none" />
<polyline points="274.5,235.0,287.0,255.0,281.5,259.5" stroke="black" stroke-width="2" fill="none" />
<polyline points="278.5,259.0,294.5,244.0" stroke="black" stroke-width="2" fill="none" />
<polyline points="277.5,226.5,261.5,243.0" stroke="black" stroke-width="2" fill="none" />
<polyline points="269.0,244.5,274.0,264.5" stroke="black" stroke-width="2" fill="none" />
<polyline points="247.0,265.5,231.5,280.5" stroke="black" stroke-width="2" fill="none" />
<polyline points="231.0,295.0,215.0,295.5" stroke="black" stroke-width="2" fill="none" />
<polyline points="213.5,311.0,230.0,311.0" stroke="black" stroke-width="2" fill="none" />
<polyline points="240.5,295.0,243.5,315.0,241.0,334.5" stroke="black" stroke-width="2" fill="none" />
<polyline points="245.0,336.0,262.0,335.0,279.0,333.0" stroke="black" stroke-width="2" fill="none" />
<polyline points="221.5,331.5,214.0,329.5,206.5,309.5,194.0,284.5,204.0,262.0,219.5,242.0,219.5,219.0,199.5,231.5" stroke="black" stroke-width="2" fill="none" />
<polyline points="199.5,234.0,183.5,248.5" stroke="black" stroke-width="2" fill="none" />
<polyline points="196.5,245.5,180.5,261.5" stroke="black" stroke-width="2" fill="none" />
<polyline points="194.0,261.5,178.0,277.0" stroke="black" stroke-width="2" fill="none" />
<polyline points="199.0,275.5,214.0,259.5" stroke="black" stroke-width="2" fill="none" />
<polyline points="230.5,247.5,246.0,233.0" stroke="black" stroke-width="2" fill="none" />
<polyline points="245.0,242.5,240.0,262.5,225.0,282.5,212.0,272.5,247.0,270.5,276.5,250.5" stroke="black" stroke-width="2" fill="none" />
<polyline points="276.0,218.5,259.5,220.0,242.0,220.5" stroke="black" stroke-width="2" fill="none" />
<polyline points="243.5,208.5,259.5,207.0,276.5,206.0" stroke="black" stroke-width="2" fill="none" />
<polyline points="299.5,212.0,319.5,207.0,322.0,209.5,311.5,217.0,299.0,232.0,296.0,251.5,291.5,281.5,299.0,301.5,299.0,321.0,314.5,329.0,327.0,336.5,324.0,309.0,344.0,321.5,361.5,334.5,391.5,316.5,399.0,311.5,419.0,287.0,439.5,282.5,442.0,277.5,461.5,285.5,484.0,283.0,494.0,283.0,487.0,305.5,507.0,297.5,489.5,330.0" stroke="black" stroke-width="2" fill="none" />
<polyline points="404.0,172.0,387.5,173.0" stroke="black" stroke-width="2" fill="none" />
<polyline points="376.5,161.5,397.0,151.5,407.0,161.5,424.5,149.0,444.5,149.0" stroke="black" stroke-width="2" fill="none" />
<polyline points="405.0,154.5,387.5,156.0" stroke="black" stroke-width="2" fill="none" />
<polyline points="382.5,139.0,387.5,133.5,395.0,126.5,380.0,117.0,400.0,112.5,415.0,115.5,427.5,108.0" stroke="black" stroke-width="2" fill="none" />
<polyline points="438.0,95.0,443.5,117.0,439.0,120.0,442.0,135.0,460.0,169.5,465.5,169.5,485.5,184.5" stroke="black" stroke-width="2" fill="none" />
<polyline points="406.5,137.5,391.0,139.0,375.0,140.0" stroke="black" stroke-width="2" fill="none" />
<polyline points="377.0,124.0,392.0,124.0" stroke="black" stroke-width="2" fill="none" />
<polyline points="389.5,108.5,373.5,110.0,357.0,110.0" stroke="black" stroke-width="2" fill="none" />
<polyline points="332.0,116.5,315.0,133.0,299.0,149.0,282.5,164.5" stroke="black" stroke-width="2" fill="none" />
<polyline points="279.5,151.0,264.0,167.0" stroke="black" stroke-width="2" fill="none" />
<polyline points="243.5,155.0,260.0,154.5,276.0,155.0,292.0,155.0,307.5,155.0,324.0,154.5,340.5,153.0" stroke="black" stroke-width="2" fill="none" />
<polyline points="351.0,152.5,344.0,172.5,344.0,184.5,346.5,204.5,336.5,224.5,359.0,227.0,351.5,247.0,338.5,252.0,306.0,274.5,314.0,277.0,286.0,306.5,283.5,334.0" stroke="black" stroke-width="2" fill="none" />
<polyline points="318.0,244.5,298.0,256.5,317.5,251.5,352.0,232.0,364.0,227.0,361.0,209.0,344.0,206.5" stroke="black" stroke-width="2" fill="none" />
<polyline points="326.5,211.0,321.0,231.0" stroke="black" stroke-width="2" fill="none" />
<polyline points="324.5,185.5,340.5,185.0,357.0,185.5,373.5,185.0" stroke="black" stroke-width="2" fill="none" />
<polyline points="360.5,187.0,363.0,197.0,385.0,201.5" stroke="black" stroke-width="2" fill="none" />
<polyline points="345.5,123.5,329.5,124.5,314.0,126.0,298.5,126.0" stroke="black" stroke-width="2" fill="none" />
<polyline points="293.5,133.5,309.5,117.0" stroke="black" stroke-width="2" fill="none" />
<polyline points="298.5,109.5,314.0,109.0,330.0,109.0" stroke="black" stroke-width="2" fill="none" />
<polyline points="344.0,116.0,324.0,91.5,304.0,91.5" stroke="black" stroke-width="2" fill="none" />
<polyline points="301.5,88.0,321.5,80.5,342.0,95.5,362.0,90.5,382.5,85.5,392.5,98.0,380.0,117.5,397.5,132.5,402.5,147.5,419.5,135.5,424.5,143.0,439.5,137.5,457.0,138.0,477.0,140.0,497.0,130.0" stroke="black" stroke-width="2" fill="none" />
<polyline points="479.5,118.0,472.5,110.0,452.5,95.0" stroke="black" stroke-width="2" fill="none" />
<polyline points="426.0,81.5,446.0,84.0,456.0,79.0,448.5,99.0,468.5,132.0,474.0,166.5,484.0,186.5" stroke="black" stroke-width="2" fill="none" />
<polyline points="406.5,271.5,391.0,272.0,375.0,272.5,359.5,273.0,344.0,274.0,328.5,275.0,312.5,275.5,296.0,276.0,281.0,277.0,265.5,278.5,249.5,279.5,234.0,281.0,218.5,281.0,202.0,281.0,185.0,281.0,168.0,281.5,151.5,281.5,135.5,282.0,119.0,282.5,102.0,282.0,85.0,282.0,67.5,282.0,51.0,282.5" stroke="black" stroke-width="2" fill="none" />
<polyline points="38.0,303.5,54.0,303.5,69.5,303.0,86.0,302.0" stroke="black" stroke-width="2" fill="none" />
<polyline points="92.0,298.0,112.0,298.0,142.0,308.0,162.0,305.0" stroke="black" stroke-width="2" fill="none" />
<polyline points="165.0,302.0,181.0,301.0" stroke="black" stroke-width="2" fill="none" />
<polyline points="187.5,306.5,194.5,326.5,177.0,337.0" stroke="black" stroke-width="2" fill="none" />
<polyline points="164.0,327.5,149.0,328.0" stroke="black" stroke-width="2" fill="none" />
<polyline points="121.5,316.0,106.0,317.5,89.5,318.5" stroke="black" stroke-width="2" fill="none" />
<polyline points="71.0,318.0,54.5,317.5,37.0,318.0" stroke="black" stroke-width="2" fill="none" />
<polyline points="24.5,315.0,9.0,315.0" stroke="black" stroke-width="2" fill="none" />
<polyline points="11.5,320.5,31.5,330.5" stroke="black" stroke-width="2" fill="none" />
<polyline points="27.5,298.5,11.5,299.5" stroke="black" stroke-width="2" fill="none" />
<polyline points="41.5,306.5,22.0,307.0,2.0,289.0,2.5,269.5" stroke="black" stroke-width="2" fill="none" />
<polyline points="3.0,263.0,13.0,268.0,20.5,288.0,15.0,302.5,5.0,317.5,15.0,322.0,5.0,317.0,25.0,319.5,45.0,322.0,67.0,337.0" stroke="black" stroke-width="2" fill="none" />
<polyline points="109.5,319.5,112.0,299.5,126.5,309.5,138.5,289.5,126.0,280.0,105.5,280.0" stroke="black" stroke-width="2" fill="none" />
<polyline points="96.5,283.0,71.0,293.0,51.5,323.0" stroke="black" stroke-width="2" fill="none" />
<polyline points="37.5,262.5,22.0,262.5" stroke="black" stroke-width="2" fill="none" />
<polyline points="38.5,239.0,54.5,239.0,71.0,238.5,87.5,237.5,103.0,236.5,119.5,235.5,135.5,234.5,151.5,233.5,168.0,231.5,184.0,229.5,200.0,228.0,215.5,228.5,231.0,228.0,246.0,228.0,261.5,228.0,277.0,228.0,294.0,226.5,311.0,226.0" stroke="black" stroke-width="2" fill="none" />
<polyline points="297.0,184.5,317.0,181.5,319.5,189.0,347.0,179.0,370.0,163.5,377.5,178.5,385.0,169.0,405.0,166.5,425.0,179.0,450.0,156.5,470.0,159.5" stroke="black" stroke-width="2" fill="none" />
<polyline points="497.0,190.5,492.0,205.5,504.5,190.5,492.0,193.0,490.0,168.5,498.0,153.5,493.0,133.5,490.5,111.0,488.5,103.5,468.5,100.5,478.5,87.5,490.5,67.5,495.5,50.0,478.0,43.0,488.0,20.5,505.0,5.5,484.5,12.5,462.0,7.5,464.5,30.5,464.0,13.0,451.5,10.5,444.5,10.5" stroke="black" stroke-width="2" fill="none" />
<polyline points="419.5,27.0,403.0,27.5" stroke="black" stroke-width="2" fill="none" />
<polyline points="409.0,22.5,418.5,23.0,418.5,43.0,386.0,43.0,384.0,62.5,391.5,67.5,379.5,92.0,374.5,111.5,377.0,121.0,365.0,138.5,390.0,141.0,372.5,168.5,390.0,186.5,405.0,192.0,397.5,199.5,394.5,194.0,417.0,214.5,437.0,211.5,452.0,199.0,472.0,209.0,474.5,219.0,494.5,211.5" stroke="black" stroke-width="2" fill="none" />
<polyline points="491.5,65.0,471.5,65.0,469.0,74.5,466.5,54.5,446.5,59.5,426.5,74.5" stroke="black" stroke-width="2" fill="none" />
<polyline points="421.0,59.0,405.5,59.5" stroke="black" stroke-width="2" fill="none" />
<polyline points="389.0,42.5,372.5,42.5" stroke="black" stroke-width="2" fill="none" />
<polyline points="355.0,35.5,375.0,33.0,374.5,58.0,402.0,57.5,422.0,37.0" stroke="black" stroke-width="2" fill="none" />
<polyline points="414.5,18.0,434.5,33.0,444.0,22.5,451.5,42.5" stroke="black" stroke-width="2" fill="none" />
<polyline points="506.5,91.5,482.0,96.5,462.0,89.5,454.5,75.0,442.5,52.5,422.5,52.5,403.0,68.0,378.0,78.0" stroke="black" stroke-width="2" fill="none" />
<polyline points="351.0,44.5,356.5,44.5,354.5,59.5,369.5,44.5,389.5,42.0,422.0,52.0,402.0,59.5,414.0,79.5,424.0,94.5,412.0,112.5,409.5,142.0,420.0,152.0,427.5,182.5,442.5,177.5,455.0,162.0,475.0,165.0,502.5,162.5" stroke="black" stroke-width="2" fill="none" />
<polyline points="326.5,136.0,310.0,135.0,293.5,134.5,277.0,134.5,260.0,134.0,243.5,134.5" stroke="black" stroke-width="2" fill="none" />
<polyline points="258.5,123.0,271.0,143.0,264.0,168.0" stroke="black" stroke-width="2" fill="none" />
<polyline points="261.0,182.0,244.5,182.5,229.0,182.5" stroke="black" stroke-width="2" fill="none" />
<polyline points="214.0,164.5,234.0,165.0,254.0,152.0,259.0,142.0,239.0,154.5,231.5,190.0,244.0,182.5,251.5,170.5" stroke="black" stroke-width="2" fill="none" />
<polyline points="216.0,151.5,199.5,165.5" stroke="black" stroke-width="2" fill="none" />
<polyline points="200.0,170.5,216.5,171.0,233.0,172.0,249.5,172.5,265.0,172.0,280.5,172.0,295.5,171.0,310.5,171.0,325.0,169.5,339.5,167.5" stroke="black" stroke-width="2" fill="none" />
<polyline points="281.5,127.0,266.5,128.5" stroke="black" stroke-width="2" fill="none" />
<polyline points="259.5,116.0,242.0,136.0,252.0,138.5,234.5,158.0,249.5,178.0,247.0,210.5,247.0,230.5,267.0,222.5,287.5,224.5,307.5,229.0,320.0,239.0,334.5,221.5,339.5,232.0,361.5,224.5,366.5,247.0,391.5,257.0,412.0,254.5,432.0,247.0,447.0,239.5" stroke="black" stroke-width="2" fill="none" />
<polyline points="352.0,84.5,346.5,72.0,327.0,67.0" stroke="black" stroke-width="2" fill="none" />
<polyline points="323.0,52.0,343.0,37.0,363.0,24.5,380.5,27.5" stroke="black" stroke-width="2" fill="none" />
<polyline points="347.0,2.0,332.0,22.0,340.0,24.5,337.5,44.5,355.0,49.5,342.5,79.5,350.5,87.0,358.0,107.5,345.5,120.0,330.5,127.5,312.5,130.0,310.0,152.5" stroke="black" stroke-width="2" fill="none" />
<polyline points="329.5,104.0,322.0,101.5,314.5,88.5,327.0,68.5,299.5,61.0" stroke="black" stroke-width="2" fill="none" />
<polyline points="304.0,87.0,324.0,84.5,356.5,89.5,372.0,92.0,359.5,109.5" stroke="black" stroke-width="2" fill="none" />
<polyline points="342.5,113.5,332.5,93.0" stroke="black" stroke-width="2" fill="none" />
<polyline points="314.0,109.5,294.0,104.0,274.0,111.5,254.0,116.5,239.0,99.0,219.5,91.5" stroke="black" stroke-width="2" fill="none" />
<polyline points="212.5,84.0,219.5,91.5,219.5,102.0,224.0,129.5,216.5,149.5,226.0,145.0,233.5,152.5" stroke="black" stroke-width="2" fill="none" />
<polyline points="210.0,139.0,194.5,154.0" stroke="black" stroke-width="2" fill="none" />
<polyline points="200.0,157.5,216.0,157.0,231.5,156.5" stroke="black" stroke-width="2" fill="none" />
<polyline points="208.5,122.0,193.5,137.0" stroke="black" stroke-width="2" fill="none" />
<polyline points="186.0,134.0,201.0,119.0" stroke="black" stroke-width="2" fill="none" />
<polyline points="185.0,109.0,201.0,108.5,216.0,108.0,231.0,107.5,246.5,108.0" stroke="black" stroke-width="2" fill="none" />
<polyline points="230.5,119.0,215.0,118.5,200.0,119.0,185.0,119.5,169.0,120.0,154.0,120.0,138.5,121.0,122.0,120.5,105.5,120.0,88.5,120.5,72.5,121.0,57.0,121.0,40.0,121.5,23.5,122.5,7.5,123.0" stroke="black" stroke-width="2" fill="none" />
<polyline points="7.5,135.0,22.5,119.5" stroke="black" stroke-width="2" fill="none" />
<polyline points="22.5,134.5,5.5,150.0" stroke="black" stroke-width="2" fill="none" />
<polyline points="11.0,156.0,27.0,156.0,42.5,155.0,57.0,154.0,71.0,153.5,86.0,154.0,102.5,153.0,118.5,152.0,134.0,151.5,149.5,151.0" stroke="black" stroke-width="2" fill="none" />
<polyline points="134.5,154.0,118.5,169.0" stroke="black" stroke-width="2" fill="none" />
<polyline points="104.0,164.0,120.0,150.5,136.0,135.5" stroke="black" stroke-width="2" fill="none" />
<polyline points="131.0,134.5,143.5,137.0,154.0,142.0" stroke="black" stroke-width="2" fill="none" />
<polyline points="150.5,170.5,133.5,186.5" stroke="black" stroke-width="2" fill="none" />
<polyline points="127.0,197.0,117.5,204.5" stroke="black" stroke-width="2" fill="none" />
<polyline points="106.0,203.5,122.0,202.0,137.0,201.0,153.0,200.5,169.5,200.5,184.5,200.5,199.5,201.5,215.0,202.5" stroke="black" stroke-width="2" fill="none" />
<polyline points="198.0,196.5,182.5,212.0" stroke="black" stroke-width="2" fill="none" />
<polyline points="185.5,201.5,170.0,217.0" stroke="black" stroke-width="2" fill="none" />
<polyline points="182.0,229.0,198.5,213.5" stroke="black" stroke-width="2" fill="none" />
<polyline points="212.5,215.5,197.5,215.0,182.0,215.0,167.0,215.5,151.5,217.0,136.0,218.0,119.5,219.5" stroke="black" stroke-width="2" fill="none" />
<polyline points="117.5,230.5,133.5,215.5" stroke="black" stroke-width="2" fill="none" />
<polyline points="136.0,232.0,152.0,216.0,169.5,200.0,185.5,183.5" stroke="black" stroke-width="2" fill="none" />
<polyline points="180.0,189.0,214.5,196.5,204.0,216.5,229.0,219.5,208.5,234.5,199.0,234.0,196.5,254.5,171.0,269.5,186.0,285.0" stroke="black" stroke-width="2" fill="none" />
<polyline points="176.5,323.5,164.5,321.0,152.5,336.5,155.0,317.0,148.0,315.0,170.5,300.0,178.0,298.0,168.0,278.5,163.0,258.5,160.5,233.5,175.5,233.5,170.5,213.5,195.5,211.0,195.5,190.5,203.0,180.0,193.0,160.0,185.5,140.5,158.0,153.0,143.0,150.5,133.0,162.5,113.0,182.5,92.5,202.5,82.5,187.5,63.0,187.5,53.0,180.0,43.0,192.5,23.0,185.0,10.5,220.0,18.5,202.5,18.5,182.5,13.5,155.0,18.5,135.0,6.0,122.5,15.5,105.5,5.5,95.5,8.0,75.5,7.5,58.0,22.0,43.0,11.5,46.0,1.5,61.0" stroke="black" stroke-width="2" fill="none" />
<polyline points="6.0,71.5,26.0,74.0,29.0,97.0,46.5,124.5,64.0,111.5,81.5,109.0,94.0,101.5,104.0,84.5,116.5,64.5,129.0,42.0,149.0,22.0" stroke="black" stroke-width="2" fill="none" />
<polyline points="149.5,24.5,134.0,25.0" stroke="black" stroke-width="2" fill="none" />
<polyline points="133.0,7.0,117.5,8.5,101.5,10.5,86.5,10.5" stroke="black" stroke-width="2" fill="none" />
<polyline points="80.5,7.5,70.5,27.5,73.0,45.0,70.0,69.5,69.5,79.5,86.5,97.5,74.5,117.5,52.0,137.0,44.0,157.0,66.5,184.5,61.5,202.0,41.5,219.5,46.5,224.5,49.0,239.5,76.5,224.5,79.0,239.5" stroke="black" stroke-width="2" fill="none" />
<polyline points="86.5,245.0,102.0,229.0" stroke="black" stroke-width="2" fill="none" />
<polyline points="99.0,228.0,99.0,248.0" stroke="black" stroke-width="2" fill="none" />
<polyline points="116.5,261.5,132.0,246.0" stroke="black" stroke-width="2" fill="none" />
<polyline points="136.0,264.0,152.5,248.0" stroke="black" stroke-width="2" fill="none" />
<polyline points="151.5,260.0,167.5,245.0" stroke="black" stroke-width="2" fill="none" />
<polyline points="155.0,199.0,171.0,182.5" stroke="black" stroke-width="2" fill="none" />
<polyline points="163.5,182.0,183.5,174.5,186.5,185.0,196.5,177.5,216.5,174.5,229.0,169.0,249.0,176.5,257.0,194.0,277.5,189.0" stroke="black" stroke-width="2" fill="none" />
<polyline points="230.0,244.5,225.0,264.5" stroke="black" stroke-width="2" fill="none" />
<polyline points="191.5,212.0,171.5,234.5,151.0,234.5,163.5,229.5,159.0,209.5,164.0,189.5" stroke="black" stroke-width="2" fill="none" />
<polyline points="151.0,186.0,167.0,170.0" stroke="black" stroke-width="2" fill="none" />
<polyline points="196.0,181.5,179.5,182.0,163.5,182.0,148.5,182.0,133.5,182.0,118.5,182.0,103.0,182.0,87.0,183.0,71.5,184.0,56.0,185.5,40.5,186.5,24.0,187.5" stroke="black" stroke-width="2" fill="none" />
<polyline points="31.0,185.5,11.0,175.5" stroke="black" stroke-width="2" fill="none" />
<polyline points="10.0,170.0,25.5,169.0,40.0,168.5,55.0,168.0,70.5,167.0,86.0,167.5,102.0,167.0,119.0,167.5,136.0,168.0,152.5,168.5,168.0,168.5,184.0,168.0" stroke="black" stroke-width="2" fill="none" />
<polyline points="184.5,138.5,200.5,138.0,216.0,139.5" stroke="black" stroke-width="2" fill="none" />
<polyline points="168.5,133.5,152.5,133.5,135.5,135.0,119.0,136.0,102.0,136.5,86.5,137.0,70.5,137.5,55.0,137.0,39.5,137.0,25.0,138.0,9.0,139.0" stroke="black" stroke-width="2" fill="none" />
<polyline points="20.5,149.5,4.5,165.5" stroke="black" stroke-width="2" fill="none" />
<polyline points="3.0,171.5,18.0,156.0,20.0,176.0,32.5,196.0,29.5,215.5,4.5,235.5,19.5,222.5,37.0,212.0,57.0,199.5,69.5,209.5,97.0,214.5,117.0,226.5,137.0,224.0" stroke="black" stroke-width="2" fill="none" />
<polyline points="102.0,216.5,85.5,217.0,70.0,217.0,55.5,217.5,40.0,218.0" stroke="black" stroke-width="2" fill="none" />
<polyline points="47.5,219.5,67.5,202.0,87.5,189.5" stroke="black" stroke-width="2" fill="none" />
<polyline points="89.5,169.0,106.0,154.0" stroke="black" stroke-width="2" fill="none" />
<polyline points="106.5,133.5,119.5,153.0,107.0,173.0,97.0,190.5,112.0,218.0,122.5,237.5,115.0,255.5,110.5,260.5,90.5,280.0,83.0,300.0,60.5,320.5,33.0,337.5,53.0,333.0,72.5,328.0,92.0,330.5,94.5,337.5,114.5,337.5,132.0,309.0,144.5,289.0,164.5,298.5,189.5,311.0,209.5,323.5,222.0,308.5" stroke="black" stroke-width="2" fill="none" />
<polyline points="184.5,330.5,164.5,338.0,144.0,325.5,133.5,330.5,131.0,313.5,146.0,294.0" stroke="black" stroke-width="2" fill="none" />
<polyline points="78.5,226.0,68.5,231.5,61.0,251.5,51.0,264.0,33.5,286.5,38.5,261.5,69.0,264.0,89.0,244.0,107.0,239.0,130.0,252.0,145.0,242.0,180.0,232.0,175.0,252.0,180.0,272.0,185.0,267.0,205.0,262.0,207.5,237.0,227.0,239.0" stroke="black" stroke-width="2" fill="none" />
<polyline points="179.0,132.0,159.5,124.5,139.5,124.5,119.5,124.5,104.5,127.0,97.0,162.0,76.5,167.0,73.5,172.0,66.5,169.5,74.0,157.0,74.0,137.0,84.0,117.0,91.5,117.0,101.5,97.0,79.0,87.0,81.5,67.0,71.0,45.0,51.0,55.0" stroke="black" stroke-width="2" fill="none" />
<polyline points="42.5,60.5,27.0,61.0" stroke="black" stroke-width="2" fill="none" />
<polyline points="17.0,55.0,37.0,39.5" stroke="black" stroke-width="2" fill="none" />
<polyline points="40.5,46.5,24.5,46.5" stroke="black" stroke-width="2" fill="none" />
<polyline points="15.0,52.5,25.0,17.5,49.5,27.5" stroke="black" stroke-width="2" fill="none" />
<polyline points="36.0,29.0,20.5,29.0" stroke="black" stroke-width="2" fill="none" />
<polyline points="12.0,17.0,34.5,27.0,27.0,47.5,24.5,55.0,25.0,79.5,25.0,99.5,20.0,117.0,39.5,109.5,42.0,119.5,61.5,94.0,64.0,86.5,81.5,89.0,94.0,66.0,91.0,84.0,111.0,79.0" stroke="black" stroke-width="2" fill="none" />
<polyline points="104.0,76.0,89.0,77.0" stroke="black" stroke-width="2" fill="none" />
<polyline points="71.5,64.5,69.0,69.5,48.5,92.5" stroke="black" stroke-width="2" fill="none" />
<polyline points="68.5,97.5,53.0,105.0,38.0,125.0,38.0,137.5,58.0,134.0,77.5,126.5,77.0,138.5,101.5,116.0,101.0,106.0,121.0,93.0,133.5,100.5,153.5,100.5" stroke="black" stroke-width="2" fill="none" />
<polyline points="146.5,88.0,131.5,103.0" stroke="black" stroke-width="2" fill="none" />
<polyline points="120.0,101.0,104.0,116.0" stroke="black" stroke-width="2" fill="none" />
<polyline points="109.0,121.0,96.5,141.0,101.5,143.5,116.5,141.0,134.5,130.5" stroke="black" stroke-width="2" fill="none" />
<polyline points="114.0,123.0,127.0,143.0,144.5,145.5,147.0,163.5,157.0,178.5,146.5,186.0,149.5,206.0,149.0,226.0,134.0,233.5,119.0,266.0,139.0,266.0,159.0,268.5,172.0,255.5,185.0,248.0,198.0,228.0,218.0,210.5,228.0,195.5,233.5,212.5,243.5,202.5,251.0,202.5,271.0,202.5,281.0,202.5,303.0,195.0,313.0,195.0,333.0,202.5,353.0,205.0,358.0,195.0,377.5,207.5,372.5,197.5,393.0,210.0,413.0,207.5" stroke="black" stroke-width="2" fill="none" />
<polyline points="490.0,187.0,457.5,179.0,439.5,199.0,419.5,199.0,404.5,184.5,389.0,186.5,369.0,191.5,349.0,186.0,342.0,166.0,324.5,158.5,304.5,166.0,292.5,153.5,275.0,166.5,275.0,169.0,287.0,149.5,297.5,147.0,277.5,144.5,272.5,132.0,245.0,132.0,225.5,129.5,188.0,109.5,179.5,95.0,174.5,102.5,144.5,90.0,126.5,70.0,131.0,57.5,116.0,35.0,133.5,15.0,126.0,5.5,106.0,5.5" stroke="black" stroke-width="2" fill="none" />
<polyline points="89.5,1.5,94.5,21.5,87.5,39.0,125.0,51.5,119.5,71.5,129.5,74.0,144.5,94.0,154.0,84.0,153.5,81.5,173.5,66.5,178.5,53.5,198.5,39.0,223.5,34.0,238.5,39.0,246.0,79.0,268.5,76.5,289.0,69.0,289.0,61.5,299.5,49.0,317.5,14.5,337.5,14.5,342.5,19.5,365.0,7.0,385.0,7.0,387.5,14.5,395.0,19.5,397.5,27.0,407.0,19.0,409.0,31.5,423.5,14.0,444.0,4.0,441.0,26.5,454.0,29.5,474.5,24.5,492.5,29.0" stroke="black" stroke-width="2" fill="none" />
<polyline points="331.0,11.5,323.5,31.5,328.0,44.0,313.0,47.0,312.5,67.0,272.0,82.0,295.0,107.0,320.0,124.0,307.5,131.5,305.0,152.0,290.0,169.5,282.5,192.0,292.0,204.5,269.5,230.0,264.5,250.0,244.0,264.5,239.0,285.0,224.0,305.0,224.0,325.0,251.5,325.0,271.5,314.5,276.5,302.0" stroke="black" stroke-width="2" fill="none" />
<polyline points="99.5,261.5,77.0,244.0,56.5,266.5,41.5,238.5,31.5,236.0,51.5,231.0,59.0,211.0" stroke="black" stroke-width="2" fill="none" />
<polyline points="73.5,230.5,89.5,214.5" stroke="black" stroke-width="2" fill="none" />
<polyline points="91.5,201.0,74.0,200.5,57.0,200.5,40.0,200.5,22.5,200.5,5.5,202.0" stroke="black" stroke-width="2" fill="none" />
<polyline points="5.5,202.5,3.0,193.0" stroke="black" stroke-width="2" fill="none" />
<polyline points="11.0,217.5,27.0,217.0" stroke="black" stroke-width="2" fill="none" />
<polyline points="38.5,165.0,54.0,149.0,69.0,134.0,84.5,119.0" stroke="black" stroke-width="2" fill="none" />
<polyline points="69.0,113.5,53.5,130.0" stroke="black" stroke-width="2" fill="none" />
<polyline points="52.5,117.0,68.5,101.0" stroke="black" stroke-width="2" fill="none" />
<polyline points="56.0,71.0,40.0,71.5,23.5,72.5,7.5,73.0" stroke="black" stroke-width="2" fill="none" />
<polyline points="6.5,91.5,22.5,91.0,38.5,91.0,54.0,91.0,70.5,91.0,86.0,90.5,101.5,91.0,117.5,90.5,133.0,90.0,148.5,89.5,165.0,89.0,181.0,88.0" stroke="black" stroke-width="2" fill="none" />
<polyline points="175.0,83.0,187.5,77.5,174.5,83.0,182.0,87.5,201.5,85.0,221.5,70.0" stroke="black" stroke-width="2" fill="none" />
<polyline points="197.5,43.5,213.5,43.0,229.5,42.5,245.0,41.5" stroke="black" stroke-width="2" fill="none" />
<polyline points="246.5,26.5,232.0,26.0,216.5,26.5" stroke="black" stroke-width="2" fill="none" />
<polyline points="210.0,19.5,200.0,39.5,182.5,50.0,177.5,65.0,160.0,85.5,167.5,92.5,182.5,125.0" stroke="black" stroke-width="2" fill="none" />
<polyline points="134.0,105.5,118.5,106.0,102.5,107.0,87.0,106.5,71.5,107.0,55.5,107.0,39.5,107.5,24.0,109.0,8.0,109.5" stroke="black" stroke-width="2" fill="none" />
<polyline points="10.5,118.5,26.5,102.5" stroke="black" stroke-width="2" fill="none" />
<polyline points="37.0,151.5,21.5,166.5" stroke="black" stroke-width="2" fill="none" />
<polyline points="28.5,162.0,48.5,156.5,73.0,144.0" stroke="black" stroke-width="2" fill="none" />
<polyline points="64.5,144.5,54.0,164.5,44.0,174.0,69.0,191.0,76.0,176.0,98.5,186.0,123.5,181.0,144.0,181.5,144.5,192.0" stroke="black" stroke-width="2" fill="none" />
<polyline points="115.5,188.0,100.5,208.0,93.0,227.5,90.0,247.5,71.5,252.0,71.5,267.0,41.5,284.5,41.5,300.0,73.5,310.0,93.5,313.0" stroke="black" stroke-width="2" fill="none" />
<polyline points="132.5,162.5,112.5,182.5,97.0,210.0,129.5,212.5,139.5,195.0,172.0,212.5,189.5,202.0,209.5,202.0,224.5,214.5" stroke="black" stroke-width="2" fill="none" />
<polyline points="279.5,131.5,275.0,111.5" stroke="black" stroke-width="2" fill="none" />
<polyline points="276.5,103.0,289.0,123.5" stroke="black" stroke-width="2" fill="none" />
<polyline points="272.0,64.5,280.0,52.0,277.5,37.0,287.5,4.5,267.5,4.5" stroke="black" stroke-width="2" fill="none" />
<polyline points="265.0,8.5,249.5,8.0,233.0,7.0" stroke="black" stroke-width="2" fill="none" />
<polyline points="239.0,11.5,237.0,31.5,240.0,54.0,232.5,76.5,240.5,89.5,243.5,84.5,250.5,72.5,270.5,67.5,280.5,49.5,290.0,24.5" stroke="black" stroke-width="2" fill="none" />
<polyline points="271.0,12.5,291.0,10.0,315.5,5.0" stroke="black" stroke-width="2" fill="none" />
<polyline points="325.0,4.5,317.5,24.5,307.0,44.5,294.5,47.0,279.5,67.0,264.5,84.5,254.0,104.5,224.5,117.0,207.0,137.0,212.5,157.0,210.0,182.0,235.0,202.0,222.5,222.5,237.0,230.5,249.5,233.0,257.0,243.0,249.5,263.0,266.5,268.0,276.0,288.0,258.5,308.0,253.5,323.0,248.5,335.5,258.5,337.5,273.5,327.5,281.0,315.0,299.0,322.5,314.5,295.0,334.5,297.5,354.5,292.5,375.5,279.5,395.5,274.5,415.0,272.0,427.5,279.5,447.5,272.0,467.5,279.5,484.5,254.5,490.0,261.5,505.0,261.5" stroke="black" stroke-width="2" fill="none" />
<polyline points="275.0,44.5,258.0,39.5,263.0,19.5,243.0,22.0" stroke="black" stroke-width="2" fill="none" />
<polyline points="214.0,10.5,198.5,11.5,183.0,12.5" stroke="black" stroke-width="2" fill="none" />
<polyline points="185.0,3.0,170.0,23.0,174.5,40.0,172.0,52.5,154.5,72.5,162.0,57.5,179.5,35.5,199.5,55.5" stroke="black" stroke-width="2" fill="none" />
<polyline points="180.0,56.5,164.5,56.5" stroke="black" stroke-width="2" fill="none" />
<polyline points="149.5,70.5,133.0,71.0" stroke="black" stroke-width="2" fill="none" />
<polyline points="110.0,104.5,97.5,124.5,85.0,144.5,79.5,164.0,112.0,169.0,122.0,156.5,144.5,164.0" stroke="black" stroke-width="2" fill="none" />
<polyline points="121.5,112.5,141.5,112.5,162.0,112.5,182.0,119.5,202.0,114.5,219.5,99.5,230.0,101.5,249.5,101.5,267.0,106.5" stroke="black" stroke-width="2" fill="none" />
<polyline points="309.5,25.5,310.0,20.0,290.0,20.5,280.0,37.5,270.0,35.0,259.5,4.5,239.5,12.0,214.0,6.5,194.5,9.0,174.5,11.5,155.0,26.5,148.0,26.5,160.5,6.5" stroke="black" stroke-width="2" fill="none" />
<polyline points="157.0,8.5,154.5,3.5,132.5,16.0,112.5,38.5,83.0,18.5,80.5,6.0,60.5,19.0,46.0,59.0,43.5,49.5,58.5,29.5,78.5,19.5" stroke="black" stroke-width="2" fill="none" />
<polyline points="84.0,28.0,101.0,27.5" stroke="black" stroke-width="2" fill="none" />
<polyline points="152.0,2.0,127.0,7.0,109.5,12.5,102.0,15.0,89.5,40.0,99.0,47.5,119.0,45.5,139.0,50.5,141.5,63.0,161.5,68.0,174.0,48.0,181.5,18.0,201.5,20.0,216.5,2.5,231.5,12.0,221.5,31.5,207.0,52.0,219.0,39.5,221.5,54.5,221.0,69.5,203.5,95.0,196.5,94.5,201.5,114.5,201.5,134.5,214.0,127.0,234.0,119.5,254.0,129.0,269.0,119.0,289.0,123.5,289.0,108.0,306.5,122.5,326.5,130.5,339.0,146.0,369.0,116.0,391.5,96.0,411.0,104.0,431.5,99.0,454.5,111.5,472.0,99.5,499.5,107.0,507.5,149.5,505.0,157.5" stroke="black" stroke-width="2" fill="none" />
<polyline points="89.0,138.0,72.0,154.0" stroke="black" stroke-width="2" fill="none" />
<polyline points="38.0,8.0,22.5,8.5,7.0,8.5" stroke="black" stroke-width="2" fill="none" />
<polyline points="14.0,12.0,34.0,12.0" stroke="black" stroke-width="2" fill="none" />
<polyline points="42.0,5.0,22.5,5.0,2.5,15.0" stroke="black" stroke-width="2" fill="none" />
</svg>