<svg xmlns="http://www.w3.org/2000/svg" version="1.1"><polyline points="70.0,1.5,46.0,9.5,35.5,33.5,35.5,43.0,27.5,51.0,51.5,59.0,43.0,67.0,49.5,83.0,51.0,89.0,33.0,95.0,41.5,101.0,51.0,119.0,33.0,123.0,33.5,139.0,24.0,135.5,30.5,144.0,24.5,159.5,35.0,177.5,53.5,185.5,31.5,201.5,43.5,206.0,37.5,221.5,31.0,193.5,46.5,189.0,62.5,185.0,78.5,189.5,94.0,187.5,91.5,175.5,91.5,180.0,107.5,178.0,107.5,172.0,123.5,178.0,125.5,168.0,141.5,164.0,157.5,150.0,134.0,154.5,146.0,166.5,144.0,191.0,138.0,190.5,138.0,206.5,154.0,211.0,156.0,218.5,156.5,222.5,156.5,238.5,144.5,254.0,161.0,246.0,176.5,230.0,194.5,212.0,200.5,204.0,217.0,202.0,223.0,220.0,223.0,234.0" stroke="black" stroke-width="2" fill="none" />
<polyline points="231.0,232.0,225.0,248.0" stroke="black" stroke-width="2" fill="none" />
<polyline points="230.5,247.5,246.0,233.0" stroke="black" stroke-width="2" fill="none" />
<polyline points="242.0,220.5,259.5,220.0,276.0,218.5" stroke="black" stroke-width="2" fill="none" />
<polyline points="277.5,226.5,261.5,243.0" stroke="black" stroke-width="2" fill="none" />
<polyline points="266.5,232.5,250.0,248.0,234.0,263.5,217.5,278.5" stroke="black" stroke-width="2" fill="none" />
<polyline points="231.5,280.5,247.0,265.5" stroke="black" stroke-width="2" fill="none" />
<polyline points="246.0,255.0,246.0,242.5,246.0,265.0,242.0,270.5,238.0,286.5,246.0,308.5,245.5,324.5,245.5,325.0,261.5,327.0,277.0,323.0,293.0,323.0" stroke="black" stroke-width="2" fill="none" />
<polyline points="312.0,314.5,327.5,313.5,343.0,313.5" stroke="black" stroke-width="2" fill="none" />
<polyline points="341.0,319.0,339.0,335.0" stroke="black" stroke-width="2" fill="none" />
<polyline points="320.0,323.0,304.0,305.0" stroke="black" stroke-width="2" fill="none" />
<polyline points="311.0,291.5,328.5,275.5,344.5,260.5" stroke="black" stroke-width="2" fill="none" />
<polyline points="343.0,277.0,327.5,293.0" stroke="black" stroke-width="2" fill="none" />
<polyline points="322.5,287.0,310.5,275.0,326.0,283.0,342.0,283.5,358.0,281.5,374.0,275.5,389.5,275.5,405.0,274.0,421.0,270.5" stroke="black" stroke-width="2" fill="none" />
<polyline points="424.5,261.5,408.5,277.5" stroke="black" stroke-width="2" fill="none" />
<polyline points="406.5,271.5,391.0,272.0,375.0,272.5,359.5,273.0,344.0,274.0,328.5,275.0,312.5,275.5,296.0,276.0,281.0,277.0,265.5,278.5,249.5,279.5,234.0,281.0,218.5,281.0,202.0,281.0,185.0,281.0,168.0,281.5,151.5,281.5,135.5,282.0,119.0,282.5,102.0,282.0,85.0,282.0,67.5,282.0,51.0,282.5" stroke="black" stroke-width="2" fill="none" />
<polyline points="53.0,271.0,70.5,270.0,87.0,268.5,103.5,268.0,119.5,267.5,136.0,267.0,153.5,266.5,170.0,266.0,186.0,265.0,202.5,264.5,218.5,264.5,234.0,264.0,250.0,264.0,265.0,263.5,279.5,263.0,295.0,261.0,310.5,260.0,326.5,257.5,343.0,256.0,359.0,255.0,374.5,253.0,391.0,253.5,407.5,253.5,423.0,253.5,438.5,254.0" stroke="black" stroke-width="2" fill="none" />
<polyline points="412.0,261.0,395.0,276.5" stroke="black" stroke-width="2" fill="none" />
<polyline points="394.5,264.5,378.0,280.5,362.0,296.5" stroke="black" stroke-width="2" fill="none" />
<polyline points="347.0,295.0,363.0,278.5" stroke="black" stroke-width="2" fill="none" />
<polyline points="376.5,275.5,392.5,275.0" stroke="black" stroke-width="2" fill="none" />
<polyline points="381.5,283.5,371.5,283.5,346.0,303.0,362.5,323.0,381.0,319.0,401.0,305.0" stroke="black" stroke-width="2" fill="none" />
<polyline points="387.5,302.5,404.0,301.0,420.0,300.0,436.5,299.0,452.5,299.0,469.5,298.5,486.5,297.5,502.5,297.0" stroke="black" stroke-width="2" fill="none" />
<polyline points="507.0,298.5,491.0,304.5" stroke="black" stroke-width="2" fill="none" />
<polyline points="485.0,282.0,501.5,280.5" stroke="black" stroke-width="2" fill="none" />
<polyline points="494.0,267.0,500.0,259.0" stroke="black" stroke-width="2" fill="none" />
<polyline points="484.5,251.5,492.0,259.5,479.5,275.5,499.0,299.5,489.5,317.5,473.5,333.5,481.5,330.0,486.0,338.5" stroke="black" stroke-width="2" fill="none" />
<polyline points="471.0,330.5,487.0,330.0,502.5,329.5,517.5,329.5" stroke="black" stroke-width="2" fill="none" />
<polyline points="456.0,330.5,440.0,330.5" stroke="black" stroke-width="2" fill="none" />
<polyline points="439.5,316.0,454.5,315.0,471.0,314.0,487.5,313.0,504.5,310.5,520.0,309.5" stroke="black" stroke-width="2" fill="none" />
<polyline points="502.0,269.5,486.0,271.5,466.5,278.0,450.5,270.0,444.5,285.5,439.0,303.5,451.0,287.5,449.0,283.5" stroke="black" stroke-width="2" fill="none" />
<polyline points="441.0,284.0,437.0,299.5,450.5,297.5,458.5,295.5" stroke="black" stroke-width="2" fill="none" />
<polyline points="472.0,285.5,456.5,282.0,440.5,282.0" stroke="black" stroke-width="2" fill="none" />
<polyline points="419.0,287.0,419.0,302.5,413.0,319.0,412.5,335.0" stroke="black" stroke-width="2" fill="none" />
<polyline points="418.5,320.0,435.0,314.0,450.5,322.5" stroke="black" stroke-width="2" fill="none" />
<polyline points="420.5,314.5,403.0,316.0,387.0,316.5" stroke="black" stroke-width="2" fill="none" />
<polyline points="379.5,319.0,379.5,335.0,367.5,338.5" stroke="black" stroke-width="2" fill="none" />
<polyline points="361.5,338.0,359.5,322.0" stroke="black" stroke-width="2" fill="none" />
<polyline points="359.0,295.0,342.0,295.5,325.0,297.0,309.5,297.0,294.0,297.0,279.0,297.0,263.5,297.5,248.0,297.0" stroke="black" stroke-width="2" fill="none" />
<polyline points="248.0,295.5,264.0,279.0" stroke="black" stroke-width="2" fill="none" />
<polyline points="263.0,291.5,279.5,275.5" stroke="black" stroke-width="2" fill="none" />
<polyline points="292.5,276.5,298.5,292.5,300.0,308.5,302.0,330.5,291.5,336.5" stroke="black" stroke-width="2" fill="none" />
<polyline points="279.0,333.0,262.0,335.0,245.0,336.0" stroke="black" stroke-width="2" fill="none" />
<polyline points="256.5,333.5,256.5,329.5,260.5,317.5,258.0,296.0,276.5,289.5,283.0,282.0,291.0,274.0,301.0,250.5,302.5,234.5,308.5,230.5,287.0,226.5,291.0,206.5,281.0,198.5,269.0,188.5,301.0,170.0,307.0,154.5,307.0,138.5,305.0,122.5,287.0,106.5" stroke="black" stroke-width="2" fill="none" />
<polyline points="284.5,104.5,296.5,120.5,310.0,114.5" stroke="black" stroke-width="2" fill="none" />
<polyline points="309.5,117.0,293.5,133.5" stroke="black" stroke-width="2" fill="none" />
<polyline points="298.5,126.0,314.0,126.0,329.5,124.5,345.5,123.5" stroke="black" stroke-width="2" fill="none" />
<polyline points="332.0,116.5,315.0,133.0,299.0,149.0,282.5,164.5" stroke="black" stroke-width="2" fill="none" />
<polyline points="279.5,151.0,264.0,167.0" stroke="black" stroke-width="2" fill="none" />
<polyline points="243.5,155.0,260.0,154.5,276.0,155.0,292.0,155.0,307.5,155.0,324.0,154.5,340.5,153.0" stroke="black" stroke-width="2" fill="none" />
<polyline points="326.5,136.0,310.0,135.0,293.5,134.5,277.0,134.5,260.0,134.0,243.5,134.5" stroke="black" stroke-width="2" fill="none" />
<polyline points="242.5,132.5,232.5,148.5,222.5,156.5,234.0,144.5" stroke="black" stroke-width="2" fill="none" />
<polyline points="231.5,156.5,216.0,157.0,200.0,157.5" stroke="black" stroke-width="2" fill="none" />
<polyline points="199.5,165.5,216.0,151.5" stroke="black" stroke-width="2" fill="none" />
<polyline points="210.0,139.0,194.5,154.0" stroke="black" stroke-width="2" fill="none" />
<polyline points="193.5,137.0,208.5,122.0" stroke="black" stroke-width="2" fill="none" />
<polyline points="201.0,119.0,186.0,134.0" stroke="black" stroke-width="2" fill="none" />
<polyline points="184.5,138.5,200.5,138.0,216.0,139.5" stroke="black" stroke-width="2" fill="none" />
<polyline points="233.0,127.0,225.0,143.5,229.0,135.5,245.0,133.5,267.0,125.5,283.0,125.5" stroke="black" stroke-width="2" fill="none" />
<polyline points="281.5,127.0,266.5,128.5" stroke="black" stroke-width="2" fill="none" />
<polyline points="268.0,130.5,270.0,146.5" stroke="black" stroke-width="2" fill="none" />
<polyline points="255.5,151.0,231.5,165.5,216.0,165.5,202.0,164.0,176.0,172.5,166.5,168.5,160.5,158.5,143.0,179.0,127.0,183.0" stroke="black" stroke-width="2" fill="none" />
<polyline points="133.5,186.5,150.5,170.5" stroke="black" stroke-width="2" fill="none" />
<polyline points="151.0,186.0,167.0,170.0" stroke="black" stroke-width="2" fill="none" />
<polyline points="171.0,182.5,155.0,199.0" stroke="black" stroke-width="2" fill="none" />
<polyline points="162.0,205.0,166.0,221.0,168.0,219.0" stroke="black" stroke-width="2" fill="none" />
<polyline points="182.0,229.0,198.5,213.5" stroke="black" stroke-width="2" fill="none" />
<polyline points="182.5,212.0,198.0,196.5" stroke="black" stroke-width="2" fill="none" />
<polyline points="185.5,198.0,183.5,190.0,193.0,198.5,207.0,212.5,205.0,228.5,181.0,236.0,187.0,252.0,190.5,252.0,202.5,255.5" stroke="black" stroke-width="2" fill="none" />
<polyline points="194.0,261.5,178.0,277.0" stroke="black" stroke-width="2" fill="none" />
<polyline points="180.5,261.5,196.5,245.5" stroke="black" stroke-width="2" fill="none" />
<polyline points="199.5,234.0,183.5,248.5" stroke="black" stroke-width="2" fill="none" />
<polyline points="167.5,245.0,151.5,260.0" stroke="black" stroke-width="2" fill="none" />
<polyline points="152.5,248.0,136.0,264.0" stroke="black" stroke-width="2" fill="none" />
<polyline points="132.0,246.0,116.5,261.5" stroke="black" stroke-width="2" fill="none" />
<polyline points="109.5,254.0,125.5,264.5,141.5,263.0,157.5,265.0,173.5,269.0" stroke="black" stroke-width="2" fill="none" />
<polyline points="168.5,260.5,184.5,268.5" stroke="black" stroke-width="2" fill="none" />
<polyline points="199.0,275.5,214.0,259.5" stroke="black" stroke-width="2" fill="none" />
<polyline points="231.0,254.0,235.0,238.0,233.0,222.0,214.5,232.0" stroke="black" stroke-width="2" fill="none" />
<polyline points="207.0,238.0,205.0,253.5" stroke="black" stroke-width="2" fill="none" />
<polyline points="199.0,230.5,197.0,246.5,205.5,269.0,221.5,269.0,223.5,273.5,238.0,286.0,253.5,278.0" stroke="black" stroke-width="2" fill="none" />
<polyline points="262.5,275.5,254.5,267.5,264.0,251.5,266.0,235.5,260.5,230.0" stroke="black" stroke-width="2" fill="none" />
<polyline points="251.0,215.5,265.5,221.5,275.5,233.5,286.0,249.5,280.0,259.5,274.5,276.0,258.5,280.0,262.5,284.5,288.0,277.0,300.0,265.5,316.0,263.5,332.0,259.5,336.0,273.0,352.5,273.0,367.0,250.5,371.0,258.5,387.0,256.5,402.5,256.5,418.0,254.5,426.0,260.0,442.0,246.0,442.5,255.5,448.5,260.0,464.5,247.5,468.5,255.5,484.5,246.0,500.5,250.0,504.0,268.0,495.5,284.5,495.5,282.5" stroke="black" stroke-width="2" fill="none" />
<polyline points="519.0,215.5,503.5,215.5,487.0,215.5,470.5,215.0" stroke="black" stroke-width="2" fill="none" />
<polyline points="458.0,202.0,441.5,203.0" stroke="black" stroke-width="2" fill="none" />
<polyline points="441.5,187.0,457.5,172.0" stroke="black" stroke-width="2" fill="none" />
<polyline points="456.0,166.0,472.0,178.0,487.5,178.5,501.0,178.5" stroke="black" stroke-width="2" fill="none" />
<polyline points="505.0,173.0,489.0,188.0" stroke="black" stroke-width="2" fill="none" />
<polyline points="485.0,186.5,500.5,186.5,517.5,186.0" stroke="black" stroke-width="2" fill="none" />
<polyline points="518.0,171.0,502.0,186.5" stroke="black" stroke-width="2" fill="none" />
<polyline points="503.5,200.5,519.0,200.5" stroke="black" stroke-width="2" fill="none" />
<polyline points="516.0,169.0,499.5,170.0,484.5,169.5,469.5,169.5,454.5,169.5,439.0,169.5,424.0,169.0" stroke="black" stroke-width="2" fill="none" />
<polyline points="424.0,183.5,440.0,168.5,455.5,153.5" stroke="black" stroke-width="2" fill="none" />
<polyline points="445.0,162.0,471.0,176.0" stroke="black" stroke-width="2" fill="none" />
<polyline points="473.0,172.0,457.5,186.5" stroke="black" stroke-width="2" fill="none" />
<polyline points="450.5,184.5,466.5,182.5" stroke="black" stroke-width="2" fill="none" />
<polyline points="471.5,184.0,456.5,184.0,441.0,184.5" stroke="black" stroke-width="2" fill="none" />
<polyline points="420.0,166.5,437.0,151.5" stroke="black" stroke-width="2" fill="none" />
<polyline points="422.5,153.0,439.0,153.5,454.5,153.5,469.5,153.5,485.0,153.0,501.0,152.0,516.5,151.5" stroke="black" stroke-width="2" fill="none" />
<polyline points="494.0,140.5,505.5,158.5,507.5,168.5,493.5,188.5,503.5,196.0,506.0,183.5" stroke="black" stroke-width="2" fill="none" />
<polyline points="502.5,204.5,487.0,196.5" stroke="black" stroke-width="2" fill="none" />
<polyline points="437.0,219.5,421.0,219.5" stroke="black" stroke-width="2" fill="none" />
<polyline points="394.0,233.0,379.0,249.0" stroke="black" stroke-width="2" fill="none" />
<polyline points="370.5,250.0,386.5,252.0,396.5,245.5" stroke="black" stroke-width="2" fill="none" />
<polyline points="380.0,219.0,395.0,217.5,410.5,216.0" stroke="black" stroke-width="2" fill="none" />
<polyline points="407.0,206.0,391.0,205.5" stroke="black" stroke-width="2" fill="none" />
<polyline points="403.0,192.0,387.0,172.5" stroke="black" stroke-width="2" fill="none" />
<polyline points="387.5,173.0,404.0,172.0" stroke="black" stroke-width="2" fill="none" />
<polyline points="395.0,175.5,403.5,177.5,407.0,194.0,402.5,212.0,418.5,209.5,434.0,219.5,449.5,229.5,465.5,235.5,481.5,236.0,497.0,236.0" stroke="black" stroke-width="2" fill="none" />
<polyline points="516.5,226.5,501.5,227.5,485.0,229.0,469.0,229.0,454.5,230.0,439.5,231.5,424.0,232.0,408.5,232.5,392.0,233.5,375.0,234.5,358.5,235.0,342.5,234.5,326.5,234.5" stroke="black" stroke-width="2" fill="none" />
<polyline points="331.0,240.5,315.0,240.5,298.5,228.0,282.5,223.5,270.0,209.5,256.0,199.0,242.0,217.0,225.5,207.5" stroke="black" stroke-width="2" fill="none" />
<polyline points="225.5,208.5,253.5,219.0,270.0,221.0,286.0,231.5" stroke="black" stroke-width="2" fill="none" />
<polyline points="294.5,244.0,278.5,259.0" stroke="black" stroke-width="2" fill="none" />
<polyline points="313.0,266.0,297.0,282.0,280.5,297.5" stroke="black" stroke-width="2" fill="none" />
<polyline points="299.0,292.5,315.5,277.5" stroke="black" stroke-width="2" fill="none" />
<polyline points="352.0,277.0,344.0,263.0,352.0,261.5,354.0,245.5,346.0,227.5,350.5,213.5,341.0,191.5,347.5,175.5,337.5,167.5,321.5,167.5" stroke="black" stroke-width="2" fill="none" />
<polyline points="324.5,185.5,340.5,185.0,357.0,185.5,373.5,185.0" stroke="black" stroke-width="2" fill="none" />
<polyline points="384.5,185.5,401.0,203.5,419.5,207.0,433.5,201.0,435.5,210.5,454.0,220.5" stroke="black" stroke-width="2" fill="none" />
<polyline points="457.5,235.5,441.0,236.5,423.5,237.5,407.0,238.5,391.0,239.5,375.0,240.5,358.5,241.0,343.0,242.0,327.5,243.0,311.5,244.5,295.5,247.0,279.5,248.0,264.0,248.5,249.0,249.5,233.5,250.0,218.5,251.5,201.5,252.0,185.5,251.5,169.0,251.0,153.0,250.0,136.5,250.0,120.5,250.5,103.0,252.0,85.5,252.5,68.5,253.5,52.5,254.5" stroke="black" stroke-width="2" fill="none" />
<polyline points="38.5,239.0,54.5,239.0,71.0,238.5,87.5,237.5,103.0,236.5,119.5,235.5,135.5,234.5,151.5,233.5,168.0,231.5,184.0,229.5,200.0,228.0,215.5,228.5,231.0,228.0,246.0,228.0,261.5,228.0,277.0,228.0,294.0,226.5,311.0,226.0" stroke="black" stroke-width="2" fill="none" />
<polyline points="306.5,219.0,312.5,245.0,308.5,271.5,320.5,288.0,306.5,310.0,310.0,325.5,326.0,328.0,310.0,333.5,326.0,327.5,330.0,309.5,348.0,335.5" stroke="black" stroke-width="2" fill="none" />
<polyline points="294.5,315.5,279.0,316.0,264.0,315.5,248.0,316.0" stroke="black" stroke-width="2" fill="none" />
<polyline points="256.0,315.0,272.5,315.0,288.5,300.5,271.0,306.0,269.5,332.0" stroke="black" stroke-width="2" fill="none" />
<polyline points="252.5,325.5,268.5,331.5,285.0,331.5,301.5,334.0" stroke="black" stroke-width="2" fill="none" />
<polyline points="230.0,311.0,213.5,311.0" stroke="black" stroke-width="2" fill="none" />
<polyline points="207.0,308.0,212.5,302.5,212.5,318.5,224.5,335.0" stroke="black" stroke-width="2" fill="none" />
<polyline points="231.0,295.0,215.0,295.5" stroke="black" stroke-width="2" fill="none" />
<polyline points="238.0,291.5,253.5,295.5,265.5,301.5,255.5,312.0,271.5,295.5,283.5,295.5" stroke="black" stroke-width="2" fill="none" />
<polyline points="343.0,260.5,336.5,244.5" stroke="black" stroke-width="2" fill="none" />
<polyline points="339.5,222.5,355.5,221.0" stroke="black" stroke-width="2" fill="none" />
<polyline points="359.5,224.5,363.0,240.5,361.5,250.5,363.5,262.5" stroke="black" stroke-width="2" fill="none" />
<polyline points="382.0,289.5,398.0,287.5,402.0,303.0,402.5,327.0" stroke="black" stroke-width="2" fill="none" />
<polyline points="405.0,305.5,413.0,289.5" stroke="black" stroke-width="2" fill="none" />
<polyline points="388.5,290.0,390.0,305.5,396.0,322.0,407.5,337.5" stroke="black" stroke-width="2" fill="none" />
<polyline points="372.5,201.5,356.5,195.5" stroke="black" stroke-width="2" fill="none" />
<polyline points="364.5,198.0,380.5,214.0,376.0,206.0" stroke="black" stroke-width="2" fill="none" />
<polyline points="385.5,201.5,383.5,195.0,367.5,190.5,351.0,186.5" stroke="black" stroke-width="2" fill="none" />
<polyline points="387.5,156.0,405.0,154.5" stroke="black" stroke-width="2" fill="none" />
<polyline points="424.5,137.5,439.5,137.5,454.0,137.0" stroke="black" stroke-width="2" fill="none" />
<polyline points="455.0,106.5,471.0,105.5" stroke="black" stroke-width="2" fill="none" />
<polyline points="485.5,109.5,502.0,109.0" stroke="black" stroke-width="2" fill="none" />
<polyline points="495.0,105.0,489.0,121.0" stroke="black" stroke-width="2" fill="none" />
<polyline points="475.5,75.5,460.0,76.0" stroke="black" stroke-width="2" fill="none" />
<polyline points="451.5,71.0,467.5,83.0,483.5,78.5" stroke="black" stroke-width="2" fill="none" />
<polyline points="454.0,56.5,438.5,57.0" stroke="black" stroke-width="2" fill="none" />
<polyline points="425.5,52.5,403.0,62.5" stroke="black" stroke-width="2" fill="none" />
<polyline points="405.5,59.5,421.0,59.0" stroke="black" stroke-width="2" fill="none" />
<polyline points="424.5,45.5,440.0,45.0,455.5,44.5" stroke="black" stroke-width="2" fill="none" />
<polyline points="455.0,10.0,438.5,11.0,422.0,12.0,405.0,12.5" stroke="black" stroke-width="2" fill="none" />
<polyline points="405.5,16.0,411.5,32.0" stroke="black" stroke-width="2" fill="none" />
<polyline points="419.5,27.0,403.0,27.5" stroke="black" stroke-width="2" fill="none" />
<polyline points="397.0,37.0,381.0,29.0" stroke="black" stroke-width="2" fill="none" />
<polyline points="389.0,42.5,372.5,42.5" stroke="black" stroke-width="2" fill="none" />
<polyline points="375.0,46.0,359.5,38.0" stroke="black" stroke-width="2" fill="none" />
<polyline points="357.5,33.5,373.5,31.5,359.0,43.5,371.0,59.5,358.5,62.0,374.5,58.0,390.0,42.5,406.0,42.0,415.5,48.0,401.5,64.0,415.5,80.0,413.5,104.0,417.5,120.0,435.5,114.5,437.5,130.5,453.5,155.0,465.5,161.0,481.5,183.5,488.0,199.5,478.0,219.5,474.5,227.0,486.0,231.5,502.0,231.0" stroke="black" stroke-width="2" fill="none" />
<polyline points="406.5,137.5,391.0,139.0,375.0,140.0" stroke="black" stroke-width="2" fill="none" />
<polyline points="362.0,136.5,378.5,136.5,394.5,134.5,392.0,140.5,393.5,152.0,407.5,148.0,431.5,142.0,446.0,154.0,454.0,153.5,470.0,159.5,486.0,151.5,502.0,145.5" stroke="black" stroke-width="2" fill="none" />
<polyline points="468.5,138.0,480.0,120.5,480.0,108.5,486.0,108.5,467.5,92.0,491.5,70.0,505.5,62.0,489.5,56.0,481.5,54.0,481.5,38.0,487.5,20.0,491.5,4.0,491.5,4.0,475.5,16.0,479.5,10.5,464.0,11.0,447.5,11.0,431.5,10.5" stroke="black" stroke-width="2" fill="none" />
<polyline points="445.5,9.5,454.0,9.5,466.5,13.5,460.5,21.5,445.0,40.0,443.5,56.0,431.0,66.5,423.0,74.5,431.0,88.0,450.5,104.0,466.5,128.0,458.5,144.0,442.5,160.5,452.5,171.0,452.5,177.0,442.5,193.0,428.0,207.0,436.0,223.0,441.5,233.0,463.0,242.5,449.0,258.0,431.0,274.0,435.5,282.5,431.5,298.5,441.5,316.0,437.5,323.5,443.5,331.5,442.0,335.5,454.5,315.5,466.5,301.5,472.5,311.5,492.5,311.0,508.5,305.5,502.5,314.0,490.5,330.5,500.5,317.0,506.5,327.0,500.5,331.0" stroke="black" stroke-width="2" fill="none" />
<polyline points="420.5,124.5,406.5,114.5,400.5,119.0,384.5,111.5,368.5,127.5" stroke="black" stroke-width="2" fill="none" />
<polyline points="369.0,119.5,393.0,99.5,405.0,115.5,403.0,125.0,413.0,146.5,423.0,152.5,420.5,166.0,414.5,173.5,424.0,197.0,439.5,215.0,459.5,207.0,475.5,219.0,492.0,211.5,508.0,219.5" stroke="black" stroke-width="2" fill="none" />
<polyline points="456.0,101.5,446.0,87.0,430.0,83.0" stroke="black" stroke-width="2" fill="none" />
<polyline points="430.5,74.5,447.0,64.5,471.0,74.0,473.0,64.0" stroke="black" stroke-width="2" fill="none" />
<polyline points="427.0,72.0,451.0,70.0,473.0,86.0,467.0,90.0,483.0,95.5,503.0,93.5,511.0,101.5" stroke="black" stroke-width="2" fill="none" />
<polyline points="492.0,49.5,490.0,43.0,496.0,41.0,498.5,29.0,482.5,37.0,464.5,39.0,450.5,37.0,438.5,15.0,436.5,19.5,420.5,11.5,416.5,15.5" stroke="black" stroke-width="2" fill="none" />
<polyline points="401.5,11.5,383.5,19.5,391.0,41.5,389.0,60.0,380.5,76.0,380.0,92.0,378.5,108.0,370.5,123.5,362.5,123.5,366.5,148.0,374.5,154.0,390.5,154.0,392.0,160.0,408.0,162.5,428.0,158.5,433.5,150.0,449.5,142.5,465.5,128.5,481.5,140.5,497.5,128.5" stroke="black" stroke-width="2" fill="none" />
<polyline points="440.0,137.5,437.5,130.0,421.5,134.5,405.5,132.5,387.5,140.5,388.0,140.5,373.5,128.5,383.5,112.5,372.0,104.5,368.5,112.0,376.5,96.0,361.0,94.0,355.5,78.0,357.5,50.0,349.5,34.0,345.0,36.0" stroke="black" stroke-width="2" fill="none" />
<polyline points="355.0,44.5,371.0,50.5" stroke="black" stroke-width="2" fill="none" />
<polyline points="377.5,79.0,387.5,67.0,408.0,69.0,424.0,52.5,440.0,58.5,450.0,62.5,466.0,56.5" stroke="black" stroke-width="2" fill="none" />
<polyline points="496.0,65.0,474.0,75.0,476.5,67.0,456.5,43.0,444.5,27.5,427.0,25.0,419.0,9.0,405.0,2.5" stroke="black" stroke-width="2" fill="none" />
<polyline points="415.0,33.0,399.5,33.0,398.0,22.5,396.0,26.0,394.5,16.0,380.5,25.5,364.0,25.5,348.0,27.5,332.0,51.5" stroke="black" stroke-width="2" fill="none" />
<polyline points="312.5,47.0,302.5,63.5,298.5,59.5" stroke="black" stroke-width="2" fill="none" />
<polyline points="314.5,79.0,318.5,59.0,300.5,65.0,322.0,75.0,341.5,93.0" stroke="black" stroke-width="2" fill="none" />
<polyline points="357.0,110.0,373.5,110.0,389.5,108.5" stroke="black" stroke-width="2" fill="none" />
<polyline points="392.0,124.0,377.0,124.0" stroke="black" stroke-width="2" fill="none" />
<polyline points="330.0,109.0,314.0,109.0,298.5,109.5" stroke="black" stroke-width="2" fill="none" />
<polyline points="305.5,101.5,321.5,111.5,329.5,105.5" stroke="black" stroke-width="2" fill="none" />
<polyline points="343.0,105.5,335.5,79.5,319.5,77.5" stroke="black" stroke-width="2" fill="none" />
<polyline points="304.0,87.0,320.0,89.0,339.5,91.0" stroke="black" stroke-width="2" fill="none" />
<polyline points="343.5,111.5,328.0,89.5,312.0,95.5,296.5,106.0,280.5,104.0,262.5,108.0,272.5,100.0,272.0,84.0,286.0,68.0,296.0,52.0,302.0,52.0,310.0,36.0,321.5,19.5,321.5,3.0,303.5,2.5" stroke="black" stroke-width="2" fill="none" />
<polyline points="300.0,20.0,284.0,20.5,267.5,18.5" stroke="black" stroke-width="2" fill="none" />
<polyline points="268.0,13.0,284.0,11.0,306.0,17.0,298.0,33.0,290.0,45.0,284.0,61.0,266.0,81.0" stroke="black" stroke-width="2" fill="none" />
<polyline points="274.0,81.0,290.0,70.5" stroke="black" stroke-width="2" fill="none" />
<polyline points="285.0,102.5,311.5,108.5,321.5,124.0,321.5,138.0" stroke="black" stroke-width="2" fill="none" />
<polyline points="294.5,143.0,294.5,158.5" stroke="black" stroke-width="2" fill="none" />
<polyline points="285.0,172.0,273.0,190.0,257.5,196.5,241.5,202.5,238.0,196.5,222.0,193.0,213.5,195.0,198.0,193.0,180.0,176.5,178.0,182.0,178.0,198.0,162.0,206.0,180.0,216.0,170.0,200.0,166.0,182.5,162.0,170.5,162.0,160.5,157.5,151.0,145.5,141.0,145.5,151.0,137.0,147.0,125.0,159.0,117.0,151.0,107.5,163.0,91.5,169.0,75.5,166.5,72.0,180.5,56.0,180.5,40.0,174.5,38.0,169.0,34.0,154.5,52.0,139.0,66.0,129.0,92.5,126.5,94.5,110.5,88.5,108.5,88.5,99.0,88.5,91.0,94.0,85.0,92.0,69.0,65.5,75.0,63.5,83.0" stroke="black" stroke-width="2" fill="none" />
<polyline points="68.5,101.0,52.5,117.0" stroke="black" stroke-width="2" fill="none" />
<polyline points="56.0,113.0,72.0,111.0,88.0,97.0,120.0,111.5,136.0,111.5,152.0,112.0,168.0,113.5,184.0,111.5" stroke="black" stroke-width="2" fill="none" />
<polyline points="185.0,109.0,201.0,108.5,216.0,108.0,231.0,107.5,246.5,108.0" stroke="black" stroke-width="2" fill="none" />
<polyline points="239.0,98.5,227.0,83.0,233.0,79.0,227.0,79.0,211.0,86.5" stroke="black" stroke-width="2" fill="none" />
<polyline points="209.0,91.0,221.0,107.0,195.5,123.0,192.0,144.5,212.5,144.5,224.5,130.5,240.5,130.5,244.5,115.0,260.5,115.5,276.5,115.5,293.0,124.0,317.0,135.5" stroke="black" stroke-width="2" fill="none" />
<polyline points="339.5,167.5,325.0,169.5,310.5,171.0,295.5,171.0,280.5,172.0,265.0,172.0,249.5,172.5,233.0,172.0,216.5,171.0,200.0,170.5" stroke="black" stroke-width="2" fill="none" />
<polyline points="194.0,173.5,210.0,177.0,226.5,175.0,238.5,191.5,252.0,181.5" stroke="black" stroke-width="2" fill="none" />
<polyline points="261.0,182.0,244.5,182.5,229.0,182.5" stroke="black" stroke-width="2" fill="none" />
<polyline points="243.5,208.5,259.5,207.0,276.5,206.0" stroke="black" stroke-width="2" fill="none" />
<polyline points="290.5,206.0,306.5,196.5,308.5,200.0,310.5,194.5,326.5,198.5,342.5,191.0,358.0,179.0,374.0,177.0,381.5,189.0" stroke="black" stroke-width="2" fill="none" />
<polyline points="378.5,212.0,360.5,216.5,340.5,200.5,316.5,210.0,300.0,220.0" stroke="black" stroke-width="2" fill="none" />
<polyline points="212.5,215.5,197.5,215.0,182.0,215.0,167.0,215.5,151.5,217.0,136.0,218.0,119.5,219.5" stroke="black" stroke-width="2" fill="none" />
<polyline points="125.5,213.5,142.0,227.5" stroke="black" stroke-width="2" fill="none" />
<polyline points="136.0,232.0,152.0,216.0,169.5,200.0,185.5,183.5" stroke="black" stroke-width="2" fill="none" />
<polyline points="185.5,201.5,170.0,217.0" stroke="black" stroke-width="2" fill="none" />
<polyline points="133.5,215.5,117.5,230.5" stroke="black" stroke-width="2" fill="none" />
<polyline points="102.0,229.0,86.5,245.0" stroke="black" stroke-width="2" fill="none" />
<polyline points="73.5,230.5,89.5,214.5" stroke="black" stroke-width="2" fill="none" />
<polyline points="86.0,208.0,101.5,206.0,100.0,206.0,82.0,220.0,62.0,236.0,60.0,252.0,58.0,268.0,42.0,285.5,58.0,291.0,48.0,317.0,44.0,323.0,32.0,337.0,48.0,333.0,64.0,323.0,80.0,327.0,96.0,319.0,122.0,315.0,138.0,291.5,154.5,289.5,170.5,294.0,190.5,313.5,176.5,329.5" stroke="black" stroke-width="2" fill="none" />
<polyline points="164.0,327.5,149.0,328.0" stroke="black" stroke-width="2" fill="none" />
<polyline points="136.5,326.0,152.5,334.0,168.5,335.5" stroke="black" stroke-width="2" fill="none" />
<polyline points="165.0,302.0,181.0,301.0" stroke="black" stroke-width="2" fill="none" />
<polyline points="188.5,328.0,172.0,330.5,149.5,320.5,151.5,310.5,156.0,303.0,140.0,311.0" stroke="black" stroke-width="2" fill="none" />
<polyline points="146.0,300.0,142.0,316.0,146.0,336.5,138.0,330.5" stroke="black" stroke-width="2" fill="none" />
<polyline points="121.5,316.0,106.0,317.5,89.5,318.5" stroke="black" stroke-width="2" fill="none" />
<polyline points="84.0,328.0,100.0,332.0" stroke="black" stroke-width="2" fill="none" />
<polyline points="71.0,318.0,54.5,317.5,37.0,318.0" stroke="black" stroke-width="2" fill="none" />
<polyline points="38.0,303.5,54.0,303.5,69.5,303.0,86.0,302.0" stroke="black" stroke-width="2" fill="none" />
<polyline points="95.5,296.0,111.5,298.0" stroke="black" stroke-width="2" fill="none" />
<polyline points="126.5,309.5,138.5,293.0,128.5,283.5" stroke="black" stroke-width="2" fill="none" />
<polyline points="149.0,289.0,137.0,305.0,125.0,321.0" stroke="black" stroke-width="2" fill="none" />
<polyline points="165.5,304.5,165.5,324.5,162.0,316.5,170.5,300.5,160.5,284.5,150.5,294.5,134.5,306.0,118.5,322.5,116.5,330.5,110.5,320.0,118.0,304.0,124.0,302.5,121.5,282.0,113.5,256.0,112.0,254.0,102.0,246.0,102.0,230.0,98.0,214.0,98.0,198.0,111.5,182.0,113.0,186.0" stroke="black" stroke-width="2" fill="none" />
<polyline points="118.5,169.0,134.5,154.0" stroke="black" stroke-width="2" fill="none" />
<polyline points="136.0,135.5,120.0,150.5,104.0,164.0" stroke="black" stroke-width="2" fill="none" />
<polyline points="106.0,154.0,89.5,169.0" stroke="black" stroke-width="2" fill="none" />
<polyline points="72.0,154.0,89.0,138.0" stroke="black" stroke-width="2" fill="none" />
<polyline points="93.0,129.5,109.5,113.5,101.5,119.5,94.0,135.5,80.5,145.5,72.5,161.5,80.5,165.5,70.5,186.0,76.0,206.0,89.5,222.5,95.5,238.5,74.0,246.5,68.0,266.0,74.0,266.0,90.0,260.0,106.0,266.0,122.0,270.0,138.0,272.0,162.5,284.0,184.5,302.0,200.5,322.0,217.0,330.0" stroke="black" stroke-width="2" fill="none" />
<polyline points="215.0,202.5,199.5,201.5,184.5,200.5,169.5,200.5,153.0,200.5,137.0,201.0,122.0,202.0,106.0,203.5" stroke="black" stroke-width="2" fill="none" />
<polyline points="102.0,216.5,85.5,217.0,70.0,217.0,55.5,217.5,40.0,218.0" stroke="black" stroke-width="2" fill="none" />
<polyline points="37.5,210.0,45.5,210.5,39.5,226.0,53.5,250.0,45.5,266.0,39.5,270.5,55.5,264.5,75.5,251.0,94.0,253.0,100.0,245.0,116.0,251.0,131.5,253.0,147.5,241.0" stroke="black" stroke-width="2" fill="none" />
<polyline points="140.5,202.0,125.0,202.0" stroke="black" stroke-width="2" fill="none" />
<polyline points="120.5,209.0,124.5,207.0,136.0,235.0,126.0,232.5" stroke="black" stroke-width="2" fill="none" />
<polyline points="91.5,201.0,74.0,200.5,57.0,200.5,40.0,200.5,22.5,200.5,5.5,202.0" stroke="black" stroke-width="2" fill="none" />
<polyline points="11.0,217.5,27.0,217.0" stroke="black" stroke-width="2" fill="none" />
<polyline points="48.5,215.5,56.5,205.5,48.0,221.5,54.0,202.0,70.0,198.0,56.0,222.5,42.0,232.5,66.0,228.5,82.0,229.0" stroke="black" stroke-width="2" fill="none" />
<polyline points="60.0,224.0,76.0,216.0,90.0,218.0,105.5,224.0,121.5,226.0,137.0,225.5" stroke="black" stroke-width="2" fill="none" />
<polyline points="163.0,234.5,142.5,238.5,128.5,244.5,127.0,242.5,117.0,226.5,111.0,208.5,103.0,186.5,87.0,194.5,71.5,194.5,55.5,192.5" stroke="black" stroke-width="2" fill="none" />
<polyline points="54.0,224.0,70.0,209.5,86.0,203.5,102.0,195.5,126.5,175.0,130.5,191.0,118.5,199.5,126.5,215.5,142.5,227.5,142.5,243.5,158.5,256.0,175.0,254.0,175.0,244.0,193.0,224.0,217.0,216.0,223.5,214.5,239.0,224.5,249.0,237.0,262.5,227.0,278.5,235.5,286.5,249.5,298.5,237.5,296.5,255.0,306.5,250.5,328.5,246.5,338.5,232.5,342.5,238.5,344.5,252.0,364.5,241.5,380.0,240.0,396.0,228.0" stroke="black" stroke-width="2" fill="none" />
<polyline points="502.0,165.5,485.5,167.5,469.5,165.0,453.5,169.0,441.5,180.5,425.5,180.5,409.5,168.0,393.5,170.0,377.5,168.0,369.5,164.0,353.5,172.0,330.0,174.0,314.0,190.5,308.5,176.0,292.5,170.0,283.0,145.5,281.0,157.5,265.5,167.5,249.5,167.5,241.5,179.5,241.0,183.5,233.0,183.5,224.5,168.0,216.0,140.5,194.0,130.5,198.0,108.5,198.0,93.0,194.0,99.0,178.0,95.0" stroke="black" stroke-width="2" fill="none" />
<polyline points="181.0,88.0,165.0,89.0,148.5,89.5,133.0,90.0,117.5,90.5,101.5,91.0,86.0,90.5,70.5,91.0,54.0,91.0,38.5,91.0,22.5,91.0,6.5,91.5" stroke="black" stroke-width="2" fill="none" />
<polyline points="11.5,93.5,16.0,109.0,24.0,113.0" stroke="black" stroke-width="2" fill="none" />
<polyline points="22.5,119.5,7.5,135.0" stroke="black" stroke-width="2" fill="none" />
<polyline points="9.0,139.0,25.0,138.0,39.5,137.0,55.0,137.0,70.5,137.5,86.5,137.0,102.0,136.5,119.0,136.0,135.5,135.0,152.5,133.5,168.5,133.5" stroke="black" stroke-width="2" fill="none" />
<polyline points="175.5,133.0,160.0,125.0" stroke="black" stroke-width="2" fill="none" />
<polyline points="150.5,122.5,167.0,122.0,183.5,122.5" stroke="black" stroke-width="2" fill="none" />
<polyline points="206.0,117.0,182.0,103.0,166.5,102.5,150.5,102.5,134.5,102.5,118.0,110.5,108.0,96.5,91.5,106.5,79.5,136.0,61.5,131.5,47.5,131.5,57.5,115.5,67.5,97.5,46.0,93.5" stroke="black" stroke-width="2" fill="none" />
<polyline points="26.5,102.5,10.5,118.5" stroke="black" stroke-width="2" fill="none" />
<polyline points="7.5,123.0,23.5,122.5,40.0,121.5,57.0,121.0,72.5,121.0,88.5,120.5,105.5,120.0,122.0,120.5,138.5,121.0,154.0,120.0,169.0,120.0,185.0,119.5,200.0,119.0,215.0,118.5,230.5,119.0" stroke="black" stroke-width="2" fill="none" />
<polyline points="253.5,129.0,261.5,145.0,251.5,160.5,259.5,188.5,249.5,208.0,267.5,209.5,244.0,224.0,241.5,228.0,257.5,234.0,255.0,250.0,241.0,250.5,239.5,266.0,223.5,282.0,229.5,290.0,223.5,306.0,225.5,322.0,233.5,337.5" stroke="black" stroke-width="2" fill="none" />
<polyline points="115.0,337.5,99.5,337.0,83.5,333.5,67.5,335.5" stroke="black" stroke-width="2" fill="none" />
<polyline points="24.5,315.0,9.0,315.0" stroke="black" stroke-width="2" fill="none" />
<polyline points="11.5,320.5,27.5,326.5,44.0,330.5" stroke="black" stroke-width="2" fill="none" />
<polyline points="27.5,298.5,11.5,299.5" stroke="black" stroke-width="2" fill="none" />
<polyline points="1.0,290.5,13.0,300.5,7.5,316.0,29.5,324.0,31.5,324.0,47.5,318.0,63.5,310.0,85.5,290.0,101.5,280.0" stroke="black" stroke-width="2" fill="none" />
<polyline points="96.5,273.5,86.0,289.5,80.0,306.0,65.5,322.0,51.5,324.0" stroke="black" stroke-width="2" fill="none" />
<polyline points="64.0,300.0,48.0,299.5,32.0,293.5" stroke="black" stroke-width="2" fill="none" />
<polyline points="30.5,287.5,46.0,295.5,49.5,283.5,65.5,296.0,81.0,286.0" stroke="black" stroke-width="2" fill="none" />
<polyline points="37.5,262.5,22.0,262.5" stroke="black" stroke-width="2" fill="none" />
<polyline points="2.5,260.0,8.5,272.0,20.5,288.0,30.5,288.0,44.5,304.0,54.5,318.0" stroke="black" stroke-width="2" fill="none" />
<polyline points="34.0,313.0,18.0,315.0,2.0,321.0" stroke="black" stroke-width="2" fill="none" />
<polyline points="1.0,270.5,17.5,280.0,31.5,260.0,33.5,270.0,49.5,260.0" stroke="black" stroke-width="2" fill="none" />
<polyline points="24.0,187.5,40.5,186.5,56.0,185.5,71.5,184.0,87.0,183.0,103.0,182.0,118.5,182.0,133.5,182.0,148.5,182.0,163.5,182.0,179.5,182.0,196.0,181.5" stroke="black" stroke-width="2" fill="none" />
<polyline points="184.0,168.0,168.0,168.5,152.5,168.5,136.0,168.0,119.0,167.5,102.0,167.0,86.0,167.5,70.5,167.0,55.0,168.0,40.0,168.5,25.5,169.0,10.0,170.0" stroke="black" stroke-width="2" fill="none" />
<polyline points="4.5,165.5,20.5,149.5" stroke="black" stroke-width="2" fill="none" />
<polyline points="18.5,150.0,20.5,166.0,26.5,180.5" stroke="black" stroke-width="2" fill="none" />
<polyline points="29.5,182.0,13.5,180.0" stroke="black" stroke-width="2" fill="none" />
<polyline points="21.5,166.5,37.0,151.5" stroke="black" stroke-width="2" fill="none" />
<polyline points="38.5,165.0,54.0,149.0,69.0,134.0,84.5,119.0" stroke="black" stroke-width="2" fill="none" />
<polyline points="74.0,110.0,80.5,126.0,76.0,141.5,88.0,151.5" stroke="black" stroke-width="2" fill="none" />
<polyline points="85.5,164.0,107.0,162.0,107.5,154.0,121.5,146.0,105.5,130.0,120.0,113.5,124.0,93.5,120.5,87.5,100.5,83.0,88.0,85.0,78.0,93.5,70.5,105.5,64.5,95.5,48.5,109.5,32.5,119.0,46.5,111.0,60.5,95.5,76.0,94.0,62.0,78.0,66.0,62.0,52.0,58.5" stroke="black" stroke-width="2" fill="none" />
<polyline points="51.0,54.0,67.0,58.0,83.0,54.0" stroke="black" stroke-width="2" fill="none" />
<polyline points="80.0,65.0,96.0,67.5,111.5,70.0,121.5,68.0,137.5,84.0" stroke="black" stroke-width="2" fill="none" />
<polyline points="146.5,88.0,131.5,103.0" stroke="black" stroke-width="2" fill="none" />
<polyline points="120.0,101.0,104.0,116.0" stroke="black" stroke-width="2" fill="none" />
<polyline points="105.5,125.5,121.0,123.5,137.5,122.0,162.0,126.0,188.5,141.5,193.0,157.5,193.0,172.0,197.0,192.5,213.0,194.5,213.0,209.0,195.0,212.5,177.0,218.5,171.0,234.5,163.0,250.5,167.0,266.0,191.0,276.5,203.0,286.5,219.0,286.5,235.0,272.5,258.5,256.5,266.5,270.5,279.0,270.5,281.0,268.0,291.0,288.0,314.5,293.5,330.0,296.0,346.5,297.5,362.5,289.5,378.5,279.5,392.5,281.0,398.0,291.5,402.0,283.5,418.0,285.5,434.0,274.0,434.0,262.0,450.0,244.5,441.5,246.5,425.5,262.0,427.5,290.0,425.0,306.0,421.0,323.5,419.5,325.5,431.5,321.5,447.5,325.5" stroke="black" stroke-width="2" fill="none" />
<polyline points="358.0,153.0,334.0,141.0,318.0,143.0,310.0,152.5,328.0,132.5,334.0,114.5,324.0,98.5,297.5,100.5,303.5,96.5,305.5,68.5,321.0,64.0,320.5,48.5,314.5,46.5,319.0,40.5,305.0,30.5,289.0,24.5,279.0,30.0,263.5,21.5,248.0,21.5,228.0,33.5,210.0,51.5,194.0,55.0,186.5,67.0,170.5,93.0,150.5,95.0,158.5,87.0,152.0,75.5,140.0,72.0,133.5,54.5,161.5,50.5,163.5,28.0,163.5,12.0,147.5,34.0,143.5,36.0" stroke="black" stroke-width="2" fill="none" />
<polyline points="149.5,24.5,134.0,25.0" stroke="black" stroke-width="2" fill="none" />
<polyline points="147.0,23.5,157.0,9.5,147.0,25.5,137.0,29.5,125.0,32.0,125.5,31.5,127.5,39.5,138.0,51.0,140.0,41.0,144.0,57.0,146.0,53.5,168.0,43.5,166.0,31.5,182.5,17.5,196.5,16.0,208.0,16.0,210.0,30.5,193.5,47.0,173.0,51.0,169.0,63.0,155.0,64.5,149.0,84.5" stroke="black" stroke-width="2" fill="none" />
<polyline points="149.5,70.5,133.0,71.0" stroke="black" stroke-width="2" fill="none" />
<polyline points="164.5,56.5,180.0,56.5" stroke="black" stroke-width="2" fill="none" />
<polyline points="175.5,64.5,159.5,81.0,171.5,69.0,195.5,79.5,211.5,78.0,227.5,66.0,237.0,78.5,253.0,74.5,269.0,69.0,275.0,49.5,285.0,48.0" stroke="black" stroke-width="2" fill="none" />
<polyline points="274.5,41.0,258.5,45.0" stroke="black" stroke-width="2" fill="none" />
<polyline points="246.5,26.5,232.0,26.0,216.5,26.5" stroke="black" stroke-width="2" fill="none" />
<polyline points="197.5,43.5,213.5,43.0,229.5,42.5,245.0,41.5" stroke="black" stroke-width="2" fill="none" />
<polyline points="224.5,56.0,222.5,72.0,194.5,80.0,192.0,95.5,190.0,107.5,206.0,101.5,218.0,109.5,231.5,109.5,241.0,106.0,257.0,104.0" stroke="black" stroke-width="2" fill="none" />
<polyline points="259.5,121.0,253.5,123.0,251.5,139.0,241.5,155.0,233.5,157.5,236.0,173.5,252.0,175.5,268.0,186.0,274.5,202.0,290.0,186.5,296.0,184.5,312.0,182.0,326.0,172.0,324.0,195.5,340.0,207.5,338.0,223.5,325.5,225.5,333.5,229.5,339.0,237.5,319.5,251.5,329.0,269.5,325.5,285.5,347.5,307.5,352.0,323.5,334.5,335.5,356.5,323.5,384.5,329.5,408.5,302.0" stroke="black" stroke-width="2" fill="none" />
<polyline points="215.0,328.5,209.0,326.5,203.0,339.0,185.0,327.0,177.0,319.0,159.0,339.0,173.0,323.0,181.0,306.5,173.0,290.5,168.5,274.0,184.5,279.5,168.0,273.5,142.0,279.5,126.0,277.5,118.0,313.0,98.0,311.0,82.5,311.0,62.5,303.0,80.5,287.0,96.5,271.0,96.5,261.0,90.5,277.5,82.5,269.5,80.5,253.5,78.5,238.0,76.5,243.5,74.0,239.5,48.0,245.0,32.0,247.0,12.0,241.0,6.0,233.0,22.0,217.0,8.0,233.0,28.0,247.0,34.0,231.0,30.0,215.0,26.0,193.5,14.0,212.0,4.0,218.0,4.0,202.0,18.0,196.0,28.0,188.0,5.5,166.0,12.0,150.0,17.5,134.0,9.5,126.0,29.5,116.0,23.5,100.0,21.5,84.0,31.5,68.5,4.0,60.5,10.0,44.5,22.5,34.5,2.5,14.5" stroke="black" stroke-width="2" fill="none" />
<polyline points="2.0,20.5,18.0,22.0,18.0,32.0,28.0,15.5" stroke="black" stroke-width="2" fill="none" />
<polyline points="38.0,8.0,22.5,8.5,7.0,8.5" stroke="black" stroke-width="2" fill="none" />
<polyline points="6.5,4.5,23.0,6.5,39.0,6.0,57.5,10.0,52.0,26.0" stroke="black" stroke-width="2" fill="none" />
<polyline points="40.5,46.5,24.5,46.5" stroke="black" stroke-width="2" fill="none" />
<polyline points="27.0,61.0,42.5,60.5" stroke="black" stroke-width="2" fill="none" />
<polyline points="38.5,65.5,40.0,51.5,56.0,28.0,73.5,22.0,75.5,18.0,91.0,30.5,109.0,52.5,125.0,46.5,141.0,64.0,167.0,56.5" stroke="black" stroke-width="2" fill="none" />
<polyline points="181.5,75.5,171.5,91.5,181.5,85.5" stroke="black" stroke-width="2" fill="none" />
<polyline points="188.0,71.5,176.0,73.5,166.0,89.5,174.0,75.0,204.0,93.0,220.0,101.0,236.0,97.0" stroke="black" stroke-width="2" fill="none" />
<polyline points="217.5,89.0,230.0,105.0,222.0,123.0,208.0,139.5,212.0,155.5,205.5,177.5,204.0,193.5,219.5,193.5,223.5,203.5,215.5,221.5,223.5,237.5,217.5,253.5,200.0,275.0,180.5,287.0,195.0,285.0,203.0,265.0,219.0,253.0" stroke="black" stroke-width="2" fill="none" />
<polyline points="149.5,151.0,134.0,151.5,118.5,152.0,102.5,153.0,86.0,154.0,71.0,153.5,57.0,154.0,42.5,155.0,27.0,156.0,11.0,156.0" stroke="black" stroke-width="2" fill="none" />
<polyline points="5.5,150.0,22.5,134.5" stroke="black" stroke-width="2" fill="none" />
<polyline points="3.5,142.0,3.5,158.0,23.5,170.0" stroke="black" stroke-width="2" fill="none" />
<polyline points="26.5,165.0,42.5,160.5,42.0,145.0" stroke="black" stroke-width="2" fill="none" />
<polyline points="54.5,158.0,70.5,146.0,60.5,152.0,56.5,168.0,60.0,168.0,68.0,150.0,78.0,174.0" stroke="black" stroke-width="2" fill="none" />
<polyline points="65.5,162.0,69.5,146.0,65.5,158.0" stroke="black" stroke-width="2" fill="none" />
<polyline points="53.5,130.0,69.0,113.5" stroke="black" stroke-width="2" fill="none" />
<polyline points="100.5,134.0,96.5,150.0,88.5,132.5,96.0,147.0,110.0,135.0,126.0,133.0,130.0,145.0,135.5,135.0" stroke="black" stroke-width="2" fill="none" />
<polyline points="157.0,139.5,151.5,123.5,113.5,119.5" stroke="black" stroke-width="2" fill="none" />
<polyline points="104.0,76.0,89.0,77.0" stroke="black" stroke-width="2" fill="none" />
<polyline points="97.0,76.0,81.0,74.0" stroke="black" stroke-width="2" fill="none" />
<polyline points="84.0,28.0,101.0,27.5" stroke="black" stroke-width="2" fill="none" />
<polyline points="86.5,10.5,101.5,10.5,117.5,8.5,133.0,7.0" stroke="black" stroke-width="2" fill="none" />
<polyline points="138.5,3.0,126.5,11.0,114.0,2.5,108.0,8.5,112.0,14.5,128.0,6.5,154.0,15.0,164.0,19.0,180.0,9.0,196.0,10.5,212.0,4.5,228.0,6.5,231.5,12.0,221.5,24.0,216.0,40.0,216.0,48.0,230.0,48.0,243.5,52.5,249.5,66.5,235.0,88.5,251.0,80.5,265.0,82.5,279.5,68.0,295.5,48.0,321.5,48.0,325.5,62.0,335.5,74.0,351.5,74.0,353.5,84.0,365.5,84.0,365.0,96.0,387.5,84.0,386.0,100.0,402.0,106.0,418.0,96.0,434.0,100.0,446.0,96.0,455.5,98.0,471.5,100.0,494.0,108.5,494.0,118.0,498.5,108.0,500.5,124.5,494.5,132.5,504.5,148.0,506.5,150.5" stroke="black" stroke-width="2" fill="none" />
<polyline points="447.0,124.0,439.0,108.0" stroke="black" stroke-width="2" fill="none" />
<polyline points="426.0,94.0,425.5,110.0,415.5,115.5,421.5,103.0,437.0,105.0,441.0,117.0,465.0,111.0,477.5,109.5,480.0,118.0" stroke="black" stroke-width="2" fill="none" />
<polyline points="429.5,223.5,416.0,229.5,408.5,219.5,400.5,207.0,392.5,221.0,377.0,221.5,361.5,225.5,357.5,204.0,341.5,217.5,335.5,211.5,315.0,217.5,324.5,209.5,316.5,198.0,296.0,175.5,283.5,159.0,279.0,157.0,285.0,141.0,275.5,125.0" stroke="black" stroke-width="2" fill="none" />
<polyline points="335.0,161.0,319.0,169.0,300.5,146.5,290.5,132.5,280.0,120.5,264.0,122.5,248.0,124.5,228.0,118.0,211.5,130.0,203.0,108.0,203.0,92.0" stroke="black" stroke-width="2" fill="none" />
<polyline points="134.0,105.5,118.5,106.0,102.5,107.0,87.0,106.5,71.5,107.0,55.5,107.0,39.5,107.5,24.0,109.0,8.0,109.5" stroke="black" stroke-width="2" fill="none" />
<polyline points="29.0,104.5,29.0,88.5,21.0,75.0,5.0,75.0" stroke="black" stroke-width="2" fill="none" />
<polyline points="7.5,73.0,23.5,72.5,40.0,71.5,56.0,71.0" stroke="black" stroke-width="2" fill="none" />
<polyline points="36.0,29.0,20.5,29.0" stroke="black" stroke-width="2" fill="none" />
<polyline points="13.0,12.0,29.0,12.0,45.5,10.5,59.5,20.5,51.5,36.0,39.5,51.5,41.5,39.5,54.0,19.5,70.5,3.5" stroke="black" stroke-width="2" fill="none" />
<polyline points="88.0,9.5,72.5,11.5,64.5,19.5,72.0,17.5,90.0,1.5" stroke="black" stroke-width="2" fill="none" />
<polyline points="93.0,4.5,97.0,20.5,87.0,26.5,94.5,40.0" stroke="black" stroke-width="2" fill="none" />
<polyline points="100.0,2.0,104.0,18.0,100.0,34.5,96.0,44.5,114.0,50.5,119.5,60.5,109.5,71.0,107.5,77.0,109.5,93.0,105.5,87.0,121.5,69.0,137.5,83.0,153.5,70.5,161.5,68.5,177.5,60.0,193.5,45.5,210.0,38.0,227.5,24.0,245.5,10.0,251.0,14.0,259.0,6.5,279.5,8.0,295.5,14.0,311.5,20.0,319.5,14.0,333.5,20.0,347.5,3.5,363.5,7.5,379.5,7.0,395.5,2.5,401.5,12.0,417.5,24.5,419.5,41.0,425.5,23.0,441.5,37.0,447.0,29.5,447.5,23.5,456.0,17.5,458.0,30.0,474.0,22.0,494.5,24.0" stroke="black" stroke-width="2" fill="none" />
<polyline points="331.0,9.5,327.0,25.5,326.5,37.5,334.0,53.5,332.0,71.5,347.5,75.5,350.0,92.0,366.0,96.0,360.5,110.5,346.5,118.5,340.5,133.0,336.5,144.5,354.0,153.0,360.5,157.0,356.5,169.0,366.5,171.0,356.0,185.5,383.5,191.0,395.5,195.0,387.5,206.5,391.5,232.5,401.5,232.5,410.0,244.5,426.0,242.0,442.0,240.0,452.0,238.0,472.5,239.5,488.0,239.5,504.0,239.5" stroke="black" stroke-width="2" fill="none" />
<polyline points="257.5,90.5,255.5,92.5,259.0,77.0,277.0,61.0,265.0,37.0,261.5,20.5" stroke="black" stroke-width="2" fill="none" />
<polyline points="265.0,8.5,249.5,8.0,233.0,7.0" stroke="black" stroke-width="2" fill="none" />
<polyline points="214.0,10.5,198.5,11.5,183.0,12.5" stroke="black" stroke-width="2" fill="none" />
<polyline points="182.5,18.0,170.5,34.0" stroke="black" stroke-width="2" fill="none" />
<polyline points="149.0,10.0,132.5,20.0,116.5,38.0,100.5,40.0,120.5,30.0,148.0,18.0,154.0,2.0" stroke="black" stroke-width="2" fill="none" />
<polyline points="208.5,2.0,218.5,4.0,240.0,20.0,238.0,36.0,240.0,40.0,228.0,44.0,223.5,54.0" stroke="black" stroke-width="2" fill="none" />
<polyline points="24.5,77.0,21.0,57.5,19.5,47.5,3.5,48.0" stroke="black" stroke-width="2" fill="none" />
<polyline points="8.5,69.5,6.0,85.5,8.0,101.5,3.5,120.0,17.5,118.0,22.0,124.0,37.5,136.0,51.5,116.0,65.5,100.0" stroke="black" stroke-width="2" fill="none" />
</svg>