<svg xmlns="http://www.w3.org/2000/svg" version="1.1"><polyline points="90.5,1.5,95.0,13.5,96.0,25.5,94.5,38.5" stroke="black" stroke-width="2" fill="none" />
<polyline points="101.0,27.5,84.0,28.0" stroke="black" stroke-width="2" fill="none" />
<polyline points="79.0,21.0,83.5,39.0,97.5,46.5,110.0,52.0,122.5,46.0,127.0,41.5,140.5,43.0,152.5,43.5" stroke="black" stroke-width="2" fill="none" />
<polyline points="153.5,52.5,141.5,49.5" stroke="black" stroke-width="2" fill="none" />
<polyline points="129.5,59.5,144.5,61.0,144.5,70.0,150.5,82.0,152.0,94.5,168.5,81.0,180.5,69.5,197.0,86.5,209.0,82.5,221.5,74.5,233.5,66.0,239.5,77.5,251.0,75.0,261.5,76.0,273.0,65.5,285.0,53.5" stroke="black" stroke-width="2" fill="none" />
<polyline points="292.5,56.0,280.5,72.5,271.5,72.5,255.0,80.0,243.0,84.5,231.0,86.0" stroke="black" stroke-width="2" fill="none" />
<polyline points="230.5,98.5,227.5,86.0,233.0,69.5,221.0,79.5,209.0,85.5" stroke="black" stroke-width="2" fill="none" />
<polyline points="202.0,90.0,214.0,91.5,226.0,100.5,238.0,96.5,240.0,93.5,245.5,107.5" stroke="black" stroke-width="2" fill="none" />
<polyline points="246.5,108.0,231.0,107.5,216.0,108.0,201.0,108.5,185.0,109.0" stroke="black" stroke-width="2" fill="none" />
<polyline points="190.0,112.0,178.0,106.5" stroke="black" stroke-width="2" fill="none" />
<polyline points="176.0,90.5,188.0,84.5,204.5,103.0,215.0,106.5" stroke="black" stroke-width="2" fill="none" />
<polyline points="208.5,122.0,193.5,137.0" stroke="black" stroke-width="2" fill="none" />
<polyline points="186.0,134.0,201.0,119.0" stroke="black" stroke-width="2" fill="none" />
<polyline points="210.0,139.0,194.5,154.0" stroke="black" stroke-width="2" fill="none" />
<polyline points="200.0,157.5,216.0,157.0,231.5,156.5" stroke="black" stroke-width="2" fill="none" />
<polyline points="243.5,155.0,260.0,154.5,276.0,155.0,292.0,155.0,307.5,155.0,324.0,154.5,340.5,153.0" stroke="black" stroke-width="2" fill="none" />
<polyline points="339.5,167.5,325.0,169.5,310.5,171.0,295.5,171.0,280.5,172.0,265.0,172.0,249.5,172.5,233.0,172.0,216.5,171.0,200.0,170.5" stroke="black" stroke-width="2" fill="none" />
<polyline points="199.5,165.5,216.0,151.5" stroke="black" stroke-width="2" fill="none" />
<polyline points="216.0,139.5,200.5,138.0,184.5,138.5" stroke="black" stroke-width="2" fill="none" />
<polyline points="168.5,133.5,152.5,133.5,135.5,135.0,119.0,136.0,102.0,136.5,86.5,137.0,70.5,137.5,55.0,137.0,39.5,137.0,25.0,138.0,9.0,139.0" stroke="black" stroke-width="2" fill="none" />
<polyline points="5.5,150.0,22.5,134.5" stroke="black" stroke-width="2" fill="none" />
<polyline points="18.5,124.0,31.0,127.0,20.5,143.5,18.5,155.5,19.5,167.0,10.5,179.0,19.5,180.5,23.0,177.5,35.0,186.0" stroke="black" stroke-width="2" fill="none" />
<polyline points="24.0,187.5,40.5,186.5,56.0,185.5,71.5,184.0,87.0,183.0,103.0,182.0,118.5,182.0,133.5,182.0,148.5,182.0,163.5,182.0,179.5,182.0,196.0,181.5" stroke="black" stroke-width="2" fill="none" />
<polyline points="202.0,179.5,214.0,173.5,226.0,182.5" stroke="black" stroke-width="2" fill="none" />
<polyline points="229.0,182.5,244.5,182.5,261.0,182.0" stroke="black" stroke-width="2" fill="none" />
<polyline points="261.0,181.5,249.0,177.0" stroke="black" stroke-width="2" fill="none" />
<polyline points="257.5,186.0,243.5,198.0,258.5,207.5,265.5,222.5,283.5,236.0,287.5,253.0,299.5,250.0" stroke="black" stroke-width="2" fill="none" />
<polyline points="294.5,244.0,278.5,259.0" stroke="black" stroke-width="2" fill="none" />
<polyline points="279.5,275.5,263.0,291.5" stroke="black" stroke-width="2" fill="none" />
<polyline points="260.0,297.0,254.0,304.0,266.0,298.5,278.0,289.0" stroke="black" stroke-width="2" fill="none" />
<polyline points="280.5,297.5,297.0,282.0,313.0,266.0" stroke="black" stroke-width="2" fill="none" />
<polyline points="315.0,262.0,303.0,263.5,291.0,259.0,279.0,260.5,259.5,271.5,267.0,268.5,269.5,258.0,263.5,255.0,275.5,247.5,266.5,240.0,266.5,233.0,254.5,230.0" stroke="black" stroke-width="2" fill="none" />
<polyline points="246.0,233.0,230.5,247.5" stroke="black" stroke-width="2" fill="none" />
<polyline points="222.0,263.5,214.5,259.0" stroke="black" stroke-width="2" fill="none" />
<polyline points="214.0,259.5,199.0,275.5" stroke="black" stroke-width="2" fill="none" />
<polyline points="194.0,261.5,178.0,277.0" stroke="black" stroke-width="2" fill="none" />
<polyline points="180.5,261.5,196.5,245.5" stroke="black" stroke-width="2" fill="none" />
<polyline points="199.5,234.0,183.5,248.5" stroke="black" stroke-width="2" fill="none" />
<polyline points="167.5,245.0,151.5,260.0" stroke="black" stroke-width="2" fill="none" />
<polyline points="152.5,248.0,136.0,264.0" stroke="black" stroke-width="2" fill="none" />
<polyline points="141.5,273.0,132.5,270.5,120.5,273.5" stroke="black" stroke-width="2" fill="none" />
<polyline points="127.0,283.0,131.5,276.0,118.5,288.0,120.0,303.0,118.5,315.0,109.5,322.5,109.5,336.0" stroke="black" stroke-width="2" fill="none" />
<polyline points="101.0,324.0,89.5,325.5" stroke="black" stroke-width="2" fill="none" />
<polyline points="84.0,322.5,96.0,322.5,108.0,323.5" stroke="black" stroke-width="2" fill="none" />
<polyline points="121.5,316.0,106.0,317.5,89.5,318.5" stroke="black" stroke-width="2" fill="none" />
<polyline points="83.5,319.0,95.5,311.5,107.0,315.5" stroke="black" stroke-width="2" fill="none" />
<polyline points="95.5,296.5,107.0,298.0,122.0,308.5,121.0,323.0,132.0,311.5" stroke="black" stroke-width="2" fill="none" />
<polyline points="137.0,324.0,137.0,325.5,147.5,337.5" stroke="black" stroke-width="2" fill="none" />
<polyline points="149.0,328.0,164.0,327.5" stroke="black" stroke-width="2" fill="none" />
<polyline points="152.0,333.5,140.5,325.5" stroke="black" stroke-width="2" fill="none" />
<polyline points="139.5,329.5,151.5,338.5" stroke="black" stroke-width="2" fill="none" />
<polyline points="181.5,338.5,188.0,322.5,176.0,327.5,164.0,332.0,147.5,329.0,146.0,315.0,161.0,310.5,171.5,299.5,149.0,290.5,152.0,278.0,153.5,282.0,141.5,280.5,129.5,277.5,117.0,288.0" stroke="black" stroke-width="2" fill="none" />
<polyline points="116.5,261.5,132.0,246.0" stroke="black" stroke-width="2" fill="none" />
<polyline points="136.0,232.0,152.0,216.0,169.5,200.0,185.5,183.5" stroke="black" stroke-width="2" fill="none" />
<polyline points="171.0,182.5,155.0,199.0" stroke="black" stroke-width="2" fill="none" />
<polyline points="160.0,208.0,172.0,212.0" stroke="black" stroke-width="2" fill="none" />
<polyline points="182.5,212.0,198.0,196.5" stroke="black" stroke-width="2" fill="none" />
<polyline points="190.5,196.5,192.0,198.0,178.5,201.0,178.0,189.0,178.0,177.0,166.0,180.0" stroke="black" stroke-width="2" fill="none" />
<polyline points="159.0,180.5,163.5,167.0,157.5,179.0,169.5,197.0,177.5,209.5,180.5,209.5,195.5,226.0,185.5,231.5,178.0,242.0,169.0,263.0,163.0,269.0,168.5,281.0,179.0,287.0,176.0,297.5,178.5,309.0,195.0,302.0,192.0,315.5,175.5,326.0,169.5,333.5,158.0,339.5,170.0,333.5,182.0,327.5,201.0,324.5,215.0,329.5,230.0,336.0" stroke="black" stroke-width="2" fill="none" />
<polyline points="245.0,336.0,262.0,335.0,279.0,333.0" stroke="black" stroke-width="2" fill="none" />
<polyline points="277.5,339.5,282.0,337.5,299.0,327.5,287.0,323.0,275.0,324.5,263.5,326.0" stroke="black" stroke-width="2" fill="none" />
<polyline points="260.0,317.0,272.0,306.5" stroke="black" stroke-width="2" fill="none" />
<polyline points="267.5,300.0,258.5,309.0" stroke="black" stroke-width="2" fill="none" />
<polyline points="248.0,316.0,264.0,315.5,279.0,316.0,294.5,315.5" stroke="black" stroke-width="2" fill="none" />
<polyline points="299.5,311.5,314.5,302.5,315.0,315.0,316.5,300.0,318.0,295.0,330.0,297.5,341.5,299.5,353.0,295.0,364.5,289.0,376.5,281.0,388.5,276.5,400.5,275.0,413.0,273.5,425.0,270.5,437.0,261.5,449.0,246.5" stroke="black" stroke-width="2" fill="none" />
<polyline points="438.5,254.0,423.0,253.5,407.5,253.5,391.0,253.5,374.5,253.0,359.0,255.0,343.0,256.0,326.5,257.5,310.5,260.0,295.0,261.0,279.5,263.0,265.0,263.5,250.0,264.0,234.0,264.0,218.5,264.5,202.5,264.5,186.0,265.0,170.0,266.0,153.5,266.5,136.0,267.0,119.5,267.5,103.5,268.0,87.0,268.5,70.5,270.0,53.0,271.0" stroke="black" stroke-width="2" fill="none" />
<polyline points="51.0,282.5,67.5,282.0,85.0,282.0,102.0,282.0,119.0,282.5,135.5,282.0,151.5,281.5,168.0,281.5,185.0,281.0,202.0,281.0,218.5,281.0,234.0,281.0,249.5,279.5,265.5,278.5,281.0,277.0,296.0,276.0,312.5,275.5,328.5,275.0,344.0,274.0,359.5,273.0,375.0,272.5,391.0,272.0,406.5,271.5" stroke="black" stroke-width="2" fill="none" />
<polyline points="408.5,277.5,424.5,261.5" stroke="black" stroke-width="2" fill="none" />
<polyline points="412.0,261.0,395.0,276.5" stroke="black" stroke-width="2" fill="none" />
<polyline points="392.5,275.0,376.5,275.5" stroke="black" stroke-width="2" fill="none" />
<polyline points="379.0,276.0,367.0,276.0,355.0,277.5,343.0,278.0,340.0,275.0,330.5,269.5,318.0,272.5,305.5,272.5" stroke="black" stroke-width="2" fill="none" />
<polyline points="306.5,271.0,313.0,282.5,328.5,298.0,318.5,310.0,307.0,321.5,315.0,336.5,346.5,327.5,354.0,330.5,366.5,333.5,380.0,329.0" stroke="black" stroke-width="2" fill="none" />
<polyline points="385.5,331.0,381.0,319.0" stroke="black" stroke-width="2" fill="none" />
<polyline points="387.0,316.5,403.0,316.0,420.5,314.5" stroke="black" stroke-width="2" fill="none" />
<polyline points="416.5,303.5,410.5,297.0,404.5,309.0,395.5,309.0,407.5,291.0" stroke="black" stroke-width="2" fill="none" />
<polyline points="401.0,279.5,396.5,291.5,399.0,293.5,405.0,284.5,417.0,287.5,418.5,279.5,429.0,282.5,440.5,270.5,443.5,271.5,449.5,259.5,461.5,247.5,481.0,244.5,493.0,245.0" stroke="black" stroke-width="2" fill="none" />
<polyline points="490.0,262.0,506.5,256.0,490.5,268.0,478.5,280.0" stroke="black" stroke-width="2" fill="none" />
<polyline points="485.0,282.0,501.5,280.5" stroke="black" stroke-width="2" fill="none" />
<polyline points="502.5,297.0,486.5,297.5,469.5,298.5,452.5,299.0,436.5,299.0,420.0,300.0,404.0,301.0,387.5,302.5" stroke="black" stroke-width="2" fill="none" />
<polyline points="381.5,287.5,389.0,290.5,390.0,302.5,390.0,314.5,400.5,327.0,408.5,339.5" stroke="black" stroke-width="2" fill="none" />
<polyline points="420.0,328.0,432.5,323.5,444.5,322.0,434.5,330.5" stroke="black" stroke-width="2" fill="none" />
<polyline points="440.0,330.5,456.0,330.5" stroke="black" stroke-width="2" fill="none" />
<polyline points="471.0,330.5,487.0,330.0,502.5,329.5,517.5,329.5" stroke="black" stroke-width="2" fill="none" />
<polyline points="520.0,309.5,504.5,310.5,487.5,313.0,471.0,314.0,454.5,315.0,439.5,316.0" stroke="black" stroke-width="2" fill="none" />
<polyline points="450.5,314.5,453.5,307.0,465.5,313.0,465.5,303.0,473.0,312.0,481.0,303.5,493.0,302.0,505.5,299.0" stroke="black" stroke-width="2" fill="none" />
<polyline points="506.5,297.0,489.0,309.0,480.0,310.5,486.5,327.0,467.0,334.5" stroke="black" stroke-width="2" fill="none" />
<polyline points="491.0,327.0,503.0,319.5,495.5,322.5,484.5,334.5,495.0,334.5,507.5,323.5,501.5,329.5" stroke="black" stroke-width="2" fill="none" />
<polyline points="461.0,292.5,448.5,299.5,447.0,296.5" stroke="black" stroke-width="2" fill="none" />
<polyline points="454.0,288.0,442.0,300.0,437.5,305.5,448.0,293.5,450.0,281.0" stroke="black" stroke-width="2" fill="none" />
<polyline points="440.0,280.5,438.5,292.0,439.0,290.5,449.5,279.0,461.0,285.0,471.5,286.5,480.0,275.0,492.0,266.0,504.0,258.5" stroke="black" stroke-width="2" fill="none" />
<polyline points="506.5,261.0,499.0,273.0,494.5,283.5" stroke="black" stroke-width="2" fill="none" />
<polyline points="499.5,272.0,495.0,284.5,482.5,283.0,466.5,279.0,454.5,275.5,442.5,269.5" stroke="black" stroke-width="2" fill="none" />
<polyline points="432.0,284.5,427.5,297.0,426.0,309.0,418.5,321.0,415.5,332.5,420.0,338.5" stroke="black" stroke-width="2" fill="none" />
<polyline points="411.0,335.5,411.0,323.5,414.0,311.5,419.0,299.5,412.0,294.5,399.5,317.0" stroke="black" stroke-width="2" fill="none" />
<polyline points="374.5,292.5,381.5,291.0,372.5,291.5,374.0,288.5,386.0,281.0,397.5,281.0" stroke="black" stroke-width="2" fill="none" />
<polyline points="383.0,279.0,360.5,291.0" stroke="black" stroke-width="2" fill="none" />
<polyline points="362.0,296.5,378.0,280.5,394.5,264.5" stroke="black" stroke-width="2" fill="none" />
<polyline points="379.0,249.0,394.0,233.0" stroke="black" stroke-width="2" fill="none" />
<polyline points="380.0,219.0,395.0,217.5,410.5,216.0" stroke="black" stroke-width="2" fill="none" />
<polyline points="421.0,219.5,437.0,219.5" stroke="black" stroke-width="2" fill="none" />
<polyline points="441.5,203.0,458.0,202.0" stroke="black" stroke-width="2" fill="none" />
<polyline points="457.5,186.5,473.0,172.0" stroke="black" stroke-width="2" fill="none" />
<polyline points="457.5,172.0,441.5,187.0" stroke="black" stroke-width="2" fill="none" />
<polyline points="441.0,184.5,456.5,184.0,471.5,184.0" stroke="black" stroke-width="2" fill="none" />
<polyline points="485.0,186.5,500.5,186.5,517.5,186.0" stroke="black" stroke-width="2" fill="none" />
<polyline points="518.0,171.0,502.0,186.5" stroke="black" stroke-width="2" fill="none" />
<polyline points="504.5,186.5,507.0,191.0,503.5,200.0,506.5,188.0,493.0,192.5" stroke="black" stroke-width="2" fill="none" />
<polyline points="489.0,188.0,505.0,173.0" stroke="black" stroke-width="2" fill="none" />
<polyline points="503.5,200.5,519.0,200.5" stroke="black" stroke-width="2" fill="none" />
<polyline points="519.0,215.5,503.5,215.5,487.0,215.5,470.5,215.0" stroke="black" stroke-width="2" fill="none" />
<polyline points="457.5,235.5,441.0,236.5,423.5,237.5,407.0,238.5,391.0,239.5,375.0,240.5,358.5,241.0,343.0,242.0,327.5,243.0,311.5,244.5,295.5,247.0,279.5,248.0,264.0,248.5,249.0,249.5,233.5,250.0,218.5,251.5,201.5,252.0,185.5,251.5,169.0,251.0,153.0,250.0,136.5,250.0,120.5,250.5,103.0,252.0,85.5,252.5,68.5,253.5,52.5,254.5" stroke="black" stroke-width="2" fill="none" />
<polyline points="38.5,239.0,54.5,239.0,71.0,238.5,87.5,237.5,103.0,236.5,119.5,235.5,135.5,234.5,151.5,233.5,168.0,231.5,184.0,229.5,200.0,228.0,215.5,228.5,231.0,228.0,246.0,228.0,261.5,228.0,277.0,228.0,294.0,226.5,311.0,226.0" stroke="black" stroke-width="2" fill="none" />
<polyline points="309.0,222.0,318.0,234.5,310.5,251.5,325.5,257.5,337.5,256.0,341.5,258.0,349.5,264.0,362.0,252.0,365.0,251.0,368.0,240.5,380.5,234.5,392.5,232.0,404.5,225.5,422.5,220.0,434.5,221.5,446.5,231.0,458.0,235.5,470.0,238.5,481.5,237.0,494.0,237.0,506.0,238.5" stroke="black" stroke-width="2" fill="none" />
<polyline points="516.5,226.5,501.5,227.5,485.0,229.0,469.0,229.0,454.5,230.0,439.5,231.5,424.0,232.0,408.5,232.5,392.0,233.5,375.0,234.5,358.5,235.0,342.5,234.5,326.5,234.5" stroke="black" stroke-width="2" fill="none" />
<polyline points="339.5,222.5,355.5,221.0" stroke="black" stroke-width="2" fill="none" />
<polyline points="345.5,203.0,357.5,203.5,369.5,205.0" stroke="black" stroke-width="2" fill="none" />
<polyline points="373.0,198.5,385.0,203.0" stroke="black" stroke-width="2" fill="none" />
<polyline points="391.0,205.5,407.0,206.0" stroke="black" stroke-width="2" fill="none" />
<polyline points="406.5,190.0,400.5,178.0,411.0,163.5,399.0,144.0,396.0,153.0,384.5,156.5,381.5,143.0,378.5,129.5,380.0,117.5,389.0,105.5,375.0,111.5,363.0,126.5" stroke="black" stroke-width="2" fill="none" />
<polyline points="368.5,128.5,381.0,115.0,388.5,91.0,394.5,109.0,406.5,114.5,418.5,124.5,430.5,112.5" stroke="black" stroke-width="2" fill="none" />
<polyline points="432.5,110.5,443.0,122.0,428.0,138.5,440.0,138.0" stroke="black" stroke-width="2" fill="none" />
<polyline points="437.0,151.5,420.0,166.5" stroke="black" stroke-width="2" fill="none" />
<polyline points="418.5,169.0,431.0,166.0" stroke="black" stroke-width="2" fill="none" />
<polyline points="424.0,169.0,439.0,169.5,454.5,169.5,469.5,169.5,484.5,169.5,499.5,170.0,516.0,169.0" stroke="black" stroke-width="2" fill="none" />
<polyline points="516.5,151.5,501.0,152.0,485.0,153.0,469.5,153.5,454.5,153.5,439.0,153.5,422.5,153.0" stroke="black" stroke-width="2" fill="none" />
<polyline points="425.0,148.0,437.5,146.5,451.0,150.5,461.5,155.0,474.0,164.0" stroke="black" stroke-width="2" fill="none" />
<polyline points="455.5,153.5,440.0,168.5,424.0,183.5" stroke="black" stroke-width="2" fill="none" />
<polyline points="440.0,184.5,450.0,169.5,442.5,157.5,456.0,145.5,453.5,154.0" stroke="black" stroke-width="2" fill="none" />
<polyline points="454.0,137.0,439.5,137.5,424.5,137.5" stroke="black" stroke-width="2" fill="none" />
<polyline points="405.0,154.5,387.5,156.0" stroke="black" stroke-width="2" fill="none" />
<polyline points="377.0,165.0,389.0,160.5,401.5,162.0,414.0,166.5,426.5,159.0,434.0,152.5,446.0,144.5,458.5,140.0,470.5,129.0" stroke="black" stroke-width="2" fill="none" />
<polyline points="469.5,131.5,465.0,131.5,447.5,143.5,465.5,161.0,467.0,171.5,485.0,165.5,482.5,162.0,491.0,168.0" stroke="black" stroke-width="2" fill="none" />
<polyline points="499.0,171.0,497.5,183.0,499.0,186.0,499.0,181.0,505.0,172.0,502.5,164.5,500.0,153.0,501.0,141.0,502.0,123.0,509.5,106.5,503.0,94.5,498.5,96.0" stroke="black" stroke-width="2" fill="none" />
<polyline points="495.0,106.5,490.5,118.5,495.0,130.0,507.0,133.0" stroke="black" stroke-width="2" fill="none" />
<polyline points="502.0,109.0,485.5,109.5" stroke="black" stroke-width="2" fill="none" />
<polyline points="471.0,105.5,455.0,106.5" stroke="black" stroke-width="2" fill="none" />
<polyline points="453.5,97.0,465.5,104.5" stroke="black" stroke-width="2" fill="none" />
<polyline points="464.0,96.0,476.0,100.0" stroke="black" stroke-width="2" fill="none" />
<polyline points="475.5,75.5,460.0,76.0" stroke="black" stroke-width="2" fill="none" />
<polyline points="458.5,82.5,452.0,94.5,465.5,107.0,480.0,107.0,474.0,114.5" stroke="black" stroke-width="2" fill="none" />
<polyline points="464.0,139.5,476.0,138.0,488.0,140.0,500.0,141.5" stroke="black" stroke-width="2" fill="none" />
<polyline points="485.0,192.5,497.5,206.0,509.5,204.0" stroke="black" stroke-width="2" fill="none" />
<polyline points="495.5,213.5,504.5,225.5" stroke="black" stroke-width="2" fill="none" />
<polyline points="461.5,200.5,450.0,194.5,456.0,181.0,453.0,187.0" stroke="black" stroke-width="2" fill="none" />
<polyline points="451.0,175.5,441.5,187.5,442.5,199.5,450.0,203.0,451.0,212.0,468.0,219.0,477.0,231.5,487.0,231.5,499.0,232.0" stroke="black" stroke-width="2" fill="none" />
<polyline points="500.0,226.5,487.5,226.5,475.5,226.5,486.0,211.5,486.0,195.0,483.5,183.5,476.0,170.0,476.0,149.0,477.5,140.0,475.0,129.5,479.5,119.0,473.0,119.0,450.5,108.5,445.0,97.0,454.0,82.0,451.0,70.0,443.5,64.0,440.0,58.0,450.5,46.0,456.5,34.0,459.0,22.0,441.0,20.5,442.5,8.0,429.0,8.0,429.0,6.0" stroke="black" stroke-width="2" fill="none" />
<polyline points="432.0,10.5,448.5,13.0,453.5,24.5" stroke="black" stroke-width="2" fill="none" />
<polyline points="455.0,10.0,438.5,11.0,422.0,12.0,405.0,12.5" stroke="black" stroke-width="2" fill="none" />
<polyline points="416.5,14.5,439.0,22.5,447.0,35.0" stroke="black" stroke-width="2" fill="none" />
<polyline points="435.0,33.5,438.0,45.5,424.0,52.5,436.0,58.5,427.5,71.0,430.0,75.5,429.5,83.5,435.5,96.0,432.0,102.5,423.0,114.5,426.0,118.5,418.5,120.0" stroke="black" stroke-width="2" fill="none" />
<polyline points="406.5,137.5,391.0,139.0,375.0,140.0" stroke="black" stroke-width="2" fill="none" />
<polyline points="380.0,132.5,391.5,136.5" stroke="black" stroke-width="2" fill="none" />
<polyline points="392.0,124.0,377.0,124.0" stroke="black" stroke-width="2" fill="none" />
<polyline points="387.5,114.0,399.0,117.0" stroke="black" stroke-width="2" fill="none" />
<polyline points="400.0,106.5,412.0,106.5,426.0,108.0,438.0,111.5,453.0,111.5,465.0,120.5,476.5,123.5,488.5,107.0" stroke="black" stroke-width="2" fill="none" />
<polyline points="485.5,71.5,473.5,74.5,462.0,68.5" stroke="black" stroke-width="2" fill="none" />
<polyline points="460.5,65.5,472.5,62.5" stroke="black" stroke-width="2" fill="none" />
<polyline points="470.5,56.0,460.0,68.0,476.0,71.0" stroke="black" stroke-width="2" fill="none" />
<polyline points="484.0,78.5,482.5,78.5,488.0,71.0,484.0,60.5,479.5,48.0,485.5,36.0,488.5,21.0,479.5,13.0,479.0,1.0,470.0,15.0,457.5,3.0" stroke="black" stroke-width="2" fill="none" />
<polyline points="461.0,2.0,468.5,14.0,470.0,20.0" stroke="black" stroke-width="2" fill="none" />
<polyline points="479.0,2.5,488.0,10.5,492.5,22.5" stroke="black" stroke-width="2" fill="none" />
<polyline points="487.0,43.5,498.5,49.5" stroke="black" stroke-width="2" fill="none" />
<polyline points="454.0,56.5,438.5,57.0" stroke="black" stroke-width="2" fill="none" />
<polyline points="450.0,69.0,462.0,81.0,473.5,85.5" stroke="black" stroke-width="2" fill="none" />
<polyline points="500.5,67.0,500.5,68.5,502.0,56.5,493.5,44.5,490.5,44.5,486.0,38.5,499.5,32.5,501.0,29.5,489.0,34.0,476.5,40.5,455.5,44.0,457.0,42.5,465.5,31.0,461.0,19.0,452.0,7.0,441.5,8.5,438.5,17.5" stroke="black" stroke-width="2" fill="none" />
<polyline points="445.5,8.0,457.5,18.5" stroke="black" stroke-width="2" fill="none" />
<polyline points="455.5,44.5,440.0,45.0,424.5,45.5" stroke="black" stroke-width="2" fill="none" />
<polyline points="421.0,59.0,405.5,59.5" stroke="black" stroke-width="2" fill="none" />
<polyline points="402.0,66.5,414.0,60.5,426.0,51.5,438.0,61.0" stroke="black" stroke-width="2" fill="none" />
<polyline points="428.0,78.0,440.5,70.5,451.0,66.0,454.0,64.5,466.0,58.5,481.0,53.0,493.0,54.0" stroke="black" stroke-width="2" fill="none" />
<polyline points="498.0,108.0,486.0,101.0,474.0,95.0,462.5,92.0,449.0,101.0,437.0,92.0,432.5,100.5,420.5,94.5,413.0,112.5,415.0,110.5,417.5,103.0,417.5,83.0,422.0,71.0,416.5,64.5,413.5,72.0" stroke="black" stroke-width="2" fill="none" />
<polyline points="429.5,83.5,441.5,89.5,453.5,81.5,462.5,92.0,476.0,94.5,486.5,106.0,479.0,124.5,491.0,124.5,491.0,109.5,499.0,116.0,503.5,122.0" stroke="black" stroke-width="2" fill="none" />
<polyline points="505.5,159.5,494.0,168.5,486.0,180.5,474.0,174.0,462.0,183.0,450.5,184.5,431.5,182.5,410.5,170.5,418.5,163.0,421.5,152.0,421.5,140.5,412.5,138.0,410.5,119.0,393.5,107.0,390.5,95.0,390.0,87.5,385.5,72.5,390.0,62.0,378.0,79.0" stroke="black" stroke-width="2" fill="none" />
<polyline points="385.5,84.5,370.0,84.0,361.0,93.0,349.5,85.0,348.0,76.0" stroke="black" stroke-width="2" fill="none" />
<polyline points="345.5,74.5,358.0,86.5,361.0,98.0" stroke="black" stroke-width="2" fill="none" />
<polyline points="357.0,110.0,373.5,110.0,389.5,108.5" stroke="black" stroke-width="2" fill="none" />
<polyline points="395.5,97.5,404.5,109.5,396.0,131.0,391.5,147.5,400.5,145.5,412.5,145.5,429.0,142.5,441.0,141.5,448.5,131.0" stroke="black" stroke-width="2" fill="none" />
<polyline points="437.5,109.0,448.0,121.0,443.0,133.0,444.5,143.5,450.0,160.0,460.5,168.5,472.5,180.5" stroke="black" stroke-width="2" fill="none" />
<polyline points="426.5,186.0,407.0,193.0,395.5,185.5,383.5,170.5" stroke="black" stroke-width="2" fill="none" />
<polyline points="387.5,173.0,404.0,172.0" stroke="black" stroke-width="2" fill="none" />
<polyline points="380.5,175.5,377.5,187.0,387.5,189.0,398.0,200.5,397.5,214.0,405.0,214.0,417.0,215.5,429.0,209.5,441.0,217.0" stroke="black" stroke-width="2" fill="none" />
<polyline points="430.5,233.0,418.0,237.0,414.5,229.5,401.0,238.5,396.5,232.5,381.0,244.5,369.5,244.5,364.0,237.0,347.5,238.5,335.5,241.5,322.0,237.0,316.5,224.5,300.0,222.0,301.5,210.0" stroke="black" stroke-width="2" fill="none" />
<polyline points="300.5,215.5,313.0,212.5,324.5,205.5" stroke="black" stroke-width="2" fill="none" />
<polyline points="309.5,215.0,305.0,222.5,288.5,235.0" stroke="black" stroke-width="2" fill="none" />
<polyline points="284.5,238.5,281.5,231.5,269.5,225.5,257.5,222.5,245.5,224.0,240.0,218.0,228.0,212.0,216.5,209.0,206.0,200.0,192.5,203.0,189.0,221.0,175.0,233.0,162.5,248.0,150.5,248.0,131.0,251.0,142.0,238.5,157.5,229.0,155.0,217.0,150.5,204.5,140.5,198.0,139.0,186.0,154.0,168.0,161.5,156.0,151.0,169.5" stroke="black" stroke-width="2" fill="none" />
<polyline points="150.5,170.5,133.5,186.5" stroke="black" stroke-width="2" fill="none" />
<polyline points="129.0,188.0,140.5,183.5" stroke="black" stroke-width="2" fill="none" />
<polyline points="151.0,186.0,167.0,170.0" stroke="black" stroke-width="2" fill="none" />
<polyline points="184.0,168.0,168.0,168.5,152.5,168.5,136.0,168.0,119.0,167.5,102.0,167.0,86.0,167.5,70.5,167.0,55.0,168.0,40.0,168.5,25.5,169.0,10.0,170.0" stroke="black" stroke-width="2" fill="none" />
<polyline points="6.5,174.0,18.5,172.5,27.5,183.0" stroke="black" stroke-width="2" fill="none" />
<polyline points="20.5,167.0,32.5,177.5,43.0,160.5,59.5,154.0,71.5,146.5,79.0,136.0" stroke="black" stroke-width="2" fill="none" />
<polyline points="86.0,143.0,90.5,146.0,96.0,151.0,95.5,149.5,109.0,149.0" stroke="black" stroke-width="2" fill="none" />
<polyline points="106.0,154.0,89.5,169.0" stroke="black" stroke-width="2" fill="none" />
<polyline points="104.0,164.0,120.0,150.5,136.0,135.5" stroke="black" stroke-width="2" fill="none" />
<polyline points="134.0,133.5,122.0,129.0" stroke="black" stroke-width="2" fill="none" />
<polyline points="122.5,122.0,134.5,122.0,146.5,120.5,159.0,118.5,163.5,126.0,182.5,138.5,193.0,150.5,192.0,162.5,187.5,170.0,191.5,182.0,193.5,179.0,201.0,197.0,211.5,192.5,223.5,200.0,232.5,200.0,244.5,201.5,256.5,199.5,266.0,206.5,278.5,211.0,279.0,221.0,291.0,227.0,303.0,224.0,314.5,237.5,322.0,243.5,328.0,239.0,334.0,228.5,346.0,227.0,361.0,224.0,369.0,218.0,380.5,216.5,398.5,220.0,410.5,220.0,420.5,221.5,432.5,225.0,444.5,232.5,443.0,246.5,427.5,257.0,430.0,269.5,435.5,254.5,449.0,244.0,442.0,256.0,433.0,268.0,435.0,283.0,432.0,295.0,440.0,308.5,426.5,317.5,421.0,329.0,431.5,335.0,448.5,327.0,454.5,327.0,442.5,339.0,445.5,337.5,448.0,338.0" stroke="black" stroke-width="2" fill="none" />
<polyline points="461.0,256.5,458.0,268.5,457.5,254.5,468.0,256.0,480.5,259.0,493.0,254.0" stroke="black" stroke-width="2" fill="none" />
<polyline points="461.5,251.0,454.0,263.0,464.5,277.5,467.5,285.0,456.5,297.0,449.5,312.0,454.0,312.5,459.0,324.0,462.0,336.0,479.0,339.0,482.0,336.0,492.5,337.5,499.5,324.0" stroke="black" stroke-width="2" fill="none" />
<polyline points="386.0,247.0,374.5,247.0" stroke="black" stroke-width="2" fill="none" />
<polyline points="369.5,250.0,382.0,253.0,394.0,253.0" stroke="black" stroke-width="2" fill="none" />
<polyline points="363.0,258.5,360.0,270.5" stroke="black" stroke-width="2" fill="none" />
<polyline points="363.0,278.5,347.0,295.0" stroke="black" stroke-width="2" fill="none" />
<polyline points="343.0,277.0,327.5,293.0" stroke="black" stroke-width="2" fill="none" />
<polyline points="324.0,289.0,325.5,286.0,338.0,284.5,350.0,283.0,362.0,281.5" stroke="black" stroke-width="2" fill="none" />
<polyline points="344.5,260.5,328.5,275.5,311.0,291.5" stroke="black" stroke-width="2" fill="none" />
<polyline points="299.0,292.5,315.5,277.5" stroke="black" stroke-width="2" fill="none" />
<polyline points="292.0,272.5,296.5,284.5,297.5,297.0,300.5,309.0,303.5,309.0,303.5,321.0,293.5,330.0,286.0,338.5,283.5,338.5,292.5,332.5" stroke="black" stroke-width="2" fill="none" />
<polyline points="308.0,315.0,308.0,324.5,319.5,324.5,338.5,317.0,334.0,320.0,330.5,332.5" stroke="black" stroke-width="2" fill="none" />
<polyline points="336.0,331.5,342.5,329.5,342.5,325.0" stroke="black" stroke-width="2" fill="none" />
<polyline points="348.0,322.0,357.0,323.0,345.0,335.0,357.0,327.5,353.0,339.0" stroke="black" stroke-width="2" fill="none" />
<polyline points="343.0,313.5,327.5,313.5,312.0,314.5" stroke="black" stroke-width="2" fill="none" />
<polyline points="312.0,309.0,324.0,304.0,326.5,311.5,319.0,323.5,310.5,336.0,322.5,334.5" stroke="black" stroke-width="2" fill="none" />
<polyline points="359.0,295.0,342.0,295.5,325.0,297.0,309.5,297.0,294.0,297.0,279.0,297.0,263.5,297.5,248.0,297.0" stroke="black" stroke-width="2" fill="none" />
<polyline points="248.0,295.5,264.0,279.0" stroke="black" stroke-width="2" fill="none" />
<polyline points="247.0,265.5,231.5,280.5" stroke="black" stroke-width="2" fill="none" />
<polyline points="217.5,278.5,234.0,263.5,250.0,248.0,266.5,232.5" stroke="black" stroke-width="2" fill="none" />
<polyline points="261.5,243.0,277.5,226.5" stroke="black" stroke-width="2" fill="none" />
<polyline points="276.0,218.5,259.5,220.0,242.0,220.5" stroke="black" stroke-width="2" fill="none" />
<polyline points="243.5,208.5,259.5,207.0,276.5,206.0" stroke="black" stroke-width="2" fill="none" />
<polyline points="272.5,217.0,266.5,214.0,255.0,217.5" stroke="black" stroke-width="2" fill="none" />
<polyline points="231.0,212.0,238.5,224.0,244.5,225.5,252.0,238.0,244.0,250.0,240.5,262.0,234.0,274.5,218.5,286.5,228.5,289.5,231.5,294.5,231.5,283.5,243.5,279.0,246.5,278.5,260.5,285.5,266.5,278.0" stroke="black" stroke-width="2" fill="none" />
<polyline points="281.0,295.0,261.0,301.0,258.0,313.0,252.0,295.5,251.0,285.5,256.5,281.5,253.5,268.0,258.0,263.5,264.0,252.0,249.0,258.0" stroke="black" stroke-width="2" fill="none" />
<polyline points="222.5,272.5,219.5,277.0,230.5,256.5,232.0,244.0,238.0,232.5,227.0,220.5,216.5,208.5,201.5,229.5,189.5,224.5" stroke="black" stroke-width="2" fill="none" />
<polyline points="182.0,229.0,198.5,213.5" stroke="black" stroke-width="2" fill="none" />
<polyline points="212.5,215.5,197.5,215.0,182.0,215.0,167.0,215.5,151.5,217.0,136.0,218.0,119.5,219.5" stroke="black" stroke-width="2" fill="none" />
<polyline points="117.5,230.5,133.5,215.5" stroke="black" stroke-width="2" fill="none" />
<polyline points="141.5,212.5,134.0,200.5" stroke="black" stroke-width="2" fill="none" />
<polyline points="140.5,202.0,128.5,198.0,128.0,212.0,122.0,212.0,123.5,210.5,126.5,199.0" stroke="black" stroke-width="2" fill="none" />
<polyline points="117.0,201.5,111.0,192.5,103.5,204.5,93.0,209.5,106.5,202.0,117.0,187.5,123.0,180.0" stroke="black" stroke-width="2" fill="none" />
<polyline points="125.0,182.0,137.5,175.5,149.5,189.5,149.5,193.5,146.5,207.0,151.0,216.5,154.0,228.5,158.0,240.5" stroke="black" stroke-width="2" fill="none" />
<polyline points="170.0,217.0,185.5,201.5" stroke="black" stroke-width="2" fill="none" />
<polyline points="180.5,186.5,178.5,182.5,166.5,188.5" stroke="black" stroke-width="2" fill="none" />
<polyline points="162.0,207.0,160.5,219.0,165.5,225.0,170.0,231.0" stroke="black" stroke-width="2" fill="none" />
<polyline points="171.0,218.0,170.5,218.0,158.5,213.5" stroke="black" stroke-width="2" fill="none" />
<polyline points="201.5,233.5,213.5,229.0,225.5,230.5,224.0,241.0,219.0,252.5,198.0,261.5,210.5,261.5,227.0,246.0,239.0,231.0,248.0,234.0,256.5,225.0,268.5,228.0,280.0,237.5,293.5,248.0" stroke="black" stroke-width="2" fill="none" />
<polyline points="299.0,258.0,296.0,255.0,303.5,243.0,301.5,231.0" stroke="black" stroke-width="2" fill="none" />
<polyline points="306.0,227.0,311.5,239.0,319.0,246.5,323.5,258.5" stroke="black" stroke-width="2" fill="none" />
<polyline points="338.5,218.0,332.5,222.5,313.0,227.0,301.0,219.5" stroke="black" stroke-width="2" fill="none" />
<polyline points="324.5,185.5,340.5,185.0,357.0,185.5,373.5,185.0" stroke="black" stroke-width="2" fill="none" />
<polyline points="362.5,188.0,375.0,189.5,387.0,197.0" stroke="black" stroke-width="2" fill="none" />
<polyline points="388.0,195.0,380.5,197.0,365.5,192.5,352.0,188.0" stroke="black" stroke-width="2" fill="none" />
<polyline points="354.5,197.5,367.0,200.5,379.0,209.5,391.5,210.5" stroke="black" stroke-width="2" fill="none" />
<polyline points="372.5,208.0,360.5,199.5" stroke="black" stroke-width="2" fill="none" />
<polyline points="363.0,197.0,379.5,209.0" stroke="black" stroke-width="2" fill="none" />
<polyline points="374.5,198.5,392.5,210.5" stroke="black" stroke-width="2" fill="none" />
<polyline points="405.0,197.0,394.5,185.0,386.5,172.5,377.5,151.0,386.5,143.5,366.5,139.0,363.5,123.0,368.0,111.0,366.5,107.0,375.5,95.0,365.5,87.5,371.5,87.5,354.0,77.0,342.0,76.0" stroke="black" stroke-width="2" fill="none" />
<polyline points="321.0,71.0,333.0,75.5,337.0,81.5,346.0,83.0,356.5,95.0,359.5,107.0,367.0,113.0" stroke="black" stroke-width="2" fill="none" />
<polyline points="345.5,123.5,329.5,124.5,314.0,126.0,298.5,126.0" stroke="black" stroke-width="2" fill="none" />
<polyline points="293.5,133.5,309.5,117.0" stroke="black" stroke-width="2" fill="none" />
<polyline points="298.5,109.5,314.0,109.0,330.0,109.0" stroke="black" stroke-width="2" fill="none" />
<polyline points="333.0,113.0,325.5,105.5,324.5,98.0" stroke="black" stroke-width="2" fill="none" />
<polyline points="325.0,103.5,337.0,111.0" stroke="black" stroke-width="2" fill="none" />
<polyline points="332.0,116.5,315.0,133.0,299.0,149.0,282.5,164.5" stroke="black" stroke-width="2" fill="none" />
<polyline points="279.5,151.0,264.0,167.0" stroke="black" stroke-width="2" fill="none" />
<polyline points="270.5,152.0,282.5,147.5,286.0,151.5,290.5,163.5,294.5,173.5,306.5,175.0,319.0,175.5" stroke="black" stroke-width="2" fill="none" />
<polyline points="323.5,162.5,336.0,162.5" stroke="black" stroke-width="2" fill="none" />
<polyline points="354.0,141.5,366.0,137.0,378.0,137.0,388.5,124.0,388.5,128.5,405.0,127.0" stroke="black" stroke-width="2" fill="none" />
<polyline points="340.5,90.0,329.0,78.0,317.0,78.0" stroke="black" stroke-width="2" fill="none" />
<polyline points="321.5,83.5,320.0,91.0,308.0,87.0" stroke="black" stroke-width="2" fill="none" />
<polyline points="305.5,84.0,307.0,67.5,304.0,60.5,293.5,73.0,304.0,59.5" stroke="black" stroke-width="2" fill="none" />
<polyline points="302.5,54.0,290.0,72.0,292.0,62.5,298.0,51.0" stroke="black" stroke-width="2" fill="none" />
<polyline points="310.0,50.0,313.0,62.0,305.5,74.5,331.0,82.5,334.0,93.0,341.5,105.0,342.5,117.0,338.0,129.0" stroke="black" stroke-width="2" fill="none" />
<polyline points="326.5,136.0,310.0,135.0,293.5,134.5,277.0,134.5,260.0,134.0,243.5,134.5" stroke="black" stroke-width="2" fill="none" />
<polyline points="241.0,138.5,229.0,144.5,225.5,153.5,213.5,160.5,195.5,166.5,186.0,168.5,183.0,174.5,171.0,173.0,164.5,165.5,152.5,159.5,141.0,164.0,157.5,155.0" stroke="black" stroke-width="2" fill="none" />
<polyline points="134.5,154.0,118.5,169.0" stroke="black" stroke-width="2" fill="none" />
<polyline points="108.5,177.0,101.0,189.0" stroke="black" stroke-width="2" fill="none" />
<polyline points="99.5,191.5,87.5,196.5,76.0,194.5,64.0,194.5,52.5,203.0,40.5,221.5" stroke="black" stroke-width="2" fill="none" />
<polyline points="40.0,218.0,55.5,217.5,70.0,217.0,85.5,217.0,102.0,216.5" stroke="black" stroke-width="2" fill="none" />
<polyline points="102.0,229.0,86.5,245.0" stroke="black" stroke-width="2" fill="none" />
<polyline points="83.5,262.5,71.0,268.5,65.0,268.5,51.5,261.5,39.0,265.5,31.5,259.5,19.5,263.5,14.0,268.0,2.0,260.5" stroke="black" stroke-width="2" fill="none" />
<polyline points="7.5,272.0,20.0,281.0" stroke="black" stroke-width="2" fill="none" />
<polyline points="6.5,273.0,18.0,285.0,34.5,289.5,47.0,297.0" stroke="black" stroke-width="2" fill="none" />
<polyline points="38.0,303.5,54.0,303.5,69.5,303.0,86.0,302.0" stroke="black" stroke-width="2" fill="none" />
<polyline points="76.5,318.5,88.5,312.5,84.0,324.0,91.5,336.5" stroke="black" stroke-width="2" fill="none" />
<polyline points="68.5,336.5,80.5,335.0,92.0,336.0,104.0,339.0,118.5,319.5" stroke="black" stroke-width="2" fill="none" />
<polyline points="109.5,330.0,97.5,331.5,85.5,328.5,73.0,328.5,53.0,320.0,47.0,321.5,26.0,325.5,18.0,313.5,17.0,308.5,14.0,289.0,2.0,290.5" stroke="black" stroke-width="2" fill="none" />
<polyline points="1.5,300.0,7.5,292.5,16.5,304.5,28.5,312.5,40.5,311.0,52.5,305.5,64.5,305.5" stroke="black" stroke-width="2" fill="none" />
<polyline points="71.0,318.0,54.5,317.5,37.0,318.0" stroke="black" stroke-width="2" fill="none" />
<polyline points="24.5,315.0,9.0,315.0" stroke="black" stroke-width="2" fill="none" />
<polyline points="14.0,319.5,26.0,324.0" stroke="black" stroke-width="2" fill="none" />
<polyline points="3.5,321.0,15.5,312.0,27.0,319.5,38.5,318.5,50.0,314.5" stroke="black" stroke-width="2" fill="none" />
<polyline points="66.0,296.0,54.5,286.5,42.0,285.0" stroke="black" stroke-width="2" fill="none" />
<polyline points="38.5,272.0,51.0,267.5" stroke="black" stroke-width="2" fill="none" />
<polyline points="37.5,262.5,22.0,262.5" stroke="black" stroke-width="2" fill="none" />
<polyline points="28.0,249.0,40.0,237.0" stroke="black" stroke-width="2" fill="none" />
<polyline points="47.5,219.0,59.5,207.0,71.5,202.5,89.5,203.5,101.5,196.0,113.5,179.5,125.5,167.5,137.5,161.5,144.5,149.5,156.5,142.0" stroke="black" stroke-width="2" fill="none" />
<polyline points="149.5,151.0,134.0,151.5,118.5,152.0,102.5,153.0,86.0,154.0,71.0,153.5,57.0,154.0,42.5,155.0,27.0,156.0,11.0,156.0" stroke="black" stroke-width="2" fill="none" />
<polyline points="19.5,149.0,39.0,138.5,51.0,123.5,64.5,127.5,82.5,122.5,94.5,106.0" stroke="black" stroke-width="2" fill="none" />
<polyline points="89.5,97.0,77.5,112.5,74.5,110.5,62.5,113.5,57.5,124.0,56.0,121.0,47.0,131.5,51.5,129.0,64.5,117.0,75.0,114.5,85.5,114.5,95.5,102.5,94.0,90.5,87.0,91.0,85.5,79.0,101.0,71.5,108.5,69.0,118.5,64.5,126.5,52.5,131.0,41.5,135.5,38.0,137.0,33.5,125.0,32.0" stroke="black" stroke-width="2" fill="none" />
<polyline points="131.0,26.0,143.0,29.5,147.5,25.5,152.0,24.0" stroke="black" stroke-width="2" fill="none" />
<polyline points="149.5,24.5,134.0,25.0" stroke="black" stroke-width="2" fill="none" />
<polyline points="133.0,7.0,117.5,8.5,101.5,10.5,86.5,10.5" stroke="black" stroke-width="2" fill="none" />
<polyline points="87.0,8.5,74.5,12.0,61.0,24.0,64.0,25.5,72.0,14.5,84.0,7.0,98.0,5.0,117.5,18.0,129.5,2.5,149.5,13.0,161.5,7.0,170.5,2.5" stroke="black" stroke-width="2" fill="none" />
<polyline points="171.0,15.5,163.5,28.0,165.0,40.0,168.0,24.0" stroke="black" stroke-width="2" fill="none" />
<polyline points="182.0,20.0,173.0,32.0,162.5,44.0,168.5,45.0,168.5,33.0,180.5,21.0,188.0,21.0,194.0,22.0,206.5,17.0,212.5,10.5" stroke="black" stroke-width="2" fill="none" />
<polyline points="214.0,10.5,198.5,11.5,183.0,12.5" stroke="black" stroke-width="2" fill="none" />
<polyline points="188.5,2.0,175.0,14.0,159.5,17.0,147.5,29.0,149.0,35.0,141.5,50.0,147.0,59.0,155.0,71.0,159.5,83.0,170.5,95.0,190.0,114.5,193.0,126.5,199.0,139.0,207.5,154.5,200.0,166.5,204.5,184.5,203.0,196.5,201.0,199.5,202.0,211.5,199.0,208.5,194.5,213.0,184.0,225.0,176.5,226.0,167.5,238.0,161.5,254.5,172.5,260.5,177.5,248.5,197.0,259.0,209.0,247.0,222.0,234.5" stroke="black" stroke-width="2" fill="none" />
<polyline points="212.5,240.0,205.0,251.5,197.5,264.0,193.0,285.5,217.0,301.0,206.5,313.5,217.0,325.5,224.5,337.5" stroke="black" stroke-width="2" fill="none" />
<polyline points="215.5,338.5,212.5,326.0" stroke="black" stroke-width="2" fill="none" />
<polyline points="203.0,316.5,204.5,328.0,202.0,340.0" stroke="black" stroke-width="2" fill="none" />
<polyline points="213.5,311.0,230.0,311.0" stroke="black" stroke-width="2" fill="none" />
<polyline points="228.0,300.0,222.5,312.0,224.0,323.5,227.5,327.5,234.0,339.5" stroke="black" stroke-width="2" fill="none" />
<polyline points="252.5,337.5,254.0,326.0,247.5,317.0" stroke="black" stroke-width="2" fill="none" />
<polyline points="231.0,295.0,215.0,295.5" stroke="black" stroke-width="2" fill="none" />
<polyline points="181.0,301.0,165.0,302.0" stroke="black" stroke-width="2" fill="none" />
<polyline points="167.5,306.5,159.5,318.0,162.5,324.0,172.0,322.5" stroke="black" stroke-width="2" fill="none" />
<polyline points="170.0,326.5,178.5,314.5" stroke="black" stroke-width="2" fill="none" />
<polyline points="170.0,310.0,167.0,322.0" stroke="black" stroke-width="2" fill="none" />
<polyline points="157.0,322.5,153.5,310.5,156.5,298.5" stroke="black" stroke-width="2" fill="none" />
<polyline points="152.0,295.5,144.0,307.5,147.0,309.0,147.0,309.5,159.0,310.5,171.0,304.5,183.0,303.5,197.0,302.5,207.5,308.5,219.0,301.5,229.5,303.0" stroke="black" stroke-width="2" fill="none" />
<polyline points="256.5,337.5,276.5,328.5,285.5,314.5,290.0,303.0,293.0,291.0,283.5,280.5,272.5,271.5,268.0,264.0,262.0,278.5,269.5,280.0,269.5,270.0,277.0,260.5,289.0,253.0,296.0,241.0,285.5,226.0,278.0,214.0,287.0,196.5,277.5,196.5,276.0,185.0,261.0,183.5,242.5,176.0,230.5,173.0" stroke="black" stroke-width="2" fill="none" />
<polyline points="215.0,166.0,227.0,169.0,243.5,164.0,256.0,153.0" stroke="black" stroke-width="2" fill="none" />
<polyline points="250.0,134.0,247.0,146.0,240.0,158.5,238.5,169.0,250.5,168.5,256.5,169.5,265.5,165.0,272.0,174.0,284.5,157.5,292.0,138.0" stroke="black" stroke-width="2" fill="none" />
<polyline points="281.5,127.0,266.5,128.5" stroke="black" stroke-width="2" fill="none" />
<polyline points="274.0,129.0,275.5,141.0,296.5,146.5,292.0,158.5,286.0,167.5,289.5,182.5,302.0,190.0,314.0,191.5,326.0,188.5,327.0,192.5,336.0,176.0" stroke="black" stroke-width="2" fill="none" />
<polyline points="359.5,195.0,362.5,207.0,360.5,219.0,366.5,221.0,368.0,234.5,387.5,235.0,386.0,239.5,396.5,236.5,401.0,246.0,413.0,244.5,425.0,244.5,437.0,243.0" stroke="black" stroke-width="2" fill="none" />
<polyline points="428.0,200.0,435.5,211.5,447.5,223.5,440.0,234.0,460.0,236.5,457.0,248.5,448.0,261.0,434.5,274.5,415.0,283.5,406.0,294.0,398.5,306.5,396.0,320.0,408.0,332.0,421.5,323.0,433.5,317.0,446.0,317.5,450.0,332.5,460.5,322.5,467.5,327.0,473.5,333.5,473.5,338.0,485.5,330.5,491.5,318.0,493.0,307.0,497.5,310.0,509.5,308.5,509.5,313.0" stroke="black" stroke-width="2" fill="none" />
<polyline points="359.5,337.5,377.0,329.0,360.5,323.0,386.0,324.5,374.5,318.5,362.5,323.0,350.5,310.0,343.0,316.0,332.5,331.0,324.5,325.0,332.0,313.0,347.0,307.5,334.0,291.0,317.5,278.5,331.0,269.5,346.5,263.0,352.5,260.0,356.0,248.0,360.0,235.0,358.5,222.5,337.0,218.0,345.5,211.5,334.5,197.5,346.0,185.5,352.0,183.0,352.0,171.0,352.5,159.0,366.0,151.5,363.0,139.5,369.0,123.0,375.0,111.0,382.0,99.0,377.5,87.5,379.0,75.5,385.5,64.0,382.5,49.5,377.0,34.5,365.0,33.0" stroke="black" stroke-width="2" fill="none" />
<polyline points="358.5,37.0,376.5,49.0" stroke="black" stroke-width="2" fill="none" />
<polyline points="372.5,42.5,389.0,42.5" stroke="black" stroke-width="2" fill="none" />
<polyline points="403.0,27.5,419.5,27.0" stroke="black" stroke-width="2" fill="none" />
<polyline points="430.0,31.0,420.0,43.0,408.0,54.5,400.5,66.5,408.0,54.5,420.0,42.5" stroke="black" stroke-width="2" fill="none" />
<polyline points="395.5,25.5,383.0,21.0" stroke="black" stroke-width="2" fill="none" />
<polyline points="381.0,20.5,393.0,20.5" stroke="black" stroke-width="2" fill="none" />
<polyline points="379.0,13.0,391.0,11.5,402.5,16.0,404.0,28.0,407.0,31.0" stroke="black" stroke-width="2" fill="none" />
<polyline points="405.5,41.5,393.5,45.0,381.5,50.5,369.0,44.5,357.0,41.5" stroke="black" stroke-width="2" fill="none" />
<polyline points="354.5,45.5,366.5,56.0" stroke="black" stroke-width="2" fill="none" />
<polyline points="367.5,58.0,360.0,46.5,357.0,34.5" stroke="black" stroke-width="2" fill="none" />
<polyline points="352.0,32.5,353.5,44.5,353.0,56.5,359.0,56.5,362.0,64.0,374.0,53.5" stroke="black" stroke-width="2" fill="none" />
<polyline points="351.5,26.0,342.0,38.0,334.5,49.5,321.0,68.5,332.5,71.5,341.5,83.5,353.5,100.0,369.0,108.0" stroke="black" stroke-width="2" fill="none" />
<polyline points="323.5,109.0,325.0,118.5,323.5,130.0" stroke="black" stroke-width="2" fill="none" />
<polyline points="318.5,141.0,307.0,156.5" stroke="black" stroke-width="2" fill="none" />
<polyline points="293.0,135.5,288.0,132.5,276.0,129.5" stroke="black" stroke-width="2" fill="none" />
<polyline points="259.0,122.5,272.5,134.5,271.5,146.0,273.0,150.5,276.0,167.0,285.0,174.5,295.5,186.5,316.5,198.5,321.0,206.0,319.5,218.0,326.5,222.5,328.5,228.5,332.0,230.0,336.5,234.5,336.5,245.0,338.0,257.0,351.5,273.5,352.5,266.0,355.5,260.0,368.0,259.0,380.0,258.5,392.5,257.0,404.5,256.0,416.5,256.0,428.5,252.5,443.5,241.0,455.5,241.0,469.0,247.0,473.0,241.0,484.5,241.0,496.5,241.0,510.0,241.5" stroke="black" stroke-width="2" fill="none" />
<polyline points="331.5,90.0,319.5,96.0,307.5,93.0" stroke="black" stroke-width="2" fill="none" />
<polyline points="309.0,94.5,321.0,106.5,327.0,109.5,332.5,125.5,332.5,137.5,341.5,150.5,346.0,167.0,349.0,167.0" stroke="black" stroke-width="2" fill="none" />
<polyline points="396.5,217.5,384.5,223.0,372.5,223.0,357.5,220.0,345.5,212.5,336.5,203.5,332.0,214.0,321.5,224.5,323.0,213.0,311.0,202.0,299.0,202.5,278.0,202.5,264.5,192.0,252.5,183.5,240.5,182.0,234.5,192.0,231.5,190.5,222.5,186.5,211.0,181.5" stroke="black" stroke-width="2" fill="none" />
<polyline points="213.5,185.0,225.5,194.0" stroke="black" stroke-width="2" fill="none" />
<polyline points="215.0,202.5,199.5,201.5,184.5,200.5,169.5,200.5,153.0,200.5,137.0,201.0,122.0,202.0,106.0,203.5" stroke="black" stroke-width="2" fill="none" />
<polyline points="114.5,195.0,111.0,207.0,109.5,219.0,120.0,234.0,121.5,246.0,114.0,257.0,109.5,269.5,95.0,280.0,84.5,292.0,76.0,304.0,68.5,317.5,70.0,338.5,86.0,340.5,101.0,328.5" stroke="black" stroke-width="2" fill="none" />
<polyline points="93.0,275.5,81.0,290.5,68.5,301.5,56.0,301.5,44.0,303.5,32.0,296.0" stroke="black" stroke-width="2" fill="none" />
<polyline points="27.5,298.5,11.5,299.5" stroke="black" stroke-width="2" fill="none" />
<polyline points="2.5,309.0,11.5,321.0" stroke="black" stroke-width="2" fill="none" />
<polyline points="1.5,242.0,13.5,241.0" stroke="black" stroke-width="2" fill="none" />
<polyline points="11.0,217.5,27.0,217.0" stroke="black" stroke-width="2" fill="none" />
<polyline points="18.0,207.5,7.5,219.5" stroke="black" stroke-width="2" fill="none" />
<polyline points="5.5,202.0,22.5,200.5,40.0,200.5,57.0,200.5,74.0,200.5,91.5,201.0" stroke="black" stroke-width="2" fill="none" />
<polyline points="89.5,214.5,73.5,230.5" stroke="black" stroke-width="2" fill="none" />
<polyline points="75.0,229.5,66.0,241.5,70.0,242.5,82.0,241.0" stroke="black" stroke-width="2" fill="none" />
<polyline points="77.5,228.0,86.5,240.0,69.5,252.0" stroke="black" stroke-width="2" fill="none" />
<polyline points="78.5,260.0,66.5,264.5,62.0,260.0,60.5,249.5,61.5,237.5,71.5,225.5" stroke="black" stroke-width="2" fill="none" />
<polyline points="67.5,220.5,59.5,232.5,66.0,255.5,80.0,257.0,92.5,259.5,94.5,268.5,109.5,270.5" stroke="black" stroke-width="2" fill="none" />
<polyline points="105.5,250.0,123.0,266.5,135.0,268.0,147.0,265.0,159.0,266.0,167.0,265.5,179.0,264.5,191.5,273.0,206.5,270.0" stroke="black" stroke-width="2" fill="none" />
<polyline points="226.0,223.5,214.0,216.0" stroke="black" stroke-width="2" fill="none" />
<polyline points="214.0,216.0,211.5,228.0,205.5,240.0,200.0,252.0,203.5,247.5" stroke="black" stroke-width="2" fill="none" />
<polyline points="187.0,249.0,175.0,253.5,163.5,256.0,151.5,253.0,139.5,247.0,153.0,235.0,133.5,232.5,121.5,234.0,115.0,250.5,101.5,247.5,100.0,243.0,88.0,252.0,76.0,257.0,82.0,252.5,81.5,235.5,80.0,226.5,68.0,228.0,62.5,229.5,50.5,229.5,47.5,222.0,51.5,210.5,66.5,203.0,56.0,201.5,43.0,205.5,32.5,213.0,22.0,220.5,10.5,232.5,7.5,235.5,18.0,225.0,25.5,213.0,31.5,201.5,46.5,191.0,54.0,179.0,54.0,173.0" stroke="black" stroke-width="2" fill="none" />
<polyline points="63.5,165.0,75.5,175.5,83.0,188.0,90.5,181.5,102.0,172.5" stroke="black" stroke-width="2" fill="none" />
<polyline points="72.0,154.0,89.0,138.0" stroke="black" stroke-width="2" fill="none" />
<polyline points="107.0,132.0,119.0,142.5" stroke="black" stroke-width="2" fill="none" />
<polyline points="129.5,146.0,124.5,139.5,122.5,123.0,118.0,114.0,115.0,100.0,103.0,113.5" stroke="black" stroke-width="2" fill="none" />
<polyline points="104.0,116.0,120.0,101.0" stroke="black" stroke-width="2" fill="none" />
<polyline points="115.5,105.0,127.5,90.0,145.5,94.5" stroke="black" stroke-width="2" fill="none" />
<polyline points="146.5,88.0,131.5,103.0" stroke="black" stroke-width="2" fill="none" />
<polyline points="134.0,105.5,118.5,106.0,102.5,107.0,87.0,106.5,71.5,107.0,55.5,107.0,39.5,107.5,24.0,109.0,8.0,109.5" stroke="black" stroke-width="2" fill="none" />
<polyline points="10.5,118.5,26.5,102.5" stroke="black" stroke-width="2" fill="none" />
<polyline points="34.5,93.0,36.0,104.5,31.5,117.0" stroke="black" stroke-width="2" fill="none" />
<polyline points="22.5,119.5,7.5,135.0" stroke="black" stroke-width="2" fill="none" />
<polyline points="7.5,123.0,23.5,122.5,40.0,121.5,57.0,121.0,72.5,121.0,88.5,120.5,105.5,120.0,122.0,120.5,138.5,121.0,154.0,120.0,169.0,120.0,185.0,119.5,200.0,119.0,215.0,118.5,230.5,119.0" stroke="black" stroke-width="2" fill="none" />
<polyline points="235.5,119.5,247.0,115.0,259.5,110.5,271.5,110.5" stroke="black" stroke-width="2" fill="none" />
<polyline points="280.0,105.0,271.5,97.5,271.5,85.5,280.5,73.0,280.5,61.0,288.0,48.5,282.0,65.0,270.0,78.5,258.0,89.0,246.0,92.0,255.5,82.0,251.0,79.0,261.0,75.5,275.0,64.0,282.5,52.0,296.0,49.0,288.0,49.0,276.0,58.0,277.5,49.0,271.5,56.0,280.5,36.5,278.0,42.0,266.0,44.0,260.0,41.0,266.0,35.0,263.0,23.0,255.5,12.5,244.0,3.5" stroke="black" stroke-width="2" fill="none" />
<polyline points="244.5,2.5,255.0,14.5,238.5,28.0,241.0,39.5,228.5,47.0,228.0,59.5,221.0,74.5,201.5,86.0,205.5,99.5,217.5,99.5,213.0,105.5,219.0,117.5,207.0,111.5,219.0,110.0" stroke="black" stroke-width="2" fill="none" />
<polyline points="227.0,127.5,215.0,139.5,212.0,151.5,218.0,152.5,214.0,163.5,209.5,178.5,217.0,190.5,233.5,202.5,250.0,217.5,251.5,226.5,278.5,238.5,286.0,250.5,290.0,264.0,287.0,272.5,284.0,284.0,285.5,296.0,263.0,300.0,255.5,312.0,260.0,317.5,261.0,325.0,262.5,332.0,274.5,328.0,286.5,337.5" stroke="black" stroke-width="2" fill="none" />
<polyline points="261.5,339.5,251.5,335.0,247.5,328.5,248.0,316.5,248.0,304.5,245.0,294.0,245.0,286.0,250.5,274.0,243.0,268.5,245.5,256.5,258.5,248.0,256.5,236.0,244.0,225.5,231.5,224.0,219.5,213.5" stroke="black" stroke-width="2" fill="none" />
<polyline points="219.0,218.0,229.5,230.0,228.0,239.0,225.0,251.0,208.5,261.5,218.0,272.5" stroke="black" stroke-width="2" fill="none" />
<polyline points="162.5,234.0,150.5,234.0,139.0,226.0,131.5,219.0,125.5,225.0,121.0,220.5,107.0,224.0,107.5,220.5,93.0,222.5,81.0,209.0,69.0,211.0,56.5,218.5" stroke="black" stroke-width="2" fill="none" />
<polyline points="57.5,211.0,54.5,223.5,52.5,236.0" stroke="black" stroke-width="2" fill="none" />
<polyline points="71.0,216.5,57.0,228.5,65.0,219.5,77.0,216.5" stroke="black" stroke-width="2" fill="none" />
<polyline points="93.5,185.5,81.5,181.0,72.5,181.0,60.5,182.5,48.5,178.5,37.5,162.0,25.5,165.0" stroke="black" stroke-width="2" fill="none" />
<polyline points="38.5,165.0,54.0,149.0,69.0,134.0,84.5,119.0" stroke="black" stroke-width="2" fill="none" />
<polyline points="84.0,108.5,76.5,129.5,78.0,141.5,66.5,146.0,55.0,157.5,40.0,165.0,40.0,175.5,49.0,182.0,55.0,191.0,69.5,197.0,57.5,203.0,45.5,210.5,39.5,222.5,38.0,234.5,34.5,245.0,28.0,249.5,22.5,270.5,22.5,281.5,30.5,293.5,44.5,308.0,47.5,315.5,32.0,321.0,35.0,333.0,47.5,328.5,52.0,316.5,64.0,309.0,76.0,303.0,88.5,289.5,102.0,280.0,109.5,265.0,121.5,264.5,127.5,250.0,139.5,241.0,157.0,249.0,169.0,248.5" stroke="black" stroke-width="2" fill="none" />
<polyline points="146.5,285.5,136.5,297.5,129.0,309.5,129.0,315.5,123.0,318.5,129.5,299.5,139.5,292.0,154.5,291.0,163.0,286.5,175.0,293.0,172.0,312.5" stroke="black" stroke-width="2" fill="none" />
<polyline points="147.0,294.0,134.0,305.5,141.5,299.5,153.5,295.5,166.0,297.0,170.5,281.0,178.5,286.0,180.0,278.5,192.0,279.0,202.5,276.5,203.5,289.0,215.5,289.0,227.5,282.5,239.5,268.5,257.5,266.5,261.5,252.5,273.5,265.5,285.5,267.0" stroke="black" stroke-width="2" fill="none" />
<polyline points="217.5,318.0,205.0,318.0,192.5,314.5,186.5,331.0,177.5,339.0,192.0,327.0,190.5,306.0,191.0,294.0,183.5,277.5,182.0,270.0,187.5,255.0,181.5,251.5,196.5,250.0,198.0,237.5,204.0,222.5,207.0,215.0,216.0,203.5,207.0,191.0" stroke="black" stroke-width="2" fill="none" />
<polyline points="240.0,156.5,254.5,153.5,262.0,142.0,252.5,130.0" stroke="black" stroke-width="2" fill="none" />
<polyline points="254.5,122.5,246.0,134.0,238.5,146.0,235.5,158.0,232.5,171.5,232.5,185.0,243.0,187.5,232.5,195.0,244.5,197.5,256.5,188.0,262.5,195.0,274.5,189.5,283.5,191.5,300.0,196.0,306.0,191.5,317.5,198.0,327.0,199.5,339.5,192.0,339.5,183.5,353.0,182.0,365.5,176.0,380.5,179.5,388.0,188.0,400.0,202.0,412.0,209.5,425.5,199.5,437.0,205.5,450.5,204.0,462.0,211.5,474.5,226.5,486.5,213.0,497.0,214.5" stroke="black" stroke-width="2" fill="none" />
<polyline points="297.0,125.0,285.0,125.0,275.5,126.5,270.5,128.5,253.5,119.5,241.0,119.5,233.5,112.5,221.5,121.5,209.5,132.0,198.0,123.0,184.5,126.0,182.5,125.5,180.0,113.5,168.0,113.5,156.5,112.5,144.5,112.5,132.0,112.0,120.0,112.0" stroke="black" stroke-width="2" fill="none" />
<polyline points="119.0,108.0,131.0,102.0,143.0,102.0,155.0,102.0,167.0,103.5,179.0,102.5,183.5,96.5,192.5,98.0,199.5,103.0" stroke="black" stroke-width="2" fill="none" />
<polyline points="181.0,88.0,165.0,89.0,148.5,89.5,133.0,90.0,117.5,90.5,101.5,91.0,86.0,90.5,70.5,91.0,54.0,91.0,38.5,91.0,22.5,91.0,6.5,91.5" stroke="black" stroke-width="2" fill="none" />
<polyline points="10.5,87.5,12.0,99.5,12.5,93.0,22.0,84.0,34.5,81.0,46.5,78.0,58.5,82.5" stroke="black" stroke-width="2" fill="none" />
<polyline points="56.0,71.0,40.0,71.5,23.5,72.5,7.5,73.0" stroke="black" stroke-width="2" fill="none" />
<polyline points="6.5,73.5,18.5,72.0,30.5,75.0" stroke="black" stroke-width="2" fill="none" />
<polyline points="40.0,85.0,41.5,97.0,41.0,109.0,33.5,125.5" stroke="black" stroke-width="2" fill="none" />
<polyline points="28.0,120.5,16.5,119.0" stroke="black" stroke-width="2" fill="none" />
<polyline points="20.5,149.5,4.5,165.5" stroke="black" stroke-width="2" fill="none" />
<polyline points="21.5,166.5,37.0,151.5" stroke="black" stroke-width="2" fill="none" />
<polyline points="53.5,130.0,69.0,113.5" stroke="black" stroke-width="2" fill="none" />
<polyline points="68.5,101.0,52.5,117.0" stroke="black" stroke-width="2" fill="none" />
<polyline points="46.0,114.0,55.0,102.0,68.5,96.0,56.5,100.0,44.5,115.0,25.0,131.5,12.5,148.0,5.0,176.5,6.0,165.0,10.5,153.5,16.5,141.5,27.0,133.0,21.0,121.0,31.5,106.5,30.5,94.5,32.0,82.5,36.5,61.5,39.5,48.0,49.0,36.5,55.5,24.5,52.5,18.5,51.0,6.5,45.5,6.5,33.5,6.0,21.5,5.5,9.0,5.5" stroke="black" stroke-width="2" fill="none" />
<polyline points="7.0,8.5,22.5,8.5,38.0,8.0" stroke="black" stroke-width="2" fill="none" />
<polyline points="42.5,13.5,30.5,10.0,19.0,11.5,7.0,13.0" stroke="black" stroke-width="2" fill="none" />
<polyline points="5.0,14.5,6.0,26.5,7.5,28.0,16.5,28.0,28.5,22.5" stroke="black" stroke-width="2" fill="none" />
<polyline points="31.0,23.0,34.0,35.0,27.0,47.0,29.0,51.5,23.0,50.5,27.5,50.5,32.0,40.0,47.5,37.0" stroke="black" stroke-width="2" fill="none" />
<polyline points="40.5,46.5,24.5,46.5" stroke="black" stroke-width="2" fill="none" />
<polyline points="25.5,44.5,13.5,49.0" stroke="black" stroke-width="2" fill="none" />
<polyline points="22.0,61.0,34.0,71.5,46.0,63.5,58.0,57.0,70.0,55.0,84.5,51.5" stroke="black" stroke-width="2" fill="none" />
<polyline points="85.5,50.0,78.0,62.0,78.0,74.0,79.5,86.0,87.0,101.0,66.0,113.0,62.5,131.0,43.0,143.5,32.5,155.5,33.5,154.0,45.5,142.0,58.0,136.0,70.0,123.5,79.5,125.0,93.5,116.0,105.5,104.0,118.0,90.5" stroke="black" stroke-width="2" fill="none" />
<polyline points="119.5,73.0,118.0,84.5,109.0,90.0,108.0,109.5,102.5,121.5,95.0,133.5,98.0,136.0,88.0,141.5,88.0,153.0,80.5,158.5,76.0,153.0,88.0,132.0,98.0,126.0,110.0,114.5,113.0,119.0,125.0,125.5,128.0,119.5,129.5,128.5,149.0,123.0,161.0,124.5,173.0,132.0,185.0,133.5,188.0,141.0" stroke="black" stroke-width="2" fill="none" />
<polyline points="197.0,113.5,177.0,120.5,165.0,120.5" stroke="black" stroke-width="2" fill="none" />
<polyline points="146.5,120.5,158.5,125.0,157.0,137.0,142.0,134.0,145.0,147.5,142.0,158.0,131.5,170.0,123.5,181.5,121.5,193.5,116.5,205.5,129.0,217.5,137.5,219.0,136.5,231.5,137.0,234.5,130.0,246.0,144.0,243.0,160.5,240.5,163.5,242.5" stroke="black" stroke-width="2" fill="none" />
<polyline points="106.5,161.0,94.5,167.0,85.5,164.0,73.5,165.5,63.0,164.5,65.0,159.0,69.0,150.0,66.0,158.5" stroke="black" stroke-width="2" fill="none" />
<polyline points="39.5,201.5,38.0,213.5,36.5,225.5,43.5,231.5,49.5,246.5,55.0,258.0,49.5,268.5,49.5,280.5,37.5,292.0,42.5,288.0,54.5,294.0" stroke="black" stroke-width="2" fill="none" />
<polyline points="82.5,237.0,81.0,223.5,69.5,222.0,69.5,247.5,56.0,250.5,44.0,245.0,27.5,244.5,33.5,235.5,30.5,223.0,32.0,212.5,35.0,200.5" stroke="black" stroke-width="2" fill="none" />
<polyline points="5.0,157.5,3.0,145.5,3.0,131.5,12.0,121.0,6.5,125.5,4.0,122.5,4.0,106.0,7.0,94.0,8.5,81.5,8.5,76.0,10.0,55.0,5.5,45.5,2.0,60.5" stroke="black" stroke-width="2" fill="none" />
<polyline points="27.0,61.0,42.5,60.5" stroke="black" stroke-width="2" fill="none" />
<polyline points="52.0,57.5,58.5,62.0,61.0,74.5,76.0,73.0,88.0,66.5,100.0,69.5,112.0,71.0,122.5,57.0,134.5,53.5,146.5,56.5,160.5,67.0,172.5,61.0,184.0,52.0,196.0,44.5,208.0,32.5" stroke="black" stroke-width="2" fill="none" />
<polyline points="216.5,26.5,232.0,26.0,246.5,26.5" stroke="black" stroke-width="2" fill="none" />
<polyline points="237.0,23.0,249.0,20.0,261.0,17.5,270.0,22.0,276.0,19.5,276.0,24.5,288.0,19.0,300.0,21.0,312.0,26.0" stroke="black" stroke-width="2" fill="none" />
<polyline points="312.5,20.0,300.5,15.5,288.5,15.5" stroke="black" stroke-width="2" fill="none" />
<polyline points="298.5,21.5,300.5,34.5,309.5,40.5,303.5,52.5,290.0,54.0,283.0,65.5,272.5,78.0,259.5,90.0,262.5,101.5,258.0,115.0,270.0,115.5,282.0,116.5,289.5,103.5,301.0,111.0,312.5,115.5,318.5,124.0,321.5,137.5,336.5,147.0,356.0,151.5,359.0,155.5,375.5,161.5,380.0,145.0,390.5,140.5,402.5,133.5,414.5,138.0,426.5,135.5,438.5,129.0,447.5,127.5" stroke="black" stroke-width="2" fill="none" />
<polyline points="505.5,143.0,504.0,153.5,487.5,152.0,475.5,153.5,472.0,159.5,460.0,162.0,448.0,174.0,436.0,186.0,424.0,178.5,412.0,170.5,401.5,169.0,389.0,168.0,377.0,172.5,371.0,168.0,357.5,171.5,336.5,170.0,324.5,167.0,312.5,167.0,309.5,154.0,317.0,142.5,317.0,136.5,308.5,125.0,310.0,114.5,304.5,102.5,306.0,91.0" stroke="black" stroke-width="2" fill="none" />
<polyline points="306.0,73.5,319.5,69.0,331.0,57.5" stroke="black" stroke-width="2" fill="none" />
<polyline points="312.5,41.5,314.0,53.5,313.5,65.0,307.5,80.0,297.5,92.0,302.0,104.0,302.0,99.5,309.0,106.0,321.0,109.0,319.0,101.5,328.0,119.5" stroke="black" stroke-width="2" fill="none" />
<polyline points="289.0,105.0,302.5,117.0,304.0,128.5,304.5,140.5,305.0,152.0,304.0,163.5,307.0,184.5,313.0,183.0,324.5,183.0" stroke="black" stroke-width="2" fill="none" />
<polyline points="287.0,114.5,285.5,102.5" stroke="black" stroke-width="2" fill="none" />
<polyline points="245.0,41.5,229.5,42.5,213.5,43.0,197.5,43.5" stroke="black" stroke-width="2" fill="none" />
<polyline points="180.0,37.5,181.5,49.5,164.5,64.5,164.5,57.0,166.5,52.5" stroke="black" stroke-width="2" fill="none" />
<polyline points="164.5,56.5,180.0,56.5" stroke="black" stroke-width="2" fill="none" />
<polyline points="180.0,65.0,170.5,77.0,165.0,89.0,171.0,95.0,178.5,75.5" stroke="black" stroke-width="2" fill="none" />
<polyline points="189.0,62.0,180.0,74.5,173.0,86.5,177.5,94.5,187.5,102.5,198.0,111.5,199.5,131.0" stroke="black" stroke-width="2" fill="none" />
<polyline points="255.0,103.0,243.5,103.5,232.0,103.5,230.0,109.5,223.0,96.0,218.5,91.5,224.5,76.5,244.0,69.0,241.0,55.5,247.0,42.0,234.0,35.5,232.5,48.5,226.0,36.5,218.5,54.5,217.0,59.0,213.0,58.0,217.0,46.5,218.0,37.5,222.0,25.5,231.0,18.0,237.0,11.0,222.0,12.5,223.5,8.0,228.0,5.0" stroke="black" stroke-width="2" fill="none" />
<polyline points="233.0,7.0,249.5,8.0,265.0,8.5" stroke="black" stroke-width="2" fill="none" />
<polyline points="270.5,12.5,282.5,12.5,294.0,5.5,290.5,8.5,279.5,30.0,271.5,36.0,283.5,28.5,284.5,24.0,296.5,24.0,303.0,28.5,319.5,23.0" stroke="black" stroke-width="2" fill="none" />
<polyline points="324.5,11.0,312.5,12.5,291.0,3.0,279.0,9.0,267.0,12.0,267.0,4.5,254.5,3.0" stroke="black" stroke-width="2" fill="none" />
<polyline points="269.5,27.0,287.5,36.0,277.0,39.0,288.5,33.0" stroke="black" stroke-width="2" fill="none" />
<polyline points="302.5,16.5,321.5,18.0,315.5,30.0,316.5,42.5,321.0,54.5,323.0,66.5,318.0,72.5,337.5,72.5,342.0,84.5,340.0,95.0,344.0,107.5,344.5,121.0,338.5,119.0,345.0,117.5" stroke="black" stroke-width="2" fill="none" />
<polyline points="312.0,127.5,290.5,121.5,282.0,120.0,270.5,118.5,263.5,131.0,256.0,135.5,254.5,125.0,242.5,123.5,233.5,128.0,221.5,131.0,221.5,140.0,212.5,138.5,200.0,138.0,211.5,130.5,225.0,118.5,241.0,100.5,239.5,94.5,229.0,82.5,224.5,63.0,223.0,51.0,224.5,38.5" stroke="black" stroke-width="2" fill="none" />
<polyline points="218.0,38.5,212.0,51.0,200.0,57.0,187.5,59.0,198.0,44.0,210.0,32.0,210.0,20.0" stroke="black" stroke-width="2" fill="none" />
<polyline points="180.5,35.0,178.0,47.0,164.0,58.5,161.0,72.0,159.0,73.5,171.0,70.5,180.0,74.0" stroke="black" stroke-width="2" fill="none" />
<polyline points="193.0,64.0,184.0,76.0,193.0,79.5,199.0,92.0,203.5,101.0,203.0,102.0,204.5,114.5,200.0,117.0" stroke="black" stroke-width="2" fill="none" />
<polyline points="149.5,70.5,133.0,71.0" stroke="black" stroke-width="2" fill="none" />
<polyline points="122.5,68.0,131.5,80.0,125.5,83.5,122.5,86.5,121.0,98.5,110.5,110.5,113.5,121.0,130.0,123.5,138.0,126.0,135.5,139.5,137.0,145.5,126.0,162.0,117.0,174.0,115.5,177.0,108.0,189.0,93.0,201.5,97.5,217.0,93.5,218.5,99.5,224.5,100.0,236.5,106.0,250.0,106.0,262.0,110.0,262.5,99.5,268.5,90.5,280.5,77.0,292.5,83.5,304.5,79.0,316.0,61.5,322.0,54.0,326.5,25.5,338.5,33.0,329.5,36.0,339.0,48.0,334.5,60.0,327.0,65.5,324.0,77.5,312.0" stroke="black" stroke-width="2" fill="none" />
<polyline points="118.5,164.0,106.5,172.5,95.0,175.5,98.5,163.5,109.0,163.0,121.0,152.5,118.5,141.0,108.5,130.5,111.5,119.0" stroke="black" stroke-width="2" fill="none" />
<polyline points="104.0,76.0,89.0,77.0" stroke="black" stroke-width="2" fill="none" />
<polyline points="81.0,75.0,93.0,72.0,97.5,82.5" stroke="black" stroke-width="2" fill="none" />
<polyline points="104.5,66.5,103.0,78.5,106.5,85.0,99.0,82.0,109.5,94.5,107.0,102.5,94.5,114.5,93.0,118.0,90.0,128.5,82.5,140.5,76.5,152.0,72.0,164.5,91.5,170.0,82.5,182.0,76.5,201.5,79.5,211.0,90.0,223.0,96.0,235.5,102.5,238.5,96.5,250.5,87.5,253.5,75.0,255.0,75.0,262.5,66.5,265.5,51.5,274.0,57.5,292.0" stroke="black" stroke-width="2" fill="none" />
<polyline points="76.5,97.5,64.5,109.5,53.0,116.0,59.0,108.0,67.0,96.5" stroke="black" stroke-width="2" fill="none" />
<polyline points="46.5,92.0,49.5,79.0" stroke="black" stroke-width="2" fill="none" />
<polyline points="70.0,44.5,68.5,56.5,76.0,64.0,66.5,76.0,66.5,87.0,76.5,99.0,63.0,111.0,48.5,122.5,41.0,134.5,33.5,139.5,30.5,145.5,26.0,157.5,29.0,169.5,26.0,173.5,32.5,186.0,29.5,190.5,17.5,199.5,4.0,204.0,5.5,216.0,10.0,220.5,11.5,211.5,23.5,193.5,32.0,199.5,44.0,193.0,57.5,188.0,69.5,185.0,74.0,189.0,86.0,189.0,96.5,179.5,106.5,179.5,118.5,158.0,130.5,155.5,141.0,139.5,153.5,138.5" stroke="black" stroke-width="2" fill="none" />
<polyline points="155.0,90.5,153.5,78.0,141.5,64.5,129.5,60.0" stroke="black" stroke-width="2" fill="none" />
<polyline points="119.0,67.5,131.0,76.5,143.5,88.0,154.5,76.5" stroke="black" stroke-width="2" fill="none" />
<polyline points="166.5,54.0,174.0,42.0" stroke="black" stroke-width="2" fill="none" />
<polyline points="171.0,38.5,161.5,50.5" stroke="black" stroke-width="2" fill="none" />
<polyline points="155.0,2.0,146.0,14.0,133.0,20.0,121.0,32.0,112.0,44.0,107.5,44.0,120.0,33.5,132.0,22.0,145.5,16.0,157.5,5.5,166.0,19.0,178.0,11.5,188.5,7.0,200.0,11.5,212.0,6.0,223.5,9.0,229.5,24.0,239.0,8.5,240.5,17.5,252.5,16.5" stroke="black" stroke-width="2" fill="none" />
<polyline points="303.0,1.5,315.0,1.5,323.5,4.5,329.0,16.5,324.5,28.5,319.5,40.5,324.5,53.0,329.0,44.0,332.5,25.0,344.5,11.5,358.0,7.5,370.0,8.5,381.5,9.0,394.0,6.0,409.0,7.5,419.5,13.5,431.0,23.0,442.5,27.0,450.0,27.0,457.5,25.0" stroke="black" stroke-width="2" fill="none" />
<polyline points="434.5,45.5,417.0,38.0,408.0,29.0,394.5,31.0,393.5,36.0,381.5,27.5,368.0,37.0,365.0,29.5,351.5,27.0,340.0,33.5,341.5,26.0,347.5,13.5" stroke="black" stroke-width="2" fill="none" />
<polyline points="346.5,1.5,339.5,13.5,332.5,25.5,341.5,28.5,336.0,33.5,327.5,36.5,331.5,49.0,337.5,44.5,349.5,33.5,361.0,26.0,373.0,24.5,382.0,15.5,394.0,16.0,406.0,18.0,418.0,27.0,422.5,22.5,434.0,33.0,446.0,36.0,454.5,31.5,466.0,29.5,478.0,21.5,490.0,5.0,502.5,5.5" stroke="black" stroke-width="2" fill="none" />
<polyline points="419.0,1.5,416.0,13.5,426.0,25.5,420.0,38.0" stroke="black" stroke-width="2" fill="none" />
<polyline points="332.5,8.0,320.5,2.0" stroke="black" stroke-width="2" fill="none" />
<polyline points="145.0,3.0,137.5,9.0,125.0,13.0" stroke="black" stroke-width="2" fill="none" />
<polyline points="111.5,14.0,107.0,2.0" stroke="black" stroke-width="2" fill="none" />
<polyline points="101.0,1.5,104.0,13.5,106.0,25.5,97.0,37.5,107.0,49.5,113.0,51.0" stroke="black" stroke-width="2" fill="none" />
<polyline points="76.0,45.5,73.0,57.5,71.5,79.0,69.5,72.0,71.0,60.0,75.5,46.5" stroke="black" stroke-width="2" fill="none" />
<polyline points="53.5,34.5,44.0,50.0,34.0,47.0,38.5,35.0,28.0,16.5,16.0,16.5" stroke="black" stroke-width="2" fill="none" />
<polyline points="16.0,17.0,22.0,29.0,22.0,32.0,24.5,43.5,14.0,43.5,17.0,55.5,32.0,67.5,21.0,84.0,20.5,96.5,13.0,101.0,22.0,110.0,28.0,110.0,47.5,118.0,59.5,109.0,64.0,100.0" stroke="black" stroke-width="2" fill="none" />
<polyline points="36.0,29.0,20.5,29.0" stroke="black" stroke-width="2" fill="none" />
<polyline points="64.0,5.0,61.0,17.0,56.5,29.5,49.0,41.5,40.0,63.0,46.0,70.0,49.0,82.0,55.0,76.5,53.0,85.5,50.0,98.5,54.0,93.5,72.0,88.0,90.5,92.5,99.5,87.0,109.5,95.0,111.0,74.0,123.0,86.0" stroke="black" stroke-width="2" fill="none" />
<polyline points="88.5,29.0,78.5,24.5,72.5,20.0,72.5,24.0,63.5,33.0,76.5,21.0" stroke="black" stroke-width="2" fill="none" />
</svg>