<svg xmlns="http://www.w3.org/2000/svg" version="1.1"><polyline points="18.0,2.5,8.0,6.5,8.0,22.5,12.0,34.5,9.5,50.0,5.5,66.0,20.0,77.5,22.0,93.5,28.0,113.0,32.0,140.5,48.0,148.5,56.0,165.0,64.0,163.0,52.0,179.0,35.5,187.0,59.5,193.0,63.0,209.0,63.0,224.5,67.0,230.5,81.5,238.0,85.5,248.0,81.5,264.5,83.5,280.5,77.5,296.5,83.5,313.0,93.5,329.0,85.5,347.0,69.5,353.0,81.0,373.0,79.0,389.5,48.5,385.0,41.0,401.0,31.0,399.0,47.0,383.0,51.5,397.0,57.5,403.0" stroke="black" stroke-width="2" fill="none" />
<polyline points="71.0,387.0,71.0,403.0,57.5,417.0,83.5,421.0,96.0,429.0,104.0,432.5,122.0,440.5,138.0,439.0,154.0,447.5,170.0,433.5,186.0,437.5,186.0,455.5,203.5,441.5,205.5,429.5,217.5,439.5,233.5,435.5,247.5,438.0,256.0,441.5,272.0,435.5" stroke="black" stroke-width="2" fill="none" />
<polyline points="276.5,414.0,293.0,419.5" stroke="black" stroke-width="2" fill="none" />
<polyline points="308.5,436.5,316.0,433.0,332.0,437.0,347.5,431.0,363.5,435.5" stroke="black" stroke-width="2" fill="none" />
<polyline points="396.0,436.0,398.0,446.0,410.0,450.0" stroke="black" stroke-width="2" fill="none" />
<polyline points="406.5,430.5,422.5,440.5,438.5,446.0" stroke="black" stroke-width="2" fill="none" />
<polyline points="454.5,428.5,442.5,444.5,460.5,458.0" stroke="black" stroke-width="2" fill="none" />
<polyline points="467.0,436.5,463.0,440.5,447.5,439.0,431.5,439.0,415.0,431.0,399.0,425.0" stroke="black" stroke-width="2" fill="none" />
<polyline points="408.0,419.0,424.0,435.0,428.5,451.5,434.5,451.5,452.0,454.0,456.0,460.5,472.0,459.0,486.0,460.5" stroke="black" stroke-width="2" fill="none" />
<polyline points="495.0,468.5,493.0,484.5,487.0,502.5,480.5,524.0,449.0,541.5,461.0,537.0,477.0,537.0,497.0,525.0,499.5,529.0,503.5,535.0,507.5,565.0" stroke="black" stroke-width="2" fill="none" />
<polyline points="498.5,553.5,510.5,550.0,494.5,543.5" stroke="black" stroke-width="2" fill="none" />
<polyline points="504.0,559.5,506.0,571.5,493.5,569.5,488.0,557.5,477.5,541.5,485.5,525.5,505.5,509.5,489.0,508.0,473.0,506.0" stroke="black" stroke-width="2" fill="none" />
<polyline points="496.0,494.5,488.0,486.5,476.0,482.5,476.5,466.0,485.0,472.0,501.0,452.0,505.0,434.0,509.0,432.0,485.0,442.0,475.0,432.5,463.0,426.5,475.0,410.5,486.5,395.0,484.0,396.5,468.0,398.5,452.0,390.0" stroke="black" stroke-width="2" fill="none" />
<polyline points="449.0,382.0,465.5,376.0,491.5,366.5,508.0,368.5,510.0,394.5" stroke="black" stroke-width="2" fill="none" />
<polyline points="510.0,387.5,485.5,382.0,479.5,376.5,463.5,388.5" stroke="black" stroke-width="2" fill="none" />
<polyline points="466.0,392.5,482.0,390.5" stroke="black" stroke-width="2" fill="none" />
<polyline points="497.0,414.5,501.0,430.0,496.5,446.0,498.0,459.5" stroke="black" stroke-width="2" fill="none" />
<polyline points="492.5,431.5,486.0,431.5,470.0,421.5,454.0,427.5" stroke="black" stroke-width="2" fill="none" />
<polyline points="456.5,430.5,468.5,446.5" stroke="black" stroke-width="2" fill="none" />
<polyline points="440.0,416.0,416.5,414.0,401.0,406.0,375.0,392.0,363.0,376.0,379.0,364.0,398.5,352.5,402.5,336.5,386.5,335.0,382.0,307.0,376.0,301.0,374.0,285.0,356.5,277.0,328.5,269.0,324.5,253.0,306.5,237.0,314.0,225.0,308.0,219.0,300.0,210.5,300.0,199.0,288.0,181.0,272.0,171.0,258.0,169.0,250.0,170.5" stroke="black" stroke-width="2" fill="none" />
<polyline points="242.0,168.5,258.5,165.0,274.0,179.0" stroke="black" stroke-width="2" fill="none" />
<polyline points="277.0,157.0,293.0,159.0,308.5,175.5" stroke="black" stroke-width="2" fill="none" />
<polyline points="322.5,192.5,338.5,190.5,355.0,193.0" stroke="black" stroke-width="2" fill="none" />
<polyline points="354.5,167.0,338.0,163.0,322.0,154.5" stroke="black" stroke-width="2" fill="none" />
<polyline points="329.0,153.0,344.5,159.0,360.5,157.0" stroke="black" stroke-width="2" fill="none" />
<polyline points="358.0,151.0,352.0,134.5" stroke="black" stroke-width="2" fill="none" />
<polyline points="323.0,114.5,339.0,118.5,347.0,116.5,369.0,132.0,366.5,168.0,374.5,162.0,378.0,180.0,394.0,178.0,394.0,174.0,417.5,184.0" stroke="black" stroke-width="2" fill="none" />
<polyline points="416.0,197.5,400.0,209.0" stroke="black" stroke-width="2" fill="none" />
<polyline points="416.5,225.0,422.5,233.0,422.5,239.0,438.5,243.5,442.5,229.5,458.5,233.5" stroke="black" stroke-width="2" fill="none" />
<polyline points="452.5,226.0,468.5,232.0" stroke="black" stroke-width="2" fill="none" />
<polyline points="497.0,236.0,493.5,219.5,481.5,203.5" stroke="black" stroke-width="2" fill="none" />
<polyline points="475.0,183.0,472.5,199.0,474.5,213.0,480.0,231.0,480.0,247.0,475.5,263.0,474.0,279.0,476.0,294.5,476.0,310.5,472.0,326.0,472.0,342.0,485.5,352.0,491.5,352.0,501.5,374.0,508.0,388.0,500.0,402.0,488.0,418.0,488.0,433.5,478.0,447.5,466.0,465.5,462.0,481.5,444.0,499.5,442.0,507.5,458.0,504.0,480.0,502.0,495.5,505.5,498.0,500.0" stroke="black" stroke-width="2" fill="none" />
<polyline points="462.0,557.0,478.0,557.0,490.0,561.0,506.5,571.0" stroke="black" stroke-width="2" fill="none" />
<polyline points="487.5,577.0,479.5,571.5,463.5,565.5" stroke="black" stroke-width="2" fill="none" />
<polyline points="466.0,541.0,438.5,543.0,422.5,529.0,406.5,525.0" stroke="black" stroke-width="2" fill="none" />
<polyline points="409.0,528.5,425.0,538.5" stroke="black" stroke-width="2" fill="none" />
<polyline points="408.5,551.5,392.5,543.5" stroke="black" stroke-width="2" fill="none" />
<polyline points="391.5,541.5,399.5,557.5,406.0,572.0,414.5,574.0,398.5,580.0,414.5,582.5,424.0,594.5,428.0,605.0,443.5,601.0,459.5,611.0,471.5,625.0,479.5,625.0,493.5,627.0,503.5,651.0" stroke="black" stroke-width="2" fill="none" />
<polyline points="499.0,655.0,495.0,639.0,487.0,645.0" stroke="black" stroke-width="2" fill="none" />
<polyline points="498.0,641.5,504.0,657.5,497.5,679.5" stroke="black" stroke-width="2" fill="none" />
<polyline points="452.5,636.5,436.0,624.5" stroke="black" stroke-width="2" fill="none" />
<polyline points="440.5,615.5,422.5,632.0,434.0,641.5,445.5,636.0,467.0,644.0,483.0,638.0,485.0,632.0" stroke="black" stroke-width="2" fill="none" />
<polyline points="447.0,645.0,431.0,635.0,423.0,627.0" stroke="black" stroke-width="2" fill="none" />
<polyline points="415.0,621.0,430.5,619.0,446.5,623.0,454.0,631.5,470.5,638.0,490.5,659.0" stroke="black" stroke-width="2" fill="none" />
<polyline points="446.0,678.0,430.0,666.0" stroke="black" stroke-width="2" fill="none" />
<polyline points="435.0,662.5,451.5,678.0,468.0,678.0" stroke="black" stroke-width="2" fill="none" />
<polyline points="429.5,664.5,427.5,648.5" stroke="black" stroke-width="2" fill="none" />
<polyline points="405.5,637.0,397.5,611.0,397.5,607.0,395.5,594.5" stroke="black" stroke-width="2" fill="none" />
<polyline points="389.0,561.5,393.0,577.5,397.0,605.5,391.0,630.0" stroke="black" stroke-width="2" fill="none" />
<polyline points="382.0,671.0,366.0,667.5" stroke="black" stroke-width="2" fill="none" />
<polyline points="398.0,667.5,390.0,661.5,396.0,653.5,378.0,629.5,366.0,621.5,377.5,611.5,375.5,601.0,389.5,597.0,381.5,585.0,381.5,579.0,379.5,569.0,377.5,559.0,361.5,555.0" stroke="black" stroke-width="2" fill="none" />
<polyline points="362.0,572.5,346.0,572.5" stroke="black" stroke-width="2" fill="none" />
<polyline points="353.5,579.5,365.5,602.0,355.5,618.5,367.5,642.5,385.5,656.5" stroke="black" stroke-width="2" fill="none" />
<polyline points="354.5,643.0,346.5,635.0,332.0,618.5,317.5,619.0,301.5,622.5,285.5,624.0,275.5,627.5,255.5,633.5,239.5,631.0,223.5,629.0,217.5,625.5,217.0,609.5,219.5,593.5,223.5,578.0,219.5,562.5,198.0,545.0,205.5,535.0,187.5,517.0,165.5,509.0" stroke="black" stroke-width="2" fill="none" />
<polyline points="164.0,516.5,170.0,524.5,190.5,526.5,194.5,544.5,210.5,562.5,222.5,582.0,238.5,580.0,254.0,578.0,270.0,582.0,276.0,590.0,277.5,594.5,295.5,600.0,314.0,596.0,332.0,592.0,358.0,592.5,370.0,600.5,372.0,590.0,388.5,582.5,398.5,590.5,414.5,586.5,430.5,582.5,448.5,584.5,457.0,583.0,472.5,589.0,468.5,604.5,466.0,621.0,460.0,626.5,476.0,614.0,484.0,613.5,491.5,619.5,507.5,614.0" stroke="black" stroke-width="2" fill="none" />
<polyline points="509.5,594.5,494.0,588.0,478.0,580.0,462.0,570.0,446.0,562.0,429.5,549.5,413.5,541.5,397.0,531.5,368.5,507.0,352.5,516.5,350.5,529.0,364.5,513.0,355.0,495.0,339.0,497.0" stroke="black" stroke-width="2" fill="none" />
<polyline points="337.0,481.5,353.0,484.0,369.0,482.0" stroke="black" stroke-width="2" fill="none" />
<polyline points="371.5,476.0,355.5,478.0" stroke="black" stroke-width="2" fill="none" />
<polyline points="400.0,477.0,402.0,460.5,391.5,445.0,397.5,438.5,393.5,422.0,407.5,404.0,411.5,388.0,396.0,376.0,390.5,372.0,402.5,356.5,410.5,352.5" stroke="black" stroke-width="2" fill="none" />
<polyline points="413.5,366.0,429.5,363.5,445.5,359.5,457.5,364.0" stroke="black" stroke-width="2" fill="none" />
<polyline points="489.0,339.5,497.0,323.5,495.0,311.5,495.0,321.5" stroke="black" stroke-width="2" fill="none" />
<polyline points="503.5,350.5,505.5,341.0,492.0,335.0,476.0,335.5,448.5,323.5,432.5,329.5,416.5,331.0,402.0,335.0,396.0,318.5,394.0,305.0,372.5,309.0,372.5,305.0,354.5,299.0,346.5,293.0,330.5,285.0,314.5,279.5,314.0,271.0,298.5,267.0,290.0,242.5,276.5,220.5,260.5,214.5,245.0,216.5,229.5,222.0,227.5,208.0,211.5,206.5,195.5,205.0,187.5,217.0,187.5,231.5,171.0,219.5,163.0,205.5,165.0,195.0,151.0,203.0,142.5,205.0,126.5,199.0,118.0,183.0,107.5,187.0,109.0,171.0,119.0,155.0,109.0,149.5" stroke="black" stroke-width="2" fill="none" />
<polyline points="119.5,157.0,135.5,163.0,151.0,159.0" stroke="black" stroke-width="2" fill="none" />
<polyline points="152.0,128.5,168.5,146.0,184.0,148.0,194.0,143.5,210.0,149.5" stroke="black" stroke-width="2" fill="none" />
<polyline points="198.0,150.5,214.0,144.5,230.0,149.0" stroke="black" stroke-width="2" fill="none" />
<polyline points="218.5,140.0,203.0,133.5,187.0,137.5,163.5,149.5,147.0,129.5,131.0,137.5,115.0,135.5" stroke="black" stroke-width="2" fill="none" />
<polyline points="120.5,142.0,136.5,148.0" stroke="black" stroke-width="2" fill="none" />
<polyline points="147.0,124.5,161.5,130.5,169.0,146.5" stroke="black" stroke-width="2" fill="none" />
<polyline points="179.0,121.0,195.0,113.0,211.0,103.0,227.0,111.0" stroke="black" stroke-width="2" fill="none" />
<polyline points="233.0,131.5,227.5,147.5,220.0,160.0,234.0,170.0,236.0,184.5,238.0,198.5,236.5,214.5,248.5,222.5,248.5,226.5,246.5,240.5,272.5,246.5,268.5,262.5,262.5,258.5,254.5,286.5,244.5,296.5,268.5,306.5,266.5,323.0,274.5,325.0,258.5,335.0,263.0,353.5,273.0,357.5,288.5,371.5,286.5,391.0,266.5,402.5,276.5,418.0,298.5,436.0,282.5,452.0,273.0,447.5,275.0,447.5,283.0,437.5,299.0,443.5,309.0,449.5,325.0,447.5,341.5,441.5,358.0,437.5,366.0,453.5,373.5,466.0,389.5,452.0,399.0,454.0,401.5,448.0,417.5,446.0,433.5,446.0,441.5,458.0,441.5,476.0" stroke="black" stroke-width="2" fill="none" />
<polyline points="426.0,486.0,433.5,502.0,429.5,520.0,445.5,530.0,462.0,524.0,464.0,532.0,480.0,528.0,492.0,513.5,500.0,515.5" stroke="black" stroke-width="2" fill="none" />
<polyline points="441.0,512.0,425.5,514.0,409.5,498.0" stroke="black" stroke-width="2" fill="none" />
<polyline points="410.5,497.5,406.5,505.5,424.5,521.5" stroke="black" stroke-width="2" fill="none" />
<polyline points="411.5,522.0,425.0,538.0,436.5,540.5,432.5,557.0,462.5,573.0,492.0,588.5" stroke="black" stroke-width="2" fill="none" />
<polyline points="506.0,581.0,502.0,577.0,486.0,566.5,484.5,532.5,468.5,528.5,452.5,516.5,446.5,522.0,436.5,528.0,420.5,518.0,407.0,506.0,386.5,497.5,362.0,499.5,344.0,513.5,342.0,505.5,336.5,495.0,334.5,489.5,314.0,502.0,298.0,498.0,282.0,496.0,274.0,488.0,258.0,490.5,255.5,481.0,239.5,473.0,239.5,449.5,235.5,429.5,231.5,417.0,223.5,410.5,219.5,402.0,204.0,406.0,188.5,406.0,178.5,397.5,174.5,413.0,146.5,407.0,150.5,395.0,138.5,393.0,140.5,391.5,146.5,383.5,132.5,371.5,128.5,353.0,124.5,335.0,133.5,317.5,115.0,309.5,99.0,303.5,104.5,287.5,94.5,272.0,113.0,261.5,117.0,241.0,131.5,231.0,139.5,219.0,138.0,203.0,122.0,183.0,139.5,175.0,131.0,173.0,141.5,157.0,157.5,151.5,153.5,135.5,129.5,114.0,135.5,100.0,141.5,84.0,164.0,68.0,158.5,52.5,159.0,32.5,141.5,30.0,157.5,28.0,133.5,24.0" stroke="black" stroke-width="2" fill="none" />
<polyline points="128.5,35.0,130.0,23.0,106.0,35.0,62.0,45.0,42.0,62.5,50.0,50.5,66.0,42.5,82.0,36.0,98.0,30.0,102.0,33.5,92.0,47.5,68.0,57.5,61.5,60.0,47.5,88.5,47.5,70.5,49.5,56.5,65.5,50.5" stroke="black" stroke-width="2" fill="none" />
<polyline points="84.5,41.0,74.5,53.5,58.5,71.5" stroke="black" stroke-width="2" fill="none" />
<polyline points="93.5,74.0,111.5,58.5,105.0,74.5,83.0,71.0,92.5,91.0" stroke="black" stroke-width="2" fill="none" />
<polyline points="97.0,75.0,111.0,57.5,126.5,61.5,142.5,66.0,148.5,71.5,162.0,79.5,166.5,74.0,188.5,72.0,204.5,72.5" stroke="black" stroke-width="2" fill="none" />
<polyline points="206.5,67.5,220.5,84.0,238.0,94.0,256.0,102.5,256.0,118.5,278.0,126.5,286.0,140.5,302.5,140.5,310.5,158.5,327.0,169.0,343.0,173.0,363.0,189.0,378.5,192.5,380.0,198.5,396.0,190.0,412.0,184.0,438.0,188.0,453.5,184.0,455.5,198.0,481.5,192.0,497.5,192.0,499.5,200.0" stroke="black" stroke-width="2" fill="none" />
<polyline points="437.5,219.0,432.0,219.0,432.5,235.0,402.5,233.0,396.5,248.5,414.5,266.5,430.5,272.5,452.5,274.0,454.5,270.0,442.5,276.0,438.5,292.0,428.5,308.0" stroke="black" stroke-width="2" fill="none" />
<polyline points="406.5,306.5,392.0,290.5,370.0,278.5,353.5,272.5,337.5,270.5" stroke="black" stroke-width="2" fill="none" />
<polyline points="345.5,262.5,361.5,268.5,377.5,264.5" stroke="black" stroke-width="2" fill="none" />
<polyline points="399.0,262.5,383.5,256.5,367.5,256.5,351.5,254.0,336.0,257.5,334.0,261.5,317.5,260.0,301.5,252.0" stroke="black" stroke-width="2" fill="none" />
<polyline points="291.5,265.0,275.5,267.0,260.0,253.0,244.0,265.0,222.0,253.0,206.0,263.0,190.0,268.5,188.0,262.5,172.0,264.5" stroke="black" stroke-width="2" fill="none" />
<polyline points="162.5,266.5,178.5,272.5,164.0,294.5,164.0,310.5,166.5,297.0,166.5,293.5,176.5,284.0,193.0,292.5,209.0,297.0,225.0,293.5,236.5,307.5,238.5,301.0,254.5,297.0,250.0,314.5,265.5,314.5,279.5,324.5,283.5,314.0,299.0,315.5,301.0,327.0,303.0,331.0" stroke="black" stroke-width="2" fill="none" />
<polyline points="309.0,313.0,309.0,322.5,325.0,323.0,341.5,327.0" stroke="black" stroke-width="2" fill="none" />
<polyline points="341.0,319.5,333.5,310.0,317.5,306.0" stroke="black" stroke-width="2" fill="none" />
<polyline points="296.5,304.0,304.0,300.0,302.0,306.0,314.0,318.0,316.0,328.5,313.5,344.5,319.5,354.0,335.5,354.0,351.5,353.5,360.0,367.5,356.0,355.0,358.0,367.5,374.0,380.0,386.0,390.0,402.0,392.0" stroke="black" stroke-width="2" fill="none" />
<polyline points="387.5,398.0,372.0,388.0,360.0,380.0,344.0,378.0,334.5,386.0,328.5,394.0,312.5,386.5,296.5,386.5,280.5,386.5,278.5,382.0,262.5,384.0,246.0,372.0,236.0,370.5,220.0,372.5,214.0,388.5,182.0,372.5,167.5,381.0,151.5,387.5" stroke="black" stroke-width="2" fill="none" />
<polyline points="153.5,389.5,171.5,406.0,161.5,406.0,164.0,422.0,174.0,424.5,160.5,448.0,173.0,464.0,197.0,481.5,209.5,483.5,217.5,493.5,235.5,497.5,245.5,503.5,257.5,501.5,265.5,497.5,281.0,496.0,296.5,494.0,314.5,488.0" stroke="black" stroke-width="2" fill="none" />
<polyline points="327.5,517.0,320.0,527.5,318.0,523.5,302.0,528.0,317.5,524.0,325.5,514.0,309.5,516.5,293.5,513.0" stroke="black" stroke-width="2" fill="none" />
<polyline points="292.0,524.0,308.0,522.0" stroke="black" stroke-width="2" fill="none" />
<polyline points="293.0,531.5,288.5,523.5,278.5,520.0" stroke="black" stroke-width="2" fill="none" />
<polyline points="276.0,524.0,292.0,528.0,308.0,536.0" stroke="black" stroke-width="2" fill="none" />
<polyline points="334.5,545.0,352.5,531.0" stroke="black" stroke-width="2" fill="none" />
<polyline points="361.0,550.5,385.0,534.5,385.0,518.5" stroke="black" stroke-width="2" fill="none" />
<polyline points="390.0,517.0,398.0,532.5,424.0,554.5,427.5,562.5,435.5,574.5,417.0,590.0,403.0,598.0,415.0,605.5,418.5,623.0,410.0,639.0,407.5,655.0,407.5,671.0,409.5,673.5" stroke="black" stroke-width="2" fill="none" />
<polyline points="488.0,663.5,486.0,655.5,475.5,641.5,485.5,621.5,479.5,610.0,469.5,594.0" stroke="black" stroke-width="2" fill="none" />
<polyline points="447.5,594.5,451.5,610.5,451.5,626.5,439.5,630.0,453.0,632.0,469.0,648.0,479.5,659.5,475.5,671.5,494.0,665.5" stroke="black" stroke-width="2" fill="none" />
<polyline points="510.5,478.0,506.5,478.0,502.5,464.0,499.0,470.5,491.0,480.5,475.0,484.5,468.5,480.5,464.5,478.0,454.5,481.5,446.5,497.5,438.5,499.5,428.0,485.5,420.0,477.5,416.0,473.0,415.5,437.0,387.5,427.0,388.0,411.0,400.0,395.0,411.5,379.0,415.5,363.5,421.5,347.5,419.5,335.5,413.5,333.5,397.5,329.0,405.5,313.0,399.5,291.0,389.5,275.0,379.5,261.0,349.5,265.0,337.5,255.5,335.5,243.5,350.0,235.5,378.0,224.0,378.0,208.0,372.0,202.0,370.0,178.0,354.0,166.0,326.0,152.0,310.0,138.0,308.0,123.5,300.0,123.5,288.0,114.0,282.0,114.0,268.0,106.0,268.0,96.0,264.0,74.0,245.5,58.0,253.5,42.0,260.0,24.0,250.0,18.0,270.0,2.0,268.5,4.0,252.5,4.0,236.5,14.5,220.5,22.5" stroke="black" stroke-width="2" fill="none" />
<polyline points="215.5,31.0,211.5,54.5,228.0,59.0" stroke="black" stroke-width="2" fill="none" />
<polyline points="226.5,51.5,242.5,53.0,258.5,63.0,272.0,66.5,277.5,80.5,283.5,90.5" stroke="black" stroke-width="2" fill="none" />
<polyline points="292.5,82.0,277.0,72.0" stroke="black" stroke-width="2" fill="none" />
<polyline points="292.0,59.5,308.0,59.5,324.0,57.5,340.0,63.5" stroke="black" stroke-width="2" fill="none" />
<polyline points="326.0,61.0,338.5,77.0,328.5,93.0,342.5,98.5,358.5,105.0,374.5,104.5,376.5,116.5,386.5,134.5,402.5,124.0,410.0,130.0,416.0,140.5,426.0,158.0,436.5,174.0,444.5,158.0,452.0,161.5,467.5,165.5,473.5,151.5,477.5,164.0,493.5,176.0" stroke="black" stroke-width="2" fill="none" />
<polyline points="502.0,130.0,479.5,140.0,461.5,134.0,452.0,132.0,454.0,119.5,454.0,104.0,454.5,94.0,434.5,68.0,426.5,52.5,428.5,46.5,436.5,36.5,448.5,20.5,462.5,14.5,470.5,6.0,445.0,4.0" stroke="black" stroke-width="2" fill="none" />
<polyline points="429.5,21.5,423.0,38.0,399.5,41.5,411.5,45.5,407.0,61.5,388.5,83.5,384.5,85.5,382.0,103.5,366.0,113.5,382.0,129.5,382.0,145.5,396.0,137.5,398.0,154.0,410.0,158.5,416.5,164.5,438.5,178.5,434.5,194.0,422.0,204.0,407.5,214.0,417.5,215.5,407.5,229.5,405.5,245.5,412.0,256.0,400.5,270.0,404.5,282.0" stroke="black" stroke-width="2" fill="none" />
<polyline points="403.5,277.5,387.5,273.0,367.5,281.0,368.0,293.0,352.5,285.0,336.5,277.0,333.0,271.0,317.0,263.0" stroke="black" stroke-width="2" fill="none" />
<polyline points="305.5,275.0,334.0,299.5" stroke="black" stroke-width="2" fill="none" />
<polyline points="380.0,291.5,396.0,299.5" stroke="black" stroke-width="2" fill="none" />
<polyline points="412.5,309.5,416.5,294.0,400.5,278.0" stroke="black" stroke-width="2" fill="none" />
<polyline points="409.5,242.0,425.5,250.0" stroke="black" stroke-width="2" fill="none" />
<polyline points="445.5,257.5,438.0,273.5,430.0,289.5,422.0,305.5,420.0,333.5,436.5,339.5,452.5,338.0" stroke="black" stroke-width="2" fill="none" />
<polyline points="440.5,359.5,426.5,381.5,398.5,383.5,396.5,371.0,388.5,376.5,374.5,348.5,364.5,352.0,350.5,362.0,334.5,364.0,318.5,364.0,302.5,365.5,286.5,367.5,270.0,370.0,254.5,366.0,250.5,350.0,232.5,336.0,230.5,328.0,214.5,328.0,216.5,332.0,208.5,337.5,192.5,335.5,180.5,343.0,164.5,341.5,156.0,323.5,146.5,307.5,140.5,307.5,139.0,291.5,139.0,280.0,131.5,272.0,139.5,244.0,143.0,228.0,151.0,232.5" stroke="black" stroke-width="2" fill="none" />
<polyline points="117.0,245.5,100.5,241.5" stroke="black" stroke-width="2" fill="none" />
<polyline points="97.5,254.0,113.5,254.0,133.5,270.0,159.5,286.0" stroke="black" stroke-width="2" fill="none" />
<polyline points="178.0,278.0,194.5,286.0,210.5,269.5,220.5,281.5,232.5,275.5" stroke="black" stroke-width="2" fill="none" />
<polyline points="255.0,320.5,239.0,319.0,223.0,321.0,214.5,323.0,198.5,322.5" stroke="black" stroke-width="2" fill="none" />
<polyline points="200.0,321.0,224.0,329.0,194.0,349.0,210.0,353.0,226.0,352.5,241.5,343.0,257.5,342.5,261.0,334.5,270.5,336.5,291.0,328.0,291.0,334.0" stroke="black" stroke-width="2" fill="none" />
<polyline points="300.0,354.0,284.0,356.0" stroke="black" stroke-width="2" fill="none" />
<polyline points="270.5,375.5,286.5,371.5,304.0,376.0,320.0,376.0,335.5,372.0,351.0,386.0,367.0,394.0" stroke="black" stroke-width="2" fill="none" />
<polyline points="368.5,404.0,352.5,390.0" stroke="black" stroke-width="2" fill="none" />
<polyline points="346.0,386.0,346.0,402.0,364.0,408.0,374.0,414.0,370.0,430.0,364.0,448.0,362.0,460.0,374.5,463.5,376.5,479.5,374.5,495.5,360.5,511.5,346.5,528.0,334.0,535.5,327.5,552.0,343.0,572.0,327.0,578.0,329.0,594.0,339.5,600.5,344.0,606.0,352.0,598.0,356.5,610.0,362.5,630.0,386.5,635.5,396.5,623.5,402.5,633.5" stroke="black" stroke-width="2" fill="none" />
<polyline points="312.0,584.5,296.0,584.5,280.0,576.5,264.0,577.0" stroke="black" stroke-width="2" fill="none" />
<polyline points="269.0,597.0,253.5,601.0" stroke="black" stroke-width="2" fill="none" />
<polyline points="225.0,606.5,227.0,604.5,228.5,620.0" stroke="black" stroke-width="2" fill="none" />
<polyline points="223.5,583.5,240.0,587.5,248.5,599.5,262.5,583.5,268.5,602.0" stroke="black" stroke-width="2" fill="none" />
<polyline points="265.0,562.5,248.5,566.0,232.5,556.0" stroke="black" stroke-width="2" fill="none" />
<polyline points="230.5,550.5,246.5,559.0" stroke="black" stroke-width="2" fill="none" />
<polyline points="268.0,557.5,266.0,541.5" stroke="black" stroke-width="2" fill="none" />
<polyline points="275.0,541.0,277.5,556.5,265.5,572.0,281.5,566.0,301.5,567.5,301.0,574.0,315.0,582.0,325.0,571.5" stroke="black" stroke-width="2" fill="none" />
<polyline points="326.0,564.5,320.5,569.0,322.5,585.0,312.5,597.5" stroke="black" stroke-width="2" fill="none" />
<polyline points="311.5,569.5,307.5,585.5,303.5,596.0,294.0,612.0,270.0,624.0" stroke="black" stroke-width="2" fill="none" />
<polyline points="273.0,666.5,267.0,661.0,254.5,661.0,238.0,661.0,236.0,665.5" stroke="black" stroke-width="2" fill="none" />
<polyline points="241.5,675.5,215.5,657.5,211.5,663.5" stroke="black" stroke-width="2" fill="none" />
<polyline points="215.5,631.5,201.5,607.5,187.5,592.0,179.5,576.0,189.0,567.5,177.0,553.5,169.0,538.0,165.5,522.0,165.5,506.5,157.5,505.0,147.5,499.0" stroke="black" stroke-width="2" fill="none" />
<polyline points="158.0,489.5,174.0,494.0,176.5,516.0,174.5,532.5,178.5,548.5,184.5,562.5,208.5,564.5,234.5,539.0,246.5,542.5,258.5,536.5,281.0,542.5,287.0,552.5" stroke="black" stroke-width="2" fill="none" />
<polyline points="284.5,478.0,268.5,474.0" stroke="black" stroke-width="2" fill="none" />
<polyline points="276.0,456.0,259.5,448.0,243.5,444.5" stroke="black" stroke-width="2" fill="none" />
<polyline points="214.0,464.5,230.0,474.5,242.0,480.5" stroke="black" stroke-width="2" fill="none" />
<polyline points="237.5,509.5,221.5,515.5" stroke="black" stroke-width="2" fill="none" />
<polyline points="236.5,487.5,220.5,481.5,204.5,464.0" stroke="black" stroke-width="2" fill="none" />
<polyline points="202.0,459.5,198.0,451.5,207.5,468.0,191.5,472.5,191.5,486.5" stroke="black" stroke-width="2" fill="none" />
<polyline points="195.5,474.5,195.5,463.0,179.5,467.0,169.5,455.5,165.0,445.5" stroke="black" stroke-width="2" fill="none" />
<polyline points="165.0,429.5,191.0,417.5,191.0,433.5,201.0,435.0,197.0,438.5,209.0,446.5,210.5,450.5,226.5,451.0,242.0,455.0,258.0,465.5,272.0,463.5,288.0,467.0,304.5,463.0,317.0,469.0,333.0,462.5,349.0,458.5" stroke="black" stroke-width="2" fill="none" />
<polyline points="384.0,452.0,380.0,446.0,378.0,429.5,380.5,413.5,357.0,395.5,338.5,403.5,322.5,401.5,306.0,402.0,290.5,400.0,274.5,390.0" stroke="black" stroke-width="2" fill="none" />
<polyline points="245.5,391.5,261.5,387.5,296.0,401.5,286.0,422.0,304.0,434.5,318.0,436.5,332.5,434.5,327.0,423.0,343.0,431.0,359.0,429.0,381.0,437.0,397.0,433.0,413.0,441.0" stroke="black" stroke-width="2" fill="none" />
<polyline points="438.5,413.0,434.5,427.0,418.5,415.0,414.5,423.0,398.0,421.0,388.0,411.0,362.0,412.5,346.0,415.0,330.0,419.0,314.0,423.0,298.0,433.0,288.0,428.5,272.0,431.0,264.0,418.5,262.0,412.0,246.0,412.0,238.0,397.5,220.0,395.5,203.5,385.0,188.0,375.0,188.0,364.5,178.5,356.5,168.5,359.0,164.5,371.0,152.5,367.0,138.5,373.0,122.5,363.5,116.0,354.0,100.0,350.5,90.0,336.5,78.0,310.5,61.5,284.5,48.0,262.5,32.0,265.0,32.5,253.0,22.5,280.5,16.5,266.5,12.0,260.5,6.0,262.5,3.5,242.0,3.5,226.0,3.5,210.0,3.5,194.0,19.5,182.0,9.5,170.0,6.0,154.5,8.5,138.5,18.0,132.5,16.0,116.5,16.5,100.5,12.5,84.5,4.5,72.0" stroke="black" stroke-width="2" fill="none" />
<polyline points="19.0,66.0,35.0,56.0" stroke="black" stroke-width="2" fill="none" />
<polyline points="25.5,37.5,31.5,25.5,41.5,6.0,57.5,8.0" stroke="black" stroke-width="2" fill="none" />
<polyline points="56.0,2.0,50.0,18.0,37.5,24.0,25.5,40.5,29.5,52.5,39.5,56.5,51.5,76.5,61.5,78.5,69.5,86.5,59.5,88.5,53.5,102.5,52.0,118.5,53.5,124.5,51.5,129.0,61.5,99.5,77.5,103.5" stroke="black" stroke-width="2" fill="none" />
<polyline points="70.5,104.5,70.5,104.5,88.0,109.0" stroke="black" stroke-width="2" fill="none" />
<polyline points="107.5,110.0,123.5,90.0,111.5,102.0,111.0,118.0,103.0,134.0,89.0,150.0,86.5,166.0,84.5,182.0,86.5,194.0,87.0,210.0,85.0,226.0,65.0,248.0,70.5,248.0,70.5,264.0,62.0,280.5,62.0,286.5,70.0,294.5,76.5,310.5,89.0,326.5,84.5,343.0,74.5,342.5" stroke="black" stroke-width="2" fill="none" />
<polyline points="76.0,365.0,60.5,365.0" stroke="black" stroke-width="2" fill="none" />
<polyline points="99.5,336.5,83.5,312.5,64.0,312.0,48.0,316.0" stroke="black" stroke-width="2" fill="none" />
<polyline points="47.5,308.0,63.5,300.0,65.5,318.0,72.0,334.5,80.0,336.5,82.5,330.5" stroke="black" stroke-width="2" fill="none" />
<polyline points="91.0,310.5,105.0,322.5,121.0,326.5,134.5,316.5,160.0,324.5,176.0,328.5,182.0,316.0,196.0,328.0,200.0,319.5,216.0,307.5,232.0,315.5" stroke="black" stroke-width="2" fill="none" />
<polyline points="254.0,322.0,248.0,326.0,234.5,341.5,216.5,357.5,242.0,367.5,235.5,378.0,229.5,382.0,235.5,398.0,239.5,414.5,253.5,424.5,263.5,430.5,263.5,434.5,261.5,450.5,267.5,474.0,285.0,482.0,301.0,484.0,317.5,481.5,335.5,475.5,338.0,469.5,353.0,467.5,363.0,469.0,373.0,453.0,388.5,457.5,390.5,473.5,380.0,485.5,396.0,479.5,412.0,477.5" stroke="black" stroke-width="2" fill="none" />
<polyline points="417.0,557.0,401.0,555.0,387.0,541.0,371.0,547.0,354.5,551.0,338.5,555.5,326.5,550.0,310.5,550.0,294.5,540.0,278.5,532.5,264.5,529.0,260.5,532.5,258.5,515.0,257.0,488.5,258.5,464.5,248.0,446.5,238.0,430.5,218.0,414.5,212.5,386.0,194.5,394.0,179.0,394.0,163.0,400.0" stroke="black" stroke-width="2" fill="none" />
<polyline points="169.5,416.0,185.5,416.0,201.0,416.0,217.0,418.0" stroke="black" stroke-width="2" fill="none" />
<polyline points="221.5,428.0,205.5,418.0" stroke="black" stroke-width="2" fill="none" />
<polyline points="212.5,463.0,228.5,461.5,252.5,477.5,242.5,468.0,258.5,476.0,276.5,468.0,292.5,470.0" stroke="black" stroke-width="2" fill="none" />
<polyline points="293.5,446.0,293.5,462.0,287.5,446.0" stroke="black" stroke-width="2" fill="none" />
<polyline points="338.5,410.0,352.5,414.0" stroke="black" stroke-width="2" fill="none" />
<polyline points="357.0,404.0,341.0,390.0" stroke="black" stroke-width="2" fill="none" />
<polyline points="331.0,383.0,325.0,389.0,307.5,389.0,307.5,414.5,323.5,432.5,337.0,438.5,325.0,454.5,319.0,460.5,312.5,454.5,334.5,455.0,360.5,454.5,358.5,445.0,346.5,453.0,352.0,468.5,331.5,484.5,313.0,488.5,309.0,498.5,289.0,501.0,279.0,521.5,291.0,541.5,284.5,553.5,281.0,569.5,289.0,585.0,273.5,598.5,261.5,598.0,256.0,606.0,240.0,615.5,248.0,617.0,251.5,625.0,267.5,619.0,283.0,609.0,299.0,607.0,315.5,609.5,323.5,617.5,337.0,622.0,353.5,634.5,369.5,642.5,386.0,647.0,402.0,653.0,418.5,637.0,418.5,653.0,426.0,664.5,442.0,664.5,445.5,668.0,453.0,677.5,467.0,677.5,483.0,667.0,498.5,671.0" stroke="black" stroke-width="2" fill="none" />
<polyline points="507.0,428.5,507.0,413.0,511.0,409.0,493.0,393.0,477.5,407.0,461.0,401.0,455.0,402.5,438.5,388.5,429.0,398.0,412.5,386.5,406.0,378.5,402.0,346.5,385.5,356.5,369.5,332.5,354.0,332.5,338.0,335.0,322.0,349.0,332.5,337.5,326.5,321.0,316.5,313.5,345.0,305.5,341.0,291.0,329.0,277.0,315.5,261.0,305.0,261.0,297.0,242.5,283.0,226.0,261.0,206.0,257.0,182.0,241.0,179.5,224.5,179.0,208.5,180.5,192.0,186.5,175.5,190.5" stroke="black" stroke-width="2" fill="none" />
<polyline points="186.5,195.0,200.5,193.0,210.5,195.0,218.5,197.0,238.5,202.5,249.0,202.5" stroke="black" stroke-width="2" fill="none" />
<polyline points="263.5,203.0,283.5,219.5,279.5,227.5,285.5,239.5,293.5,256.0,299.5,272.0,302.0,288.0,288.5,304.0,273.0,312.0,285.5,322.0,297.5,336.0,301.0,344.0,308.5,354.5,324.5,343.0,340.5,347.0,356.0,340.5,372.0,341.0,387.0,351.0,398.5,359.0,410.5,345.0,426.5,355.0,442.5,353.0,461.0,352.5,477.0,346.5,469.5,356.0,484.0,362.0" stroke="black" stroke-width="2" fill="none" />
<polyline points="445.5,398.5,435.5,398.5" stroke="black" stroke-width="2" fill="none" />
<polyline points="379.0,330.0,363.0,321.5,346.5,303.5,330.5,292.0,313.0,290.0,312.5,284.0,296.5,296.0,282.5,292.0,258.5,290.0,252.5,272.0,224.5,260.0,226.5,238.0,208.5,228.0,210.0,218.0,199.5,190.0" stroke="black" stroke-width="2" fill="none" />
<polyline points="205.5,185.5,221.5,189.0,237.0,195.0,257.5,195.0,272.0,207.0,288.0,219.0,287.5,233.0" stroke="black" stroke-width="2" fill="none" />
<polyline points="293.5,211.0,277.5,203.0" stroke="black" stroke-width="2" fill="none" />
<polyline points="277.0,202.5,293.5,218.5,312.0,236.5" stroke="black" stroke-width="2" fill="none" />
<polyline points="325.0,215.0,341.0,209.0,357.0,203.0,385.0,203.0,386.5,218.5,392.5,200.5,405.0,192.5" stroke="black" stroke-width="2" fill="none" />
<polyline points="414.0,188.5,409.5,172.5" stroke="black" stroke-width="2" fill="none" />
<polyline points="416.5,166.5,432.5,179.0,452.5,195.0" stroke="black" stroke-width="2" fill="none" />
<polyline points="432.5,142.0,408.5,139.5,404.5,138.0,413.0,136.0,421.0,118.5,402.5,116.5,386.5,110.5" stroke="black" stroke-width="2" fill="none" />
<polyline points="388.5,115.0,388.0,117.0,396.0,119.0,400.5,136.5" stroke="black" stroke-width="2" fill="none" />
<polyline points="380.5,172.5,399.0,188.5,400.5,206.5,394.5,222.0,400.0,228.5,390.0,238.5,385.5,258.5,361.5,284.5,355.0,302.5,357.0,308.5,349.0,324.5,377.0,332.5,379.0,334.5,394.5,338.0,397.0,327.5" stroke="black" stroke-width="2" fill="none" />
<polyline points="372.0,334.5,374.0,350.0,374.5,366.0,378.5,378.0" stroke="black" stroke-width="2" fill="none" />
<polyline points="294.0,360.5,286.0,346.0,284.0,352.0,268.0,351.5,265.5,363.5,263.0,351.0,247.5,353.0" stroke="black" stroke-width="2" fill="none" />
<polyline points="245.0,347.5,247.0,363.5,268.5,365.5,258.5,381.5,256.0,407.5,262.0,427.5,275.5,411.5,287.5,409.5,304.0,415.5,320.0,407.5,334.5,395.0,340.0,409.0,350.0,415.5" stroke="black" stroke-width="2" fill="none" />
<polyline points="221.0,389.5,217.0,373.5,213.0,360.0,197.0,356.5,181.0,350.5" stroke="black" stroke-width="2" fill="none" />
<polyline points="181.0,351.0,187.0,367.0,202.5,368.5,188.0,380.5,156.0,386.0,150.0,402.0,138.0,410.0,151.5,428.0,153.5,456.0,145.5,472.0,113.5,474.0,101.5,490.0,121.5,494.0,116.0,502.0,98.0,518.0,52.0,533.5,46.0,552.0,61.5,555.5,51.5,576.0,45.0,588.5,33.0,586.5,35.5,574.5,57.5,572.5,78.0,568.0,86.0,575.5,92.0,555.0,104.0,575.0,107.5,585.0,123.5,585.0,141.0,573.0,165.0,589.0,165.0,599.0" stroke="black" stroke-width="2" fill="none" />
<polyline points="154.0,592.5,176.0,588.5,180.0,604.5,176.0,620.5" stroke="black" stroke-width="2" fill="none" />
<polyline points="182.5,612.5,184.5,629.0,188.5,645.0,192.0,660.5,193.5,676.5,215.0,680.5,225.0,666.5,241.0,677.0,263.0,673.5,263.0,677.5,278.5,679.5" stroke="black" stroke-width="2" fill="none" />
<polyline points="178.0,676.0,175.5,663.5,185.5,677.5,169.0,669.5,176.5,657.0,170.5,652.5,154.5,657.0,138.5,659.0,137.0,653.0,131.0,643.0,151.0,635.0,173.0,631.0,161.0,615.0,145.0,603.5,143.5,588.0,173.5,584.0,170.0,568.0,164.0,552.0,160.5,536.0,152.0,536.0,154.5,520.0,148.5,503.5,144.5,493.5,154.5,477.5,161.0,461.5,149.0,467.0,131.0,471.0,129.0,485.0,121.0,495.0,111.0,497.0,107.0,505.0,101.0,499.0,94.5,485.0,84.5,479.0,90.5,471.0,108.0,463.5,111.5,442.0,111.0,428.5,118.5,416.5,116.5,412.5" stroke="black" stroke-width="2" fill="none" />
<polyline points="115.5,412.5,132.0,406.5" stroke="black" stroke-width="2" fill="none" />
<polyline points="109.0,448.0,93.0,451.5" stroke="black" stroke-width="2" fill="none" />
<polyline points="94.5,442.0,94.5,454.0,84.5,474.0,100.5,488.0,110.5,480.0,126.5,480.0,142.5,478.5" stroke="black" stroke-width="2" fill="none" />
<polyline points="121.0,472.0,114.5,468.0,98.5,470.5" stroke="black" stroke-width="2" fill="none" />
<polyline points="73.0,476.5,56.5,472.0" stroke="black" stroke-width="2" fill="none" />
<polyline points="62.0,443.5,46.5,435.5" stroke="black" stroke-width="2" fill="none" />
<polyline points="60.0,449.5,44.0,445.5,28.0,447.5" stroke="black" stroke-width="2" fill="none" />
<polyline points="11.0,444.5,27.5,443.0,35.5,455.0,51.5,460.5,68.0,462.0,76.0,465.5,92.0,473.5,108.5,463.5,114.5,457.5,132.5,455.5" stroke="black" stroke-width="2" fill="none" />
<polyline points="165.5,466.0,179.5,482.5,197.5,498.5,217.5,514.5,223.5,531.0,221.5,547.0,203.5,555.0,201.5,571.0,213.0,587.0,205.0,599.5" stroke="black" stroke-width="2" fill="none" />
<polyline points="194.5,571.5,178.5,567.0,156.0,553.0,141.0,561.0,135.0,549.0,131.0,543.0,115.5,549.0,91.5,549.0,88.0,539.0,72.0,539.0,56.0,549.5,40.0,556.0,29.5,548.5,13.5,554.5,9.0,558.5" stroke="black" stroke-width="2" fill="none" />
<polyline points="0.5,555.0,6.5,547.0,7.0,540.5" stroke="black" stroke-width="2" fill="none" />
<polyline points="1.0,534.0,7.0,524.0,9.5,516.0,16.0,518.0,28.0,549.5,42.5,565.5,50.5,581.0,56.5,595.0,76.5,607.0,82.5,615.0,94.5,631.0,106.5,649.0,108.0,645.5,126.0,647.5,132.5,638.0,146.5,634.0,158.5,620.0,176.5,630.0,178.0,654.0" stroke="black" stroke-width="2" fill="none" />
<polyline points="177.5,638.5,161.5,635.0,145.0,629.0,129.0,625.0,113.0,624.5" stroke="black" stroke-width="2" fill="none" />
<polyline points="128.0,613.5,140.0,629.5" stroke="black" stroke-width="2" fill="none" />
<polyline points="153.5,612.5,143.5,596.5,127.0,606.0,113.5,609.5,99.5,617.5,103.0,623.0,87.0,619.0" stroke="black" stroke-width="2" fill="none" />
<polyline points="78.5,635.5,62.0,620.0,57.5,614.0,57.5,624.5,41.0,628.5,19.0,624.5,17.0,606.5,1.5,598.5" stroke="black" stroke-width="2" fill="none" />
<polyline points="1.5,606.5,15.5,606.5,26.0,622.5,34.0,632.0,28.5,651.5,44.5,643.5,48.5,653.5,54.5,663.5,42.5,667.5,30.5,679.5,44.5,679.5,60.5,671.5,64.5,679.5" stroke="black" stroke-width="2" fill="none" />
<polyline points="65.5,678.0,73.5,660.0,94.0,646.5,96.5,630.0,112.0,610.0,112.5,602.5,118.0,576.5,112.0,568.5,124.0,544.5,114.0,556.0" stroke="black" stroke-width="2" fill="none" />
<polyline points="121.5,573.5,137.5,583.5" stroke="black" stroke-width="2" fill="none" />
<polyline points="153.0,592.0,163.0,607.5,157.0,624.0,145.0,638.0,153.5,639.5" stroke="black" stroke-width="2" fill="none" />
<polyline points="151.0,653.0,131.0,669.0" stroke="black" stroke-width="2" fill="none" />
<polyline points="126.5,664.5,110.5,663.0,94.0,657.0,78.0,655.0,62.0,651.0,55.5,643.0,31.5,653.0,17.5,661.0,1.5,649.0" stroke="black" stroke-width="2" fill="none" />
<polyline points="10.5,632.0,26.5,638.0,42.5,639.5,48.5,635.5,66.5,635.5" stroke="black" stroke-width="2" fill="none" />
<polyline points="75.0,659.0,59.0,655.0,39.5,661.0,23.5,663.0,36.0,671.0,16.0,659.5,18.0,642.0,11.5,640.0,5.5,640.5,9.0,625.0,9.0,613.5,8.5,619.5" stroke="black" stroke-width="2" fill="none" />
<polyline points="28.5,605.0,30.5,601.0,46.0,587.5" stroke="black" stroke-width="2" fill="none" />
<polyline points="63.5,606.0,63.5,622.0,67.5,648.0,60.0,662.0,64.0,664.0,80.0,671.5,100.0,672.0,115.5,667.5,131.5,670.0,147.0,664.5" stroke="black" stroke-width="2" fill="none" />
<polyline points="158.0,660.0,151.5,676.0" stroke="black" stroke-width="2" fill="none" />
<polyline points="227.0,642.5,209.0,620.5,196.5,602.5,194.0,600.0,178.0,574.0,158.0,579.5,142.0,589.5,126.0,593.5,112.0,599.5,108.0,597.5,100.0,589.5,84.0,599.5,68.0,593.5,52.5,587.0,42.5,601.0,30.0,590.5,26.0,588.5,18.0,578.5,4.0,570.5,8.0,568.5,4.0,562.5,12.0,546.5,4.0,536.5,10.0,515.0,9.5,499.0,12.0,483.5,6.0,467.5,6.0,452.0,18.5,436.0,18.0,420.5,28.5,404.5,28.5,388.5,63.0,382.5,53.5,362.5,63.5,352.0,69.5,336.0,59.5,320.0,43.5,326.0,41.5,312.0,39.5,296.0,53.5,288.0,49.0,280.0,47.5,264.0,37.5,260.0,40.0,243.5,48.0,239.5,23.5,233.5,45.0,217.5,31.0,225.5,15.0,221.5" stroke="black" stroke-width="2" fill="none" />
<polyline points="2.0,232.0,17.5,228.0,29.5,248.0,21.5,264.0,23.5,278.0,7.5,288.5,25.5,300.0,18.0,316.5,22.5,320.5,33.0,332.0,27.0,340.0,47.0,346.0,23.0,353.5,15.0,369.5,19.5,369.5,5.5,390.0,21.5,396.0,35.5,416.5,51.5,420.5,67.0,398.5,87.0,370.5,91.0,374.5,99.0,378.0,115.0,378.0,122.5,380.0,122.5,384.0,134.5,400.0,130.5,402.0" stroke="black" stroke-width="2" fill="none" />
<polyline points="124.5,343.0,140.0,336.5,156.0,332.5,171.5,336.0,187.0,317.5,207.0,299.5,223.0,297.0,228.5,283.0,244.5,281.0,260.5,275.0,276.5,274.5" stroke="black" stroke-width="2" fill="none" />
<polyline points="282.0,273.5,284.0,257.5" stroke="black" stroke-width="2" fill="none" />
<polyline points="241.0,228.0,224.5,229.5,208.5,223.5,200.5,237.5,184.0,239.0,168.0,231.0,160.5,223.0,144.5,227.0,130.0,211.0,114.0,207.0,98.0,211.5,76.0,187.5,60.0,185.5,42.5,195.5,38.5,183.5,33.0,163.0,9.0,137.0" stroke="black" stroke-width="2" fill="none" />
<polyline points="8.0,143.0,14.5,173.5,12.0,191.0,6.0,185.0,22.0,187.5,26.0,203.5,42.0,203.0,56.0,202.5,62.0,222.5" stroke="black" stroke-width="2" fill="none" />
<polyline points="90.5,226.0,106.5,220.0,110.5,226.0,114.5,240.0,136.0,255.5" stroke="black" stroke-width="2" fill="none" />
<polyline points="132.5,276.0,117.0,272.0,101.0,264.0" stroke="black" stroke-width="2" fill="none" />
<polyline points="99.0,276.5,115.0,278.5,113.0,293.0,128.5,289.0,130.0,294.5,135.5,290.5" stroke="black" stroke-width="2" fill="none" />
<polyline points="134.0,304.5,118.0,296.5" stroke="black" stroke-width="2" fill="none" />
<polyline points="89.0,286.5,84.5,302.5,92.5,314.5,100.0,330.5,120.0,348.5,117.5,358.5,117.5,368.0,95.5,380.0,79.5,403.5,81.5,421.5,89.5,437.5,67.5,447.5,67.5,454.0,84.0,442.0,94.0,460.0,110.0,452.0,128.0,434.0,137.5,458.0,147.5,458.0,163.0,460.0,179.5,482.5,195.0,490.5,199.5,500.5,211.5,508.5,224.0,502.0,232.0,524.5,244.0,526.5,256.0,518.0,268.5,522.0,284.5,516.0,290.5,504.0,295.0,506.5,311.0,504.5,314.5,511.0,330.0,507.0,338.0,511.0,354.0,506.5" stroke="black" stroke-width="2" fill="none" />
<polyline points="202.0,551.0,200.0,542.5,172.5,532.5" stroke="black" stroke-width="2" fill="none" />
<polyline points="208.5,535.0,204.0,530.5,194.0,522.5,178.5,504.5,162.5,496.5" stroke="black" stroke-width="2" fill="none" />
<polyline points="136.5,530.5,120.5,532.5,104.5,530.5" stroke="black" stroke-width="2" fill="none" />
<polyline points="92.5,536.5,109.0,544.5,137.0,558.5,149.0,558.5,155.0,562.5" stroke="black" stroke-width="2" fill="none" />
<polyline points="181.0,574.5,195.5,590.5,199.5,588.5" stroke="black" stroke-width="2" fill="none" />
<polyline points="246.5,625.5,230.5,620.0,231.0,610.0,239.0,601.5,232.5,595.5,238.5,588.0,247.0,566.0,234.5,560.0,228.5,546.0,240.5,518.0,220.5,510.0,230.5,498.0,218.5,482.0,214.5,470.0,218.5,454.0,224.0,444.0,205.5,432.0,211.5,426.0,198.0,422.0,198.0,406.0,198.5,394.0,193.0,385.5,174.5,379.5,174.5,388.0,158.0,386.0,164.0,376.0,154.5,366.0,162.5,350.0,148.5,343.5,142.5,325.5,131.0,317.5,124.5,335.5,110.5,341.5,106.5,335.0,104.0,323.0,93.0,307.0,87.0,305.0" stroke="black" stroke-width="2" fill="none" />
<polyline points="49.0,255.5,37.0,241.5" stroke="black" stroke-width="2" fill="none" />
<polyline points="62.0,242.5,46.0,238.5,28.0,252.5,11.5,250.5" stroke="black" stroke-width="2" fill="none" />
<polyline points="5.5,242.5,21.0,242.5,25.5,236.5,35.5,218.5" stroke="black" stroke-width="2" fill="none" />
<polyline points="66.5,194.0,78.5,210.0" stroke="black" stroke-width="2" fill="none" />
<polyline points="57.0,225.5,51.0,210.0,53.0,196.0,55.0,184.0" stroke="black" stroke-width="2" fill="none" />
<polyline points="86.0,153.0,108.0,124.5,110.0,140.5,134.0,153.0,146.0,171.5,158.0,165.5,178.5,169.5,194.5,173.0,220.5,167.0,238.5,183.0,254.0,185.0,270.5,185.0,286.5,187.0,289.0,177.0,305.0,179.0,325.0,179.5,341.5,183.5,357.5,180.0,381.5,166.0,389.5,164.0,406.0,164.5,422.0,162.5,438.0,169.0,458.0,175.0,466.0,175.5,485.5,175.5,501.0,165.5" stroke="black" stroke-width="2" fill="none" />
<polyline points="495.5,59.5,487.5,79.5,471.5,65.5,467.5,55.5,461.0,67.5,463.0,53.5,473.0,37.5,488.5,16.0,486.5,8.0" stroke="black" stroke-width="2" fill="none" />
<polyline points="481.0,19.5,469.0,25.5,452.5,28.0,450.5,36.0,436.5,36.0,428.5,32.0,420.5,19.5,420.5,27.5,404.5,29.0,394.5,17.0,382.0,14.5,389.5,12.5,403.5,12.5,399.5,10.0" stroke="black" stroke-width="2" fill="none" />
<polyline points="408.5,20.0,388.5,35.5" stroke="black" stroke-width="2" fill="none" />
<polyline points="382.5,55.0,390.5,75.0,376.5,97.0,390.5,105.0,406.5,103.5,422.5,108.0,432.0,126.0,447.5,128.0" stroke="black" stroke-width="2" fill="none" />
<polyline points="485.0,136.0,469.5,138.0,461.5,156.0,445.5,148.5,430.0,136.0,426.0,152.0,410.0,148.0,388.0,148.0,371.5,139.5,367.5,131.5,351.0,125.5,350.5,119.0,344.5,102.5,328.5,103.0,312.5,103.0,311.0,111.0,307.0,107.0,291.0,109.0,295.0,99.0,305.0,93.0,299.0,77.5,299.5,62.0,307.5,50.0,316.0,16.0,298.0,14.0,282.5,10.0,266.0,12.0" stroke="black" stroke-width="2" fill="none" />
<polyline points="279.5,27.0,277.5,33.0,281.5,37.5,286.0,31.5,302.0,40.0,308.0,48.0,324.0,45.5,340.0,49.5" stroke="black" stroke-width="2" fill="none" />
<polyline points="338.0,32.5,338.0,48.5,338.5,64.0,350.5,66.5,362.5,82.5,352.5,89.0,358.5,70.5,374.5,76.5,390.5,84.5,406.0,70.5,428.0,79.0,436.0,91.0,452.0,87.0" stroke="black" stroke-width="2" fill="none" />
<polyline points="444.0,71.5,427.5,58.0" stroke="black" stroke-width="2" fill="none" />
<polyline points="441.0,53.0,455.0,69.0" stroke="black" stroke-width="2" fill="none" />
<polyline points="471.5,48.5,487.5,52.5,503.0,54.0" stroke="black" stroke-width="2" fill="none" />
<polyline points="503.5,41.5,487.5,45.0,481.5,55.0" stroke="black" stroke-width="2" fill="none" />
<polyline points="471.5,44.0,487.5,34.0,503.5,24.0" stroke="black" stroke-width="2" fill="none" />
<polyline points="496.0,40.0,494.5,30.0,508.5,16.0,494.5,23.5,488.5,14.0,469.0,8.0,461.0,18.5,444.5,20.5,428.5,4.5,412.5,8.5,396.5,4.5,380.5,10.5,372.5,8.0,356.5,6.0,338.5,4.0,322.5,12.0,312.5,11.5,306.0,18.0,290.0,18.0,274.0,18.0,274.5,26.0,258.5,21.5,252.5,17.5,246.5,33.5,233.0,31.5,240.5,21.5,238.5,7.5,226.0,9.5,210.0,12.0" stroke="black" stroke-width="2" fill="none" />
<polyline points="201.0,21.0,203.0,37.0,202.5,65.0,170.5,77.5,162.0,88.0,171.5,96.5,187.5,96.5,193.0,88.5,209.0,97.0,225.0,107.0" stroke="black" stroke-width="2" fill="none" />
<polyline points="236.5,133.0,234.5,149.0,244.5,147.0" stroke="black" stroke-width="2" fill="none" />
<polyline points="245.5,159.0,261.5,161.5,277.5,167.5,279.5,162.0" stroke="black" stroke-width="2" fill="none" />
<polyline points="255.5,132.0,251.5,118.0,235.5,104.0,219.5,93.5,203.0,83.5,193.0,75.0,179.0,75.0,156.5,73.0,140.5,85.0,124.0,89.0" stroke="black" stroke-width="2" fill="none" />
<polyline points="130.0,97.0,146.5,94.5" stroke="black" stroke-width="2" fill="none" />
<polyline points="159.0,116.5,181.0,120.5,170.5,136.5,170.5,152.5,178.5,162.5,192.5,157.0,192.5,164.5,198.5,166.0,214.0,159.5,220.0,163.5,235.5,163.5,248.0,175.5,264.5,177.5,268.5,191.5,284.5,194.0,294.5,200.0,306.5,192.0,318.0,204.5,313.5,214.5,321.5,218.0,337.5,212.0,349.5,222.0,366.0,219.5,384.0,223.5,387.5,236.0,375.5,238.5,391.5,254.5" stroke="black" stroke-width="2" fill="none" />
<polyline points="366.5,247.0,368.5,236.5" stroke="black" stroke-width="2" fill="none" />
<polyline points="352.0,192.5,352.0,182.0,346.0,163.5,335.5,147.5,345.5,129.5,325.5,113.5,311.5,103.5,309.5,93.5,287.0,99.5,271.0,99.5,255.0,91.5,235.0,80.0,231.0,68.0,213.5,72.0,197.5,62.0,179.5,50.0,163.5,42.0,148.0,42.5,138.5,28.0,122.0,34.0,106.5,38.5,96.0,44.5,84.0,52.5,74.0,84.5,58.0,96.0,48.0,108.0,44.0,98.0,42.5,82.0,48.5,62.0,52.5,40.0,60.5,26.0,93.0,19.5,77.0,15.5,60.5,25.5,44.5,37.5" stroke="black" stroke-width="2" fill="none" />
<polyline points="23.5,1.5,15.5,17.5,18.0,33.5,18.0,50.0,20.0,58.5,22.5,70.5,36.5,82.5,25.0,84.0,35.0,110.5,26.5,122.5,46.5,134.5,59.0,150.5,56.5,140.5,72.5,130.0,80.0,128.5" stroke="black" stroke-width="2" fill="none" />
<polyline points="108.0,116.0,124.0,112.5,140.5,113.0,146.5,119.0,145.0,135.0,137.0,149.0,149.0,145.5" stroke="black" stroke-width="2" fill="none" />
<polyline points="156.0,170.0,140.0,186.0,124.5,184.0" stroke="black" stroke-width="2" fill="none" />
<polyline points="123.0,196.5,131.0,212.5,114.5,225.0,117.0,225.0,125.0,234.5,127.5,244.5,143.5,248.5,152.0,241.0,168.0,243.0,180.0,247.0,196.0,253.0,212.0,252.5,228.0,246.5,233.5,252.5,249.5,248.5,265.0,248.0,277.0,256.0" stroke="black" stroke-width="2" fill="none" />
<polyline points="252.0,152.5,238.0,138.5,234.5,132.5,218.5,136.5,204.5,123.0,194.0,125.0,186.0,111.5,170.0,111.5,164.0,111.0,148.0,119.0,128.0,133.0,112.0,123.0" stroke="black" stroke-width="2" fill="none" />
<polyline points="99.0,158.5,93.0,154.5,97.0,170.0,103.0,186.0,98.5,204.0,92.5,210.0,100.5,220.0,90.5,236.0,94.0,252.5,89.5,265.0,105.5,261.5,115.5,269.0,132.0,260.5,148.0,266.5,148.0,254.5,154.0,266.5,172.0,250.0,188.5,258.0,204.5,260.0,208.5,276.5,224.5,272.5,240.5,274.5,256.5,272.0,268.5,278.0,284.0,288.0,304.0,296.0,304.0,300.0,319.5,302.0,331.5,314.0,344.0,314.0,360.0,312.0,376.0,318.0,392.0,320.0,394.0,312.0,410.0,315.5,438.0,309.5,438.0,314.0,448.0,298.0,462.0,298.0" stroke="black" stroke-width="2" fill="none" />
<polyline points="449.5,293.0,467.5,308.5,463.5,324.5,449.5,324.0,435.5,342.0,439.5,362.0,423.5,368.0,423.5,386.0,433.5,394.0,419.0,408.0,427.0,408.5,429.5,410.5,453.5,408.5,465.5,428.5,475.0,414.5,491.0,416.5" stroke="black" stroke-width="2" fill="none" />
<polyline points="501.5,128.0,485.5,124.0,476.0,104.0,462.0,118.0,450.5,122.0,435.0,104.0,419.0,90.0" stroke="black" stroke-width="2" fill="none" />
<polyline points="420.0,91.0,422.0,107.0,434.0,133.0,434.0,155.0" stroke="black" stroke-width="2" fill="none" />
<polyline points="399.0,42.0,383.0,50.0,373.0,44.5,357.5,32.5,341.5,28.5,325.5,26.5" stroke="black" stroke-width="2" fill="none" />
<polyline points="348.5,28.5,370.5,44.5,372.5,63.0,369.0,77.0,359.0,94.5,353.0,110.5,359.5,133.0,374.0,149.5,388.5,149.5,374.5,162.0,382.5,164.0,404.5,174.0,424.5,179.5,418.5,191.5,412.5,209.5,432.5,227.5,442.5,211.5,458.0,211.0,468.0,217.0,476.0,200.5,492.0,196.5,492.5,215.0,508.5,219.0" stroke="black" stroke-width="2" fill="none" />
<polyline points="459.0,281.0,455.0,292.5,439.0,292.0,411.0,304.0,407.0,290.0,391.0,285.5,388.5,267.0,378.5,244.5,374.0,230.5,357.5,236.5,346.0,238.5,330.0,220.5,328.0,231.0,312.0,217.0,298.0,233.5,282.5,226.0,267.0,238.5,251.0,227.0,239.5,207.0,239.5,191.0,229.5,201.0,219.0,179.0,203.0,177.0,186.5,179.0,184.5,185.0,168.0,188.5,159.5,188.5,143.5,200.5,128.0,192.0,112.0,198.0,96.0,206.0,80.0,198.0,67.5,194.0,53.5,188.0,43.5,172.5,36.0,170.5,20.0,170.5,16.0,164.0,22.5,140.0,6.5,128.0" stroke="black" stroke-width="2" fill="none" />
<polyline points="19.0,124.5,35.0,134.5,43.0,152.5" stroke="black" stroke-width="2" fill="none" />
<polyline points="36.5,117.0,20.5,113.0" stroke="black" stroke-width="2" fill="none" />
<polyline points="12.5,106.0,28.0,106.0,44.0,98.0,60.0,104.0,66.0,114.0,82.0,130.5,64.0,152.5,56.0,146.5" stroke="black" stroke-width="2" fill="none" />
<polyline points="3.0,111.5,16.5,143.5,20.5,159.0,34.5,160.5,34.5,176.0,28.5,192.0,32.5,198.0,21.0,199.5,23.0,215.5,11.0,231.5,21.0,243.5,3.0,269.5,15.0,277.5,39.5,283.5,42.0,281.5,34.0,297.5,29.5,324.0,41.5,300.0,57.0,288.0,71.5,268.0" stroke="black" stroke-width="2" fill="none" />
<polyline points="68.0,325.5,51.5,321.5,37.5,335.5,35.5,332.0,19.5,332.0" stroke="black" stroke-width="2" fill="none" />
<polyline points="19.5,336.5,35.5,342.0" stroke="black" stroke-width="2" fill="none" />
<polyline points="64.0,352.0,59.5,339.5,42.0,362.0,26.0,358.0,22.0,345.5,6.0,341.5,2.0,349.5" stroke="black" stroke-width="2" fill="none" />
<polyline points="1.0,332.0,3.0,342.0,3.5,355.5,2.0,355.5,18.5,353.5,28.5,351.5,44.5,349.5,54.0,350.0,58.0,362.0,73.5,360.0,89.5,364.0,107.5,358.0,111.5,377.5,115.5,393.5,118.0,399.5,136.0,427.0,142.0,447.0,138.0,457.0,134.5,481.0,128.5,491.5,128.5,509.5,145.0,509.5,137.0,509.5,127.5,511.5,143.5,517.5" stroke="black" stroke-width="2" fill="none" />
<polyline points="133.5,524.0,127.0,518.0,105.0,514.0,89.0,523.5,73.0,530.0,57.0,532.0,41.0,540.0,35.0,528.0,19.5,530.0,15.5,510.0,31.5,506.0,30.0,490.0,28.0,474.0,12.5,464.5" stroke="black" stroke-width="2" fill="none" />
<polyline points="8.0,456.0,24.5,460.0,44.5,464.0,54.0,463.5,52.0,479.0,54.0,491.0,66.5,504.5,62.5,520.5,60.0,524.5" stroke="black" stroke-width="2" fill="none" />
<polyline points="38.5,515.5,54.5,513.5,44.5,511.5,38.5,515.5,32.5,531.5,31.0,537.5,37.0,535.5" stroke="black" stroke-width="2" fill="none" />
<polyline points="34.5,557.5,50.0,557.5,66.0,555.5,72.0,543.5,88.0,531.5,104.0,524.0" stroke="black" stroke-width="2" fill="none" />
<polyline points="118.5,510.0,102.5,526.0,92.5,538.0,100.5,560.0,94.5,576.0,100.0,577.5,96.0,595.5,104.0,625.0,120.0,625.0,120.5,643.0,106.5,645.0,106.5,663.0,120.0,679.0,135.5,673.0,151.5,666.0" stroke="black" stroke-width="2" fill="none" />
<polyline points="126.0,629.5,110.5,639.5,86.0,645.5,76.0,625.5,80.0,621.5,80.0,613.0,76.5,597.0" stroke="black" stroke-width="2" fill="none" />
<polyline points="75.5,558.5,59.5,560.0" stroke="black" stroke-width="2" fill="none" />
<polyline points="95.0,558.5,89.5,575.0,71.5,576.5,65.0,592.0,61.0,606.0,47.0,622.0,49.0,630.0,73.5,640.5,95.5,662.5,113.5,672.5,133.0,681.0,149.5,681.0,165.5,683.0" stroke="black" stroke-width="2" fill="none" />
<polyline points="19.5,675.0,3.0,673.0" stroke="black" stroke-width="2" fill="none" />
<polyline points="12.5,489.5,12.5,497.5,28.0,499.0,30.0,515.0,46.0,495.0,46.0,501.0,62.0,497.0" stroke="black" stroke-width="2" fill="none" />
<polyline points="66.0,490.0,50.0,489.5,42.0,481.5,30.0,473.5,23.5,467.5" stroke="black" stroke-width="2" fill="none" />
<polyline points="21.5,413.5,5.5,409.0,1.5,415.0" stroke="black" stroke-width="2" fill="none" />
<polyline points="2.5,395.0,10.5,401.0,4.0,417.0,5.5,435.0,13.5,430.0,29.0,428.0,33.5,434.0,37.5,420.0,52.0,428.0,67.5,426.0" stroke="black" stroke-width="2" fill="none" />
<polyline points="12.0,384.5,20.0,384.5,35.5,382.5,52.0,380.5,56.0,385.0,66.0,400.5,58.0,412.5,64.5,430.5,68.5,434.5,82.5,430.5,86.5,424.5,103.0,416.5,115.0,428.5,129.0,420.5,137.0,426.5,147.0,418.5" stroke="black" stroke-width="2" fill="none" />
<polyline points="197.0,471.0,207.0,487.0" stroke="black" stroke-width="2" fill="none" />
<polyline points="21.0,373.5,5.0,375.5" stroke="black" stroke-width="2" fill="none" />
<polyline points="2.5,373.5,18.0,359.5,23.5,364.0,23.5,380.0,50.0,366.5,56.0,384.5,72.0,382.5" stroke="black" stroke-width="2" fill="none" />
<polyline points="1.5,327.0,9.5,313.0,14.0,304.0,30.0,294.5" stroke="black" stroke-width="2" fill="none" />
<polyline points="17.0,287.0,0.5,285.0" stroke="black" stroke-width="2" fill="none" />
<polyline points="122.5,65.0,138.5,69.0" stroke="black" stroke-width="2" fill="none" />
<polyline points="108.5,50.0,102.5,48.0,81.0,64.0,67.0,78.0,53.5,88.0,57.5,76.5,73.0,70.5,95.0,52.5,110.5,44.5,126.5,40.5,142.5,42.5,162.5,52.5,176.0,70.5,192.0,50.5" stroke="black" stroke-width="2" fill="none" />
<polyline points="199.5,70.5,215.0,86.5,247.5,118.5,259.5,134.5,276.0,131.0,292.5,135.5,308.5,131.5,318.5,149.5,324.5,139.5,341.0,139.0" stroke="black" stroke-width="2" fill="none" />
<polyline points="324.0,171.5,307.5,163.0,297.5,145.0,281.5,143.5,271.5,151.5,267.5,134.0,263.5,118.0" stroke="black" stroke-width="2" fill="none" />
<polyline points="265.5,87.5,241.5,95.5,243.5,93.5,247.5,77.0" stroke="black" stroke-width="2" fill="none" />
<polyline points="255.5,77.5,267.0,93.5,263.0,119.0,271.0,122.5,287.0,130.0,311.5,117.5,327.5,129.5,343.5,127.5,359.5,143.5,375.0,157.5" stroke="black" stroke-width="2" fill="none" />
<polyline points="347.0,141.0,330.5,149.0,313.0,131.0,307.0,115.0" stroke="black" stroke-width="2" fill="none" />
<polyline points="310.5,82.5,314.5,78.5,312.5,62.0" stroke="black" stroke-width="2" fill="none" />
<polyline points="292.5,49.0,276.5,43.5" stroke="black" stroke-width="2" fill="none" />
<polyline points="273.5,31.5,284.0,47.5,278.0,63.5,289.5,79.5,289.5,95.5" stroke="black" stroke-width="2" fill="none" />
<polyline points="288.5,23.5,304.5,31.5,318.5,24.0,334.5,20.0,338.5,10.0,354.5,22.0,370.5,34.5,386.5,38.5,402.5,23.0,418.5,15.5" stroke="black" stroke-width="2" fill="none" />
<polyline points="473.0,3.0,471.0,18.5,469.5,34.0,484.0,30.0,496.5,43.5,492.5,57.5,476.5,65.5,470.5,73.5,472.5,90.0,474.5,114.0,466.5,122.0,494.5,124.0,480.5,132.0,475.0,152.0,485.0,162.5,467.0,172.5,475.0,180.5,467.0,196.5,468.5,206.5,462.5,232.0,464.5,248.0,454.5,256.0,464.5,262.0,466.5,278.0,474.5,276.0,476.0,259.5,492.0,257.5,496.0,269.0,504.0,275.0" stroke="black" stroke-width="2" fill="none" />
<polyline points="477.5,97.0,465.0,101.0,469.5,112.5,475.5,96.5,479.5,80.5,457.0,78.0,441.0,84.0,431.0,72.0,415.0,74.0,413.5,86.5,397.5,91.0,381.0,100.5,375.0,84.5,367.0,90.0,365.0,80.0,348.5,92.0,344.5,79.5,336.0,77.5,320.0,67.5,314.0,67.5,302.0,79.5,285.5,67.5,269.5,67.5,259.5,71.5,255.5,57.5,248.0,43.5,232.0,43.5,216.0,43.5,200.5,53.5,183.0,43.5,179.5,28.0,187.5,24.0" stroke="black" stroke-width="2" fill="none" />
<polyline points="187.5,6.0,189.0,21.5,171.5,25.5,175.5,41.5,163.5,50.0,186.0,52.0,192.0,38.0,196.0,42.0" stroke="black" stroke-width="2" fill="none" />
<polyline points="223.5,32.0,239.0,23.5" stroke="black" stroke-width="2" fill="none" />
<polyline points="236.0,20.0,220.5,32.0,204.5,34.0,204.0,24.0,184.0,16.0,182.0,22.0,170.0,28.5,162.0,32.5,160.5,18.5,145.0,20.5,129.0,20.5,119.5,30.5,105.5,24.0,99.5,18.5,83.0,31.0,67.0,35.0,50.5,42.5,42.5,40.5,24.5,34.5,20.0,18.5,40.0,15.0,23.5,7.0,7.5,12.5" stroke="black" stroke-width="2" fill="none" />
<polyline points="2.0,17.0,4.0,45.0,6.0,67.0,18.0,45.0,34.0,50.5,44.0,28.0,48.0,24.0,68.0,6.0,96.0,8.0,108.0,3.5,124.5,3.5,140.5,11.5,156.0,3.0,176.0,3.0,192.0,7.0,208.0,9.0,224.0,3.0" stroke="black" stroke-width="2" fill="none" />
<polyline points="191.5,3.0,201.0,19.0,213.5,26.5,219.5,27.0,230.0,43.0,212.5,57.0,230.5,65.0,230.5,81.0,234.5,97.0,245.0,121.0,251.0,127.0,252.5,143.0,256.5,151.0,276.0,161.0,300.0,167.0,319.5,183.0,326.0,195.0,332.0,196.5,350.0,198.5,358.0,212.0,332.0,226.0,331.5,242.0,311.5,240.0,321.5,250.0,338.0,234.0,348.0,216.0,360.0,210.0,372.0,195.5,376.0,215.5,388.0,227.5,404.0,233.5,396.0,237.5,400.0,253.5,410.0,258.0,426.0,256.0,433.5,259.5,454.0,242.0,459.5,239.5,469.5,252.0,475.5,236.0,479.5,224.5,487.5,226.0,501.5,227.5" stroke="black" stroke-width="2" fill="none" />
<polyline points="491.5,132.5,475.5,124.5,461.5,128.5,449.0,143.0,439.0,120.5,431.0,110.5,415.0,110.0,415.5,95.5,399.5,95.5,399.5,69.5,383.0,68.0,373.0,70.0,371.5,57.5,354.0,57.5,350.0,39.5,334.5,33.5,318.5,37.5,307.0,35.5,287.5,19.0" stroke="black" stroke-width="2" fill="none" />
<polyline points="289.0,3.5,305.0,5.5" stroke="black" stroke-width="2" fill="none" />
<polyline points="347.5,14.5,359.5,30.5,375.5,20.5,395.5,34.5,414.0,46.5,420.0,52.5,428.0,46.5,443.5,54.0,449.5,42.0,463.5,76.0" stroke="black" stroke-width="2" fill="none" />
<polyline points="352.5,3.0,370.5,21.0,376.5,29.0,378.0,45.0,384.0,42.5,386.0,62.5,400.0,66.5,410.5,70.5,434.5,84.0,443.0,92.0,447.0,98.0,435.0,112.0,437.0,120.0,441.0,125.5,449.5,141.5,461.0,151.5,447.0,171.5,451.0,181.5,461.0,193.5,452.5,201.5,442.5,205.5,454.5,211.5,440.5,223.5,452.5,227.5,453.0,241.5,445.0,245.0,432.5,251.0,416.0,261.5,420.0,271.5,416.0,277.5,434.5,277.5,444.0,269.5" stroke="black" stroke-width="2" fill="none" />
<polyline points="194.5,99.5,178.5,99.5" stroke="black" stroke-width="2" fill="none" />
<polyline points="196.0,81.5,222.0,97.5,210.0,113.5,198.0,135.5,206.0,147.5,204.0,156.0,184.0,164.0,172.0,172.5,190.5,188.5,182.5,204.5,164.5,224.0,152.5,228.0,150.0,244.0,155.5,254.0,153.5,270.0,151.5,285.5,157.0,301.5,163.5,317.5,147.5,335.0,137.0,347.0,155.0,351.0,137.0,359.0,153.0,353.5" stroke="black" stroke-width="2" fill="none" />
<polyline points="193.0,75.0,195.0,91.0,197.0,111.0,185.0,123.0,185.0,141.0,175.0,157.0,161.0,165.0,157.5,184.5,150.0,202.5,166.0,216.5,192.0,224.0,208.0,224.0,200.0,242.0,218.0,248.0,216.0,260.0,202.0,276.0,188.0,286.0,186.5,293.5,192.5,299.5,190.5,315.5,178.5,331.5,188.5,334.0,198.0,349.5,207.5,364.0,205.0,380.0,203.0,386.0,213.0,402.0,223.5,410.5,244.0,426.0,238.0,448.0,238.5,458.0,232.5,474.0,234.5,475.5,236.5,491.5,250.5,505.5,254.5,521.5,258.5,541.5,258.5,558.0,250.5,560.0,254.5,538.0,270.5,558.0,290.5,566.0,296.5,560.0,312.5,556.0,326.0,563.5,332.0,584.0,350.0,568.0,366.0,568.5,372.5,565.0,392.5,559.0,408.5,575.0,422.0,577.0,438.0,579.0,454.0,581.0,454.0,590.5,464.0,590.5,470.0,592.5,486.0,598.0,502.0,598.0,504.0,617.5" stroke="black" stroke-width="2" fill="none" />
</svg>