<svg xmlns="http://www.w3.org/2000/svg" version="1.1"><polyline points="80.0,2.5,89.0,14.5,74.0,22.0,63.5,29.5,43.5,44.0,22.5,56.0,21.5,64.5,26.0,72.0,15.5,79.0,21.5,90.5,17.0,96.5,17.0,113.5,21.5,128.5,35.0,142.0,34.5,149.5" stroke="black" stroke-width="2" fill="none" />
<polyline points="50.0,142.5,62.0,139.5,74.0,130.5" stroke="black" stroke-width="2" fill="none" />
<polyline points="67.0,125.5,55.5,134.5,43.5,130.5" stroke="black" stroke-width="2" fill="none" />
<polyline points="41.5,128.0,49.0,127.5,58.0,127.5,77.0,134.0" stroke="black" stroke-width="2" fill="none" />
<polyline points="86.5,155.0,98.5,138.5,104.5,141.5,115.0,149.0,117.5,154.5,129.5,151.5,141.0,142.5" stroke="black" stroke-width="2" fill="none" />
<polyline points="148.0,133.0,149.5,128.5,161.5,123.5" stroke="black" stroke-width="2" fill="none" />
<polyline points="169.0,132.5,181.5,119.0,193.5,115.0,206.0,104.5,218.0,109.0,230.0,112.0,252.5,120.5,258.5,133.0,261.0,140.5,276.0,161.5,295.5,164.0,303.0,173.5" stroke="black" stroke-width="2" fill="none" />
<polyline points="316.5,186.0,307.5,198.0,304.0,200.0,298.0,212.5,307.0,223.0,296.5,225.0,304.5,236.5,315.0,248.5,322.5,251.5,320.5,257.5,326.5,270.0,328.5,283.0,348.0,290.0,349.5,296.0,352.5,307.5,356.5,309.5,365.5,327.5,373.0,336.0,377.5,348.5,358.5,347.0,363.0,359.5,361.0,367.0,355.0,379.0,365.5,374.5,360.0,380.5,375.0,392.0,375.5,410.0,373.0,421.5,371.5,433.5,361.0,439.5,364.5,447.0,376.5,462.0,376.5,473.5,397.5,473.5,400.5,484.5,412.5,498.0,418.5,504.0,425.5,516.5,440.0,529.0,447.5,523.5,459.5,523.5,467.0,532.5,479.0,534.0,479.0,517.5,491.0,515.0,503.0,516.5,504.5,507.0" stroke="black" stroke-width="2" fill="none" />
<polyline points="508.0,512.0,495.5,510.5" stroke="black" stroke-width="2" fill="none" />
<polyline points="484.0,516.0,477.5,516.5,487.0,521.0,476.5,539.0,485.5,550.5,490.0,555.0,502.5,561.0,499.5,580.5,507.5,592.5" stroke="black" stroke-width="2" fill="none" />
<polyline points="508.0,572.5,496.0,565.0,484.0,560.5,472.0,554.5,460.0,560.5" stroke="black" stroke-width="2" fill="none" />
<polyline points="457.0,554.0,467.5,561.5,479.5,563.0,479.5,571.0,469.0,588.5,461.5,594.5,466.0,594.5,467.5,602.0,477.0,606.5,481.5,615.5,477.0,627.5,478.5,618.5,490.5,611.0,502.5,612.5,502.5,627.0,510.5,639.0" stroke="black" stroke-width="2" fill="none" />
<polyline points="503.5,650.5,494.0,642.0,494.0,639.0,481.0,634.5,469.5,637.5,457.5,633.0,453.0,636.0,440.5,625.5" stroke="black" stroke-width="2" fill="none" />
<polyline points="431.0,623.5,446.0,621.5,445.5,633.5,459.0,634.0,458.5,641.5,473.0,632.5" stroke="black" stroke-width="2" fill="none" />
<polyline points="472.5,651.5,484.0,654.5,495.5,659.5,510.5,653.5,510.0,659.5,510.0,680.0" stroke="black" stroke-width="2" fill="none" />
<polyline points="504.0,674.0,491.5,678.5,485.5,678.5,494.5,680.0,495.5,663.5,496.5,648.0,498.0,645.0,502.5,633.0,501.0,613.5,498.0,613.0,484.5,616.0" stroke="black" stroke-width="2" fill="none" />
<polyline points="491.5,618.0,472.0,636.0,483.0,643.5,472.5,652.5,487.0,662.0,482.5,674.0,469.0,678.5" stroke="black" stroke-width="2" fill="none" />
<polyline points="500.5,666.5,487.0,656.0,495.5,645.5,489.0,635.0,499.5,630.5,496.5,624.5,493.5,633.5,481.5,636.5,475.5,639.5,465.0,641.5,456.0,640.0,469.5,619.0,455.0,607.0,438.0,601.0,426.0,603.0,414.0,595.5" stroke="black" stroke-width="2" fill="none" />
<polyline points="411.0,589.5,423.5,592.5,428.0,588.0" stroke="black" stroke-width="2" fill="none" />
<polyline points="438.5,580.0,450.5,578.5,462.5,589.0,474.5,593.5,486.5,593.5,487.0,598.0,494.0,599.0,506.0,601.0" stroke="black" stroke-width="2" fill="none" />
<polyline points="502.0,575.5,490.0,568.0,478.5,562.0,471.0,563.5,470.0,569.0,462.5,557.0,456.5,549.5" stroke="black" stroke-width="2" fill="none" />
<polyline points="450.0,541.5,462.0,542.0,474.5,542.0,487.0,545.0" stroke="black" stroke-width="2" fill="none" />
<polyline points="495.0,534.5,507.0,534.5" stroke="black" stroke-width="2" fill="none" />
<polyline points="511.0,517.5,510.5,520.5,499.0,526.5,487.0,527.0" stroke="black" stroke-width="2" fill="none" />
<polyline points="460.0,509.5,447.5,510.0,435.5,513.0" stroke="black" stroke-width="2" fill="none" />
<polyline points="431.5,511.0,443.0,506.5,455.0,504.5,475.0,506.0,487.0,504.5,489.0,509.5,501.0,502.0" stroke="black" stroke-width="2" fill="none" />
<polyline points="504.5,480.0,509.0,462.0,496.5,465.0" stroke="black" stroke-width="2" fill="none" />
<polyline points="510.0,486.5,505.5,482.0,489.0,486.5,486.0,491.0,486.0,494.0,474.5,503.0,473.0,498.5,468.5,499.0,463.5,485.5,475.5,476.5,479.5,464.0,482.0,459.5,474.5,452.0,482.5,443.5,487.0,431.5,486.5,419.5,480.5,418.0" stroke="black" stroke-width="2" fill="none" />
<polyline points="479.5,417.5,494.5,410.0,501.0,422.5,502.5,436.0" stroke="black" stroke-width="2" fill="none" />
<polyline points="485.5,429.0,473.5,421.5,461.0,421.5" stroke="black" stroke-width="2" fill="none" />
<polyline points="463.0,426.5,472.0,438.5,466.0,450.5,469.0,464.0,473.0,476.0,482.0,482.0,493.5,483.5" stroke="black" stroke-width="2" fill="none" />
<polyline points="466.5,475.5,462.0,484.5" stroke="black" stroke-width="2" fill="none" />
<polyline points="445.5,496.5,433.5,504.0" stroke="black" stroke-width="2" fill="none" />
<polyline points="439.5,489.0,428.0,486.5" stroke="black" stroke-width="2" fill="none" />
<polyline points="420.0,513.5,432.0,516.5,444.5,516.5,456.0,515.0,472.0,515.5,483.5,526.0,496.0,522.5,499.0,530.0,510.0,535.5" stroke="black" stroke-width="2" fill="none" />
<polyline points="503.5,547.0,492.0,539.0,480.5,529.5,469.0,528.0,457.5,529.5,472.5,522.0,463.5,519.0,456.5,526.5,441.5,526.5,433.5,510.5,439.5,495.0,450.0,494.0,447.0,482.0,437.5,476.0,428.5,457.0,428.5,449.0,416.5,446.0,405.0,444.5,404.0,426.5,386.5,419.0" stroke="black" stroke-width="2" fill="none" />
<polyline points="391.5,420.0,417.0,423.0,422.0,424.5" stroke="black" stroke-width="2" fill="none" />
<polyline points="427.5,414.0,415.5,404.0" stroke="black" stroke-width="2" fill="none" />
<polyline points="411.5,397.5,423.5,402.0" stroke="black" stroke-width="2" fill="none" />
<polyline points="430.5,392.0,443.0,385.5,444.5,396.0" stroke="black" stroke-width="2" fill="none" />
<polyline points="443.0,394.0,455.0,402.5,467.0,408.5" stroke="black" stroke-width="2" fill="none" />
<polyline points="473.5,399.0,461.5,396.0" stroke="black" stroke-width="2" fill="none" />
<polyline points="457.5,392.5,469.5,392.5,481.5,391.0" stroke="black" stroke-width="2" fill="none" />
<polyline points="481.5,380.0,469.5,383.5" stroke="black" stroke-width="2" fill="none" />
<polyline points="483.5,384.5,471.5,389.0,464.0,383.5,453.5,371.5,441.0,368.5" stroke="black" stroke-width="2" fill="none" />
<polyline points="433.0,362.0,431.5,367.5,448.0,374.0,449.5,362.0,462.0,364.5,474.5,358.5,489.5,346.5,491.0,352.0,506.0,352.0" stroke="black" stroke-width="2" fill="none" />
<polyline points="504.5,339.0,492.5,340.5,480.5,339.0,471.5,341.5,461.0,329.5,458.5,341.5,446.5,352.0,438.5,358.0,432.5,355.0,423.5,358.0,425.0,355.0,437.5,337.5,434.5,331.5,425.0,331.5,425.0,318.0,430.0,306.0,435.5,294.5,439.0,282.5,452.5,278.0,460.5,261.5,476.5,256.5,476.0,242.5,465.0,238.0,450.0,226.0,461.5,218.5,473.5,208.5,473.5,196.0,473.5,182.0,461.5,179.0,452.5,180.0,464.5,172.5,460.0,184.5,448.0,186.0,433.0,187.0,427.0,187.0,422.5,171.5,430.0,161.5,419.5,157.5,432.0,147.0,438.0,142.5,422.0,134.0,412.0,129.0,408.0,117.5,409.5,113.0,405.0,110.0,399.0,103.0,384.0,99.5,381.0,98.0,361.5,99.5,365.5,96.5,374.0,95.5,380.0,86.5,370.0,74.5,380.0,63.0,380.0,55.5,380.0,52.5,375.5,45.0,378.5,36.0,379.5,22.0,393.0,14.5,403.5,13.0,397.5,14.0,396.5,12.5,405.5,14.5,393.5,22.0,382.0,24.0" stroke="black" stroke-width="2" fill="none" />
<polyline points="386.0,9.5,376.0,18.5,363.5,20.0,353.5,30.5,351.0,19.5,346.5,12.0,334.5,9.0,331.0,21.0,320.5,12.0,308.5,12.0,293.5,3.5,275.5,3.5,272.5,13.5,258.5,31.5,254.0,42.0,243.5,34.5,241.5,25.5,234.0,19.5,250.5,24.0,238.5,24.5,227.0,27.5" stroke="black" stroke-width="2" fill="none" />
<polyline points="221.5,41.5,209.5,46.0,203.5,38.5,191.5,43.0,185.5,58.5,176.5,59.0,170.5,47.0,152.5,38.5,166.0,28.5,154.0,24.0,143.5,22.5,125.5,18.0,114.0,28.5" stroke="black" stroke-width="2" fill="none" />
<polyline points="113.5,33.0,125.5,27.0,137.0,25.5,149.0,34.5,158.0,54.0,167.5,55.5,167.5,67.0,151.0,79.0,136.5,90.5,124.5,102.5,135.0,89.0,147.0,81.5,158.5,74.0,170.0,66.5" stroke="black" stroke-width="2" fill="none" />
<polyline points="195.5,66.0,207.5,73.5" stroke="black" stroke-width="2" fill="none" />
<polyline points="200.0,76.5,195.5,82.0,184.5,83.5,204.0,95.5,199.0,109.0,187.0,110.5,179.5,121.0,170.5,132.0,170.0,144.0,167.0,153.0,165.5,160.0,154.0,170.5,144.0,175.0,147.0,186.5,156.0,189.0,162.0,203.5,165.0,215.5,169.5,227.5,161.0,233.5,162.5,245.5,185.0,257.5,186.5,260.5,198.5,260.5,210.5,259.5,222.5,253.5,236.5,248.0,248.5,246.5,250.0,248.5,261.5,245.5,273.5,247.0,275.0,248.0,275.0,257.0,282.5,263.0,275.0,268.0" stroke="black" stroke-width="2" fill="none" />
<polyline points="283.5,257.0,286.5,264.0,294.0,276.0,289.5,280.0,295.5,292.0,288.5,304.0,279.5,305.5,265.0,318.0,260.5,330.0,271.0,342.5,266.0,351.5,263.0,348.5,275.0,359.0,279.5,347.0,276.5,336.5,281.0,353.0,293.0,353.5,293.0,356.5,305.0,353.0,317.5,356.0,329.5,352.5,342.5,354.0,354.5,355.5,366.0,352.0,369.0,347.5,382.5,350.5,387.0,354.5,399.0,349.5,403.5,354.0,409.5,363.0,399.0,357.5,402.0,366.0,408.0,382.5,406.5,394.5,409.5,406.0,414.5,412.0,424.0,421.0,439.5,425.5,443.0,442.0,449.5,444.5,445.0,456.5,429.5,475.0,419.0,476.5,402.5,493.0" stroke="black" stroke-width="2" fill="none" />
<polyline points="415.0,512.0,415.0,509.0,409.0,512.0,424.5,523.5" stroke="black" stroke-width="2" fill="none" />
<polyline points="419.0,533.5,407.0,525.0" stroke="black" stroke-width="2" fill="none" />
<polyline points="407.5,522.5,419.0,530.0,431.0,536.0" stroke="black" stroke-width="2" fill="none" />
<polyline points="415.5,552.5,403.5,549.5" stroke="black" stroke-width="2" fill="none" />
<polyline points="392.5,556.5,392.5,568.5,386.0,580.0,378.5,586.0,366.5,593.5,363.5,605.5,368.0,617.5,378.5,623.5,382.0,625.5,389.5,645.0,400.5,656.5" stroke="black" stroke-width="2" fill="none" />
<polyline points="392.5,657.5,388.0,659.0,400.0,670.5" stroke="black" stroke-width="2" fill="none" />
<polyline points="397.5,667.5,385.0,654.0" stroke="black" stroke-width="2" fill="none" />
<polyline points="412.0,651.0,423.5,648.0,435.5,656.5,447.0,655.0" stroke="black" stroke-width="2" fill="none" />
<polyline points="452.5,673.5,452.0,661.5,456.5,660.5,443.5,672.5,439.5,665.0,428.0,651.5,438.0,651.5,441.0,636.5,429.0,630.5,426.0,629.0,411.5,646.5" stroke="black" stroke-width="2" fill="none" />
<polyline points="428.5,648.5,424.5,661.0,438.0,673.0" stroke="black" stroke-width="2" fill="none" />
<polyline points="464.0,615.0,452.0,609.0" stroke="black" stroke-width="2" fill="none" />
<polyline points="455.0,607.5,467.5,610.5" stroke="black" stroke-width="2" fill="none" />
<polyline points="471.0,598.5,461.5,594.0,449.0,595.5,446.5,600.0" stroke="black" stroke-width="2" fill="none" />
<polyline points="453.0,570.5,465.0,578.0,481.5,571.0,493.5,574.0" stroke="black" stroke-width="2" fill="none" />
<polyline points="497.5,577.5,496.0,565.5" stroke="black" stroke-width="2" fill="none" />
<polyline points="505.5,593.5,480.5,581.5,462.5,580.0,455.5,568.0,431.5,569.5" stroke="black" stroke-width="2" fill="none" />
<polyline points="430.5,569.0,427.5,581.0,430.5,595.5,423.0,600.0,431.0,609.0" stroke="black" stroke-width="2" fill="none" />
<polyline points="453.0,587.0,449.5,584.0,437.5,585.0,427.0,583.5,415.0,585.0,403.0,591.0,400.0,601.5,412.0,592.5,407.5,580.5,413.0,576.0,404.0,561.0,420.5,550.5,433.0,538.5,411.5,527.0,395.0,521.0" stroke="black" stroke-width="2" fill="none" />
<polyline points="392.5,515.0,406.0,521.0,418.0,533.5,427.0,546.0,425.5,558.5,420.0,560.0,415.5,569.0,403.5,578.0,401.5,588.5,391.0,602.0,385.5,623.5,394.0,635.0,400.0,638.0,407.5,642.5,427.5,628.5,429.0,634.5" stroke="black" stroke-width="2" fill="none" />
<polyline points="465.5,627.0,459.5,625.0,447.5,625.5,435.0,618.0,423.0,621.0,415.5,611.5,412.5,605.5,391.5,610.5,390.0,597.0,384.0,612.5,368.0,612.5,356.0,621.5" stroke="black" stroke-width="2" fill="none" />
<polyline points="355.0,629.0,367.0,633.5" stroke="black" stroke-width="2" fill="none" />
<polyline points="393.5,631.5,389.0,634.0,387.5,617.5,376.0,626.5,367.5,613.0,375.5,601.5,375.5,585.0,369.5,575.0,363.5,572.0,356.0,581.5,356.0,584.0" stroke="black" stroke-width="2" fill="none" />
<polyline points="352.0,596.5,364.0,596.5,371.5,597.0" stroke="black" stroke-width="2" fill="none" />
<polyline points="366.5,591.5,354.5,596.0,351.5,611.0,348.5,608.0" stroke="black" stroke-width="2" fill="none" />
<polyline points="331.5,582.5,343.0,584.5,355.0,571.5,364.0,582.0,373.5,564.5" stroke="black" stroke-width="2" fill="none" />
<polyline points="376.0,560.5,369.0,559.0,357.0,559.0" stroke="black" stroke-width="2" fill="none" />
<polyline points="356.5,525.5,366.5,510.5,372.5,498.5,375.5,486.5,368.5,469.5,356.0,465.0" stroke="black" stroke-width="2" fill="none" />
<polyline points="346.0,469.0,348.0,457.0" stroke="black" stroke-width="2" fill="none" />
<polyline points="350.5,446.5,347.5,449.5,337.5,452.5,326.0,467.5,329.0,476.5" stroke="black" stroke-width="2" fill="none" />
<polyline points="332.5,498.0,357.5,493.5,371.0,480.0,367.5,477.0,355.0,480.5,347.5,479.0,335.5,476.0,334.0,468.0,335.5,488.5,328.5,484.0,316.5,468.5,317.0,453.5,315.5,444.5,330.5,436.5,329.0,426.0,321.5,423.0,323.0,417.0,345.5,408.0,361.0,405.0,345.5,400.5,341.0,394.5,345.5,391.5,329.0,394.5,318.5,393.5,309.5,390.5,318.5,389.0,318.5,383.5" stroke="black" stroke-width="2" fill="none" />
<polyline points="316.5,372.0,304.5,366.5,292.5,368.0,281.0,372.0,269.0,370.5" stroke="black" stroke-width="2" fill="none" />
<polyline points="266.5,384.0,278.5,388.0,298.5,394.5,310.5,397.5" stroke="black" stroke-width="2" fill="none" />
<polyline points="317.5,418.5,317.5,418.0,323.5,430.5,329.5,448.5,327.0,462.5,325.5,476.0" stroke="black" stroke-width="2" fill="none" />
<polyline points="310.5,505.0,298.5,503.5" stroke="black" stroke-width="2" fill="none" />
<polyline points="295.0,497.0,298.0,509.0,305.0,515.0,317.0,514.0,329.0,511.0,340.5,506.5,352.5,506.0,366.0,504.5" stroke="black" stroke-width="2" fill="none" />
<polyline points="385.0,513.5,397.5,528.5,409.5,536.5,421.5,544.0,434.0,542.5" stroke="black" stroke-width="2" fill="none" />
<polyline points="430.5,573.0,434.0,585.0,452.0,582.0,441.5,594.0,447.5,600.5,455.0,612.5,456.5,620.0,469.0,617.0,476.5,623.0,488.5,620.5" stroke="black" stroke-width="2" fill="none" />
<polyline points="404.5,570.0,400.5,558.0,391.5,543.0" stroke="black" stroke-width="2" fill="none" />
<polyline points="393.0,558.5,397.5,570.5" stroke="black" stroke-width="2" fill="none" />
<polyline points="375.5,582.5,374.5,570.0,362.5,567.0,350.5,568.5,340.0,566.5,332.5,575.5,320.5,579.5,306.5,576.5,304.0,569.0,298.0,576.5,286.5,581.5,271.5,572.5,259.5,570.0,279.5,557.5,270.5,551.5,269.0,539.5,267.5,532.0,255.0,533.5" stroke="black" stroke-width="2" fill="none" />
<polyline points="250.0,531.0,262.0,524.5,274.0,517.5,287.5,528.0,299.5,531.0,311.0,534.0,323.5,535.0,335.5,529.0,335.5,542.5,347.5,532.0" stroke="black" stroke-width="2" fill="none" />
<polyline points="351.0,521.5,339.0,521.5" stroke="black" stroke-width="2" fill="none" />
<polyline points="378.0,522.5,388.0,521.0,383.5,533.0,376.0,545.0,371.5,564.5,380.5,573.0,380.5,585.5,393.0,588.5,396.0,599.0,406.5,608.0,415.5,612.5,417.0,621.5,416.0,633.5,417.0,638.0,410.5,650.5,407.0,659.5,406.0,671.0,419.5,680.0" stroke="black" stroke-width="2" fill="none" />
<polyline points="379.5,671.5,372.0,664.0,357.0,644.5,348.0,632.5,343.5,620.5,353.5,608.5,343.5,607.0,339.0,600.0,327.5,604.0,326.0,589.0,318.5,582.5,326.0,571.5,321.5,562.5,303.5,563.5,291.5,563.5,287.5,552.0,274.0,545.0,265.5,542.0,259.5,546.5,259.5,563.5,259.5,551.5,255.0,538.0,243.0,537.5,231.0,549.5" stroke="black" stroke-width="2" fill="none" />
<polyline points="232.5,561.5,244.5,564.0,257.0,570.0,269.0,561.0,273.0,566.5,290.5,564.5,302.5,560.0,314.0,555.5" stroke="black" stroke-width="2" fill="none" />
<polyline points="324.5,548.0,324.5,540.5,312.5,539.0,306.5,549.5,294.5,540.5,282.5,533.5,270.0,528.5" stroke="black" stroke-width="2" fill="none" />
<polyline points="261.0,534.0,273.0,540.0,285.0,545.0,283.5,549.5,285.0,561.5,286.5,566.0,287.0,575.0,277.0,587.0,271.5,599.0,274.5,604.5,263.5,622.5,259.5,631.5" stroke="black" stroke-width="2" fill="none" />
<polyline points="275.0,644.5,287.0,646.5" stroke="black" stroke-width="2" fill="none" />
<polyline points="300.0,612.5,313.5,610.0,310.0,598.5,320.5,589.5,331.0,582.0,338.5,576.0,343.5,574.5,339.0,568.0,325.5,549.5,325.5,544.0,326.0,533.0,332.5,521.0,323.5,501.5,346.0,493.5,352.0,482.0,344.5,477.5,353.0,459.5,361.5,454.0,358.5,451.0,340.5,458.5,329.0,464.5,325.0,464.5,317.0,468.0,311.5,476.5,305.0,468.0,294.5,463.5,312.5,459.0,312.0,447.0,300.0,441.0,303.5,433.5,303.5,427.5,286.0,407.5,272.5,404.5,268.5,404.5" stroke="black" stroke-width="2" fill="none" />
<polyline points="275.0,412.5,287.0,417.0,300.5,425.5,312.0,431.5,324.0,437.5,335.5,437.5,347.5,431.5,359.5,433.0,371.5,440.5,394.0,425.5,406.0,439.0,410.5,433.5,422.5,441.0,435.0,444.0" stroke="black" stroke-width="2" fill="none" />
<polyline points="422.0,442.5,410.0,437.5" stroke="black" stroke-width="2" fill="none" />
<polyline points="403.5,421.0,418.5,433.0,447.5,453.5,459.5,457.0,471.0,464.5,487.5,467.5,495.5,472.5,503.0,472.5" stroke="black" stroke-width="2" fill="none" />
<polyline points="465.0,434.0,453.0,426.5" stroke="black" stroke-width="2" fill="none" />
<polyline points="440.5,411.5,432.5,415.0,441.5,400.0,430.0,397.0,435.5,385.5,438.5,378.0,426.5,378.0" stroke="black" stroke-width="2" fill="none" />
<polyline points="423.5,386.0,423.0,398.0,427.5,401.5,440.5,406.0" stroke="black" stroke-width="2" fill="none" />
<polyline points="426.0,419.0,413.5,411.5,415.0,419.5,402.5,416.5" stroke="black" stroke-width="2" fill="none" />
<polyline points="397.5,415.5,409.5,406.5,417.0,406.5,424.5,427.5,437.5,424.0" stroke="black" stroke-width="2" fill="none" />
<polyline points="450.5,453.0,459.5,465.0" stroke="black" stroke-width="2" fill="none" />
<polyline points="470.5,446.5,469.0,443.5,457.0,439.0,445.5,439.5,433.5,439.0,421.5,434.5,410.0,427.0,398.0,422.5" stroke="black" stroke-width="2" fill="none" />
<polyline points="382.5,443.5,382.5,455.5,390.0,456.0,405.0,457.5,417.0,458.0" stroke="black" stroke-width="2" fill="none" />
<polyline points="400.5,458.5,405.0,470.5" stroke="black" stroke-width="2" fill="none" />
<polyline points="387.0,480.5,393.0,468.5,400.0,456.5,391.0,444.0,383.5,438.5,383.5,428.0,388.0,416.0,367.0,405.5,352.5,393.5,343.5,383.0,330.0,381.0,327.0,381.0,343.0,371.5,340.0,357.0,320.5,346.5,311.5,339.5,326.5,323.0,327.0,311.5,324.0,307.0" stroke="black" stroke-width="2" fill="none" />
<polyline points="309.5,313.0,321.5,323.5,330.0,337.0,328.5,349.0,349.5,344.5,361.5,338.5,371.5,340.0,382.0,337.0,386.5,346.0,399.0,346.0,411.0,343.0,423.0,349.0" stroke="black" stroke-width="2" fill="none" />
<polyline points="433.0,314.0,445.0,309.5" stroke="black" stroke-width="2" fill="none" />
<polyline points="454.5,303.0,442.5,297.0" stroke="black" stroke-width="2" fill="none" />
<polyline points="436.5,300.0,448.5,304.5" stroke="black" stroke-width="2" fill="none" />
<polyline points="433.0,310.5,439.0,303.0,457.0,304.5,442.0,312.5,438.0,332.0,447.0,334.5" stroke="black" stroke-width="2" fill="none" />
<polyline points="460.0,340.5,472.0,349.5,484.0,343.5" stroke="black" stroke-width="2" fill="none" />
<polyline points="487.5,343.5,484.5,355.5,489.0,368.0,474.5,381.5,485.0,383.0,486.5,389.0,480.5,401.0,480.0,408.5,475.5,420.5,460.0,425.0,469.5,427.0,479.5,427.0,478.5,434.5,490.5,443.5,501.5,440.0" stroke="black" stroke-width="2" fill="none" />
<polyline points="508.0,447.5,502.0,455.5,494.5,453.5,482.5,455.0,481.5,456.5,468.5,455.0,443.5,461.0,440.5,456.5,434.5,457.0,428.0,445.0,408.5,439.0,399.5,431.0,396.5,419.0,399.5,407.0,398.0,393.0,380.0,396.0,368.0,390.5,356.0,393.0,345.5,387.0,335.0,367.5,327.5,357.0,316.0,355.5,300.5,342.0,300.5,336.0,295.5,324.0,294.0,319.0,274.5,323.5" stroke="black" stroke-width="2" fill="none" />
<polyline points="275.5,321.0,288.0,319.5" stroke="black" stroke-width="2" fill="none" />
<polyline points="289.5,327.5,277.0,326.0" stroke="black" stroke-width="2" fill="none" />
<polyline points="276.0,313.0,288.0,313.0,293.5,318.5,296.5,329.0,308.5,333.5,314.5,326.0,326.5,324.5,330.5,329.0,342.0,328.5" stroke="black" stroke-width="2" fill="none" />
<polyline points="345.5,322.5,333.5,319.5" stroke="black" stroke-width="2" fill="none" />
<polyline points="343.0,301.0,361.0,304.0,371.5,304.0" stroke="black" stroke-width="2" fill="none" />
<polyline points="369.5,304.5,381.5,313.5" stroke="black" stroke-width="2" fill="none" />
<polyline points="390.5,326.0,379.0,328.5,367.0,324.0,355.0,325.5,344.5,316.0,332.5,301.0,320.5,303.5,308.0,303.5" stroke="black" stroke-width="2" fill="none" />
<polyline points="313.0,334.5,313.5,337.5,325.5,342.0,337.5,335.0" stroke="black" stroke-width="2" fill="none" />
<polyline points="357.5,345.0,360.0,337.0" stroke="black" stroke-width="2" fill="none" />
<polyline points="366.0,357.0,373.5,364.5,384.0,376.5,380.0,381.5,388.5,383.5,399.0,376.5,399.0,381.0" stroke="black" stroke-width="2" fill="none" />
<polyline points="388.0,397.0,376.0,391.0,364.0,382.0" stroke="black" stroke-width="2" fill="none" />
<polyline points="372.0,380.0,376.5,380.0,367.5,368.0" stroke="black" stroke-width="2" fill="none" />
<polyline points="345.5,390.0,357.5,400.5,369.0,409.5" stroke="black" stroke-width="2" fill="none" />
<polyline points="351.5,413.0,337.5,425.0" stroke="black" stroke-width="2" fill="none" />
<polyline points="333.5,429.0,322.0,424.0" stroke="black" stroke-width="2" fill="none" />
<polyline points="325.0,430.0,313.5,419.5" stroke="black" stroke-width="2" fill="none" />
<polyline points="323.5,404.5,311.5,411.0,299.5,416.0,289.0,408.5,276.5,396.5,264.0,396.5,252.0,394.5,240.0,384.0,228.0,367.5" stroke="black" stroke-width="2" fill="none" />
<polyline points="223.5,365.0,243.0,369.5,252.0,375.0,252.0,387.0,258.5,397.5,266.0,400.5,275.0,412.5,286.0,420.0,292.0,424.5,290.5,438.0" stroke="black" stroke-width="2" fill="none" />
<polyline points="294.5,457.0,282.5,460.0" stroke="black" stroke-width="2" fill="none" />
<polyline points="275.5,451.0,264.0,445.5,264.0,438.5,252.5,429.5" stroke="black" stroke-width="2" fill="none" />
<polyline points="250.0,435.0,258.5,447.0,258.0,450.5" stroke="black" stroke-width="2" fill="none" />
<polyline points="228.0,452.5,240.5,464.5,252.5,472.5,269.0,471.0,277.0,468.0,289.0,469.5" stroke="black" stroke-width="2" fill="none" />
<polyline points="289.0,435.0,276.5,434.5,264.5,440.5,252.5,436.0,245.0,428.5,233.5,416.0,228.0,407.0,216.0,408.5" stroke="black" stroke-width="2" fill="none" />
<polyline points="211.0,416.0,224.5,411.5,243.0,423.5,241.0,435.5,251.5,447.5,261.5,461.0,266.0,464.0,272.0,465.5,282.5,479.0,271.5,496.5,280.5,499.5,282.0,507.0,286.5,507.5,291.0,519.5,297.0,534.5,301.5,534.5,302.0,534.5,310.0,528.5,318.0,519.5,330.0,519.0,331.0,513.0,343.5,510.0,355.5,523.5,366.0,515.0" stroke="black" stroke-width="2" fill="none" />
<polyline points="358.0,518.0,346.0,515.0,326.5,525.0,310.0,522.0,304.0,525.0,292.0,523.5,275.5,505.0,263.5,503.0,251.0,496.5,239.0,507.0,230.0,514.5,218.5,513.0" stroke="black" stroke-width="2" fill="none" />
<polyline points="215.0,488.0,203.0,477.5" stroke="black" stroke-width="2" fill="none" />
<polyline points="200.5,475.0,198.5,485.0" stroke="black" stroke-width="2" fill="none" />
<polyline points="199.5,493.0,187.5,479.5" stroke="black" stroke-width="2" fill="none" />
<polyline points="185.0,475.0,201.5,463.0,210.5,474.5,213.5,486.5" stroke="black" stroke-width="2" fill="none" />
<polyline points="225.5,476.0,213.0,467.0" stroke="black" stroke-width="2" fill="none" />
<polyline points="213.0,456.5,225.0,460.0,226.5,469.0,240.5,472.0" stroke="black" stroke-width="2" fill="none" />
<polyline points="210.5,450.0,222.5,455.0,229.5,468.5,231.0,480.5,234.5,492.5,231.5,500.0,225.0,504.5,240.0,518.5,243.5,514.0,255.5,511.0" stroke="black" stroke-width="2" fill="none" />
<polyline points="250.0,530.0,251.5,542.0,236.5,535.5,248.5,543.0,262.0,526.5,274.0,525.0,286.0,522.0,289.0,507.5,301.0,510.5,313.0,510.5,325.0,501.5,337.0,500.0" stroke="black" stroke-width="2" fill="none" />
<polyline points="294.5,474.0,281.0,474.0,279.5,464.5,267.5,466.0,260.0,456.5,248.0,453.5,235.5,453.5,220.5,449.0,208.5,446.0" stroke="black" stroke-width="2" fill="none" />
<polyline points="203.5,457.0,221.5,464.5,239.0,479.5,242.0,492.0,248.5,502.5,242.5,511.0,256.0,511.0,249.5,526.0,232.5,540.5,229.5,552.5,232.5,565.0,228.0,569.5,232.5,581.5,226.5,584.5,232.5,596.5,228.0,611.5,237.0,623.5,238.5,626.5,244.5,627.0,256.0,621.0,256.0,616.5" stroke="black" stroke-width="2" fill="none" />
<polyline points="255.5,611.5,243.5,604.0" stroke="black" stroke-width="2" fill="none" />
<polyline points="237.5,621.0,225.0,615.0" stroke="black" stroke-width="2" fill="none" />
<polyline points="227.5,616.0,224.5,604.0,224.5,598.0" stroke="black" stroke-width="2" fill="none" />
<polyline points="232.5,574.5,244.0,577.5,263.5,576.0,275.5,577.5,287.5,575.5,299.5,570.5" stroke="black" stroke-width="2" fill="none" />
<polyline points="301.5,574.5,288.0,588.0,291.0,594.5,298.5,596.0,302.5,603.5,306.0,615.5" stroke="black" stroke-width="2" fill="none" />
<polyline points="302.5,592.5,290.5,589.5,278.5,585.0,266.5,582.0,254.5,579.0" stroke="black" stroke-width="2" fill="none" />
<polyline points="278.5,587.5,280.0,604.0,273.5,616.5,287.0,619.5" stroke="black" stroke-width="2" fill="none" />
<polyline points="250.0,617.0,254.5,601.5,256.0,591.0,245.5,569.5,225.5,562.0" stroke="black" stroke-width="2" fill="none" />
<polyline points="217.0,556.0,216.5,567.5,227.0,584.0,238.5,594.5,246.0,600.5,253.5,587.0,260.5,596.0,262.0,588.5,274.0,600.5,278.5,594.5" stroke="black" stroke-width="2" fill="none" />
<polyline points="305.0,582.0,308.0,594.0" stroke="black" stroke-width="2" fill="none" />
<polyline points="341.0,638.5,338.0,631.0,333.5,619.0,329.0,607.0,320.0,593.5,311.0,586.0,299.5,583.0,297.5,587.5,293.0,595.0,282.5,590.5,270.5,590.5,258.5,583.5,246.5,589.5,245.0,580.5,234.0,586.5,222.0,582.0,210.0,581.5,192.0,572.5,179.5,576.5,179.5,569.0,166.0,559.0,145.0,524.5,133.0,529.0,121.5,529.0,114.0,540.0,103.5,521.5,91.5,532.0,84.0,536.5,69.0,535.5,56.5,540.0,44.5,542.5,76.0,527.5,103.0,515.5,114.0,502.0,126.5,497.5,117.5,490.0,101.0,476.5,90.5,472.0,92.0,462.5,92.5,451.0,85.0,443.0,83.0,431.0,74.0,419.0,80.0,413.0,89.0,410.0,105.5,402.5,96.0,390.5,106.0,380.0,109.5,375.5,117.0,363.5,114.0,353.0,108.5,350.0,99.5,341.0,95.0,329.0,88.0,326.0,86.5,315.5,81.0,303.5,78.0,292.0,87.0,280.0,84.0,272.5,84.0,260.5,85.5,248.5,84.0,236.5,84.0,224.5,87.0,212.5,81.0,200.5,75.0,189.0,80.5,178.5,69.5,174.0,65.0,183.5" stroke="black" stroke-width="2" fill="none" />
<polyline points="63.0,175.0,70.5,187.0,71.5,211.5,79.5,219.0,72.0,217.0,74.0,221.5" stroke="black" stroke-width="2" fill="none" />
<polyline points="91.5,223.5,103.5,216.0,115.5,215.5,127.0,215.5" stroke="black" stroke-width="2" fill="none" />
<polyline points="124.5,202.5,132.0,214.0,123.0,224.5,127.5,237.5,145.5,243.5,157.5,239.0,160.5,231.5,172.5,227.0,184.5,228.5,188.5,234.5,200.5,236.5,213.0,233.5,217.5,239.5,229.5,235.0,232.0,230.5,242.5,229.0,254.5,218.5,267.0,230.5,279.0,227.0,286.0,234.5,302.5,234.0,313.0,231.0,315.0,239.0,326.0,246.5,332.0,239.5" stroke="black" stroke-width="2" fill="none" />
<polyline points="333.5,219.5,345.5,216.0,360.5,220.5,378.5,224.0" stroke="black" stroke-width="2" fill="none" />
<polyline points="374.5,235.5,386.5,238.5,391.0,234.0,390.5,246.0,402.5,250.0" stroke="black" stroke-width="2" fill="none" />
<polyline points="415.0,260.0,427.0,272.0,432.5,279.5" stroke="black" stroke-width="2" fill="none" />
<polyline points="416.0,267.5,401.5,257.0,389.5,251.0,377.5,238.5" stroke="black" stroke-width="2" fill="none" />
<polyline points="366.5,243.5,378.5,246.0,391.0,254.0,390.5,269.0,402.5,263.5,414.0,258.0,421.5,266.5,433.5,269.5" stroke="black" stroke-width="2" fill="none" />
<polyline points="444.0,276.0,432.0,289.5,412.5,285.0,400.5,281.0,384.5,270.0,382.0,261.0,370.0,268.5,358.5,267.5,346.5,263.5" stroke="black" stroke-width="2" fill="none" />
<polyline points="345.5,273.5,356.0,276.5,359.0,278.0" stroke="black" stroke-width="2" fill="none" />
<polyline points="348.5,289.0,336.5,295.0,334.5,298.0,322.5,291.5,310.0,297.5,303.0,294.0,297.5,300.5,281.0,305.0,278.5,307.5,265.0,317.0,253.0,319.5,241.5,318.0,234.0,322.5,221.5,321.5,214.0,314.0,212.5,308.0,194.5,311.0,182.5,321.5,170.0,336.5,156.5,349.0,144.5,340.0,132.5,339.0,113.0,331.5,101.5,318.0,89.5,308.0" stroke="black" stroke-width="2" fill="none" />
<polyline points="88.0,303.0,100.0,309.0,99.5,314.0,111.5,330.5" stroke="black" stroke-width="2" fill="none" />
<polyline points="120.0,314.5,132.0,316.0,142.5,329.5,150.0,341.5,171.5,343.0,165.5,358.0,168.5,366.0,187.0,369.5,166.0,378.5,167.0,390.0,166.5,390.0,173.0,387.0,185.5,384.0,188.5,378.0,200.5,379.0,200.5,395.5,206.5,415.0,211.0,408.5,223.0,402.5,218.5,392.0" stroke="black" stroke-width="2" fill="none" />
<polyline points="221.0,386.5,219.5,377.5,212.0,392.5,202.5,389.5,190.5,393.5,178.5,394.5,170.5,396.0,166.0,397.0,181.0,385.0" stroke="black" stroke-width="2" fill="none" />
<polyline points="181.5,386.5,189.0,382.0,199.5,395.0,192.5,402.0,168.5,404.5,180.5,409.0,192.5,401.5,203.0,404.5,204.5,406.0,197.5,418.0,190.0,419.5,194.5,425.5,193.0,433.0,207.5,437.5,198.5,451.5,198.5,464.0,202.0,476.0,209.5,488.0,218.5,499.0,219.0,511.0,228.0,517.0,233.5,520.0,245.5,526.0,248.0,516.0,257.0,514.5,262.5,519.0,280.5,505.5,293.0,499.5,294.5,504.0,302.0,496.5" stroke="black" stroke-width="2" fill="none" />
<polyline points="308.0,470.0,305.0,479.0,293.0,477.5,281.0,477.5,268.0,483.5,257.5,483.5,250.5,462.5,238.0,456.5,232.0,438.5,230.5,434.0,227.5,429.5,215.5,429.5,203.5,428.5,202.0,415.0,194.5,430.0,190.0,421.5,178.0,426.0,177.5,429.0,165.0,429.0" stroke="black" stroke-width="2" fill="none" />
<polyline points="164.0,421.0,176.5,413.5,187.0,411.0" stroke="black" stroke-width="2" fill="none" />
<polyline points="182.0,418.0,170.0,416.0" stroke="black" stroke-width="2" fill="none" />
<polyline points="193.5,444.0,205.5,453.0,214.5,466.5,214.5,475.5,226.0,484.5,238.0,486.5" stroke="black" stroke-width="2" fill="none" />
<polyline points="198.0,521.0,198.5,518.5,186.5,512.5" stroke="black" stroke-width="2" fill="none" />
<polyline points="181.5,509.5,192.0,522.0,198.5,525.0,209.0,535.0,212.5,536.5" stroke="black" stroke-width="2" fill="none" />
<polyline points="215.0,533.5,202.5,529.0,190.5,524.0,186.0,509.0,174.0,506.0,168.0,489.0,156.0,487.0,150.5,488.5,143.0,497.5,134.5,494.0,125.0,485.5,112.5,493.0,106.5,496.5,113.0,495.0,104.0,495.0,95.0,488.0,87.5,488.0,85.0,476.0,70.5,475.0,58.5,473.5" stroke="black" stroke-width="2" fill="none" />
<polyline points="63.0,478.5,65.0,490.5,63.5,493.5" stroke="black" stroke-width="2" fill="none" />
<polyline points="66.5,503.5,61.0,511.0,61.0,500.5,49.0,501.0,45.5,498.0,33.5,515.0,21.5,515.0,17.0,511.5,15.5,492.0,3.5,507.0,2.0,516.0" stroke="black" stroke-width="2" fill="none" />
<polyline points="3.0,523.5,15.0,522.0,16.5,526.5" stroke="black" stroke-width="2" fill="none" />
<polyline points="32.0,542.0,44.5,539.0" stroke="black" stroke-width="2" fill="none" />
<polyline points="35.5,544.5,47.5,546.0,53.5,559.5,44.5,564.0,49.0,578.5,58.5,586.0,60.0,595.0,56.5,606.5,47.5,618.5,47.5,633.5,56.5,642.5,68.5,647.0,81.5,644.0,94.0,648.0,106.0,648.0" stroke="black" stroke-width="2" fill="none" />
<polyline points="108.0,637.5,96.0,634.5" stroke="black" stroke-width="2" fill="none" />
<polyline points="92.0,618.5,104.0,618.0" stroke="black" stroke-width="2" fill="none" />
<polyline points="130.0,613.0,137.5,622.0,137.5,634.0,146.5,637.0,152.5,639.0,134.5,657.5,143.0,653.0,144.0,645.5,156.0,635.5" stroke="black" stroke-width="2" fill="none" />
<polyline points="162.0,648.5,163.5,642.5,180.0,636.5,168.5,624.5,162.5,612.5,164.5,599.0,160.5,581.0,162.0,569.0" stroke="black" stroke-width="2" fill="none" />
<polyline points="160.0,577.0,172.0,584.5" stroke="black" stroke-width="2" fill="none" />
<polyline points="184.5,588.5,196.5,585.5" stroke="black" stroke-width="2" fill="none" />
<polyline points="190.5,595.0,202.5,596.5" stroke="black" stroke-width="2" fill="none" />
<polyline points="203.0,601.0,203.0,600.5,196.0,583.0,185.5,576.5,185.0,569.0,180.5,551.0,171.5,549.5,168.5,537.5,164.0,525.5,171.0,516.5,163.0,506.0,159.0,494.0,148.5,506.0" stroke="black" stroke-width="2" fill="none" />
<polyline points="148.0,502.0,160.0,493.0,172.0,502.0,174.5,502.0,181.5,514.0,192.0,526.0,196.5,547.0,206.0,549.0,201.5,561.0,203.0,573.0,212.0,585.0,204.5,598.5,204.5,617.0,216.5,632.5" stroke="black" stroke-width="2" fill="none" />
<polyline points="218.0,656.0,206.5,660.0" stroke="black" stroke-width="2" fill="none" />
<polyline points="208.5,662.0,225.0,667.0,246.0,679.0" stroke="black" stroke-width="2" fill="none" />
<polyline points="262.0,675.5,273.5,676.0" stroke="black" stroke-width="2" fill="none" />
<polyline points="247.0,667.0,234.5,662.5" stroke="black" stroke-width="2" fill="none" />
<polyline points="236.0,660.5,247.5,665.0,264.0,654.5,266.5,655.5,269.0,661.0,269.0,663.5" stroke="black" stroke-width="2" fill="none" />
<polyline points="248.0,679.5,236.0,670.5,224.5,665.5" stroke="black" stroke-width="2" fill="none" />
<polyline points="236.0,659.0,249.5,661.0,261.0,676.0,271.5,671.5,283.0,673.0,294.5,661.0,296.0,668.5" stroke="black" stroke-width="2" fill="none" />
<polyline points="208.5,636.5,207.0,630.5,201.0,623.0,189.0,622.0,177.0,641.5,165.5,633.5,156.5,630.5,155.0,625.0,143.0,625.0,129.5,623.0,123.5,641.0,121.0,649.5,127.0,642.5,119.0,627.0,109.0,631.0,125.5,623.5,130.5,610.0,138.0,602.5,140.5,592.0,121.0,577.0,120.0,568.5,114.0,567.5,118.5,546.5,132.0,527.5,137.0,515.5,122.0,512.5,110.0,520.0" stroke="black" stroke-width="2" fill="none" />
<polyline points="111.5,518.0,94.0,530.0,88.0,539.0,84.5,555.0,65.0,562.0,60.5,554.5,73.0,549.5,80.5,549.5,92.0,548.0" stroke="black" stroke-width="2" fill="none" />
<polyline points="83.0,555.0,95.0,554.5,92.0,568.0,81.5,580.0,72.5,581.5,69.5,595.0,68.0,602.5,69.5,614.0,64.5,620.0,70.5,624.0,76.0,642.0,100.0,650.0,110.5,665.0,118.0,680.0,134.5,669.5,145.5,667.0,163.5,660.5,176.0,657.5" stroke="black" stroke-width="2" fill="none" />
<polyline points="182.0,661.5,170.0,663.0" stroke="black" stroke-width="2" fill="none" />
<polyline points="170.0,662.5,179.0,674.0,186.5,678.5" stroke="black" stroke-width="2" fill="none" />
<polyline points="184.0,647.5,172.5,655.5,160.5,657.0,148.0,659.0,136.0,660.5" stroke="black" stroke-width="2" fill="none" />
<polyline points="154.0,660.5,152.5,671.0,170.0,676.0" stroke="black" stroke-width="2" fill="none" />
<polyline points="171.0,627.0,156.0,609.5,135.0,605.0,123.0,613.0,119.0,599.5,111.5,603.5,111.5,603.5,111.5,588.5,100.0,588.5" stroke="black" stroke-width="2" fill="none" />
<polyline points="96.5,588.5,108.5,584.0" stroke="black" stroke-width="2" fill="none" />
<polyline points="121.5,592.5,133.5,594.5" stroke="black" stroke-width="2" fill="none" />
<polyline points="120.0,569.5,108.0,568.0" stroke="black" stroke-width="2" fill="none" />
<polyline points="100.5,560.5,97.5,572.5,90.0,584.5,91.0,597.0,94.0,609.0,87.5,621.5,97.0,630.5,92.5,637.5,99.0,646.0,103.5,643.0,106.5,653.5,115.5,664.0,127.5,664.5,139.0,666.0" stroke="black" stroke-width="2" fill="none" />
<polyline points="142.5,626.5,125.5,629.5,107.5,629.5,99.5,620.5,97.5,626.0,88.0,639.5,76.0,634.0,58.0,629.5,47.0,629.5,35.0,630.5" stroke="black" stroke-width="2" fill="none" />
<polyline points="47.5,617.5,56.5,614.5,55.0,626.0,61.0,645.5,62.0,648.5,54.5,660.5,51.5,672.5" stroke="black" stroke-width="2" fill="none" />
<polyline points="59.5,659.5,72.5,679.0" stroke="black" stroke-width="2" fill="none" />
<polyline points="71.5,671.0,59.5,659.0" stroke="black" stroke-width="2" fill="none" />
<polyline points="58.0,656.0,70.0,658.5" stroke="black" stroke-width="2" fill="none" />
<polyline points="75.5,635.0,84.5,654.5,75.0,659.5,78.0,665.5,96.5,662.5,109.0,667.5,121.0,679.5,135.0,675.0" stroke="black" stroke-width="2" fill="none" />
<polyline points="99.5,612.0,84.0,615.0,82.0,620.5,70.5,619.0" stroke="black" stroke-width="2" fill="none" />
<polyline points="50.5,582.5,39.0,587.0,27.0,590.0" stroke="black" stroke-width="2" fill="none" />
<polyline points="25.5,578.0,37.5,575.0,51.0,588.5,63.0,591.0" stroke="black" stroke-width="2" fill="none" />
<polyline points="70.5,572.5,66.0,584.0,66.0,595.5,72.0,594.0,86.0,574.0,100.0,566.5,121.0,575.5,133.0,582.0,148.0,591.5,163.5,593.0,165.0,597.5" stroke="black" stroke-width="2" fill="none" />
<polyline points="157.0,585.5,147.0,585.5,135.0,590.0,125.0,586.0,113.5,584.5,105.0,598.5,101.0,606.0,87.5,601.5,87.5,604.5,75.5,608.5,70.5,613.0,58.5,613.0,52.0,598.0,41.0,594.5,29.0,602.0,12.5,585.0,3.5,574.5,14.0,562.5,3.5,559.5,3.5,549.0,20.0,540.0,33.5,528.0,30.5,525.0,34.0,517.0,38.5,505.0,48.5,494.0,56.0,476.0,54.5,461.0,47.0,449.0,47.0,449.0" stroke="black" stroke-width="2" fill="none" />
<polyline points="36.0,453.5,48.5,459.5,59.5,459.5,71.5,467.0,83.5,473.0,94.0,491.0,107.5,483.5" stroke="black" stroke-width="2" fill="none" />
<polyline points="103.0,466.0,104.5,476.0,116.5,472.0,129.0,466.0,132.0,460.0,108.0,466.0,120.0,464.5,134.0,469.0,140.5,463.0" stroke="black" stroke-width="2" fill="none" />
<polyline points="130.5,471.0,114.0,483.0,126.0,481.5" stroke="black" stroke-width="2" fill="none" />
<polyline points="149.5,479.5,161.5,464.5,173.5,452.0,177.5,465.5,189.0,462.5,192.0,473.0,204.0,491.0" stroke="black" stroke-width="2" fill="none" />
<polyline points="166.0,482.0,175.0,494.5,176.5,512.5,177.5,524.5,173.0,529.0,179.5,547.0,185.0,562.0,196.5,554.0,205.5,548.0,204.0,561.5,211.5,558.5" stroke="black" stroke-width="2" fill="none" />
<polyline points="191.0,557.5,189.5,545.5" stroke="black" stroke-width="2" fill="none" />
<polyline points="178.0,524.0,166.5,506.0" stroke="black" stroke-width="2" fill="none" />
<polyline points="166.0,518.5,169.5,530.5,174.0,542.5,171.5,545.0" stroke="black" stroke-width="2" fill="none" />
<polyline points="159.0,558.0,162.0,570.0,174.0,571.5,177.5,583.5,181.0,595.5,184.0,607.5,185.0,620.0,186.5,632.0,189.0,644.0,179.0,647.0,192.5,657.5,195.5,669.5,200.0,677.0" stroke="black" stroke-width="2" fill="none" />
<polyline points="221.5,678.5,210.0,678.5,187.5,677.0,175.5,671.0,168.0,680.0,157.0,674.5,145.0,680.5,133.0,681.0,126.5,669.0,114.5,669.0,102.5,669.0,91.0,670.5,74.5,681.0,62.5,679.5,50.5,679.5,36.5,681.0,41.0,679.5,41.0,668.5,32.0,667.5,39.5,657.0,50.0,654.0,54.5,642.0,47.0,635.5,35.0,631.5,21.5,625.0,26.0,615.5,33.5,597.5,42.5,592.5,44.0,583.5,39.0,572.5,39.5,559.0,42.5,552.5,29.5,545.0" stroke="black" stroke-width="2" fill="none" />
<polyline points="31.0,553.0,43.0,553.0,55.0,549.5,67.0,540.0,79.0,538.5,97.0,543.0,109.5,542.5,122.0,544.5,134.5,544.5,136.0,555.0,136.0,565.5" stroke="black" stroke-width="2" fill="none" />
<polyline points="138.5,550.0,124.0,547.0,112.0,554.5" stroke="black" stroke-width="2" fill="none" />
<polyline points="83.5,544.0,71.5,544.5,59.5,548.5" stroke="black" stroke-width="2" fill="none" />
<polyline points="46.0,562.5,43.0,559.5,31.0,559.5" stroke="black" stroke-width="2" fill="none" />
<polyline points="9.5,557.0,21.5,558.5,32.0,549.5,12.0,553.0,13.0,548.5,15.5,555.5,27.0,551.0,22.5,534.5,31.5,530.0,43.5,523.5,55.5,528.0" stroke="black" stroke-width="2" fill="none" />
<polyline points="70.5,523.0,57.0,521.5,61.0,523.0,58.0,518.5,67.0,505.5,73.0,496.0,62.5,499.0,46.0,487.0,44.5,479.5,35.5,473.0,26.0,470.0,27.5,453.0,36.5,447.0,30.5,435.0,40.0,424.5,38.5,406.5,30.0,405.0,28.5,393.0,33.0,381.5,28.0,366.5,15.0,363.5,3.0,368.0" stroke="black" stroke-width="2" fill="none" />
<polyline points="2.5,374.5,14.5,380.5,23.5,383.5,35.5,381.5,47.5,380.0,54.5,372.5,66.5,378.0" stroke="black" stroke-width="2" fill="none" />
<polyline points="70.0,366.0,58.0,364.5,45.5,364.5,44.0,369.5" stroke="black" stroke-width="2" fill="none" />
<polyline points="41.0,351.5,53.0,354.5,58.5,356.5,56.5,375.0,66.5,381.0,72.0,392.5,72.0,405.0,67.0,417.0,64.0,432.5,76.5,436.5,90.0,430.5,85.5,409.5,93.0,388.0,104.5,398.5,104.5,410.0,110.5,399.0,121.5,397.5,123.0,417.0,125.0,423.0,137.0,429.0,140.0,424.5,143.0,416.5,152.0,422.5,160.5,434.0,172.5,435.5,184.5,428.0,194.0,437.0,206.0,438.5,201.5,431.0,213.0,439.0,213.5,434.5,222.5,431.5,228.5,418.0,241.0,433.0,248.5,443.5,260.5,446.5,269.0,457.0,281.0,459.0,281.0,452.0" stroke="black" stroke-width="2" fill="none" />
<polyline points="257.0,391.0,269.0,392.5,284.0,398.0,297.5,408.0,314.0,415.5,326.0,418.5,333.5,423.0,345.5,430.5,353.0,419.0" stroke="black" stroke-width="2" fill="none" />
<polyline points="336.0,404.0,340.0,416.0,355.0,427.5,367.0,431.5,382.0,434.0,394.0,431.0,397.0,444.5,409.5,450.0,421.5,454.5" stroke="black" stroke-width="2" fill="none" />
<polyline points="388.0,458.0,385.0,446.0" stroke="black" stroke-width="2" fill="none" />
<polyline points="331.5,468.0,324.5,478.5,307.5,486.0,295.5,486.5,283.5,492.5,278.0,497.0,266.0,498.5,254.5,501.5,241.0,497.0,224.5,494.0,224.0,498.5,216.5,512.5,204.0,504.0,192.0,493.0,180.0,482.5,174.0,469.0,162.0,458.5,150.0,455.0,150.0,447.0,138.0,439.5,126.5,439.5,113.5,448.5,110.5,438.0,98.5,447.5,96.0,437.0,90.0,424.5,107.5,412.5,101.5,419.0,90.0,425.0" stroke="black" stroke-width="2" fill="none" />
<polyline points="109.0,412.0,121.0,406.0,124.5,403.5,133.0,408.0,145.0,409.0,150.5,405.0,170.0,403.0,182.0,401.0,185.0,396.0,196.5,397.5" stroke="black" stroke-width="2" fill="none" />
<polyline points="210.5,381.0,218.0,393.0,213.0,405.0,222.0,417.0,219.0,435.0,217.5,439.5,222.0,447.5,231.5,456.0,236.0,468.0,246.5,480.0,256.0,474.5,255.5,480.5,249.5,491.0,258.5,506.0,261.5,507.5,269.0,515.5,270.5,520.0,260.0,532.0,257.5,536.5,245.5,541.0,244.5,553.0,240.0,556.0,253.5,578.5,247.0,589.0,239.0,602.5,243.5,608.5,239.0,617.0,231.5,633.5,236.0,639.0,248.0,639.0,257.0,624.0,269.0,618.0,281.0,610.5,293.5,609.5,298.0,599.5,307.0,610.5,319.0,610.5,331.5,613.5,344.0,626.5,351.5,632.5,363.5,639.5,375.5,642.5,387.0,644.5,398.5,655.5,410.0,666.0,421.5,667.0,433.5,667.5,437.5,664.5,440.5,677.0,457.5,679.5,466.5,678.0,478.5,672.0,481.5,659.5,491.5,667.0,500.5,671.0,508.0,660.0,507.0,678.0" stroke="black" stroke-width="2" fill="none" />
<polyline points="506.5,577.5,500.5,589.5,488.5,585.0,483.0,574.5,471.0,574.0,459.0,568.0,447.0,562.0,435.0,556.0,428.5,569.5,416.5,572.5,414.0,571.0,409.5,568.0,400.5,583.0,402.0,562.0,390.5,551.5,387.5,545.5,375.5,545.5,364.0,548.5,352.0,553.0,340.0,556.0,328.0,548.5,334.0,542.5,341.0,535.0,351.5,524.5,354.5,514.5,358.5,508.5,358.5,502.5,360.0,498.0,366.5,484.5,357.5,476.5,353.0,475.5,364.5,466.5,372.0,452.0,378.0,449.0,380.0,437.0,378.5,425.0,380.5,413.0,392.5,404.0,403.5,391.5,394.5,381.0,387.0,379.5,394.5,367.0,391.5,355.0,382.0,352.5,387.5,345.0,402.5,336.0,394.5,325.5,401.5,312.0,405.5,300.0,380.5,304.5,369.5,292.5,363.5,284.0,371.5,275.0,361.5,261.5,369.5,254.0,364.5,242.0,351.0,233.0,366.0,221.0,384.0,213.5,378.5,210.0,371.0,203.0,372.0,185.0,376.5,181.0,376.5,169.0,385.5,161.5,382.5,150.0,378.5,138.0,372.5,126.0,365.0,113.5,362.0,100.5" stroke="black" stroke-width="2" fill="none" />
<polyline points="362.5,108.0,374.5,110.0" stroke="black" stroke-width="2" fill="none" />
<polyline points="366.5,125.0,354.5,120.5,353.0,111.5,341.0,106.0,329.0,104.0,321.5,104.0,310.0,93.5,316.0,73.0,302.5,65.5" stroke="black" stroke-width="2" fill="none" />
<polyline points="301.0,64.0,317.5,67.0,327.5,79.0,328.5,91.0,310.5,97.0,313.5,109.0,300.0,116.0,300.5,128.0,313.0,134.0,314.5,145.5,321.5,156.0,332.5,159.0,338.0,153.5,338.0,156.5,350.0,158.0,352.0,165.5" stroke="black" stroke-width="2" fill="none" />
<polyline points="357.0,150.5,358.0,138.5,340.0,133.5,327.5,129.0" stroke="black" stroke-width="2" fill="none" />
<polyline points="321.5,125.5,333.5,128.5,346.0,130.0,358.0,137.5" stroke="black" stroke-width="2" fill="none" />
<polyline points="349.0,146.5,344.5,134.5" stroke="black" stroke-width="2" fill="none" />
<polyline points="357.0,121.5,369.0,130.5,380.5,126.0,392.5,135.0,397.0,141.5,409.0,141.5,412.0,149.0" stroke="black" stroke-width="2" fill="none" />
<polyline points="423.5,145.5,419.0,145.0,430.5,139.0,427.0,126.5,416.5,127.0,417.5,118.0" stroke="black" stroke-width="2" fill="none" />
<polyline points="403.5,111.0,405.0,106.5,417.0,104.0,418.5,99.5,430.0,109.5,442.0,118.5,446.5,136.5" stroke="black" stroke-width="2" fill="none" />
<polyline points="445.0,165.5,457.0,169.5" stroke="black" stroke-width="2" fill="none" />
<polyline points="466.5,181.0,466.5,193.5,466.5,205.5,457.5,217.5,468.0,216.5" stroke="black" stroke-width="2" fill="none" />
<polyline points="480.5,229.0,480.5,236.0,476.5,242.0,491.5,243.5,497.0,246.0" stroke="black" stroke-width="2" fill="none" />
<polyline points="508.5,228.5,496.5,227.0,489.0,224.5,480.5,208.0,480.5,203.0" stroke="black" stroke-width="2" fill="none" />
<polyline points="480.0,196.0,492.5,195.5,499.5,197.5" stroke="black" stroke-width="2" fill="none" />
<polyline points="492.0,177.0,480.0,178.5,479.5,178.5,474.5,166.5,468.5,156.0,473.0,144.0,473.0,132.0,482.0,120.0,468.5,124.5,453.5,119.5,449.0,107.5,463.5,101.0,471.0,85.5,469.5,73.5,464.5,61.5,481.5,54.0,498.5,52.5,494.5,39.0,486.0,28.5,480.5,27.0,476.0,24.0,494.0,11.5,488.0,8.5,492.5,2.5,481.0,5.0" stroke="black" stroke-width="2" fill="none" />
<polyline points="476.0,9.0,460.5,3.0,450.0,15.0,441.0,17.5,426.5,23.0,431.0,35.0,426.5,36.5,420.5,48.0,420.5,52.5,416.5,72.0,418.0,78.0,413.5,87.0,414.0,96.0,426.0,109.5,430.0,122.0,431.5,125.0,436.0,127.0,444.0,135.0,451.5,149.0,439.5,152.0,442.5,164.5,431.5,178.0,439.0,182.0,434.5,183.5,434.5,197.0,446.0,190.5,447.5,206.0,432.0,212.0,431.5,221.0,434.5,233.0,421.0,239.0,421.0,257.0,402.0,267.5,414.0,269.0,410.0,272.0,401.0,282.5,398.0,291.5,408.5,291.0,415.5,292.5,415.5,304.5,417.0,316.5,405.0,321.0,405.0,333.0,420.0,339.0,423.0,351.0,411.0,362.5,415.5,361.0,418.5,371.5,431.0,363.5,443.0,360.5,455.0,357.5,461.0,372.0,474.5,373.5,479.0,364.5,486.5,364.5,499.0,365.5,511.0,370.0" stroke="black" stroke-width="2" fill="none" />
<polyline points="503.5,389.0,493.0,392.0,484.0,385.5,474.0,403.5,461.5,401.0,442.0,401.0,429.5,398.5,424.0,392.5,423.0,386.0,413.0,383.0,403.5,390.5,396.0,408.5,384.0,411.5,379.5,405.5,367.5,405.5,355.0,396.5,340.0,393.0,334.0,392.0,332.5,384.5,320.5,378.5,308.5,383.0,297.0,387.5,285.0,383.0,274.5,388.5,262.5,387.0,256.0,386.5,245.5,375.0,245.5,372.0,233.5,363.5,221.5,363.5,213.0,359.5,201.0,367.0,193.5,368.5,181.0,362.5,174.0,367.5,170.0,377.0,158.0,383.0,146.0,385.5,143.0,397.5,147.5,392.5,155.5,392.5,151.0,391.0,155.5,379.0,155.5,375.5,154.0,366.5,157.0,359.0,159.0,350.0,163.0,337.5,162.5,330.0,177.5,309.0,189.5,301.5,193.0,290.5,203.5,279.0,203.0,266.0,201.5,249.5,200.0,237.5,198.5,227.0,192.5,226.0,202.5,210.0,198.0,198.0,195.0,194.0,183.0,197.0" stroke="black" stroke-width="2" fill="none" />
<polyline points="186.0,188.5,180.5,201.0,182.5,204.0,178.0,216.5,181.0,211.0,187.0,217.0,199.5,218.5,211.5,206.0,214.5,196.5,226.5,201.0,247.5,207.0,250.5,213.0,259.5,213.0,267.0,216.5,278.5,221.0,284.5,239.0,297.0,242.5,307.5,248.5,310.5,257.5,322.5,257.5,325.0,263.0,332.5,253.0,337.0,248.5,344.0,236.5,344.0,229.0,350.5,232.0,351.5,236.5,363.0,239.0,369.0,231.5,381.0,233.0,382.5,224.0,387.0,227.0,399.0,219.5,411.5,218.5" stroke="black" stroke-width="2" fill="none" />
<polyline points="401.0,226.5,404.0,238.5,395.0,241.5,396.5,253.5,407.0,245.5,418.5,250.5,421.5,256.0,430.0,256.0" stroke="black" stroke-width="2" fill="none" />
<polyline points="435.0,264.0,442.5,252.0" stroke="black" stroke-width="2" fill="none" />
<polyline points="456.0,244.5,456.0,256.5,458.5,268.0,459.5,272.5" stroke="black" stroke-width="2" fill="none" />
<polyline points="464.0,261.0,476.0,262.5,488.0,257.5" stroke="black" stroke-width="2" fill="none" />
<polyline points="476.0,262.0,476.0,274.0,460.0,286.5" stroke="black" stroke-width="2" fill="none" />
<polyline points="472.5,316.0,484.5,302.0,489.0,313.0,496.5,324.0,503.5,327.5,503.5,326.5" stroke="black" stroke-width="2" fill="none" />
<polyline points="491.5,344.5,490.5,356.5,508.5,371.5,498.0,383.5,502.0,392.5,500.5,407.5,500.5,413.5,499.5,428.5" stroke="black" stroke-width="2" fill="none" />
<polyline points="491.5,439.0,490.0,427.0,489.5,415.0" stroke="black" stroke-width="2" fill="none" />
<polyline points="442.0,341.0,430.0,345.5,415.5,330.5,411.0,318.5,412.5,305.5,423.0,298.0,430.5,286.5,441.0,274.5,452.0,262.0,449.0,250.0,446.0,242.5,429.5,245.0,417.5,239.0,417.5,230.0,418.5,218.0,420.5,210.0,423.5,192.0,414.0,179.5,406.5,187.5,412.0,175.5,415.0,169.5,409.0,157.5,401.5,157.5,393.5,145.5,389.0,141.0,379.5,129.0,357.0,120.0,353.5,108.0,347.5,99.0,335.5,95.5" stroke="black" stroke-width="2" fill="none" />
<polyline points="345.0,91.0,357.0,89.5,370.5,96.0,376.5,97.5,386.5,97.5,398.5,88.0,410.0,84.0,417.5,88.5,429.5,98.5,432.0,90.0,445.5,85.5,457.5,82.5,464.0,84.0" stroke="black" stroke-width="2" fill="none" />
<polyline points="487.5,78.5,483.0,77.0,474.0,99.5,462.0,110.5" stroke="black" stroke-width="2" fill="none" />
<polyline points="466.0,96.0,454.0,102.0,443.5,98.5,432.0,103.0" stroke="black" stroke-width="2" fill="none" />
<polyline points="426.5,85.5,438.5,85.5" stroke="black" stroke-width="2" fill="none" />
<polyline points="445.0,72.5,433.0,66.5,433.5,52.0" stroke="black" stroke-width="2" fill="none" />
<polyline points="432.5,40.0,444.5,32.5,457.5,21.0,463.5,21.0,469.5,32.5,469.5,49.0,477.0,56.0,490.5,68.0,482.5,77.0,476.5,83.0,481.0,92.0,482.5,101.0,461.5,107.0,455.5,111.5,456.5,113.0,468.5,117.5,480.0,116.0,484.5,101.5,496.0,92.5,498.5,90.5,485.0,102.5,473.5,110.0,460.0,129.5,466.0,134.0,478.0,118.5,491.5,121.5,503.5,130.5" stroke="black" stroke-width="2" fill="none" />
<polyline points="504.0,131.5,502.0,112.0,506.5,100.0,506.5,98.5,509.5,100.0" stroke="black" stroke-width="2" fill="none" />
<polyline points="502.5,134.0,490.5,133.0,478.0,133.0" stroke="black" stroke-width="2" fill="none" />
<polyline points="478.0,138.0,490.0,145.5" stroke="black" stroke-width="2" fill="none" />
<polyline points="488.0,124.0,475.5,134.0,466.5,128.0,454.5,134.0,442.5,127.0,426.5,128.0,417.5,131.0,407.0,129.5,402.5,123.5,396.5,111.0,385.0,111.0,367.0,105.5,355.0,104.0" stroke="black" stroke-width="2" fill="none" />
<polyline points="332.0,117.5,355.0,120.5,368.5,132.5,370.5,146.0,370.5,152.0,381.0,159.5,381.0,173.0,394.0,184.0,394.0,197.5,399.0,209.5,397.5,215.5,406.5,218.5,414.0,231.0,409.5,234.0,411.0,245.5,393.0,263.5,396.0,271.0,395.5,278.5,407.5,280.0" stroke="black" stroke-width="2" fill="none" />
<polyline points="401.5,293.5,389.5,286.0" stroke="black" stroke-width="2" fill="none" />
<polyline points="387.0,273.5,387.0,285.5,396.0,297.5" stroke="black" stroke-width="2" fill="none" />
<polyline points="380.5,331.5,381.0,343.0" stroke="black" stroke-width="2" fill="none" />
<polyline points="378.0,365.5,365.5,362.5,354.0,365.5,342.0,371.5,330.0,374.5,318.0,376.0,305.5,377.5,293.5,375.5,281.5,374.0,269.5,375.0,257.5,364.5,254.5,357.0,248.5,349.5,247.5,352.5,245.0,348.0,224.0,337.5,214.0,336.0,202.0,342.0,189.5,333.0,173.0,326.0,160.5,324.5,148.5,318.5" stroke="black" stroke-width="2" fill="none" />
<polyline points="144.0,327.0,156.0,329.0,168.0,329.0" stroke="black" stroke-width="2" fill="none" />
<polyline points="156.5,334.5,144.5,331.0" stroke="black" stroke-width="2" fill="none" />
<polyline points="139.5,336.0,144.0,348.0" stroke="black" stroke-width="2" fill="none" />
<polyline points="153.0,369.5,160.5,378.0,159.0,390.0,168.0,392.0,182.0,371.5" stroke="black" stroke-width="2" fill="none" />
<polyline points="179.0,358.5,167.0,360.0,162.0,371.0" stroke="black" stroke-width="2" fill="none" />
<polyline points="131.0,356.0,125.5,343.5,121.0,332.0,121.0,319.5,130.5,307.5,120.0,297.0,124.0,293.0,122.5,294.5" stroke="black" stroke-width="2" fill="none" />
<polyline points="125.0,294.5,126.0,306.5,133.5,308.0,132.0,315.5" stroke="black" stroke-width="2" fill="none" />
<polyline points="126.5,292.5,138.5,295.0,138.5,301.0,139.5,305.0,163.5,315.5" stroke="black" stroke-width="2" fill="none" />
<polyline points="137.0,291.0,134.5,288.0" stroke="black" stroke-width="2" fill="none" />
<polyline points="112.5,274.5,108.0,275.0,105.0,287.0,100.5,299.0,105.0,301.0,115.5,311.5,124.5,320.5,132.0,326.5,143.5,325.0,155.5,327.0,170.0,314.5,182.5,314.5,196.0,319.0,203.5,319.0,210.0,316.0,216.0,323.5,228.5,327.0,232.0,332.0,229.5,349.0,211.5,361.0,208.5,373.0,217.5,383.5,226.5,395.5,235.0,408.0,242.5,409.5,254.0,417.5,260.5,420.5,265.0,423.0,271.5,425.5,280.5,430.0,285.0,418.0,288.0,430.0,300.0,430.5,304.0,442.5,323.0,440.5,328.5,454.0,342.0,464.5,357.0,461.5,369.0,461.5,381.0,465.5,387.0,465.0" stroke="black" stroke-width="2" fill="none" />
<polyline points="389.0,525.5,400.0,537.5,416.5,552.0,418.5,556.0" stroke="black" stroke-width="2" fill="none" />
<polyline points="414.5,581.0,393.5,585.0,380.0,597.0,378.5,601.5,386.0,606.0,385.0,594.0" stroke="black" stroke-width="2" fill="none" />
<polyline points="390.0,620.0,397.5,632.0" stroke="black" stroke-width="2" fill="none" />
<polyline points="507.5,560.5,500.0,548.5,486.5,551.5,480.5,540.0,468.5,538.5,457.0,540.0,449.0,531.0,434.0,531.0,422.0,519.0,420.5,506.5,408.5,502.0,396.0,504.5,381.0,501.5,373.5,492.5,357.0,500.5,357.5,495.5,345.5,498.5,332.0,504.5,324.5,507.5,321.5,495.0,304.0,478.5,302.5,465.5,283.0,461.0,295.0,458.0,285.0,448.5,279.0,444.0,259.0,438.0,251.5,420.0,233.5,406.5,227.5,402.5,211.0,392.0,209.0,380.5,195.5,377.5,197.0,363.5,182.0,352.0,180.5,340.0,174.5,335.5,180.0,324.0,193.5,312.0,201.5,309.0,195.5,291.0,207.5,278.0,210.5,266.0,231.5,255.5,232.0,242.5,248.5,233.5,242.0,230.0,243.5,215.0,239.0,203.0,240.5,193.5,228.5,195.0,216.5,188.0,204.5,185.0" stroke="black" stroke-width="2" fill="none" />
<polyline points="197.5,189.0,217.0,189.0,223.0,202.5,214.0,215.0,208.0,213.5,215.5,227.5" stroke="black" stroke-width="2" fill="none" />
<polyline points="206.5,222.5,194.5,229.5" stroke="black" stroke-width="2" fill="none" />
<polyline points="185.5,236.0,197.5,243.5" stroke="black" stroke-width="2" fill="none" />
<polyline points="217.5,243.0,214.5,243.0,212.5,255.0,211.0,264.0,222.5,259.5,237.5,261.0,249.0,256.5,256.5,253.5,269.0,255.0,261.5,256.5,254.5,259.0" stroke="black" stroke-width="2" fill="none" />
<polyline points="260.5,280.0,259.0,292.0,254.5,304.0,240.5,306.5,250.0,313.5,242.5,317.5,242.5,329.5,238.0,341.5,235.5,343.0,235.5,355.0,229.5,358.0,237.0,370.0,239.0,383.0,251.0,395.5,256.5,407.5,262.5,409.0,260.0,424.5,264.5,436.5,274.0,442.5,284.5,444.0,293.5,447.0,296.5,456.0,308.5,450.0,313.5,463.5,318.0,448.0,324.0,455.5,336.5,446.5,345.0,440.5,352.5,439.0,364.5,442.0,367.0,448.0,373.0,456.5,381.0,470.0" stroke="black" stroke-width="2" fill="none" />
<polyline points="455.0,514.0,452.5,526.5" stroke="black" stroke-width="2" fill="none" />
<polyline points="509.0,495.0,507.5,490.5,495.5,492.0,506.0,483.0,486.5,484.0,500.0,476.5,507.0,464.5,496.5,458.5,489.0,457.0,501.0,445.0,498.5,436.5,504.5,428.0,503.5,416.5,506.5,406.0,509.5,398.0,506.5,405.5,503.5,406.5,487.0,403.5,479.5,411.0,470.0,417.0,459.0,411.0,447.0,406.5,457.0,399.0,458.5,384.0,449.5,383.0,457.0,365.0,461.0,353.0,463.0,340.5,465.5,329.0,464.0,327.0,459.5,315.0,466.0,309.0,461.5,304.5,475.0,297.5,472.0,287.5,468.0,272.5,465.0,279.0,471.0,267.0,493.5,250.5,504.0,224.5,507.0,222.5,504.5,224.0,492.5,216.5,488.0,226.5,480.5,219.0,474.5,207.0,464.0,211.5,458.0,203.5,450.5,201.0,447.0,214.5,435.0,210.0,421.5,212.5,409.5,209.5,406.5,204.0,402.0,198.0,397.5,188.0,393.5,194.0,381.5,194.0,369.5,191.0,357.0,182.0,349.5,188.0,337.5,185.0,325.0,177.5,322.0,171.5,317.5,162.5,305.5,157.0,300.0,145.0,288.0,145.0,276.0,140.5,272.0,142.0,266.0,134.5,264.5,123.0,260.5,111.0,259.0,100.5,247.0,94.5,236.5,90.0,248.5,82.5,254.5,70.5,248.5,69.0,247.0,57.0,239.0,49.5,230.0,32.5,211.5,20.0,214.0,8.0,220.5,2.0,232.5,3.0,220.0,3.0,208.0,3.5" stroke="black" stroke-width="2" fill="none" />
<polyline points="202.0,6.0,205.0,17.5,204.0,26.0,215.0,26.0,230.5,19.5,242.5,4.5,251.5,3.0,263.5,12.0,265.0,9.5,277.0,8.0,289.0,14.0,295.0,9.5,307.0,8.0,321.0,3.5,336.0,4.0,346.5,8.5,357.0,7.0,369.0,11.5,374.5,16.0,376.0,3.5,383.5,6.5,391.0,15.5,403.0,6.5,415.0,12.5,431.5,3.5,443.0,21.0,455.0,18.0,461.0,11.5,468.5,29.5,482.5,23.5,493.0,14.5,505.0,11.5" stroke="black" stroke-width="2" fill="none" />
<polyline points="473.5,12.0,469.5,12.0,461.0,10.0" stroke="black" stroke-width="2" fill="none" />
<polyline points="474.0,5.0,475.0,16.5,472.5,36.0,462.0,48.0,454.5,60.5,461.0,71.0,464.0,78.5,462.5,92.0,440.5,92.0,440.5,104.5,436.5,112.0,445.5,121.0,446.5,130.5,456.0,138.0" stroke="black" stroke-width="2" fill="none" />
<polyline points="442.0,115.0,430.0,101.5,430.0,84.0,440.5,78.0,430.0,65.0,425.5,53.0,415.0,41.0" stroke="black" stroke-width="2" fill="none" />
<polyline points="419.5,28.5,431.5,31.5,435.0,26.5,453.0,23.0" stroke="black" stroke-width="2" fill="none" />
<polyline points="454.5,30.0,450.5,39.0,453.5,48.0" stroke="black" stroke-width="2" fill="none" />
<polyline points="478.0,34.0,490.0,37.5,493.0,32.0,499.0,44.0" stroke="black" stroke-width="2" fill="none" />
<polyline points="485.5,68.5,473.5,70.0,460.5,78.0,449.0,78.0,437.5,76.5,426.0,76.5,407.0,76.5,395.0,73.5,384.0,79.5,372.0,73.0,361.0,66.5,350.0,63.5,337.5,62.5,325.5,53.5,309.0,41.5,297.0,37.5,291.0,39.0,279.0,42.5" stroke="black" stroke-width="2" fill="none" />
<polyline points="273.0,47.0,285.0,56.5,284.5,65.5,294.0,82.0" stroke="black" stroke-width="2" fill="none" />
<polyline points="302.5,72.0,302.5,51.0,326.5,44.0,319.0,29.0,308.0,22.0,293.0,19.0" stroke="black" stroke-width="2" fill="none" />
<polyline points="291.5,24.5,306.5,36.5" stroke="black" stroke-width="2" fill="none" />
<polyline points="307.5,22.0,319.5,25.0,331.0,26.5,331.0,30.5,320.5,42.5,317.5,54.5,325.5,59.0,334.5,71.0,333.0,83.0,342.5,84.5,332.0,96.5,336.5,105.5,337.5,120.5,340.5,123.0,360.0,135.0,363.0,146.5,364.5,158.5,358.5,162.0,351.0,166.5,359.0,178.5,353.0,190.0,362.0,196.5,374.0,195.0,383.0,196.5,395.0,199.5,402.5,216.5,389.0,216.5" stroke="black" stroke-width="2" fill="none" />
<polyline points="392.0,204.5,380.0,201.0" stroke="black" stroke-width="2" fill="none" />
<polyline points="385.5,175.0,397.5,179.5" stroke="black" stroke-width="2" fill="none" />
<polyline points="409.0,182.5,421.5,194.5" stroke="black" stroke-width="2" fill="none" />
<polyline points="436.5,215.0,439.5,223.5,451.5,220.5,459.0,231.0,471.0,236.5,483.5,227.5" stroke="black" stroke-width="2" fill="none" />
<polyline points="483.5,225.5,492.5,228.5,499.0,231.0" stroke="black" stroke-width="2" fill="none" />
<polyline points="493.5,283.5,505.5,288.0,505.0,291.5" stroke="black" stroke-width="2" fill="none" />
<polyline points="466.5,258.0,466.5,253.0,455.0,247.0,449.0,232.0,443.0,230.5" stroke="black" stroke-width="2" fill="none" />
<polyline points="412.5,199.5,405.0,184.5,393.0,181.5,380.5,175.0,379.0,179.5,370.5,185.5,354.0,188.5,342.5,191.5,338.0,174.0,346.0,159.0,338.5,155.5,339.0,137.5,329.5,130.0,310.5,118.5,314.5,102.0,302.5,106.5,290.5,111.5,290.5,109.0,284.5,94.0,275.5,84.0,278.0,71.5,268.0,70.0" stroke="black" stroke-width="2" fill="none" />
<polyline points="274.0,69.5,286.0,70.5,301.0,58.5,313.0,46.5,325.5,42.0,327.0,37.5,339.0,37.5,350.5,41.0,362.0,44.0,371.5,42.5" stroke="black" stroke-width="2" fill="none" />
<polyline points="357.5,52.5,352.0,64.5,344.5,66.0,341.5,77.5,355.0,87.0,352.0,80.5" stroke="black" stroke-width="2" fill="none" />
<polyline points="400.0,64.5,411.5,58.5" stroke="black" stroke-width="2" fill="none" />
<polyline points="407.0,27.5,419.0,27.5,419.5,21.5,409.0,23.5,405.0,31.5,406.5,43.5,394.5,51.0,402.0,57.0,406.5,66.0,409.5,76.5,406.0,79.5,393.0,93.0,385.5,93.0,390.0,106.5,392.5,99.0,404.0,96.0,416.0,93.0,422.5,113.5,434.0,122.5,429.5,131.0,431.0,138.5,443.0,145.0,453.0,154.0,445.5,165.5,451.5,185.0,450.0,195.0,457.5,206.0,444.0,221.5,438.0,238.0,432.0,250.0,424.5,262.0,429.0,265.0,432.0,259.0,439.5,259.5,445.5,257.0,450.0,276.5,458.0,281.0,473.0,278.0,483.5,263.0,485.5,267.5,499.0,264.5,501.0,269.5,505.0,280.0,510.5,279.5" stroke="black" stroke-width="2" fill="none" />
<polyline points="479.0,377.5,473.0,371.5,461.0,377.5,458.0,380.5,470.0,361.0,475.5,350.5,477.0,341.0,472.5,329.0,472.0,321.0,476.5,309.0,465.5,298.0,453.5,292.5,452.0,292.0,440.0,289.0,428.5,302.5,423.0,323.5,417.5,322.5,404.0,328.5,402.5,311.0,390.5,312.5,389.0,308.5,377.0,306.5,365.0,299.0,356.0,300.5,344.0,291.5,332.0,287.0,327.5,280.0,318.5,276.5,312.5,282.5,301.0,288.5,295.0,296.5,283.0,299.5,271.0,301.0,269.5,292.0,256.0,295.0,243.5,296.5,232.0,292.0,220.0,293.5,215.5,301.0,204.0,298.5,192.0,300.5,188.0,308.0,177.0,306.5,175.5,299.0,169.0,295.5,158.5,291.0,142.0,283.5,130.0,277.0,124.5,286.0,117.0,281.5,108.0,275.5,103.5,269.0,97.5,272.0,99.0,260.0,96.0,262.0,93.0,250.0,89.5,238.5,91.5,226.5,97.5,214.0,91.5,211.5,93.0,198.0,85.5,186.0,87.5,174.0,87.0,162.0,90.0,149.5,100.0,137.5,105.0,125.0,107.5,113.5,111.5,101.5,123.5,89.5,124.5,83.5,112.5,95.5" stroke="black" stroke-width="2" fill="none" />
<polyline points="112.0,106.5,124.0,98.0,136.0,102.5,148.0,102.5,149.5,90.5,162.0,89.5,166.5,84.5,186.5,78.5,191.0,86.0,195.0,80.0,207.0,89.0,219.5,94.5,231.5,103.5,234.5,93.0,245.0,96.0" stroke="black" stroke-width="2" fill="none" />
<polyline points="248.0,116.5,260.0,134.5,272.0,130.0,284.0,133.0,296.0,134.5" stroke="black" stroke-width="2" fill="none" />
<polyline points="269.5,139.0,281.5,139.0,293.0,140.5,305.0,142.5,326.0,147.0,339.5,176.0" stroke="black" stroke-width="2" fill="none" />
<polyline points="336.5,187.5,341.0,199.5,332.0,215.0,311.0,221.5,328.0,233.5,337.0,238.0,331.0,248.0,338.0,252.5,336.0,264.5,328.5,261.0,336.0,259.5,337.5,250.5,342.5,240.5,355.0,242.0,362.5,234.5,365.5,220.0,371.0,226.0,378.5,220.5,393.0,211.5" stroke="black" stroke-width="2" fill="none" />
<polyline points="355.5,210.0,349.5,214.5,335.5,205.5,331.0,209.0,319.0,214.0,316.5,205.0,298.5,199.5,279.0,198.0,256.5,195.0,244.0,194.0,232.0,187.5,220.5,186.0,208.5,182.5,197.0,190.5,185.5,192.0,183.0,199.0,171.5,206.0,158.0,219.5,156.5,217.0,146.0,217.0,139.5,216.0,127.0,210.0,127.0,204.0,115.0,208.0,103.0,209.0,92.0,216.0,74.0,207.0,59.0,216.0,54.5,202.5,47.0,202.5,39.5,209.0,42.5,213.5,30.5,218.5,18.5,217.0,14.5,199.0,19.5,188.5,9.0,176.5,3.0,157.0" stroke="black" stroke-width="2" fill="none" />
<polyline points="8.5,144.0,12.5,153.0,17.0,165.0,11.0,174.0,21.5,181.0,18.5,196.0,11.0,209.5,8.0,218.0,18.5,236.0,20.0,247.5,15.5,259.5,20.0,268.5,3.0,270.5,6.0,265.0,18.0,265.0,30.0,256.0,33.0,265.0,39.0,257.5,39.5,270.5,51.5,264.5,51.5,273.5,62.0,285.5" stroke="black" stroke-width="2" fill="none" />
<polyline points="60.0,281.0,58.5,268.5,51.5,267.5" stroke="black" stroke-width="2" fill="none" />
<polyline points="48.0,262.0,46.5,273.5,52.0,285.5,51.5,297.0,49.5,313.5,49.5,325.5,45.0,327.0,36.0,345.5,54.5,357.5,66.5,362.0,78.5,356.0,88.5,360.5,90.0,365.5,92.5,368.5,104.5,365.5,116.5,367.0,128.5,369.0,136.0,374.5,148.0,370.0,154.0,354.0,161.5,341.5,174.0,346.5,187.5,340.5,202.5,350.5,215.0,350.0,227.0,349.5" stroke="black" stroke-width="2" fill="none" />
<polyline points="221.0,340.5,208.5,342.0,213.0,331.5" stroke="black" stroke-width="2" fill="none" />
<polyline points="235.0,313.0,247.5,316.0,258.0,336.0" stroke="black" stroke-width="2" fill="none" />
<polyline points="257.0,329.0,262.5,341.0,241.0,356.5,259.0,367.5,262.0,384.0,273.5,380.5,285.5,379.5,299.5,390.0,311.0,394.5,318.5,394.5,323.0,382.5,342.5,379.5,349.0,376.0,362.5,370.0,375.0,375.5,387.5,378.5,398.0,363.5,403.0,371.0" stroke="black" stroke-width="2" fill="none" />
<polyline points="364.0,411.5,352.0,411.5,347.0,408.5,338.0,416.0,331.5,409.0,331.0,401.0,319.0,402.5,307.0,402.5,295.5,401.0,291.5,403.5,290.5,390.5,295.0,378.0" stroke="black" stroke-width="2" fill="none" />
<polyline points="292.0,344.0,280.0,346.0" stroke="black" stroke-width="2" fill="none" />
<polyline points="282.5,341.0,281.5,350.5,278.5,358.0,293.5,360.0" stroke="black" stroke-width="2" fill="none" />
<polyline points="227.5,379.0,230.5,391.5,239.5,403.5,240.5,415.0,234.0,428.5,235.0,445.0,233.5,454.0,245.5,466.5,257.5,464.0,268.0,476.0,278.0,488.0,293.5,491.0,299.5,492.0,304.5,493.0,316.5,498.5,332.0,486.5,350.0,492.0" stroke="black" stroke-width="2" fill="none" />
<polyline points="294.5,542.0,281.5,530.0" stroke="black" stroke-width="2" fill="none" />
<polyline points="269.0,429.5,261.5,414.0,258.5,403.5,240.5,400.5,230.0,381.0,219.5,371.5,207.5,371.5,209.0,358.0,209.5,344.5,230.5,337.0,212.5,331.5,200.5,318.0,211.0,307.5,210.0,304.5,210.0,292.5,225.0,280.5,214.5,296.5,203.0,294.5" stroke="black" stroke-width="2" fill="none" />
<polyline points="224.5,300.5,227.5,312.5,223.0,308.0,229.0,300.5,235.0,294.5,236.0,304.5,248.0,307.5,254.0,304.0" stroke="black" stroke-width="2" fill="none" />
<polyline points="250.5,291.5,252.0,286.5,264.0,280.0,276.0,283.0" stroke="black" stroke-width="2" fill="none" />
<polyline points="284.0,284.0,281.0,293.0,279.0,281.0,279.0,276.5,267.0,273.5,255.0,276.0,243.0,280.5,231.0,282.0,218.5,285.5,214.5,279.5,202.5,285.5,190.5,290.5,180.5,275.0,173.0,263.0,164.0,260.0" stroke="black" stroke-width="2" fill="none" />
<polyline points="167.5,265.0,173.5,277.0,173.5,282.5,176.5,294.5,163.0,309.5,166.0,308.0,178.0,302.5" stroke="black" stroke-width="2" fill="none" />
<polyline points="170.5,272.0,182.5,269.0,194.0,270.5,206.0,269.0" stroke="black" stroke-width="2" fill="none" />
<polyline points="150.0,259.5,150.0,243.0,143.0,232.5,149.0,233.0,155.0,233.0,141.5,234.5" stroke="black" stroke-width="2" fill="none" />
<polyline points="131.5,256.0,143.5,257.5,165.0,256.0,177.0,254.0,194.5,264.5,208.0,276.0,220.0,272.0,223.0,272.0,234.5,269.0" stroke="black" stroke-width="2" fill="none" />
<polyline points="221.0,241.5,204.0,246.0,192.0,250.0,177.0,260.5,159.0,271.0,150.0,266.5,138.0,265.0,138.0,260.5,126.0,262.0" stroke="black" stroke-width="2" fill="none" />
<polyline points="99.0,241.5,111.0,248.5,118.5,240.5,124.5,240.5,137.0,251.0,149.0,244.5,161.0,249.0,172.5,245.5,172.5,248.0,177.0,231.5,181.5,244.5,183.0,252.5,193.5,257.0,204.5,249.5,217.0,247.0,229.0,242.5,241.0,243.0,248.5,231.0,260.5,237.5,272.5,239.0" stroke="black" stroke-width="2" fill="none" />
<polyline points="283.0,228.5,295.0,233.0" stroke="black" stroke-width="2" fill="none" />
<polyline points="314.0,221.5,326.0,230.5,332.5,230.5" stroke="black" stroke-width="2" fill="none" />
<polyline points="348.5,253.0,360.5,253.0,363.5,263.5,382.0,253.0" stroke="black" stroke-width="2" fill="none" />
<polyline points="377.5,251.5,376.0,263.5,381.0,275.5,376.5,290.5,389.0,296.5,401.0,300.5,405.5,296.0,410.0,316.0" stroke="black" stroke-width="2" fill="none" />
<polyline points="377.5,313.5,364.0,301.5,343.0,282.0" stroke="black" stroke-width="2" fill="none" />
<polyline points="311.5,268.0,323.5,280.0,335.5,287.5,346.0,293.5,344.5,304.0,355.0,316.0,349.0,324.0,353.5,333.0,356.5,349.5" stroke="black" stroke-width="2" fill="none" />
<polyline points="345.5,358.5,341.5,363.0,329.0,363.0,317.0,363.0,311.0,363.0,314.5,349.0,297.0,343.0,279.0,331.5,269.5,328.5,271.0,316.5,265.0,307.5,266.5,295.5" stroke="black" stroke-width="2" fill="none" />
<polyline points="312.0,257.5,321.0,269.5,333.0,278.5,345.0,281.0,356.5,288.5,364.0,295.0,376.5,296.0,378.0,301.5,390.0,301.0,402.0,303.5" stroke="black" stroke-width="2" fill="none" />
<polyline points="335.0,229.0,323.0,221.5,315.5,218.5,301.5,207.0,297.0,225.0,285.5,220.5,273.5,211.5,261.5,201.5,249.5,195.5" stroke="black" stroke-width="2" fill="none" />
<polyline points="236.5,184.5,249.0,184.5,261.0,190.0,273.0,193.0,285.0,194.5" stroke="black" stroke-width="2" fill="none" />
<polyline points="281.5,168.5,267.5,166.5,263.5,153.0,246.0,147.0,237.0,145.5,221.0,153.0,213.5,154.0,201.5,151.0,197.0,169.5,185.0,172.5,188.0,162.0,206.0,156.0,201.0,156.0,204.0,144.0,202.5,123.0,191.5,126.5,190.0,132.5" stroke="black" stroke-width="2" fill="none" />
<polyline points="205.0,134.5,217.0,134.5,229.0,128.5,246.0,121.5,253.5,134.0,256.5,146.0" stroke="black" stroke-width="2" fill="none" />
<polyline points="250.5,148.0,254.0,161.5,256.5,179.5,262.5,192.0,252.0,198.5,256.5,210.5,265.5,210.5,277.5,217.5,280.5,229.5,292.5,234.0,293.5,246.0,292.0,258.0,292.0,259.5,299.5,271.5,298.5,283.5,300.5,294.0,308.0,301.0,298.5,310.0,303.0,317.0,307.0,317.0,314.5,311.0,326.5,320.0,334.5,313.5,347.0,312.0,347.5,316.5,355.0,313.5,365.5,315.0,377.0,317.0,389.0,320.0,393.0,315.5,397.5,327.5,409.5,335.0,420.0,336.0,432.0,327.0,435.5,339.0,446.0,320.5" stroke="black" stroke-width="2" fill="none" />
<polyline points="416.5,352.5,407.5,349.5,393.5,338.5,393.0,335.5,381.0,331.0,371.0,332.0,359.0,332.0,347.0,336.5,338.0,344.0,330.0,342.5,316.5,344.0,310.5,347.5,299.0,340.0,299.0,337.0,294.5,332.0,283.0,333.5,271.0,339.5,265.0,330.5,251.5,340.5,239.5,341.0,236.5,333.5,225.0,333.5,213.0,327.0,200.5,324.0,190.0,326.5,181.0,311.5,174.5,300.5,162.5,288.5,152.0,271.0,156.5,259.0,140.5,247.5,128.5,238.5,133.0,229.5,127.0,220.5,133.0,216.0,145.0,206.0,134.5,194.0" stroke="black" stroke-width="2" fill="none" />
<polyline points="129.5,157.5,141.5,151.5" stroke="black" stroke-width="2" fill="none" />
<polyline points="131.0,137.5,119.0,137.5,122.0,145.0" stroke="black" stroke-width="2" fill="none" />
<polyline points="126.5,130.0,114.5,121.0,103.0,125.0" stroke="black" stroke-width="2" fill="none" />
<polyline points="108.5,128.0,120.5,134.0,127.5,130.5,133.5,133.5,141.0,138.0,159.0,146.0,160.0,158.0,163.5,176.0,163.0,180.5,160.0,181.0" stroke="black" stroke-width="2" fill="none" />
<polyline points="163.5,139.5,166.5,148.5,178.5,147.0,181.5,134.5,193.5,139.5,197.5,129.0,210.0,121.0" stroke="black" stroke-width="2" fill="none" />
<polyline points="221.5,129.0,220.0,121.0,210.5,113.5,206.5,112.5,200.5,118.5,193.0,112.0,189.5,103.5,180.5,111.0,168.5,117.0,156.0,120.0,143.5,125.0,130.0,123.5,118.0,117.5" stroke="black" stroke-width="2" fill="none" />
<polyline points="112.5,114.0,124.5,112.5,132.0,109.5,144.0,112.5,155.5,113.5,167.5,112.0,174.0,104.5,181.5,93.5,193.5,96.0,202.5,91.0,214.0,95.0,226.0,103.0,245.5,115.0,248.5,105.0,261.5,103.5" stroke="black" stroke-width="2" fill="none" />
<polyline points="268.0,111.5,280.0,113.0,285.5,107.0" stroke="black" stroke-width="2" fill="none" />
<polyline points="265.0,78.0,271.0,90.0,266.5,102.0,271.0,117.0,266.5,117.0,278.5,127.5,290.5,132.0,301.5,131.5,311.0,124.0,323.0,139.0,335.0,141.5" stroke="black" stroke-width="2" fill="none" />
<polyline points="331.5,197.5,332.5,209.5,326.5,227.5,321.5,236.5,324.5,247.0" stroke="black" stroke-width="2" fill="none" />
<polyline points="308.0,252.5,302.0,252.5,305.0,264.5,308.0,270.5,312.5,276.5,318.5,287.0,311.0,291.5,314.5,285.0" stroke="black" stroke-width="2" fill="none" />
<polyline points="336.5,213.0,325.0,217.5,323.5,202.0,319.5,196.0" stroke="black" stroke-width="2" fill="none" />
<polyline points="275.5,165.5,268.0,171.5" stroke="black" stroke-width="2" fill="none" />
<polyline points="274.0,146.0,261.5,143.0,245.0,153.5,231.5,149.0,219.5,146.0,207.5,144.0,195.5,149.5,187.0,152.5,175.0,151.0,185.5,140.5,189.5,131.5,183.5,113.5,171.5,116.5" stroke="black" stroke-width="2" fill="none" />
<polyline points="180.0,100.5,168.5,96.0,156.5,105.0,152.0,99.0,140.0,97.0" stroke="black" stroke-width="2" fill="none" />
<polyline points="145.0,88.5,157.0,87.0" stroke="black" stroke-width="2" fill="none" />
<polyline points="169.5,98.0,163.0,98.0,155.5,117.0,151.0,125.5,154.0,131.0,150.0,142.5,138.0,145.5,117.0,154.5,130.5,165.0,130.0,177.0,116.5,178.0,128.5,187.0,112.5,199.0,114.0,206.5,98.0,220.0,101.0,230.0,113.0,231.5,125.0,242.5,117.5,247.5,108.5,265.5,123.5,268.5,146.0,276.0,154.5,288.0,157.5,292.5,157.5,304.5,162.0,316.5,171.0,327.5,195.5,337.5,191.0,349.5,201.5,360.0,202.0,368.0,186.5,375.5,174.5,387.5,159.5,399.5,162.5,413.0,168.5,416.5,164.0,428.5,183.5,431.5,178.0,443.5,182.5,446.5,195.0,451.0,190.5,463.0,184.5,466.0,185.5,478.0,195.5,490.0,210.5,494.5,221.0,488.0,233.0,491.0,239.0,477.0,246.5,487.5,258.5,489.0,270.5,490.5,284.0,480.0,296.5,480.5,308.5,482.5,320.5,484.5,326.5,498.0,339.0,495.0,344.0,485.5,356.0,482.5,368.0,482.0,384.5,486.5,402.0,488.5,413.5,483.0,420.5,474.0,430.5,472.0,442.5,478.5,454.0,478.5,449.5,489.5,453.0,493.5" stroke="black" stroke-width="2" fill="none" />
<polyline points="200.0,359.0,188.0,358.5,167.0,348.0,164.0,354.0,148.0,352.5,136.0,359.0,124.0,340.0,121.0,339.0,109.0,335.5,102.5,334.0,98.5,322.5,92.5,313.5,89.5,301.0,86.0,294.0,87.5,283.5,77.0,271.5,64.5,265.5,52.0,260.0,40.0,249.5,28.0,246.5,19.0,240.5,10.0,249.5,6.0,246.0,3.0,253.5,3.5,243.0,12.5,241.5,8.5,230.0,4.0,227.0,4.0,215.0,5.5,203.0,4.0,191.0,5.5,179.0,8.5,165.5,7.0,153.0,16.0,147.0,8.5,145.5,5.5,138.0,5.5,129.0,8.5,117.5,3.5,116.0,3.5,103.5,4.5,91.5,12.0,81.0,6.0,73.5,4.5,58.5,15.5,42.5,11.0,30.5,3.5,18.5,7.0,8.0,4.0,18.5" stroke="black" stroke-width="2" fill="none" />
<polyline points="6.5,10.0,19.0,2.5,17.5,13.0,25.5,25.0,25.5,34.0,28.5,40.5,17.0,52.5,21.5,47.0,33.5,41.0,36.5,36.5,47.5,34.0,67.0,28.0,82.0,28.5,85.0,30.0,97.0,26.0,110.0,26.0,126.0,9.5,132.0,13.5,131.5,13.5,125.5,12.5" stroke="black" stroke-width="2" fill="none" />
<polyline points="109.0,16.0,97.0,19.0,85.0,22.5,77.5,16.0,65.5,21.0,56.0,20.5,44.0,20.5,32.5,28.0,20.5,25.0" stroke="black" stroke-width="2" fill="none" />
<polyline points="27.5,17.5,39.5,31.0,31.0,43.0,37.0,61.0,29.5,65.5,32.5,53.0,35.5,50.0,47.0,42.5,59.0,38.0,71.0,35.0" stroke="black" stroke-width="2" fill="none" />
<polyline points="70.5,61.5,70.5,64.5,83.0,61.5,95.0,51.5,110.0,50.5,128.0,46.0,136.0,35.5,148.5,37.5,160.5,39.0,172.5,34.5" stroke="black" stroke-width="2" fill="none" />
<polyline points="182.5,32.5,163.0,25.0,158.5,30.5" stroke="black" stroke-width="2" fill="none" />
<polyline points="152.5,40.0,164.5,41.5,177.0,47.5" stroke="black" stroke-width="2" fill="none" />
<polyline points="190.5,48.0,201.0,38.5,192.0,23.5" stroke="black" stroke-width="2" fill="none" />
<polyline points="190.0,14.5,170.5,16.0,159.0,11.5" stroke="black" stroke-width="2" fill="none" />
<polyline points="184.5,4.5,188.5,16.5,165.0,20.5,175.5,24.0,182.0,36.0,184.0,42.0,179.5,54.0,191.5,61.5,194.5,70.5,172.5,72.0,181.5,73.5,184.0,76.5,187.0,72.0,194.0,75.0,201.5,64.5,213.0,73.5,215.0,82.5,227.0,92.5,237.5,85.0,248.0,84.5,260.0,93.5,274.5,98.0,286.5,98.0,298.5,90.5,305.0,75.5,312.5,62.0,317.0,72.5,338.0,76.5,347.0,75.0,353.0,84.0,359.0,75.0,371.0,82.5,374.0,79.5,390.5,78.5,390.5,86.0,405.0,69.0,417.5,71.0,429.0,70.5" stroke="black" stroke-width="2" fill="none" />
<polyline points="392.5,113.5,388.0,115.0,402.5,124.0,398.5,136.0,409.0,148.0,417.0,157.0,420.0,173.5,420.5,166.0,431.0,164.5,446.0,161.5,458.0,160.0" stroke="black" stroke-width="2" fill="none" />
<polyline points="459.5,187.0,455.0,199.5,463.0,199.5,478.0,193.0,490.0,191.5,502.0,192.5" stroke="black" stroke-width="2" fill="none" />
<polyline points="493.5,169.5,487.5,162.0,475.5,163.0,469.5,170.5,457.5,181.0,445.5,179.5,433.5,174.0,428.0,188.5,416.0,182.0,410.5,180.5,404.0,168.0,392.0,167.0,388.0,163.5,376.0,163.5,374.5,153.0,368.5,149.0,358.5,132.5,346.5,125.0,343.0,111.0,331.0,115.5,323.5,119.5,311.5,118.5,299.5,116.5,290.5,124.0,271.0,121.5,264.5,109.5,267.5,90.5,258.5,78.5,260.0,67.0,261.5,63.5,279.5,62.0,268.0,61.0" stroke="black" stroke-width="2" fill="none" />
<polyline points="286.0,55.5,289.5,48.0,302.0,53.0,308.0,60.0,321.5,66.0,334.0,66.0" stroke="black" stroke-width="2" fill="none" />
<polyline points="302.0,47.0,290.0,44.0" stroke="black" stroke-width="2" fill="none" />
<polyline points="291.0,11.5,282.0,23.5,290.5,34.0,296.5,46.5,288.5,59.0,298.5,77.5,303.0,86.5" stroke="black" stroke-width="2" fill="none" />
<polyline points="253.5,91.5,244.5,76.5,239.0,73.5,231.5,67.0" stroke="black" stroke-width="2" fill="none" />
<polyline points="236.0,51.5,224.0,50.0" stroke="black" stroke-width="2" fill="none" />
<polyline points="202.0,65.0,215.5,76.0,224.5,88.0,232.0,99.5,239.5,116.0,251.5,125.0,255.0,147.5,261.0,143.0,265.5,147.5,277.5,151.5,288.0,159.0,300.0,163.5,313.0,162.0,317.5,166.5,329.0,168.0,341.0,169.5,352.5,177.0,364.5,175.5,374.0,178.5,386.0,169.5,398.5,175.0" stroke="black" stroke-width="2" fill="none" />
<polyline points="462.0,236.5,460.0,240.5,447.5,246.0,433.5,235.0,421.5,232.0,412.0,233.5,401.5,232.0,392.5,236.5,387.5,215.5,388.0,213.0,376.0,205.0,364.5,208.0,355.5,202.0,343.5,200.5,337.5,202.0,331.5,192.5,324.0,185.0,312.0,191.0,300.0,189.0,286.5,184.5,274.0,185.0,262.0,185.0,250.0,179.5,238.5,179.5,226.5,179.5,215.0,176.5,210.5,163.0,216.5,155.5,207.5,143.0" stroke="black" stroke-width="2" fill="none" />
<polyline points="235.0,131.0,230.5,139.5,226.0,143.0,214.5,128.0,208.5,128.5,196.0,136.0,196.0,143.5,184.0,140.5,179.5,151.0,166.0,161.5,154.0,164.0,146.5,164.0,134.5,162.5,119.5,173.0,119.5,159.0,107.0,168.5,95.0,170.0" stroke="black" stroke-width="2" fill="none" />
<polyline points="104.0,158.0,92.0,152.0" stroke="black" stroke-width="2" fill="none" />
<polyline points="93.0,153.0,101.5,165.0,101.5,181.5,98.0,195.0,107.0,192.0,118.5,192.0,131.0,193.5,143.0,200.5,146.0,175.0,158.0,170.0,170.0,164.0,183.0,162.5,184.5,159.5,193.5,164.0" stroke="black" stroke-width="2" fill="none" />
<polyline points="210.5,191.0,223.0,197.0" stroke="black" stroke-width="2" fill="none" />
<polyline points="271.0,174.5,256.0,158.5,244.5,158.5,248.5,146.5" stroke="black" stroke-width="2" fill="none" />
<polyline points="308.5,176.5,304.5,178.0,292.5,179.0,288.5,176.0,267.5,179.0,263.0,173.0,250.5,176.0,244.5,175.5,232.5,169.5,228.0,168.0,216.5,168.0,211.0,167.0,208.5,174.5,196.5,179.5,184.5,177.5,172.0,183.5,161.5,177.0,149.5,178.0,151.0,179.5,137.0,167.5,138.5,155.5,144.5,143.5,144.5,124.0,150.5,112.0" stroke="black" stroke-width="2" fill="none" />
<polyline points="144.5,76.0,135.0,69.5,123.0,66.5" stroke="black" stroke-width="2" fill="none" />
<polyline points="110.5,66.0,103.0,78.5,104.0,75.5,110.0,67.0,119.0,61.0,120.5,64.0,132.5,67.0,145.0,68.5,157.0,70.0,168.0,79.5,168.0,76.5" stroke="black" stroke-width="2" fill="none" />
<polyline points="199.5,76.0,206.5,76.0,217.5,88.0,222.0,98.5,213.5,111.0,226.0,120.5,218.5,125.0,205.0,129.5,197.5,138.5,189.0,153.0,178.5,165.0,174.0,168.0,174.5,180.0,195.5,182.5,209.0,188.5,214.5,200.5,207.0,200.5,210.0,223.0,212.5,217.0,224.5,208.5,220.0,217.0,223.0,222.0,224.5,216.0" stroke="black" stroke-width="2" fill="none" />
<polyline points="118.5,226.0,106.5,230.5" stroke="black" stroke-width="2" fill="none" />
<polyline points="100.5,228.5,112.5,224.0" stroke="black" stroke-width="2" fill="none" />
<polyline points="119.5,232.5,116.5,232.5,104.5,237.0,92.0,237.5" stroke="black" stroke-width="2" fill="none" />
<polyline points="89.5,236.0,101.5,231.5,93.5,239.0,100.0,250.5" stroke="black" stroke-width="2" fill="none" />
<polyline points="96.5,244.5,108.5,253.5" stroke="black" stroke-width="2" fill="none" />
<polyline points="108.5,301.0,111.5,294.0,124.0,292.5,133.0,278.0,145.0,290.0,144.5,297.5,146.0,309.0,139.5,322.5,132.0,331.0,136.0,343.0,140.5,355.0" stroke="black" stroke-width="2" fill="none" />
<polyline points="123.0,364.0,130.5,376.0,141.0,383.5,127.5,383.0,136.0,386.0,140.5,398.0,139.5,417.0,145.5,421.5,150.5,427.5,148.5,427.5,156.0,431.5,160.5,443.5,167.5,456.0,175.0,456.0,174.5,468.0,174.5,477.0,186.5,489.0,201.5,500.5,216.5,512.5,224.5,524.5,223.0,536.5,221.0,548.5,221.0,560.5,223.0,573.0,217.0,579.0,220.0,591.0,219.0,603.5,219.0,615.0,221.0,627.0,224.0,628.5,236.0,633.0,248.0,631.5,259.5,631.5,272.5,627.0,284.0,624.5,294.5,623.0,306.0,621.5,317.5,614.0,328.0,621.5,337.0,635.5,349.0,638.5,355.0,641.5,367.0,644.0,382.0,654.0,394.0,658.5,413.5,678.0" stroke="black" stroke-width="2" fill="none" />
<polyline points="198.0,633.5,189.5,621.5,194.5,621.5" stroke="black" stroke-width="2" fill="none" />
<polyline points="176.5,613.5,175.0,625.5" stroke="black" stroke-width="2" fill="none" />
<polyline points="107.0,657.5,94.5,654.5,83.0,648.5,71.0,650.0,59.0,646.0,47.0,658.0,39.5,654.0,34.0,657.5,34.5,650.5,22.5,649.5,18.5,637.5,3.5,628.5" stroke="black" stroke-width="2" fill="none" />
<polyline points="11.0,631.5,23.0,639.0,29.0,650.5,27.5,645.5" stroke="black" stroke-width="2" fill="none" />
<polyline points="15.5,649.5,27.5,660.5" stroke="black" stroke-width="2" fill="none" />
<polyline points="25.0,676.0,12.5,674.5,0.5,671.5" stroke="black" stroke-width="2" fill="none" />
<polyline points="2.5,665.5,11.5,677.5" stroke="black" stroke-width="2" fill="none" />
<polyline points="26.0,664.0,14.0,655.0,14.0,647.5,2.0,643.0" stroke="black" stroke-width="2" fill="none" />
<polyline points="1.5,610.0,14.0,613.0,26.0,620.5,23.0,638.5,35.0,642.5,47.5,643.5" stroke="black" stroke-width="2" fill="none" />
<polyline points="18.5,677.5,20.0,667.5,14.0,656.0,3.5,644.5,4.5,632.5,9.0,622.5,20.5,612.0,5.5,600.0,1.0,607.0" stroke="black" stroke-width="2" fill="none" />
<polyline points="4.5,604.5,4.5,616.5,12.0,635.5,16.5,649.0,24.0,661.5,21.0,672.0,36.0,669.0,53.5,666.5,65.0,674.5,83.0,681.0" stroke="black" stroke-width="2" fill="none" />
<polyline points="80.0,566.5,59.0,569.5,47.0,577.0,40.0,580.0,28.0,585.0,26.5,582.0,22.5,576.5,20.0,572.5,11.0,565.0,7.0,574.5" stroke="black" stroke-width="2" fill="none" />
<polyline points="2.0,596.0,14.0,604.0,26.0,610.0,36.5,604.0" stroke="black" stroke-width="2" fill="none" />
<polyline points="44.0,517.0,48.5,504.5,49.5,518.0,55.0,505.5,49.0,505.5" stroke="black" stroke-width="2" fill="none" />
<polyline points="41.0,480.5,29.0,480.5" stroke="black" stroke-width="2" fill="none" />
<polyline points="27.0,471.0,40.5,484.5,28.5,489.0,32.0,501.0,24.0,500.5,27.0,506.0,27.0,499.5,38.5,486.0" stroke="black" stroke-width="2" fill="none" />
<polyline points="8.0,456.0,20.5,466.0,13.0,483.5,10.0,495.5,4.0,507.5,8.0,519.5,14.0,531.5,5.0,542.0,8.0,539.0,11.0,545.0,16.0,537.5,28.0,540.0,40.0,534.0,42.5,528.5,54.5,531.5,66.0,532.0,78.0,527.0,89.5,522.5,101.5,516.5,113.5,506.0,125.0,492.5" stroke="black" stroke-width="2" fill="none" />
<polyline points="139.5,503.5,145.0,515.5" stroke="black" stroke-width="2" fill="none" />
<polyline points="142.5,521.5,138.0,509.5" stroke="black" stroke-width="2" fill="none" />
<polyline points="151.5,535.0,153.5,547.0,146.0,551.5,137.0,554.5,143.0,566.5,145.0,572.5" stroke="black" stroke-width="2" fill="none" />
<polyline points="148.0,550.0,148.5,562.5,153.0,574.5,144.0,587.5,153.5,591.5,147.5,603.0,150.5,615.0,155.5,627.0,142.0,639.0,133.0,642.0,130.0,645.5,133.0,638.0,146.5,633.5,166.0,636.5" stroke="black" stroke-width="2" fill="none" />
<polyline points="108.5,506.0,99.5,507.5,100.0,495.5,84.5,495.5" stroke="black" stroke-width="2" fill="none" />
<polyline points="91.5,469.0,102.0,463.0,113.5,462.0" stroke="black" stroke-width="2" fill="none" />
<polyline points="119.0,438.5,106.5,432.5,105.0,429.5,93.5,428.0,78.5,449.0,67.0,455.0,55.5,451.5,53.5,444.0,41.5,449.0,27.5,453.5,18.5,452.0,7.0,453.5" stroke="black" stroke-width="2" fill="none" />
<polyline points="1.0,438.5,13.0,439.5,16.0,445.5,28.5,441.0,41.0,442.5,61.0,435.0" stroke="black" stroke-width="2" fill="none" />
<polyline points="54.5,430.5,66.5,442.5" stroke="black" stroke-width="2" fill="none" />
<polyline points="65.0,450.5,69.5,447.5,63.5,429.5,57.5,411.5,70.0,402.5,79.0,402.5,77.0,392.0,82.5,387.5,84.0,375.5,76.5,372.5,76.5,357.5,70.5,348.5,69.5,336.5,58.0,332.0,53.5,320.0,65.5,311.5,70.5,300.0,69.0,288.0,65.5,279.5,61.0,267.5,44.5,255.5,38.5,243.0,34.0,239.5,19.0,224.5,26.5,222.5,25.0,210.5,34.0,198.5,37.0,191.0,44.5,180.0,38.5,174.0,42.5,165.5,41.5,153.5,35.5,153.5,31.0,141.5,41.5,134.0,40.0,125.0,25.0,114.5,22.0,108.0,31.0,103.5,25.0,83.5,19.0,75.0,9.5,63.0,19.0,61.5,16.0,49.5,19.5,37.5,18.0,26.0,12.5,14.0,20.0,2.0,24.0,12.5,12.0,13.0" stroke="black" stroke-width="2" fill="none" />
<polyline points="28.5,9.5,41.0,15.5,50.0,13.5,47.0,18.0,57.5,20.5,68.0,21.5" stroke="black" stroke-width="2" fill="none" />
<polyline points="80.0,4.0,92.0,4.5,104.0,6.0,116.0,6.0,111.5,10.5,117.5,8.5,129.5,4.5,149.0,13.5,155.5,22.5,167.5,21.0,179.5,16.5,182.5,24.0,194.0,25.5,201.5,36.0,213.5,36.0,226.0,33.0,238.0,34.0,251.5,29.5,264.0,26.0,276.0,18.5,279.0,26.0,283.5,29.0,295.0,26.0,306.5,33.5,317.0,38.0,328.5,33.5,340.5,32.0,346.5,48.5,348.5,50.0,355.0,59.0,370.0,66.0,381.5,69.5,381.5,62.0,384.5,41.0,394.0,41.0,399.0,33.5,401.5,29.5,413.5,22.0,424.0,17.5,434.5,14.5,445.0,7.5,452.5,8.5,466.0,4.5,478.0,6.0,478.0,19.5,488.0,27.0,499.0,28.0,511.0,22.0,512.5,32.5,511.0,49.0,508.0,59.5" stroke="black" stroke-width="2" fill="none" />
<polyline points="489.0,125.0,481.5,123.5" stroke="black" stroke-width="2" fill="none" />
<polyline points="498.0,165.5,495.0,164.0,487.5,160.5,481.5,148.5,478.5,157.5,469.5,155.0,466.5,166.0,458.5,157.5,446.5,150.0,443.5,159.0,439.5,152.0,427.5,161.0,426.0,154.5,414.0,157.5,400.5,157.5,384.5,151.5,371.0,148.5,369.5,141.0,362.0,158.5,351.5,154.0,339.5,148.0,336.0,149.5,323.5,151.0,311.5,142.0,306.0,137.5,308.0,131.5,303.5,119.5,308.0,108.0,301.0,99.0,297.5,94.5,290.0,82.5,282.5,71.0,301.5,69.0,293.5,57.0,281.5,57.0,277.5,40.5,274.5,35.5,270.0,20.5,261.0,14.5,244.5,19.0,241.5,7.0,250.5,2.5,264.0,11.5,247.5,11.5" stroke="black" stroke-width="2" fill="none" />
<polyline points="217.5,11.5,219.0,23.5,222.0,49.0,234.0,46.0,246.5,46.0,251.0,53.5,260.0,65.5,268.5,80.0,280.5,84.5,273.0,92.0,287.5,89.5,295.5,101.5,305.0,92.5,317.0,89.5" stroke="black" stroke-width="2" fill="none" />
<polyline points="282.5,164.5,270.5,164.5,258.5,163.0,246.5,169.0,243.0,166.0,231.0,164.0,220.5,159.0,208.0,165.0,196.0,173.5,187.0,184.0,179.5,185.5,168.0,187.0,168.0,193.5,152.5,201.0,141.0,207.0,133.5,198.5,121.5,200.0,117.5,197.0,106.0,198.5,94.0,207.5,88.0,194.5,76.0,188.5,72.5,172.0,65.0,156.5,56.0,156.5,53.0,165.0,51.5,153.0,63.5,138.0,68.0,123.0,66.5,111.0" stroke="black" stroke-width="2" fill="none" />
<polyline points="69.0,104.5,81.0,109.5" stroke="black" stroke-width="2" fill="none" />
<polyline points="94.5,97.5,86.5,93.5,76.0,81.5,83.5,69.5,79.0,61.5,74.5,52.0,94.0,44.5,104.5,39.5,122.5,29.0,119.5,23.0,110.5,23.0,104.5,6.0,97.0,6.0" stroke="black" stroke-width="2" fill="none" />
<polyline points="84.0,1.5,93.0,13.5,99.5,21.0,77.0,30.5,74.0,38.5,65.5,47.5,55.0,59.5,34.5,66.5,42.0,70.0,35.5,83.5,28.0,92.5,39.0,89.5,46.0,76.0,58.0,69.5,69.5,59.5,81.5,46.0,84.0,41.5,96.0,38.5,101.5,41.5,113.5,37.0,125.5,31.0,127.0,20.5,143.5,16.0,144.5,21.5,154.0,4.5,166.0,4.0,179.5,2.5,191.5,2.5,196.5,13.0,208.5,10.0,220.5,13.0" stroke="black" stroke-width="2" fill="none" />
<polyline points="192.5,2.0,200.0,14.0,195.0,14.0,196.5,26.5,210.0,32.5,220.5,43.0,207.0,52.0,217.5,64.0,223.5,62.5,223.5,71.5,229.5,83.5,234.5,95.5,240.0,106.0,237.0,114.0,243.0,119.0,241.5,131.0,235.5,135.5,240.0,142.5,234.0,150.0,237.0,162.0,233.5,166.5,236.5,186.0,233.5,193.5,233.5,205.5,234.0,217.5,240.5,222.0,225.5,223.0,223.5,230.5,228.0,221.0,230.5,224.0,242.5,222.5" stroke="black" stroke-width="2" fill="none" />
<polyline points="101.0,264.0,94.0,252.0,79.0,239.0,71.0,234.0,62.5,225.0,55.0,212.5,51.0,209.5,45.0,197.0,54.0,184.5,61.5,172.5,67.5,160.5,58.5,148.5,50.0,138.0,53.0,117.5,63.5,114.5,66.0,102.0,63.5,88.5,66.0,82.5,68.0,70.5,71.0,60.0,60.5,51.0,48.5,57.0" stroke="black" stroke-width="2" fill="none" />
<polyline points="57.0,75.0,57.5,75.0,56.5,87.0,49.0,99.0,52.0,105.5,41.5,123.5,43.0,116.0,57.5,110.5,58.5,103.0,70.5,101.0,82.5,105.5" stroke="black" stroke-width="2" fill="none" />
<polyline points="96.0,93.0,84.5,84.0" stroke="black" stroke-width="2" fill="none" />
<polyline points="69.0,73.0,69.0,68.0,71.0,80.0,71.0,86.0,78.5,73.0,90.5,64.0,101.0,71.0" stroke="black" stroke-width="2" fill="none" />
<polyline points="83.5,61.0,98.5,49.5,112.0,45.0" stroke="black" stroke-width="2" fill="none" />
<polyline points="106.5,26.5,87.0,30.5,75.5,43.0,59.0,61.0,42.5,79.0,44.0,91.0,40.0,103.5,40.0,112.5,35.5,120.5,25.5,133.0,13.5,134.5,20.5,146.5,26.5,154.0,36.5,157.0,32.0,163.0,31.5,175.0,30.0,186.5,25.5,198.5,39.0,216.0,37.5,223.5,42.0,231.0,46.5,240.0,58.5,242.0,63.5,252.5,71.0,246.5,89.0,263.0,99.5,260.0,111.0,260.0,112.5,263.0,115.0,272.0,117.0,266.5,128.5,271.0,141.0,268.0,147.0,260.5,164.0,269.0,165.5,278.5,168.5,289.0,171.5,284.0,184.0,284.0,185.5,291.5,197.5,284.0,208.5,290.5,220.5,281.5,232.0,279.0,242.0,276.0,243.5,270.0,255.5,272.5,267.5,269.5,279.5,263.0,279.5,255.5,291.5,271.0,308.0,266.5,320.0,268.0,332.0,271.0,344.0,272.5,356.0,275.5,368.0,276.5,375.5,285.0,381.5,274.5,393.5,282.0,406.0,289.5" stroke="black" stroke-width="2" fill="none" />
<polyline points="163.0,188.5,151.0,193.0,142.0,187.0,140.5,179.5,133.0,188.5,124.0,184.0,112.0,185.5,109.0,181.0,105.5,181.0,122.0,172.0,129.5,158.0,114.5,143.0,109.5,139.5,110.5,127.5" stroke="black" stroke-width="2" fill="none" />
<polyline points="97.5,152.0,106.5,164.0" stroke="black" stroke-width="2" fill="none" />
<polyline points="59.5,173.5,47.5,177.5,42.5,180.5,30.0,179.0" stroke="black" stroke-width="2" fill="none" />
<polyline points="54.0,189.0,65.0,201.0,63.5,213.0" stroke="black" stroke-width="2" fill="none" />
<polyline points="47.5,218.5,53.5,222.0,70.0,234.0,65.5,246.5,71.5,249.5,73.0,260.0,68.5,267.5" stroke="black" stroke-width="2" fill="none" />
<polyline points="65.0,319.0,77.5,324.0,89.0,333.0" stroke="black" stroke-width="2" fill="none" />
<polyline points="99.5,333.5,87.5,323.0,75.5,308.0,53.0,293.5,40.5,299.5,33.5,297.0,41.0,300.0,35.0,290.0,23.5,297.5,11.0,298.0" stroke="black" stroke-width="2" fill="none" />
<polyline points="3.5,294.5,15.5,290.0,27.5,296.0,17.0,299.0,15.5,311.0,5.0,317.0,8.0,322.0,10.5,323.5,4.0,335.5,10.0,341.5,15.5,353.5,5.5,365.0,15.5,377.0,15.5,388.5,18.5,400.5,18.0,413.5,14.0,428.5,9.5,438.5,12.5,449.0,3.5,461.0,5.0,465.5,3.5,477.5,24.5,467.0,36.5,471.5,47.0,477.5,53.5,478.0,59.5,485.5,65.0,489.0,72.5,490.5" stroke="black" stroke-width="2" fill="none" />
<polyline points="93.0,450.5,91.5,435.5,73.5,440.0,61.5,441.0,49.5,435.0,31.0,427.5,17.5,432.0,5.0,430.0,2.0,434.0" stroke="black" stroke-width="2" fill="none" />
<polyline points="14.5,414.5,2.5,408.5" stroke="black" stroke-width="2" fill="none" />
<polyline points="3.5,404.0,12.5,404.0,9.5,414.5,4.5,422.0,10.5,422.0,13.5,417.5,23.5,422.0,35.5,419.0,38.5,416.0,48.0,428.0,60.0,426.5,75.0,417.5,86.5,416.0" stroke="black" stroke-width="2" fill="none" />
<polyline points="92.0,399.0,93.5,411.0,96.5,426.0,107.0,433.5,99.5,452.5,99.5,459.5,107.0,473.0,113.0,476.0,120.5,477.5,132.5,474.0,145.0,472.5,161.5,471.0,168.5,482.5,180.5,491.5" stroke="black" stroke-width="2" fill="none" />
<polyline points="143.5,451.0,134.5,439.0" stroke="black" stroke-width="2" fill="none" />
<polyline points="136.5,395.0,132.0,383.0,123.0,379.0,109.0,380.5,92.5,373.0,84.5,388.0,74.0,394.0,74.0,382.0,59.0,386.5,45.5,388.0,33.5,398.5,28.0,388.0,21.0,395.5,15.0,397.0,6.0,389.0,6.0,375.5,16.5,360.5,14.5,347.0,2.5,341.5" stroke="black" stroke-width="2" fill="none" />
<polyline points="4.5,340.5,4.5,352.5,4.5,348.0,9.0,353.0,20.5,344.0,23.5,336.5,36.0,343.0,48.0,337.0,55.5,341.5,66.0,344.5" stroke="black" stroke-width="2" fill="none" />
<polyline points="57.5,362.5,46.0,356.0,43.0,362.0,31.5,363.5,19.5,366.5" stroke="black" stroke-width="2" fill="none" />
<polyline points="2.5,360.0,15.0,354.0,24.0,361.5,12.5,372.0,20.0,376.5,32.5,375.0,33.5,369.5,38.0,386.0" stroke="black" stroke-width="2" fill="none" />
<polyline points="45.0,406.0,33.0,413.5" stroke="black" stroke-width="2" fill="none" />
<polyline points="46.0,431.0,41.5,432.5,42.0,453.0,45.5,465.0,58.0,468.0,65.5,462.0,77.5,463.5,89.0,467.0,95.0,461.0,106.5,453.5,118.5,450.5,126.0,456.5,138.0,453.0,144.0,454.5,153.5,453.0,153.5,461.5,158.0,464.5,153.5,476.5,151.0,488.5,151.0,492.0,148.0,504.0,154.5,516.0,156.0,522.0,159.5,534.0,164.0,546.0,169.0,558.0,167.0,570.5,180.5,576.5,184.5,589.0,195.0,601.0,204.0,608.5,208.5,620.5,202.0,623.5,206.5,632.5,220.0,641.5" stroke="black" stroke-width="2" fill="none" />
<polyline points="133.5,432.5,122.0,432.5,120.5,432.5,123.5,420.0,117.5,419.5,108.0,407.0,114.0,395.0,114.0,383.0" stroke="black" stroke-width="2" fill="none" />
<polyline points="103.0,372.5,91.0,384.5,80.0,402.5,66.5,407.0,59.0,410.5,57.5,418.0,57.5,417.5,58.5,410.0,65.5,398.5" stroke="black" stroke-width="2" fill="none" />
<polyline points="82.5,341.5,70.5,337.0,58.5,322.0,47.0,319.0,35.5,322.5,24.0,324.0,15.0,310.0,3.0,308.5" stroke="black" stroke-width="2" fill="none" />
<polyline points="3.0,302.5,15.0,304.0,19.5,318.5,12.0,329.0,16.0,336.5,32.5,338.0,35.5,350.0,37.0,354.5,48.5,346.0,63.0,352.5,72.0,350.0" stroke="black" stroke-width="2" fill="none" />
<polyline points="81.0,337.0,73.5,325.0" stroke="black" stroke-width="2" fill="none" />
<polyline points="73.0,331.0,70.0,319.5" stroke="black" stroke-width="2" fill="none" />
<polyline points="41.0,324.5,29.5,327.5,17.5,329.0" stroke="black" stroke-width="2" fill="none" />
<polyline points="3.0,277.0,15.0,274.5,29.5,264.0,25.0,276.5,32.5,283.5,32.0,295.5,28.0,308.0,35.5,308.0,37.0,320.5,28.5,329.5,34.5,338.5,34.5,330.5,47.0,333.5,59.0,330.5,75.0,333.5,90.0,336.0,101.5,340.5,116.5,342.0" stroke="black" stroke-width="2" fill="none" />
<polyline points="118.0,350.5,106.0,349.0,90.0,343.0,87.5,347.5,85.5,335.5,81.5,323.5,79.5,311.5,64.5,305.5,58.0,293.5,55.0,281.0,43.0,273.5,31.0,261.5,26.5,251.0,14.5,255.5,2.5,260.0" stroke="black" stroke-width="2" fill="none" />
<polyline points="1.0,270.0,13.0,270.5,10.0,282.5,13.5,285.5,26.0,284.0,33.5,275.0,33.5,278.5,46.0,283.5" stroke="black" stroke-width="2" fill="none" />
<polyline points="25.5,232.5,13.5,228.5" stroke="black" stroke-width="2" fill="none" />
<polyline points="8.0,228.0,11.0,238.5,23.0,234.0,35.5,234.5,47.5,239.5,59.5,243.0" stroke="black" stroke-width="2" fill="none" />
<polyline points="51.0,232.0,39.0,224.5,27.0,227.5,15.0,224.5,2.5,232.0" stroke="black" stroke-width="2" fill="none" />
<polyline points="35.5,207.0,25.5,208.5,22.5,188.5,15.5,191.5,3.5,189.5" stroke="black" stroke-width="2" fill="none" />
<polyline points="16.5,139.0,25.5,170.5,28.0,175.0,40.0,196.0,49.0,191.5,55.0,186.0,67.0,194.5,80.5,198.5,99.5,204.0,107.0,193.5" stroke="black" stroke-width="2" fill="none" />
<polyline points="79.5,105.0,58.5,101.5" stroke="black" stroke-width="2" fill="none" />
<polyline points="39.5,104.5,27.5,106.0,15.5,106.0" stroke="black" stroke-width="2" fill="none" />
<polyline points="14.0,101.5,10.5,89.5" stroke="black" stroke-width="2" fill="none" />
<polyline points="6.5,72.0,18.5,79.5,34.5,70.5,46.0,66.0,48.5,48.5,60.5,45.5,72.0,39.5" stroke="black" stroke-width="2" fill="none" />
<polyline points="62.5,27.0,50.5,29.5,38.5,32.5" stroke="black" stroke-width="2" fill="none" />
<polyline points="41.0,37.0,30.5,49.0,34.0,66.5,43.0,73.0,55.0,67.0,58.0,57.0,70.0,49.0,82.0,38.5,94.0,31.0,105.5,29.5,102.5,45.0,114.5,43.5,126.5,40.5,138.5,43.5,150.5,46.0,162.0,55.5,168.0,55.0,179.5,65.5,188.0,55.0,200.5,54.5,214.0,54.5,215.5,60.0,230.5,62.0,242.5,74.0,255.0,76.5,266.0,88.5" stroke="black" stroke-width="2" fill="none" />
<polyline points="345.5,12.0,355.5,24.5,357.5,33.0,360.5,45.0,375.0,48.0,374.5,64.5,370.0,60.0,383.0,55.5,390.5,54.0,393.5,48.0,401.0,43.5,413.0,51.0,422.0,51.5,434.0,49.0,446.5,43.0,451.0,35.5,452.5,39.5,461.0,32.0,462.0,44.0,471.0,49.5,483.0,51.0,495.0,54.0,500.0,56.0,508.0,59.0" stroke="black" stroke-width="2" fill="none" />
<polyline points="510.5,40.5,499.5,31.5,499.5,39.5,490.5,47.0,478.5,45.5,477.0,56.0,464.5,56.0,455.5,50.5,452.0,62.5,443.0,55.0,437.0,49.0,441.5,42.0,440.5,28.5,434.5,16.5,431.5,4.5" stroke="black" stroke-width="2" fill="none" />
<polyline points="407.0,18.5,389.0,30.5,382.5,43.5,397.0,60.0,399.5,70.5" stroke="black" stroke-width="2" fill="none" />
<polyline points="411.0,19.0,399.5,24.0,388.0,32.0,374.5,41.0,373.0,33.5,360.5,32.0,365.5,24.5,364.0,13.0" stroke="black" stroke-width="2" fill="none" />
<polyline points="66.0,6.5,51.5,7.5,39.5,6.0" stroke="black" stroke-width="2" fill="none" />
<polyline points="15.0,66.0,15.0,71.0,27.0,71.0" stroke="black" stroke-width="2" fill="none" />
<polyline points="1.0,62.5,4.0,58.0,3.0,51.0,10.5,55.5,10.0,60.5,24.0,52.0,36.0,43.0,48.5,37.5,60.5,34.5" stroke="black" stroke-width="2" fill="none" />
<polyline points="5.5,110.5,17.5,121.0" stroke="black" stroke-width="2" fill="none" />
<polyline points="2.5,110.0,8.5,104.0,17.5,116.0,35.5,116.0,47.0,108.0,50.0,86.0,54.5,80.0,56.0,95.5" stroke="black" stroke-width="2" fill="none" />
<polyline points="121.0,367.0,120.5,379.0,131.0,391.5,125.0,403.5,120.5,409.5,131.5,420.0,125.0,424.5,117.5,440.0,119.0,446.0,108.5,455.0,125.0,461.0,139.0,459.5,143.5,476.0,129.5,489.0,128.0,508.0,119.0,515.5,127.0,519.5,130.0,507.5,132.5,509.0,140.0,524.0" stroke="black" stroke-width="2" fill="none" />
</svg>