<svg xmlns="http://www.w3.org/2000/svg" version="1.1"><polyline points="62.0,2.5,64.5,22.5,34.5,27.5,37.0,40.0,26.5,59.5,6.5,64.5,4.5,84.0,4.5,104.0,9.5,123.5,17.0,125.5,27.0,138.0,34.5,158.5,47.0,178.5,29.5,183.5,24.0,188.5,19.0,198.5,21.0,201.0,28.5,208.0,13.5,235.5,29.0,255.0,24.0,275.0,4.0,285.5,4.0,308.0,16.5,320.5,4.0,341.0,21.5,353.5,4.0,358.5,16.5,371.0,3.5,386.0,16.0,399.0,15.5,418.5,8.5,441.0,11.0,453.5,6.0,473.5,6.5,493.5,26.5,503.5,9.5,514.0,30.0,519.5,13.0,535.0,18.0,515.0,20.5,502.5,25.5,515.0,45.5,502.5,47.5,493.0,57.5,488.0,62.0,498.5" stroke="black" stroke-width="2" fill="none" />
<polyline points="84.0,477.5,104.0,487.5" stroke="black" stroke-width="2" fill="none" />
<polyline points="131.0,485.0,139.0,503.0,144.0,515.5" stroke="black" stroke-width="2" fill="none" />
<polyline points="164.0,522.5,184.0,517.0,209.0,526.5,241.5,534.0,262.0,526.0,282.5,513.5,302.5,526.0" stroke="black" stroke-width="2" fill="none" />
<polyline points="288.0,533.0,288.0,550.5,278.5,553.0,298.5,562.5,316.0,572.5" stroke="black" stroke-width="2" fill="none" />
<polyline points="347.5,572.0,367.5,574.5,369.5,569.5,354.5,584.5,342.0,612.0,349.0,609.0,369.0,619.0,376.5,594.0,394.0,579.0,414.5,571.5,434.5,569.5,427.5,589.5,427.5,589.0,432.5,599.0,452.5,604.0,472.5,599.0,467.5,614.0,485.0,609.5,505.0,612.0" stroke="black" stroke-width="2" fill="none" />
<polyline points="494.5,624.5,474.5,635.0,454.5,630.0,449.5,627.5,442.0,615.5,419.5,618.0,407.0,608.0,387.5,603.0" stroke="black" stroke-width="2" fill="none" />
<polyline points="392.5,619.5,380.5,634.0,372.5,614.0,365.0,592.0,379.5,572.0,389.5,569.5,370.0,562.0" stroke="black" stroke-width="2" fill="none" />
<polyline points="389.5,542.0,399.5,562.0,392.0,587.0,382.0,607.0,357.0,612.0,349.5,632.0,369.5,639.5,390.0,644.0" stroke="black" stroke-width="2" fill="none" />
<polyline points="420.0,646.5,407.5,639.0,414.5,618.5,427.0,616.0" stroke="black" stroke-width="2" fill="none" />
<polyline points="475.5,634.5,485.5,615.0" stroke="black" stroke-width="2" fill="none" />
<polyline points="493.0,596.0,483.0,571.0,463.0,563.5" stroke="black" stroke-width="2" fill="none" />
<polyline points="461.5,557.5,489.0,577.5,474.0,605.0,449.0,627.0,453.5,639.5,483.5,655.0,471.5,674.5" stroke="black" stroke-width="2" fill="none" />
<polyline points="500.5,575.0,500.0,557.0,492.5,544.5,494.5,515.0,470.0,502.5,475.0,475.0,480.0,465.5,495.0,450.0,497.5,430.5,494.5,410.0,504.5,397.5,482.5,382.5,462.5,387.5" stroke="black" stroke-width="2" fill="none" />
<polyline points="455.5,384.5,460.5,374.5,450.0,382.0,467.5,402.0,479.5,407.5,474.5,427.5,489.5,422.5,482.5,442.5,465.5,467.5,447.5,493.0,462.5,522.5,480.0,533.0,500.0,525.0,505.0,497.0" stroke="black" stroke-width="2" fill="none" />
<polyline points="496.5,510.5,476.5,505.5,476.5,515.5" stroke="black" stroke-width="2" fill="none" />
<polyline points="449.5,492.5,432.0,510.0,434.0,490.5,424.0,483.5" stroke="black" stroke-width="2" fill="none" />
<polyline points="426.5,471.5,446.5,474.5,464.0,472.0" stroke="black" stroke-width="2" fill="none" />
<polyline points="495.0,479.0,475.0,484.0,457.0,501.5,437.0,514.0,417.0,501.5,397.0,492.0,369.5,505.0,349.5,530.0,357.0,512.5,364.5,480.0,344.5,485.0,324.5,487.5" stroke="black" stroke-width="2" fill="none" />
<polyline points="334.5,502.0,329.5,522.0,305.0,531.5,325.0,531.5" stroke="black" stroke-width="2" fill="none" />
<polyline points="380.0,523.0,399.5,532.5,419.5,542.5" stroke="black" stroke-width="2" fill="none" />
<polyline points="431.0,535.5,411.0,523.0" stroke="black" stroke-width="2" fill="none" />
<polyline points="410.5,523.0,435.5,543.0,462.5,535.0,474.5,537.5,504.5,544.5" stroke="black" stroke-width="2" fill="none" />
<polyline points="490.0,552.5,470.5,542.5,441.0,529.5,421.0,517.0,401.0,497.0" stroke="black" stroke-width="2" fill="none" />
<polyline points="388.0,516.5,408.0,536.5,407.5,559.0,425.0,566.5,414.5,591.5,409.5,611.5,384.0,624.0,396.5,639.0,414.5,649.0,429.5,656.5,442.5,663.5,469.5,676.0,484.5,651.5" stroke="black" stroke-width="2" fill="none" />
<polyline points="504.0,591.0,476.0,586.0,471.0,553.5" stroke="black" stroke-width="2" fill="none" />
<polyline points="400.5,557.0,385.5,562.0,365.0,557.0,357.5,564.5,337.5,567.0,317.5,574.5,295.0,564.0,269.5,579.0,266.5,569.0,246.5,571.5,239.5,586.5,209.5,579.0,212.0,551.5,192.0,541.5" stroke="black" stroke-width="2" fill="none" />
<polyline points="233.5,541.0,233.5,543.5,227.0,563.5,242.5,563.5,262.5,579.0,285.0,586.5" stroke="black" stroke-width="2" fill="none" />
<polyline points="298.0,559.5,277.5,542.0,270.0,547.5" stroke="black" stroke-width="2" fill="none" />
<polyline points="240.5,552.5,260.5,545.0,268.0,527.5,287.5,532.5,307.0,547.5,327.0,550.0,347.0,524.5" stroke="black" stroke-width="2" fill="none" />
<polyline points="382.0,515.0,384.5,534.5,342.5,554.5,332.5,569.5,327.0,594.0,331.5,604.0,336.5,624.0,371.5,649.5,376.5,664.5,374.0,662.0,386.5,657.0,414.0,667.0,419.0,626.5,431.5,621.5,452.0,634.0,472.0,644.0,492.0,616.5" stroke="black" stroke-width="2" fill="none" />
<polyline points="489.0,529.5,496.5,504.5,491.5,485.0,499.0,485.0,506.5,465.5" stroke="black" stroke-width="2" fill="none" />
<polyline points="453.0,407.5,433.0,390.0" stroke="black" stroke-width="2" fill="none" />
<polyline points="429.5,382.5,434.5,405.0,432.0,392.5,459.5,412.5,470.0,427.5" stroke="black" stroke-width="2" fill="none" />
<polyline points="502.0,430.5,502.0,413.5,474.0,403.5,462.0,406.5,442.0,394.0,419.5,392.0,437.5,377.0,417.0,387.5" stroke="black" stroke-width="2" fill="none" />
<polyline points="398.0,425.0,403.0,450.5,391.0,475.5,406.0,490.0,416.0,510.0,436.0,524.5,438.5,514.5,458.0,514.0,480.5,499.0,500.0,489.0" stroke="black" stroke-width="2" fill="none" />
<polyline points="507.5,424.5,498.0,409.5,491.0,416.5,478.5,409.0,471.0,396.5,466.0,394.0,436.0,409.0,421.0,414.0,415.5,421.5,395.5,419.5,375.0,404.5,369.5,410.0,349.5,397.0,336.5,402.0,319.0,427.0,306.5,441.5,286.5,442.0,266.5,452.5,246.5,445.0,236.5,417.5,231.5,392.5,217.0,410.0,197.5,408.0,195.5,368.0,175.5,360.0,155.5,372.5,143.0,372.5,123.0,365.0,112.5,343.0,87.5,351.0,94.5,346.0,75.0,350.5,67.5,350.5,53.0,337.5,53.0,315.0,43.0,307.5,40.5,300.0,33.0,300.0,35.0,289.5,37.0,269.0,29.0,246.0,31.5,236.0,43.5,216.0,63.5,211.0,56.0,211.0,50.5,216.0" stroke="black" stroke-width="2" fill="none" />
<polyline points="34.5,227.0,54.0,224.5,56.5,245.0,68.5,252.5,63.5,265.0,66.0,285.0,48.5,285.5,53.5,305.0,71.0,325.0,48.5,333.0,31.0,362.5,31.5,383.0,59.0,395.5,74.0,400.0,62.0,407.0,69.5,419.0,44.5,434.0,57.5,439.0,47.5,456.5,45.0,466.5,47.5,487.0,60.0,494.5,65.0,514.5,22.5,539.5,7.5,552.0,15.0,559.5,37.5,540.0,58.0,532.5" stroke="black" stroke-width="2" fill="none" />
<polyline points="51.0,539.5,71.0,537.0,91.5,529.0,112.0,519.0,120.0,544.0,100.0,564.0,90.0,591.5,99.5,612.0,134.5,609.5,104.0,629.5,96.5,634.5,84.0,657.0" stroke="black" stroke-width="2" fill="none" />
<polyline points="76.5,669.5,74.0,652.0,47.0,647.0" stroke="black" stroke-width="2" fill="none" />
<polyline points="37.0,633.0,57.0,628.0,77.0,640.5,97.0,648.0,109.5,637.5,129.5,637.0,132.0,622.0,149.5,629.5" stroke="black" stroke-width="2" fill="none" />
<polyline points="157.0,672.0,137.5,677.5" stroke="black" stroke-width="2" fill="none" />
<polyline points="158.5,655.0,138.0,652.0,113.0,659.5,93.0,654.5,73.0,649.5,53.5,640.0,33.5,640.5,13.0,625.0" stroke="black" stroke-width="2" fill="none" />
<polyline points="33.5,625.0,61.5,632.0" stroke="black" stroke-width="2" fill="none" />
<polyline points="57.5,611.5,77.0,596.5,96.5,594.5,104.0,584.5,124.5,577.5" stroke="black" stroke-width="2" fill="none" />
<polyline points="117.5,567.0,147.5,597.0,154.5,617.0,159.0,622.0,169.0,642.0,139.0,641.5,156.0,636.5,164.0,629.0,169.0,641.0" stroke="black" stroke-width="2" fill="none" />
<polyline points="168.0,621.5,160.5,621.5,140.5,629.0,135.5,604.0,115.0,607.0,100.0,634.5,87.5,624.5,82.5,637.5,60.0,618.0,75.0,613.5,40.5,598.5" stroke="black" stroke-width="2" fill="none" />
<polyline points="25.0,584.0,35.0,572.0,44.5,561.5,64.0,562.0" stroke="black" stroke-width="2" fill="none" />
<polyline points="31.0,551.0,51.0,548.5,71.0,541.5,96.5,539.0,106.5,532.0,126.5,530.0" stroke="black" stroke-width="2" fill="none" />
<polyline points="132.5,554.5,112.5,554.5" stroke="black" stroke-width="2" fill="none" />
<polyline points="109.5,549.5,130.0,542.0" stroke="black" stroke-width="2" fill="none" />
<polyline points="159.0,489.5,166.5,499.5,161.5,519.0,166.5,539.0,174.5,539.0,182.0,571.0,187.0,591.0,204.5,598.5,225.0,611.0,245.0,606.5,250.0,594.0,270.5,594.0,278.0,586.5,303.5,571.5,323.5,589.0" stroke="black" stroke-width="2" fill="none" />
<polyline points="305.0,591.5,300.0,581.5,280.0,574.0,259.5,576.0,247.0,563.5,227.5,563.5" stroke="black" stroke-width="2" fill="none" />
<polyline points="226.0,599.5,226.0,607.5,230.5,607.5" stroke="black" stroke-width="2" fill="none" />
<polyline points="252.5,614.5,239.5,619.0,254.5,604.0,247.5,596.0,232.5,591.0,205.0,573.5,202.5,553.5,215.0,531.0,190.0,523.5,177.5,519.0,187.0,509.0,167.0,497.0,176.5,472.0,148.5,457.0,128.5,469.5,108.5,447.0,99.0,429.0,87.0,436.5,67.5,454.5,63.0,439.5,55.5,427.0,35.5,419.5,25.5,400.0,10.5,400.0,8.0,390.0" stroke="black" stroke-width="2" fill="none" />
<polyline points="19.0,382.0,39.0,392.0,46.5,391.5,66.5,411.5,84.5,384.0,104.5,371.5,134.5,396.5,145.0,384.0,165.0,391.5" stroke="black" stroke-width="2" fill="none" />
<polyline points="185.0,393.0,192.5,375.5,160.0,363.0" stroke="black" stroke-width="2" fill="none" />
<polyline points="155.5,357.5,178.0,362.5,170.5,382.5,170.0,390.5,190.0,380.5,207.0,388.5" stroke="black" stroke-width="2" fill="none" />
<polyline points="209.0,377.0,224.0,374.5,231.5,394.5,239.5,415.0,237.0,420.0,262.5,445.0,277.5,440.0,292.5,460.5,304.5,470.5,319.5,455.0,339.0,442.5,359.5,440.0" stroke="black" stroke-width="2" fill="none" />
<polyline points="357.0,455.0,337.0,457.5,317.0,459.5" stroke="black" stroke-width="2" fill="none" />
<polyline points="331.5,439.0,309.5,429.0,329.5,436.5,349.5,431.5,369.5,436.5" stroke="black" stroke-width="2" fill="none" />
<polyline points="397.0,429.0,399.5,449.0,394.5,452.0,399.5,472.5,405.0,507.5,427.5,527.5,432.5,557.0,474.5,577.0,459.0,587.0,446.5,596.5,441.5,616.5,439.0,636.5,427.0,649.5,405.0,652.0,407.5,672.0,442.5,677.5,464.5,675.0,484.5,665.5,504.0,663.0" stroke="black" stroke-width="2" fill="none" />
<polyline points="337.5,409.5,318.0,409.5,298.0,414.5,278.0,397.5,258.0,390.0" stroke="black" stroke-width="2" fill="none" />
<polyline points="275.0,389.0,295.5,394.0,310.5,401.5,331.0,399.0" stroke="black" stroke-width="2" fill="none" />
<polyline points="351.5,391.0,371.5,411.5,354.0,424.0,379.0,431.5,396.5,429.5,416.5,429.5,437.0,437.0,455.0,429.5,475.5,439.5" stroke="black" stroke-width="2" fill="none" />
<polyline points="501.0,330.5,491.0,338.5,470.5,323.5" stroke="black" stroke-width="2" fill="none" />
<polyline points="450.0,324.5,457.5,332.5,460.5,312.5,452.5,292.5" stroke="black" stroke-width="2" fill="none" />
<polyline points="431.0,272.5,410.5,252.5" stroke="black" stroke-width="2" fill="none" />
<polyline points="419.5,264.5,422.5,259.5,435.0,242.0,415.0,232.0,412.5,212.5,397.0,203.0" stroke="black" stroke-width="2" fill="none" />
<polyline points="474.5,187.5,494.5,192.5" stroke="black" stroke-width="2" fill="none" />
<polyline points="481.5,204.5,501.5,214.5" stroke="black" stroke-width="2" fill="none" />
<polyline points="486.0,225.5,478.5,228.0,458.5,231.0,450.5,241.0,435.5,238.5,423.0,250.5,403.0,248.0,385.0,248.0,372.5,245.5,364.5,245.5,369.0,233.0,348.5,243.0,328.5,253.0,308.5,241.0" stroke="black" stroke-width="2" fill="none" />
<polyline points="306.0,251.5,324.0,271.5,317.0,292.0,349.5,307.0,324.5,322.5,319.5,337.5,317.5,355.0,337.5,355.0,357.5,357.5,367.5,337.5,370.0,347.5,387.5,350.0" stroke="black" stroke-width="2" fill="none" />
<polyline points="367.5,367.0,357.5,387.0,380.0,387.0,388.0,409.5,370.5,420.0,358.0,442.5" stroke="black" stroke-width="2" fill="none" />
<polyline points="332.5,361.5,312.5,364.5,292.5,364.0,273.0,369.0,253.0,363.5" stroke="black" stroke-width="2" fill="none" />
<polyline points="245.0,360.0,265.5,362.5,265.5,357.5,280.5,350.0,280.5,357.5,300.5,355.0" stroke="black" stroke-width="2" fill="none" />
<polyline points="278.0,312.0,298.0,309.5,295.0,312.0,278.0,329.5,288.0,326.5,295.5,321.5,315.0,331.5,335.0,319.0,354.5,319.0,374.5,326.5" stroke="black" stroke-width="2" fill="none" />
<polyline points="397.5,315.0,385.0,295.5,379.5,275.5,357.0,268.5,339.5,253.5,347.0,253.0,324.5,245.5,332.0,225.5,312.0,220.5" stroke="black" stroke-width="2" fill="none" />
<polyline points="318.5,217.5,338.5,213.0,358.5,220.5" stroke="black" stroke-width="2" fill="none" />
<polyline points="363.0,254.0,333.0,236.5,313.0,229.0" stroke="black" stroke-width="2" fill="none" />
<polyline points="297.0,212.0,317.0,212.5,337.5,208.0" stroke="black" stroke-width="2" fill="none" />
<polyline points="296.5,179.5,276.0,172.0,266.0,177.0,246.0,174.0" stroke="black" stroke-width="2" fill="none" />
<polyline points="246.0,167.0,266.0,170.0,288.0,165.0,290.5,160.5,310.0,158.0,330.0,168.0,350.0,175.5" stroke="black" stroke-width="2" fill="none" />
<polyline points="352.0,154.0,354.0,149.5,328.5,125.0,313.0,120.0,330.5,105.0" stroke="black" stroke-width="2" fill="none" />
<polyline points="327.0,115.5,340.0,135.5" stroke="black" stroke-width="2" fill="none" />
<polyline points="363.0,128.0,343.5,123.0,323.5,115.5" stroke="black" stroke-width="2" fill="none" />
<polyline points="364.5,96.0,387.5,118.5,395.0,141.0,408.0,156.0,405.5,163.5,415.5,181.5" stroke="black" stroke-width="2" fill="none" />
<polyline points="420.0,157.0,399.5,139.0,394.5,121.5,394.5,109.0" stroke="black" stroke-width="2" fill="none" />
<polyline points="385.0,88.5,365.0,88.5" stroke="black" stroke-width="2" fill="none" />
<polyline points="358.0,34.5,338.0,27.0,317.5,24.5,297.5,14.5" stroke="black" stroke-width="2" fill="none" />
<polyline points="277.5,3.0,285.0,23.0,315.0,33.0,324.5,33.0,334.5,40.0,354.5,47.5,374.5,57.5,380.0,77.5,400.0,87.0,420.5,92.0,423.0,107.0,443.0,114.5,453.0,144.5,463.0,111.5" stroke="black" stroke-width="2" fill="none" />
<polyline points="455.0,110.5,475.0,115.5,494.5,120.5" stroke="black" stroke-width="2" fill="none" />
<polyline points="479.0,126.0,472.0,106.0,477.0,90.5,487.5,63.0,470.0,66.0,442.5,71.0,422.5,41.0,420.0,18.5,407.5,41.5,394.5,57.0,382.0,42.5,372.0,37.5,347.0,17.5,321.5,17.5" stroke="black" stroke-width="2" fill="none" />
<polyline points="341.5,36.0,356.5,36.0,359.0,59.0,364.5,76.5,389.5,79.5,394.5,89.5,412.0,91.5,429.5,126.5,429.5,131.0,424.0,156.0,436.5,163.5,457.0,154.0,472.5,139.0,492.5,134.5" stroke="black" stroke-width="2" fill="none" />
<polyline points="494.5,160.5,474.5,161.0,457.0,166.5,424.5,189.5,414.5,170.0,419.0,140.0,406.5,133.0,421.0,130.5,401.0,135.5,381.0,130.0,358.5,120.5,333.0,133.0,323.5,140.5,298.5,135.5,278.5,133.0,281.5,118.5,271.5,88.5,259.0,68.5,234.5,66.0,210.0,58.5" stroke="black" stroke-width="2" fill="none" />
<polyline points="214.5,54.5,234.5,34.5,239.0,55.0,254.0,75.0,277.0,80.0,272.5,100.5,260.0,110.5,268.0,120.5,290.5,130.5,276.0,148.0,286.0,160.5,261.0,180.5,280.5,188.0,308.0,175.0,335.0,192.0,354.5,189.0,367.0,193.5,379.5,213.5,387.0,203.0,399.5,228.0,416.5,228.0,414.5,235.5,430.0,233.0,435.0,208.5,448.0,199.0,468.0,189.5,490.5,197.0" stroke="black" stroke-width="2" fill="none" />
<polyline points="479.0,239.5,471.5,259.5,474.0,271.5,471.5,291.5,471.5,311.0,471.5,331.0,459.5,351.5" stroke="black" stroke-width="2" fill="none" />
<polyline points="498.5,266.5,494.0,257.0,471.5,257.5,451.5,280.0,444.5,262.5,415.0,288.0,412.5,275.5,395.0,271.0,380.5,253.5,383.0,245.5,405.5,230.0,377.5,219.5,395.0,194.0,380.0,173.5,374.5,158.0,387.0,153.0,385.0,133.0,365.0,128.0,362.5,108.0,330.0,101.0,332.5,81.5,337.0,81.5,332.0,62.0,327.5,49.5,342.5,44.5,322.5,45.0,302.5,47.5,282.5,47.5" stroke="black" stroke-width="2" fill="none" />
<polyline points="286.0,52.0,306.0,62.0" stroke="black" stroke-width="2" fill="none" />
<polyline points="283.0,127.5,263.0,117.5" stroke="black" stroke-width="2" fill="none" />
<polyline points="240.5,67.5,220.0,57.0" stroke="black" stroke-width="2" fill="none" />
<polyline points="225.0,51.0,245.0,53.5" stroke="black" stroke-width="2" fill="none" />
<polyline points="232.5,38.0,252.5,50.5,272.0,58.5,282.5,71.5,295.0,91.5,295.0,106.5,305.0,114.0,325.0,126.5,345.0,129.0" stroke="black" stroke-width="2" fill="none" />
<polyline points="363.5,152.0,343.5,142.0,331.5,159.0,314.0,141.5,291.0,139.0,270.5,141.5,250.5,116.5,230.5,111.5,233.0,101.5,213.0,89.0,193.0,79.0,172.5,77.0,162.5,79.5,150.0,77.0,130.0,90.0,110.0,100.5,82.5,93.5,70.5,101.0,50.5,101.0,42.5,130.5,40.0,128.0,27.5,108.0,22.5,95.0,17.5,75.0,12.5,40.0,20.0,40.0,15.0,20.0,2.5,20.0" stroke="black" stroke-width="2" fill="none" />
<polyline points="15.5,19.0,35.5,9.0,40.5,21.5,50.5,4.5,50.0,24.5,77.5,32.0,98.0,17.5,105.5,22.5,138.0,7.5,163.0,5.0,187.5,4.5" stroke="black" stroke-width="2" fill="none" />
<polyline points="187.0,2.0,189.5,7.0,189.0,22.0,181.5,37.5,191.5,57.5,219.0,85.0,231.5,125.0,231.5,142.5,226.5,162.5,234.0,182.5,236.5,202.5,227.0,222.5,239.0,227.5,236.5,248.0,224.0,258.5,206.5,283.5,191.5,313.5,176.5,333.0,191.5,343.0,211.5,358.0,206.0,378.0,211.0,398.0,203.5,413.0,196.0,415.5,206.5,423.0,219.5,448.0,234.5,455.0,236.5,475.0,219.0,474.5,218.5,509.5,233.5,509.5,233.5,522.0,254.0,516.5,269.5,506.5,275.0,521.5,297.5,511.5,312.5,514.0,322.0,507.0,327.0,517.0,346.5,512.0" stroke="black" stroke-width="2" fill="none" />
<polyline points="260.0,417.0,240.0,404.5" stroke="black" stroke-width="2" fill="none" />
<polyline points="245.0,369.5,265.0,379.5,285.0,384.5,305.0,387.0,327.5,379.5,327.5,392.0,360.0,380.0,380.5,385.0,400.5,390.0,413.5,365.0,433.0,365.0,453.5,360.0,473.0,360.0" stroke="black" stroke-width="2" fill="none" />
<polyline points="362.5,312.5,348.0,295.0,331.0,287.5,308.5,269.5,316.0,244.5,296.0,242.0,296.0,224.5,276.0,212.0,256.0,202.0" stroke="black" stroke-width="2" fill="none" />
<polyline points="248.5,228.5,266.0,248.5,250.5,271.0,243.5,293.5,211.0,308.5,214.0,328.5,204.0,348.5,224.5,348.5,227.0,333.5,237.0,338.5,249.5,346.0,269.5,338.5,290.0,344.0,295.0,341.5,314.5,342.0,327.0,335.0,347.0,335.5,347.0,345.0,366.5,330.0,386.0,324.5,406.0,337.5,429.0,352.0,457.0,349.5,472.0,352.5" stroke="black" stroke-width="2" fill="none" />
<polyline points="394.5,318.0,374.0,318.0,354.0,298.0,346.5,305.5,326.5,303.0,312.0,290.5,305.0,295.0,282.5,272.0,263.0,274.0,243.0,279.0,223.5,284.0,203.0,286.5,195.5,281.5,185.5,306.5,165.5,311.5,158.0,309.0,158.0,303.5,158.0,284.0,155.5,264.0,177.5,244.0,197.5,221.5,212.5,201.5,207.5,181.5,207.5,186.5" stroke="black" stroke-width="2" fill="none" />
<polyline points="171.5,161.0,174.0,181.5,209.0,181.5,229.0,184.0,229.5,191.5,237.0,206.0,249.5,204.0,259.5,214.0,276.5,227.0,279.0,237.0,296.5,240.0,311.5,257.5,329.0,270.0,349.0,272.0,368.5,274.5,391.0,290.0,396.5,294.5,399.0,296.5,409.0,308.5,431.5,328.0" stroke="black" stroke-width="2" fill="none" />
<polyline points="357.0,315.0,325.0,312.0,305.5,314.0,283.0,286.5,255.5,301.5,245.5,311.0,238.0,301.0,225.5,291.5,205.5,294.0" stroke="black" stroke-width="2" fill="none" />
<polyline points="201.5,310.0,189.5,320.0,209.0,300.0,211.5,310.5,221.5,321.0,241.5,321.0,274.0,308.5,294.0,295.5,314.0,285.5" stroke="black" stroke-width="2" fill="none" />
<polyline points="344.5,279.0,324.5,271.5,304.5,261.0,274.5,255.5,254.5,250.5,234.5,258.5" stroke="black" stroke-width="2" fill="none" />
<polyline points="272.0,267.0,254.5,269.5,234.5,271.5,214.5,271.5,194.5,264.0,174.0,266.5" stroke="black" stroke-width="2" fill="none" />
<polyline points="155.5,274.5,175.5,277.0,183.0,254.0,203.0,256.5,213.5,226.5,218.5,237.0,238.5,229.5" stroke="black" stroke-width="2" fill="none" />
<polyline points="266.0,247.0,245.5,247.0,236.0,249.5,223.5,252.0,204.0,271.5,204.0,274.0,218.5,254.0,193.0,249.0,173.0,249.0,153.0,266.5" stroke="black" stroke-width="2" fill="none" />
<polyline points="142.5,283.5,137.5,298.5,147.5,313.5,155.0,346.5,172.5,334.0,185.5,329.0,205.0,336.5,224.5,327.0" stroke="black" stroke-width="2" fill="none" />
<polyline points="248.0,325.5,230.0,345.5,217.5,375.5,222.0,395.5,227.0,403.0,229.0,423.0,232.0,443.0,254.5,445.0,262.0,467.5,264.5,482.0,252.0,502.0" stroke="black" stroke-width="2" fill="none" />
<polyline points="248.0,436.5,227.5,446.5,207.5,449.0" stroke="black" stroke-width="2" fill="none" />
<polyline points="191.5,446.0,204.5,466.5,225.0,486.5" stroke="black" stroke-width="2" fill="none" />
<polyline points="253.0,477.0,243.0,462.0,220.0,460.0,217.5,477.5,197.0,447.5,184.5,430.0,162.0,410.0,144.5,407.5,124.0,407.5" stroke="black" stroke-width="2" fill="none" />
<polyline points="114.0,404.0,131.5,424.0,131.0,452.0,91.0,485.0,103.5,505.0,96.0,528.0,94.0,550.0,86.5,570.0,69.0,577.5,53.5,600.0,58.5,603.0,46.5,622.5,34.0,629.5,26.5,652.0,41.5,666.5,61.0,662.0,91.0,659.5,103.5,669.0,123.5,667.0,144.0,669.5,166.5,660.0,176.0,672.5" stroke="black" stroke-width="2" fill="none" />
<polyline points="192.5,675.0,190.0,655.0" stroke="black" stroke-width="2" fill="none" />
<polyline points="209.5,488.0,189.5,463.0,171.5,452.5,141.5,442.5,122.0,440.0,102.0,432.0,71.5,423.5,51.5,418.5" stroke="black" stroke-width="2" fill="none" />
<polyline points="51.5,413.0,31.5,410.5" stroke="black" stroke-width="2" fill="none" />
<polyline points="1.0,425.0,1.0,437.5,11.0,442.5,30.5,439.5,46.0,454.0,66.0,463.5,91.0,471.0,111.0,466.0,131.5,451.0" stroke="black" stroke-width="2" fill="none" />
<polyline points="145.0,431.5,130.5,411.0,108.0,418.5" stroke="black" stroke-width="2" fill="none" />
<polyline points="116.5,458.0,96.5,457.5" stroke="black" stroke-width="2" fill="none" />
<polyline points="77.0,436.5,59.5,446.5,39.5,446.0,20.0,451.0" stroke="black" stroke-width="2" fill="none" />
<polyline points="11.5,461.5,36.5,474.0,29.5,494.5,37.5,514.5,50.0,514.5,50.0,550.0,49.5,575.0,59.5,555.5,84.0,550.5,86.5,555.5,106.5,570.5,111.5,578.0,144.0,585.5,164.0,580.5,152.0,595.5,164.5,620.5" stroke="black" stroke-width="2" fill="none" />
<polyline points="82.0,660.0,62.5,655.5,52.5,655.5,30.0,667.5,10.5,674.5,8.5,647.0" stroke="black" stroke-width="2" fill="none" />
<polyline points="2.0,594.5,21.5,607.0,36.5,587.0,49.0,582.0,67.0,584.5,89.5,567.0" stroke="black" stroke-width="2" fill="none" />
<polyline points="34.0,519.0,14.0,526.5" stroke="black" stroke-width="2" fill="none" />
<polyline points="8.5,533.0,29.0,537.5,36.5,527.0,46.5,522.0" stroke="black" stroke-width="2" fill="none" />
<polyline points="1.0,518.0,11.0,488.0" stroke="black" stroke-width="2" fill="none" />
<polyline points="5.0,544.5,37.5,557.0,47.5,584.5,30.0,604.5,27.5,617.0,4.5,631.5,9.5,651.5,29.5,666.0,32.0,676.0,55.0,676.0" stroke="black" stroke-width="2" fill="none" />
<polyline points="268.5,674.5,263.5,669.0,236.0,672.0,206.0,662.0,215.5,635.0,216.0,615.0,219.0,595.0,221.5,575.5,219.5,555.0,222.0,535.5,217.0,515.5,192.0,495.5,169.5,475.5" stroke="black" stroke-width="2" fill="none" />
<polyline points="158.0,460.0,150.0,480.0,152.5,497.5,152.0,517.5,159.5,537.5,164.0,557.5,171.5,577.0,179.0,597.0,174.0,616.5,184.0,624.0,186.5,644.0,169.0,651.5,151.5,672.0" stroke="black" stroke-width="2" fill="none" />
<polyline points="190.0,469.0,187.5,479.0,165.0,477.0,160.0,457.0" stroke="black" stroke-width="2" fill="none" />
<polyline points="200.0,421.5,219.5,426.5" stroke="black" stroke-width="2" fill="none" />
<polyline points="264.0,422.0,258.5,397.0,239.0,382.0,219.0,369.5,201.5,354.0,181.5,349.0" stroke="black" stroke-width="2" fill="none" />
<polyline points="188.0,318.5,168.5,326.0,156.0,331.0,136.0,336.0,126.0,320.5,111.0,328.0,90.5,303.0" stroke="black" stroke-width="2" fill="none" />
<polyline points="90.5,305.5,80.5,305.5" stroke="black" stroke-width="2" fill="none" />
<polyline points="71.5,301.0,91.5,331.0" stroke="black" stroke-width="2" fill="none" />
<polyline points="127.0,345.0,147.0,355.0,161.5,350.0,179.5,350.0,189.5,380.5,202.0,395.0,189.5,420.0,202.5,440.0,172.5,455.0,195.0,465.0,207.5,485.0,228.0,485.0,235.5,477.5,255.5,492.5,275.5,477.5,280.5,485.0,295.5,507.5" stroke="black" stroke-width="2" fill="none" />
<polyline points="183.0,410.0,185.5,425.0,165.5,427.5,140.0,422.5,125.0,417.5,119.5,400.0,99.5,417.5,79.5,415.0,76.5,392.5,101.0,372.5" stroke="black" stroke-width="2" fill="none" />
<polyline points="142.0,307.5,127.0,297.0,121.5,289.5,113.5,281.5,93.5,274.0" stroke="black" stroke-width="2" fill="none" />
<polyline points="92.5,247.0,112.5,257.0,112.0,272.0,132.0,275.0,147.0,265.0,159.0,245.0,179.0,237.0,184.0,217.0,194.5,217.0,207.0,212.0,217.0,204.5,237.0,219.5,259.0,237.5" stroke="black" stroke-width="2" fill="none" />
<polyline points="299.5,166.0,309.5,166.0" stroke="black" stroke-width="2" fill="none" />
<polyline points="311.5,161.0,351.0,181.0,328.5,200.5,306.0,192.5,311.0,219.5,329.0,224.0,301.5,239.0,301.5,259.0,304.0,284.0,276.0,304.0,301.0,313.5,293.5,328.5,301.5,348.5,301.5,373.5,322.0,371.0,342.0,375.5,362.0,363.0,362.0,381.0,382.0,394.0,394.5,361.5,399.5,366.5,409.5,341.5,429.0,339.0,449.0,336.5,471.5,341.5,491.5,364.0,501.5,349.5" stroke="black" stroke-width="2" fill="none" />
<polyline points="343.0,327.0,360.5,347.0,353.0,354.5,350.5,374.0,343.5,381.5,330.5,389.0,325.5,421.5,348.0,446.5,333.0,446.5,317.5,464.0,347.5,461.5,332.5,476.5,315.0,489.0,295.0,496.5,275.5,521.5,308.0,533.5,330.0,548.5,349.5,551.5,369.5,546.5,389.5,541.5,410.0,549.0,444.5,561.5,464.0,557.0,484.0,559.5,487.0,565.0,507.0,575.0" stroke="black" stroke-width="2" fill="none" />
<polyline points="281.0,415.0,276.0,435.0,255.5,425.0,258.0,430.5,257.5,410.5,243.0,390.0,230.5,370.0" stroke="black" stroke-width="2" fill="none" />
<polyline points="177.0,287.5,164.5,292.5,162.0,304.5,187.0,284.5,162.0,267.0,149.5,234.5,122.5,232.0" stroke="black" stroke-width="2" fill="none" />
<polyline points="119.0,208.0,106.5,220.5,109.0,215.5,89.0,225.5" stroke="black" stroke-width="2" fill="none" />
<polyline points="118.5,214.0,136.0,202.0,134.0,192.0,114.0,200.0,93.5,205.0,73.5,187.5,56.0,175.0,26.5,160.0,16.5,140.0,19.0,97.5,16.0,72.5" stroke="black" stroke-width="2" fill="none" />
<polyline points="1.5,44.5,21.5,47.0,29.0,57.0,46.5,29.0,66.5,26.5,79.0,16.5,99.0,9.5,121.5,10.0,142.0,27.5" stroke="black" stroke-width="2" fill="none" />
<polyline points="145.5,43.0,173.0,68.0,173.0,93.5,166.0,116.0,168.5,135.5,181.0,140.5,194.0,153.5,204.5,156.5,202.5,169.0,185.0,182.0,205.0,197.0,180.0,207.0,157.5,221.5,185.0,236.5,165.0,239.0,140.0,266.5,135.0,276.5,117.0,298.5,139.5,311.0,147.0,333.0,139.5,350.5,145.0,343.5,157.5,358.5,132.5,376.5,133.0,396.5,148.0,419.5,160.0,437.0,152.5,447.0,150.0,464.0,125.0,484.5,132.5,499.5,112.5,494.5,99.5,514.5,67.0,530.0,87.0,522.5,106.5,512.5,101.5,492.0,121.5,509.5,127.0,522.0,149.5,507.0,169.5,564.5,192.0,579.5,194.0,595.0,199.0,607.5,224.5,640.0,235.0,633.0,255.0,633.0,275.5,628.0,295.5,620.5" stroke="black" stroke-width="2" fill="none" />
<polyline points="96.5,362.5,77.0,365.0,57.5,365.5,45.0,365.5,25.0,357.5" stroke="black" stroke-width="2" fill="none" />
<polyline points="19.0,352.5,39.0,350.0,49.0,357.5,69.0,359.5,88.5,362.0" stroke="black" stroke-width="2" fill="none" />
<polyline points="61.5,389.5,41.5,379.5,21.5,377.0" stroke="black" stroke-width="2" fill="none" />
<polyline points="10.0,344.0,30.0,341.5,38.0,334.0" stroke="black" stroke-width="2" fill="none" />
<polyline points="38.5,329.0,18.5,329.5" stroke="black" stroke-width="2" fill="none" />
<polyline points="5.0,301.5,25.0,294.0,45.0,279.0,60.0,294.0,60.5,321.5,75.5,323.5" stroke="black" stroke-width="2" fill="none" />
<polyline points="64.0,353.5,82.0,343.5,89.5,326.0,74.5,306.0,67.0,285.5" stroke="black" stroke-width="2" fill="none" />
<polyline points="37.5,259.0,37.5,266.0,35.0,248.5,14.5,265.5" stroke="black" stroke-width="2" fill="none" />
<polyline points="29.0,167.5,9.0,143.0" stroke="black" stroke-width="2" fill="none" />
<polyline points="6.5,142.5,3.5,162.5,21.5,182.5,4.0,197.5,4.5,218.0,17.5,216.0,22.5,226.0,25.0,231.0,30.0,208.5,50.5,200.5,55.5,190.5,68.0,193.0" stroke="black" stroke-width="2" fill="none" />
<polyline points="84.0,157.5,103.5,122.5,123.5,112.5,143.5,110.0,156.5,127.5,146.5,147.0,139.5,162.0,147.5,171.5,165.0,159.0,182.5,141.5,203.0,131.5,208.0,156.5,218.0,151.0,233.0,148.5,253.0,139.0" stroke="black" stroke-width="2" fill="none" />
<polyline points="215.0,81.0,195.0,66.0" stroke="black" stroke-width="2" fill="none" />
<polyline points="196.5,69.0,227.0,84.0,232.0,79.0,264.0,86.5,271.5,69.0,291.5,66.5,311.5,82.0,331.5,82.5,349.0,52.5,381.5,67.5,401.5,78.0,421.5,70.0,429.0,90.0" stroke="black" stroke-width="2" fill="none" />
<polyline points="442.5,117.0,442.5,137.5" stroke="black" stroke-width="2" fill="none" />
<polyline points="453.5,67.0,433.0,47.0,413.0,52.5" stroke="black" stroke-width="2" fill="none" />
<polyline points="436.5,48.5,449.0,68.0,449.5,93.5,459.5,103.5,479.5,96.0" stroke="black" stroke-width="2" fill="none" />
<polyline points="480.0,17.5,462.5,22.0,442.0,37.0,437.0,26.5" stroke="black" stroke-width="2" fill="none" />
<polyline points="441.5,2.5,436.5,22.5,444.0,22.5,466.5,30.0,462.0,50.0,454.5,57.5,484.5,55.0,459.0,59.5,469.0,77.0,464.0,97.0,471.0,117.5,496.5,127.5,474.5,145.0,457.0,167.5,464.5,172.5,472.5,185.0,475.0,205.0,458.0,212.5,475.5,220.0,463.0,242.5,445.5,265.0,435.5,292.5,425.5,312.5,425.5,307.0,445.5,289.5,465.5,297.0" stroke="black" stroke-width="2" fill="none" />
<polyline points="344.0,497.5,324.0,492.0,316.5,496.5,296.0,496.5,276.0,493.5,256.0,493.5,233.5,496.0,204.0,501.0,201.5,494.0,191.0,474.0,179.0,454.0,161.5,427.0,176.5,407.0,159.5,404.5,155.0,384.5,125.0,374.5,122.5,340.0,120.0,320.0,107.0,300.0,107.0,279.5,129.5,252.0,142.0,231.5,162.0,229.0,152.0,206.5,152.0,184.0,154.5,164.0" stroke="black" stroke-width="2" fill="none" />
<polyline points="171.5,110.0,151.0,113.0,131.0,133.5,110.5,121.0" stroke="black" stroke-width="2" fill="none" />
<polyline points="109.5,128.5,130.0,136.5,157.0,116.0,177.0,113.5,179.5,94.0,179.5,99.0,194.5,86.0" stroke="black" stroke-width="2" fill="none" />
<polyline points="189.5,77.5,207.0,97.5,217.5,99.5,187.5,117.5,192.5,115.0,212.5,105.5" stroke="black" stroke-width="2" fill="none" />
<polyline points="170.0,94.0,150.0,96.5" stroke="black" stroke-width="2" fill="none" />
<polyline points="131.5,70.0,111.0,62.5" stroke="black" stroke-width="2" fill="none" />
<polyline points="116.0,90.5,106.0,110.5,101.0,130.0,86.0,150.0,84.0,169.5,84.0,189.5,84.0,209.0,81.5,229.0,84.0,249.0,82.0,269.5,79.5,289.5,82.0,309.5,100.0,314.0,97.5,334.0,112.0,351.5,111.5,372.0,114.0,392.0,104.0,412.0,94.0,427.5,74.0,447.5,91.5,457.5,79.0,467.5,86.5,487.5,106.5,477.0,113.5,472.0,128.5,482.0,149.0,464.0,169.0,444.0,177.0,439.0,198.0,441.5,218.0,438.5,240.5,451.0,260.0,464.0,280.0,461.5,292.0,451.5,312.0,446.5,322.0,429.0,339.5,413.5,359.5,416.0" stroke="black" stroke-width="2" fill="none" />
<polyline points="314.0,55.0,301.0,39.5,281.5,29.0,266.5,24.0,258.5,21.0,238.5,26.0" stroke="black" stroke-width="2" fill="none" />
<polyline points="229.5,17.5,209.5,5.5,197.5,25.5,180.0,32.5,177.5,15.0,157.0,10.0,137.0,20.0,129.0,14.5,121.5,34.5,119.0,27.0,99.0,29.5,79.0,37.0,74.0,44.5,64.5,42.5,57.5,65.0,47.0,87.5,54.5,80.0,70.0,55.0,110.0,45.0,92.5,37.0" stroke="black" stroke-width="2" fill="none" />
<polyline points="97.5,9.0,87.5,28.5,92.0,46.0,102.5,66.0,95.0,78.5,87.5,71.0,107.0,70.5,106.5,57.5,126.0,62.0,146.0,66.5,161.5,68.5,181.5,56.5,184.0,44.0,191.5,54.0,211.5,49.5,219.0,32.0,227.0,4.5,257.5,9.5,273.0,12.0,293.5,7.0,303.5,12.0,323.0,12.0,342.5,7.5,342.5,13.0,365.0,23.0,384.5,15.0,397.0,18.0,401.0,23.0,403.0,8.0,425.5,5.5,445.5,10.5,450.5,35.5,476.0,52.5,496.0,55.0" stroke="black" stroke-width="2" fill="none" />
<polyline points="491.0,16.0,493.0,29.0,505.0,9.0" stroke="black" stroke-width="2" fill="none" />
<polyline points="498.0,33.0,492.5,45.5,478.0,27.5,475.5,45.0,465.0,75.0,445.0,79.5,432.0,77.0,437.0,69.5,412.0,62.0,409.0,52.0,404.0,31.5,399.0,29.0,398.5,21.5,424.0,2.0" stroke="black" stroke-width="2" fill="none" />
<polyline points="413.5,3.0,383.5,22.5,361.5,22.0,377.0,34.5,387.5,64.0,400.0,66.5,415.0,71.5,412.5,91.5,435.0,89.5,457.5,97.0,455.0,117.0,447.5,129.5,437.5,147.0,430.5,167.0,438.0,177.5,445.5,197.5,455.5,202.5,430.5,215.0,440.0,215.0,460.0,237.0,455.0,247.0,462.5,267.0,450.0,272.0,430.0,282.0,415.0,297.0,417.0,316.5,417.0,326.5,392.0,343.5,412.0,348.5,415.0,368.5,407.5,393.5,417.5,413.5,409.5,426.0,431.5,446.0,441.5,449.5,451.0,449.5,449.0,457.0,466.5,449.5,467.0,454.5,489.0,459.5,501.5,461.5,504.0,466.5,504.0,489.5" stroke="black" stroke-width="2" fill="none" />
<polyline points="393.0,4.0,373.5,6.5,353.5,4.0" stroke="black" stroke-width="2" fill="none" />
<polyline points="266.5,3.0,248.5,8.0,261.5,20.0,279.0,30.5,299.5,40.5,315.0,58.0,300.0,68.0,300.0,88.0,295.0,108.0,298.0,123.0,328.0,133.0,305.0,143.0,342.5,155.5,354.5,183.0,354.5,200.5,359.0,203.0,397.0,205.5,394.5,225.0,399.5,230.0,414.5,249.5,384.5,262.0,409.0,269.5,386.5,282.0,404.0,302.0,404.5,322.0,374.5,334.5,379.5,352.0,372.0,361.5,394.5,369.0,394.5,379.0,392.0,399.0,379.5,414.0,379.5,434.0,377.0,454.5,367.0,462.0,374.0,481.5,384.5,497.0,361.5,516.5,336.5,537.0,311.5,564.5,306.5,585.0,299.0,604.5,271.5,614.0,251.5,624.0,272.0,613.5,292.5,606.0,295.0,586.0,310.0,606.5,330.0,612.0,338.0,594.5,358.0,597.0,363.0,589.5,390.0,589.5,410.5,584.5,430.5,581.5,448.0,576.5,467.5,589.0,475.0,576.5,494.5,586.5,502.0,601.5,504.5,621.5,479.5,642.0,495.0,654.5,507.5,665.0" stroke="black" stroke-width="2" fill="none" />
<polyline points="141.5,152.5,113.5,155.0,94.0,155.0" stroke="black" stroke-width="2" fill="none" />
<polyline points="110.0,129.0,130.0,149.5,134.5,147.0,154.5,142.5,184.5,157.5,194.5,142.5,214.5,145.0,235.0,125.0,255.0,102.5,275.5,98.0,288.0,100.5,308.0,95.5,327.5,105.0,347.0,82.5,359.5,107.0,379.5,102.0,399.5,104.5" stroke="black" stroke-width="2" fill="none" />
<polyline points="252.5,88.5,232.5,68.5,210.0,68.5,177.5,59.0,157.0,49.0,137.0,42.0,116.5,42.0,96.0,49.5,76.0,67.0" stroke="black" stroke-width="2" fill="none" />
<polyline points="67.5,56.0,87.5,53.5,69.5,73.5,86.5,86.0" stroke="black" stroke-width="2" fill="none" />
<polyline points="57.0,104.0,77.0,124.0" stroke="black" stroke-width="2" fill="none" />
<polyline points="69.0,136.5,59.0,126.5,36.5,104.0,34.0,114.0,54.5,111.5,29.5,114.0" stroke="black" stroke-width="2" fill="none" />
<polyline points="1.5,132.5,21.5,145.5,41.5,153.0,54.0,145.5" stroke="black" stroke-width="2" fill="none" />
<polyline points="38.5,183.0,21.0,180.5,21.0,173.0,11.0,153.0" stroke="black" stroke-width="2" fill="none" />
<polyline points="79.0,1.5,81.5,21.5,57.0,31.5,59.5,44.5,39.5,67.5,35.0,90.0,27.5,95.0,48.0,99.5,53.0,102.5,67.5,112.5,55.0,125.0,65.5,142.5,47.5,150.0,57.5,149.5,62.0,170.0,69.5,187.5,89.0,195.0,99.0,175.0,116.0,165.0,123.5,172.5,141.0,190.0,161.0,180.0,171.0,187.5,190.5,167.0,211.0,164.0,231.0,163.5,241.0,153.5,251.0,156.0,271.5,158.5,276.5,148.5,296.5,143.5,316.5,168.5,337.0,177.0,349.5,162.5,351.5,167.5,369.0,177.5,384.5,158.0,387.0,165.5,407.5,173.0,410.0,173.0,425.0,180.5,442.5,175.5,457.5,180.5,485.5,175.5" stroke="black" stroke-width="2" fill="none" />
<polyline points="403.5,188.5,403.5,195.5,383.5,198.0,373.0,190.5,353.5,180.0,333.5,182.5,313.5,190.0,290.5,192.0,270.5,192.0,250.5,184.5,230.5,179.5,226.0,177.5,206.0,170.5,185.5,190.0,160.5,195.0,160.5,212.0,155.5,224.5,135.0,219.5,125.0,266.5,104.5,259.0,89.5,261.5,97.0,239.0,114.5,239.0,131.5,219.0,134.0,201.5,114.0,181.5,136.5,171.5,129.5,169.0,144.5,154.0,142.0,129.0,157.5,109.0,143.0,81.5,183.5,57.0,173.5,37.0" stroke="black" stroke-width="2" fill="none" />
<polyline points="202.5,33.5,193.0,41.0,200.5,21.0" stroke="black" stroke-width="2" fill="none" />
<polyline points="221.0,26.5,198.0,47.0,216.0,61.5,231.0,81.5,240.5,101.5,247.5,124.0,257.5,126.5,259.5,146.5,242.0,156.5,244.5,171.5,257.0,189.0,247.0,199.0,272.0,212.0,272.0,232.5,290.0,252.5,300.0,272.5,277.5,282.0,272.0,297.0,264.0,317.0,266.5,336.5,234.0,354.0,246.5,374.0,257.0,389.5,272.5,409.5,295.0,432.0,280.0,452.5,269.5,467.5,289.5,468.0,296.5,480.5,301.5,483.0,321.5,485.5,341.5,468.0,361.5,460.5,349.0,475.5,369.5,475.5,382.0,485.5,394.5,450.5,415.0,448.0,422.5,440.0" stroke="black" stroke-width="2" fill="none" />
</svg>