<svg xmlns="http://www.w3.org/2000/svg" version="1.1"><polyline points="7.0,13.0,23.0,12.5,38.5,12.0,54.5,11.0,70.0,9.5,85.5,8.0,102.0,7.0,119.0,6.5,135.0,4.5,150.5,2.5,166.5,2.0,182.5,1.5,199.0,1.0,214.5,0.5,230.0,0.5,245.5,-0.5,260.5,-1.0,275.5,-2.5,292.0,-3.5,308.5,-4.5,325.0,-4.5,341.5,-5.0,358.0,-5.5,374.0,-5.5,389.0,-5.0,404.5,-4.0,421.0,-4.5,437.0,-5.5,452.5,-6.0,467.5,-5.5,482.5,-6.5,499.5,-7.0,516.5,-8.0" stroke="black" stroke-width="2" fill="none" />
<polyline points="518.5,4.0,502.5,20.0" stroke="black" stroke-width="2" fill="none" />
<polyline points="452.5,69.5,436.5,86.0,420.0,102.0" stroke="black" stroke-width="2" fill="none" />
<polyline points="435.0,115.5,451.5,100.0" stroke="black" stroke-width="2" fill="none" />
<polyline points="469.0,117.5,453.0,134.0" stroke="black" stroke-width="2" fill="none" />
<polyline points="487.0,150.5,471.0,151.0,456.5,152.0,441.0,152.0,426.0,152.0,410.5,152.5" stroke="black" stroke-width="2" fill="none" />
<polyline points="388.5,141.0,405.5,140.5,423.0,139.0,439.5,137.0,456.0,135.5,472.5,135.0,489.0,134.0" stroke="black" stroke-width="2" fill="none" />
<polyline points="443.5,183.0,427.5,197.5" stroke="black" stroke-width="2" fill="none" />
<polyline points="443.0,201.5,426.5,216.5" stroke="black" stroke-width="2" fill="none" />
<polyline points="419.5,229.5,435.5,214.5,452.0,199.5" stroke="black" stroke-width="2" fill="none" />
<polyline points="439.0,232.5,423.5,249.0" stroke="black" stroke-width="2" fill="none" />
<polyline points="425.0,264.5,441.0,249.0" stroke="black" stroke-width="2" fill="none" />
<polyline points="444.5,264.0,428.0,280.0" stroke="black" stroke-width="2" fill="none" />
<polyline points="438.0,295.0,453.0,279.0,468.5,263.5" stroke="black" stroke-width="2" fill="none" />
<polyline points="469.5,276.0,453.5,291.5" stroke="black" stroke-width="2" fill="none" />
<polyline points="472.0,300.0,487.5,299.0" stroke="black" stroke-width="2" fill="none" />
<polyline points="488.0,329.0,472.5,329.0" stroke="black" stroke-width="2" fill="none" />
<polyline points="471.0,341.5,455.0,356.0" stroke="black" stroke-width="2" fill="none" />
<polyline points="454.5,344.5,438.5,359.5" stroke="black" stroke-width="2" fill="none" />
<polyline points="426.5,362.0,442.5,346.5" stroke="black" stroke-width="2" fill="none" />
<polyline points="438.5,364.5,423.0,365.0" stroke="black" stroke-width="2" fill="none" />
<polyline points="403.0,351.0,419.5,350.5,436.5,349.0,453.0,347.0,470.0,345.0,487.0,344.0,503.0,342.5,519.0,340.5" stroke="black" stroke-width="2" fill="none" />
<polyline points="515.5,345.5,500.5,361.0" stroke="black" stroke-width="2" fill="none" />
<polyline points="506.0,361.5,522.0,360.5" stroke="black" stroke-width="2" fill="none" />
<polyline points="508.0,345.0,491.0,361.0" stroke="black" stroke-width="2" fill="none" />
<polyline points="488.0,345.0,473.0,360.5" stroke="black" stroke-width="2" fill="none" />
<polyline points="438.0,299.5,421.5,301.0" stroke="black" stroke-width="2" fill="none" />
<polyline points="421.0,295.5,436.5,280.5,453.0,265.0" stroke="black" stroke-width="2" fill="none" />
<polyline points="486.0,277.5,470.5,280.0,454.5,281.5,438.0,283.0,420.5,284.5,404.0,285.0" stroke="black" stroke-width="2" fill="none" />
<polyline points="407.5,267.5,424.0,267.0,440.0,265.5,455.5,263.5,471.5,262.0,487.0,260.5" stroke="black" stroke-width="2" fill="none" />
<polyline points="487.5,199.0,471.5,199.5,455.0,199.0,439.5,199.5,424.0,200.5,407.5,200.5" stroke="black" stroke-width="2" fill="none" />
<polyline points="395.0,189.5,411.5,189.0,428.0,189.5,444.0,189.5,460.0,190.0,475.0,190.0,490.5,189.0" stroke="black" stroke-width="2" fill="none" />
<polyline points="487.0,234.0,472.0,234.0,455.5,235.0,439.5,235.5,424.0,236.0,408.5,235.5,392.5,235.5" stroke="black" stroke-width="2" fill="none" />
<polyline points="372.0,266.0,356.0,266.5" stroke="black" stroke-width="2" fill="none" />
<polyline points="324.5,252.0,340.5,251.0,358.0,250.5,375.0,250.5,390.5,250.0,406.0,249.0,423.0,248.0,440.0,248.0,456.0,247.5,472.5,247.5" stroke="black" stroke-width="2" fill="none" />
<polyline points="487.0,171.0,470.5,171.0,454.5,172.0,438.0,172.5,421.5,173.0,405.5,174.5,389.5,174.5" stroke="black" stroke-width="2" fill="none" />
<polyline points="391.5,133.5,406.5,118.5" stroke="black" stroke-width="2" fill="none" />
<polyline points="386.5,102.5,370.5,117.0" stroke="black" stroke-width="2" fill="none" />
<polyline points="376.5,119.0,392.5,119.0,407.0,118.5,422.0,118.5,437.0,120.0,452.5,121.0,469.0,120.5,486.0,119.5" stroke="black" stroke-width="2" fill="none" />
<polyline points="441.5,68.0,426.0,83.0" stroke="black" stroke-width="2" fill="none" />
<polyline points="419.0,66.5,435.0,51.5" stroke="black" stroke-width="2" fill="none" />
<polyline points="422.0,57.5,406.0,72.5" stroke="black" stroke-width="2" fill="none" />
<polyline points="405.5,77.0,422.0,77.0,439.0,76.5,455.5,75.5,472.5,74.5,488.5,74.5" stroke="black" stroke-width="2" fill="none" />
<polyline points="372.5,9.5,356.5,25.0" stroke="black" stroke-width="2" fill="none" />
<polyline points="359.0,39.5,343.0,55.0" stroke="black" stroke-width="2" fill="none" />
<polyline points="344.5,43.5,328.0,58.5" stroke="black" stroke-width="2" fill="none" />
<polyline points="327.5,42.0,311.5,56.5" stroke="black" stroke-width="2" fill="none" />
<polyline points="309.5,40.0,294.0,55.0,278.0,70.5" stroke="black" stroke-width="2" fill="none" />
<polyline points="268.0,86.0,252.5,101.5" stroke="black" stroke-width="2" fill="none" />
<polyline points="260.5,108.5,277.0,108.0" stroke="black" stroke-width="2" fill="none" />
<polyline points="294.0,100.0,310.0,84.5" stroke="black" stroke-width="2" fill="none" />
<polyline points="296.5,89.0,280.0,105.0" stroke="black" stroke-width="2" fill="none" />
<polyline points="264.0,105.0,280.5,90.5,297.0,75.5" stroke="black" stroke-width="2" fill="none" />
<polyline points="296.5,106.0,312.0,106.0" stroke="black" stroke-width="2" fill="none" />
<polyline points="329.0,102.0,345.5,87.0" stroke="black" stroke-width="2" fill="none" />
<polyline points="327.5,87.5,312.0,102.5" stroke="black" stroke-width="2" fill="none" />
<polyline points="358.0,103.5,374.0,104.0,390.5,105.5,406.0,106.5,421.5,106.5,437.5,106.5,454.5,106.5,471.5,106.5,488.5,106.0" stroke="black" stroke-width="2" fill="none" />
<polyline points="490.0,213.0,474.0,213.5,457.5,214.5,441.5,215.5,425.0,217.0,408.5,217.5,392.0,219.0,376.5,221.0,361.5,222.5,345.5,224.0" stroke="black" stroke-width="2" fill="none" />
<polyline points="326.5,235.5,342.0,234.5,357.0,235.0,372.0,235.0" stroke="black" stroke-width="2" fill="none" />
<polyline points="309.5,278.0,293.0,278.5" stroke="black" stroke-width="2" fill="none" />
<polyline points="295.5,264.5,311.0,265.0" stroke="black" stroke-width="2" fill="none" />
<polyline points="309.5,308.5,293.5,324.5" stroke="black" stroke-width="2" fill="none" />
<polyline points="277.5,331.0,293.0,330.5,309.5,329.5,326.0,328.5" stroke="black" stroke-width="2" fill="none" />
<polyline points="342.5,363.5,358.0,363.0,373.5,362.0" stroke="black" stroke-width="2" fill="none" />
<polyline points="373.0,343.0,389.5,343.0" stroke="black" stroke-width="2" fill="none" />
<polyline points="392.5,395.0,408.0,394.5" stroke="black" stroke-width="2" fill="none" />
<polyline points="421.0,412.0,404.5,412.0,388.5,412.5" stroke="black" stroke-width="2" fill="none" />
<polyline points="387.5,426.0,371.5,426.5" stroke="black" stroke-width="2" fill="none" />
<polyline points="358.5,441.0,375.0,441.0,391.0,441.0,407.0,440.5" stroke="black" stroke-width="2" fill="none" />
<polyline points="411.0,453.5,395.0,469.0" stroke="black" stroke-width="2" fill="none" />
<polyline points="404.5,521.5,388.5,522.0" stroke="black" stroke-width="2" fill="none" />
<polyline points="408.0,533.5,392.5,549.5,376.5,565.5,360.5,581.0,345.0,596.5" stroke="black" stroke-width="2" fill="none" />
<polyline points="342.0,614.0,358.0,598.0,374.5,582.0,391.0,566.5,407.0,551.0,424.0,535.5" stroke="black" stroke-width="2" fill="none" />
<polyline points="421.0,551.5,405.0,566.5,390.5,581.0,374.5,596.5,358.0,613.5,341.5,630.0" stroke="black" stroke-width="2" fill="none" />
<polyline points="338.5,616.5,355.5,616.0,372.5,615.0,388.5,614.5,405.0,614.5,422.0,614.0,439.0,614.5,456.0,615.5,473.5,616.0,490.5,616.0,507.0,615.5,522.5,615.0" stroke="black" stroke-width="2" fill="none" />
<polyline points="520.5,612.5,505.0,627.0,488.5,642.5,471.0,658.0,454.0,673.0" stroke="black" stroke-width="2" fill="none" />
<polyline points="471.5,676.0,487.0,661.5,502.0,647.0,518.0,631.5" stroke="black" stroke-width="2" fill="none" />
<polyline points="521.0,649.0,505.0,664.0" stroke="black" stroke-width="2" fill="none" />
<polyline points="517.0,662.5,500.5,678.0" stroke="black" stroke-width="2" fill="none" />
<polyline points="488.5,636.0,473.0,650.5,457.5,665.5,441.5,680.5" stroke="black" stroke-width="2" fill="none" />
<polyline points="425.0,673.0,440.5,657.5,455.0,641.0,470.0,625.0,485.5,609.5,501.0,593.0" stroke="black" stroke-width="2" fill="none" />
<polyline points="503.5,583.5,487.5,598.5,471.5,613.5,455.0,628.0,438.0,643.0" stroke="black" stroke-width="2" fill="none" />
<polyline points="436.5,645.0,452.5,645.5" stroke="black" stroke-width="2" fill="none" />
<polyline points="408.5,643.0,424.0,626.5,440.0,610.5,457.0,595.0,472.5,580.0" stroke="black" stroke-width="2" fill="none" />
<polyline points="470.5,565.5,455.0,581.0" stroke="black" stroke-width="2" fill="none" />
<polyline points="440.5,582.0,456.5,566.5" stroke="black" stroke-width="2" fill="none" />
<polyline points="440.5,569.5,424.0,585.5" stroke="black" stroke-width="2" fill="none" />
<polyline points="424.0,594.5,407.5,610.5" stroke="black" stroke-width="2" fill="none" />
<polyline points="407.0,599.5,391.0,614.5,375.0,630.0" stroke="black" stroke-width="2" fill="none" />
<polyline points="373.5,637.0,388.0,636.0,403.5,635.0,420.0,634.5,437.0,634.0,454.0,633.0,471.5,631.5,488.0,630.5,504.5,629.0,521.0,628.5" stroke="black" stroke-width="2" fill="none" />
<polyline points="504.0,615.5,520.5,600.5" stroke="black" stroke-width="2" fill="none" />
<polyline points="488.0,586.5,471.5,601.5,455.5,617.0,440.0,631.5,424.5,645.5,409.0,660.5" stroke="black" stroke-width="2" fill="none" />
<polyline points="408.0,666.5,423.5,666.5,439.5,666.0,455.5,665.5,471.0,665.5,487.5,665.5,503.0,665.0,519.5,664.5" stroke="black" stroke-width="2" fill="none" />
<polyline points="437.0,601.5,422.0,616.5,406.5,632.5,391.0,647.5" stroke="black" stroke-width="2" fill="none" />
<polyline points="408.0,651.5,424.0,650.0,440.5,649.0,456.5,648.5,472.0,648.0,488.0,647.0,504.0,646.5,520.0,647.0" stroke="black" stroke-width="2" fill="none" />
<polyline points="442.0,554.5,425.5,570.0" stroke="black" stroke-width="2" fill="none" />
<polyline points="407.0,581.5,390.5,597.5,374.5,612.5,358.5,628.0" stroke="black" stroke-width="2" fill="none" />
<polyline points="360.0,625.5,375.5,625.5" stroke="black" stroke-width="2" fill="none" />
<polyline points="323.5,596.0,339.5,580.5,355.0,565.0,370.5,550.5" stroke="black" stroke-width="2" fill="none" />
<polyline points="370.5,542.0,386.5,541.5,403.5,540.0,420.5,538.5,437.5,537.5" stroke="black" stroke-width="2" fill="none" />
<polyline points="346.0,548.0,329.5,564.0" stroke="black" stroke-width="2" fill="none" />
<polyline points="328.5,549.5,312.5,565.5" stroke="black" stroke-width="2" fill="none" />
<polyline points="311.0,553.0,295.0,569.0" stroke="black" stroke-width="2" fill="none" />
<polyline points="278.0,565.0,263.0,580.5" stroke="black" stroke-width="2" fill="none" />
<polyline points="248.0,582.5,232.0,597.5" stroke="black" stroke-width="2" fill="none" />
<polyline points="229.0,585.5,246.0,585.5,263.0,585.5,280.0,585.5,296.5,585.5,312.5,586.0,327.5,585.5,342.5,586.0,358.0,586.0,373.5,586.0,389.5,585.5,405.5,585.5,421.5,584.0,438.0,583.5,454.5,583.0,470.5,582.0,487.0,582.0,504.5,581.5,521.0,579.5" stroke="black" stroke-width="2" fill="none" />
<polyline points="328.5,583.0,312.0,598.5" stroke="black" stroke-width="2" fill="none" />
<polyline points="315.5,586.0,299.0,602.0" stroke="black" stroke-width="2" fill="none" />
<polyline points="295.5,587.5,279.5,602.5,264.5,617.0" stroke="black" stroke-width="2" fill="none" />
<polyline points="261.0,611.0,277.5,609.5" stroke="black" stroke-width="2" fill="none" />
<polyline points="281.5,584.0,265.5,599.5,248.5,614.5,231.5,629.5" stroke="black" stroke-width="2" fill="none" />
<polyline points="235.0,621.0,251.0,621.0,267.0,619.5" stroke="black" stroke-width="2" fill="none" />
<polyline points="245.0,597.0,228.5,612.0" stroke="black" stroke-width="2" fill="none" />
<polyline points="217.0,602.5,233.0,603.0,249.0,602.0,264.5,601.5,280.0,601.0,295.5,599.0,311.0,598.5,326.5,596.5,343.0,595.5,360.0,595.0,376.5,594.0,392.5,594.0,407.0,593.5,422.0,593.5,437.0,595.0,452.5,596.0,469.0,595.5,486.0,594.5,502.0,593.5,518.0,593.0" stroke="black" stroke-width="2" fill="none" />
<polyline points="359.5,509.0,343.0,510.0,326.5,510.5" stroke="black" stroke-width="2" fill="none" />
<polyline points="312.5,486.5,328.5,470.5" stroke="black" stroke-width="2" fill="none" />
<polyline points="309.0,467.5,292.5,484.0" stroke="black" stroke-width="2" fill="none" />
<polyline points="284.5,469.5,267.5,485.0" stroke="black" stroke-width="2" fill="none" />
<polyline points="263.5,466.5,246.5,481.5" stroke="black" stroke-width="2" fill="none" />
<polyline points="245.5,471.0,230.5,486.5" stroke="black" stroke-width="2" fill="none" />
<polyline points="236.5,472.5,253.0,456.5" stroke="black" stroke-width="2" fill="none" />
<polyline points="231.5,439.0,216.0,454.0" stroke="black" stroke-width="2" fill="none" />
<polyline points="200.0,452.5,216.0,437.5" stroke="black" stroke-width="2" fill="none" />
<polyline points="197.0,423.5,181.0,439.0" stroke="black" stroke-width="2" fill="none" />
<polyline points="183.0,422.0,167.0,438.0,152.0,454.0" stroke="black" stroke-width="2" fill="none" />
<polyline points="153.0,440.0,170.0,425.0,186.5,409.0" stroke="black" stroke-width="2" fill="none" />
<polyline points="169.0,409.5,151.5,425.5,135.0,441.5" stroke="black" stroke-width="2" fill="none" />
<polyline points="106.5,429.5,121.5,429.5,136.5,428.0,151.5,426.5,167.5,425.5,182.5,424.0,198.5,424.0,214.0,423.5,229.5,423.5,245.5,423.0,261.5,422.0" stroke="black" stroke-width="2" fill="none" />
<polyline points="280.5,397.5,297.0,397.5,312.0,396.5" stroke="black" stroke-width="2" fill="none" />
<polyline points="308.0,407.5,292.0,408.0" stroke="black" stroke-width="2" fill="none" />
<polyline points="247.0,374.5,264.0,375.0,280.0,374.5,296.5,375.0,313.5,376.0,329.5,376.0,345.5,375.5" stroke="black" stroke-width="2" fill="none" />
<polyline points="264.5,356.5,248.5,372.5" stroke="black" stroke-width="2" fill="none" />
<polyline points="250.0,361.0,265.5,361.0,281.5,360.5,297.5,361.0,313.0,361.0" stroke="black" stroke-width="2" fill="none" />
<polyline points="340.5,312.0,324.0,313.0,309.0,314.0,293.0,315.5,277.5,316.0,262.0,317.5" stroke="black" stroke-width="2" fill="none" />
<polyline points="280.0,296.5,295.0,295.5" stroke="black" stroke-width="2" fill="none" />
<polyline points="291.5,233.5,275.0,233.0,259.0,234.0" stroke="black" stroke-width="2" fill="none" />
<polyline points="232.5,297.0,217.0,297.5" stroke="black" stroke-width="2" fill="none" />
<polyline points="212.0,285.0,196.0,285.5" stroke="black" stroke-width="2" fill="none" />
<polyline points="169.5,276.0,153.0,291.0" stroke="black" stroke-width="2" fill="none" />
<polyline points="167.5,308.5,152.0,324.0" stroke="black" stroke-width="2" fill="none" />
<polyline points="167.0,328.0,182.5,312.0" stroke="black" stroke-width="2" fill="none" />
<polyline points="213.5,337.5,199.0,353.5" stroke="black" stroke-width="2" fill="none" />
<polyline points="168.0,358.5,151.5,374.0" stroke="black" stroke-width="2" fill="none" />
<polyline points="138.5,372.5,154.5,356.5" stroke="black" stroke-width="2" fill="none" />
<polyline points="135.0,359.5,119.5,375.5" stroke="black" stroke-width="2" fill="none" />
<polyline points="117.5,380.5,133.5,379.5,149.5,379.0,165.0,378.0,180.5,377.5,196.5,377.5,213.0,375.5,229.5,373.5" stroke="black" stroke-width="2" fill="none" />
<polyline points="168.5,394.0,151.5,408.0" stroke="black" stroke-width="2" fill="none" />
<polyline points="122.0,412.0,137.5,410.5,152.0,409.5,166.5,408.5,181.0,407.5,196.5,407.0,213.0,407.0,230.0,407.0,246.5,407.0" stroke="black" stroke-width="2" fill="none" />
<polyline points="180.5,476.5,195.5,475.5,211.0,475.0,227.0,473.0,243.5,470.5,259.5,470.0,275.5,468.5,292.0,469.0,308.5,468.5,325.5,467.5,342.0,466.5,358.0,467.0,374.5,468.5,390.0,469.5,405.5,469.5" stroke="black" stroke-width="2" fill="none" />
<polyline points="296.0,535.0,280.0,551.0" stroke="black" stroke-width="2" fill="none" />
<polyline points="283.0,534.5,266.5,549.5,249.5,566.0" stroke="black" stroke-width="2" fill="none" />
<polyline points="235.5,567.0,251.5,551.5" stroke="black" stroke-width="2" fill="none" />
<polyline points="247.0,533.0,230.5,549.5" stroke="black" stroke-width="2" fill="none" />
<polyline points="228.5,558.0,245.0,556.5,261.5,554.5,277.5,553.0,293.0,551.5,308.5,552.0,324.0,551.0,340.5,550.5,356.5,550.5,373.0,551.0,389.5,552.0,404.0,551.0,419.5,550.0,436.0,549.5,453.0,549.0" stroke="black" stroke-width="2" fill="none" />
<polyline points="242.0,515.0,226.5,531.0" stroke="black" stroke-width="2" fill="none" />
<polyline points="234.0,525.0,250.5,524.5,266.5,523.0,282.5,522.0,298.0,521.5" stroke="black" stroke-width="2" fill="none" />
<polyline points="326.0,539.0,311.0,538.5,296.5,540.0,280.5,540.5,265.5,540.0,250.5,538.5,235.0,538.5" stroke="black" stroke-width="2" fill="none" />
<polyline points="237.5,509.5,253.5,508.5,268.5,507.5,284.0,507.0,300.0,506.5" stroke="black" stroke-width="2" fill="none" />
<polyline points="225.5,569.5,241.0,569.0,258.5,568.5,274.5,568.0,290.0,567.5,306.5,568.0,322.0,568.5,338.5,568.5,355.5,568.5,372.0,568.5,388.5,568.0,405.5,567.5,423.0,566.0,439.5,564.0,456.0,562.5,472.5,562.0,489.0,561.0" stroke="black" stroke-width="2" fill="none" />
<polyline points="326.5,485.5,310.5,486.5,294.5,487.5,278.5,489.0,262.5,489.5,246.0,490.0,229.5,490.5,214.0,491.0,198.0,491.5" stroke="black" stroke-width="2" fill="none" />
<polyline points="150.0,504.5,134.5,520.5,118.5,535.5,103.0,550.5,87.5,565.5,72.0,579.5,56.0,593.5,41.0,608.0,25.0,623.0" stroke="black" stroke-width="2" fill="none" />
<polyline points="10.0,621.0,25.5,621.0,41.0,621.0,57.5,620.0,74.5,618.5,91.0,619.0,108.0,618.0,125.0,618.0,141.5,617.5,157.5,617.0,173.5,616.5,189.5,615.5" stroke="black" stroke-width="2" fill="none" />
<polyline points="186.5,614.5,169.5,631.0,152.5,646.0,136.0,662.0,119.0,678.5" stroke="black" stroke-width="2" fill="none" />
<polyline points="171.0,683.5,186.5,668.0" stroke="black" stroke-width="2" fill="none" />
<polyline points="187.0,651.0,170.5,666.5,154.0,682.0" stroke="black" stroke-width="2" fill="none" />
<polyline points="135.5,680.0,151.5,664.0,168.5,648.0,184.5,632.5" stroke="black" stroke-width="2" fill="none" />
<polyline points="171.0,602.0,155.5,617.0,139.5,631.5,123.0,646.0,106.5,660.5,90.5,675.5" stroke="black" stroke-width="2" fill="none" />
<polyline points="105.0,675.0,120.0,658.0,135.5,641.5,151.5,625.5,168.0,609.5,184.0,594.5" stroke="black" stroke-width="2" fill="none" />
<polyline points="171.0,584.5,155.5,600.5,138.5,616.5,121.0,631.5,104.0,646.5,87.0,662.0,71.0,677.0" stroke="black" stroke-width="2" fill="none" />
<polyline points="53.5,675.5,69.0,660.0,86.5,645.0,104.0,630.0,122.5,614.5,140.0,598.5,156.0,582.5,172.0,566.5" stroke="black" stroke-width="2" fill="none" />
<polyline points="167.5,553.5,152.0,568.0,136.5,582.0,120.5,597.0,104.0,612.0,87.0,628.0,71.0,643.0,55.0,659.5,39.5,675.0" stroke="black" stroke-width="2" fill="none" />
<polyline points="28.0,675.5,43.0,661.0,58.0,646.0,73.0,631.0,88.0,615.0,104.0,598.5,120.0,581.5,135.5,565.0,151.0,549.5,167.0,534.0" stroke="black" stroke-width="2" fill="none" />
<polyline points="156.0,522.5,139.5,537.5,122.5,553.0,105.5,567.5,88.0,581.0,71.0,595.5,55.5,609.5,39.0,624.0,22.5,638.5,6.5,653.0" stroke="black" stroke-width="2" fill="none" />
<polyline points="4.5,648.5,20.5,648.0,37.5,648.0,54.0,648.5,70.0,648.5,86.0,648.0,103.5,647.5,120.5,647.5,137.5,647.5,155.0,647.0,171.0,645.5,186.5,645.5,201.5,647.0" stroke="black" stroke-width="2" fill="none" />
<polyline points="150.5,536.5,135.0,551.5,119.5,567.0,103.5,583.0,86.5,599.0,70.5,614.5,55.0,628.5,39.5,642.5" stroke="black" stroke-width="2" fill="none" />
<polyline points="21.5,661.5,6.0,677.5" stroke="black" stroke-width="2" fill="none" />
<polyline points="5.0,665.0,20.5,665.0,36.0,666.0,52.0,666.5,67.5,666.5,84.0,667.0,100.5,666.0,117.0,665.5,133.0,665.0,148.5,664.5,164.5,665.0,181.0,663.5,197.5,661.5" stroke="black" stroke-width="2" fill="none" />
<polyline points="89.0,536.0,73.0,551.0,57.5,566.0,42.0,581.5,26.0,597.5" stroke="black" stroke-width="2" fill="none" />
<polyline points="8.0,596.0,24.5,580.5,41.5,565.0,58.0,548.5,74.5,532.5" stroke="black" stroke-width="2" fill="none" />
<polyline points="41.0,549.0,24.5,564.5,9.0,580.5" stroke="black" stroke-width="2" fill="none" />
<polyline points="9.5,574.5,25.0,573.5,40.5,573.0,55.5,572.0,70.5,572.0,85.5,572.0,102.5,570.5,119.0,569.5,135.0,568.0,150.5,567.0,166.0,566.5,182.0,566.0" stroke="black" stroke-width="2" fill="none" />
<polyline points="147.5,489.5,131.0,506.0,115.5,521.5,100.5,536.5,86.0,551.0,70.5,565.5,55.5,579.5,39.5,593.5,23.5,607.5,7.0,621.5" stroke="black" stroke-width="2" fill="none" />
<polyline points="4.5,636.0,21.0,636.5,38.5,635.5,55.0,634.5,71.5,634.0,88.5,633.5,105.0,634.0,122.0,633.5,138.0,633.0,154.0,632.5,170.0,632.0,186.5,631.5,202.5,630.0" stroke="black" stroke-width="2" fill="none" />
<polyline points="119.0,503.0,135.0,487.5,150.5,471.0" stroke="black" stroke-width="2" fill="none" />
<polyline points="152.0,488.0,135.5,487.5,119.0,487.5" stroke="black" stroke-width="2" fill="none" />
<polyline points="106.0,510.0,123.0,509.0,139.5,508.5,155.5,507.5,171.0,507.0" stroke="black" stroke-width="2" fill="none" />
<polyline points="166.0,471.5,151.0,472.0,136.0,473.0,120.0,474.0,103.5,475.0,86.5,476.5" stroke="black" stroke-width="2" fill="none" />
<polyline points="52.0,499.0,36.5,514.5" stroke="black" stroke-width="2" fill="none" />
<polyline points="26.0,500.5,42.5,485.5" stroke="black" stroke-width="2" fill="none" />
<polyline points="40.0,469.0,23.0,484.5" stroke="black" stroke-width="2" fill="none" />
<polyline points="22.0,472.0,5.5,486.0" stroke="black" stroke-width="2" fill="none" />
<polyline points="4.5,489.0,21.0,489.0,38.5,489.5,55.5,490.0,71.5,490.0" stroke="black" stroke-width="2" fill="none" />
<polyline points="36.5,438.5,51.5,422.5,67.5,406.0" stroke="black" stroke-width="2" fill="none" />
<polyline points="74.0,392.0,90.5,377.0" stroke="black" stroke-width="2" fill="none" />
<polyline points="72.0,358.5,56.5,374.0" stroke="black" stroke-width="2" fill="none" />
<polyline points="54.5,387.0,38.5,402.0" stroke="black" stroke-width="2" fill="none" />
<polyline points="52.0,404.0,36.0,419.5,22.0,434.5" stroke="black" stroke-width="2" fill="none" />
<polyline points="7.5,439.5,23.5,439.0,39.0,438.5,55.5,438.0,71.5,437.0,88.5,437.5,104.5,437.5,120.5,438.5,137.0,439.0,154.0,439.0,170.0,439.0,185.5,437.5,200.0,436.5,214.5,435.5,229.0,434.5,244.5,434.0,261.0,434.0,278.0,434.0,294.5,434.0" stroke="black" stroke-width="2" fill="none" />
<polyline points="229.0,389.0,212.5,390.0,197.0,391.5,181.0,392.5,166.0,393.5,150.5,394.0,136.0,394.5,121.0,395.0" stroke="black" stroke-width="2" fill="none" />
<polyline points="120.5,358.5,136.5,343.5" stroke="black" stroke-width="2" fill="none" />
<polyline points="120.0,313.5,104.5,328.5" stroke="black" stroke-width="2" fill="none" />
<polyline points="90.5,329.0,74.0,343.5,58.0,358.0,41.5,373.0" stroke="black" stroke-width="2" fill="none" />
<polyline points="23.5,371.0,40.0,353.5,56.5,337.5" stroke="black" stroke-width="2" fill="none" />
<polyline points="58.0,328.0,73.0,312.5" stroke="black" stroke-width="2" fill="none" />
<polyline points="74.5,322.5,89.5,308.0,104.5,293.0,119.5,278.0,134.5,262.0,150.0,246.0,166.0,229.5,182.0,213.5" stroke="black" stroke-width="2" fill="none" />
<polyline points="182.0,203.0,166.0,218.0,150.5,232.5,134.5,247.0,118.5,262.5,103.0,278.0,87.5,292.5" stroke="black" stroke-width="2" fill="none" />
<polyline points="87.0,282.5,103.5,282.0,120.0,280.5,136.0,280.0,151.0,280.0,166.0,279.5,181.5,279.5" stroke="black" stroke-width="2" fill="none" />
<polyline points="172.0,245.0,155.5,261.0,137.5,276.5" stroke="black" stroke-width="2" fill="none" />
<polyline points="121.5,295.0,105.5,310.5" stroke="black" stroke-width="2" fill="none" />
<polyline points="75.0,295.5,59.5,311.5" stroke="black" stroke-width="2" fill="none" />
<polyline points="56.0,291.5,39.5,307.0" stroke="black" stroke-width="2" fill="none" />
<polyline points="21.0,310.5,5.5,326.5" stroke="black" stroke-width="2" fill="none" />
<polyline points="8.0,331.5,24.0,331.5,40.5,331.0,57.0,330.0,73.0,329.5,89.0,328.5,106.0,327.5,122.5,327.0,138.5,326.5,154.5,325.0,170.5,324.5,186.0,324.0,201.0,323.5,216.0,323.0,231.0,323.0,246.5,322.5" stroke="black" stroke-width="2" fill="none" />
<polyline points="183.5,184.0,168.0,198.5,151.5,213.5,135.0,228.5,118.5,243.0,101.5,257.5,86.0,272.5" stroke="black" stroke-width="2" fill="none" />
<polyline points="87.5,270.0,103.0,269.0,118.5,269.0,134.5,268.5,150.0,267.5,166.0,267.0,180.5,266.0,195.5,265.5,211.0,264.0,227.0,262.0,243.0,261.0,259.0,260.0" stroke="black" stroke-width="2" fill="none" />
<polyline points="168.5,183.5,152.5,199.0,135.5,214.5,118.5,230.0" stroke="black" stroke-width="2" fill="none" />
<polyline points="119.0,218.0,134.5,202.0,151.0,186.0" stroke="black" stroke-width="2" fill="none" />
<polyline points="139.5,183.5,123.5,198.5" stroke="black" stroke-width="2" fill="none" />
<polyline points="106.0,196.5,121.0,180.5" stroke="black" stroke-width="2" fill="none" />
<polyline points="102.0,164.0,118.5,147.5,135.0,130.5,150.5,114.5,166.0,98.5,182.5,82.0,199.5,66.5,216.0,50.0" stroke="black" stroke-width="2" fill="none" />
<polyline points="228.0,40.0,244.0,25.0" stroke="black" stroke-width="2" fill="none" />
<polyline points="234.0,19.5,218.0,35.5" stroke="black" stroke-width="2" fill="none" />
<polyline points="215.0,18.0,199.0,33.5" stroke="black" stroke-width="2" fill="none" />
<polyline points="186.5,40.0,170.5,55.0" stroke="black" stroke-width="2" fill="none" />
<polyline points="181.0,53.5,197.5,53.0,214.0,52.5,230.0,52.5,245.0,53.0,260.5,54.0,277.0,53.5,293.0,52.5,308.5,52.0,323.5,52.5,338.5,51.5,355.5,51.0,372.5,50.0,388.5,49.5,405.0,49.5,422.0,49.0,439.0,49.5,456.0,50.5,473.5,51.0,490.5,51.0,507.0,50.5" stroke="black" stroke-width="2" fill="none" />
<polyline points="311.5,25.0,296.0,41.5,279.5,58.0,264.0,74.0,249.0,89.0,233.0,103.5" stroke="black" stroke-width="2" fill="none" />
<polyline points="217.0,84.0,232.0,69.0,246.5,53.5,262.5,38.0" stroke="black" stroke-width="2" fill="none" />
<polyline points="261.5,49.0,277.5,49.5" stroke="black" stroke-width="2" fill="none" />
<polyline points="280.5,40.0,264.0,55.5,248.5,70.5" stroke="black" stroke-width="2" fill="none" />
<polyline points="248.0,42.5,232.0,58.0,216.5,73.0,200.5,88.0,185.0,102.5" stroke="black" stroke-width="2" fill="none" />
<polyline points="197.5,106.0,181.0,121.5,166.0,137.0,150.5,152.0" stroke="black" stroke-width="2" fill="none" />
<polyline points="162.5,120.5,147.0,135.5,131.5,151.0,116.5,165.0,102.5,179.0" stroke="black" stroke-width="2" fill="none" />
<polyline points="86.0,185.5,102.5,184.5,119.0,184.0,135.5,183.5,151.5,183.5,168.5,183.0,185.0,183.0,202.0,183.5" stroke="black" stroke-width="2" fill="none" />
<polyline points="147.0,107.5,131.5,122.0,116.5,137.0" stroke="black" stroke-width="2" fill="none" />
<polyline points="106.5,137.5,122.0,137.0,137.0,136.5,152.0,136.0,167.0,136.0,182.5,135.5,197.5,134.5,213.5,134.0,230.5,133.0" stroke="black" stroke-width="2" fill="none" />
<polyline points="183.5,72.0,199.5,57.0" stroke="black" stroke-width="2" fill="none" />
<polyline points="166.0,75.0,181.5,74.0,198.0,73.0,214.0,72.5,230.0,72.0,246.0,71.5,262.0,72.0,278.0,72.5,294.5,72.5,310.5,71.5,326.5,70.5,342.0,70.0,357.5,69.0,373.0,68.5,389.0,68.0" stroke="black" stroke-width="2" fill="none" />
<polyline points="524.0,30.0,507.0,30.0,490.0,30.5,474.0,31.5,458.0,32.0,442.0,32.5,425.5,33.5,409.5,34.5,393.0,36.0,376.5,36.5,360.0,38.0,344.5,40.0,329.5,41.5,313.5,43.0,298.0,43.5,281.0,43.0,264.5,42.5,249.0,43.0,232.0,42.0,217.0,42.5,200.5,43.5,185.0,44.0,169.0,44.0,153.0,44.5" stroke="black" stroke-width="2" fill="none" />
<polyline points="137.0,92.5,153.0,92.5,169.0,90.5,184.5,89.5,200.5,89.5,216.5,89.0,232.0,89.5,247.5,89.5,263.5,90.0,278.5,90.0,294.5,89.5,311.0,89.0,327.5,88.0,343.5,87.0,359.0,85.5,374.5,83.5,391.0,82.5,407.0,82.5,423.0,81.5,439.5,80.5,456.5,79.0,472.0,79.0,487.5,77.5" stroke="black" stroke-width="2" fill="none" />
<polyline points="199.5,116.0,183.0,117.5,165.5,118.0,149.0,119.0,132.5,119.5,116.0,120.5" stroke="black" stroke-width="2" fill="none" />
<polyline points="119.0,107.5,135.0,107.0,151.5,106.0,167.0,105.5,183.0,104.5,199.0,104.0,215.5,103.5,232.0,102.5,248.5,101.5" stroke="black" stroke-width="2" fill="none" />
<polyline points="308.0,246.0,292.5,245.5,277.0,246.0,261.0,247.0,244.5,247.5,228.5,247.0,213.5,247.0,198.0,247.0,182.0,248.0,166.0,248.5,150.0,249.0,133.5,250.0,117.0,251.5,101.5,253.0,86.0,253.5" stroke="black" stroke-width="2" fill="none" />
<polyline points="90.0,236.0,105.0,236.0,120.0,235.5,135.0,235.0,150.5,235.0,166.0,233.5,181.5,232.5,197.0,231.0,213.0,230.0,229.0,229.0,245.5,228.0" stroke="black" stroke-width="2" fill="none" />
<polyline points="280.0,209.5,264.0,210.0,247.0,209.5,231.5,210.5,215.5,212.0,199.5,213.0,184.0,214.0,168.0,215.0,152.5,215.5,136.0,216.5,120.5,217.0,104.5,217.5,88.5,219.5" stroke="black" stroke-width="2" fill="none" />
<polyline points="73.5,232.0,58.0,247.5" stroke="black" stroke-width="2" fill="none" />
<polyline points="59.5,231.5,44.0,248.0,27.0,263.5" stroke="black" stroke-width="2" fill="none" />
<polyline points="6.0,265.5,22.5,265.0,38.5,265.0,54.0,264.0,69.0,263.0" stroke="black" stroke-width="2" fill="none" />
<polyline points="40.5,234.5,56.0,219.5" stroke="black" stroke-width="2" fill="none" />
<polyline points="38.5,197.5,23.0,213.0" stroke="black" stroke-width="2" fill="none" />
<polyline points="24.5,202.0,8.0,217.0" stroke="black" stroke-width="2" fill="none" />
<polyline points="5.5,216.5,22.0,216.0,38.0,216.0,54.5,216.0,71.5,216.0" stroke="black" stroke-width="2" fill="none" />
<polyline points="86.0,199.0,103.0,200.0,120.0,201.0,137.0,201.5,153.0,202.0,169.0,201.5,185.5,201.0,201.5,199.0" stroke="black" stroke-width="2" fill="none" />
<polyline points="229.0,165.0,214.0,166.5,199.0,167.5,184.0,168.5,168.5,170.0,152.0,170.0,135.0,170.5,118.5,170.5,103.0,169.5,87.0,170.0" stroke="black" stroke-width="2" fill="none" />
<polyline points="82.0,157.0,98.5,157.5,115.0,156.5,131.0,155.5,147.5,154.0,164.0,152.0,179.0,151.0,194.0,150.5,209.5,149.5,225.0,149.0,241.5,148.5" stroke="black" stroke-width="2" fill="none" />
<polyline points="73.0,166.5,57.0,182.0" stroke="black" stroke-width="2" fill="none" />
<polyline points="56.5,167.0,41.5,183.5" stroke="black" stroke-width="2" fill="none" />
<polyline points="38.5,167.0,54.5,151.5" stroke="black" stroke-width="2" fill="none" />
<polyline points="53.0,135.5,37.0,150.5" stroke="black" stroke-width="2" fill="none" />
<polyline points="27.0,152.5,10.5,168.0" stroke="black" stroke-width="2" fill="none" />
<polyline points="10.0,167.0,26.0,167.0,41.5,167.5,56.5,168.0,71.5,168.5" stroke="black" stroke-width="2" fill="none" />
<polyline points="39.0,123.5,56.0,107.5" stroke="black" stroke-width="2" fill="none" />
<polyline points="57.0,85.5,41.0,101.0,26.0,116.5" stroke="black" stroke-width="2" fill="none" />
<polyline points="5.0,125.0,21.5,124.0,37.0,124.5,53.5,123.5,70.5,122.5" stroke="black" stroke-width="2" fill="none" />
<polyline points="74.5,183.0,59.0,184.0,43.5,185.0,26.5,186.0,11.0,186.0" stroke="black" stroke-width="2" fill="none" />
<polyline points="12.0,202.5,27.0,201.5,41.5,200.5,56.5,200.0,71.5,200.0" stroke="black" stroke-width="2" fill="none" />
<polyline points="71.0,246.0,54.5,246.5,38.5,246.5,22.0,246.5,5.0,247.5" stroke="black" stroke-width="2" fill="none" />
<polyline points="2.0,230.5,18.0,230.5,34.5,230.5,51.0,230.0,67.5,229.0" stroke="black" stroke-width="2" fill="none" />
<polyline points="72.0,283.0,56.5,282.5,40.5,282.5,23.5,283.5,7.5,284.5" stroke="black" stroke-width="2" fill="none" />
<polyline points="4.0,302.0,20.0,301.0,36.0,300.0,52.0,299.0,68.5,297.5,85.0,296.0,102.0,295.0,118.0,293.5,134.0,293.5,150.5,294.0,167.0,293.5,183.5,293.0,200.0,291.5" stroke="black" stroke-width="2" fill="none" />
<polyline points="40.0,339.5,24.0,355.5" stroke="black" stroke-width="2" fill="none" />
<polyline points="8.0,346.0,24.5,346.0,39.5,346.0,55.0,346.5,71.0,346.0,87.5,346.0,103.5,345.0,120.0,344.5,137.0,344.5,154.0,345.0,170.5,344.5,185.5,344.5,200.5,343.0,215.5,341.5,231.5,340.5,246.5,339.0,262.5,339.0,278.0,338.5,293.5,338.5" stroke="black" stroke-width="2" fill="none" />
<polyline points="185.0,598.0,169.0,597.5,153.5,599.0,137.5,600.0,121.5,601.0,106.5,602.0,91.0,602.5,74.5,602.5,57.5,601.5,41.0,601.5,24.5,602.5,8.5,603.0" stroke="black" stroke-width="2" fill="none" />
<polyline points="9.5,587.0,26.5,586.0,43.0,585.5,59.0,584.5,75.0,583.0,91.0,582.5,106.5,582.0,122.0,581.5,137.5,581.0,153.0,581.0,169.0,580.5,184.5,580.0" stroke="black" stroke-width="2" fill="none" />
<polyline points="22.0,550.0,7.0,565.0" stroke="black" stroke-width="2" fill="none" />
<polyline points="6.0,557.0,22.5,557.0,37.5,556.5,53.0,556.5,69.0,557.5,85.0,556.5,101.0,556.0,117.5,554.5,133.5,553.5,148.5,553.0,164.0,552.5" stroke="black" stroke-width="2" fill="none" />
<polyline points="164.5,535.5,148.5,536.0,132.5,537.0,116.5,538.0,101.5,538.0,86.5,538.5,71.0,538.0,56.5,538.0,41.0,539.0,25.5,540.5,9.0,541.5" stroke="black" stroke-width="2" fill="none" />
<polyline points="6.5,519.0,22.5,518.5,39.0,518.0,54.5,517.5,70.0,517.5,85.5,516.5,100.5,516.0,115.5,514.5,132.0,513.5,148.5,512.5,165.0,512.5" stroke="black" stroke-width="2" fill="none" />
<polyline points="73.0,504.0,56.5,503.5,40.5,503.5,24.5,503.0,8.0,503.5" stroke="black" stroke-width="2" fill="none" />
<polyline points="5.5,475.0,21.0,474.0,37.5,472.5,53.0,471.0,68.5,469.5" stroke="black" stroke-width="2" fill="none" />
<polyline points="3.0,456.0,19.0,456.0,35.0,455.0,51.0,454.5,68.5,453.5,85.0,454.0,101.5,453.0,118.5,452.5,134.5,452.0,151.0,451.5,167.0,450.5,183.5,450.5,200.0,451.0,216.0,451.5,231.0,452.0,247.0,453.0,263.0,453.5,278.5,452.5,293.5,451.5,308.5,450.0,324.5,450.0,340.5,449.0,358.0,448.5,375.0,448.5,390.5,448.0,406.0,447.0" stroke="black" stroke-width="2" fill="none" />
<polyline points="71.0,424.0,55.0,424.5,39.0,424.5,23.0,425.0,6.5,425.5" stroke="black" stroke-width="2" fill="none" />
<polyline points="5.5,408.5,21.0,408.5,37.0,409.0,53.5,408.5,70.5,407.5" stroke="black" stroke-width="2" fill="none" />
<polyline points="84.5,391.5,68.0,393.5,51.5,395.5,36.0,397.5,20.5,398.5,5.0,400.5" stroke="black" stroke-width="2" fill="none" />
<polyline points="4.5,382.0,20.0,382.0,36.0,380.5,52.0,380.0,68.0,380.0,83.5,379.5,100.5,379.5" stroke="black" stroke-width="2" fill="none" />
<polyline points="4.5,365.0,20.5,364.5,37.0,363.5,54.0,364.0,71.0,364.5,88.5,365.0,104.5,364.5,120.5,364.5,137.0,363.5,154.0,361.5,170.0,361.0,187.0,360.0,203.5,359.5,219.5,358.5" stroke="black" stroke-width="2" fill="none" />
<polyline points="216.0,308.0,200.0,309.0,183.5,310.0,166.5,311.5,151.0,311.0,136.0,311.5,120.5,312.5,104.5,313.5,89.0,314.5,72.5,315.5,56.0,316.0,40.0,316.5,24.0,317.0,7.5,318.0" stroke="black" stroke-width="2" fill="none" />
<polyline points="11.0,152.5,26.5,152.5,41.0,152.5,56.0,152.5,71.0,151.5" stroke="black" stroke-width="2" fill="none" />
<polyline points="72.5,141.0,56.0,141.5,39.5,142.5,24.5,144.0,8.0,145.0" stroke="black" stroke-width="2" fill="none" />
<polyline points="5.0,106.5,20.5,105.5,37.0,104.5,53.5,104.0,69.5,104.5" stroke="black" stroke-width="2" fill="none" />
<polyline points="72.0,88.0,55.0,89.0,38.0,90.5,20.0,92.0,3.5,93.5" stroke="black" stroke-width="2" fill="none" />
<polyline points="8.5,79.0,24.0,78.0,40.0,77.0,55.5,76.0,70.5,75.5,86.5,74.0" stroke="black" stroke-width="2" fill="none" />
<polyline points="75.0,22.0,91.5,7.0" stroke="black" stroke-width="2" fill="none" />
<polyline points="25.5,23.0,9.5,38.5" stroke="black" stroke-width="2" fill="none" />
<polyline points="6.5,43.0,22.5,42.5,38.0,42.5,54.0,42.5,70.0,42.5,85.5,42.0,102.0,42.0,117.5,41.5,133.5,41.5" stroke="black" stroke-width="2" fill="none" />
<polyline points="88.0,59.0,70.5,60.0,53.5,60.0,37.0,60.0,20.5,61.0,5.0,62.0" stroke="black" stroke-width="2" fill="none" />
<polyline points="5.5,26.0,22.0,25.5,38.5,25.0,55.0,25.0,71.5,26.0,88.0,26.0,104.5,25.0,121.5,24.0,138.0,24.0,153.5,24.5,169.0,24.5,185.5,23.5,201.0,22.0,216.5,21.0,231.0,21.0,246.5,21.5,261.5,21.0,276.5,21.0,292.5,20.0,308.5,19.0,324.5,18.5,339.5,17.5,355.0,17.0,371.0,15.0,387.5,12.5,403.5,12.0,419.5,10.5,436.0,11.0,452.5,10.5,469.5,9.5,486.0,8.5,502.0,9.0,518.5,10.5" stroke="black" stroke-width="2" fill="none" />
</svg>