<svg xmlns="http://www.w3.org/2000/svg" version="1.1"><polyline points="6.0,13.5,22.5,13.5" stroke="black" stroke-width="2" fill="none" />
<polyline points="2.0,24.0,19.0,24.5,36.0,25.0,52.0,25.0" stroke="black" stroke-width="2" fill="none" />
<polyline points="39.0,53.0,22.5,53.5,6.0,54.5" stroke="black" stroke-width="2" fill="none" />
<polyline points="5.5,38.0,21.5,37.5" stroke="black" stroke-width="2" fill="none" />
<polyline points="37.0,74.0,21.5,74.5,6.0,75.5" stroke="black" stroke-width="2" fill="none" />
<polyline points="75.5,106.5,91.5,106.5,107.5,106.0" stroke="black" stroke-width="2" fill="none" />
<polyline points="120.5,123.0,136.5,122.0,152.5,121.0,169.0,120.5" stroke="black" stroke-width="2" fill="none" />
<polyline points="183.5,135.5,199.5,135.5,215.0,135.5,231.0,135.0,247.0,134.5,263.0,134.5,278.5,134.0,293.5,134.0" stroke="black" stroke-width="2" fill="none" />
<polyline points="283.0,151.5,267.5,167.0" stroke="black" stroke-width="2" fill="none" />
<polyline points="264.0,149.5,248.5,164.5" stroke="black" stroke-width="2" fill="none" />
<polyline points="250.5,149.5,266.0,134.5" stroke="black" stroke-width="2" fill="none" />
<polyline points="246.0,135.5,230.5,150.5,214.5,165.5" stroke="black" stroke-width="2" fill="none" />
<polyline points="201.5,168.5,217.0,153.0,233.0,136.5" stroke="black" stroke-width="2" fill="none" />
<polyline points="219.0,136.0,203.0,152.0,186.5,167.5" stroke="black" stroke-width="2" fill="none" />
<polyline points="180.0,171.5,196.0,171.0,213.0,170.5,229.0,170.0,245.5,169.0,261.5,167.5,278.0,166.0" stroke="black" stroke-width="2" fill="none" />
<polyline points="296.0,170.0,312.0,170.0,328.5,169.5,345.0,169.5" stroke="black" stroke-width="2" fill="none" />
<polyline points="360.0,172.0,376.5,171.5" stroke="black" stroke-width="2" fill="none" />
<polyline points="390.5,168.0,406.5,167.0,422.0,167.5,438.5,168.0,455.0,168.0,472.0,169.0,488.5,168.5" stroke="black" stroke-width="2" fill="none" />
<polyline points="489.5,199.0,472.5,215.0" stroke="black" stroke-width="2" fill="none" />
<polyline points="471.0,228.0,486.5,213.0" stroke="black" stroke-width="2" fill="none" />
<polyline points="503.5,216.5,487.5,232.0" stroke="black" stroke-width="2" fill="none" />
<polyline points="505.0,232.5,521.0,217.5" stroke="black" stroke-width="2" fill="none" />
<polyline points="523.5,227.0,507.0,243.5" stroke="black" stroke-width="2" fill="none" />
<polyline points="524.0,260.5,507.0,276.5" stroke="black" stroke-width="2" fill="none" />
<polyline points="470.5,267.5,454.0,283.5" stroke="black" stroke-width="2" fill="none" />
<polyline points="455.5,263.0,472.0,247.5" stroke="black" stroke-width="2" fill="none" />
<polyline points="456.0,245.0,440.5,260.5" stroke="black" stroke-width="2" fill="none" />
<polyline points="422.5,277.5,438.5,277.0,454.5,277.0,470.0,277.5,486.0,278.0,502.0,278.5,518.0,278.5" stroke="black" stroke-width="2" fill="none" />
<polyline points="521.5,329.5,506.0,345.0" stroke="black" stroke-width="2" fill="none" />
<polyline points="501.0,330.0,485.0,346.0" stroke="black" stroke-width="2" fill="none" />
<polyline points="457.0,332.0,472.5,331.0,489.0,331.0,505.0,330.5,521.0,330.5" stroke="black" stroke-width="2" fill="none" />
<polyline points="502.0,314.5,487.0,314.0,471.0,315.0" stroke="black" stroke-width="2" fill="none" />
<polyline points="406.0,326.5,390.5,343.0" stroke="black" stroke-width="2" fill="none" />
<polyline points="374.0,332.0,357.5,348.0" stroke="black" stroke-width="2" fill="none" />
<polyline points="357.5,326.0,374.0,311.0" stroke="black" stroke-width="2" fill="none" />
<polyline points="373.5,268.5,390.0,267.5,407.5,266.5,424.0,266.0,440.0,265.5,456.0,265.5,472.0,264.0,488.5,264.0,505.0,263.5,521.5,263.5" stroke="black" stroke-width="2" fill="none" />
<polyline points="490.0,156.5,474.5,158.0,459.0,158.0" stroke="black" stroke-width="2" fill="none" />
<polyline points="457.0,141.5,474.0,140.5" stroke="black" stroke-width="2" fill="none" />
<polyline points="439.5,119.0,423.0,135.5" stroke="black" stroke-width="2" fill="none" />
<polyline points="438.5,137.5,422.5,137.5,407.0,137.5" stroke="black" stroke-width="2" fill="none" />
<polyline points="402.5,122.0,419.0,122.0,435.5,121.5,453.0,120.0" stroke="black" stroke-width="2" fill="none" />
<polyline points="453.5,72.0,437.0,72.5,421.0,73.0" stroke="black" stroke-width="2" fill="none" />
<polyline points="411.5,73.0,395.5,88.5" stroke="black" stroke-width="2" fill="none" />
<polyline points="402.5,90.0,419.0,90.0,435.5,89.0,453.0,88.5" stroke="black" stroke-width="2" fill="none" />
<polyline points="420.5,61.0,436.5,60.0,454.0,59.0,471.0,57.5,487.5,55.5" stroke="black" stroke-width="2" fill="none" />
<polyline points="505.5,62.0,521.5,61.5" stroke="black" stroke-width="2" fill="none" />
<polyline points="523.0,78.0,507.0,78.5" stroke="black" stroke-width="2" fill="none" />
<polyline points="504.0,93.5,521.0,93.5" stroke="black" stroke-width="2" fill="none" />
<polyline points="520.5,108.0,505.5,108.0" stroke="black" stroke-width="2" fill="none" />
<polyline points="518.5,39.5,502.0,40.0,485.5,41.5,469.5,42.5" stroke="black" stroke-width="2" fill="none" />
<polyline points="454.5,23.0,470.5,22.0,485.5,22.0,501.0,22.0,517.0,22.5" stroke="black" stroke-width="2" fill="none" />
<polyline points="518.5,8.0,503.5,8.5,487.5,8.5,472.0,8.5,455.5,9.5,439.0,9.0" stroke="black" stroke-width="2" fill="none" />
<polyline points="452.0,41.5,436.0,42.0,420.0,42.5" stroke="black" stroke-width="2" fill="none" />
<polyline points="410.0,57.0,394.0,72.5" stroke="black" stroke-width="2" fill="none" />
<polyline points="390.0,78.5,405.5,78.0" stroke="black" stroke-width="2" fill="none" />
<polyline points="404.5,104.5,420.0,104.0,435.5,103.5,451.5,103.0" stroke="black" stroke-width="2" fill="none" />
<polyline points="421.5,168.5,406.0,183.5" stroke="black" stroke-width="2" fill="none" />
<polyline points="419.0,153.5,403.0,153.5,387.5,154.5" stroke="black" stroke-width="2" fill="none" />
<polyline points="394.5,138.0,378.0,138.5" stroke="black" stroke-width="2" fill="none" />
<polyline points="378.5,125.5,394.5,124.5" stroke="black" stroke-width="2" fill="none" />
<polyline points="396.0,106.0,379.5,107.0" stroke="black" stroke-width="2" fill="none" />
<polyline points="376.5,91.5,360.0,92.5" stroke="black" stroke-width="2" fill="none" />
<polyline points="360.5,77.5,376.0,77.0" stroke="black" stroke-width="2" fill="none" />
<polyline points="362.5,60.5,378.5,61.5,394.0,61.0,410.0,60.5" stroke="black" stroke-width="2" fill="none" />
<polyline points="359.5,124.5,344.0,125.0" stroke="black" stroke-width="2" fill="none" />
<polyline points="363.0,135.0,347.5,135.5,331.5,135.5,315.0,136.5" stroke="black" stroke-width="2" fill="none" />
<polyline points="327.0,186.0,343.5,185.5" stroke="black" stroke-width="2" fill="none" />
<polyline points="362.0,189.0,377.5,187.5,393.5,186.5,409.5,185.0,425.0,183.0,440.0,181.5,456.0,180.0,472.0,179.5,488.0,178.5" stroke="black" stroke-width="2" fill="none" />
<polyline points="490.5,200.0,474.5,201.0,458.0,202.0,441.5,202.0,426.0,203.0,409.0,203.5,392.0,204.5,376.0,204.5,360.0,205.0" stroke="black" stroke-width="2" fill="none" />
<polyline points="344.0,222.5,359.5,221.5,375.5,221.0,391.5,221.0,407.0,220.5,422.5,219.5,438.5,219.5,454.5,219.5,471.5,218.0,488.5,216.5,505.5,215.0,520.5,215.0" stroke="black" stroke-width="2" fill="none" />
<polyline points="325.5,229.0,309.5,244.0" stroke="black" stroke-width="2" fill="none" />
<polyline points="292.0,229.5,276.0,245.5" stroke="black" stroke-width="2" fill="none" />
<polyline points="262.5,246.5,277.5,230.5" stroke="black" stroke-width="2" fill="none" />
<polyline points="282.5,212.5,266.0,228.0,249.0,243.0" stroke="black" stroke-width="2" fill="none" />
<polyline points="232.5,244.0,248.0,228.0,264.5,212.0" stroke="black" stroke-width="2" fill="none" />
<polyline points="248.0,218.0,232.5,233.0" stroke="black" stroke-width="2" fill="none" />
<polyline points="243.0,204.0,259.5,203.0,276.0,202.0" stroke="black" stroke-width="2" fill="none" />
<polyline points="267.0,189.5,283.5,189.0,300.0,188.0,315.5,187.0" stroke="black" stroke-width="2" fill="none" />
<polyline points="265.0,254.0,281.0,254.0,297.0,253.5,312.5,253.0,328.5,251.5,345.0,251.0,361.0,250.0,377.5,249.0,393.5,248.0,409.5,248.0,425.0,248.5,442.0,247.5,458.5,246.0,474.0,244.5,489.0,243.5,504.0,242.5,519.5,242.0" stroke="black" stroke-width="2" fill="none" />
<polyline points="311.0,293.5,295.5,309.5,280.5,326.0" stroke="black" stroke-width="2" fill="none" />
<polyline points="295.5,328.0,280.0,343.5" stroke="black" stroke-width="2" fill="none" />
<polyline points="263.0,332.5,278.5,331.5,295.0,331.0,311.5,330.0,328.0,330.5,344.5,329.5,361.5,329.5,379.0,328.5,395.0,328.5,410.5,329.0,427.0,329.0" stroke="black" stroke-width="2" fill="none" />
<polyline points="295.5,295.0,279.0,310.5" stroke="black" stroke-width="2" fill="none" />
<polyline points="264.5,309.0,280.5,294.0" stroke="black" stroke-width="2" fill="none" />
<polyline points="277.0,277.5,261.0,293.5,245.0,309.5,228.5,326.5" stroke="black" stroke-width="2" fill="none" />
<polyline points="218.5,326.0,234.5,310.0,251.0,294.5,268.0,279.0" stroke="black" stroke-width="2" fill="none" />
<polyline points="233.5,280.5,217.5,295.5,200.0,310.5" stroke="black" stroke-width="2" fill="none" />
<polyline points="197.0,311.5,213.5,311.5,229.0,311.5,245.0,311.5,261.0,311.5,277.0,311.0,293.0,311.5,308.5,311.5,325.0,311.0,342.0,310.0,359.0,308.5,374.5,308.5,390.5,308.5,407.0,308.0,423.0,307.5,440.0,306.5,457.0,306.5" stroke="black" stroke-width="2" fill="none" />
<polyline points="230.5,292.0,214.5,308.0" stroke="black" stroke-width="2" fill="none" />
<polyline points="199.0,284.5,215.0,284.0,230.5,283.5,246.0,283.0,261.5,282.5,277.0,281.5,292.0,280.5" stroke="black" stroke-width="2" fill="none" />
<polyline points="242.0,263.0,225.0,263.0,209.0,263.0" stroke="black" stroke-width="2" fill="none" />
<polyline points="185.5,300.0,201.0,300.0,216.5,299.0,231.0,297.5,245.0,296.5,260.5,295.5,276.5,294.5,292.0,293.5,307.5,293.0,322.5,293.0,338.5,293.0,355.0,293.0,371.5,292.0,389.0,291.5" stroke="black" stroke-width="2" fill="none" />
<polyline points="229.0,199.0,213.0,199.5" stroke="black" stroke-width="2" fill="none" />
<polyline points="172.0,153.0,187.0,152.5,201.5,152.5,215.5,152.5,230.0,152.5,245.5,152.5,260.5,153.0,276.0,153.5" stroke="black" stroke-width="2" fill="none" />
<polyline points="280.0,108.0,264.5,108.5" stroke="black" stroke-width="2" fill="none" />
<polyline points="265.0,96.0,281.0,95.0" stroke="black" stroke-width="2" fill="none" />
<polyline points="293.5,90.0,310.0,90.0,327.0,89.5,343.5,89.5" stroke="black" stroke-width="2" fill="none" />
<polyline points="331.0,71.0,315.0,72.0" stroke="black" stroke-width="2" fill="none" />
<polyline points="265.5,122.0,250.0,123.5,234.0,126.0,217.5,127.0,201.5,128.0" stroke="black" stroke-width="2" fill="none" />
<polyline points="153.5,135.5,137.5,151.5" stroke="black" stroke-width="2" fill="none" />
<polyline points="137.5,148.0,153.0,147.5" stroke="black" stroke-width="2" fill="none" />
<polyline points="117.0,164.0,101.0,179.5" stroke="black" stroke-width="2" fill="none" />
<polyline points="90.0,171.0,105.5,171.0,120.0,171.0,135.5,171.5" stroke="black" stroke-width="2" fill="none" />
<polyline points="153.0,156.0,136.5,156.5,120.5,156.5,104.5,157.0" stroke="black" stroke-width="2" fill="none" />
<polyline points="104.5,140.0,120.0,139.0,135.0,138.0,150.0,138.0" stroke="black" stroke-width="2" fill="none" />
<polyline points="136.5,108.5,153.0,108.0,169.0,107.5" stroke="black" stroke-width="2" fill="none" />
<polyline points="153.0,58.0,137.5,58.0" stroke="black" stroke-width="2" fill="none" />
<polyline points="152.5,72.0,136.5,72.5,120.5,72.5" stroke="black" stroke-width="2" fill="none" />
<polyline points="147.5,92.0,132.0,93.0,116.0,93.5,100.5,93.5,84.5,93.5" stroke="black" stroke-width="2" fill="none" />
<polyline points="103.5,123.0,86.5,124.5,70.5,126.0" stroke="black" stroke-width="2" fill="none" />
<polyline points="57.0,143.0,73.0,142.0,88.0,140.5" stroke="black" stroke-width="2" fill="none" />
<polyline points="71.5,170.5,56.0,170.0" stroke="black" stroke-width="2" fill="none" />
<polyline points="54.5,159.5,71.0,158.0,87.5,157.0" stroke="black" stroke-width="2" fill="none" />
<polyline points="83.0,183.0,67.0,198.5,52.5,215.0,37.5,231.5" stroke="black" stroke-width="2" fill="none" />
<polyline points="44.0,238.0,60.0,237.0,75.0,236.0" stroke="black" stroke-width="2" fill="none" />
<polyline points="89.0,239.5,105.5,239.0,122.0,238.0,138.5,237.0,154.5,236.0,170.0,234.5,186.5,234.0,202.5,233.5,218.5,233.0,234.5,232.5,250.5,231.5,266.5,232.5,282.0,232.0,298.0,231.5,314.0,231.0,330.0,230.0,344.0,230.0,359.0,230.0,373.5,230.0,388.5,229.0,404.0,227.5,420.0,227.5,436.5,226.5,452.5,226.0,468.0,225.5,485.0,224.5,500.0,224.0,516.5,223.5" stroke="black" stroke-width="2" fill="none" />
<polyline points="153.0,217.5,137.5,233.0" stroke="black" stroke-width="2" fill="none" />
<polyline points="119.5,211.0,104.0,226.5" stroke="black" stroke-width="2" fill="none" />
<polyline points="86.5,253.5,103.0,253.0,120.5,252.5,137.0,251.5,153.5,250.5" stroke="black" stroke-width="2" fill="none" />
<polyline points="118.5,269.0,103.5,269.5,88.5,270.0" stroke="black" stroke-width="2" fill="none" />
<polyline points="71.0,211.0,87.5,194.5" stroke="black" stroke-width="2" fill="none" />
<polyline points="68.0,185.5,52.0,201.5" stroke="black" stroke-width="2" fill="none" />
<polyline points="43.0,205.5,59.0,205.0,75.0,204.0,91.0,203.0,106.0,202.5,121.5,201.5,137.0,201.5,152.5,202.0" stroke="black" stroke-width="2" fill="none" />
<polyline points="136.5,188.5,120.5,189.5,105.0,189.5,89.0,189.0,73.0,189.0,57.0,189.5,41.5,189.5" stroke="black" stroke-width="2" fill="none" />
<polyline points="9.0,222.5,24.5,221.5,40.0,220.5,56.0,219.5,71.5,218.0,87.5,217.0,103.5,217.0,120.0,216.5,136.5,216.5,152.5,216.5,168.5,215.5,184.0,215.0,199.0,215.0,215.0,215.0,231.0,213.5,246.5,212.0,262.0,210.5,278.0,209.5,295.0,208.5,311.5,208.0,327.0,207.0" stroke="black" stroke-width="2" fill="none" />
</svg>