<svg xmlns="http://www.w3.org/2000/svg" version="1.1"><polyline points="3.0,6.5,11.0,6.5,18.5,6.0" stroke="black" stroke-width="2" fill="none" />
<polyline points="1.0,12.0,9.5,12.0,18.0,12.0,26.0,11.5,33.5,11.0,41.5,10.0" stroke="black" stroke-width="2" fill="none" />
<polyline points="69.5,6.5,77.5,6.0" stroke="black" stroke-width="2" fill="none" />
<polyline points="75.5,13.0,83.5,12.5" stroke="black" stroke-width="2" fill="none" />
<polyline points="123.0,51.5,131.0,50.5,138.5,50.5,146.5,50.0" stroke="black" stroke-width="2" fill="none" />
<polyline points="148.0,46.5,140.5,46.5,132.5,47.0" stroke="black" stroke-width="2" fill="none" />
<polyline points="124.5,62.5,133.0,62.0,141.0,61.0,149.0,60.0" stroke="black" stroke-width="2" fill="none" />
<polyline points="164.5,70.0,172.5,69.5" stroke="black" stroke-width="2" fill="none" />
<polyline points="157.0,97.0,149.0,104.5" stroke="black" stroke-width="2" fill="none" />
<polyline points="147.5,103.5,156.0,103.0" stroke="black" stroke-width="2" fill="none" />
<polyline points="148.0,99.0,140.0,107.0" stroke="black" stroke-width="2" fill="none" />
<polyline points="133.5,103.0,141.5,102.5,149.0,102.0,157.0,101.5,164.5,101.0" stroke="black" stroke-width="2" fill="none" />
<polyline points="164.5,108.5,156.5,109.5,148.5,109.5" stroke="black" stroke-width="2" fill="none" />
<polyline points="137.5,117.5,145.5,117.0,154.0,117.0,162.5,117.0" stroke="black" stroke-width="2" fill="none" />
<polyline points="156.0,123.0,148.0,130.5,140.0,138.0,132.0,145.5" stroke="black" stroke-width="2" fill="none" />
<polyline points="132.5,146.0,140.0,145.5" stroke="black" stroke-width="2" fill="none" />
<polyline points="146.0,147.5,138.0,155.0" stroke="black" stroke-width="2" fill="none" />
<polyline points="138.5,146.5,146.5,139.0" stroke="black" stroke-width="2" fill="none" />
<polyline points="146.5,125.5,138.5,132.5,130.5,139.5,122.5,146.5" stroke="black" stroke-width="2" fill="none" />
<polyline points="122.5,149.0,130.5,148.5,139.0,147.5,147.0,147.0" stroke="black" stroke-width="2" fill="none" />
<polyline points="140.5,138.5,132.0,138.5" stroke="black" stroke-width="2" fill="none" />
<polyline points="124.5,139.0,133.0,131.0,141.0,123.5" stroke="black" stroke-width="2" fill="none" />
<polyline points="139.5,127.0,147.5,127.0" stroke="black" stroke-width="2" fill="none" />
<polyline points="139.5,98.5,147.5,91.0" stroke="black" stroke-width="2" fill="none" />
<polyline points="139.5,92.0,131.5,100.0" stroke="black" stroke-width="2" fill="none" />
<polyline points="130.5,92.0,122.5,99.5" stroke="black" stroke-width="2" fill="none" />
<polyline points="124.5,94.0,132.0,93.0,140.5,93.0,148.5,92.5" stroke="black" stroke-width="2" fill="none" />
<polyline points="130.5,83.5,122.5,90.5" stroke="black" stroke-width="2" fill="none" />
<polyline points="122.5,84.0,115.0,91.5" stroke="black" stroke-width="2" fill="none" />
<polyline points="113.5,84.5,106.0,91.5" stroke="black" stroke-width="2" fill="none" />
<polyline points="99.5,91.5,107.5,84.5" stroke="black" stroke-width="2" fill="none" />
<polyline points="106.0,77.0,114.0,76.5,122.0,76.0,130.0,75.5,138.0,75.0,146.5,74.5" stroke="black" stroke-width="2" fill="none" />
<polyline points="148.5,69.0,141.0,69.5,133.0,70.5,125.5,71.0" stroke="black" stroke-width="2" fill="none" />
<polyline points="150.0,83.0,141.5,84.0,133.0,84.5,125.5,85.0,117.5,85.0,109.0,85.5,101.0,86.0,93.0,86.5" stroke="black" stroke-width="2" fill="none" />
<polyline points="93.5,91.0,85.0,99.0" stroke="black" stroke-width="2" fill="none" />
<polyline points="76.0,98.5,68.0,106.0" stroke="black" stroke-width="2" fill="none" />
<polyline points="68.5,103.0,76.5,102.5,84.5,102.0,92.0,101.5" stroke="black" stroke-width="2" fill="none" />
<polyline points="93.0,109.0,101.0,108.5" stroke="black" stroke-width="2" fill="none" />
<polyline points="115.0,114.5,123.0,114.0" stroke="black" stroke-width="2" fill="none" />
<polyline points="106.0,126.5,114.0,125.5,123.0,125.0,131.5,124.0,139.5,122.5,148.0,122.0,156.5,121.5,164.5,120.5" stroke="black" stroke-width="2" fill="none" />
<polyline points="187.5,124.5,195.5,124.5" stroke="black" stroke-width="2" fill="none" />
<polyline points="203.0,124.5,211.5,123.5,219.5,122.5,228.0,122.0,236.0,122.0,244.0,121.5,252.5,121.0,261.0,120.5" stroke="black" stroke-width="2" fill="none" />
<polyline points="269.0,125.5,277.5,125.0,285.5,124.0" stroke="black" stroke-width="2" fill="none" />
<polyline points="304.0,124.0,312.5,124.0" stroke="black" stroke-width="2" fill="none" />
<polyline points="316.0,133.0,308.0,133.5" stroke="black" stroke-width="2" fill="none" />
<polyline points="309.0,142.0,316.5,141.5" stroke="black" stroke-width="2" fill="none" />
<polyline points="317.5,148.5,309.0,149.0" stroke="black" stroke-width="2" fill="none" />
<polyline points="315.0,166.0,323.0,166.0,331.5,165.0,339.5,164.5" stroke="black" stroke-width="2" fill="none" />
<polyline points="332.5,164.5,324.5,172.0" stroke="black" stroke-width="2" fill="none" />
<polyline points="332.0,172.5,324.0,179.5" stroke="black" stroke-width="2" fill="none" />
<polyline points="315.5,180.5,323.0,180.0,331.0,179.5,339.0,179.0" stroke="black" stroke-width="2" fill="none" />
<polyline points="348.5,173.0,356.5,172.5,364.0,171.5,371.5,171.0" stroke="black" stroke-width="2" fill="none" />
<polyline points="371.5,180.5,364.0,187.5" stroke="black" stroke-width="2" fill="none" />
<polyline points="363.5,194.5,371.5,186.5" stroke="black" stroke-width="2" fill="none" />
<polyline points="377.0,181.5,385.5,181.0,394.0,180.5,402.5,180.5,411.0,180.0,418.5,179.5,427.0,179.0,435.5,178.5,443.5,178.0,451.0,178.0,458.5,177.5,467.0,177.5,475.5,176.5,483.5,176.0" stroke="black" stroke-width="2" fill="none" />
<polyline points="483.5,197.0,476.0,204.5,468.0,212.0" stroke="black" stroke-width="2" fill="none" />
<polyline points="475.5,213.0,483.5,205.5" stroke="black" stroke-width="2" fill="none" />
<polyline points="482.0,211.5,474.0,218.5" stroke="black" stroke-width="2" fill="none" />
<polyline points="475.0,216.0,483.0,216.0,491.0,216.0" stroke="black" stroke-width="2" fill="none" />
<polyline points="491.0,214.0,483.5,221.0,475.5,227.5" stroke="black" stroke-width="2" fill="none" />
<polyline points="474.5,235.5,483.0,228.0,491.5,220.5,500.0,213.0" stroke="black" stroke-width="2" fill="none" />
<polyline points="499.5,217.5,507.5,217.0" stroke="black" stroke-width="2" fill="none" />
<polyline points="506.0,212.5,498.0,219.5,490.5,226.5" stroke="black" stroke-width="2" fill="none" />
<polyline points="498.0,226.5,506.0,219.5,514.0,212.5" stroke="black" stroke-width="2" fill="none" />
<polyline points="513.5,218.0,505.5,225.5" stroke="black" stroke-width="2" fill="none" />
<polyline points="507.0,226.5,515.0,226.0" stroke="black" stroke-width="2" fill="none" />
<polyline points="514.0,227.5,506.0,235.0" stroke="black" stroke-width="2" fill="none" />
<polyline points="508.0,244.0,516.5,236.5" stroke="black" stroke-width="2" fill="none" />
<polyline points="516.0,245.5,508.0,252.5" stroke="black" stroke-width="2" fill="none" />
<polyline points="506.0,260.5,498.5,268.0,490.0,275.0" stroke="black" stroke-width="2" fill="none" />
<polyline points="493.0,284.0,501.0,277.0,508.0,269.5,516.0,261.5" stroke="black" stroke-width="2" fill="none" />
<polyline points="516.5,269.5,508.5,277.0" stroke="black" stroke-width="2" fill="none" />
<polyline points="508.5,275.5,516.5,275.0" stroke="black" stroke-width="2" fill="none" />
<polyline points="516.5,276.0,508.5,284.0" stroke="black" stroke-width="2" fill="none" />
<polyline points="508.0,293.5,516.5,293.0" stroke="black" stroke-width="2" fill="none" />
<polyline points="498.5,307.0,490.5,307.5" stroke="black" stroke-width="2" fill="none" />
<polyline points="490.0,317.5,498.0,316.5" stroke="black" stroke-width="2" fill="none" />
<polyline points="493.0,325.0,485.0,333.0" stroke="black" stroke-width="2" fill="none" />
<polyline points="482.0,333.0,490.5,332.5,499.0,332.0,507.0,331.5,515.0,330.5" stroke="black" stroke-width="2" fill="none" />
<polyline points="517.5,332.0,509.0,339.5" stroke="black" stroke-width="2" fill="none" />
<polyline points="505.5,332.0,497.5,339.5" stroke="black" stroke-width="2" fill="none" />
<polyline points="500.5,339.0,508.5,338.0,517.0,336.5" stroke="black" stroke-width="2" fill="none" />
<polyline points="497.5,332.5,490.0,340.0" stroke="black" stroke-width="2" fill="none" />
<polyline points="481.5,324.0,474.0,331.5" stroke="black" stroke-width="2" fill="none" />
<polyline points="469.5,331.0,477.5,324.0" stroke="black" stroke-width="2" fill="none" />
<polyline points="474.5,309.5,482.0,309.0" stroke="black" stroke-width="2" fill="none" />
<polyline points="481.5,300.5,474.0,301.0" stroke="black" stroke-width="2" fill="none" />
<polyline points="475.0,293.0,483.0,292.5" stroke="black" stroke-width="2" fill="none" />
<polyline points="490.5,284.5,499.0,284.5,507.5,283.5,515.5,283.0" stroke="black" stroke-width="2" fill="none" />
<polyline points="497.5,259.5,489.5,267.5" stroke="black" stroke-width="2" fill="none" />
<polyline points="491.5,261.5,483.5,269.5" stroke="black" stroke-width="2" fill="none" />
<polyline points="476.5,275.0,468.5,283.5" stroke="black" stroke-width="2" fill="none" />
<polyline points="467.5,285.5,475.5,284.5,483.5,284.0" stroke="black" stroke-width="2" fill="none" />
<polyline points="468.5,267.5,477.0,260.0" stroke="black" stroke-width="2" fill="none" />
<polyline points="467.0,258.5,459.5,266.0" stroke="black" stroke-width="2" fill="none" />
<polyline points="450.0,264.0,458.0,256.5,466.0,248.5,474.5,240.5,483.0,232.5" stroke="black" stroke-width="2" fill="none" />
<polyline points="490.5,236.5,498.5,236.0,507.0,236.0,515.5,236.0" stroke="black" stroke-width="2" fill="none" />
<polyline points="515.0,242.5,507.5,242.5,500.0,242.5,492.0,243.5" stroke="black" stroke-width="2" fill="none" />
<polyline points="468.0,243.0,459.5,250.5,451.5,258.0,443.0,265.5" stroke="black" stroke-width="2" fill="none" />
<polyline points="443.0,258.5,450.5,250.5,459.0,243.5" stroke="black" stroke-width="2" fill="none" />
<polyline points="451.5,242.5,443.5,250.5,435.5,258.0" stroke="black" stroke-width="2" fill="none" />
<polyline points="436.5,252.5,428.5,260.0" stroke="black" stroke-width="2" fill="none" />
<polyline points="426.5,251.0,435.0,243.5" stroke="black" stroke-width="2" fill="none" />
<polyline points="427.5,219.5,435.5,212.0" stroke="black" stroke-width="2" fill="none" />
<polyline points="396.0,210.5,388.0,218.0" stroke="black" stroke-width="2" fill="none" />
<polyline points="395.5,219.5,387.0,226.5" stroke="black" stroke-width="2" fill="none" />
<polyline points="396.5,261.5,404.0,261.0,412.0,260.0,420.0,259.5,428.5,259.5,436.5,259.0,444.0,258.0,452.5,258.0,460.0,257.5,467.5,257.0,475.0,256.5,483.5,256.0,492.0,256.0,500.0,256.0,507.5,255.0,516.0,254.5" stroke="black" stroke-width="2" fill="none" />
<polyline points="452.0,314.0,444.5,321.5" stroke="black" stroke-width="2" fill="none" />
<polyline points="445.0,315.5,437.0,323.0" stroke="black" stroke-width="2" fill="none" />
<polyline points="451.0,327.5,459.0,327.0,467.0,326.0,475.0,325.0,483.5,324.5,491.5,324.0,499.5,323.5,507.5,323.0,515.5,323.0" stroke="black" stroke-width="2" fill="none" />
<polyline points="413.0,330.5,405.0,338.0" stroke="black" stroke-width="2" fill="none" />
<polyline points="404.0,337.0,412.0,336.5" stroke="black" stroke-width="2" fill="none" />
<polyline points="401.5,331.0,393.5,338.5" stroke="black" stroke-width="2" fill="none" />
<polyline points="394.0,330.0,402.5,323.0" stroke="black" stroke-width="2" fill="none" />
<polyline points="409.0,317.5,417.5,317.0,425.5,316.5,434.0,315.5,442.0,315.5,450.5,314.5,458.5,313.5,467.0,312.5,475.0,312.0,482.5,311.5" stroke="black" stroke-width="2" fill="none" />
<polyline points="413.5,307.0,405.0,314.5" stroke="black" stroke-width="2" fill="none" />
<polyline points="404.5,306.5,396.0,314.0" stroke="black" stroke-width="2" fill="none" />
<polyline points="394.0,324.0,386.0,331.5" stroke="black" stroke-width="2" fill="none" />
<polyline points="372.0,323.5,364.0,331.0,356.5,338.5" stroke="black" stroke-width="2" fill="none" />
<polyline points="354.5,333.0,346.5,340.5" stroke="black" stroke-width="2" fill="none" />
<polyline points="338.5,330.0,347.0,322.5" stroke="black" stroke-width="2" fill="none" />
<polyline points="354.5,308.0,362.5,300.5" stroke="black" stroke-width="2" fill="none" />
<polyline points="354.5,298.5,346.5,306.5" stroke="black" stroke-width="2" fill="none" />
<polyline points="347.0,298.5,338.5,306.0" stroke="black" stroke-width="2" fill="none" />
<polyline points="330.5,314.0,323.0,322.0,315.0,330.0" stroke="black" stroke-width="2" fill="none" />
<polyline points="322.5,332.5,330.5,325.0" stroke="black" stroke-width="2" fill="none" />
<polyline points="314.5,316.5,322.5,316.5,330.5,316.0,339.0,316.0,347.5,315.0,356.0,314.5,364.5,314.5,372.0,314.5,380.5,314.5,388.5,314.0,396.5,314.0,404.5,313.5" stroke="black" stroke-width="2" fill="none" />
<polyline points="389.0,306.5,381.0,314.0" stroke="black" stroke-width="2" fill="none" />
<polyline points="381.5,307.0,374.0,314.5,365.5,322.5" stroke="black" stroke-width="2" fill="none" />
<polyline points="362.0,315.0,369.5,308.0" stroke="black" stroke-width="2" fill="none" />
<polyline points="370.5,285.5,379.0,285.5,387.0,284.5" stroke="black" stroke-width="2" fill="none" />
<polyline points="385.5,275.5,377.5,276.0" stroke="black" stroke-width="2" fill="none" />
<polyline points="405.0,278.5,412.5,278.0,420.0,277.0,428.0,276.0,435.5,275.5,443.5,274.5,451.0,274.0,458.5,273.5,466.5,273.0,474.5,272.0,483.0,271.0,491.0,271.0,499.0,271.0,507.0,271.0,515.0,271.0" stroke="black" stroke-width="2" fill="none" />
<polyline points="483.5,172.5,475.5,173.0,467.5,173.0,459.5,173.5" stroke="black" stroke-width="2" fill="none" />
<polyline points="458.5,165.0,467.0,164.5,475.0,164.5,483.5,164.0" stroke="black" stroke-width="2" fill="none" />
<polyline points="476.5,148.0,468.0,148.5,459.5,149.5" stroke="black" stroke-width="2" fill="none" />
<polyline points="450.0,142.5,458.0,142.0,466.5,141.5,475.0,141.0" stroke="black" stroke-width="2" fill="none" />
<polyline points="459.5,133.0,451.5,133.0" stroke="black" stroke-width="2" fill="none" />
<polyline points="452.0,124.0,460.0,123.5" stroke="black" stroke-width="2" fill="none" />
<polyline points="430.0,123.5,422.0,131.0" stroke="black" stroke-width="2" fill="none" />
<polyline points="413.0,130.5,421.5,122.5,429.5,115.0" stroke="black" stroke-width="2" fill="none" />
<polyline points="429.5,107.0,422.0,115.0,413.5,123.0" stroke="black" stroke-width="2" fill="none" />
<polyline points="411.0,125.5,418.5,125.0,426.5,125.0,434.5,125.0,442.5,125.0" stroke="black" stroke-width="2" fill="none" />
<polyline points="429.0,98.0,421.0,105.5,413.0,113.5" stroke="black" stroke-width="2" fill="none" />
<polyline points="404.5,118.0,412.5,117.5,421.0,116.5,428.5,116.0,436.0,116.0,443.5,116.0,452.0,115.5" stroke="black" stroke-width="2" fill="none" />
<polyline points="481.5,100.5,490.0,100.0" stroke="black" stroke-width="2" fill="none" />
<polyline points="497.5,102.5,505.5,102.0,513.5,101.0" stroke="black" stroke-width="2" fill="none" />
<polyline points="515.5,110.5,507.0,111.0" stroke="black" stroke-width="2" fill="none" />
<polyline points="506.0,117.5,497.5,118.0" stroke="black" stroke-width="2" fill="none" />
<polyline points="482.5,92.5,490.0,92.0,498.0,91.5,506.0,92.0,515.0,92.0" stroke="black" stroke-width="2" fill="none" />
<polyline points="514.5,84.5,506.0,85.0,497.5,85.0" stroke="black" stroke-width="2" fill="none" />
<polyline points="499.5,78.5,507.5,78.0,515.5,77.0" stroke="black" stroke-width="2" fill="none" />
<polyline points="517.5,69.0,509.5,70.0,502.0,71.0" stroke="black" stroke-width="2" fill="none" />
<polyline points="500.5,61.5,508.5,60.5,516.0,60.0" stroke="black" stroke-width="2" fill="none" />
<polyline points="515.5,52.5,507.5,53.0,499.5,53.0" stroke="black" stroke-width="2" fill="none" />
<polyline points="516.0,44.0,508.0,44.0,499.5,43.5,492.0,43.5,485.0,43.5,477.0,43.5" stroke="black" stroke-width="2" fill="none" />
<polyline points="481.5,29.5,489.5,29.0,498.5,28.5,507.0,28.0,515.5,27.0" stroke="black" stroke-width="2" fill="none" />
<polyline points="475.0,61.5,467.0,62.5,458.5,63.0" stroke="black" stroke-width="2" fill="none" />
<polyline points="459.0,69.5,467.5,69.0" stroke="black" stroke-width="2" fill="none" />
<polyline points="460.0,53.5,468.0,53.0,476.0,52.0" stroke="black" stroke-width="2" fill="none" />
<polyline points="469.5,44.0,461.5,44.5" stroke="black" stroke-width="2" fill="none" />
<polyline points="452.0,37.0,459.0,36.5,467.0,35.5,474.5,35.0,482.5,35.0,490.5,34.5,497.5,34.0,505.0,33.5,513.0,34.0" stroke="black" stroke-width="2" fill="none" />
<polyline points="475.5,28.0,467.5,28.5,459.5,29.5,452.0,30.0" stroke="black" stroke-width="2" fill="none" />
<polyline points="442.0,22.0,450.0,22.0,458.0,21.5,466.0,20.5,474.0,19.5,482.5,18.5,491.0,18.5,499.0,18.5,507.5,18.5,515.5,18.0" stroke="black" stroke-width="2" fill="none" />
<polyline points="516.5,8.5,509.0,8.5,500.5,9.0,492.5,10.0,484.0,10.5,475.5,11.0,467.5,12.0,459.5,13.0,451.5,13.5,443.0,14.5,434.5,14.5" stroke="black" stroke-width="2" fill="none" />
<polyline points="435.0,5.0,443.5,4.5,451.5,4.0,460.0,3.0,468.0,2.0,476.5,1.5,484.0,1.5,492.0,1.0,500.0,1.0,507.0,0.5,515.5,0.0" stroke="black" stroke-width="2" fill="none" />
<polyline points="443.0,68.5,435.0,69.0,427.0,69.5,419.0,70.0" stroke="black" stroke-width="2" fill="none" />
<polyline points="411.5,62.5,419.5,61.5,427.5,60.5,435.5,60.0,443.5,59.0" stroke="black" stroke-width="2" fill="none" />
<polyline points="442.5,76.0,435.0,77.0,427.0,77.5" stroke="black" stroke-width="2" fill="none" />
<polyline points="434.5,86.5,442.0,86.0,450.0,85.5" stroke="black" stroke-width="2" fill="none" />
<polyline points="443.5,51.5,435.5,52.5,427.0,53.5,419.5,54.5,411.5,55.5" stroke="black" stroke-width="2" fill="none" />
<polyline points="412.0,46.0,420.0,45.5,427.5,45.0,435.0,44.5,442.5,43.5" stroke="black" stroke-width="2" fill="none" />
<polyline points="434.0,29.0,425.5,29.0,417.5,29.0" stroke="black" stroke-width="2" fill="none" />
<polyline points="412.0,37.0,420.0,36.5,428.0,36.5,435.5,36.0,443.0,35.0" stroke="black" stroke-width="2" fill="none" />
<polyline points="396.5,50.5,388.5,58.0" stroke="black" stroke-width="2" fill="none" />
<polyline points="387.5,65.0,395.5,65.0" stroke="black" stroke-width="2" fill="none" />
<polyline points="395.5,67.0,387.0,74.5" stroke="black" stroke-width="2" fill="none" />
<polyline points="389.0,75.5,397.0,75.0" stroke="black" stroke-width="2" fill="none" />
<polyline points="404.5,75.0,396.5,82.5" stroke="black" stroke-width="2" fill="none" />
<polyline points="397.0,82.0,389.0,82.5" stroke="black" stroke-width="2" fill="none" />
<polyline points="387.0,82.5,395.5,75.5,403.5,68.5" stroke="black" stroke-width="2" fill="none" />
<polyline points="395.5,60.0,387.5,67.5" stroke="black" stroke-width="2" fill="none" />
<polyline points="379.0,71.5,387.0,71.5,395.5,71.0,403.5,70.5" stroke="black" stroke-width="2" fill="none" />
<polyline points="404.5,95.5,413.0,94.5,420.5,93.0,428.5,92.0,436.5,91.0,444.5,90.5,452.5,90.0" stroke="black" stroke-width="2" fill="none" />
<polyline points="450.5,107.0,442.0,107.5,434.5,107.5,426.5,108.0,419.0,108.5,411.0,108.5,403.5,109.0" stroke="black" stroke-width="2" fill="none" />
<polyline points="403.5,100.5,411.5,100.0,419.5,100.0,427.0,99.5,434.5,99.0,442.5,98.5" stroke="black" stroke-width="2" fill="none" />
<polyline points="427.0,141.5,418.5,142.5,410.0,143.0" stroke="black" stroke-width="2" fill="none" />
<polyline points="411.5,155.5,403.5,163.5,395.0,171.0" stroke="black" stroke-width="2" fill="none" />
<polyline points="394.0,172.0,402.5,171.0,411.0,170.5,419.0,170.0,427.0,169.5,434.5,169.0,442.5,169.5,451.0,170.0" stroke="black" stroke-width="2" fill="none" />
<polyline points="426.0,157.0,434.0,156.0,442.5,155.5,450.5,155.0,458.5,154.5,466.0,154.0,474.5,153.5" stroke="black" stroke-width="2" fill="none" />
<polyline points="412.5,169.5,404.5,177.5,396.0,185.0" stroke="black" stroke-width="2" fill="none" />
<polyline points="405.0,185.5,413.0,178.0" stroke="black" stroke-width="2" fill="none" />
<polyline points="411.0,164.5,403.0,172.0,395.5,179.0" stroke="black" stroke-width="2" fill="none" />
<polyline points="397.0,168.0,405.0,167.5,412.5,167.0" stroke="black" stroke-width="2" fill="none" />
<polyline points="412.0,162.0,404.5,162.5" stroke="black" stroke-width="2" fill="none" />
<polyline points="403.5,155.5,395.5,163.0" stroke="black" stroke-width="2" fill="none" />
<polyline points="388.5,164.5,396.0,164.0,404.0,164.0,411.5,164.0,419.5,164.5,427.5,164.5,435.5,163.5,443.0,162.5,451.0,162.0" stroke="black" stroke-width="2" fill="none" />
<polyline points="420.5,147.5,412.0,147.5,404.0,148.5,396.5,149.0" stroke="black" stroke-width="2" fill="none" />
<polyline points="397.0,141.5,405.0,141.5" stroke="black" stroke-width="2" fill="none" />
<polyline points="397.0,132.5,405.0,132.0,413.0,132.0,420.5,132.0,427.5,132.0,435.0,132.0,442.0,131.0" stroke="black" stroke-width="2" fill="none" />
<polyline points="421.5,155.0,413.5,156.5,405.0,157.5,397.0,158.0,388.5,158.5" stroke="black" stroke-width="2" fill="none" />
<polyline points="386.0,132.5,378.0,133.0,370.0,133.5" stroke="black" stroke-width="2" fill="none" />
<polyline points="370.0,124.5,378.5,124.5,386.5,124.0" stroke="black" stroke-width="2" fill="none" />
<polyline points="373.0,117.0,381.5,109.5" stroke="black" stroke-width="2" fill="none" />
<polyline points="388.5,115.0,380.5,115.5,372.5,116.0" stroke="black" stroke-width="2" fill="none" />
<polyline points="363.5,109.5,371.5,109.5,379.5,109.5,387.5,109.0" stroke="black" stroke-width="2" fill="none" />
<polyline points="387.0,99.5,379.5,100.0,371.5,100.5" stroke="black" stroke-width="2" fill="none" />
<polyline points="378.0,86.0,386.0,85.5" stroke="black" stroke-width="2" fill="none" />
<polyline points="378.5,79.0,386.0,78.5,394.5,77.5,402.5,77.0" stroke="black" stroke-width="2" fill="none" />
<polyline points="404.5,60.5,396.5,61.0,387.5,61.0,380.0,61.5" stroke="black" stroke-width="2" fill="none" />
<polyline points="380.5,55.0,388.5,54.5,395.5,53.5,403.0,53.0" stroke="black" stroke-width="2" fill="none" />
<polyline points="362.0,76.0,354.0,83.5,346.0,90.5" stroke="black" stroke-width="2" fill="none" />
<polyline points="348.5,92.0,356.5,92.0" stroke="black" stroke-width="2" fill="none" />
<polyline points="353.5,90.5,361.5,82.5" stroke="black" stroke-width="2" fill="none" />
<polyline points="363.0,83.0,354.5,84.0,346.5,84.5" stroke="black" stroke-width="2" fill="none" />
<polyline points="346.5,75.5,354.5,75.0,362.5,75.5" stroke="black" stroke-width="2" fill="none" />
<polyline points="364.0,61.0,355.5,61.5" stroke="black" stroke-width="2" fill="none" />
<polyline points="349.0,68.0,356.5,67.5,364.5,67.5" stroke="black" stroke-width="2" fill="none" />
<polyline points="374.0,52.5,365.5,53.5,357.0,54.0,348.5,55.0" stroke="black" stroke-width="2" fill="none" />
<polyline points="356.0,48.0,363.5,47.5,371.5,47.0,379.5,46.5,387.0,46.0" stroke="black" stroke-width="2" fill="none" />
<polyline points="333.5,76.5,325.5,84.0,317.0,91.0" stroke="black" stroke-width="2" fill="none" />
<polyline points="313.0,95.0,321.5,94.5,329.5,94.0" stroke="black" stroke-width="2" fill="none" />
<polyline points="333.0,94.0,325.0,101.0" stroke="black" stroke-width="2" fill="none" />
<polyline points="324.5,91.5,332.5,84.0" stroke="black" stroke-width="2" fill="none" />
<polyline points="331.0,68.0,323.0,68.0,314.5,68.0" stroke="black" stroke-width="2" fill="none" />
<polyline points="309.0,91.0,301.5,91.0,293.5,92.0" stroke="black" stroke-width="2" fill="none" />
<polyline points="299.5,92.0,291.5,99.0" stroke="black" stroke-width="2" fill="none" />
<polyline points="291.5,102.0,299.5,101.0" stroke="black" stroke-width="2" fill="none" />
<polyline points="299.5,97.5,291.0,105.0" stroke="black" stroke-width="2" fill="none" />
<polyline points="306.0,115.5,313.5,115.0" stroke="black" stroke-width="2" fill="none" />
<polyline points="330.0,117.5,338.0,116.5,346.5,116.5,355.0,116.0" stroke="black" stroke-width="2" fill="none" />
<polyline points="346.5,115.0,339.0,122.5" stroke="black" stroke-width="2" fill="none" />
<polyline points="348.0,123.5,340.5,131.5" stroke="black" stroke-width="2" fill="none" />
<polyline points="329.5,132.5,338.0,132.0,346.5,132.0,355.0,131.5" stroke="black" stroke-width="2" fill="none" />
<polyline points="354.5,156.5,362.5,155.5,370.5,155.0" stroke="black" stroke-width="2" fill="none" />
<polyline points="371.0,165.5,363.5,166.0,355.5,166.5" stroke="black" stroke-width="2" fill="none" />
<polyline points="355.0,183.0,363.0,182.0,371.0,181.5" stroke="black" stroke-width="2" fill="none" />
<polyline points="355.0,191.0,363.0,190.5,371.5,189.5,379.5,189.0,388.0,188.0,396.0,187.0,404.0,186.5,412.5,186.5,420.5,186.0,428.5,186.0,437.0,185.5,444.5,185.0,452.0,184.0,460.0,183.0,467.5,182.5,475.5,181.5,483.0,181.0" stroke="black" stroke-width="2" fill="none" />
<polyline points="506.0,195.5,498.0,196.0,490.0,196.5,482.5,197.5,475.0,198.0,467.0,198.0,459.5,199.0,452.0,199.5,444.0,199.5,436.0,200.0,428.0,200.5,420.0,201.5,412.0,202.5,403.5,203.0,395.5,204.0,387.5,204.5,379.5,204.5,371.5,205.0,363.0,205.0,355.5,205.5" stroke="black" stroke-width="2" fill="none" />
<polyline points="357.0,198.0,365.0,198.0,373.0,198.0,380.5,197.5,388.5,196.5,396.0,195.5,403.5,195.0,411.5,194.5,419.5,193.5,428.0,192.5,436.0,192.0,444.0,191.5,452.0,191.0,460.0,190.5,467.5,190.5,476.0,190.0,483.5,189.5" stroke="black" stroke-width="2" fill="none" />
<polyline points="514.5,258.5,507.5,259.0,499.5,259.0,491.5,260.0,483.0,261.0,475.0,261.5,467.5,262.5,459.5,263.5,451.5,263.5,443.5,263.0,436.0,263.0,428.0,263.0,420.5,263.5,412.0,264.0,404.5,264.5,396.5,265.5,388.5,266.0,380.5,266.5,372.0,267.5,363.5,268.5,356.0,269.5,348.5,270.5,341.0,271.0" stroke="black" stroke-width="2" fill="none" />
<polyline points="337.5,254.5,346.0,254.0,354.0,254.0,362.5,253.5,371.0,253.0,380.0,252.0,388.0,251.5,396.5,251.0,404.5,250.5,412.5,250.0,420.5,249.5,429.0,249.0,437.0,248.5,445.5,247.5,453.5,246.0,461.0,245.5,469.0,244.5,476.5,244.5,484.5,243.5,492.0,242.5,500.0,242.0,508.0,241.5,515.5,241.5" stroke="black" stroke-width="2" fill="none" />
<polyline points="484.0,228.0,476.5,228.5,469.0,229.0,460.5,229.5,453.0,230.0,445.0,231.0,437.0,232.0,429.0,233.0,421.0,233.5,412.5,234.0,404.0,234.5,396.0,234.5,387.5,235.0,379.0,235.0,371.0,236.0,363.0,237.0,355.0,237.5,347.0,238.0,338.5,238.5" stroke="black" stroke-width="2" fill="none" />
<polyline points="332.5,243.0,324.5,250.0" stroke="black" stroke-width="2" fill="none" />
<polyline points="324.5,244.5,316.5,252.0" stroke="black" stroke-width="2" fill="none" />
<polyline points="316.5,243.5,324.0,236.0" stroke="black" stroke-width="2" fill="none" />
<polyline points="316.0,235.5,308.0,243.5" stroke="black" stroke-width="2" fill="none" />
<polyline points="308.0,234.0,316.5,226.5" stroke="black" stroke-width="2" fill="none" />
<polyline points="316.5,224.0,309.0,224.5" stroke="black" stroke-width="2" fill="none" />
<polyline points="315.5,218.0,307.0,225.5,299.5,233.0" stroke="black" stroke-width="2" fill="none" />
<polyline points="299.5,220.5,307.0,220.0,315.0,220.0,323.0,220.0" stroke="black" stroke-width="2" fill="none" />
<polyline points="332.0,220.0,340.0,220.0,348.0,219.5,355.5,219.0,363.5,219.5,371.5,219.0,379.0,218.5,386.0,218.0,393.5,217.5,401.5,217.5,409.0,216.5,417.5,216.0,426.0,215.5,434.5,215.5,443.0,215.0,450.5,214.5,459.0,214.0,467.5,213.5,475.5,213.0,483.0,213.0,490.5,212.5,499.0,212.5,507.5,211.5,515.5,211.0" stroke="black" stroke-width="2" fill="none" />
<polyline points="515.5,202.5,507.5,203.5,500.0,204.0,491.5,204.5,484.0,204.5,476.0,205.0,468.5,206.0,461.0,207.0,453.0,207.5,445.0,208.5,436.5,209.5,429.0,210.0,421.0,210.5,413.0,211.0,405.5,211.5,397.0,211.5,389.0,211.5,380.5,211.5,372.5,212.0,364.0,212.5,355.5,213.0,346.5,214.0,338.0,214.5" stroke="black" stroke-width="2" fill="none" />
<polyline points="331.5,227.5,339.5,227.0,348.0,226.5,356.0,226.0,363.5,226.0,371.0,225.5,379.0,225.0,386.5,224.5,394.0,224.0,401.5,223.0,409.5,223.0,417.5,222.5,426.0,222.5,433.5,222.5,441.0,222.5,449.0,222.0,457.0,222.5,465.0,222.5,473.5,221.5,482.0,221.0,490.5,220.5,498.0,220.0,506.0,219.5,515.0,219.0" stroke="black" stroke-width="2" fill="none" />
<polyline points="353.5,139.5,346.0,139.5,338.0,140.0,330.0,140.0" stroke="black" stroke-width="2" fill="none" />
<polyline points="330.5,126.0,339.0,126.0,347.0,125.5,355.5,125.5" stroke="black" stroke-width="2" fill="none" />
<polyline points="347.0,108.5,339.0,108.5" stroke="black" stroke-width="2" fill="none" />
<polyline points="330.5,82.0,323.0,82.5,315.5,83.5,308.0,84.0,300.5,84.5,293.0,84.5" stroke="black" stroke-width="2" fill="none" />
<polyline points="291.5,78.0,300.0,77.5,308.0,77.0,315.5,76.5,322.5,76.0,330.5,76.0" stroke="black" stroke-width="2" fill="none" />
<polyline points="275.5,109.0,267.5,109.0,259.5,109.5" stroke="black" stroke-width="2" fill="none" />
<polyline points="259.5,102.0,267.5,101.5,276.0,101.0" stroke="black" stroke-width="2" fill="none" />
<polyline points="275.5,92.5,267.5,93.0,260.0,93.5" stroke="black" stroke-width="2" fill="none" />
<polyline points="258.5,86.5,266.5,86.0,274.5,86.0" stroke="black" stroke-width="2" fill="none" />
<polyline points="251.0,131.0,242.5,138.5" stroke="black" stroke-width="2" fill="none" />
<polyline points="243.5,132.0,235.5,139.5,227.0,146.5,219.0,153.5,210.5,161.0" stroke="black" stroke-width="2" fill="none" />
<polyline points="202.5,162.0,211.0,154.0,219.5,146.0,227.5,138.0,235.5,130.5" stroke="black" stroke-width="2" fill="none" />
<polyline points="221.5,130.0,213.0,138.0,204.5,145.5,195.5,153.0,187.0,160.5" stroke="black" stroke-width="2" fill="none" />
<polyline points="189.0,168.0,197.0,160.5,205.0,153.0,212.5,146.0,220.0,138.5" stroke="black" stroke-width="2" fill="none" />
<polyline points="220.0,123.0,212.0,131.0,204.0,139.0,196.0,147.0,188.0,154.5" stroke="black" stroke-width="2" fill="none" />
<polyline points="187.0,148.5,195.5,141.0" stroke="black" stroke-width="2" fill="none" />
<polyline points="186.5,132.5,194.5,131.5,203.0,131.0,211.5,130.5,220.0,130.0,228.5,130.0,236.5,130.0,244.5,130.5,252.0,130.0,260.0,129.5,268.5,129.0,276.5,128.5,285.0,128.0" stroke="black" stroke-width="2" fill="none" />
<polyline points="267.5,139.5,259.0,147.0,251.0,154.5,243.5,162.0" stroke="black" stroke-width="2" fill="none" />
<polyline points="244.5,169.5,252.5,161.5,260.5,153.5,268.5,146.0" stroke="black" stroke-width="2" fill="none" />
<polyline points="267.0,154.5,259.5,162.0" stroke="black" stroke-width="2" fill="none" />
<polyline points="259.0,174.0,266.5,173.5,274.5,173.0" stroke="black" stroke-width="2" fill="none" />
<polyline points="284.5,173.5,292.0,173.0,300.0,172.0,308.0,171.0" stroke="black" stroke-width="2" fill="none" />
<polyline points="314.5,174.5,322.5,174.0,330.5,173.5,338.5,172.5" stroke="black" stroke-width="2" fill="none" />
<polyline points="338.5,195.0,331.0,195.5,323.5,196.0,316.0,196.5" stroke="black" stroke-width="2" fill="none" />
<polyline points="314.0,188.5,322.0,187.5,329.5,187.5,337.5,187.0" stroke="black" stroke-width="2" fill="none" />
<polyline points="300.5,171.0,292.0,178.5" stroke="black" stroke-width="2" fill="none" />
<polyline points="284.5,179.0,292.0,178.5,300.0,178.5,307.5,178.5" stroke="black" stroke-width="2" fill="none" />
<polyline points="308.5,164.0,300.5,164.5,292.5,165.0" stroke="black" stroke-width="2" fill="none" />
<polyline points="290.5,159.5,298.0,159.0,306.0,158.0" stroke="black" stroke-width="2" fill="none" />
<polyline points="307.5,187.5,299.5,188.5,291.5,189.5,283.5,190.0" stroke="black" stroke-width="2" fill="none" />
<polyline points="282.0,199.5,290.0,199.0,297.5,197.5" stroke="black" stroke-width="2" fill="none" />
<polyline points="299.0,212.5,307.0,211.5,315.5,211.5,324.0,211.0" stroke="black" stroke-width="2" fill="none" />
<polyline points="290.0,213.0,282.0,213.5" stroke="black" stroke-width="2" fill="none" />
<polyline points="274.5,218.5,267.0,226.0" stroke="black" stroke-width="2" fill="none" />
<polyline points="268.5,220.0,260.5,227.5,252.5,235.0,244.0,242.0" stroke="black" stroke-width="2" fill="none" />
<polyline points="245.0,233.5,252.5,233.0" stroke="black" stroke-width="2" fill="none" />
<polyline points="259.0,242.0,267.0,234.0,275.0,226.5" stroke="black" stroke-width="2" fill="none" />
<polyline points="282.0,228.0,274.0,235.5,266.5,243.0" stroke="black" stroke-width="2" fill="none" />
<polyline points="268.5,243.0,276.5,242.5" stroke="black" stroke-width="2" fill="none" />
<polyline points="282.5,242.5,274.5,250.5" stroke="black" stroke-width="2" fill="none" />
<polyline points="274.5,243.5,282.5,235.5" stroke="black" stroke-width="2" fill="none" />
<polyline points="277.5,234.0,269.5,234.0" stroke="black" stroke-width="2" fill="none" />
<polyline points="267.0,210.0,258.5,217.5,251.0,225.0,243.5,232.5,235.5,239.5" stroke="black" stroke-width="2" fill="none" />
<polyline points="235.0,235.5,226.5,243.0" stroke="black" stroke-width="2" fill="none" />
<polyline points="227.0,253.0,219.0,254.0" stroke="black" stroke-width="2" fill="none" />
<polyline points="217.5,247.5,226.0,246.5,234.5,245.5,243.0,244.5,251.5,243.5,260.0,243.0,268.0,242.5,276.5,242.0,284.5,241.0,293.0,240.0,301.0,239.5,308.5,239.5,316.0,239.0,323.5,238.5,331.0,237.5,338.5,237.0,346.5,237.0,354.0,237.0,362.5,237.0,370.5,236.5,378.5,236.5,387.0,236.0,395.0,235.5,403.0,235.0,411.0,234.0,419.0,233.0,427.5,233.0,436.0,232.5,444.0,232.5,452.5,232.0,461.0,231.5,469.0,231.0,477.0,230.0,485.0,229.0" stroke="black" stroke-width="2" fill="none" />
<polyline points="307.5,269.0,299.5,269.5" stroke="black" stroke-width="2" fill="none" />
<polyline points="300.5,262.0,308.0,261.0,315.5,260.0,323.0,259.5,331.0,259.5,338.5,259.0,347.0,258.5" stroke="black" stroke-width="2" fill="none" />
<polyline points="308.5,293.0,300.0,301.0,292.0,308.0,283.5,314.5,276.0,321.0" stroke="black" stroke-width="2" fill="none" />
<polyline points="275.5,329.0,283.5,322.0,292.0,314.5,299.5,307.0,307.5,299.5" stroke="black" stroke-width="2" fill="none" />
<polyline points="301.5,293.5,294.0,300.5,286.0,308.0,277.5,315.5" stroke="black" stroke-width="2" fill="none" />
<polyline points="267.0,314.0,275.5,306.5,283.0,299.0,291.5,291.5" stroke="black" stroke-width="2" fill="none" />
<polyline points="282.0,290.5,274.5,297.5" stroke="black" stroke-width="2" fill="none" />
<polyline points="278.0,299.0,286.0,298.5,293.5,298.0,300.5,297.5,308.0,296.5" stroke="black" stroke-width="2" fill="none" />
<polyline points="301.0,303.0,292.5,303.5" stroke="black" stroke-width="2" fill="none" />
<polyline points="307.5,313.5,299.5,321.5,292.0,329.5" stroke="black" stroke-width="2" fill="none" />
<polyline points="291.5,325.5,283.5,332.5,276.0,339.5" stroke="black" stroke-width="2" fill="none" />
<polyline points="268.5,327.0,277.0,326.0,285.0,325.5,293.5,325.0,301.0,325.0,309.0,324.5,316.0,323.5,323.5,322.0,331.0,321.5,338.5,321.0,346.0,320.5,354.0,319.5,362.5,319.5,371.0,319.0,379.5,318.5,388.0,318.0,396.0,317.5,404.0,317.0,411.5,316.5,419.5,316.0" stroke="black" stroke-width="2" fill="none" />
<polyline points="276.5,291.0,268.5,298.5,260.5,306.0,252.0,314.5" stroke="black" stroke-width="2" fill="none" />
<polyline points="258.5,314.0,266.0,306.0" stroke="black" stroke-width="2" fill="none" />
<polyline points="252.5,306.5,261.0,298.5,269.5,290.0" stroke="black" stroke-width="2" fill="none" />
<polyline points="268.5,276.5,260.5,284.0,252.5,291.0,244.5,299.0,236.5,306.5,228.0,314.0,220.0,321.0" stroke="black" stroke-width="2" fill="none" />
<polyline points="219.0,326.0,227.0,325.5,234.5,325.0,242.0,325.0,250.5,325.5,258.5,325.0" stroke="black" stroke-width="2" fill="none" />
<polyline points="261.0,332.5,269.5,332.0,277.5,331.5,285.5,331.0,293.0,330.5,300.5,330.0,308.5,329.5,316.0,329.0,323.5,328.5,331.0,328.0,339.5,327.5,347.0,327.0,355.0,326.5,363.0,326.0,371.5,325.0,379.5,324.5,387.5,324.0,395.5,324.0,403.0,323.5,410.5,323.0,418.0,322.5,426.5,322.5" stroke="black" stroke-width="2" fill="none" />
<polyline points="275.0,275.0,267.5,282.5,260.0,290.5,252.0,298.0,244.0,305.5" stroke="black" stroke-width="2" fill="none" />
<polyline points="250.0,306.5,258.0,306.5" stroke="black" stroke-width="2" fill="none" />
<polyline points="245.0,318.0,237.0,325.0" stroke="black" stroke-width="2" fill="none" />
<polyline points="235.0,316.0,227.5,323.0" stroke="black" stroke-width="2" fill="none" />
<polyline points="212.0,322.5,220.0,315.0,228.5,308.0,236.5,301.0" stroke="black" stroke-width="2" fill="none" />
<polyline points="235.5,290.5,227.5,298.5,220.0,306.5,212.0,314.5" stroke="black" stroke-width="2" fill="none" />
<polyline points="205.5,314.5,213.5,307.0" stroke="black" stroke-width="2" fill="none" />
<polyline points="219.5,297.5,227.0,290.5" stroke="black" stroke-width="2" fill="none" />
<polyline points="242.0,291.5,250.0,284.0,258.0,276.5" stroke="black" stroke-width="2" fill="none" />
<polyline points="250.0,273.5,242.5,281.0" stroke="black" stroke-width="2" fill="none" />
<polyline points="235.5,274.0,227.0,281.5,219.0,288.5,211.0,296.0,203.5,303.5,195.5,311.5" stroke="black" stroke-width="2" fill="none" />
<polyline points="202.5,315.0,210.5,314.5" stroke="black" stroke-width="2" fill="none" />
<polyline points="204.5,318.5,212.5,318.0,220.0,317.5,228.0,316.5,236.5,315.5,244.5,315.0,252.5,314.5,260.5,314.5,268.5,314.5,276.5,314.0,284.5,314.0,293.0,313.0,301.0,312.5,309.5,312.0" stroke="black" stroke-width="2" fill="none" />
<polyline points="252.0,290.5,244.0,291.0" stroke="black" stroke-width="2" fill="none" />
<polyline points="244.5,270.0,252.5,269.5,261.0,269.0,269.5,269.0,277.0,268.5" stroke="black" stroke-width="2" fill="none" />
<polyline points="228.0,274.0,219.5,281.0,211.0,288.5,203.0,296.0,194.5,303.5" stroke="black" stroke-width="2" fill="none" />
<polyline points="187.0,304.5,196.0,297.0,204.5,289.0,213.0,281.0,221.0,273.5" stroke="black" stroke-width="2" fill="none" />
<polyline points="212.5,275.5,204.5,283.0" stroke="black" stroke-width="2" fill="none" />
<polyline points="195.0,279.5,203.0,279.5,211.0,278.5,219.5,277.0,228.5,276.0,237.5,274.5,245.5,273.5,253.0,273.0,261.0,272.5,269.5,272.5,277.5,272.0,285.5,271.5,293.5,271.0" stroke="black" stroke-width="2" fill="none" />
<polyline points="250.5,218.5,242.5,226.0" stroke="black" stroke-width="2" fill="none" />
<polyline points="244.0,224.0,252.0,224.0,260.0,223.5,268.0,223.0" stroke="black" stroke-width="2" fill="none" />
<polyline points="251.5,209.0,243.5,216.5,235.5,224.5" stroke="black" stroke-width="2" fill="none" />
<polyline points="236.0,220.5,244.0,213.0" stroke="black" stroke-width="2" fill="none" />
<polyline points="236.5,205.0,244.5,204.5,253.0,204.0,261.0,203.5,269.5,203.5" stroke="black" stroke-width="2" fill="none" />
<polyline points="261.5,189.0,269.5,188.5,277.5,188.0" stroke="black" stroke-width="2" fill="none" />
<polyline points="276.5,180.5,268.5,180.5,260.5,181.5" stroke="black" stroke-width="2" fill="none" />
<polyline points="252.0,173.0,243.5,173.5" stroke="black" stroke-width="2" fill="none" />
<polyline points="235.5,167.5,243.0,166.5,251.0,165.5,259.0,164.5,267.5,164.0,275.5,163.5" stroke="black" stroke-width="2" fill="none" />
<polyline points="257.5,138.5,250.0,146.0" stroke="black" stroke-width="2" fill="none" />
<polyline points="235.0,148.5,227.0,155.5" stroke="black" stroke-width="2" fill="none" />
<polyline points="236.5,172.0,229.0,173.0,221.0,174.0,212.5,174.5" stroke="black" stroke-width="2" fill="none" />
<polyline points="203.5,181.5,195.5,181.5" stroke="black" stroke-width="2" fill="none" />
<polyline points="203.0,191.5,194.5,191.5,187.0,192.0" stroke="black" stroke-width="2" fill="none" />
<polyline points="189.0,198.5,197.0,198.0" stroke="black" stroke-width="2" fill="none" />
<polyline points="197.5,206.0,189.5,206.5" stroke="black" stroke-width="2" fill="none" />
<polyline points="196.0,212.5,204.0,212.0,212.5,211.5,220.5,212.0,228.0,212.5,236.0,212.5,243.5,211.5,251.5,211.0,259.0,210.5,267.0,210.0,275.0,209.0" stroke="black" stroke-width="2" fill="none" />
<polyline points="274.5,195.5,266.5,196.5,258.5,197.5,250.0,197.5" stroke="black" stroke-width="2" fill="none" />
<polyline points="219.5,204.0,211.5,204.0" stroke="black" stroke-width="2" fill="none" />
<polyline points="212.0,196.5,220.0,196.5,228.0,196.0" stroke="black" stroke-width="2" fill="none" />
<polyline points="220.5,234.5,212.5,241.5" stroke="black" stroke-width="2" fill="none" />
<polyline points="203.5,238.0,211.5,237.5,219.0,237.0,227.0,236.5,235.0,236.0,243.0,235.0,252.0,235.0,261.0,234.5,269.5,234.0,277.5,234.0,285.5,233.0,293.5,233.0,301.0,232.5,308.0,231.5,315.5,230.5,322.5,229.5,330.5,228.5" stroke="black" stroke-width="2" fill="none" />
<polyline points="235.0,261.5,226.0,262.0,218.0,262.5" stroke="black" stroke-width="2" fill="none" />
<polyline points="211.5,269.5,219.5,269.0,227.5,268.5,235.0,268.0" stroke="black" stroke-width="2" fill="none" />
<polyline points="196.5,291.0,188.0,299.0" stroke="black" stroke-width="2" fill="none" />
<polyline points="179.5,302.0,188.0,301.5,196.0,301.0,203.5,300.0,211.5,299.5,219.5,299.5,227.5,299.0,236.0,298.5,244.5,297.5,252.5,296.0,260.0,295.0,268.0,295.0,276.0,294.5,284.0,294.0,291.5,293.5,299.5,293.0,307.5,292.5,315.0,292.0,323.0,291.5,331.5,291.0,339.5,290.5,347.0,290.0,355.0,290.0,363.0,290.0,370.5,289.5,378.5,288.5,387.0,288.0" stroke="black" stroke-width="2" fill="none" />
<polyline points="292.5,215.5,284.5,215.5,276.5,216.5,268.5,217.0,260.5,218.0,252.0,218.5,243.5,219.5,235.5,220.0,228.0,220.0,220.0,220.5,212.0,221.0,203.5,221.0,196.0,221.5" stroke="black" stroke-width="2" fill="none" />
<polyline points="186.0,220.5,178.0,220.5" stroke="black" stroke-width="2" fill="none" />
<polyline points="163.0,228.0,171.0,227.5,179.0,227.5,187.0,227.0,195.0,226.5,203.0,226.0,211.5,225.5,220.0,224.5,229.0,224.0,237.5,223.0,245.5,222.5,253.5,222.5,261.0,222.5,268.5,222.0,276.5,221.5,284.5,221.5,293.0,221.5,301.5,221.5,310.0,221.5,318.0,221.0,326.0,221.0" stroke="black" stroke-width="2" fill="none" />
<polyline points="429.0,295.0,421.5,296.0,413.5,296.0,405.0,296.0,396.5,297.0,388.5,297.5,380.5,297.5,372.5,297.0,364.5,297.5,356.5,298.0,349.0,298.5,341.0,299.0,333.5,299.5,325.5,300.0,317.5,300.5,309.0,301.5,300.5,302.0,292.5,303.0,284.0,304.0,275.5,304.5,267.5,305.0,259.5,305.5,251.0,305.5,243.0,306.5,235.0,307.5,227.0,308.5,218.5,309.0,210.5,309.0,202.5,309.5,195.0,309.5,186.5,310.0" stroke="black" stroke-width="2" fill="none" />
<polyline points="179.5,293.5,187.5,293.0,195.5,292.0,203.5,292.0,212.0,292.0,220.5,291.5,228.5,291.0,236.0,290.5,244.0,289.5,252.0,289.5,259.5,288.5,268.0,288.0,276.5,287.5,285.0,287.0,293.0,286.5,301.0,285.5,309.0,285.0,316.5,284.5,324.0,283.5,331.5,282.5,339.0,282.5" stroke="black" stroke-width="2" fill="none" />
<polyline points="283.5,279.5,275.5,280.0,268.0,280.5,259.5,281.0,251.5,282.0,243.5,282.5,235.5,283.0,228.0,283.5,220.0,284.0,212.0,284.5,203.5,285.0,195.0,285.0,187.0,285.0" stroke="black" stroke-width="2" fill="none" />
<polyline points="170.5,269.0,179.0,269.0,187.5,268.5,195.5,268.0,203.0,267.0" stroke="black" stroke-width="2" fill="none" />
<polyline points="180.0,245.5,172.0,246.0,164.0,247.0" stroke="black" stroke-width="2" fill="none" />
<polyline points="163.0,237.5,171.0,237.0,179.0,236.0,187.5,235.0,196.0,234.5" stroke="black" stroke-width="2" fill="none" />
<polyline points="181.0,203.5,173.0,204.0" stroke="black" stroke-width="2" fill="none" />
<polyline points="173.5,197.5,181.5,197.0" stroke="black" stroke-width="2" fill="none" />
<polyline points="181.5,189.0,174.0,189.5" stroke="black" stroke-width="2" fill="none" />
<polyline points="180.0,173.0,188.0,172.0,196.0,172.0,204.0,171.5" stroke="black" stroke-width="2" fill="none" />
<polyline points="194.5,168.5,187.0,169.5" stroke="black" stroke-width="2" fill="none" />
<polyline points="172.0,164.0,180.0,163.5,188.0,163.5,196.0,163.0,203.5,162.5,211.0,161.5,219.0,161.5,227.5,161.5" stroke="black" stroke-width="2" fill="none" />
<polyline points="219.5,117.0,212.0,117.0,204.5,117.5" stroke="black" stroke-width="2" fill="none" />
<polyline points="214.0,108.0,221.5,108.0" stroke="black" stroke-width="2" fill="none" />
<polyline points="218.5,104.5,226.5,103.5,234.0,102.5" stroke="black" stroke-width="2" fill="none" />
<polyline points="221.5,59.5,213.5,59.5" stroke="black" stroke-width="2" fill="none" />
<polyline points="178.5,140.5,186.5,140.5,194.5,140.0,202.0,140.5,210.0,140.5,218.0,140.5,225.5,140.5,233.5,139.5,242.0,139.0,250.5,138.0,259.0,137.0,267.0,136.5,274.5,136.0,282.0,136.0,290.5,136.5" stroke="black" stroke-width="2" fill="none" />
<polyline points="275.0,150.0,267.0,150.5,259.5,151.0,251.5,151.0,244.0,151.5,236.0,152.0,228.5,152.5,220.5,153.5,212.5,154.0,204.5,154.5,196.5,155.0,188.0,155.0,180.0,156.0,172.0,156.5" stroke="black" stroke-width="2" fill="none" />
<polyline points="173.0,149.0,181.0,148.5,189.5,148.0,197.5,147.5,205.5,146.5,213.5,146.0,221.5,145.5,229.5,145.0,237.0,144.5,244.0,144.0,252.0,143.5,260.0,143.5,268.0,143.0,276.0,143.0,283.0,142.5,290.5,142.0" stroke="black" stroke-width="2" fill="none" />
<polyline points="180.5,213.0,172.5,213.5,164.5,214.0,156.5,214.0" stroke="black" stroke-width="2" fill="none" />
<polyline points="157.5,206.0,165.5,205.5" stroke="black" stroke-width="2" fill="none" />
<polyline points="156.5,198.0,148.5,198.5" stroke="black" stroke-width="2" fill="none" />
<polyline points="139.0,195.0,131.0,202.5" stroke="black" stroke-width="2" fill="none" />
<polyline points="137.0,201.5,129.0,209.0" stroke="black" stroke-width="2" fill="none" />
<polyline points="131.5,218.0,139.5,211.0" stroke="black" stroke-width="2" fill="none" />
<polyline points="139.5,219.0,147.5,211.5" stroke="black" stroke-width="2" fill="none" />
<polyline points="146.0,218.0,138.5,225.5,130.0,232.5" stroke="black" stroke-width="2" fill="none" />
<polyline points="130.0,238.5,138.0,238.5" stroke="black" stroke-width="2" fill="none" />
<polyline points="139.5,233.0,147.0,225.5" stroke="black" stroke-width="2" fill="none" />
<polyline points="146.5,223.5,138.5,224.0" stroke="black" stroke-width="2" fill="none" />
<polyline points="124.5,227.0,116.0,234.0" stroke="black" stroke-width="2" fill="none" />
<polyline points="107.5,233.5,115.5,226.0,124.0,218.5" stroke="black" stroke-width="2" fill="none" />
<polyline points="112.5,213.0,105.0,220.0" stroke="black" stroke-width="2" fill="none" />
<polyline points="105.5,226.5,98.0,234.0" stroke="black" stroke-width="2" fill="none" />
<polyline points="91.0,231.0,98.5,230.5,106.0,230.0,113.5,229.5,121.5,228.5,130.0,227.5,138.0,226.0,146.5,225.0,154.5,224.0" stroke="black" stroke-width="2" fill="none" />
<polyline points="131.0,253.0,123.5,261.0,115.5,269.0" stroke="black" stroke-width="2" fill="none" />
<polyline points="107.0,265.5,115.5,257.5,123.5,249.5" stroke="black" stroke-width="2" fill="none" />
<polyline points="123.5,245.5,131.5,244.5,139.0,244.5" stroke="black" stroke-width="2" fill="none" />
<polyline points="114.0,251.0,106.0,258.5,99.0,265.5" stroke="black" stroke-width="2" fill="none" />
<polyline points="89.5,265.5,97.5,258.5,105.5,250.5" stroke="black" stroke-width="2" fill="none" />
<polyline points="106.5,244.5,114.5,244.0" stroke="black" stroke-width="2" fill="none" />
<polyline points="113.5,236.0,105.5,236.0,97.5,236.5,89.5,237.0" stroke="black" stroke-width="2" fill="none" />
<polyline points="97.0,219.5,105.5,212.0" stroke="black" stroke-width="2" fill="none" />
<polyline points="108.5,204.5,100.0,211.5,91.5,218.5" stroke="black" stroke-width="2" fill="none" />
<polyline points="91.5,211.5,83.5,219.5" stroke="black" stroke-width="2" fill="none" />
<polyline points="76.0,222.0,84.0,221.5,92.5,220.5,101.0,219.5,108.5,218.5,116.0,218.0,123.5,217.5,131.5,216.5,139.5,215.5,147.5,214.5,155.5,214.0,163.5,214.0,171.5,214.0" stroke="black" stroke-width="2" fill="none" />
<polyline points="139.5,195.5,132.0,195.5,123.5,196.5,115.5,196.5" stroke="black" stroke-width="2" fill="none" />
<polyline points="108.5,196.5,100.5,203.5" stroke="black" stroke-width="2" fill="none" />
<polyline points="92.0,187.0,84.0,194.5,76.0,201.5,68.0,209.0" stroke="black" stroke-width="2" fill="none" />
<polyline points="68.5,211.0,60.5,212.0" stroke="black" stroke-width="2" fill="none" />
<polyline points="61.5,218.5,53.5,226.0" stroke="black" stroke-width="2" fill="none" />
<polyline points="50.5,223.5,58.5,223.0" stroke="black" stroke-width="2" fill="none" />
<polyline points="58.5,215.5,50.5,215.5" stroke="black" stroke-width="2" fill="none" />
<polyline points="51.0,213.0,43.0,220.0,34.5,227.5" stroke="black" stroke-width="2" fill="none" />
<polyline points="42.0,225.5,50.5,218.5,59.0,211.5,67.5,204.0,76.0,196.5,84.0,189.0" stroke="black" stroke-width="2" fill="none" />
<polyline points="76.0,187.0,68.0,195.0,60.5,202.5" stroke="black" stroke-width="2" fill="none" />
<polyline points="69.5,200.0,77.5,199.0,85.0,199.0" stroke="black" stroke-width="2" fill="none" />
<polyline points="84.0,194.0,76.0,194.5" stroke="black" stroke-width="2" fill="none" />
<polyline points="60.0,184.5,68.0,177.0" stroke="black" stroke-width="2" fill="none" />
<polyline points="59.5,178.5,51.0,186.0,42.5,194.0" stroke="black" stroke-width="2" fill="none" />
<polyline points="44.5,193.0,52.5,192.5" stroke="black" stroke-width="2" fill="none" />
<polyline points="52.0,196.5,43.5,204.0" stroke="black" stroke-width="2" fill="none" />
<polyline points="36.0,207.0,43.5,206.5,51.0,206.0,58.5,204.5,66.5,203.5,74.0,203.0,82.5,202.5,91.0,202.0,99.5,201.5,108.0,201.5,116.0,201.0,124.0,200.5,132.5,199.5,141.0,198.5,148.5,197.5" stroke="black" stroke-width="2" fill="none" />
<polyline points="114.0,171.0,106.5,178.5" stroke="black" stroke-width="2" fill="none" />
<polyline points="99.5,180.5,107.0,180.5,115.0,180.0,123.5,179.5,131.5,179.0" stroke="black" stroke-width="2" fill="none" />
<polyline points="114.5,164.5,106.5,172.0,99.0,180.0" stroke="black" stroke-width="2" fill="none" />
<polyline points="100.5,170.0,109.0,162.0" stroke="black" stroke-width="2" fill="none" />
<polyline points="97.0,157.0,105.5,156.5,113.5,156.0,122.5,155.0,131.5,154.0,140.5,153.5,148.5,153.0" stroke="black" stroke-width="2" fill="none" />
<polyline points="106.0,147.5,98.0,148.0" stroke="black" stroke-width="2" fill="none" />
<polyline points="97.0,141.0,105.5,140.5,113.5,140.0,122.5,139.5,131.5,139.0,140.0,138.5,148.5,138.0,156.5,137.5" stroke="black" stroke-width="2" fill="none" />
<polyline points="156.0,131.0,148.0,130.5,140.0,131.0,131.5,131.0,123.0,131.0,115.0,131.0,107.0,131.0,99.0,132.0" stroke="black" stroke-width="2" fill="none" />
<polyline points="92.5,141.5,85.0,142.5" stroke="black" stroke-width="2" fill="none" />
<polyline points="85.0,150.5,77.0,150.0" stroke="black" stroke-width="2" fill="none" />
<polyline points="83.5,156.0,75.0,156.5,66.5,157.0" stroke="black" stroke-width="2" fill="none" />
<polyline points="68.0,165.0,76.0,164.5" stroke="black" stroke-width="2" fill="none" />
<polyline points="84.0,166.5,92.0,166.0,100.0,165.5,108.5,165.0,117.0,164.5,124.5,163.5,133.0,163.5,141.0,162.5" stroke="black" stroke-width="2" fill="none" />
<polyline points="132.0,171.5,124.0,171.5,116.0,172.0,107.5,172.5,99.0,173.5,90.5,174.0" stroke="black" stroke-width="2" fill="none" />
<polyline points="53.5,180.5,45.0,188.0" stroke="black" stroke-width="2" fill="none" />
<polyline points="44.0,189.5,52.0,188.5,60.0,188.0,68.5,187.5,77.0,187.0,85.0,186.5,93.5,186.5,101.5,186.0,109.5,186.0,117.5,185.0,125.5,184.5,134.0,183.5,142.0,183.5,149.5,183.0,157.0,182.5" stroke="black" stroke-width="2" fill="none" />
<polyline points="147.0,247.0,139.5,247.5,131.5,248.0,123.5,249.0,115.5,249.5,107.5,250.5,100.0,251.5,92.0,252.5,84.0,253.5,76.0,254.0" stroke="black" stroke-width="2" fill="none" />
<polyline points="69.5,260.0,77.5,259.5,85.5,259.0,93.5,258.5,101.5,258.0,109.0,258.0,117.0,258.0,124.5,258.0,132.5,258.0,140.5,258.0" stroke="black" stroke-width="2" fill="none" />
<polyline points="75.5,237.5,68.0,237.5,60.0,238.0" stroke="black" stroke-width="2" fill="none" />
<polyline points="60.5,229.0,52.5,229.5,44.0,230.0" stroke="black" stroke-width="2" fill="none" />
<polyline points="28.5,227.0,37.0,219.5,45.5,212.0" stroke="black" stroke-width="2" fill="none" />
<polyline points="30.5,220.0,22.5,227.5" stroke="black" stroke-width="2" fill="none" />
<polyline points="21.0,229.5,28.5,229.0,36.0,229.0" stroke="black" stroke-width="2" fill="none" />
<polyline points="28.5,215.5,36.5,215.0,45.0,214.5,53.0,213.5,61.0,213.0,69.0,212.0,77.0,211.5,85.0,211.0,93.0,210.5,101.0,210.0,109.0,209.0,117.0,209.5,125.0,209.0,133.0,208.5,141.0,208.0,149.0,207.0" stroke="black" stroke-width="2" fill="none" />
<polyline points="59.5,185.5,51.5,186.0" stroke="black" stroke-width="2" fill="none" />
<polyline points="44.0,180.0,52.0,180.0,60.0,179.5,68.5,179.0,76.5,179.0,84.5,178.0,92.0,178.0" stroke="black" stroke-width="2" fill="none" />
<polyline points="60.5,159.0,52.5,160.0" stroke="black" stroke-width="2" fill="none" />
<polyline points="52.5,150.0,60.5,149.5,68.0,149.0" stroke="black" stroke-width="2" fill="none" />
<polyline points="66.5,140.5,58.0,141.0,50.0,141.5" stroke="black" stroke-width="2" fill="none" />
<polyline points="51.5,131.5,59.5,131.5,67.5,131.0,75.5,130.5,83.5,130.0,91.5,130.0" stroke="black" stroke-width="2" fill="none" />
<polyline points="91.5,118.0,83.5,118.5,76.0,119.0" stroke="black" stroke-width="2" fill="none" />
<polyline points="67.5,110.0,75.0,109.5,83.5,109.0" stroke="black" stroke-width="2" fill="none" />
<polyline points="76.0,94.5,83.5,94.0,91.5,93.0,100.0,92.5" stroke="black" stroke-width="2" fill="none" />
<polyline points="102.0,76.5,93.5,77.5" stroke="black" stroke-width="2" fill="none" />
<polyline points="90.5,123.0,82.0,124.0,74.0,124.5,65.5,125.0,57.5,126.0" stroke="black" stroke-width="2" fill="none" />
<polyline points="56.5,115.5,64.5,115.0" stroke="black" stroke-width="2" fill="none" />
<polyline points="59.5,164.5,52.0,165.0,44.0,166.0" stroke="black" stroke-width="2" fill="none" />
<polyline points="44.0,174.5,52.0,174.0,60.0,173.5,68.5,173.0,76.5,172.5" stroke="black" stroke-width="2" fill="none" />
<polyline points="108.0,194.0,100.0,194.5,92.5,194.5,84.5,194.5,76.5,195.5,68.5,196.0,60.5,197.0,52.0,197.5,43.5,198.0,35.0,198.5" stroke="black" stroke-width="2" fill="none" />
<polyline points="21.0,219.5,13.0,227.0" stroke="black" stroke-width="2" fill="none" />
<polyline points="18.0,226.5,26.0,226.5" stroke="black" stroke-width="2" fill="none" />
<polyline points="4.0,221.0,11.5,221.0,20.0,220.5,28.0,220.0,36.5,219.0,44.5,218.0,52.5,217.0,60.5,217.0,69.0,216.0" stroke="black" stroke-width="2" fill="none" />
<polyline points="52.5,301.5,44.5,302.0" stroke="black" stroke-width="2" fill="none" />
<polyline points="46.0,308.5,53.5,308.0" stroke="black" stroke-width="2" fill="none" />
<polyline points="11.5,86.5,3.0,87.5" stroke="black" stroke-width="2" fill="none" />
<polyline points="4.5,79.5,12.5,78.5" stroke="black" stroke-width="2" fill="none" />
<polyline points="19.0,79.0,27.0,78.0" stroke="black" stroke-width="2" fill="none" />
<polyline points="21.5,61.0,29.5,61.0,37.5,60.5,45.5,59.5" stroke="black" stroke-width="2" fill="none" />
<polyline points="36.5,68.0,29.0,68.5,21.5,69.5,14.0,70.0,6.0,71.0" stroke="black" stroke-width="2" fill="none" />
<polyline points="5.5,62.5,13.5,62.0" stroke="black" stroke-width="2" fill="none" />
<polyline points="20.5,54.0,12.5,54.5,4.5,54.5" stroke="black" stroke-width="2" fill="none" />
<polyline points="4.5,47.0,12.0,46.5,20.0,45.5,28.0,45.0" stroke="black" stroke-width="2" fill="none" />
<polyline points="35.0,36.5,26.5,36.0,18.5,36.5,10.5,37.0,3.0,37.5" stroke="black" stroke-width="2" fill="none" />
<polyline points="3.0,27.0,11.0,26.5,19.5,26.0,27.5,26.0,35.0,26.5,43.0,26.5,51.0,26.0" stroke="black" stroke-width="2" fill="none" />
<polyline points="50.5,17.5,43.5,18.0,35.5,18.0,27.0,18.5,19.0,18.5,10.5,18.5,2.5,19.0" stroke="black" stroke-width="2" fill="none" />
</svg>