<svg xmlns="http://www.w3.org/2000/svg" version="1.1"><polyline points="11.5,3.0,9.5,23.0,19.0,25.5,26.0,32.5,6.0,47.5,16.0,67.0,3.5,79.5,16.5,61.5,34.0,54.0" stroke="black" stroke-width="2" fill="none" />
<polyline points="30.0,30.0,45.0,57.5,30.5,77.0,13.0,97.0" stroke="black" stroke-width="2" fill="none" />
<polyline points="7.0,85.0,27.0,80.0,22.0,107.5,14.5,127.0" stroke="black" stroke-width="2" fill="none" />
<polyline points="22.5,143.5,2.5,153.5" stroke="black" stroke-width="2" fill="none" />
<polyline points="20.0,153.0,39.5,148.0,59.5,133.0,57.0,153.0,42.0,183.0,62.0,178.0,82.0,155.5" stroke="black" stroke-width="2" fill="none" />
<polyline points="77.5,134.5,67.5,142.0,70.0,112.5,50.0,120.0" stroke="black" stroke-width="2" fill="none" />
<polyline points="54.5,130.5,49.5,150.5,40.0,170.5,37.5,190.0,33.0,195.0,53.0,190.0,60.5,184.5,75.0,190.0,75.0,167.5,95.0,177.5,105.0,205.5,112.5,190.0,132.0,172.5" stroke="black" stroke-width="2" fill="none" />
<polyline points="153.5,184.0,133.5,201.0" stroke="black" stroke-width="2" fill="none" />
<polyline points="135.0,190.5,125.0,215.0,110.5,225.0,88.0,223.0,80.0,245.5,75.0,242.5,50.0,245.0,58.0,222.5,78.0,202.5,98.0,185.0,95.5,165.0,93.0,152.5,98.0,132.0,103.5,111.5,80.5,97.0,80.5,112.0" stroke="black" stroke-width="2" fill="none" />
<polyline points="72.5,107.5,92.5,117.5,90.0,137.5,72.5,145.0,90.5,162.5,115.5,157.5,135.5,152.5,135.5,160.0" stroke="black" stroke-width="2" fill="none" />
<polyline points="143.0,139.5,163.0,134.5,146.0,134.5,136.5,154.0,132.0,174.0,142.5,188.5,145.0,208.5,147.5,228.5,132.5,246.0,147.5,258.5,162.5,263.5,165.0,286.5,150.0,306.5,145.0,319.0,154.5,336.5,159.5,321.5,179.5,329.0,194.5,319.5,214.5,327.0,234.5,329.5,237.0,337.0,257.0,319.5,269.5,337.0" stroke="black" stroke-width="2" fill="none" />
<polyline points="288.0,322.0,326.0,314.5,343.5,320.0" stroke="black" stroke-width="2" fill="none" />
<polyline points="380.0,305.5,400.0,308.0,415.0,312.5,435.0,315.0,458.0,312.5" stroke="black" stroke-width="2" fill="none" />
<polyline points="463.0,322.0,443.5,317.0" stroke="black" stroke-width="2" fill="none" />
<polyline points="418.0,337.0,398.0,339.5" stroke="black" stroke-width="2" fill="none" />
<polyline points="395.0,292.0,392.5,297.0,415.0,287.0,407.5,277.0,387.5,274.5,367.5,280.0,348.0,277.5" stroke="black" stroke-width="2" fill="none" />
<polyline points="372.5,273.5,362.5,293.5,355.5,321.0,338.0,336.5,346.0,337.0,368.5,327.5,388.5,322.5,409.0,330.0,429.0,337.5" stroke="black" stroke-width="2" fill="none" />
<polyline points="429.5,217.0,414.5,229.5,397.0,237.0,394.5,237.0,394.5,217.0,389.5,189.5,389.5,169.5,397.0,144.5,404.5,124.5,402.0,104.5,392.0,81.5,379.5,76.5,377.0,56.5,420.0,21.5,427.5,1.5,460.0,6.5,440.0,6.0" stroke="black" stroke-width="2" fill="none" />
<polyline points="436.0,13.0,426.0,33.0,425.5,52.5,435.5,72.5,447.5,87.5,447.5,95.0,452.5,114.5,457.0,134.5,452.0,142.5,454.5,162.5,457.0,172.5,462.0,192.5,467.0,212.5,457.0,232.0,440.0,252.5,455.0,265.0,470.5,260.0" stroke="black" stroke-width="2" fill="none" />
<polyline points="458.0,274.5,438.0,274.5,418.5,272.0,398.0,269.5,378.0,267.0,358.0,267.0,338.0,262.5,318.0,259.5" stroke="black" stroke-width="2" fill="none" />
<polyline points="291.5,264.0,271.5,271.5,251.5,266.5,231.5,264.0,206.5,254.0,186.5,249.0" stroke="black" stroke-width="2" fill="none" />
<polyline points="166.5,268.5,152.0,293.5,132.0,268.5" stroke="black" stroke-width="2" fill="none" />
<polyline points="130.5,274.0,148.5,289.5,161.0,311.5,164.0,324.5" stroke="black" stroke-width="2" fill="none" />
<polyline points="163.5,312.0,183.5,324.5" stroke="black" stroke-width="2" fill="none" />
<polyline points="261.0,288.0,281.0,290.5,300.5,290.5,320.5,285.5,340.5,283.0,348.0,300.5,368.0,305.0,370.5,290.5,388.0,282.5,408.0,285.0,428.0,287.5,448.0,290.0,468.0,287.5" stroke="black" stroke-width="2" fill="none" />
<polyline points="499.5,326.0,484.5,320.5,477.0,338.0,464.0,335.0,444.0,330.0,424.0,325.0,404.0,317.5,384.0,315.0,364.5,320.0,349.5,315.5,330.0,318.0,325.5,300.5,303.5,303.0,303.5,325.5,283.5,335.5,306.0,323.0,291.0,317.5,316.0,292.5,310.5,272.0,325.0,244.0,335.0,226.5,330.5,201.5,340.5,181.5,333.5,166.0,353.5,146.0,366.0,126.0,365.5,106.0,347.5,89.0,349.5,69.0,364.5,49.0,374.5,29.0,359.5,29.0,374.5,11.5,372.0,6.0,352.0,3.5" stroke="black" stroke-width="2" fill="none" />
<polyline points="369.0,17.0,389.5,4.5" stroke="black" stroke-width="2" fill="none" />
<polyline points="434.5,31.0,439.5,50.5,442.0,70.5,437.5,90.5,425.0,110.5,425.0,112.5,442.5,122.5,420.0,142.0,402.5,172.0,412.0,172.0,420.0,179.0,420.0,199.5,435.0,204.5,437.5,224.5,433.0,224.5,435.5,232.0,435.0,252.0,439.5,279.5,459.0,279.5,471.5,274.5,476.5,284.5,484.0,296.5" stroke="black" stroke-width="2" fill="none" />
<polyline points="462.0,321.5,467.0,301.5,452.0,301.0,464.5,284.0,462.0,253.5,469.5,233.5,467.0,213.5" stroke="black" stroke-width="2" fill="none" />
<polyline points="507.0,212.0,487.0,209.5,484.0,174.5" stroke="black" stroke-width="2" fill="none" />
<polyline points="475.5,168.5,495.5,149.0" stroke="black" stroke-width="2" fill="none" />
<polyline points="500.0,125.5,487.5,140.5,460.0,160.0,457.5,140.0" stroke="black" stroke-width="2" fill="none" />
<polyline points="458.5,89.5,478.5,107.0,483.0,94.5,488.0,97.0" stroke="black" stroke-width="2" fill="none" />
<polyline points="504.5,95.5,497.0,100.0,492.0,120.0,480.0,139.5,472.5,144.5,475.5,164.5,478.0,184.5,472.5,204.5,490.0,219.0,502.0,239.0,494.5,246.5,497.0,251.5,482.0,269.5,487.0,287.0,489.5,300.0,484.5,310.0,495.0,315.5" stroke="black" stroke-width="2" fill="none" />
<polyline points="422.0,244.0,418.0,236.5,408.5,229.0,418.5,209.0" stroke="black" stroke-width="2" fill="none" />
<polyline points="385.5,212.5,356.0,225.0,336.0,215.0" stroke="black" stroke-width="2" fill="none" />
<polyline points="347.0,226.5,352.5,208.5,352.5,188.5,342.5,171.0,322.5,183.5,317.0,196.0" stroke="black" stroke-width="2" fill="none" />
<polyline points="315.0,220.0,310.0,240.0,302.5,252.5,299.5,277.0,316.5,282.0,328.5,289.0,311.0,309.0,308.5,329.0,273.5,321.5,263.0,336.5" stroke="black" stroke-width="2" fill="none" />
<polyline points="304.5,325.5,324.5,311.0" stroke="black" stroke-width="2" fill="none" />
<polyline points="280.0,283.0,260.5,283.0" stroke="black" stroke-width="2" fill="none" />
<polyline points="260.0,237.5,282.0,229.5,267.5,217.0,267.5,197.0,270.0,177.5,274.5,157.5,284.5,137.0,274.0,127.0,284.5,101.5,286.5,81.5,309.0,51.5,326.5,31.0,314.0,33.5" stroke="black" stroke-width="2" fill="none" />
<polyline points="327.5,33.0,350.0,25.5,352.5,45.0,345.0,50.0,337.5,70.0,324.5,72.0,327.0,92.0,301.5,97.0,299.0,127.0,299.0,146.5,294.5,164.0,299.5,173.5,284.5,178.5,285.0,198.5,295.0,178.5,300.0,181.0,290.0,181.0" stroke="black" stroke-width="2" fill="none" />
<polyline points="337.5,177.5,357.5,175.5,370.5,183.0,370.5,202.5,365.0,207.5,372.5,228.0,362.5,235.5,377.0,248.0" stroke="black" stroke-width="2" fill="none" />
<polyline points="382.0,240.0,382.0,220.0" stroke="black" stroke-width="2" fill="none" />
<polyline points="377.5,221.0,365.5,228.5,378.0,248.0" stroke="black" stroke-width="2" fill="none" />
<polyline points="433.0,202.5,410.5,190.0,390.0,197.5,377.5,192.5,377.5,172.5" stroke="black" stroke-width="2" fill="none" />
<polyline points="422.5,132.5,405.0,137.5,385.0,122.5,397.0,92.5,397.0,72.0,394.0,52.0,374.0,52.0,364.0,20.0,344.0,17.5,324.0,27.0,304.0,32.0,296.5,29.5,317.0,19.5,322.0,5.0,302.5,10.0,282.5,27.5" stroke="black" stroke-width="2" fill="none" />
<polyline points="281.5,41.5,274.0,7.0,254.5,31.5,229.5,34.0,221.5,64.0,201.5,68.5,217.0,30.5,207.0,25.5,189.5,5.5,189.5,3.0" stroke="black" stroke-width="2" fill="none" />
<polyline points="173.5,10.5,173.5,30.5,165.5,50.0,153.0,52.5,153.0,80.0,145.5,85.0,162.5,87.5,157.5,102.5,135.0,123.0,135.0,123.0,155.0,118.0,177.5,100.5,197.5,95.5,217.5,88.0,237.5,80.5,257.5,75.5,275.0,70.0,295.5,62.5,315.5,42.5,335.5,45.0,355.0,45.0,375.5,37.5,395.5,32.5,415.5,24.5,425.0,29.5,435.0,11.5" stroke="black" stroke-width="2" fill="none" />
<polyline points="477.5,51.5,457.0,72.0,457.5,94.5,460.0,114.5,470.0,136.5,467.5,156.5,470.0,176.5,488.0,181.5,483.0,198.5,483.0,216.0,478.5,243.5,481.0,263.5,473.0,263.5,475.5,284.0,477.5,304.0,492.0,329.0" stroke="black" stroke-width="2" fill="none" />
<polyline points="417.0,144.5,397.0,152.0,364.5,157.0,337.0,145.0,332.0,145.0,330.0,125.0,345.0,110.0,310.0,117.0,277.5,122.5,247.0,130.0,234.5,140.0,229.0,132.5,206.5,142.5,211.0,123.0,204.0,115.0,234.0,102.0,214.0,122.0,191.5,127.0,189.0,122.0,189.5,109.0,174.5,119.5,147.0,107.0,127.0,97.0,106.5,89.5,89.5,84.5,69.0,94.5,56.5,121.5,31.5,161.5,19.0,176.5,4.0,194.0,19.0,171.5,14.0,151.5,16.5,144.0,41.5,144.0,49.0,124.0,56.5,121.5,61.5,102.0,84.0,82.0,79.0,62.0,74.0,42.0,61.0,39.5,41.0,34.5,21.0,44.5,1.0,42.5" stroke="black" stroke-width="2" fill="none" />
<polyline points="9.0,22.0,12.0,47.0,9.5,72.0,12.0,107.0,4.5,104.5,12.0,114.5,34.5,92.0" stroke="black" stroke-width="2" fill="none" />
<polyline points="86.5,105.0,97.0,107.5" stroke="black" stroke-width="2" fill="none" />
<polyline points="157.5,133.0,154.5,153.0,152.0,173.0,139.0,182.5,126.5,202.0,124.0,222.0,131.5,224.5,137.0,219.5,164.5,237.0,170.0,227.5" stroke="black" stroke-width="2" fill="none" />
<polyline points="185.0,202.5,190.5,182.5" stroke="black" stroke-width="2" fill="none" />
<polyline points="190.0,204.0,197.5,184.5,210.0,164.5" stroke="black" stroke-width="2" fill="none" />
<polyline points="222.5,166.5,217.5,167.0,207.5,187.0,205.5,207.5" stroke="black" stroke-width="2" fill="none" />
<polyline points="228.5,219.5,223.5,239.5,226.5,259.5,214.0,289.5,199.0,294.5,194.0,311.5,201.5,281.5" stroke="black" stroke-width="2" fill="none" />
<polyline points="232.5,334.0,267.5,326.5,250.0,319.0,237.5,311.5,245.0,309.5,247.5,305.0,219.5,320.0,192.0,335.0,187.0,332.0,199.5,322.0,175.0,317.5,182.5,302.5,169.5,290.0,182.0,267.5,184.5,247.5,197.0,230.0,212.0,230.0,219.5,207.5,232.5,202.5,225.0,192.5,250.5,178.0,253.0,158.0,230.5,160.5" stroke="black" stroke-width="2" fill="none" />
<polyline points="235.0,165.0,255.0,164.5,270.0,162.5,287.5,152.5,292.5,167.5,302.5,167.5,322.5,162.5,342.0,162.0,362.0,134.5,382.0,137.0" stroke="black" stroke-width="2" fill="none" />
<polyline points="346.0,133.0,344.0,113.0" stroke="black" stroke-width="2" fill="none" />
<polyline points="312.5,121.0,315.5,141.0,315.5,173.5,315.5,193.0,300.5,218.0,308.0,230.0,295.5,240.0,293.0,265.0,295.5,280.0" stroke="black" stroke-width="2" fill="none" />
<polyline points="286.0,105.5,306.0,90.5" stroke="black" stroke-width="2" fill="none" />
<polyline points="318.0,80.5,312.5,73.0,287.5,70.5,267.5,78.0" stroke="black" stroke-width="2" fill="none" />
<polyline points="259.5,87.0,269.5,97.0" stroke="black" stroke-width="2" fill="none" />
<polyline points="236.5,67.0,256.5,51.5,276.5,46.5,279.5,51.5" stroke="black" stroke-width="2" fill="none" />
<polyline points="270.0,8.0,272.5,28.0,282.5,48.0,282.5,73.0,255.0,86.0,260.0,106.0,255.0,126.0,245.0,128.0,240.0,138.0,228.0,158.0,246.0,178.0,258.5,185.0,256.0,205.0,246.0,217.5,246.0,237.0,235.5,229.0,235.5,246.0,255.5,228.5" stroke="black" stroke-width="2" fill="none" />
<polyline points="222.5,120.0,243.0,120.0,263.0,112.5" stroke="black" stroke-width="2" fill="none" />
<polyline points="219.5,99.0,199.5,99.0" stroke="black" stroke-width="2" fill="none" />
<polyline points="219.5,58.5,197.0,71.0,185.0,40.5,170.0,60.5,138.0,70.5,117.5,80.0,110.0,65.0,90.0,79.5,73.0,59.0,60.5,89.0,53.0,68.5,71.0,46.0,46.0,28.5,33.5,8.5,13.5,3.5" stroke="black" stroke-width="2" fill="none" />
<polyline points="25.5,7.5,45.5,20.5,65.5,5.5,70.5,23.0" stroke="black" stroke-width="2" fill="none" />
<polyline points="70.5,1.0,63.5,11.5,61.0,27.0,38.5,47.0,28.5,54.0,35.5,66.5,71.0,34.0,78.5,14.0,91.5,21.0,111.5,31.0,104.0,51.0,126.5,38.5,146.0,13.5,131.0,29.0,123.0,49.5,113.5,69.5,103.0,87.5,83.0,102.0,75.5,119.5,81.0,139.5,71.0,152.0,68.5,172.0,48.5,192.0,33.5,202.0,43.5,209.5,34.0,229.5,37.0,242.0,35.0,262.0,68.0,264.5,68.5,277.0,81.0,279.5,101.0,299.5,118.0,307.0,115.5,319.5,125.0,321.5,152.5,309.5,169.5,302.0,169.0,290.0,181.5,290.0,186.0,280.5,206.0,278.5,218.5,290.5,229.0,285.0,239.0,277.5,259.5,277.0,275.0,264.5,282.5,267.0,312.5,259.5,332.5,269.5,353.0,271.5" stroke="black" stroke-width="2" fill="none" />
<polyline points="402.5,96.5,422.5,94.0,440.0,94.0,460.0,69.0" stroke="black" stroke-width="2" fill="none" />
<polyline points="498.5,64.5,498.5,84.5,488.5,97.0,466.0,119.5,483.0,127.0,493.0,102.0" stroke="black" stroke-width="2" fill="none" />
<polyline points="508.0,117.0,493.0,137.0" stroke="black" stroke-width="2" fill="none" />
<polyline points="266.5,153.5,242.0,148.0,240.0,152.5,220.5,160.0,213.0,167.5,205.5,157.0,200.5,179.5,183.0,182.0,168.5,169.5,176.0,162.0,178.0,142.0,175.5,122.0,167.5,94.5,165.0,76.5,184.5,57.0,179.5,42.0,177.0,34.5,172.0,29.0,152.0,46.5" stroke="black" stroke-width="2" fill="none" />
<polyline points="142.5,21.0,142.5,40.5,142.5,52.5,134.5,72.5,137.5,93.0,157.5,75.5,177.5,62.5" stroke="black" stroke-width="2" fill="none" />
<polyline points="169.0,12.5,189.0,27.5,211.5,5.0,232.0,7.0" stroke="black" stroke-width="2" fill="none" />
<polyline points="230.0,8.0,240.0,28.0,237.5,48.0,212.5,50.0,219.5,32.5" stroke="black" stroke-width="2" fill="none" />
<polyline points="207.0,20.5,227.0,18.0,231.5,28.0,226.5,48.5" stroke="black" stroke-width="2" fill="none" />
<polyline points="266.5,0.5,259.5,20.5,257.0,40.5,267.0,53.5,237.0,66.5,214.5,86.5,169.5,106.5,184.0,126.5,178.5,157.0,181.0,169.5,181.0,175.0,173.5,194.5,163.5,207.0,153.5,217.0,159.0,232.0,179.0,234.5,196.5,227.0,214.0,214.5,221.5,201.5,236.5,199.0,254.0,209.0,269.0,216.5,276.5,224.0,296.5,239.0,309.0,216.5,301.5,251.5,321.5,236.5,339.0,244.0,341.5,249.5,362.0,249.5,384.0,249.5,407.0,262.0,427.0,257.0,437.0,259.5,439.5,249.0,454.0,237.0,479.0,234.5,499.0,227.0,496.5,259.5" stroke="black" stroke-width="2" fill="none" />
<polyline points="264.0,256.5,244.0,256.0,221.5,266.0,201.5,263.0,192.0,255.5,182.0,265.5,162.0,263.5,142.5,263.5,123.0,263.5,103.0,266.0,83.0,264.0,63.5,262.0,63.5,275.0,43.5,282.5,23.5,270.0,3.5,253.0" stroke="black" stroke-width="2" fill="none" />
<polyline points="4.0,251.0,4.0,271.0,14.0,286.0,19.0,301.5,34.0,321.5,59.0,326.5,56.5,337.0,61.5,329.5,89.0,309.5,109.0,314.5,127.0,339.0" stroke="black" stroke-width="2" fill="none" />
<polyline points="124.0,324.5,141.0,304.5,138.5,284.5,130.5,257.0,110.5,257.0,91.0,252.0" stroke="black" stroke-width="2" fill="none" />
<polyline points="70.5,277.5,90.5,290.0,110.5,294.5,123.0,317.0" stroke="black" stroke-width="2" fill="none" />
<polyline points="98.0,305.0,78.0,285.5" stroke="black" stroke-width="2" fill="none" />
<polyline points="76.0,299.5,86.0,322.0,106.0,329.5" stroke="black" stroke-width="2" fill="none" />
<polyline points="29.5,332.5,30.0,310.0,27.5,300.5" stroke="black" stroke-width="2" fill="none" />
<polyline points="17.5,297.5,37.0,295.0,57.0,292.5,62.5,295.0,72.5,300.0,103.0,320.0" stroke="black" stroke-width="2" fill="none" />
<polyline points="44.5,321.5,55.0,301.5,40.5,286.5,20.5,286.0,13.5,288.5,11.0,301.0" stroke="black" stroke-width="2" fill="none" />
<polyline points="2.5,325.5,12.5,310.5,32.5,320.5,55.0,315.5,62.5,300.5,82.5,315.5,102.5,327.5" stroke="black" stroke-width="2" fill="none" />
<polyline points="42.0,239.5,32.0,231.5,12.0,231.5" stroke="black" stroke-width="2" fill="none" />
<polyline points="10.0,241.5,37.5,254.5,45.0,254.5,40.0,247.0,53.0,257.0,73.0,257.0,82.5,249.5,99.5,247.0" stroke="black" stroke-width="2" fill="none" />
<polyline points="84.5,187.0,74.5,204.5,54.5,225.0,34.5,220.0,24.5,215.0,5.0,217.5,2.5,222.5" stroke="black" stroke-width="2" fill="none" />
<polyline points="9.0,251.0,24.0,271.0,21.0,283.5,21.0,304.0,18.0,322.0,21.0,337.0,55.5,337.5" stroke="black" stroke-width="2" fill="none" />
<polyline points="30.0,171.5,20.0,151.5" stroke="black" stroke-width="2" fill="none" />
<polyline points="160.0,140.0,165.0,159.5,172.0,179.5,159.0,199.5,171.5,210.0,154.0,222.5,189.5,205.0,217.0,172.5,237.0,185.0" stroke="black" stroke-width="2" fill="none" />
<polyline points="111.5,20.5,92.0,8.0" stroke="black" stroke-width="2" fill="none" />
<polyline points="96.5,7.0,101.5,19.5,111.5,44.5,109.0,64.5,109.0,87.5,129.5,108.0,119.5,135.5,127.0,161.0,117.5,181.0,100.0,196.0,100.0,201.0,120.0,201.0,112.5,220.5,82.5,237.5,82.5,229.5,102.5,239.5,122.0,234.0,132.0,233.5,134.5,238.0,144.5,253.0,164.5,248.0,184.5,245.5,204.5,243.0,224.5,218.0,249.0,248.5,269.0,249.0,289.5,251.5,322.0,254.0,341.5,257.0,361.5,259.0,381.5,259.0,401.5,251.5,411.5,257.0" stroke="black" stroke-width="2" fill="none" />
<polyline points="73.5,51.5,54.0,66.5,67.0,61.5,97.0,69.0,107.0,49.0,84.0,28.5,89.0,20.5,84.0,0.5" stroke="black" stroke-width="2" fill="none" />
</svg>