<svg xmlns="http://www.w3.org/2000/svg" version="1.1"><polyline points="464.5,5.5,482.5,9.0,478.0,24.0" stroke="black" stroke-width="2" fill="none" />
<polyline points="491.0,26.0,506.0,25.0,521.5,24.0" stroke="black" stroke-width="2" fill="none" />
<polyline points="519.0,42.0,502.5,43.5,485.0,44.5,469.0,45.0" stroke="black" stroke-width="2" fill="none" />
<polyline points="451.0,39.0,431.5,51.0" stroke="black" stroke-width="2" fill="none" />
<polyline points="440.0,60.5,455.5,59.5,470.5,58.0,487.0,58.0,503.5,58.0,519.5,57.5" stroke="black" stroke-width="2" fill="none" />
<polyline points="509.5,24.5,508.0,12.5,498.0,5.5,485.5,4.0" stroke="black" stroke-width="2" fill="none" />
<polyline points="490.5,23.5,478.5,7.0,466.5,8.5,455.0,4.0" stroke="black" stroke-width="2" fill="none" />
<polyline points="445.0,61.5,433.0,62.0,420.5,61.0,409.0,53.5,397.0,55.0" stroke="black" stroke-width="2" fill="none" />
<polyline points="403.0,58.5,402.0,70.5,404.0,79.5,396.5,92.5,399.5,104.0,401.0,116.0,414.5,128.0,411.5,137.0,402.5,144.5,396.0,153.0,393.0,165.0,385.5,169.5,385.5,169.5,397.5,168.0,409.0,171.5,418.0,183.5,429.5,182.0,436.0,174.5,438.0,166.0" stroke="black" stroke-width="2" fill="none" />
<polyline points="437.5,171.5,453.5,171.5,470.0,171.5,487.0,171.0,504.0,171.0,521.0,171.0" stroke="black" stroke-width="2" fill="none" />
<polyline points="517.0,183.5,501.5,199.5" stroke="black" stroke-width="2" fill="none" />
<polyline points="504.5,194.5,520.5,194.0" stroke="black" stroke-width="2" fill="none" />
<polyline points="516.0,202.5,500.0,217.5" stroke="black" stroke-width="2" fill="none" />
<polyline points="487.0,216.5,470.0,231.5,454.0,246.5,438.0,262.5" stroke="black" stroke-width="2" fill="none" />
<polyline points="438.0,266.0,454.0,265.5,470.0,265.0,486.0,264.0,502.5,263.0,519.5,262.5" stroke="black" stroke-width="2" fill="none" />
<polyline points="515.0,264.0,499.5,279.0,483.5,294.5" stroke="black" stroke-width="2" fill="none" />
<polyline points="482.5,288.5,499.0,300.5" stroke="black" stroke-width="2" fill="none" />
<polyline points="501.0,309.5,516.5,294.5" stroke="black" stroke-width="2" fill="none" />
<polyline points="498.5,292.5,514.0,276.0" stroke="black" stroke-width="2" fill="none" />
<polyline points="500.5,264.0,484.5,279.5" stroke="black" stroke-width="2" fill="none" />
<polyline points="479.5,288.5,488.0,300.5,496.5,303.5" stroke="black" stroke-width="2" fill="none" />
<polyline points="518.0,295.0,502.0,295.5,485.5,296.5,469.0,297.0" stroke="black" stroke-width="2" fill="none" />
<polyline points="465.5,282.0,477.5,286.5,489.5,292.5,501.5,298.0" stroke="black" stroke-width="2" fill="none" />
<polyline points="470.5,279.5,486.5,263.5" stroke="black" stroke-width="2" fill="none" />
<polyline points="472.5,262.0,456.5,277.5" stroke="black" stroke-width="2" fill="none" />
<polyline points="453.5,280.0,468.5,280.0,485.0,279.5,501.5,279.5,518.0,279.5" stroke="black" stroke-width="2" fill="none" />
<polyline points="499.5,232.5,515.0,218.0" stroke="black" stroke-width="2" fill="none" />
<polyline points="519.0,245.0,503.0,245.5,487.5,247.0,472.0,248.5,456.0,248.5,440.0,248.5,423.5,249.0,406.5,250.0,390.0,250.5" stroke="black" stroke-width="2" fill="none" />
<polyline points="403.5,259.0,419.5,243.0" stroke="black" stroke-width="2" fill="none" />
<polyline points="413.5,246.0,433.5,260.0,445.0,270.0,446.0,279.0,462.5,289.5,471.0,296.5" stroke="black" stroke-width="2" fill="none" />
<polyline points="453.5,312.5,469.5,312.5,485.5,312.5,501.5,312.0,518.5,311.0" stroke="black" stroke-width="2" fill="none" />
<polyline points="520.5,343.5,505.0,343.5,489.0,343.5" stroke="black" stroke-width="2" fill="none" />
<polyline points="473.5,328.5,489.0,327.5,503.5,328.0,519.0,328.5" stroke="black" stroke-width="2" fill="none" />
<polyline points="457.0,259.5,473.5,243.5" stroke="black" stroke-width="2" fill="none" />
<polyline points="480.5,242.0,492.5,240.5,495.5,252.5,508.0,246.5" stroke="black" stroke-width="2" fill="none" />
<polyline points="517.5,211.0,501.5,211.0,485.0,211.0,468.5,211.5,451.5,212.0,436.5,212.5,422.5,213.0,408.0,213.5,392.5,213.5,376.0,214.5,359.5,216.0,343.0,217.0,326.5,218.0,310.5,218.0,295.0,218.0" stroke="black" stroke-width="2" fill="none" />
<polyline points="296.0,225.0,303.5,228.0,300.5,235.5" stroke="black" stroke-width="2" fill="none" />
<polyline points="300.5,228.5,294.5,216.5,281.0,210.5,281.0,198.5,274.0,198.0,265.0,196.0,250.0,214.0,237.5,214.5" stroke="black" stroke-width="2" fill="none" />
<polyline points="235.0,220.0,235.0,232.0,236.0,244.0,239.5,249.0,250.0,253.5,262.5,251.0" stroke="black" stroke-width="2" fill="none" />
<polyline points="245.5,237.0,261.5,236.5,277.0,235.5,293.5,234.5,310.0,233.5,327.0,231.5,344.5,231.0,362.0,229.5,378.5,228.5,394.5,229.0,411.0,229.0,426.0,228.0,441.5,227.0,457.5,226.5,472.5,226.0,488.5,225.5,503.0,225.0,519.0,224.5" stroke="black" stroke-width="2" fill="none" />
<polyline points="518.5,198.5,503.5,197.5,488.5,196.5,472.5,195.0,456.5,194.5,439.5,195.5,422.5,197.0,406.0,198.5,390.0,199.5,373.5,200.5,358.0,201.5,342.0,202.5,325.5,202.5,309.5,202.5,293.5,203.0" stroke="black" stroke-width="2" fill="none" />
<polyline points="295.5,198.0,311.5,181.5,328.0,165.5" stroke="black" stroke-width="2" fill="none" />
<polyline points="326.0,180.0,342.0,180.0" stroke="black" stroke-width="2" fill="none" />
<polyline points="344.0,167.5,327.0,182.5,311.5,199.5" stroke="black" stroke-width="2" fill="none" />
<polyline points="312.0,194.5,328.5,194.5,345.5,194.5,362.0,194.5" stroke="black" stroke-width="2" fill="none" />
<polyline points="360.5,190.5,372.0,186.0,384.0,185.5,395.5,185.5,407.5,184.0" stroke="black" stroke-width="2" fill="none" />
<polyline points="405.5,180.0,390.0,196.0" stroke="black" stroke-width="2" fill="none" />
<polyline points="392.5,195.0,404.5,198.0,416.5,198.0,428.5,199.0,440.5,198.5" stroke="black" stroke-width="2" fill="none" />
<polyline points="440.5,200.0,456.5,185.0,472.5,169.5" stroke="black" stroke-width="2" fill="none" />
<polyline points="474.5,177.0,458.5,177.5" stroke="black" stroke-width="2" fill="none" />
<polyline points="463.5,184.0,475.5,181.0" stroke="black" stroke-width="2" fill="none" />
<polyline points="473.5,187.0,458.0,201.5,441.5,216.0" stroke="black" stroke-width="2" fill="none" />
<polyline points="440.0,230.5,456.0,214.5,472.0,199.0,488.0,184.0" stroke="black" stroke-width="2" fill="none" />
<polyline points="490.0,170.5,510.0,170.5,496.5,176.5,495.0,184.0,493.0,197.5,499.5,208.0,502.5,220.0" stroke="black" stroke-width="2" fill="none" />
<polyline points="493.5,203.5,481.5,212.5" stroke="black" stroke-width="2" fill="none" />
<polyline points="486.0,199.0,474.0,194.5" stroke="black" stroke-width="2" fill="none" />
<polyline points="473.0,194.5,457.5,195.0" stroke="black" stroke-width="2" fill="none" />
<polyline points="461.5,195.0,473.5,192.0,485.5,193.5,498.0,195.0,510.0,196.0" stroke="black" stroke-width="2" fill="none" />
<polyline points="504.0,182.0,488.0,197.5,471.5,211.5,454.5,226.5,437.5,242.5,420.5,258.0" stroke="black" stroke-width="2" fill="none" />
<polyline points="418.0,263.0,428.5,275.0,441.5,285.0" stroke="black" stroke-width="2" fill="none" />
<polyline points="429.0,295.5,441.0,297.0,453.0,295.0,471.0,289.0" stroke="black" stroke-width="2" fill="none" />
<polyline points="480.5,254.5,468.5,250.0" stroke="black" stroke-width="2" fill="none" />
<polyline points="458.0,227.5,470.0,230.5,473.0,228.0,488.0,226.5,500.0,226.5" stroke="black" stroke-width="2" fill="none" />
<polyline points="477.0,185.0,465.0,186.5" stroke="black" stroke-width="2" fill="none" />
<polyline points="453.0,169.5,468.5,153.5" stroke="black" stroke-width="2" fill="none" />
<polyline points="475.0,152.0,460.0,151.5" stroke="black" stroke-width="2" fill="none" />
<polyline points="458.0,134.0,475.0,134.0" stroke="black" stroke-width="2" fill="none" />
<polyline points="461.0,130.0,464.0,142.0,464.5,153.5,464.0,166.0,470.0,167.5,477.0,172.0,475.5,173.5,488.0,167.5,500.0,167.0,503.0,176.0" stroke="black" stroke-width="2" fill="none" />
<polyline points="501.5,182.0,486.5,186.5,484.5,179.0,481.5,181.5,490.5,169.5" stroke="black" stroke-width="2" fill="none" />
<polyline points="519.5,170.0,503.5,169.5,488.0,169.0,472.5,171.0,457.0,173.0,441.0,174.5,425.5,175.5,409.0,177.0,392.0,177.0,375.0,177.0,358.0,177.5,341.5,177.5,325.5,177.5,309.0,178.5,293.0,179.0,277.5,179.0,262.0,179.5,246.0,179.5,229.5,179.5,213.0,180.0,196.5,180.0,180.5,180.5,164.0,181.0,148.0,182.0,132.0,183.0,116.5,184.5,101.5,186.0,86.5,187.5,70.0,188.0,53.0,188.0,37.5,187.5,22.5,187.5,7.0,188.0" stroke="black" stroke-width="2" fill="none" />
<polyline points="3.0,179.0,18.5,163.5,34.0,147.5" stroke="black" stroke-width="2" fill="none" />
<polyline points="36.0,135.5,20.0,151.5,5.0,167.0" stroke="black" stroke-width="2" fill="none" />
<polyline points="10.5,173.0,26.0,171.5,41.5,170.5,56.5,170.0,72.0,170.5,87.0,170.5,102.0,169.0" stroke="black" stroke-width="2" fill="none" />
<polyline points="104.0,180.0,87.5,196.5,71.5,213.0" stroke="black" stroke-width="2" fill="none" />
<polyline points="57.5,214.0,73.5,197.5,89.5,181.5" stroke="black" stroke-width="2" fill="none" />
<polyline points="88.5,167.5,73.0,182.5,55.5,197.5" stroke="black" stroke-width="2" fill="none" />
<polyline points="52.5,197.0,68.0,196.5,83.5,196.0" stroke="black" stroke-width="2" fill="none" />
<polyline points="71.0,194.5,74.0,206.5,63.5,224.5,62.0,238.0,65.0,241.0,77.0,236.5,89.0,233.5,91.5,236.5,100.5,228.5" stroke="black" stroke-width="2" fill="none" />
<polyline points="115.5,221.0,107.5,233.0,103.0,232.5,106.0,246.0,118.5,241.0,130.5,235.0,142.5,227.5,154.0,220.5,166.0,216.0" stroke="black" stroke-width="2" fill="none" />
<polyline points="170.5,216.5,172.0,228.5" stroke="black" stroke-width="2" fill="none" />
<polyline points="168.0,229.5,183.5,214.0,198.5,198.5,214.0,182.5" stroke="black" stroke-width="2" fill="none" />
<polyline points="217.5,196.5,233.5,181.0" stroke="black" stroke-width="2" fill="none" />
<polyline points="237.0,169.0,248.5,164.5,253.5,167.0,265.5,162.0" stroke="black" stroke-width="2" fill="none" />
<polyline points="260.5,177.5,272.5,177.5,284.0,172.5,296.0,166.5" stroke="black" stroke-width="2" fill="none" />
<polyline points="281.0,174.0,298.0,173.5,314.5,173.0,330.5,172.0,346.5,171.0,361.5,170.0,378.5,169.0,395.5,168.5,411.5,168.5,426.5,168.5" stroke="black" stroke-width="2" fill="none" />
<polyline points="435.0,159.5,447.0,158.0" stroke="black" stroke-width="2" fill="none" />
<polyline points="447.0,163.5,449.0,160.5,449.0,148.5,452.5,136.5,464.5,127.5,473.5,114.0,482.5,111.0,491.5,99.5,488.5,104.5,477.0,112.0,465.0,128.5,453.0,134.5" stroke="black" stroke-width="2" fill="none" />
<polyline points="433.0,95.5,416.5,107.5,409.0,113.5,419.5,106.0,432.0,97.0,432.0,91.0,444.0,88.0,456.5,88.0,468.5,89.5,481.0,89.0,493.0,84.5,499.0,90.5,510.5,87.0" stroke="black" stroke-width="2" fill="none" />
<polyline points="460.0,71.5,448.0,71.5,436.0,71.5,424.0,67.0" stroke="black" stroke-width="2" fill="none" />
<polyline points="424.0,67.0,430.0,78.0,425.5,90.0,417.5,99.0,429.5,84.0,440.5,76.5,452.0,76.0,463.5,76.0,469.5,81.5" stroke="black" stroke-width="2" fill="none" />
<polyline points="406.5,122.5,393.5,116.5,381.5,115.5,369.5,115.5" stroke="black" stroke-width="2" fill="none" />
<polyline points="356.0,118.0,366.5,123.0,351.0,135.0,352.5,142.0,349.5,158.0,354.0,166.5,349.5,177.5,353.5,185.0,352.0,193.0,359.5,197.5,362.5,210.0,374.5,207.0,389.5,214.5,402.0,216.0,402.0,223.0,414.0,218.5,426.5,219.5,442.0,209.0,454.5,210.5,471.0,210.5,478.5,209.0,484.5,216.5,496.5,215.0,505.5,209.0,508.0,202.0" stroke="black" stroke-width="2" fill="none" />
<polyline points="507.5,243.5,495.5,249.5,484.0,249.5,472.0,246.5,460.0,239.0,448.0,230.0" stroke="black" stroke-width="2" fill="none" />
<polyline points="448.0,230.0,455.5,242.0,460.0,250.0,455.0,256.0,464.0,268.0,476.0,273.5,485.0,260.0,496.5,262.5" stroke="black" stroke-width="2" fill="none" />
<polyline points="448.0,262.5,435.5,256.0,423.5,250.0" stroke="black" stroke-width="2" fill="none" />
<polyline points="408.5,255.5,411.5,259.0,416.0,271.0,421.5,280.0,428.5,291.0,428.5,301.5,416.5,315.0,422.5,324.0,434.5,328.5,437.5,333.0,458.0,339.0" stroke="black" stroke-width="2" fill="none" />
<polyline points="438.0,334.5,435.0,330.0,423.0,325.5" stroke="black" stroke-width="2" fill="none" />
<polyline points="417.5,320.0,429.5,320.0,441.5,324.5,453.5,335.5,465.5,338.5,477.5,342.0" stroke="black" stroke-width="2" fill="none" />
<polyline points="426.5,317.0,410.0,318.0" stroke="black" stroke-width="2" fill="none" />
<polyline points="422.5,313.0,434.5,313.0,447.0,308.0" stroke="black" stroke-width="2" fill="none" />
<polyline points="423.5,284.0,407.5,284.5" stroke="black" stroke-width="2" fill="none" />
<polyline points="414.0,281.5,426.0,279.5,437.5,287.5" stroke="black" stroke-width="2" fill="none" />
<polyline points="449.5,286.5,437.5,280.5,431.5,282.5,419.5,275.0" stroke="black" stroke-width="2" fill="none" />
<polyline points="422.5,266.0,405.0,267.0" stroke="black" stroke-width="2" fill="none" />
<polyline points="408.5,276.5,412.5,289.0,413.0,300.5,413.0,312.5,410.5,324.5,409.0,336.0,405.5,348.0,410.0,350.0" stroke="black" stroke-width="2" fill="none" />
<polyline points="398.5,354.5,386.5,345.5" stroke="black" stroke-width="2" fill="none" />
<polyline points="376.0,338.5,360.5,339.0,344.5,339.0,329.5,340.0,314.0,341.5,297.5,341.5,280.5,341.5,264.0,341.5,248.5,342.0,233.0,343.5,217.0,344.5,201.0,344.5,184.5,345.0,168.5,344.5,152.0,345.0,136.5,345.5,121.0,346.5,104.5,347.0" stroke="black" stroke-width="2" fill="none" />
<polyline points="100.5,325.5,117.0,326.0,133.0,327.5,149.0,328.5,166.0,329.0,182.5,329.0" stroke="black" stroke-width="2" fill="none" />
<polyline points="185.5,344.5,170.0,359.5" stroke="black" stroke-width="2" fill="none" />
<polyline points="185.0,360.5,201.0,346.0" stroke="black" stroke-width="2" fill="none" />
<polyline points="199.5,353.0,215.5,337.5,231.5,322.5" stroke="black" stroke-width="2" fill="none" />
<polyline points="248.5,326.5,231.5,342.5,214.5,358.5" stroke="black" stroke-width="2" fill="none" />
<polyline points="200.0,355.5,216.5,355.5,233.5,354.5,250.0,353.0" stroke="black" stroke-width="2" fill="none" />
<polyline points="247.0,362.0,263.0,347.0" stroke="black" stroke-width="2" fill="none" />
<polyline points="267.0,351.5,265.5,341.5,261.0,322.0,253.5,310.0,261.0,297.5,260.5,287.0,253.0,276.5,254.5,267.0,237.0,271.5,234.0,276.0,224.0,293.5,212.0,313.0,204.5,308.5,202.0,301.5,190.0,309.5,193.5,302.5,198.0,290.5,193.5,289.5,184.5,280.5,179.5,269.0,180.5,261.5,174.5,257.0,181.0,244.5,181.0,232.0,181.0,219.5,188.5,216.0,197.5,203.5,209.5,200.0,214.0,186.5,229.0,183.5,221.5,168.5,209.5,164.5,223.0,164.5,214.5,155.5,217.5,148.0,209.5,136.0,217.0,125.5,213.5,113.0,207.5,110.5,220.5,101.0,211.5,95.0,226.5,87.5,220.5,83.0,222.0,74.5,219.0,63.0,225.0,53.0,234.0,41.5,247.5,29.5,247.5,23.5,241.5,11.0,249.0,5.5,236.0,4.0" stroke="black" stroke-width="2" fill="none" />
<polyline points="231.0,4.5,215.0,20.0,199.0,37.0" stroke="black" stroke-width="2" fill="none" />
<polyline points="189.5,32.5,209.0,38.5,219.0,50.5,198.0,61.0,189.0,73.5,177.5,76.5,190.5,85.0,185.5,86.5,182.5,98.0,175.0,99.5,178.0,111.0,172.0,123.0,166.5,142.5,157.5,155.0,147.0,159.5,151.5,171.5,156.0,174.5,144.0,182.0" stroke="black" stroke-width="2" fill="none" />
<polyline points="133.0,197.0,150.0,196.0,166.0,194.5,182.5,194.0" stroke="black" stroke-width="2" fill="none" />
<polyline points="188.5,188.5,200.5,188.5" stroke="black" stroke-width="2" fill="none" />
<polyline points="199.5,186.0,183.0,201.0,166.5,215.5,150.0,230.0" stroke="black" stroke-width="2" fill="none" />
<polyline points="151.5,229.5,147.0,229.5,144.0,241.5,142.5,253.5,149.5,251.0,151.0,237.5,164.0,234.5" stroke="black" stroke-width="2" fill="none" />
<polyline points="180.0,250.0,196.5,249.5,212.5,249.0,229.0,249.0,245.5,248.5,262.0,248.5,278.0,248.5,293.5,248.0,309.0,248.0,325.0,247.5" stroke="black" stroke-width="2" fill="none" />
<polyline points="313.0,244.5,304.5,256.5,288.0,268.5" stroke="black" stroke-width="2" fill="none" />
<polyline points="309.0,277.5,293.0,277.5,277.5,278.5,262.5,280.0,247.0,281.0,231.5,281.0,215.5,281.5" stroke="black" stroke-width="2" fill="none" />
<polyline points="201.0,267.5,216.5,267.0,231.5,266.0,247.0,265.0,262.5,264.5,279.0,264.5,295.0,263.5,311.0,263.0" stroke="black" stroke-width="2" fill="none" />
<polyline points="322.5,269.0,318.0,270.5,310.5,282.5" stroke="black" stroke-width="2" fill="none" />
<polyline points="294.0,299.5,310.0,299.5,326.5,298.5,343.0,297.5,360.0,297.0" stroke="black" stroke-width="2" fill="none" />
<polyline points="366.0,283.0,369.0,284.5,369.5,296.5,370.5,308.5" stroke="black" stroke-width="2" fill="none" />
<polyline points="374.5,308.5,357.0,293.5,355.5,287.5,349.5,298.0,357.0,293.5,360.0,281.5,370.5,279.5,353.5,272.5,343.0,262.5,342.5,250.5,346.0,241.5,345.5,230.0,332.0,230.0" stroke="black" stroke-width="2" fill="none" />
<polyline points="328.0,231.5,344.0,215.0,361.0,198.5,377.5,182.5,393.0,166.5" stroke="black" stroke-width="2" fill="none" />
<polyline points="378.5,170.0,362.5,185.5,346.0,202.0,329.5,218.5" stroke="black" stroke-width="2" fill="none" />
<polyline points="327.0,212.0,343.5,211.0" stroke="black" stroke-width="2" fill="none" />
<polyline points="339.0,209.5,351.0,212.5,355.5,232.5,377.0,240.0,380.0,243.0,398.5,251.0,395.5,263.0,397.5,273.5,400.5,285.5,400.0,298.0,400.0,310.0,401.5,322.0,403.5,330.5,397.5,348.5,394.0,353.0" stroke="black" stroke-width="2" fill="none" />
<polyline points="415.0,345.5,401.0,344.0,389.0,341.0,384.0,353.0,376.5,346.0,369.0,350.5,355.5,347.5,343.5,344.0,329.5,342.5,317.5,339.5,314.5,348.0,300.0,352.5,292.5,352.5,287.0,352.0,285.5,340.0,288.5,319.0,286.0,312.0,292.0,300.5,297.0,290.5,289.5,284.5,297.0,274.5,303.0,261.0,323.5,257.0,330.5,245.0,333.5,233.0,337.0,226.5,328.0,224.5,328.0,212.0,316.0,196.5,325.0,185.5,325.0,171.5,341.5,165.5,337.0,164.0,341.5,152.0,341.5,140.5,334.0,139.0,342.0,127.0,342.0,115.0,334.0,103.0,323.5,97.0,330.5,84.5,339.5,64.0,345.0,50.0,333.0,54.5,321.0,51.5" stroke="black" stroke-width="2" fill="none" />
<polyline points="321.0,50.5,333.0,40.0,340.0,34.0,341.5,44.5,345.5,52.5,329.0,64.5,323.5,67.5,335.0,61.5" stroke="black" stroke-width="2" fill="none" />
<polyline points="341.0,57.5,325.0,58.0,309.5,58.5,293.5,58.5" stroke="black" stroke-width="2" fill="none" />
<polyline points="298.5,63.0,310.5,78.0" stroke="black" stroke-width="2" fill="none" />
<polyline points="314.0,79.0,329.5,78.0,344.5,76.5,360.5,75.5" stroke="black" stroke-width="2" fill="none" />
<polyline points="347.5,79.5,344.5,91.5" stroke="black" stroke-width="2" fill="none" />
<polyline points="335.0,97.5,347.0,94.5,344.5,97.5,357.0,104.0,369.5,93.5,382.0,90.0,394.0,83.0,406.0,92.0,407.5,87.5" stroke="black" stroke-width="2" fill="none" />
<polyline points="408.0,133.0,400.5,135.0,396.0,138.0,392.0,129.0,393.5,116.5,387.5,109.0,375.5,109.0,363.5,111.5,351.5,111.5" stroke="black" stroke-width="2" fill="none" />
<polyline points="350.5,106.0,362.5,108.0,374.5,106.5,386.5,103.0,398.5,101.5,401.5,111.5" stroke="black" stroke-width="2" fill="none" />
<polyline points="405.0,140.0,388.5,143.0,376.5,152.0,365.0,158.0,360.5,146.0,348.5,149.0,348.5,156.5" stroke="black" stroke-width="2" fill="none" />
<polyline points="360.5,160.0,375.0,158.5,374.0,171.0,374.5,192.0,388.0,205.5,389.5,222.0,416.5,232.5,436.0,239.0,434.5,242.5,428.0,255.0,449.0,264.0,467.0,267.0,482.0,273.0,486.5,277.0,509.5,289.0,502.0,284.5" stroke="black" stroke-width="2" fill="none" />
<polyline points="505.5,231.0,493.5,228.5,488.0,231.5,479.0,228.5,462.5,211.5,454.5,205.5,448.5,201.0,462.0,196.5,473.0,198.0,461.0,201.0,449.5,197.5,437.5,205.0,426.0,200.5,414.0,199.0" stroke="black" stroke-width="2" fill="none" />
<polyline points="419.5,198.0,434.5,183.0" stroke="black" stroke-width="2" fill="none" />
<polyline points="424.5,183.0,408.0,198.0" stroke="black" stroke-width="2" fill="none" />
<polyline points="407.0,189.0,418.5,189.5,432.0,190.5,435.0,187.5,447.0,190.5" stroke="black" stroke-width="2" fill="none" />
<polyline points="442.0,184.0,430.0,187.0,427.0,194.5,415.0,193.0,402.5,192.5,390.5,192.5,387.5,195.5,375.5,195.5" stroke="black" stroke-width="2" fill="none" />
<polyline points="376.0,198.5,392.0,183.0" stroke="black" stroke-width="2" fill="none" />
<polyline points="409.5,170.0,405.0,171.5,394.5,175.5,411.0,178.5,411.0,198.5,408.5,216.5,410.0,221.0,422.5,228.5,429.0,239.0,442.0,237.5,454.0,248.0,464.0,263.0,475.5,264.5,485.5,270.5,497.0,271.5,506.0,258.0,505.5,247.5,507.0,253.5" stroke="black" stroke-width="2" fill="none" />
<polyline points="507.0,238.0,507.0,235.5,490.5,237.0,484.0,224.0,471.5,222.5,459.5,225.5,455.5,220.5,449.5,218.5,442.0,230.0,437.5,216.0,425.5,214.0,425.5,210.5,413.5,207.5,401.5,210.5,400.0,204.5,388.0,205.0" stroke="black" stroke-width="2" fill="none" />
<polyline points="369.5,224.0,357.5,222.5" stroke="black" stroke-width="2" fill="none" />
<polyline points="358.0,220.0,341.5,235.0" stroke="black" stroke-width="2" fill="none" />
<polyline points="345.5,232.5,357.5,240.0,369.5,247.0,384.5,241.0,397.0,247.0,416.5,257.5,428.5,262.0,429.5,263.5,441.5,263.5,448.5,257.5" stroke="black" stroke-width="2" fill="none" />
<polyline points="447.0,253.0,435.5,251.5,434.0,245.5,422.5,247.0,410.5,244.0,399.0,241.0,387.0,235.0,375.0,235.0,363.5,230.5,351.5,224.5" stroke="black" stroke-width="2" fill="none" />
<polyline points="346.5,226.5,360.5,242.0,357.0,244.5,367.5,244.5,368.5,256.0" stroke="black" stroke-width="2" fill="none" />
<polyline points="369.0,255.5,381.0,258.5,392.5,257.5" stroke="black" stroke-width="2" fill="none" />
<polyline points="391.5,244.0,407.0,228.0" stroke="black" stroke-width="2" fill="none" />
<polyline points="384.0,253.0,371.5,251.5,359.5,251.5" stroke="black" stroke-width="2" fill="none" />
<polyline points="358.0,268.5,369.5,275.0,381.5,270.5,393.5,271.0,414.5,275.5,417.5,263.5,429.5,276.0,441.5,279.0" stroke="black" stroke-width="2" fill="none" />
<polyline points="447.0,282.5,432.0,270.5" stroke="black" stroke-width="2" fill="none" />
<polyline points="389.5,265.5,377.5,265.0,365.5,260.5,353.5,265.5,341.5,264.0" stroke="black" stroke-width="2" fill="none" />
<polyline points="322.5,306.5,334.5,302.5,346.5,314.0" stroke="black" stroke-width="2" fill="none" />
<polyline points="340.5,312.0,323.5,311.5,306.5,312.0,291.0,312.5,276.0,313.0,261.0,312.5,245.5,312.5,230.0,312.5,213.5,313.5" stroke="black" stroke-width="2" fill="none" />
<polyline points="220.0,307.0,225.0,295.0,226.5,281.5,211.5,283.0,208.5,270.5,209.5,259.0,219.5,242.5,216.0,230.5,203.5,218.0,218.5,216.5,223.0,207.5,229.5,195.5,243.0,180.0,226.5,165.0,235.0,160.5,248.5,154.0,255.0,142.0,268.5,138.5,267.5,126.5,263.0,122.0,267.5,116.5,266.0,105.0,276.5,115.5,278.0,110.0,266.0,108.5,263.0,107.0,251.0,107.0,234.0,118.0,237.5,106.0,236.0,95.0" stroke="black" stroke-width="2" fill="none" />
<polyline points="238.0,99.5,250.0,99.0,261.5,97.0,267.5,97.0,276.0,98.5,283.0,104.5,289.0,117.0,283.5,121.5,286.5,133.5,286.5,144.0,280.5,149.0,286.5,156.5,279.5,167.0,282.0,167.0,294.0,157.0" stroke="black" stroke-width="2" fill="none" />
<polyline points="316.5,155.0,332.0,154.5,346.0,154.0,360.5,153.0,375.5,152.0,391.5,151.0" stroke="black" stroke-width="2" fill="none" />
<polyline points="380.0,136.5,374.0,148.5,372.5,159.5,360.0,161.0,361.5,173.5,364.5,175.0,372.0,167.5,392.0,158.5,404.0,158.5,416.0,158.5" stroke="black" stroke-width="2" fill="none" />
<polyline points="416.5,175.5,400.0,171.5,392.5,175.0,380.5,169.0,379.5,157.5,367.5,148.5" stroke="black" stroke-width="2" fill="none" />
<polyline points="355.0,168.0,340.0,183.0,324.5,198.5,308.5,214.5" stroke="black" stroke-width="2" fill="none" />
<polyline points="322.0,216.5,326.5,229.0,327.0,240.5,322.5,245.0,319.0,247.5,329.5,247.5" stroke="black" stroke-width="2" fill="none" />
<polyline points="350.0,217.0,362.5,217.0,374.5,217.0,386.5,221.5,398.0,241.0,412.5,244.0,424.5,261.5,450.5,274.0,455.0,286.0,466.0,299.0,463.0,302.0,475.0,302.0,488.5,296.0,499.0,300.5,510.5,305.0" stroke="black" stroke-width="2" fill="none" />
<polyline points="455.0,301.5,443.0,302.5,431.0,303.0,419.0,313.5,406.5,333.0,391.5,327.0,379.5,327.0,367.5,321.0,364.5,328.5,353.0,325.5,341.0,318.0,329.5,309.0,323.5,289.0,312.0,293.5,300.0,293.0,286.0,293.0,274.0,294.0" stroke="black" stroke-width="2" fill="none" />
<polyline points="264.0,299.5,248.0,299.0,232.5,299.5" stroke="black" stroke-width="2" fill="none" />
<polyline points="239.5,290.5,251.5,291.5" stroke="black" stroke-width="2" fill="none" />
<polyline points="254.0,306.0,266.0,296.0,275.0,290.0,287.0,287.5,301.5,286.0,304.5,280.0,316.5,279.5" stroke="black" stroke-width="2" fill="none" />
<polyline points="335.5,271.0,323.5,269.5,325.0,256.0,308.5,244.5,308.5,251.5,296.5,262.0,287.5,265.5,284.5,273.0,272.5,276.0,263.0,280.5,279.5,265.5,261.5,262.5,272.0,250.0,278.0,238.0,278.0,226.0,276.5,214.0,269.0,210.0,258.5,208.5,258.5,196.0,252.5,195.0,240.5,195.0,222.0,201.0,213.0,220.5,205.5,217.5,195.0,210.0,189.0,225.0,186.5,219.0,167.0,220.5,158.5,213.0,163.0,203.5,151.5,208.0,166.5,201.5,160.0,198.5,148.0,204.0,137.5,215.0,130.5,207.5,124.5,217.5,120.0,217.5,108.0,217.0,95.5,215.5,83.5,219.0,71.5,224.0,67.0,222.5,67.0,216.5,58.0,216.5,44.5,216.5,32.5,216.5,20.5,213.0,8.5,216.5,10.0,218.5,14.5,203.5,11.5,185.5,10.5,178.5,19.0,172.5,9.0,171.0,14.0,159.0,30.5,153.0,45.0,150.0,39.0,139.0,33.0,136.0,9.0,143.0,13.5,149.0,15.0,135.0,3.0,141.0" stroke="black" stroke-width="2" fill="none" />
<polyline points="8.5,141.0,25.0,139.5,41.5,138.5,56.5,137.5,71.0,136.0,86.0,134.5" stroke="black" stroke-width="2" fill="none" />
<polyline points="82.5,127.0,94.5,127.0,106.5,123.5,118.5,123.5,130.5,123.5,142.5,122.0,154.0,123.5" stroke="black" stroke-width="2" fill="none" />
<polyline points="144.0,132.5,145.5,137.0,135.5,144.5,134.0,156.5,128.0,168.0,132.0,174.5" stroke="black" stroke-width="2" fill="none" />
<polyline points="123.5,172.5,138.5,172.0,153.0,170.5,168.0,169.0,184.0,168.0,199.0,167.5,214.5,167.0,231.0,166.5,247.0,166.5" stroke="black" stroke-width="2" fill="none" />
<polyline points="267.5,181.0,279.5,182.5,299.5,191.5,302.5,200.5,308.5,204.5,311.5,216.5,319.0,214.5,319.0,227.0,311.0,240.5,296.0,245.0,293.0,257.5,286.0,265.0,287.5,247.0" stroke="black" stroke-width="2" fill="none" />
<polyline points="279.0,218.0,261.5,218.5,245.0,219.0" stroke="black" stroke-width="2" fill="none" />
<polyline points="240.5,228.0,240.5,240.0" stroke="black" stroke-width="2" fill="none" />
<polyline points="264.5,255.5,252.5,260.0,235.5,272.0,235.0,263.0,247.0,243.5,253.0,232.0,249.0,223.0,240.0,203.5,237.0,206.0" stroke="black" stroke-width="2" fill="none" />
<polyline points="227.5,208.5,227.5,210.0,224.5,222.0,225.0,234.0,225.5,246.0,224.0,258.0,216.0,269.0,219.0,284.0,217.5,296.5,232.5,310.0,240.0,323.5,223.5,326.5,206.5,337.0,208.0,332.5,212.0,334.5,224.0,331.5,230.5,328.5,242.0,322.5" stroke="black" stroke-width="2" fill="none" />
<polyline points="261.0,319.0,272.5,325.0,281.0,320.5,290.0,314.5" stroke="black" stroke-width="2" fill="none" />
<polyline points="319.0,320.0,322.5,318.0,327.5,330.0,312.5,339.0,324.5,351.0,320.5,343.5,332.0,348.0,347.5,336.0" stroke="black" stroke-width="2" fill="none" />
<polyline points="346.0,322.5,329.5,324.0,313.0,325.5,297.0,326.5,282.0,327.5,265.0,329.5,249.0,332.0,233.0,333.5,217.0,334.5,200.5,335.0" stroke="black" stroke-width="2" fill="none" />
<polyline points="184.0,312.0,167.5,312.5,150.0,313.5,133.5,314.0,117.5,313.0,101.5,313.5" stroke="black" stroke-width="2" fill="none" />
<polyline points="116.5,295.5,100.5,296.5,85.0,297.5,69.5,298.5,54.0,299.5" stroke="black" stroke-width="2" fill="none" />
<polyline points="54.5,292.0,71.0,276.0" stroke="black" stroke-width="2" fill="none" />
<polyline points="72.0,275.5,78.5,274.0,71.5,274.0,84.0,265.0,90.0,265.5" stroke="black" stroke-width="2" fill="none" />
<polyline points="83.5,262.5,95.5,257.5,89.5,254.5,81.5,257.5,93.5,264.0,72.0,273.0,70.5,284.5,57.0,287.5,55.5,299.0,42.5,306.5,29.0,318.5,14.0,325.0,16.5,332.5,3.5,344.0,11.0,336.5,23.0,327.5,18.5,317.0,18.5,325.5,38.0,316.5,50.0,310.0,60.5,296.0,72.5,293.0,84.0,290.0,96.0,280.0,109.0,265.0,121.0,262.5" stroke="black" stroke-width="2" fill="none" />
<polyline points="119.0,277.0,104.0,275.5,88.5,275.5,73.5,276.5,58.0,278.5,42.5,280.0,26.5,280.5,11.0,281.5" stroke="black" stroke-width="2" fill="none" />
<polyline points="12.5,280.0,28.5,265.0" stroke="black" stroke-width="2" fill="none" />
<polyline points="24.5,275.5,8.5,292.0" stroke="black" stroke-width="2" fill="none" />
<polyline points="9.5,293.5,9.5,281.5,21.5,286.0,33.5,285.5,36.0,287.0" stroke="black" stroke-width="2" fill="none" />
<polyline points="42.0,295.5,54.0,294.0" stroke="black" stroke-width="2" fill="none" />
<polyline points="55.5,308.5,54.0,316.0,42.0,327.5,46.5,327.0,59.0,328.5" stroke="black" stroke-width="2" fill="none" />
<polyline points="71.5,333.0,56.0,333.0,40.5,333.0,25.0,332.5" stroke="black" stroke-width="2" fill="none" />
<polyline points="19.5,341.0,4.5,356.5" stroke="black" stroke-width="2" fill="none" />
<polyline points="4.5,350.5,21.5,350.0,39.0,349.0,55.5,347.5,71.0,345.5,87.0,345.0" stroke="black" stroke-width="2" fill="none" />
<polyline points="69.5,344.0,53.5,358.5" stroke="black" stroke-width="2" fill="none" />
<polyline points="42.5,362.0,59.0,347.0" stroke="black" stroke-width="2" fill="none" />
<polyline points="68.0,354.0,80.0,352.5,92.0,343.5,104.0,340.5,116.0,336.0,119.0,345.0,118.5,351.0" stroke="black" stroke-width="2" fill="none" />
<polyline points="148.5,356.5,164.0,340.0" stroke="black" stroke-width="2" fill="none" />
<polyline points="155.0,342.5,138.5,357.5" stroke="black" stroke-width="2" fill="none" />
<polyline points="134.5,341.5,151.5,326.0" stroke="black" stroke-width="2" fill="none" />
<polyline points="163.5,301.5,175.5,306.0,190.5,302.0,202.5,294.5" stroke="black" stroke-width="2" fill="none" />
<polyline points="201.0,302.5,199.5,314.5,185.0,331.0,188.5,336.0,201.0,331.5" stroke="black" stroke-width="2" fill="none" />
<polyline points="230.5,357.5,246.0,343.0,261.0,327.5" stroke="black" stroke-width="2" fill="none" />
<polyline points="259.5,333.5,260.0,345.5,252.5,348.5,255.5,351.0,258.5,337.5" stroke="black" stroke-width="2" fill="none" />
<polyline points="285.0,346.0,297.0,356.5,300.0,349.0" stroke="black" stroke-width="2" fill="none" />
<polyline points="321.0,324.5,333.0,330.5,345.5,333.5" stroke="black" stroke-width="2" fill="none" />
<polyline points="349.0,317.5,337.0,305.5,325.0,292.0,336.0,290.0,335.0,273.5,327.5,271.5,335.5,269.5,337.0,254.5,341.5,242.5,341.0,230.5,341.0,218.5,337.5,207.0,336.0,200.0,347.0,194.5,347.5,190.5,355.0,174.0,346.0,176.0,346.0,164.0,337.5,161.0,329.5,160.5,329.5,148.5,321.5,140.5,314.0,137.5,313.5,125.0,311.0,121.0,314.5,114.5,317.5,102.5,304.0,92.0,292.0,93.5,286.0,81.5,285.5,69.5,291.5,66.0,288.5,54.0,279.0,42.0,265.5,30.5,258.0,13.0,259.5,5.5,253.5,13.0" stroke="black" stroke-width="2" fill="none" />
<polyline points="247.5,22.5,231.0,39.0" stroke="black" stroke-width="2" fill="none" />
<polyline points="239.5,45.5,232.0,57.5,236.5,62.0,232.0,68.0,224.5,75.5,236.5,72.0,236.5,67.5,248.5,66.0,260.5,67.5,272.5,65.5,284.5,67.0,296.5,70.0,308.0,74.5,320.5,82.5,334.0,78.0,354.0,63.5,374.5,55.5,386.5,49.5,401.5,49.5,406.0,44.0" stroke="black" stroke-width="2" fill="none" />
<polyline points="399.5,37.5,397.0,54.0,400.0,66.0,398.5,78.0,386.5,90.0,371.5,96.0,355.0,117.0,355.5,130.5,367.5,123.0,379.0,120.5,391.0,122.0,403.0,119.0,409.0,126.0,413.5,122.5" stroke="black" stroke-width="2" fill="none" />
<polyline points="347.0,146.5,344.0,142.0,345.0,130.5,346.5,118.5,340.5,106.5,333.0,102.0" stroke="black" stroke-width="2" fill="none" />
<polyline points="321.5,110.0,329.0,113.0,325.5,125.0,328.5,127.0" stroke="black" stroke-width="2" fill="none" />
<polyline points="310.5,133.0,299.0,133.0" stroke="black" stroke-width="2" fill="none" />
<polyline points="298.5,112.5,300.0,123.0,298.0,122.0,308.5,138.5,310.0,151.0,307.0,155.5" stroke="black" stroke-width="2" fill="none" />
<polyline points="293.5,186.5,305.5,189.5" stroke="black" stroke-width="2" fill="none" />
<polyline points="285.5,193.0,295.5,205.0,302.5,213.5,314.5,219.5,316.0,231.0,315.5,243.0,312.5,255.0,318.5,264.0,305.0,264.5,307.5,268.0,321.0,284.5,330.0,287.5,342.0,290.0,354.0,282.0,360.5,285.0,369.5,290.5,381.0,287.5" stroke="black" stroke-width="2" fill="none" />
<polyline points="366.0,320.0,374.0,332.0,362.0,343.5,370.0,354.0" stroke="black" stroke-width="2" fill="none" />
<polyline points="375.5,333.0,363.0,342.0,351.0,351.5,344.0,351.0,342.5,339.5,348.5,330.5,341.0,318.5,323.0,307.0" stroke="black" stroke-width="2" fill="none" />
<polyline points="335.5,205.5,347.5,202.5,365.5,205.0" stroke="black" stroke-width="2" fill="none" />
<polyline points="367.0,188.0,371.5,200.0,374.5,209.0,361.0,216.5,377.5,219.5,379.0,228.5,391.0,233.0,403.0,238.0,406.0,233.0,418.0,236.0,436.0,242.0,448.0,243.5,460.5,249.5,468.0,256.0,480.0,258.5,491.5,255.5,503.5,258.5" stroke="black" stroke-width="2" fill="none" />
<polyline points="376.5,87.5,364.5,81.5,358.5,89.0,355.5,77.0,356.0,61.0,351.5,55.0,339.5,65.5,327.5,68.5" stroke="black" stroke-width="2" fill="none" />
<polyline points="327.0,54.5,311.0,69.5" stroke="black" stroke-width="2" fill="none" />
<polyline points="306.5,55.0,322.5,39.0" stroke="black" stroke-width="2" fill="none" />
<polyline points="317.5,29.0,329.0,24.5,341.0,25.0,353.0,22.0,360.5,16.5,372.5,22.5" stroke="black" stroke-width="2" fill="none" />
<polyline points="373.5,10.0,357.5,12.0,342.0,13.0" stroke="black" stroke-width="2" fill="none" />
<polyline points="344.0,7.5,341.0,19.5,326.5,34.5,322.0,47.0,323.5,66.5,327.0,80.5,299.5,93.0,305.5,91.0" stroke="black" stroke-width="2" fill="none" />
<polyline points="307.0,86.0,295.0,87.5" stroke="black" stroke-width="2" fill="none" />
<polyline points="301.5,77.5,285.5,82.0,273.5,84.0,261.5,79.0" stroke="black" stroke-width="2" fill="none" />
<polyline points="281.5,76.0,266.5,75.0,263.5,72.5,254.0,76.0,242.0,76.5,229.5,80.0,217.5,85.5,216.0,81.0,204.0,85.5" stroke="black" stroke-width="2" fill="none" />
<polyline points="188.5,77.0,200.5,74.0,206.0,67.5,201.5,76.5,201.5,88.0,204.5,91.5,197.0,103.5,189.5,109.5,195.5,120.5,197.5,132.5,196.0,146.0,199.0,158.0,201.5,165.5,193.5,165.0,183.0,174.0,181.5,186.0,175.5,197.5,186.5,206.5,194.0,195.0,201.5,193.5,214.0,195.0,215.0,194.0,218.0,188.0,230.0,184.0,242.0,182.5" stroke="black" stroke-width="2" fill="none" />
<polyline points="230.5,195.5,215.0,196.0,199.5,197.0,184.5,198.0,169.0,198.5,152.0,200.0,135.5,201.0,119.5,202.0,103.0,202.5,86.5,203.5,71.0,203.0,55.5,203.5,39.5,203.5,24.5,203.5,9.0,203.5" stroke="black" stroke-width="2" fill="none" />
<polyline points="10.0,199.0,25.5,183.5" stroke="black" stroke-width="2" fill="none" />
<polyline points="23.0,180.5,34.5,182.0,48.0,183.5,51.0,188.0" stroke="black" stroke-width="2" fill="none" />
<polyline points="37.5,180.0,22.0,196.0" stroke="black" stroke-width="2" fill="none" />
<polyline points="22.5,195.0,34.5,193.0,46.5,193.5" stroke="black" stroke-width="2" fill="none" />
<polyline points="37.5,196.0,53.5,180.0,69.5,165.0" stroke="black" stroke-width="2" fill="none" />
<polyline points="70.5,151.5,53.5,167.0" stroke="black" stroke-width="2" fill="none" />
<polyline points="70.0,193.0,82.0,190.5,94.5,190.5,99.0,189.5,111.5,187.5,123.5,187.5" stroke="black" stroke-width="2" fill="none" />
<polyline points="117.5,186.5,102.0,201.5" stroke="black" stroke-width="2" fill="none" />
<polyline points="137.5,210.5,152.5,195.0,167.0,180.0,182.0,164.5" stroke="black" stroke-width="2" fill="none" />
<polyline points="181.5,149.0,165.5,165.0,150.0,180.0,134.5,196.0,118.5,212.0" stroke="black" stroke-width="2" fill="none" />
<polyline points="119.5,196.0,135.5,180.0,151.0,164.5,167.0,149.0" stroke="black" stroke-width="2" fill="none" />
<polyline points="170.0,152.0,171.5,164.5" stroke="black" stroke-width="2" fill="none" />
<polyline points="187.5,183.0,172.0,198.5,155.0,213.0" stroke="black" stroke-width="2" fill="none" />
<polyline points="150.0,200.5,145.5,212.5,142.5,219.5,134.0,233.0,108.0,245.0,103.0,249.5,100.5,262.0,99.5,274.0,105.5,283.0,102.5,284.5,83.0,296.5,68.0,298.0,78.5,308.5,84.5,310.0,75.5,316.0,80.0,319.0,92.0,314.0,93.5,306.5,104.0,303.5,112.0,297.5,124.0,291.5,136.0,287.0,143.0,290.0,149.0,288.0,160.5,291.0,172.0,289.5,179.5,270.0,193.5,268.5,197.0,280.5,209.0,288.0" stroke="black" stroke-width="2" fill="none" />
<polyline points="222.0,272.0,209.5,269.0,197.0,260.0" stroke="black" stroke-width="2" fill="none" />
<polyline points="189.5,273.0,189.5,285.5,171.5,291.5,185.0,297.5,161.0,300.0,170.5,318.0,176.5,322.5,188.5,322.5" stroke="black" stroke-width="2" fill="none" />
<polyline points="165.0,296.0,147.5,296.0,131.0,296.5" stroke="black" stroke-width="2" fill="none" />
<polyline points="136.0,282.5,147.5,281.0" stroke="black" stroke-width="2" fill="none" />
<polyline points="144.5,282.0,144.5,294.0,136.5,307.5,141.0,309.0,150.0,310.0,162.0,308.5,163.0,312.5,175.0,320.0" stroke="black" stroke-width="2" fill="none" />
<polyline points="200.0,331.0,203.0,338.5,190.5,341.5,180.0,334.0,168.0,337.0,156.5,335.5,146.0,331.0,159.5,319.0,155.0,306.5,152.5,294.5" stroke="black" stroke-width="2" fill="none" />
<polyline points="120.5,262.5,104.5,262.5,88.5,263.5,72.0,265.0,56.0,265.5,40.0,266.0,24.5,267.0,9.0,267.5" stroke="black" stroke-width="2" fill="none" />
<polyline points="17.0,264.0,28.5,262.5,34.5,273.0,52.0,263.5,62.0,271.5" stroke="black" stroke-width="2" fill="none" />
<polyline points="61.0,256.0,73.0,253.5,84.5,247.5,96.5,244.0,108.5,239.5,120.0,233.5,132.0,229.0,135.0,244.5,126.5,258.0,119.0,259.5,113.5,269.0,116.5,288.5,111.5,300.0,108.5,312.0,101.0,322.0,89.0,328.5,92.0,334.5,84.5,348.0,71.0,344.0,88.0,336.5,100.0,333.5,97.0,327.5,107.0,332.0,112.5,313.5" stroke="black" stroke-width="2" fill="none" />
<polyline points="124.5,303.5,112.5,310.5,96.0,322.5,84.0,325.5,77.5,324.5,66.5,326.0,66.5,320.5,54.5,323.0,51.0,328.0,68.0,322.0,72.0,309.5,58.5,315.5,46.0,322.5" stroke="black" stroke-width="2" fill="none" />
<polyline points="35.5,318.5,52.0,317.5,68.5,316.5" stroke="black" stroke-width="2" fill="none" />
<polyline points="71.0,299.0,82.5,296.0,94.0,288.5,94.0,284.0" stroke="black" stroke-width="2" fill="none" />
<polyline points="90.0,280.5,74.0,296.0" stroke="black" stroke-width="2" fill="none" />
<polyline points="83.5,303.0,72.0,304.0,60.0,305.5,49.5,306.5,54.0,300.0,42.5,302.5,41.0,308.0,29.0,311.0,17.0,311.0,26.5,300.5,49.0,289.0,46.0,286.0,59.5,274.0,56.5,266.5,67.0,265.0,50.0,269.5,38.0,275.5,25.5,277.0,13.5,277.0" stroke="black" stroke-width="2" fill="none" />
<polyline points="7.0,276.5,19.5,275.0,31.5,269.0,44.0,258.5,56.0,256.0,67.5,251.5,80.0,248.5,91.5,242.5,103.5,238.0,115.5,232.0,127.5,227.5,139.5,224.5" stroke="black" stroke-width="2" fill="none" />
<polyline points="137.0,210.0,125.0,209.5,111.5,222.0,99.5,222.0,87.0,229.5,84.0,231.5,72.0,231.5,60.0,233.0,48.0,233.5,36.0,236.5,23.5,239.5,11.5,242.0" stroke="black" stroke-width="2" fill="none" />
<polyline points="8.5,238.0,24.5,237.0,40.5,236.5,56.5,235.5,73.0,234.0,89.0,232.5,104.5,231.5,120.5,231.0,136.5,231.0,152.0,231.0,168.0,230.5,184.5,230.5,201.5,229.5" stroke="black" stroke-width="2" fill="none" />
<polyline points="204.0,236.0,205.5,248.0,209.0,252.5,210.5,258.5" stroke="black" stroke-width="2" fill="none" />
<polyline points="201.0,216.5,185.0,217.5,168.5,218.0,153.0,218.5,138.0,218.5,122.0,218.0,104.5,219.0,88.0,219.5,72.0,220.5,56.0,220.5,40.5,221.5,24.0,222.0,7.0,223.0" stroke="black" stroke-width="2" fill="none" />
<polyline points="10.0,219.0,22.0,217.5,34.5,219.0,39.0,229.5,51.0,228.0,63.0,224.0,84.5,225.0,95.0,213.5,107.5,215.0,120.5,227.5,132.5,223.0" stroke="black" stroke-width="2" fill="none" />
<polyline points="125.5,239.5,112.0,251.5,118.5,260.0" stroke="black" stroke-width="2" fill="none" />
<polyline points="121.5,248.5,106.0,248.5,90.0,249.0,73.5,250.5,57.0,251.5,40.5,252.0,23.5,252.5,7.5,253.5" stroke="black" stroke-width="2" fill="none" />
<polyline points="1.5,250.0,4.5,243.0,9.0,249.0,12.0,252.0,17.0,252.0,29.0,251.5,41.5,242.5,46.0,246.0,53.5,238.5,58.0,243.0,65.5,244.0,77.5,241.5" stroke="black" stroke-width="2" fill="none" />
<polyline points="75.0,242.5,60.0,255.0,57.5,258.0,39.5,270.0,33.5,275.5,23.5,282.5,22.0,290.0,4.0,311.0,13.0,297.5,25.0,296.0,34.0,281.0" stroke="black" stroke-width="2" fill="none" />
<polyline points="25.5,296.5,8.5,297.0" stroke="black" stroke-width="2" fill="none" />
<polyline points="12.5,259.0,24.5,254.5,41.0,250.0" stroke="black" stroke-width="2" fill="none" />
<polyline points="36.5,240.5,28.0,234.0,16.0,234.0" stroke="black" stroke-width="2" fill="none" />
<polyline points="1.5,236.5,4.5,232.0,16.5,230.5,28.5,229.5,41.0,225.0" stroke="black" stroke-width="2" fill="none" />
<polyline points="46.5,238.0,36.0,242.5,22.5,259.0,15.0,271.0,4.5,282.5,12.5,283.5,11.5,309.0,4.5,310.5,16.5,303.0,18.0,307.5,30.0,300.0,42.0,294.0,42.0,283.5,54.0,279.0,53.5,274.5,67.0,262.5,78.5,259.5,90.5,252.0,102.5,247.5,108.5,253.0,120.5,245.5,127.5,249.0,135.5,240.0,146.0,231.5,149.0,228.0" stroke="black" stroke-width="2" fill="none" />
<polyline points="170.5,211.5,167.5,223.5,165.0,235.5,168.0,243.5,168.0,255.5,172.5,258.5,184.5,243.5" stroke="black" stroke-width="2" fill="none" />
<polyline points="176.0,270.0,162.5,273.0,152.5,272.0,139.0,272.0,126.5,281.0,119.0,273.5,106.5,275.0" stroke="black" stroke-width="2" fill="none" />
<polyline points="107.0,283.0,105.5,295.5,102.5,307.5,107.0,320.0,113.0,331.0,128.0,334.0,139.5,331.5,141.0,325.5,153.0,322.0,165.0,320.5,168.0,327.5,180.0,329.5,192.0,328.0,203.5,325.0,215.5,318.5" stroke="black" stroke-width="2" fill="none" />
<polyline points="127.5,347.0,125.0,346.0,113.0,340.5,101.5,353.0,89.5,355.0,109.0,346.0,119.5,334.5,116.5,325.5,118.0,305.5,137.0,293.5,134.0,289.0,134.0,277.0,156.5,270.5,163.5,262.5,163.5,251.0,171.0,239.0,177.0,228.5,177.0,216.5,184.5,207.5,189.0,191.0,188.5,183.0,184.0,171.0,185.5,159.0,180.0,158.0,171.0,160.0,165.0,167.5,166.0,165.5,164.5,153.5,155.5,139.0" stroke="black" stroke-width="2" fill="none" />
<polyline points="151.0,142.5,162.5,145.5,174.5,137.0" stroke="black" stroke-width="2" fill="none" />
<polyline points="165.5,137.0,148.5,137.5" stroke="black" stroke-width="2" fill="none" />
<polyline points="147.5,138.5,159.5,132.5,175.5,148.5,177.0,161.0,177.5,173.0,189.5,168.0,207.5,174.5,215.0,169.0,219.5,176.5,228.5,164.0,240.5,158.0" stroke="black" stroke-width="2" fill="none" />
<polyline points="272.5,166.5,260.5,171.0,249.0,176.0,237.0,176.0,262.5,166.0,261.0,150.5,265.5,149.0,252.0,131.0,253.5,118.5,252.0,111.0,250.5,125.0" stroke="black" stroke-width="2" fill="none" />
<polyline points="260.0,124.5,276.5,123.5" stroke="black" stroke-width="2" fill="none" />
<polyline points="275.0,102.5,287.0,110.0,283.5,127.0,290.5,130.5,297.5,139.5,308.0,139.5" stroke="black" stroke-width="2" fill="none" />
<polyline points="263.5,156.5,275.5,141.5,274.0,129.0,272.5,117.0,257.0,115.5,245.0,113.5" stroke="black" stroke-width="2" fill="none" />
<polyline points="238.0,103.5,247.0,109.5,239.5,121.5,240.0,133.5,258.0,138.0" stroke="black" stroke-width="2" fill="none" />
<polyline points="230.5,142.0,230.5,128.5,230.5,116.5,230.5,104.5,233.5,104.0,244.0,87.5,232.0,88.0" stroke="black" stroke-width="2" fill="none" />
<polyline points="227.5,82.0,239.5,80.5,251.5,78.0,260.5,85.5,272.5,87.0,284.5,87.0,287.5,97.5" stroke="black" stroke-width="2" fill="none" />
<polyline points="280.0,92.5,289.0,104.5,298.0,116.5,304.5,116.5,307.5,129.0,301.5,132.5,294.5,145.5,306.5,148.5,297.5,160.5,283.5,172.0" stroke="black" stroke-width="2" fill="none" />
<polyline points="280.5,190.0,288.0,202.0,285.5,214.0,282.5,226.0,282.5,238.0,282.0,250.0,272.5,265.0" stroke="black" stroke-width="2" fill="none" />
<polyline points="260.0,207.5,272.0,207.5,286.0,223.0,286.0,235.0,301.0,233.5,311.5,214.0,323.0,221.5,326.0,211.0,336.5,200.5,347.0,195.0,351.5,202.5,353.0,210.0,365.0,214.0,378.5,223.0,391.0,227.5,403.0,232.0,415.0,230.5" stroke="black" stroke-width="2" fill="none" />
<polyline points="327.5,157.0,315.5,159.5,303.5,172.0,297.5,168.0,309.5,164.0,322.0,149.5,317.0,140.5,317.0,128.5,316.5,117.0,309.0,114.0,297.0,112.5,285.0,103.5,273.0,97.5,261.5,91.5,249.5,93.0,237.5,92.5,225.0,94.5,216.0,88.5,204.0,91.5,191.5,96.0,178.0,91.5,169.0,94.5,161.5,105.0,149.5,94.0,146.5,102.5,134.5,101.5,130.0,102.5,132.0,93.0,140.0,82.5,125.5,70.5,130.5,67.5,118.5,70.5" stroke="black" stroke-width="2" fill="none" />
<polyline points="119.0,73.0,131.0,80.5,143.0,82.5,155.0,74.0" stroke="black" stroke-width="2" fill="none" />
<polyline points="166.0,63.5,175.5,51.5,161.5,63.5,161.5,55.0,173.5,46.5,185.5,43.5,190.0,39.0,202.0,43.0,214.5,42.5" stroke="black" stroke-width="2" fill="none" />
<polyline points="214.5,42.0,230.0,41.0,247.0,40.0" stroke="black" stroke-width="2" fill="none" />
<polyline points="247.5,31.0,233.0,31.0,217.0,31.5" stroke="black" stroke-width="2" fill="none" />
<polyline points="215.0,36.5,230.5,19.5,246.5,3.5" stroke="black" stroke-width="2" fill="none" />
<polyline points="233.5,17.5,218.5,18.5" stroke="black" stroke-width="2" fill="none" />
<polyline points="215.5,13.0,199.0,28.0,183.0,43.0" stroke="black" stroke-width="2" fill="none" />
<polyline points="184.0,43.0,168.5,44.0,153.0,45.0,137.5,46.0,121.5,46.5" stroke="black" stroke-width="2" fill="none" />
<polyline points="126.0,42.5,111.0,48.5,105.0,35.0,109.0,26.0,89.0,18.5,75.5,6.5,59.0,3.5" stroke="black" stroke-width="2" fill="none" />
<polyline points="65.5,14.5,85.0,26.5,91.5,41.0,100.0,45.5,95.0,55.5,94.5,61.5,93.0,66.0,94.5,70.5" stroke="black" stroke-width="2" fill="none" />
<polyline points="100.5,75.0,84.0,75.0,67.5,76.0,51.5,76.0" stroke="black" stroke-width="2" fill="none" />
<polyline points="54.5,73.5,43.0,68.5" stroke="black" stroke-width="2" fill="none" />
<polyline points="40.5,63.5,56.5,63.0,71.5,61.5" stroke="black" stroke-width="2" fill="none" />
<polyline points="72.0,76.5,84.0,82.5,91.5,97.5" stroke="black" stroke-width="2" fill="none" />
<polyline points="87.5,105.5,102.5,105.0" stroke="black" stroke-width="2" fill="none" />
<polyline points="99.5,90.5,84.0,90.5,69.5,91.0,53.5,92.0" stroke="black" stroke-width="2" fill="none" />
<polyline points="22.5,90.5,8.0,90.5" stroke="black" stroke-width="2" fill="none" />
<polyline points="13.5,93.0,1.5,92.0" stroke="black" stroke-width="2" fill="none" />
<polyline points="1.5,87.5,13.5,89.5,28.5,83.5,47.0,101.5" stroke="black" stroke-width="2" fill="none" />
<polyline points="60.0,128.0,72.0,126.0,71.5,133.5,71.5,145.5,74.5,157.0,72.5,169.0,80.0,168.5,93.5,174.5,99.5,176.0,111.5,176.5,123.5,164.5" stroke="black" stroke-width="2" fill="none" />
<polyline points="133.5,159.5,150.0,158.5,166.5,157.5,182.0,156.5,196.5,155.5" stroke="black" stroke-width="2" fill="none" />
<polyline points="216.0,143.5,213.0,136.5,211.5,126.5" stroke="black" stroke-width="2" fill="none" />
<polyline points="195.5,112.0,183.5,104.5" stroke="black" stroke-width="2" fill="none" />
<polyline points="177.0,101.5,183.0,104.5,188.0,116.5,185.0,128.5,181.0,141.0,187.0,153.5,191.5,165.5,181.0,173.0,185.5,156.5,195.0,163.0,202.5,154.0,207.0,170.5,202.5,184.0,197.5,182.5" stroke="black" stroke-width="2" fill="none" />
<polyline points="206.0,203.5,214.0,215.5,214.5,223.5" stroke="black" stroke-width="2" fill="none" />
<polyline points="227.5,213.5,227.5,225.5,227.0,237.5,227.0,249.5,227.0,261.5" stroke="black" stroke-width="2" fill="none" />
<polyline points="209.0,306.5,210.5,291.5,201.5,286.5,202.0,274.5,203.5,263.0,197.0,252.0,197.0,240.0,197.0,228.0,190.5,222.0,194.5,210.0" stroke="black" stroke-width="2" fill="none" />
<polyline points="255.0,197.0,250.5,209.0,254.0,220.5,258.0,222.0,258.0,233.5,258.0,245.5,250.5,246.5,252.5,260.0,260.0,265.5,259.5,272.0,262.5,275.0,279.5,264.5" stroke="black" stroke-width="2" fill="none" />
<polyline points="311.0,262.5,309.5,268.5,299.0,267.5,295.5,281.0,288.0,284.0,282.0,276.5,279.0,286.5,266.5,288.0,252.5,287.5,250.5,283.0,238.5,289.0,237.5,289.0,231.5,276.5,230.0,269.0,231.5,257.0,231.5,245.5,230.5,233.5,232.0,222.0,239.5,208.5,246.0,202.5,258.0,190.5" stroke="black" stroke-width="2" fill="none" />
<polyline points="309.0,155.5,303.0,148.0,286.0,148.0,275.5,148.0,263.0,155.0,261.5,136.0,256.5,140.0,253.5,156.5,237.0,155.0,232.5,167.0,226.5,154.0,216.0,156.0,208.5,155.0,192.0,140.5,180.0,139.0,168.0,125.5,156.0,128.0,144.0,130.0,132.5,130.0,120.5,130.0,108.5,127.0,101.0,119.5,94.5,97.0,88.5,85.0,82.5,68.5,75.0,66.5,86.0,50.5,83.0,39.0,83.0,42.0" stroke="black" stroke-width="2" fill="none" />
<polyline points="103.5,27.0,119.0,27.5,134.5,28.5,150.5,28.5,167.0,28.5,183.5,28.5,199.0,28.5,214.5,27.5,230.5,26.5,247.0,25.5,263.5,24.5" stroke="black" stroke-width="2" fill="none" />
<polyline points="268.5,25.5,281.0,22.5,293.0,27.0,305.5,22.5,317.5,16.0,330.0,13.5,342.0,7.0,357.5,4.0,372.5,14.5" stroke="black" stroke-width="2" fill="none" />
<polyline points="357.0,28.0,341.5,29.0,327.0,29.5,311.5,29.5" stroke="black" stroke-width="2" fill="none" />
<polyline points="312.5,24.0,308.0,37.5,294.0,42.0" stroke="black" stroke-width="2" fill="none" />
<polyline points="296.5,43.5,312.0,42.0,327.0,41.0,343.0,40.5" stroke="black" stroke-width="2" fill="none" />
<polyline points="340.0,38.0,352.0,38.0,353.5,44.0,363.5,34.0,375.0,32.0" stroke="black" stroke-width="2" fill="none" />
<polyline points="364.5,45.0,352.5,49.5" stroke="black" stroke-width="2" fill="none" />
<polyline points="337.0,28.5,349.0,25.5,361.5,27.5,373.5,25.0" stroke="black" stroke-width="2" fill="none" />
<polyline points="395.5,32.0,379.0,47.5,369.5,52.0,381.5,46.0,393.5,34.0,396.5,39.0,408.5,37.5,407.0,49.0,419.0,53.5,431.5,50.5,434.5,39.5,446.5,41.0,458.0,35.0,470.0,32.0,482.0,21.5,489.5,17.0,503.0,3.5,510.5,14.0" stroke="black" stroke-width="2" fill="none" />
<polyline points="412.5,3.5,400.5,5.0,388.5,5.0,376.5,6.0,365.0,9.0,353.0,14.0,339.5,14.0,326.5,22.0,324.5,31.0,312.0,35.5,292.5,35.5,288.0,34.0,282.0,31.5,282.0,16.5,295.5,4.5,301.5,6.5,289.0,15.0" stroke="black" stroke-width="2" fill="none" />
<polyline points="299.5,9.5,299.0,20.0,291.0,32.0" stroke="black" stroke-width="2" fill="none" />
<polyline points="293.5,29.0,276.5,29.0" stroke="black" stroke-width="2" fill="none" />
<polyline points="267.0,15.5,279.0,17.0,289.5,3.5,297.0,3.5" stroke="black" stroke-width="2" fill="none" />
<polyline points="247.0,5.0,230.5,6.0,214.0,7.0,198.5,8.5,182.0,9.0,166.0,9.5,150.5,10.5,135.5,10.5,120.0,10.5,103.5,11.5,87.5,12.5" stroke="black" stroke-width="2" fill="none" />
<polyline points="89.5,26.0,73.0,25.5,56.5,24.5,40.0,25.0,23.5,25.0,7.5,24.5" stroke="black" stroke-width="2" fill="none" />
<polyline points="3.0,29.5,15.0,34.0,24.5,49.0,18.5,65.0,26.5,86.0,13.0,92.0,23.5,91.5,35.5,89.5,47.5,82.0,48.5,91.5,60.5,96.0,65.0,99.0" stroke="black" stroke-width="2" fill="none" />
<polyline points="82.5,107.0,70.5,119.0,58.5,131.0,56.5,142.5,55.0,154.5,51.0,162.0,54.0,172.5,45.0,166.5" stroke="black" stroke-width="2" fill="none" />
<polyline points="37.5,186.5,25.5,188.5" stroke="black" stroke-width="2" fill="none" />
<polyline points="12.0,159.5,28.0,158.0,43.5,155.5,59.0,153.5,74.5,151.5,90.0,150.5" stroke="black" stroke-width="2" fill="none" />
<polyline points="80.0,143.0,92.0,134.0,105.5,131.0,108.0,138.0,129.0,134.5,141.0,140.5,146.5,155.5,166.0,149.5,176.5,148.5,185.5,145.5" stroke="black" stroke-width="2" fill="none" />
<polyline points="182.0,113.5,177.5,125.0,189.5,117.5,207.5,111.5,219.5,108.5" stroke="black" stroke-width="2" fill="none" />
<polyline points="225.0,94.0,226.5,105.5,223.0,117.5,218.5,124.0,215.5,141.0,218.5,153.0" stroke="black" stroke-width="2" fill="none" />
<polyline points="182.5,75.0,167.0,75.5,151.0,76.0,135.5,77.0" stroke="black" stroke-width="2" fill="none" />
<polyline points="137.5,73.5,153.0,58.5" stroke="black" stroke-width="2" fill="none" />
<polyline points="146.0,49.5,158.0,42.0,156.5,42.0,146.0,41.5,146.0,41.5,158.0,34.0,170.0,35.5,180.5,35.5,192.5,33.5,204.5,35.0,216.5,39.0" stroke="black" stroke-width="2" fill="none" />
<polyline points="209.5,60.0,221.5,63.0,235.0,52.0,238.0,59.0" stroke="black" stroke-width="2" fill="none" />
<polyline points="187.0,58.5,172.0,59.0,155.5,59.5,139.0,60.5,123.0,60.5" stroke="black" stroke-width="2" fill="none" />
<polyline points="131.0,53.0,148.0,37.5,165.5,23.0,182.0,7.5" stroke="black" stroke-width="2" fill="none" />
<polyline points="182.5,20.0,166.0,36.0" stroke="black" stroke-width="2" fill="none" />
<polyline points="172.5,32.5,189.0,44.5,166.5,51.5,152.5,63.5,146.5,85.0,152.0,95.5,163.5,97.0,163.5,102.5,163.0,113.0,166.5,131.0,155.5,133.5,153.0,139.5,144.5,151.5,144.5,163.5,144.5,175.5,152.5,182.0,170.5,186.0,185.0,196.5,198.5,201.5,210.5,201.5,223.0,196.0,225.5,188.5,237.5,189.5,249.5,188.0,263.0,188.5,275.0,188.5,287.5,194.5,296.5,200.0,298.5,194.0,303.0,200.5,319.5,197.5,327.0,184.0" stroke="black" stroke-width="2" fill="none" />
<polyline points="219.0,48.0,207.0,52.5,195.0,62.5,182.5,79.0,176.5,79.5,172.0,74.0,185.5,62.0,178.0,74.0" stroke="black" stroke-width="2" fill="none" />
<polyline points="181.5,51.0,169.0,56.5,158.0,51.5,146.0,48.5" stroke="black" stroke-width="2" fill="none" />
<polyline points="135.5,36.0,152.5,20.5,168.5,4.5" stroke="black" stroke-width="2" fill="none" />
<polyline points="157.5,11.0,169.5,5.0,174.0,5.0,185.0,7.5,197.0,15.0,197.0,18.0" stroke="black" stroke-width="2" fill="none" />
<polyline points="153.0,11.0,136.5,25.5" stroke="black" stroke-width="2" fill="none" />
<polyline points="131.0,21.5,135.5,33.0" stroke="black" stroke-width="2" fill="none" />
<polyline points="116.5,27.0,132.5,10.5" stroke="black" stroke-width="2" fill="none" />
<polyline points="117.5,10.0,105.5,5.5" stroke="black" stroke-width="2" fill="none" />
<polyline points="108.5,21.5,96.5,18.0,84.0,12.0,72.5,2.5" stroke="black" stroke-width="2" fill="none" />
<polyline points="36.5,23.0,20.5,38.0" stroke="black" stroke-width="2" fill="none" />
<polyline points="25.5,43.5,41.0,42.5,56.5,42.5" stroke="black" stroke-width="2" fill="none" />
<polyline points="62.5,52.5,61.0,55.5,49.0,55.5" stroke="black" stroke-width="2" fill="none" />
<polyline points="52.0,57.0,64.5,61.5,83.5,67.0,85.0,70.0,103.0,62.5" stroke="black" stroke-width="2" fill="none" />
<polyline points="106.5,65.0,104.5,77.0,101.5,89.0,103.0,101.0,104.5,113.5,103.0,129.5,110.5,136.0,103.0,149.0,101.5,161.0,92.5,176.0,76.0,177.5,76.0,167.0,82.0,170.5,87.5,160.0,90.5,163.0,98.0,168.5,110.0,167.0,114.0,169.5,127.5,159.0" stroke="black" stroke-width="2" fill="none" />
<polyline points="129.0,171.5,114.0,181.5,120.5,167.5,120.5,155.0,120.5,143.0,117.5,149.0" stroke="black" stroke-width="2" fill="none" />
<polyline points="86.5,123.0,70.0,124.0" stroke="black" stroke-width="2" fill="none" />
<polyline points="26.0,136.5,10.0,152.0" stroke="black" stroke-width="2" fill="none" />
<polyline points="7.5,157.0,19.5,160.0,31.5,153.5,43.5,150.0" stroke="black" stroke-width="2" fill="none" />
<polyline points="26.5,146.0,11.5,139.0,10.0,143.5" stroke="black" stroke-width="2" fill="none" />
<polyline points="4.5,157.0,17.5,158.5,12.5,171.0,3.5,183.0,5.0,176.0,12.5,174.0,24.0,165.0,37.5,175.5,49.5,176.0" stroke="black" stroke-width="2" fill="none" />
<polyline points="44.0,159.0,36.5,175.5,24.5,175.5,20.5,187.5,11.5,197.0,5.5,209.0,3.0,213.5" stroke="black" stroke-width="2" fill="none" />
<polyline points="3.5,128.5,15.5,124.0,27.0,129.5,39.0,138.5,40.0,142.0,53.5,136.0,56.5,119.5,68.5,112.5,80.5,114.0,83.5,115.5" stroke="black" stroke-width="2" fill="none" />
<polyline points="36.0,111.5,23.5,114.5,11.5,113.0" stroke="black" stroke-width="2" fill="none" />
<polyline points="3.0,119.0,15.0,117.5,27.0,118.0,38.5,118.5,49.5,114.0,64.0,110.0,51.0,113.5,52.5,122.5,51.0,140.5,50.5,145.5,38.5,162.0,48.0,161.0,37.5,173.0,42.5,188.5,21.0,208.0,23.0,204.5,35.0,203.5,47.0,206.0,62.5,204.5,72.0,213.0,84.0,213.0,93.0,199.5,105.0,198.5,108.0,206.0,120.0,208.0,124.5,194.5,130.5,184.0" stroke="black" stroke-width="2" fill="none" />
<polyline points="87.0,104.5,75.0,107.5,62.5,106.5,52.5,108.0,40.5,103.5,28.5,103.5,45.0,105.0,27.0,100.5,15.0,100.5,3.0,103.5" stroke="black" stroke-width="2" fill="none" />
<polyline points="7.0,80.0,19.0,83.0" stroke="black" stroke-width="2" fill="none" />
<polyline points="2.5,53.5,3.5,55.0,6.5,62.0,24.5,69.5,36.5,70.0,45.5,62.5,58.0,65.5,73.0,57.5,79.5,54.5,91.5,55.0,93.0,50.5,105.0,52.0,109.5,54.5" stroke="black" stroke-width="2" fill="none" />
<polyline points="116.0,49.5,115.5,61.5,120.0,73.5,117.0,85.0" stroke="black" stroke-width="2" fill="none" />
<polyline points="125.5,89.0,124.0,77.0" stroke="black" stroke-width="2" fill="none" />
<polyline points="131.0,75.5,143.0,77.0" stroke="black" stroke-width="2" fill="none" />
<polyline points="108.5,38.5,96.5,30.5,94.5,25.5,83.0,23.5,72.5,16.0,60.5,13.0,48.5,16.0,36.5,16.0,24.5,2.5" stroke="black" stroke-width="2" fill="none" />
<polyline points="40.5,7.5,24.5,8.5,8.5,8.0" stroke="black" stroke-width="2" fill="none" />
<polyline points="2.0,10.0,14.0,4.0,30.5,11.5,32.0,25.0,42.5,41.5,36.5,55.0,39.5,63.5,36.5,62.0,48.5,57.5,52.0,66.5,61.0,71.0,73.0,63.5,74.0,74.0,86.0,76.5,102.0,84.0,113.5,88.5,119.5,88.5,132.0,91.5,144.5,90.0,153.5,82.5,165.5,77.0,177.5,69.5,177.0,55.5,189.0,53.0,194.0,50.0,203.0,46.5,210.5,54.5,230.0,46.0,242.0,35.5,254.0,26.0,266.0,21.5,275.0,36.5,287.5,49.0,298.0,40.0,301.0,29.5,307.0,31.0,315.5,20.5,323.0,8.5,332.0,7.0,332.0,12.0,332.0,24.0,300.5,30.0,290.0,37.0,297.5,56.5,298.0,70.0,292.0,85.0,304.0,83.5,318.5,91.0,324.5,95.5,337.5,85.0,349.5,87.0,354.0,81.0,355.5,91.5,364.5,78.0,376.5,85.5" stroke="black" stroke-width="2" fill="none" />
<polyline points="97.5,43.5,97.5,47.0,85.5,45.5,73.5,44.5,61.5,46.5,49.5,46.5,47.0,55.5,27.5,46.5,15.0,39.0,3.0,36.0" stroke="black" stroke-width="2" fill="none" />
<polyline points="6.0,40.5,18.0,46.5" stroke="black" stroke-width="2" fill="none" />
<polyline points="5.0,42.0,14.0,56.5,17.5,59.5,29.5,61.0,43.5,55.0,51.0,36.5,63.0,39.5,75.0,38.5,87.0,36.5,99.0,39.5,111.0,41.0" stroke="black" stroke-width="2" fill="none" />
<polyline points="56.5,57.0,73.5,69.0,66.0,75.0,82.5,83.0,90.0,94.5,97.0,106.5" stroke="black" stroke-width="2" fill="none" />
<polyline points="45.5,18.5,44.5,23.0,32.5,24.5" stroke="black" stroke-width="2" fill="none" />
<polyline points="100.5,290.0,98.5,301.5,97.0,310.5,79.0,322.0,65.5,335.5,77.0,334.0,89.0,329.5" stroke="black" stroke-width="2" fill="none" />
<polyline points="40.0,341.5,24.0,357.0" stroke="black" stroke-width="2" fill="none" />
<polyline points="37.5,350.5,49.5,355.0" stroke="black" stroke-width="2" fill="none" />
<polyline points="36.0,348.0,48.0,345.0,51.0,335.0,63.0,332.0" stroke="black" stroke-width="2" fill="none" />
<polyline points="21.5,343.5,17.5,347.5,22.0,338.5,5.5,343.0" stroke="black" stroke-width="2" fill="none" />
</svg>