<svg xmlns="http://www.w3.org/2000/svg" version="1.1"><polyline points="455.0,1.0,477.5,21.5,442.5,41.5,418.0,58.5,430.5,79.0,418.0,104.0,405.5,109.5,393.0,127.0,378.0,140.0,380.5,150.0,363.5,170.0,390.5,180.0,400.0,172.0,420.0,172.0,440.0,169.0,469.5,174.0,489.5,164.0,489.5,179.0" stroke="black" stroke-width="2" fill="none" />
<polyline points="493.0,170.0,484.5,177.5,476.5,186.0,468.5,193.5,461.0,201.0,453.5,208.5" stroke="black" stroke-width="2" fill="none" />
<polyline points="461.0,209.5,469.0,202.0,477.0,194.5,484.5,187.0,493.0,179.5,501.0,172.0" stroke="black" stroke-width="2" fill="none" />
<polyline points="500.5,180.0,492.5,187.5,484.5,195.0" stroke="black" stroke-width="2" fill="none" />
<polyline points="491.0,193.5,499.5,185.5,507.5,178.0,515.5,170.5" stroke="black" stroke-width="2" fill="none" />
<polyline points="514.0,182.0,506.0,189.0,498.5,197.0" stroke="black" stroke-width="2" fill="none" />
<polyline points="502.0,194.0,510.0,194.0,517.5,193.5" stroke="black" stroke-width="2" fill="none" />
<polyline points="514.5,193.5,507.0,201.0,499.0,208.5" stroke="black" stroke-width="2" fill="none" />
<polyline points="498.5,203.0,506.5,195.5,514.5,188.0" stroke="black" stroke-width="2" fill="none" />
<polyline points="512.5,184.0,504.5,185.0" stroke="black" stroke-width="2" fill="none" />
<polyline points="492.5,201.5,484.5,209.0" stroke="black" stroke-width="2" fill="none" />
<polyline points="483.5,203.0,475.5,210.5,468.5,218.5,461.0,226.0,452.5,234.0,444.5,241.5,436.5,249.5,428.5,256.5" stroke="black" stroke-width="2" fill="none" />
<polyline points="428.5,259.5,436.5,258.5,444.5,259.0,452.0,259.0,459.0,259.0,467.0,258.5,474.5,259.0,482.0,258.5,490.0,258.5,498.5,258.0,506.5,258.0,514.5,257.0" stroke="black" stroke-width="2" fill="none" />
<polyline points="516.0,258.0,508.5,265.5,501.0,273.0,493.5,280.5,486.0,288.0" stroke="black" stroke-width="2" fill="none" />
<polyline points="492.5,288.5,500.5,288.0,508.0,287.5" stroke="black" stroke-width="2" fill="none" />
<polyline points="515.5,290.5,507.5,298.0" stroke="black" stroke-width="2" fill="none" />
<polyline points="508.0,297.5,515.5,297.0" stroke="black" stroke-width="2" fill="none" />
<polyline points="515.0,282.0,507.5,289.5,499.5,297.5" stroke="black" stroke-width="2" fill="none" />
<polyline points="500.0,289.0,508.0,281.5,516.5,274.0" stroke="black" stroke-width="2" fill="none" />
<polyline points="517.5,267.0,509.5,274.5,501.5,282.0,493.5,290.0" stroke="black" stroke-width="2" fill="none" />
<polyline points="484.0,280.0,492.5,273.0,501.0,265.5,509.0,258.0,517.0,250.0" stroke="black" stroke-width="2" fill="none" />
<polyline points="516.0,243.5,508.0,251.5" stroke="black" stroke-width="2" fill="none" />
<polyline points="500.5,259.0,492.5,266.0,485.0,273.0,476.5,280.5" stroke="black" stroke-width="2" fill="none" />
<polyline points="474.5,283.0,482.5,282.0,491.0,281.0" stroke="black" stroke-width="2" fill="none" />
<polyline points="491.0,259.0,483.0,266.0,475.0,273.5,467.0,281.0,459.0,288.5" stroke="black" stroke-width="2" fill="none" />
<polyline points="459.5,283.5,467.5,283.0" stroke="black" stroke-width="2" fill="none" />
<polyline points="460.5,281.5,468.0,274.0,476.0,266.5,484.5,259.0" stroke="black" stroke-width="2" fill="none" />
<polyline points="476.0,259.5,468.0,267.0,460.0,274.5" stroke="black" stroke-width="2" fill="none" />
<polyline points="459.0,274.5,467.5,274.0" stroke="black" stroke-width="2" fill="none" />
<polyline points="452.0,273.5,460.0,266.0,468.0,259.0,475.5,252.0" stroke="black" stroke-width="2" fill="none" />
<polyline points="468.5,253.0,460.5,260.5,453.0,268.0" stroke="black" stroke-width="2" fill="none" />
<polyline points="443.0,271.0,450.5,270.0,458.5,270.0,466.5,269.5,475.0,269.0,482.5,268.5,490.5,267.5,498.0,266.5,506.0,266.0,514.0,265.5" stroke="black" stroke-width="2" fill="none" />
<polyline points="508.5,226.5,516.5,219.5" stroke="black" stroke-width="2" fill="none" />
<polyline points="516.5,211.0,508.5,219.0,500.5,226.0" stroke="black" stroke-width="2" fill="none" />
<polyline points="499.5,217.5,507.5,209.5,516.0,202.0" stroke="black" stroke-width="2" fill="none" />
<polyline points="492.0,210.5,484.0,218.0,475.5,225.0" stroke="black" stroke-width="2" fill="none" />
<polyline points="468.5,225.5,488.0,223.0,508.0,225.5" stroke="black" stroke-width="2" fill="none" />
<polyline points="491.0,217.5,483.0,225.5" stroke="black" stroke-width="2" fill="none" />
<polyline points="490.5,232.5,482.5,240.5" stroke="black" stroke-width="2" fill="none" />
<polyline points="475.5,234.5,467.5,241.5,459.5,249.0,451.0,256.5,442.5,265.0" stroke="black" stroke-width="2" fill="none" />
<polyline points="433.0,256.5,441.0,248.5,449.5,241.0,457.5,233.0,466.0,225.0,474.0,217.0" stroke="black" stroke-width="2" fill="none" />
<polyline points="460.0,218.0,468.5,211.0,476.5,203.0" stroke="black" stroke-width="2" fill="none" />
<polyline points="477.0,181.5,469.0,189.0,461.5,196.5,453.5,203.5,445.0,211.0,437.0,218.5" stroke="black" stroke-width="2" fill="none" />
<polyline points="436.5,209.5,444.5,202.0,453.0,194.5,461.0,187.0,469.0,179.5" stroke="black" stroke-width="2" fill="none" />
<polyline points="468.0,170.5,460.0,178.5,452.5,186.0,445.0,193.0" stroke="black" stroke-width="2" fill="none" />
<polyline points="451.5,194.5,459.5,194.5,467.5,194.0" stroke="black" stroke-width="2" fill="none" />
<polyline points="475.5,184.0,466.5,184.5,458.5,185.0,450.5,185.5" stroke="black" stroke-width="2" fill="none" />
<polyline points="450.0,178.5,458.0,177.5,466.5,176.5" stroke="black" stroke-width="2" fill="none" />
<polyline points="467.5,163.0,459.0,170.0,451.5,178.0,443.5,185.5,436.0,192.5" stroke="black" stroke-width="2" fill="none" />
<polyline points="428.0,192.0,435.5,184.5,443.0,176.5,450.5,169.5,458.5,162.5,466.5,155.0" stroke="black" stroke-width="2" fill="none" />
<polyline points="466.0,148.5,458.5,155.5,450.5,163.0" stroke="black" stroke-width="2" fill="none" />
<polyline points="451.0,158.0,459.5,157.5,467.5,157.5" stroke="black" stroke-width="2" fill="none" />
<polyline points="465.5,141.5,457.5,149.0,449.5,156.0" stroke="black" stroke-width="2" fill="none" />
<polyline points="451.0,150.0,459.0,149.5,466.5,149.0" stroke="black" stroke-width="2" fill="none" />
<polyline points="458.5,140.5,467.0,133.5" stroke="black" stroke-width="2" fill="none" />
<polyline points="466.5,125.5,458.0,126.0" stroke="black" stroke-width="2" fill="none" />
<polyline points="452.5,133.0,460.5,133.0,468.5,132.5" stroke="black" stroke-width="2" fill="none" />
<polyline points="466.5,141.5,459.0,142.0,450.5,142.0" stroke="black" stroke-width="2" fill="none" />
<polyline points="451.0,132.0,461.0,137.5,461.5,157.5,484.0,175.0,481.5,184.5,484.0,197.0,504.0,207.0" stroke="black" stroke-width="2" fill="none" />
<polyline points="467.5,235.5,459.5,243.0,451.5,251.0,443.5,258.0,435.5,265.5" stroke="black" stroke-width="2" fill="none" />
<polyline points="420.0,266.0,412.5,266.5,404.5,267.5" stroke="black" stroke-width="2" fill="none" />
<polyline points="410.0,261.5,402.5,262.0,394.5,263.0" stroke="black" stroke-width="2" fill="none" />
<polyline points="394.5,254.0,402.5,253.5,411.0,253.0,419.0,252.5,426.5,252.0,434.5,251.5,443.0,250.5,451.0,249.5,459.5,249.0,467.5,248.5,475.0,248.5,483.5,248.0,491.5,247.5,500.0,247.0,508.5,246.5,516.5,246.5" stroke="black" stroke-width="2" fill="none" />
<polyline points="513.0,290.5,505.0,291.0,497.0,290.5,489.0,290.5,481.5,291.0,474.0,291.5,466.0,292.0" stroke="black" stroke-width="2" fill="none" />
<polyline points="465.0,300.5,473.0,300.0,481.5,299.5,490.0,299.0,498.0,299.0,505.5,299.0,514.0,298.5" stroke="black" stroke-width="2" fill="none" />
<polyline points="516.0,347.5,507.0,348.5,498.5,349.0,490.5,349.5,482.0,350.0" stroke="black" stroke-width="2" fill="none" />
<polyline points="482.0,343.5,490.5,342.5,499.5,342.5,508.0,341.5,517.0,340.5" stroke="black" stroke-width="2" fill="none" />
<polyline points="514.5,329.5,506.5,329.5,498.5,331.0,490.5,331.5,482.5,332.0,475.0,332.5,467.5,333.0" stroke="black" stroke-width="2" fill="none" />
<polyline points="451.0,324.0,458.5,323.5,466.5,323.5,474.5,323.5,482.5,323.5,490.5,323.5,499.5,323.0,508.0,323.0,517.0,322.5" stroke="black" stroke-width="2" fill="none" />
<polyline points="517.5,306.5,509.5,306.5,501.0,307.0,492.5,307.5,484.5,307.5,476.0,308.0,467.5,308.5,459.5,309.0,451.0,309.5" stroke="black" stroke-width="2" fill="none" />
<polyline points="436.5,320.5,444.5,319.5,452.5,319.0,460.5,318.0,468.5,317.5,476.0,317.0,484.0,316.5,492.0,315.5,500.0,314.5,508.0,313.5,515.5,313.0" stroke="black" stroke-width="2" fill="none" />
<polyline points="517.0,282.5,509.0,282.5,501.5,282.0,493.0,282.0,485.0,282.0,476.0,282.0,467.0,282.5,458.5,283.0,450.5,284.0" stroke="black" stroke-width="2" fill="none" />
<polyline points="451.5,278.5,459.0,278.0,467.0,276.5,475.0,275.5,483.0,274.5,491.0,274.0,499.5,273.5,508.0,273.5,516.0,273.0" stroke="black" stroke-width="2" fill="none" />
<polyline points="466.5,257.5,458.0,258.0" stroke="black" stroke-width="2" fill="none" />
<polyline points="456.5,256.0,476.5,263.5" stroke="black" stroke-width="2" fill="none" />
<polyline points="474.0,272.0,429.0,252.0,451.0,252.0,441.0,244.5" stroke="black" stroke-width="2" fill="none" />
<polyline points="438.5,249.0,458.5,249.0,479.0,244.0,499.0,244.0" stroke="black" stroke-width="2" fill="none" />
<polyline points="517.0,237.0,509.0,237.0,500.0,237.0,491.0,237.5,482.5,238.0,474.5,239.0,467.0,240.0,459.0,240.0,451.0,241.0,443.0,241.5,435.0,242.5,427.0,243.0,418.5,242.5,410.0,242.5,402.0,243.0,393.5,243.5" stroke="black" stroke-width="2" fill="none" />
<polyline points="396.0,240.5,404.0,233.5" stroke="black" stroke-width="2" fill="none" />
<polyline points="398.0,228.5,389.5,236.0" stroke="black" stroke-width="2" fill="none" />
<polyline points="396.0,235.5,388.0,243.0" stroke="black" stroke-width="2" fill="none" />
<polyline points="380.5,237.5,400.5,240.0,420.5,242.0,470.5,264.0,493.0,299.0" stroke="black" stroke-width="2" fill="none" />
<polyline points="435.0,293.5,415.0,273.5" stroke="black" stroke-width="2" fill="none" />
<polyline points="413.5,272.5,433.5,275.0" stroke="black" stroke-width="2" fill="none" />
<polyline points="419.0,264.5,424.0,284.5,421.5,304.5,428.5,299.0,433.5,306.5" stroke="black" stroke-width="2" fill="none" />
<polyline points="412.5,324.5,404.5,325.0" stroke="black" stroke-width="2" fill="none" />
<polyline points="405.0,315.5,413.0,315.0" stroke="black" stroke-width="2" fill="none" />
<polyline points="411.0,307.0,403.5,307.0" stroke="black" stroke-width="2" fill="none" />
<polyline points="403.0,301.0,411.0,301.0" stroke="black" stroke-width="2" fill="none" />
<polyline points="409.5,293.5,402.0,294.5" stroke="black" stroke-width="2" fill="none" />
<polyline points="401.5,287.0,409.5,286.5" stroke="black" stroke-width="2" fill="none" />
<polyline points="410.0,277.0,401.5,277.5" stroke="black" stroke-width="2" fill="none" />
<polyline points="404.0,256.5,412.0,250.0,420.5,243.0,428.0,235.5" stroke="black" stroke-width="2" fill="none" />
<polyline points="421.0,234.0,413.0,242.0,404.5,250.0" stroke="black" stroke-width="2" fill="none" />
<polyline points="403.5,249.5,411.5,249.0" stroke="black" stroke-width="2" fill="none" />
<polyline points="413.5,255.0,451.0,275.0,461.0,295.0" stroke="black" stroke-width="2" fill="none" />
<polyline points="462.0,334.0,442.0,324.0,422.0,316.5,410.0,316.5,410.0,296.5,413.0,276.5,408.0,256.5,378.0,249.0,358.0,244.0" stroke="black" stroke-width="2" fill="none" />
<polyline points="347.5,236.0,347.5,256.0,367.0,260.5,387.0,263.0,419.0,255.0,439.0,267.5,441.5,277.5,466.5,280.0,486.5,287.5,506.5,297.5,506.5,310.0" stroke="black" stroke-width="2" fill="none" />
<polyline points="505.0,251.5,482.5,232.0,462.5,227.0,452.5,212.0,460.0,192.0,437.5,192.0,427.5,179.5,450.0,161.5,450.0,142.0,467.5,125.0,487.5,105.0,502.5,85.0,485.5,88.0,465.0,88.0,445.5,88.0,443.5,80.5,423.5,98.0,413.0,108.0,405.5,75.0,405.5,52.5,385.5,44.5,365.5,42.0,345.5,49.0,325.5,64.0" stroke="black" stroke-width="2" fill="none" />
<polyline points="326.0,66.5,318.0,74.0" stroke="black" stroke-width="2" fill="none" />
<polyline points="315.5,78.0,323.5,77.5,331.5,77.0,339.0,76.5,347.0,75.5,354.5,75.0" stroke="black" stroke-width="2" fill="none" />
<polyline points="344.0,71.5,364.0,71.5,379.0,44.0,396.5,64.0,386.5,84.0,401.5,96.5,391.5,106.5,401.0,126.5" stroke="black" stroke-width="2" fill="none" />
<polyline points="402.5,125.0,410.0,125.0" stroke="black" stroke-width="2" fill="none" />
<polyline points="395.0,133.5,387.0,134.5,379.0,134.5" stroke="black" stroke-width="2" fill="none" />
<polyline points="371.5,125.5,379.5,125.0,387.5,125.0,395.0,124.5" stroke="black" stroke-width="2" fill="none" />
<polyline points="387.0,136.5,372.5,153.5,352.5,153.5,345.0,164.0,330.0,154.5,345.0,134.5,344.5,114.5,347.0,95.0,359.0,77.5,339.0,90.0" stroke="black" stroke-width="2" fill="none" />
<polyline points="347.5,61.0,355.5,61.0" stroke="black" stroke-width="2" fill="none" />
<polyline points="362.0,65.5,354.0,66.0,346.5,66.0,338.5,66.0,331.0,66.5,322.5,66.5,314.5,66.5,306.5,67.0,299.5,67.5" stroke="black" stroke-width="2" fill="none" />
<polyline points="305.5,66.5,313.0,59.5,320.5,52.5" stroke="black" stroke-width="2" fill="none" />
<polyline points="322.5,60.5,314.5,68.0" stroke="black" stroke-width="2" fill="none" />
<polyline points="309.5,58.5,317.5,51.0,325.0,43.0,333.5,35.0" stroke="black" stroke-width="2" fill="none" />
<polyline points="336.5,38.5,351.5,29.0,346.5,46.5,326.5,66.5,347.0,76.5,327.0,98.5,340.0,118.5,322.5,141.5,305.0,166.5,345.0,181.5,357.5,193.5,342.5,209.0,354.5,229.0,354.5,241.0,339.5,251.0,364.0,271.0,351.5,278.5,324.0,304.0,322.0,324.0,359.5,324.0,347.5,349.5" stroke="black" stroke-width="2" fill="none" />
<polyline points="358.0,334.0,365.5,333.5,373.5,333.0,381.0,332.5" stroke="black" stroke-width="2" fill="none" />
<polyline points="378.5,350.5,370.5,351.0" stroke="black" stroke-width="2" fill="none" />
<polyline points="395.5,351.0,403.5,350.0,411.0,349.5,418.5,349.0" stroke="black" stroke-width="2" fill="none" />
<polyline points="348.0,316.5,339.5,316.5,331.5,316.5,323.5,317.0,315.0,317.5,306.5,319.0,298.5,320.0,290.5,320.5,282.5,321.0,274.5,322.0,266.5,322.5,258.5,322.5,250.5,322.5,243.0,322.5,235.0,323.0,227.5,323.5,219.0,324.0,211.0,325.0,202.5,325.5" stroke="black" stroke-width="2" fill="none" />
<polyline points="213.0,319.0,221.0,318.5,229.0,318.5,236.5,318.5,244.5,318.5,252.5,318.0,260.5,317.0,268.0,316.0,275.5,315.0,283.0,314.5,291.0,314.0,299.0,313.5,307.5,312.5,316.0,312.0,324.5,311.5,332.5,311.0,341.0,310.5" stroke="black" stroke-width="2" fill="none" />
<polyline points="338.5,306.0,330.0,306.5,321.5,307.0,314.5,307.5,307.0,308.5,299.0,309.0,291.0,310.0,283.0,310.5" stroke="black" stroke-width="2" fill="none" />
<polyline points="293.0,298.5,301.0,298.0,308.5,298.0,316.5,298.0,324.5,297.5,332.5,297.5,339.5,296.5,347.0,296.5,354.0,295.5" stroke="black" stroke-width="2" fill="none" />
<polyline points="362.5,291.0,382.5,286.0" stroke="black" stroke-width="2" fill="none" />
<polyline points="418.5,256.0,426.5,248.5,434.5,241.5,442.5,234.5,451.0,227.5" stroke="black" stroke-width="2" fill="none" />
<polyline points="452.0,218.0,444.0,225.5,436.0,233.5,427.5,241.0,419.5,248.5" stroke="black" stroke-width="2" fill="none" />
<polyline points="411.5,237.0,403.5,244.5" stroke="black" stroke-width="2" fill="none" />
<polyline points="388.5,227.0,380.5,234.5" stroke="black" stroke-width="2" fill="none" />
<polyline points="379.5,237.5,387.5,237.0,395.0,236.0,402.5,235.0,410.0,235.0,418.5,235.0,426.5,234.5,434.0,234.5,442.0,234.0,450.0,234.0,458.0,233.5,466.0,232.5,474.5,231.5,483.0,230.5,492.5,230.0,501.0,229.0,509.0,228.5,517.0,227.5" stroke="black" stroke-width="2" fill="none" />
<polyline points="516.0,215.5,508.5,216.0,500.5,216.5,492.0,217.5,484.5,218.5,476.0,219.5,467.5,220.0,459.0,220.5,451.0,220.5,443.5,221.0,436.0,221.5,428.0,222.5,420.0,222.5,412.0,223.0,403.5,223.0,395.5,223.5,387.5,224.0,379.5,224.5,371.5,225.0,364.0,225.0,356.0,225.5,347.5,226.0,340.0,226.0,331.5,226.5,323.5,227.5,315.0,228.0,306.5,228.5,298.0,229.0" stroke="black" stroke-width="2" fill="none" />
<polyline points="308.5,238.0,303.5,238.0,298.5,258.0,284.0,285.0,304.0,283.0,316.5,288.0,337.0,283.0,357.0,283.0,361.5,265.0,381.0,270.0,396.0,280.0,398.5,300.0,391.5,319.5,386.5,347.0" stroke="black" stroke-width="2" fill="none" />
<polyline points="346.0,323.0,339.0,323.5,331.5,324.0,324.0,325.0,316.0,326.0,308.0,326.5,300.0,327.0,292.0,327.5,284.0,327.5,276.0,328.0,268.0,329.0,260.0,329.5,252.5,330.0,244.5,330.0,236.5,330.0,228.5,331.0,220.5,331.5,213.0,332.0,205.0,332.5,197.0,333.5,188.5,334.0" stroke="black" stroke-width="2" fill="none" />
<polyline points="189.0,340.5,181.0,347.5,172.5,354.5" stroke="black" stroke-width="2" fill="none" />
<polyline points="185.0,354.0,193.0,346.5,200.5,339.0" stroke="black" stroke-width="2" fill="none" />
<polyline points="195.5,339.5,187.5,347.0,179.5,354.5" stroke="black" stroke-width="2" fill="none" />
<polyline points="194.5,353.5,202.0,345.5,210.0,338.0,217.5,330.0" stroke="black" stroke-width="2" fill="none" />
<polyline points="219.5,336.0,227.5,335.5,235.5,335.0,243.5,334.5" stroke="black" stroke-width="2" fill="none" />
<polyline points="242.5,323.5,234.0,331.0,226.0,339.0,218.0,346.5,210.0,354.0" stroke="black" stroke-width="2" fill="none" />
<polyline points="219.0,354.5,227.0,347.0,235.0,339.5,243.0,332.0,250.5,324.5" stroke="black" stroke-width="2" fill="none" />
<polyline points="259.0,323.5,251.0,331.0,243.0,338.0,235.0,345.0,227.0,352.5" stroke="black" stroke-width="2" fill="none" />
<polyline points="245.0,353.5,253.0,346.5,261.0,339.5,269.0,332.0" stroke="black" stroke-width="2" fill="none" />
<polyline points="267.0,324.5,258.5,331.5,251.0,339.0,243.0,347.0,235.5,354.5" stroke="black" stroke-width="2" fill="none" />
<polyline points="251.5,356.5,259.5,349.5" stroke="black" stroke-width="2" fill="none" />
<polyline points="251.5,343.0,243.5,343.5,235.5,344.0,227.0,345.0,219.0,345.5,211.5,346.5,203.5,347.5" stroke="black" stroke-width="2" fill="none" />
<polyline points="204.0,351.5,211.5,344.5,219.5,337.0,227.0,330.0,234.5,322.5,242.5,315.0" stroke="black" stroke-width="2" fill="none" />
<polyline points="229.5,304.5,227.0,325.0" stroke="black" stroke-width="2" fill="none" />
<polyline points="218.5,308.0,227.0,307.5,235.0,307.0,243.5,306.5,252.0,306.5,260.0,307.0" stroke="black" stroke-width="2" fill="none" />
<polyline points="260.0,298.5,252.5,299.0,244.5,299.5,236.5,299.5,228.5,299.5" stroke="black" stroke-width="2" fill="none" />
<polyline points="228.5,295.5,237.0,294.5,244.5,293.5,252.5,292.5,260.5,292.0,268.0,291.5" stroke="black" stroke-width="2" fill="none" />
<polyline points="293.0,292.5,300.5,292.5,308.0,291.5,315.5,290.5,323.0,289.5,330.5,289.5,338.5,289.0,346.5,289.0" stroke="black" stroke-width="2" fill="none" />
<polyline points="328.0,292.0,335.0,299.5,355.0,312.0,370.0,304.0" stroke="black" stroke-width="2" fill="none" />
<polyline points="364.5,325.0,356.5,326.0,348.5,326.5,340.0,326.5,332.0,326.5,323.5,326.5,315.0,326.5,306.5,326.5,298.0,327.0,290.5,328.0,282.0,328.5,273.5,329.0,265.5,329.5,258.0,330.0,250.0,331.0,242.5,332.5,235.0,333.0,227.0,333.0,219.5,333.5,211.5,334.0,203.5,334.5,195.5,335.0,187.5,335.5,179.5,336.0,172.0,336.0,164.0,336.5,156.5,338.0,148.0,338.5,140.0,339.0,131.5,340.0,123.0,341.0,114.5,342.0,106.5,342.5" stroke="black" stroke-width="2" fill="none" />
<polyline points="100.5,349.5,108.5,349.0,116.5,348.0,124.0,347.5,131.5,346.5,139.0,346.0,147.5,346.0,155.5,345.5,163.5,345.0,171.5,344.5,179.5,344.0,187.0,343.5,195.5,343.5,204.0,343.0,212.5,342.5,221.0,341.5,229.0,341.0,236.5,340.5,244.0,339.5,251.0,338.5,258.5,338.0,267.0,337.5,275.0,337.0,283.5,336.5,292.0,336.5,300.0,337.0,308.0,336.5,316.0,336.0,324.5,335.5,332.5,335.5,341.0,335.0,349.0,334.5,357.0,334.5,364.5,334.0" stroke="black" stroke-width="2" fill="none" />
<polyline points="389.0,321.5,369.0,323.5,349.0,321.0,329.0,303.5" stroke="black" stroke-width="2" fill="none" />
<polyline points="323.5,321.0,343.5,328.5" stroke="black" stroke-width="2" fill="none" />
<polyline points="283.5,331.5,275.5,339.0" stroke="black" stroke-width="2" fill="none" />
<polyline points="259.0,341.5,259.0,331.5" stroke="black" stroke-width="2" fill="none" />
<polyline points="228.0,286.5,236.0,286.0,244.0,285.5,252.0,284.0,259.5,283.0,267.5,281.5,276.0,281.0,284.0,280.5" stroke="black" stroke-width="2" fill="none" />
<polyline points="292.5,285.5,300.5,285.0" stroke="black" stroke-width="2" fill="none" />
<polyline points="260.5,257.5,268.5,249.5,276.5,242.0" stroke="black" stroke-width="2" fill="none" />
<polyline points="249.5,222.0,257.5,221.0,265.5,220.5,274.0,220.0,282.0,219.5,290.5,219.0,298.5,218.5,305.5,218.0,313.0,217.0,321.0,216.5,329.0,216.0,337.5,215.0,346.0,214.5,354.5,214.5,363.0,214.5,372.0,213.5,380.0,213.0,388.0,212.5,396.5,212.0,404.5,211.5,412.5,211.0,420.5,210.5,428.0,210.0,435.5,209.0,443.5,208.0,451.0,207.0,458.5,207.0,466.0,207.5,474.0,207.0,482.5,207.0,491.0,206.5,498.5,206.5,506.5,205.5,515.0,204.5" stroke="black" stroke-width="2" fill="none" />
<polyline points="468.5,164.5,460.5,165.0,452.5,166.0,444.0,166.5" stroke="black" stroke-width="2" fill="none" />
<polyline points="450.0,170.5,458.0,170.0" stroke="black" stroke-width="2" fill="none" />
<polyline points="436.5,179.0,428.5,187.0" stroke="black" stroke-width="2" fill="none" />
<polyline points="420.0,185.0,428.0,177.5" stroke="black" stroke-width="2" fill="none" />
<polyline points="421.0,180.5,413.0,188.5" stroke="black" stroke-width="2" fill="none" />
<polyline points="411.5,179.0,404.0,186.5,396.0,194.5" stroke="black" stroke-width="2" fill="none" />
<polyline points="396.0,185.5,403.5,178.5,411.5,171.5" stroke="black" stroke-width="2" fill="none" />
<polyline points="403.0,184.0,395.5,184.5" stroke="black" stroke-width="2" fill="none" />
<polyline points="397.5,180.0,389.5,187.5,381.0,194.5" stroke="black" stroke-width="2" fill="none" />
<polyline points="380.5,187.0,388.0,179.5" stroke="black" stroke-width="2" fill="none" />
<polyline points="389.5,171.5,381.0,179.0,373.0,187.0,365.0,195.0" stroke="black" stroke-width="2" fill="none" />
<polyline points="356.5,192.5,364.5,185.5,372.5,178.5,380.5,171.5,388.5,163.5" stroke="black" stroke-width="2" fill="none" />
<polyline points="395.0,156.0,403.0,155.5" stroke="black" stroke-width="2" fill="none" />
<polyline points="409.5,155.5,412.0,157.5,430.0,180.0" stroke="black" stroke-width="2" fill="none" />
<polyline points="410.5,157.5,402.5,158.5,394.5,159.5,387.0,160.5,379.0,161.5,371.0,161.5,363.0,162.5,355.0,163.0,347.0,163.5,339.0,164.0,331.0,164.0,323.5,164.5,316.5,165.0,309.0,165.5,301.0,165.5,293.0,166.0" stroke="black" stroke-width="2" fill="none" />
<polyline points="290.0,172.5,282.0,179.5,274.5,186.5" stroke="black" stroke-width="2" fill="none" />
<polyline points="268.0,186.5,276.0,179.0" stroke="black" stroke-width="2" fill="none" />
<polyline points="267.0,181.5,258.5,189.0" stroke="black" stroke-width="2" fill="none" />
<polyline points="260.0,189.5,252.5,209.5,240.0,229.5,245.0,247.0,245.0,267.0,272.5,281.5,292.5,276.5,295.0,261.5,310.0,234.0,312.5,256.0,330.0,241.0" stroke="black" stroke-width="2" fill="none" />
<polyline points="339.5,226.5,348.5,218.0,357.0,210.0" stroke="black" stroke-width="2" fill="none" />
<polyline points="353.0,211.0,372.5,213.5,392.0,216.5,412.0,221.5,419.5,217.0,429.5,201.5,436.5,209.0,456.5,219.0,476.5,209.5,484.0,214.5" stroke="black" stroke-width="2" fill="none" />
<polyline points="515.0,200.5,506.5,201.0,498.0,201.5,490.0,202.0,482.5,202.5,474.5,203.0,466.5,203.5,458.0,204.0,450.0,204.5,442.0,205.0,434.0,205.0,425.5,205.5,417.5,205.5,410.0,206.5,402.0,207.0,394.0,208.0,386.0,208.0,378.5,208.0,370.5,209.0,363.0,210.5,355.5,211.5,348.0,212.0,339.5,212.5,331.5,213.0,324.0,213.0,316.5,213.0,308.5,213.5,301.0,214.0" stroke="black" stroke-width="2" fill="none" />
<polyline points="303.5,211.5,298.0,219.0" stroke="black" stroke-width="2" fill="none" />
<polyline points="308.0,215.0,316.0,207.5,324.0,199.0,332.0,191.5,340.0,184.0,347.5,177.0,354.5,170.0,362.5,162.5" stroke="black" stroke-width="2" fill="none" />
<polyline points="355.0,162.5,363.0,155.0" stroke="black" stroke-width="2" fill="none" />
<polyline points="350.0,157.0,342.0,164.0,334.0,171.5,325.5,179.0,317.0,186.0,308.5,193.5" stroke="black" stroke-width="2" fill="none" />
<polyline points="307.5,202.0,315.5,195.0,324.5,188.0,333.0,180.0,341.5,172.0,349.0,164.0" stroke="black" stroke-width="2" fill="none" />
<polyline points="349.5,173.5,341.5,181.5,333.0,188.5,325.0,195.5,316.5,202.0,308.5,209.5" stroke="black" stroke-width="2" fill="none" />
<polyline points="313.0,211.5,321.0,211.0,330.0,210.5" stroke="black" stroke-width="2" fill="none" />
<polyline points="331.0,202.0,339.0,201.5" stroke="black" stroke-width="2" fill="none" />
<polyline points="332.5,193.5,340.0,193.0,348.0,192.5" stroke="black" stroke-width="2" fill="none" />
<polyline points="355.5,186.0,364.0,185.5,372.0,185.0,380.0,184.5" stroke="black" stroke-width="2" fill="none" />
<polyline points="371.5,171.0,363.0,178.5,355.0,185.5,347.0,193.5,339.0,201.5,331.0,209.5,323.5,216.5" stroke="black" stroke-width="2" fill="none" />
<polyline points="314.0,214.5,322.0,207.5,330.0,200.5,338.5,193.5,347.0,186.5,355.5,180.0,363.5,172.5" stroke="black" stroke-width="2" fill="none" />
<polyline points="364.0,178.0,356.0,178.5" stroke="black" stroke-width="2" fill="none" />
<polyline points="346.5,176.5,338.0,176.5,329.5,177.0" stroke="black" stroke-width="2" fill="none" />
<polyline points="329.5,169.0,337.5,168.0,345.5,167.0" stroke="black" stroke-width="2" fill="none" />
<polyline points="340.5,155.5,333.0,163.5,325.0,171.5,317.0,179.0,309.0,186.5,301.0,194.0" stroke="black" stroke-width="2" fill="none" />
<polyline points="292.5,197.0,300.0,196.5,307.0,196.0,314.5,195.5,322.5,194.5,331.0,194.0,339.0,193.0,347.0,192.5,355.5,192.5,363.5,192.5,372.0,192.0,379.5,191.5,387.0,191.5,395.0,191.5,403.0,191.0,411.0,191.0,419.5,191.0,427.0,190.5,435.0,189.5,443.0,188.5,450.5,187.5,458.5,187.0,466.5,186.5,475.5,186.0,484.0,185.5,493.0,184.5,500.5,184.0,508.5,182.5,517.0,182.0" stroke="black" stroke-width="2" fill="none" />
<polyline points="515.5,193.0,507.0,193.0,499.0,193.5,490.5,193.5,482.0,194.0,474.0,194.5,466.5,195.5,458.0,196.0,450.0,196.5,442.0,197.5,434.0,198.0,426.0,198.5,418.0,199.0,410.0,199.5,402.5,200.0,395.0,200.5,387.5,201.0,379.5,202.0,371.5,202.5,363.5,202.5,355.5,203.0,347.5,204.0,339.5,204.5,331.5,205.0,323.5,205.0,315.5,205.0,307.5,205.0,300.0,205.5" stroke="black" stroke-width="2" fill="none" />
<polyline points="292.0,193.0,301.0,185.0,309.0,177.0,316.5,169.5,324.5,162.0" stroke="black" stroke-width="2" fill="none" />
<polyline points="314.0,161.5,306.5,169.5,299.0,177.5,291.0,185.5" stroke="black" stroke-width="2" fill="none" />
<polyline points="290.0,179.5,298.5,179.0" stroke="black" stroke-width="2" fill="none" />
<polyline points="299.0,185.0,307.0,184.0,315.0,183.5,323.0,183.0,331.5,183.0,339.5,183.0,347.5,182.5" stroke="black" stroke-width="2" fill="none" />
<polyline points="350.5,205.5,342.0,213.0,333.5,220.5" stroke="black" stroke-width="2" fill="none" />
<polyline points="333.0,227.5,341.0,220.5,349.0,213.0" stroke="black" stroke-width="2" fill="none" />
<polyline points="343.5,223.0,339.0,233.0,339.5,245.5,327.0,262.5,302.0,269.5,322.0,269.5" stroke="black" stroke-width="2" fill="none" />
<polyline points="364.0,225.5,372.0,218.0" stroke="black" stroke-width="2" fill="none" />
<polyline points="378.0,222.0,397.5,249.5,377.5,269.5,367.5,302.0,402.5,327.5,412.5,349.5" stroke="black" stroke-width="2" fill="none" />
<polyline points="498.5,282.5,488.0,277.0,468.0,269.5,448.0,259.5,443.5,234.0,433.5,244.0,418.5,236.5,398.5,229.0,378.5,221.5,358.5,222.0,353.5,207.0,339.0,207.0,321.5,217.5,311.5,209.5,304.0,214.0,286.5,236.5,264.5,251.5,249.5,241.5,249.5,241.5,252.0,221.5,257.0,217.0,259.5,197.0,261.5,207.0" stroke="black" stroke-width="2" fill="none" />
<polyline points="250.0,207.0,258.0,206.5,266.0,205.5,274.0,205.0" stroke="black" stroke-width="2" fill="none" />
<polyline points="284.5,190.0,292.0,189.5,299.5,189.0,307.5,188.5,315.5,187.5,324.0,186.5,331.5,185.5,339.5,185.0,347.0,184.5,355.0,184.5,363.0,184.0,371.0,183.5,378.5,183.0,386.5,182.0,394.0,181.0,401.5,180.0,409.0,180.0,417.0,180.0,425.0,179.5,433.0,178.5,441.0,178.0,449.0,177.5,457.5,177.5,466.0,177.0,474.0,176.5,481.5,176.0,490.0,175.5,498.0,175.0,506.0,174.5,513.5,174.0" stroke="black" stroke-width="2" fill="none" />
<polyline points="514.0,149.0,506.0,149.5,498.0,150.5,490.0,151.0,482.0,151.5,474.0,152.0,466.0,152.5,458.5,153.0,451.0,153.5,443.5,154.0,435.5,155.0,427.5,155.5,419.5,155.5,411.5,156.0,403.5,157.0,395.5,157.5,387.5,158.0,379.5,158.0,371.5,158.0,363.5,158.0,356.0,158.5,348.0,158.5,340.0,159.0,332.0,159.5,324.0,159.5,316.0,159.5,308.0,160.5,300.5,161.0,292.5,161.5,284.5,161.5,276.5,161.5,268.5,162.5,260.5,163.5,252.5,164.0,245.0,164.5,237.0,165.0,229.0,165.0,220.5,165.5,212.0,166.0,203.5,166.5,195.0,167.0,187.0,167.5,180.0,168.5,172.5,169.5,165.0,170.0,157.0,171.0,149.0,171.5,140.5,171.5,132.0,172.0,124.0,172.5,116.0,173.0" stroke="black" stroke-width="2" fill="none" />
<polyline points="114.5,181.0,107.0,188.0,99.0,195.5" stroke="black" stroke-width="2" fill="none" />
<polyline points="106.0,194.5,114.5,187.0,122.0,180.0" stroke="black" stroke-width="2" fill="none" />
<polyline points="117.0,186.0,125.0,185.5,133.0,184.5,141.0,183.5,149.0,182.5" stroke="black" stroke-width="2" fill="none" />
<polyline points="156.5,187.5,164.0,186.5,172.0,185.5,179.5,184.5" stroke="black" stroke-width="2" fill="none" />
<polyline points="180.5,172.5,172.5,180.0,165.0,187.0,157.5,194.0,149.5,201.0,141.5,208.0,133.0,216.0" stroke="black" stroke-width="2" fill="none" />
<polyline points="139.5,216.5,148.0,209.0,156.0,201.0,164.5,193.5,173.0,186.5,181.0,179.5,189.5,173.0" stroke="black" stroke-width="2" fill="none" />
<polyline points="196.0,173.0,188.0,180.5,180.5,188.0,173.0,195.0,165.5,202.5" stroke="black" stroke-width="2" fill="none" />
<polyline points="170.0,214.0,165.5,234.0,173.0,254.0" stroke="black" stroke-width="2" fill="none" />
<polyline points="180.0,252.0,188.0,252.0,195.5,251.5,203.0,250.5" stroke="black" stroke-width="2" fill="none" />
<polyline points="209.5,254.0,218.0,253.0" stroke="black" stroke-width="2" fill="none" />
<polyline points="225.0,253.5,233.5,252.5,242.5,252.5,251.0,251.5,259.5,251.0,267.5,250.0,276.0,249.0,284.5,248.5,292.5,248.0,300.5,248.0,309.0,247.5" stroke="black" stroke-width="2" fill="none" />
<polyline points="281.0,213.5,273.5,213.5,265.5,213.5,257.5,214.0,249.5,215.0" stroke="black" stroke-width="2" fill="none" />
<polyline points="243.5,230.0,251.0,229.5,259.0,228.5,267.0,228.5,274.5,228.0,282.5,227.5" stroke="black" stroke-width="2" fill="none" />
<polyline points="301.5,253.0,293.0,254.0,284.5,255.0,276.0,255.5,268.0,256.0,260.0,256.5,252.5,256.5,244.5,256.5,236.5,256.5,228.5,257.0,220.5,257.5,213.0,259.0,205.5,260.0,198.0,261.0,189.5,261.5" stroke="black" stroke-width="2" fill="none" />
<polyline points="202.0,270.0,209.5,289.5" stroke="black" stroke-width="2" fill="none" />
<polyline points="211.0,288.0,218.5,287.0" stroke="black" stroke-width="2" fill="none" />
<polyline points="226.0,278.5,234.5,278.5,242.5,278.5,251.0,278.0,259.5,277.0,267.5,275.5,276.0,274.5,284.0,273.0,292.5,271.5,300.5,270.0,309.0,269.5" stroke="black" stroke-width="2" fill="none" />
<polyline points="354.0,229.0,346.0,229.0,338.5,229.5,331.0,229.5,323.0,230.5,315.0,231.5,307.5,232.0,299.5,233.5,291.5,234.0,283.5,234.5,275.5,235.5,267.0,236.0,259.0,237.0,251.0,237.5,243.0,237.5" stroke="black" stroke-width="2" fill="none" />
<polyline points="236.0,245.0,244.0,244.5,252.5,244.0,261.0,243.0,269.5,242.0,278.0,242.0,285.0,242.0,292.5,242.0,300.5,242.0,308.5,241.5,317.0,241.0,324.5,240.5,332.5,240.0" stroke="black" stroke-width="2" fill="none" />
<polyline points="322.5,176.5,314.5,177.5,306.5,177.5" stroke="black" stroke-width="2" fill="none" />
<polyline points="300.0,172.0,292.0,180.0,284.0,188.0" stroke="black" stroke-width="2" fill="none" />
<polyline points="284.0,189.5,304.0,205.0,309.0,207.5,317.0,227.5,322.5,240.0,317.5,258.0,305.5,267.5,297.5,287.5,290.0,297.0,275.0,316.5" stroke="black" stroke-width="2" fill="none" />
<polyline points="219.0,276.5,211.5,277.0,204.0,277.0" stroke="black" stroke-width="2" fill="none" />
<polyline points="203.5,269.0,211.5,269.0,219.0,268.5,226.5,267.5,234.5,266.5,242.0,266.0,249.5,266.0,257.5,265.0,265.5,264.5,273.0,263.5,281.0,263.0,289.0,263.0,297.5,262.5,305.5,262.5" stroke="black" stroke-width="2" fill="none" />
<polyline points="314.5,170.5,322.5,170.5" stroke="black" stroke-width="2" fill="none" />
<polyline points="306.5,157.0,314.5,156.5,323.0,156.5,331.0,156.0,338.5,156.0,346.5,156.0,354.0,155.5,362.0,155.5,369.5,155.0,377.5,154.5,385.5,154.0" stroke="black" stroke-width="2" fill="none" />
<polyline points="380.0,155.5,367.5,175.5" stroke="black" stroke-width="2" fill="none" />
<polyline points="355.5,149.0,347.5,150.0,339.5,150.5" stroke="black" stroke-width="2" fill="none" />
<polyline points="315.0,114.5,307.0,115.5" stroke="black" stroke-width="2" fill="none" />
<polyline points="300.5,105.5,320.5,93.0,323.0,96.0,355.0,119.0,374.0,116.5,393.5,114.5" stroke="black" stroke-width="2" fill="none" />
<polyline points="388.0,93.0,395.5,92.5,403.0,92.5" stroke="black" stroke-width="2" fill="none" />
<polyline points="370.0,92.0,390.0,82.0,410.0,84.0,430.0,74.5,450.5,74.5,475.5,82.0,495.5,74.5" stroke="black" stroke-width="2" fill="none" />
<polyline points="515.0,66.5,507.0,67.0,499.0,67.5,490.5,68.5,482.5,69.5,475.0,69.5" stroke="black" stroke-width="2" fill="none" />
<polyline points="475.5,92.0,467.0,92.5" stroke="black" stroke-width="2" fill="none" />
<polyline points="467.0,100.0,475.0,99.0" stroke="black" stroke-width="2" fill="none" />
<polyline points="458.5,90.5,450.5,90.5" stroke="black" stroke-width="2" fill="none" />
<polyline points="451.0,61.0,459.0,60.5,467.0,59.0,475.0,58.5,482.5,58.5,490.5,58.5,499.0,58.0,508.0,57.5,516.0,57.0" stroke="black" stroke-width="2" fill="none" />
<polyline points="516.0,28.5,508.0,28.5,500.0,29.0,492.0,29.5,483.5,30.0" stroke="black" stroke-width="2" fill="none" />
<polyline points="484.5,19.5,492.5,19.0,499.5,19.5,507.0,20.0,514.0,19.5" stroke="black" stroke-width="2" fill="none" />
<polyline points="515.5,12.5,508.0,13.0" stroke="black" stroke-width="2" fill="none" />
<polyline points="497.5,12.0,489.5,12.0" stroke="black" stroke-width="2" fill="none" />
<polyline points="490.0,4.0,481.5,4.5" stroke="black" stroke-width="2" fill="none" />
<polyline points="473.0,3.5,453.0,3.5" stroke="black" stroke-width="2" fill="none" />
<polyline points="468.5,38.0,476.5,37.5,484.5,37.0,492.5,36.0,500.5,35.5,509.0,34.5,516.5,34.0" stroke="black" stroke-width="2" fill="none" />
<polyline points="514.0,40.5,506.0,41.0,498.0,41.5,489.5,42.0,482.0,42.5,474.0,43.0,465.5,43.5,457.0,43.5,449.0,44.0" stroke="black" stroke-width="2" fill="none" />
<polyline points="435.0,53.5,443.5,53.0,451.5,52.5,459.5,52.5,467.5,52.5,475.5,52.0,482.5,51.0,490.5,50.0,498.0,49.0,505.5,48.0,513.5,47.5" stroke="black" stroke-width="2" fill="none" />
<polyline points="444.0,63.5,436.5,64.0" stroke="black" stroke-width="2" fill="none" />
<polyline points="467.5,121.5,487.5,104.0,507.0,92.0" stroke="black" stroke-width="2" fill="none" />
<polyline points="516.5,148.5,508.0,149.0,499.0,149.5,491.0,149.5,483.0,150.0,475.0,150.0,467.0,150.5,459.0,151.5,451.5,152.5,443.5,153.5,436.0,154.0,428.5,154.5,420.5,155.0,412.5,156.0,404.5,156.5,396.0,156.5,388.0,156.5,379.5,156.5,371.0,156.5,362.5,156.5,354.0,157.0,346.5,158.0,338.0,158.5,329.5,159.0,321.5,159.5,314.0,160.0,306.0,161.0,298.5,162.5,291.0,163.0,283.0,163.0,275.5,163.5,267.5,164.0,259.5,164.5,251.5,165.0,243.5,165.5,235.5,166.0,228.0,166.0,220.0,166.5,212.5,168.0,204.0,168.5,196.0,169.0,187.5,170.0,179.0,171.0,170.5,172.0,162.5,172.5,154.5,173.0,146.0,173.0,137.5,173.0,129.0,173.5,121.5,174.0,114.0,174.5,106.5,174.5,98.5,174.5,91.0,175.0,82.5,175.5,75.0,176.5,67.0,177.0,59.5,178.0,51.5,178.5,43.5,179.0,35.5,179.5,27.5,181.0,19.5,182.0,10.5,182.5,2.0,183.0" stroke="black" stroke-width="2" fill="none" />
<polyline points="5.0,187.5,13.0,180.0,20.5,172.5" stroke="black" stroke-width="2" fill="none" />
<polyline points="20.0,176.0,40.0,168.5" stroke="black" stroke-width="2" fill="none" />
<polyline points="35.5,178.5,27.5,186.5,19.5,194.5" stroke="black" stroke-width="2" fill="none" />
<polyline points="26.5,194.5,34.0,187.0,41.5,180.0" stroke="black" stroke-width="2" fill="none" />
<polyline points="37.5,192.0,44.5,184.5,51.5,177.0,59.0,169.5,67.0,162.0,75.0,154.5" stroke="black" stroke-width="2" fill="none" />
<polyline points="74.5,146.5,66.0,154.0,58.5,161.5" stroke="black" stroke-width="2" fill="none" />
<polyline points="60.5,163.0,69.0,162.5" stroke="black" stroke-width="2" fill="none" />
<polyline points="75.5,163.5,67.5,171.5,59.5,179.0,51.5,186.5,44.0,193.5" stroke="black" stroke-width="2" fill="none" />
<polyline points="58.0,194.5,66.0,186.5,74.5,179.0,82.5,171.0" stroke="black" stroke-width="2" fill="none" />
<polyline points="76.0,173.0,67.5,180.5,59.5,187.5,51.5,194.5" stroke="black" stroke-width="2" fill="none" />
<polyline points="59.5,193.0,67.0,192.5,75.0,192.5" stroke="black" stroke-width="2" fill="none" />
<polyline points="84.5,202.5,76.0,210.0" stroke="black" stroke-width="2" fill="none" />
<polyline points="68.0,211.0,76.5,204.0,85.0,196.5,93.5,188.5,101.5,180.5" stroke="black" stroke-width="2" fill="none" />
<polyline points="107.5,181.0,99.5,188.5,92.0,196.0" stroke="black" stroke-width="2" fill="none" />
<polyline points="92.5,180.0,84.0,187.5,75.5,195.0,67.5,203.0,59.5,210.5" stroke="black" stroke-width="2" fill="none" />
<polyline points="51.0,211.0,59.5,203.0,67.5,195.0,75.0,187.0,82.5,179.5" stroke="black" stroke-width="2" fill="none" />
<polyline points="75.0,200.5,67.0,201.5,59.0,201.5" stroke="black" stroke-width="2" fill="none" />
<polyline points="58.5,185.5,66.5,185.0,74.5,184.5,83.0,184.5,91.0,183.5" stroke="black" stroke-width="2" fill="none" />
<polyline points="108.0,203.5,116.0,196.0" stroke="black" stroke-width="2" fill="none" />
<polyline points="115.5,202.5,123.0,195.0" stroke="black" stroke-width="2" fill="none" />
<polyline points="125.5,187.0,133.0,179.5,141.0,172.0,148.5,164.0,156.5,156.0,164.5,148.5" stroke="black" stroke-width="2" fill="none" />
<polyline points="171.5,149.0,164.0,157.0,156.5,164.0,149.0,171.0,141.0,177.0,132.5,183.5" stroke="black" stroke-width="2" fill="none" />
<polyline points="140.5,176.5,148.5,176.5" stroke="black" stroke-width="2" fill="none" />
<polyline points="148.5,169.0,140.0,169.5" stroke="black" stroke-width="2" fill="none" />
<polyline points="141.0,163.5,149.0,155.0,156.5,147.5" stroke="black" stroke-width="2" fill="none" />
<polyline points="148.5,146.5,141.0,154.0" stroke="black" stroke-width="2" fill="none" />
<polyline points="139.5,152.0,147.0,151.5" stroke="black" stroke-width="2" fill="none" />
<polyline points="142.0,148.0,142.5,168.0,142.5,188.0,160.0,208.0" stroke="black" stroke-width="2" fill="none" />
<polyline points="158.0,213.5,150.0,221.0" stroke="black" stroke-width="2" fill="none" />
<polyline points="154.5,232.5,162.5,225.0,170.5,217.0,178.0,209.5,186.5,202.0,195.0,193.5,203.5,186.0,212.0,178.0,219.5,170.5" stroke="black" stroke-width="2" fill="none" />
<polyline points="220.0,165.5,228.0,165.0" stroke="black" stroke-width="2" fill="none" />
<polyline points="227.5,171.5,219.5,179.0,211.5,186.5,204.0,194.5,196.5,202.0" stroke="black" stroke-width="2" fill="none" />
<polyline points="201.0,204.0,209.0,196.5" stroke="black" stroke-width="2" fill="none" />
<polyline points="211.0,183.5,203.0,183.5" stroke="black" stroke-width="2" fill="none" />
<polyline points="209.5,171.5,201.0,179.5,193.0,187.0,185.0,194.0,177.5,201.0,170.0,208.0,162.0,215.0" stroke="black" stroke-width="2" fill="none" />
<polyline points="155.0,216.5,163.0,208.5,171.0,201.0,178.5,193.0,186.0,185.0,194.0,177.0,201.5,169.5" stroke="black" stroke-width="2" fill="none" />
<polyline points="181.5,165.5,173.5,172.5,165.0,180.0,157.0,187.5,148.5,195.0,140.0,202.0,131.5,210.0" stroke="black" stroke-width="2" fill="none" />
<polyline points="132.0,200.5,140.0,200.0" stroke="black" stroke-width="2" fill="none" />
<polyline points="141.0,194.0,149.0,193.5,156.5,192.5,164.5,192.0,172.5,192.0,180.0,191.5,188.0,191.0" stroke="black" stroke-width="2" fill="none" />
<polyline points="181.0,219.0,173.0,226.0,164.5,232.5" stroke="black" stroke-width="2" fill="none" />
<polyline points="172.0,236.5,163.5,244.0" stroke="black" stroke-width="2" fill="none" />
<polyline points="163.5,245.0,171.0,244.5" stroke="black" stroke-width="2" fill="none" />
<polyline points="181.5,245.0,189.0,244.5,196.5,244.0" stroke="black" stroke-width="2" fill="none" />
<polyline points="212.0,245.5,219.5,245.0" stroke="black" stroke-width="2" fill="none" />
<polyline points="219.5,236.5,212.0,236.5" stroke="black" stroke-width="2" fill="none" />
<polyline points="211.5,221.0,219.5,220.5" stroke="black" stroke-width="2" fill="none" />
<polyline points="217.0,213.0,209.0,213.5" stroke="black" stroke-width="2" fill="none" />
<polyline points="205.0,217.0,220.0,237.0,205.5,237.0" stroke="black" stroke-width="2" fill="none" />
<polyline points="204.0,234.0,196.5,234.5,188.5,236.0,180.5,236.5,172.5,237.5,164.5,238.5,156.5,239.0" stroke="black" stroke-width="2" fill="none" />
<polyline points="148.5,235.5,140.5,243.0" stroke="black" stroke-width="2" fill="none" />
<polyline points="148.0,243.5,140.0,251.5" stroke="black" stroke-width="2" fill="none" />
<polyline points="133.5,247.5,141.0,246.5,148.5,245.5" stroke="black" stroke-width="2" fill="none" />
<polyline points="146.5,235.0,138.5,235.5,130.0,236.0,121.5,236.5" stroke="black" stroke-width="2" fill="none" />
<polyline points="115.0,232.0,107.5,232.5,99.5,233.5,91.5,233.5,83.5,234.0,75.5,235.0,67.0,235.0,59.5,235.5,51.5,236.5,44.0,237.0,36.5,237.5" stroke="black" stroke-width="2" fill="none" />
<polyline points="42.5,240.0,22.5,242.0" stroke="black" stroke-width="2" fill="none" />
<polyline points="22.0,259.5,13.5,267.5,5.0,275.5" stroke="black" stroke-width="2" fill="none" />
<polyline points="3.5,276.5,11.0,276.0,19.0,276.0,27.0,276.0,34.5,276.0,42.5,275.5,50.5,275.5,59.0,275.0,67.5,274.0,75.0,273.5,83.0,272.5,91.0,272.5,99.0,271.5,107.5,271.0" stroke="black" stroke-width="2" fill="none" />
<polyline points="102.5,268.0,105.5,278.0,95.5,298.0,93.0,320.5,93.0,340.0,80.5,347.5,100.5,337.5,116.0,347.5,136.0,345.0" stroke="black" stroke-width="2" fill="none" />
<polyline points="141.0,353.0,149.0,345.0,157.5,337.5" stroke="black" stroke-width="2" fill="none" />
<polyline points="156.5,331.0,148.5,338.5,140.5,346.5,132.5,354.0" stroke="black" stroke-width="2" fill="none" />
<polyline points="132.5,346.0,140.0,338.5,148.0,330.5" stroke="black" stroke-width="2" fill="none" />
<polyline points="139.5,333.5,132.0,341.0" stroke="black" stroke-width="2" fill="none" />
<polyline points="125.5,340.0,134.0,332.5" stroke="black" stroke-width="2" fill="none" />
<polyline points="146.0,355.0,154.0,355.0,163.0,355.0,171.0,354.5,179.0,354.0,187.0,353.5,195.0,353.0,203.5,352.5,212.0,352.0,221.0,351.0,229.0,350.0,237.0,349.5,245.0,349.5,252.5,349.5" stroke="black" stroke-width="2" fill="none" />
<polyline points="180.0,339.0,172.5,346.5,164.0,353.5" stroke="black" stroke-width="2" fill="none" />
<polyline points="155.5,355.5,163.5,348.5,171.5,341.5" stroke="black" stroke-width="2" fill="none" />
<polyline points="164.5,339.5,156.5,347.0,149.0,354.5" stroke="black" stroke-width="2" fill="none" />
<polyline points="173.0,322.5,165.5,323.0,157.5,323.5,149.0,323.5,141.0,323.5,133.0,324.0,125.0,324.0,117.0,324.0,109.0,324.0,101.0,324.5" stroke="black" stroke-width="2" fill="none" />
<polyline points="102.0,315.5,109.5,315.5,117.0,316.0,125.0,316.0,132.5,316.0,140.0,316.0,148.0,315.5,156.0,315.0,164.0,315.0" stroke="black" stroke-width="2" fill="none" />
<polyline points="155.0,294.5,146.5,295.0" stroke="black" stroke-width="2" fill="none" />
<polyline points="122.0,301.5,130.0,300.5,138.5,300.0,147.0,299.5,155.0,299.5,163.5,299.5,171.5,298.5,179.5,298.0" stroke="black" stroke-width="2" fill="none" />
<polyline points="116.0,290.0,108.0,290.5,100.0,290.5,92.5,291.5,85.0,292.5,76.5,292.5,68.0,293.0,60.0,293.0" stroke="black" stroke-width="2" fill="none" />
<polyline points="66.5,290.5,74.5,283.0" stroke="black" stroke-width="2" fill="none" />
<polyline points="74.0,275.0,66.0,282.5,58.5,290.0" stroke="black" stroke-width="2" fill="none" />
<polyline points="59.0,282.5,66.5,275.0,74.5,268.0" stroke="black" stroke-width="2" fill="none" />
<polyline points="79.5,271.5,84.5,291.5" stroke="black" stroke-width="2" fill="none" />
<polyline points="70.0,281.0,62.0,281.5" stroke="black" stroke-width="2" fill="none" />
<polyline points="59.5,272.5,57.0,292.5,52.5,304.5,44.5,325.0,47.0,345.0,46.5,342.5,66.5,320.0,87.0,315.0,99.5,324.5,124.5,327.0,137.0,319.0,144.5,327.0,164.5,334.5,184.5,339.5,204.5,334.0,225.0,326.5" stroke="black" stroke-width="2" fill="none" />
<polyline points="188.0,302.0,180.0,302.0,172.0,302.5,164.0,303.0,156.5,303.0,149.0,303.0,141.0,303.0,133.5,302.5,126.0,302.5,117.5,303.5,109.0,304.0,100.5,304.5,92.5,305.0,84.5,306.0,76.5,307.0,69.0,307.5,60.5,308.5,52.0,309.5,44.0,309.5" stroke="black" stroke-width="2" fill="none" />
<polyline points="34.5,311.5,54.5,311.5" stroke="black" stroke-width="2" fill="none" />
<polyline points="52.0,301.5,60.0,301.0,68.0,301.0,75.5,300.5,83.0,300.0,91.0,299.0,99.0,298.5,107.0,297.0" stroke="black" stroke-width="2" fill="none" />
<polyline points="106.5,280.0,98.5,281.0,91.5,281.5,83.5,281.5,75.5,282.5,67.0,283.0,59.0,284.0,51.5,284.5,43.5,285.0,35.5,285.0,27.0,285.5,19.0,285.5,11.5,285.5,3.5,285.5" stroke="black" stroke-width="2" fill="none" />
<polyline points="1.5,290.5,10.0,283.0,18.5,275.5,26.0,267.5,34.5,260.0" stroke="black" stroke-width="2" fill="none" />
<polyline points="27.5,259.5,19.0,267.5,11.0,275.5,2.5,283.0" stroke="black" stroke-width="2" fill="none" />
<polyline points="2.5,292.5,10.5,292.0,18.5,292.5,27.0,292.0" stroke="black" stroke-width="2" fill="none" />
<polyline points="26.5,286.0,18.5,293.5,10.5,300.5" stroke="black" stroke-width="2" fill="none" />
<polyline points="4.5,299.5,13.0,292.0,21.5,284.0" stroke="black" stroke-width="2" fill="none" />
<polyline points="10.5,298.5,2.0,298.5" stroke="black" stroke-width="2" fill="none" />
<polyline points="4.0,309.5,12.5,309.0" stroke="black" stroke-width="2" fill="none" />
<polyline points="16.0,304.0,33.5,294.0,9.0,296.5,29.0,289.5,49.0,279.5,56.5,264.5,76.5,257.0,84.0,259.5,89.0,250.0,96.5,242.5,116.5,239.5,139.0,252.5,159.0,240.0" stroke="black" stroke-width="2" fill="none" />
<polyline points="180.0,232.5,180.0,253.0,175.0,273.0,204.5,300.5,202.0,330.5" stroke="black" stroke-width="2" fill="none" />
<polyline points="204.0,223.0,195.5,224.0,187.0,224.5,179.0,225.5,170.5,226.0,162.5,226.5,155.0,226.5,147.5,226.5,139.5,226.0,131.5,226.0,123.0,226.5,115.0,227.0,107.0,228.0,99.0,228.5,91.0,229.0" stroke="black" stroke-width="2" fill="none" />
<polyline points="90.5,221.5,98.5,221.5,107.0,221.0,115.5,220.5,124.0,220.5,132.5,220.0,140.5,219.0,148.5,218.5,156.5,217.5,164.0,216.0,172.0,215.0,179.5,215.0,187.5,215.0,195.5,214.5,203.5,214.5" stroke="black" stroke-width="2" fill="none" />
<polyline points="241.5,189.0,249.5,182.0" stroke="black" stroke-width="2" fill="none" />
<polyline points="250.5,185.5,258.5,185.5,266.0,185.0" stroke="black" stroke-width="2" fill="none" />
<polyline points="260.5,178.5,252.5,186.5" stroke="black" stroke-width="2" fill="none" />
<polyline points="244.0,190.0,252.0,189.0,260.0,188.5,268.0,188.5" stroke="black" stroke-width="2" fill="none" />
<polyline points="264.5,175.0,284.5,170.0" stroke="black" stroke-width="2" fill="none" />
<polyline points="265.0,148.0,257.0,148.0" stroke="black" stroke-width="2" fill="none" />
<polyline points="267.0,133.0,275.0,132.5" stroke="black" stroke-width="2" fill="none" />
<polyline points="274.5,125.5,266.5,126.0" stroke="black" stroke-width="2" fill="none" />
<polyline points="275.0,115.0,266.5,116.0,258.0,117.5,250.0,118.0" stroke="black" stroke-width="2" fill="none" />
<polyline points="246.5,115.0,266.5,125.0" stroke="black" stroke-width="2" fill="none" />
<polyline points="267.5,107.0,260.0,108.5,252.0,109.0" stroke="black" stroke-width="2" fill="none" />
<polyline points="239.5,120.0,259.5,104.5,264.5,109.5,274.5,129.5,274.5,149.0" stroke="black" stroke-width="2" fill="none" />
<polyline points="244.0,179.0,236.0,186.5" stroke="black" stroke-width="2" fill="none" />
<polyline points="234.5,179.0,226.5,186.0" stroke="black" stroke-width="2" fill="none" />
<polyline points="220.0,186.0,227.5,178.5,235.5,171.0" stroke="black" stroke-width="2" fill="none" />
<polyline points="181.5,157.5,173.0,165.0,164.0,172.5,155.5,179.5,146.5,186.5,138.5,194.0,130.0,201.5,122.0,209.5" stroke="black" stroke-width="2" fill="none" />
<polyline points="115.0,207.5,123.0,200.0,130.5,193.0,139.0,186.0,147.0,179.0,155.5,172.0,163.5,165.0,171.5,157.5" stroke="black" stroke-width="2" fill="none" />
<polyline points="187.0,140.0,195.5,139.5" stroke="black" stroke-width="2" fill="none" />
<polyline points="194.5,132.0,186.5,132.5" stroke="black" stroke-width="2" fill="none" />
<polyline points="187.0,124.0,195.0,123.5" stroke="black" stroke-width="2" fill="none" />
<polyline points="194.5,117.0,187.0,117.5" stroke="black" stroke-width="2" fill="none" />
<polyline points="186.0,108.0,194.0,108.0" stroke="black" stroke-width="2" fill="none" />
<polyline points="195.5,112.5,195.5,132.5,193.0,137.0,212.5,147.0" stroke="black" stroke-width="2" fill="none" />
<polyline points="195.5,100.0,187.5,100.5" stroke="black" stroke-width="2" fill="none" />
<polyline points="203.5,91.0,211.5,90.5,219.5,90.0" stroke="black" stroke-width="2" fill="none" />
<polyline points="212.5,84.0,204.5,84.5" stroke="black" stroke-width="2" fill="none" />
<polyline points="225.5,67.5,233.5,67.0" stroke="black" stroke-width="2" fill="none" />
<polyline points="228.5,53.0,220.5,53.0" stroke="black" stroke-width="2" fill="none" />
<polyline points="226.0,41.0,234.0,33.5,242.5,25.5,250.0,18.0" stroke="black" stroke-width="2" fill="none" />
<polyline points="244.5,18.5,237.0,26.0,229.5,33.5,221.5,41.5" stroke="black" stroke-width="2" fill="none" />
<polyline points="219.5,33.0,227.0,25.5,235.0,18.0,243.0,10.5" stroke="black" stroke-width="2" fill="none" />
<polyline points="244.0,2.0,235.5,9.5,227.0,17.5,219.0,25.5,210.5,33.5" stroke="black" stroke-width="2" fill="none" />
<polyline points="204.0,34.5,212.0,26.5,220.0,19.0,228.0,11.0,236.0,3.5" stroke="black" stroke-width="2" fill="none" />
<polyline points="234.0,5.0,239.0,10.0,247.0,30.0,225.0,50.5,223.0,70.5,225.5,103.5,220.5,126.0,195.5,146.0,201.0,166.0,208.5,175.5,188.5,183.0,178.0,218.0,155.5,230.5,162.5,247.5,169.5,268.0,192.0,265.0,204.5,262.5,224.5,257.0" stroke="black" stroke-width="2" fill="none" />
<polyline points="211.5,158.0,204.0,158.5,196.0,159.5,188.0,160.0,180.5,160.5,172.5,161.5,164.0,162.0,155.5,162.0,147.0,163.0,139.0,163.5,130.5,164.0" stroke="black" stroke-width="2" fill="none" />
<polyline points="138.5,162.0,146.5,161.0" stroke="black" stroke-width="2" fill="none" />
<polyline points="129.0,155.5,137.0,155.5,145.5,155.0,153.5,154.0,162.0,153.5,170.0,153.0,178.0,152.5,186.5,152.5,195.0,152.0,204.0,152.0" stroke="black" stroke-width="2" fill="none" />
<polyline points="180.5,139.5,171.5,140.0,163.0,139.5,154.5,139.5,146.5,139.5,138.5,140.5" stroke="black" stroke-width="2" fill="none" />
<polyline points="134.5,142.0,154.0,142.5,169.5,159.5" stroke="black" stroke-width="2" fill="none" />
<polyline points="195.0,144.5,187.0,145.0,179.0,146.0,170.5,147.0,162.5,147.5,154.5,148.5,146.5,149.0,138.0,149.5,130.0,149.5" stroke="black" stroke-width="2" fill="none" />
<polyline points="132.0,162.0,134.5,142.0,127.0,126.5" stroke="black" stroke-width="2" fill="none" />
<polyline points="99.5,117.5,92.0,118.0" stroke="black" stroke-width="2" fill="none" />
<polyline points="93.0,111.0,101.0,110.0" stroke="black" stroke-width="2" fill="none" />
<polyline points="99.0,99.0,91.0,99.5,83.0,100.0,75.5,101.0,67.5,102.0" stroke="black" stroke-width="2" fill="none" />
<polyline points="67.0,94.0,75.0,93.5,83.5,93.0,92.5,93.0,100.5,93.5,108.5,93.0" stroke="black" stroke-width="2" fill="none" />
<polyline points="124.0,83.5,132.0,83.5,140.0,84.0" stroke="black" stroke-width="2" fill="none" />
<polyline points="126.0,78.5,134.0,77.5,142.0,77.0,149.5,76.0,157.0,75.0" stroke="black" stroke-width="2" fill="none" />
<polyline points="154.5,65.5,184.5,60.5,176.5,78.0,169.0,98.0,174.0,112.5,186.5,117.5,173.5,137.0,188.5,152.0,176.0,157.0,178.5,177.5,208.5,197.0,193.5,212.5,181.5,225.0,194.0,237.5,196.5,257.0,186.5,277.0,171.5,297.0,159.0,321.5,179.5,319.0,199.5,309.0" stroke="black" stroke-width="2" fill="none" />
<polyline points="203.5,206.5,196.0,207.0,188.0,207.0,180.5,208.0,172.0,208.5,164.0,209.0,156.0,209.0,147.5,209.5,139.0,210.5,130.5,211.0,122.5,211.5,114.5,212.0,106.5,212.0" stroke="black" stroke-width="2" fill="none" />
<polyline points="74.5,221.5,67.0,222.5" stroke="black" stroke-width="2" fill="none" />
<polyline points="74.5,230.0,67.5,230.5,59.5,230.5" stroke="black" stroke-width="2" fill="none" />
<polyline points="61.0,263.5,68.5,262.5,76.0,261.5,84.0,261.0,92.0,260.5,99.5,260.0,107.0,259.0" stroke="black" stroke-width="2" fill="none" />
<polyline points="104.0,254.5,124.0,247.0,109.0,242.0,94.0,242.5,66.5,262.0,16.5,269.5,9.0,274.5,29.0,264.0,32.0,274.0,47.0,253.5,32.5,273.5,27.5,288.5,5.0,312.0,2.0,332.5,22.0,325.5,24.5,310.5,44.5,300.5,49.5,290.5,67.0,295.5,87.5,293.0,105.0,288.0,120.0,302.5,140.0,295.0,159.5,290.0,179.5,283.0,186.5,293.0,214.0,295.0,226.5,275.0,236.5,284.5" stroke="black" stroke-width="2" fill="none" />
<polyline points="114.0,266.0,105.5,266.0,97.0,266.5,89.5,267.0,82.0,267.5,74.5,267.5,66.5,267.5,59.0,268.0,50.5,268.5" stroke="black" stroke-width="2" fill="none" />
<polyline points="51.0,283.0,59.5,275.5,67.5,268.5" stroke="black" stroke-width="2" fill="none" />
<polyline points="43.0,267.5,35.0,268.0,27.5,268.5,20.0,268.5,11.5,269.5,3.5,270.0" stroke="black" stroke-width="2" fill="none" />
<polyline points="3.0,262.0,11.0,261.0,19.5,260.5,27.5,260.0,35.5,259.0,43.5,258.5" stroke="black" stroke-width="2" fill="none" />
<polyline points="3.0,253.5,10.5,253.0,18.5,252.0,26.0,251.5,34.0,250.5,42.0,250.0,50.5,249.5,58.5,249.5,66.5,249.0,74.5,248.5,82.5,248.0,90.5,248.0,98.5,247.5,106.5,247.0,114.5,246.5" stroke="black" stroke-width="2" fill="none" />
<polyline points="114.0,247.5,101.5,267.0,68.5,272.0,68.5,292.5,83.5,315.5,46.0,333.0,66.0,333.0,87.0,333.0,92.0,320.5" stroke="black" stroke-width="2" fill="none" />
<polyline points="73.0,339.0,65.5,347.0,57.5,354.5" stroke="black" stroke-width="2" fill="none" />
<polyline points="52.0,356.0,59.5,348.0,67.0,340.5" stroke="black" stroke-width="2" fill="none" />
<polyline points="60.0,338.0,51.5,345.5" stroke="black" stroke-width="2" fill="none" />
<polyline points="51.0,339.5,43.0,346.5,35.0,354.0" stroke="black" stroke-width="2" fill="none" />
<polyline points="27.0,353.5,34.5,346.0,43.0,339.0" stroke="black" stroke-width="2" fill="none" />
<polyline points="42.5,331.5,34.5,339.0,27.0,346.0,19.5,353.5" stroke="black" stroke-width="2" fill="none" />
<polyline points="12.5,355.0,20.0,347.5,27.0,340.0,35.0,332.0" stroke="black" stroke-width="2" fill="none" />
<polyline points="18.5,326.5,27.0,325.5,35.0,324.5,43.0,324.0,50.5,323.5" stroke="black" stroke-width="2" fill="none" />
<polyline points="67.0,315.0,58.5,315.0,50.5,315.5,42.0,316.0,34.0,316.5,26.0,317.0" stroke="black" stroke-width="2" fill="none" />
<polyline points="11.5,334.5,19.5,333.5,27.5,333.0,35.0,332.5,43.0,332.5,51.5,331.5,59.0,331.0,66.5,330.5,74.5,329.5,82.5,329.0,91.0,328.0,99.0,327.5,107.5,327.0,116.0,326.5,124.0,326.0,132.0,326.0,139.5,325.0,147.5,324.0,155.5,323.5,163.5,322.5,171.5,322.0,179.0,321.5" stroke="black" stroke-width="2" fill="none" />
<polyline points="99.5,336.0,91.0,336.5,83.0,337.0,75.0,337.5,67.5,337.5,59.5,338.0,51.5,338.5,43.5,339.5,36.0,340.5,28.0,341.0,20.5,342.0,12.5,342.5,4.5,343.0" stroke="black" stroke-width="2" fill="none" />
<polyline points="2.0,342.5,22.0,335.0" stroke="black" stroke-width="2" fill="none" />
<polyline points="12.5,346.0,5.0,353.5" stroke="black" stroke-width="2" fill="none" />
<polyline points="5.5,350.0,13.5,350.0,21.5,349.0,30.0,348.5,37.5,348.0,45.0,347.5,52.5,347.0,60.5,346.5,68.0,346.0,75.5,345.5,83.5,345.0" stroke="black" stroke-width="2" fill="none" />
<polyline points="102.5,274.5,122.5,284.5,124.5,279.0,144.5,269.0" stroke="black" stroke-width="2" fill="none" />
<polyline points="74.5,176.5,66.5,177.0,58.5,177.0" stroke="black" stroke-width="2" fill="none" />
<polyline points="60.0,169.5,68.0,168.5,75.5,168.0" stroke="black" stroke-width="2" fill="none" />
<polyline points="59.5,154.5,68.0,147.0,76.0,139.0" stroke="black" stroke-width="2" fill="none" />
<polyline points="67.5,139.5,59.0,147.0" stroke="black" stroke-width="2" fill="none" />
<polyline points="58.0,154.5,66.5,154.0" stroke="black" stroke-width="2" fill="none" />
<polyline points="75.0,155.0,67.5,156.0,59.5,156.0,51.5,156.5" stroke="black" stroke-width="2" fill="none" />
<polyline points="42.0,150.0,34.5,157.0" stroke="black" stroke-width="2" fill="none" />
<polyline points="37.0,146.0,28.5,153.5,21.0,161.5" stroke="black" stroke-width="2" fill="none" />
<polyline points="20.0,153.5,27.5,146.0,35.0,138.5" stroke="black" stroke-width="2" fill="none" />
<polyline points="27.5,139.0,19.5,146.5,11.5,154.0,3.5,161.5" stroke="black" stroke-width="2" fill="none" />
<polyline points="4.0,159.0,12.0,158.0,20.0,157.5,28.0,157.0,36.5,156.0,44.5,155.0" stroke="black" stroke-width="2" fill="none" />
<polyline points="45.0,147.0,25.5,147.0" stroke="black" stroke-width="2" fill="none" />
<polyline points="21.0,130.0,12.5,138.0,4.5,146.0" stroke="black" stroke-width="2" fill="none" />
<polyline points="4.5,141.5,12.0,141.5,19.5,141.0,27.5,141.0,35.5,140.5,43.0,140.5,51.5,139.5,59.5,139.0,67.5,138.5,76.0,137.5" stroke="black" stroke-width="2" fill="none" />
<polyline points="74.5,132.5,66.0,133.5,58.0,134.0" stroke="black" stroke-width="2" fill="none" />
<polyline points="60.5,138.0,68.0,130.5" stroke="black" stroke-width="2" fill="none" />
<polyline points="74.5,125.0,66.5,126.0,58.5,126.5" stroke="black" stroke-width="2" fill="none" />
<polyline points="59.0,122.5,69.0,132.5,71.5,152.5,71.5,172.5,79.0,164.5,99.5,171.5,120.0,171.5,133.0,179.0" stroke="black" stroke-width="2" fill="none" />
<polyline points="124.0,238.0,115.5,238.0,107.5,238.5,99.5,239.0,92.0,239.5,84.0,240.5,76.0,241.0,67.5,242.0,59.5,242.5,51.0,243.0,42.5,243.5,34.0,244.0,26.0,245.0,17.5,245.5,10.0,246.0,2.0,246.5" stroke="black" stroke-width="2" fill="none" />
<polyline points="3.5,242.5,23.0,237.5,42.5,232.0,62.5,229.5,82.5,229.0,102.0,219.0,64.5,236.5,29.5,249.0,7.0,259.5,26.5,260.0,49.0,245.0,56.5,252.5,74.0,249.5,94.0,236.5,114.5,234.0,129.5,218.5" stroke="black" stroke-width="2" fill="none" />
<polyline points="50.0,228.0,41.5,228.5,33.5,228.5,25.5,228.5,18.0,228.5,10.5,229.0,2.5,230.0" stroke="black" stroke-width="2" fill="none" />
<polyline points="3.0,230.0,23.0,230.0,43.5,227.5,73.5,222.5,93.5,215.0,113.0,210.0,132.5,202.5,152.5,197.5" stroke="black" stroke-width="2" fill="none" />
<polyline points="59.0,219.5,51.0,220.0,42.5,221.0,34.5,221.0,26.0,220.5,18.0,221.0,9.5,221.5,1.5,222.0" stroke="black" stroke-width="2" fill="none" />
<polyline points="1.5,215.0,10.0,214.5,18.0,213.5,26.5,213.0,35.0,213.0,43.0,212.5,51.0,212.0,59.0,211.0,66.5,210.5,74.0,210.0,82.0,209.0,90.0,208.5,98.5,207.5" stroke="black" stroke-width="2" fill="none" />
<polyline points="28.5,179.5,20.5,187.0" stroke="black" stroke-width="2" fill="none" />
<polyline points="22.0,181.0,13.5,188.5" stroke="black" stroke-width="2" fill="none" />
<polyline points="4.5,189.5,12.5,189.0,20.0,188.5,28.0,188.0,36.0,188.0,44.0,187.0,52.0,187.0,60.5,186.0,68.5,185.5,76.5,185.0,84.0,184.5,92.0,184.0,100.0,184.0,107.5,183.5,115.0,183.0,123.0,182.0,131.0,181.5,139.0,180.0,146.5,179.5,154.5,179.0,162.5,178.5,170.5,178.0,179.0,177.0,187.0,176.5,195.0,176.5,203.0,176.5,210.5,176.0,218.0,175.0,226.0,174.0,234.0,173.5" stroke="black" stroke-width="2" fill="none" />
<polyline points="219.5,191.0,211.5,191.5,204.0,192.0,196.0,192.5,188.5,193.0,180.5,193.5,173.0,194.0,165.5,195.0,157.0,195.0,149.0,195.0,141.0,196.0,132.0,197.0,123.5,197.5,115.0,198.5,106.5,199.5,98.5,200.0,90.5,201.0,82.5,201.5,74.5,202.0,66.5,202.0,58.5,202.5,50.5,203.0,43.0,204.0,34.5,204.5,27.0,205.5,19.5,206.0,12.0,207.0,4.0,207.5" stroke="black" stroke-width="2" fill="none" />
<polyline points="4.5,198.0,12.0,198.0,20.0,198.0,27.5,197.5,35.5,197.0,44.0,196.0,51.5,195.5,59.0,194.5,66.5,193.5,74.5,193.0,82.5,192.5,90.5,192.0,99.5,191.5,107.5,191.0,115.5,191.5,124.0,191.0,131.5,190.0,140.0,188.5,148.0,187.5,156.5,186.5,164.5,186.0,172.5,185.5,179.5,185.5,187.5,185.5,195.5,185.0,203.0,184.5,210.5,183.5,218.5,183.5,226.5,183.0" stroke="black" stroke-width="2" fill="none" />
<polyline points="270.0,100.0,289.5,82.5,282.0,97.0,247.0,107.0,239.5,127.5,257.0,135.0,245.0,155.0,242.5,159.5,255.5,139.5,283.0,152.5,303.0,135.0,325.5,137.5,353.0,129.5,362.5,112.0,365.0,97.5,377.5,102.5,397.5,100.0" stroke="black" stroke-width="2" fill="none" />
<polyline points="369.5,117.5,344.5,145.0,351.5,165.0,364.0,162.5,384.0,155.5,399.5,165.5,416.5,157.5" stroke="black" stroke-width="2" fill="none" />
<polyline points="405.0,209.5,425.5,212.0" stroke="black" stroke-width="2" fill="none" />
<polyline points="466.0,245.0,498.5,255.0,493.5,262.5" stroke="black" stroke-width="2" fill="none" />
<polyline points="300.5,92.5,292.5,92.5" stroke="black" stroke-width="2" fill="none" />
<polyline points="293.5,85.5,301.5,85.0,309.0,85.0" stroke="black" stroke-width="2" fill="none" />
<polyline points="291.0,63.0,299.0,62.5,307.5,61.5,316.0,61.0,324.5,60.5,332.5,60.0,341.0,59.5" stroke="black" stroke-width="2" fill="none" />
<polyline points="322.0,36.0,314.0,43.5,305.5,50.0,298.0,57.0" stroke="black" stroke-width="2" fill="none" />
<polyline points="298.0,50.5,306.0,44.0,313.5,36.5" stroke="black" stroke-width="2" fill="none" />
<polyline points="296.5,37.0,316.5,31.5,336.5,21.5,356.5,16.5,344.5,1.5,322.0,11.5,322.0,44.0,329.5,55.0,339.5,30.5,359.0,25.5,374.0,33.0,396.5,38.0,399.0,42.5,419.5,55.0,440.0,45.0,450.0,37.5,470.0,30.0,482.5,15.0,504.5,10.5,506.5,13.5" stroke="black" stroke-width="2" fill="none" />
<polyline points="385.5,1.0,378.0,2.0,370.5,3.0,362.5,4.0,355.0,4.5,347.0,5.0" stroke="black" stroke-width="2" fill="none" />
<polyline points="340.0,14.5,348.0,14.0,356.0,13.0,364.0,12.5" stroke="black" stroke-width="2" fill="none" />
<polyline points="346.0,19.5,337.5,20.0,329.0,21.0" stroke="black" stroke-width="2" fill="none" />
<polyline points="323.0,18.0,315.0,18.5,307.0,19.0" stroke="black" stroke-width="2" fill="none" />
<polyline points="283.5,37.5,291.5,37.0,300.0,37.0,308.0,36.5,316.0,36.0,324.0,35.5,331.5,35.0,339.0,34.5,347.0,34.5" stroke="black" stroke-width="2" fill="none" />
<polyline points="340.0,50.0,332.0,50.5,324.0,51.5,316.0,52.5,308.0,53.0,299.5,54.0,291.5,54.5" stroke="black" stroke-width="2" fill="none" />
<polyline points="290.0,45.5,298.0,44.5,306.0,44.0,314.0,43.5,322.5,43.0,331.0,42.5,339.0,42.0,347.0,42.5" stroke="black" stroke-width="2" fill="none" />
<polyline points="284.0,23.0,276.0,23.5" stroke="black" stroke-width="2" fill="none" />
<polyline points="270.5,33.0,290.5,38.0,298.5,23.0,318.5,15.5,340.5,8.0,365.5,8.0,385.5,5.0,405.5,4.5" stroke="black" stroke-width="2" fill="none" />
<polyline points="345.5,24.0,338.0,24.0,330.0,25.0,322.5,26.0,315.0,27.0,307.0,27.0,298.5,27.5,290.5,27.5,282.5,28.0,274.5,28.5,266.0,29.0" stroke="black" stroke-width="2" fill="none" />
<polyline points="251.5,27.0,272.0,14.5,292.0,9.0,290.0,24.0,282.5,24.5,255.0,24.5,274.5,39.0,289.5,59.0,292.0,69.0,312.0,79.0,294.5,98.5,304.5,118.5,309.5,121.0,317.0,133.5,304.5,136.0,317.0,138.5,296.5,151.5,279.5,172.0,292.0,200.0,289.5,220.5,274.5,225.5,272.0,245.5,259.5,265.5,259.5,285.0,252.0,305.0,259.5,325.0,282.0,342.5,262.0,340.0,297.0,349.5,324.5,339.5,324.5,344.0,344.5,342.0,354.5,349.5,359.5,350.0,381.5,345.0,401.5,345.0,409.0,339.5,428.5,330.0,426.5,332.5,404.0,342.5,359.0,342.5" stroke="black" stroke-width="2" fill="none" />
<polyline points="108.0,165.5,99.5,166.5,91.0,167.0,83.0,168.0,75.0,168.5,67.0,168.5,59.5,168.5,52.0,168.0,44.0,168.5,36.5,169.0,29.0,170.5,21.0,171.5,13.0,172.0,5.5,172.5" stroke="black" stroke-width="2" fill="none" />
<polyline points="5.0,171.0,12.5,163.5" stroke="black" stroke-width="2" fill="none" />
<polyline points="13.0,169.5,5.5,177.5" stroke="black" stroke-width="2" fill="none" />
<polyline points="4.0,176.5,12.5,176.0" stroke="black" stroke-width="2" fill="none" />
<polyline points="12.0,169.0,4.5,169.5" stroke="black" stroke-width="2" fill="none" />
<polyline points="3.5,166.5,11.5,166.0,20.0,165.5,28.5,165.0,36.5,164.0,45.0,163.0,53.0,162.5,60.5,162.5,68.5,161.5,77.0,161.0,85.0,160.0" stroke="black" stroke-width="2" fill="none" />
<polyline points="76.5,147.0,69.0,147.0,61.0,147.0,52.0,148.0,44.0,148.5,36.0,149.0,28.0,149.5,20.0,150.0,12.0,150.5,3.5,151.5" stroke="black" stroke-width="2" fill="none" />
<polyline points="2.5,153.0,10.5,145.5,19.0,137.5,27.5,129.5" stroke="black" stroke-width="2" fill="none" />
<polyline points="28.5,124.5,21.0,125.5,13.5,126.0" stroke="black" stroke-width="2" fill="none" />
<polyline points="20.0,127.0,42.5,145.0,24.5,147.5,9.5,162.5,7.0,187.5,9.5,190.5,29.5,185.5,39.5,175.0" stroke="black" stroke-width="2" fill="none" />
<polyline points="40.0,139.5,20.0,127.0" stroke="black" stroke-width="2" fill="none" />
<polyline points="12.0,132.5,4.5,139.5" stroke="black" stroke-width="2" fill="none" />
<polyline points="3.5,134.0,11.0,133.5,18.5,133.0,26.5,133.0,35.0,133.0" stroke="black" stroke-width="2" fill="none" />
<polyline points="27.5,118.5,47.5,113.5,67.0,108.5,87.5,109.0,120.0,121.5,140.5,122.0,160.0,116.5" stroke="black" stroke-width="2" fill="none" />
<polyline points="174.0,79.5,193.5,62.0" stroke="black" stroke-width="2" fill="none" />
<polyline points="203.5,44.0,211.5,43.5,219.5,44.0,227.5,44.0,235.0,44.0" stroke="black" stroke-width="2" fill="none" />
<polyline points="242.0,36.0,249.5,28.0" stroke="black" stroke-width="2" fill="none" />
<polyline points="236.0,16.5,228.0,17.5" stroke="black" stroke-width="2" fill="none" />
<polyline points="226.5,2.5,218.5,10.0,211.0,17.5,203.0,25.0,195.0,32.5" stroke="black" stroke-width="2" fill="none" />
<polyline points="194.5,26.5,202.5,19.0,210.5,11.5,219.0,3.5" stroke="black" stroke-width="2" fill="none" />
<polyline points="210.0,2.5,202.0,10.0,194.0,17.5,186.0,25.5,178.0,33.5" stroke="black" stroke-width="2" fill="none" />
<polyline points="172.0,34.5,180.0,27.0,188.0,19.0" stroke="black" stroke-width="2" fill="none" />
<polyline points="188.0,11.5,179.5,19.0,171.5,26.5,163.5,34.0" stroke="black" stroke-width="2" fill="none" />
<polyline points="162.5,34.5,147.0,39.5,164.0,64.5,128.5,92.0" stroke="black" stroke-width="2" fill="none" />
<polyline points="124.5,69.5,133.0,69.0,141.5,68.5,149.5,68.0,157.5,68.0,165.5,68.0,173.5,67.5,181.0,66.5,189.0,66.0" stroke="black" stroke-width="2" fill="none" />
<polyline points="203.0,37.0,211.0,37.0,219.5,36.5,228.0,36.0,236.0,35.0,243.5,34.0" stroke="black" stroke-width="2" fill="none" />
<polyline points="236.5,24.0,228.0,25.5,219.5,27.0,211.5,27.5,203.5,28.5" stroke="black" stroke-width="2" fill="none" />
<polyline points="202.5,35.0,185.0,55.0,150.5,59.5,160.0,39.5,184.5,54.0,204.0,46.5,204.0,56.5,224.0,49.0,244.0,31.5,259.0,4.5" stroke="black" stroke-width="2" fill="none" />
<polyline points="204.0,0.5,196.0,8.0" stroke="black" stroke-width="2" fill="none" />
<polyline points="203.5,11.0,211.5,10.0,219.0,9.0" stroke="black" stroke-width="2" fill="none" />
<polyline points="212.5,18.0,204.5,19.0" stroke="black" stroke-width="2" fill="none" />
<polyline points="180.5,13.5,172.5,21.0,164.5,28.0,156.0,35.0,147.5,41.5,139.0,48.5,130.5,56.0,122.0,63.5" stroke="black" stroke-width="2" fill="none" />
<polyline points="116.5,59.5,124.5,59.5,132.0,59.0,139.5,59.0,147.5,59.5,155.5,59.5,163.5,58.5,170.5,58.0,178.5,57.0,186.5,56.0,194.5,55.5" stroke="black" stroke-width="2" fill="none" />
<polyline points="147.0,52.5,139.0,59.5,131.0,67.5" stroke="black" stroke-width="2" fill="none" />
<polyline points="123.0,55.5,131.0,48.5,138.5,41.5,146.5,34.0,155.0,27.0,163.5,19.5,172.0,12.0" stroke="black" stroke-width="2" fill="none" />
<polyline points="173.0,11.0,192.5,5.5" stroke="black" stroke-width="2" fill="none" />
<polyline points="170.0,1.5,162.5,9.0,154.5,17.0,146.5,25.0,138.5,32.0,130.0,40.0,122.0,47.5" stroke="black" stroke-width="2" fill="none" />
<polyline points="124.0,41.0,132.0,33.5,140.5,26.0,148.5,18.5,157.0,11.0,165.5,3.0" stroke="black" stroke-width="2" fill="none" />
<polyline points="156.0,2.0,148.0,9.5,140.0,17.0,132.0,25.0,124.5,33.0" stroke="black" stroke-width="2" fill="none" />
<polyline points="116.5,36.0,124.5,35.5,131.5,35.5,139.5,35.5,147.5,35.0,155.0,34.5,162.5,33.5,170.5,33.5,178.5,33.0" stroke="black" stroke-width="2" fill="none" />
<polyline points="171.5,23.5,163.5,24.0,155.5,24.0,148.0,24.0" stroke="black" stroke-width="2" fill="none" />
<polyline points="154.5,16.5,146.5,17.0,139.0,17.5" stroke="black" stroke-width="2" fill="none" />
<polyline points="129.0,18.5,137.0,11.0,145.0,4.0" stroke="black" stroke-width="2" fill="none" />
<polyline points="141.5,6.5,133.5,13.5,125.0,20.5" stroke="black" stroke-width="2" fill="none" />
<polyline points="125.0,11.5,133.0,4.0" stroke="black" stroke-width="2" fill="none" />
<polyline points="124.0,3.5,116.0,11.0" stroke="black" stroke-width="2" fill="none" />
<polyline points="117.0,11.5,127.0,31.5,150.0,34.0,170.0,34.5,190.0,29.5,210.5,37.5,230.0,65.5,250.0,65.0,270.0,65.0,297.0,70.0,317.0,80.0,337.0,85.0,339.5,62.5,359.5,57.5,379.5,52.5,424.5,67.5,444.5,70.0,464.0,60.0" stroke="black" stroke-width="2" fill="none" />
<polyline points="163.5,49.5,156.0,50.0,148.0,50.5,140.5,51.0,132.5,51.5,125.0,52.0,117.5,53.0" stroke="black" stroke-width="2" fill="none" />
<polyline points="101.0,43.0,109.5,42.5,117.0,43.0,124.0,43.0,131.0,43.0,138.0,43.0,146.5,43.0,154.5,43.0,162.5,42.5,170.0,42.0" stroke="black" stroke-width="2" fill="none" />
<polyline points="114.5,28.5,122.5,28.0,131.0,27.0,139.0,26.5,147.0,26.5,155.0,26.5,162.5,26.0,170.0,25.0,178.0,24.0,186.0,23.5,194.0,23.0,202.0,23.0,210.5,23.0,219.0,22.5,227.0,22.0,235.0,21.5,242.5,21.0,250.0,21.0" stroke="black" stroke-width="2" fill="none" />
<polyline points="115.5,5.0,107.5,12.5" stroke="black" stroke-width="2" fill="none" />
<polyline points="106.5,20.0,114.0,19.5,122.5,19.0,130.5,19.0,139.0,18.5,147.5,18.0,156.0,18.0,164.5,17.5,173.0,17.0,181.0,16.5,189.5,16.0,197.0,15.5,204.5,15.0,212.0,14.0,220.0,13.0,227.5,12.5,235.5,11.5,243.5,10.5,251.5,10.5,259.0,10.0" stroke="black" stroke-width="2" fill="none" />
<polyline points="251.5,3.0,243.5,3.5,235.0,3.5,227.0,4.0,218.0,4.5,210.0,5.0,202.0,5.5,195.0,6.0,187.5,7.0,180.5,8.0,172.0,8.5,164.0,9.0,155.5,9.5,147.5,10.0,139.5,10.5,131.5,11.5,123.5,12.0,115.5,12.5,107.5,13.5,99.5,13.5,91.5,14.0" stroke="black" stroke-width="2" fill="none" />
<polyline points="83.0,5.0,91.0,4.5,99.5,4.0,108.0,3.5,116.0,3.0,124.0,3.0,131.5,2.0,139.5,1.0,147.5,0.5,155.5,-0.5,163.5,-1.0,171.0,-1.5,179.0,-2.0,187.5,-2.5,195.5,-3.0,203.0,-3.5,211.0,-3.5,219.0,-3.0,227.0,-3.0,235.5,-2.5,243.5,-2.5,251.5,-3.5" stroke="black" stroke-width="2" fill="none" />
<polyline points="124.0,17.0,104.0,4.5" stroke="black" stroke-width="2" fill="none" />
<polyline points="107.0,31.5,98.5,32.5,91.0,32.5,83.0,33.0,75.0,33.5,66.5,34.5,58.0,35.5,50.0,36.5,43.0,37.5,35.0,38.0,27.0,39.0,18.5,39.5" stroke="black" stroke-width="2" fill="none" />
<polyline points="18.0,34.5,26.0,27.5,33.5,20.5" stroke="black" stroke-width="2" fill="none" />
<polyline points="32.0,21.5,37.0,14.0,57.0,11.5,77.5,8.5,108.0,26.0,108.0,46.0,115.0,58.5,102.0,78.5,101.5,101.0,116.5,121.0,149.0,133.5,164.0,156.0,156.5,158.5,164.0,186.5,144.5,219.0,147.0,231.5,137.5,234.0,132.5,236.5,140.5,221.5,155.5,229.5,168.0,212.0,190.5,199.0,210.0,196.5,230.0,191.5,250.0,186.0,269.5,186.0,289.5,183.0,319.5,188.0,347.0,193.0,367.0,188.5,377.0,183.5,397.0,183.5,412.0,193.5,432.0,196.5,454.5,199.0,477.0,189.0,497.0,191.5" stroke="black" stroke-width="2" fill="none" />
<polyline points="107.5,75.5,99.5,76.0,91.0,76.5,82.5,77.5" stroke="black" stroke-width="2" fill="none" />
<polyline points="66.5,77.0,58.5,77.5" stroke="black" stroke-width="2" fill="none" />
<polyline points="52.5,83.5,60.5,83.0,67.5,83.0,76.0,82.5,84.5,83.0,93.0,82.5,100.5,82.0,108.5,81.0" stroke="black" stroke-width="2" fill="none" />
<polyline points="59.0,92.0,51.0,93.0" stroke="black" stroke-width="2" fill="none" />
<polyline points="53.0,69.0,60.5,68.5,68.0,67.5,76.5,66.5,84.5,66.0,93.0,65.5,101.0,65.0" stroke="black" stroke-width="2" fill="none" />
<polyline points="100.5,57.0,92.5,57.5,85.0,58.5,76.5,59.5,68.5,61.0,60.5,62.0,52.5,63.0,44.0,63.5" stroke="black" stroke-width="2" fill="none" />
<polyline points="36.0,52.0,43.5,44.0" stroke="black" stroke-width="2" fill="none" />
<polyline points="44.0,37.5,36.0,44.5" stroke="black" stroke-width="2" fill="none" />
<polyline points="37.5,37.0,45.5,29.0" stroke="black" stroke-width="2" fill="none" />
<polyline points="49.5,34.5,57.5,27.0" stroke="black" stroke-width="2" fill="none" />
<polyline points="61.0,34.5,69.0,27.5" stroke="black" stroke-width="2" fill="none" />
<polyline points="74.5,18.5,66.5,18.5,58.0,19.0,50.0,19.0,42.0,19.0,33.5,19.5,26.0,19.5,18.5,20.0,11.0,21.0,4.0,21.0" stroke="black" stroke-width="2" fill="none" />
<polyline points="1.5,23.0,21.5,40.5,41.5,49.0,61.5,46.5,81.5,54.5,102.0,59.5,129.5,82.0,135.0,84.5,155.5,94.5,181.5,99.5,204.0,89.5,223.5,89.5,243.0,79.5" stroke="black" stroke-width="2" fill="none" />
<polyline points="91.0,24.5,82.5,25.5,74.5,25.0,66.5,25.0,58.5,25.0,50.5,25.5,43.0,26.0,35.5,27.0,28.0,28.0,20.5,28.5,12.5,29.5,4.0,30.5" stroke="black" stroke-width="2" fill="none" />
<polyline points="20.0,26.5,28.0,19.0" stroke="black" stroke-width="2" fill="none" />
<polyline points="26.5,12.0,18.5,19.5,11.0,27.0" stroke="black" stroke-width="2" fill="none" />
<polyline points="13.0,17.0,21.0,10.0" stroke="black" stroke-width="2" fill="none" />
<polyline points="3.5,12.0,11.5,12.0,20.0,12.0,28.0,11.5,36.5,11.5,44.5,11.5" stroke="black" stroke-width="2" fill="none" />
<polyline points="59.0,12.0,79.0,22.0,84.5,12.0,104.5,22.0" stroke="black" stroke-width="2" fill="none" />
<polyline points="104.0,35.5,84.0,25.0" stroke="black" stroke-width="2" fill="none" />
<polyline points="68.0,50.5,59.5,50.5,51.5,51.0,43.0,51.5,34.5,52.0,26.0,52.5" stroke="black" stroke-width="2" fill="none" />
<polyline points="25.5,44.0,33.5,43.5,42.5,43.5,51.0,43.0" stroke="black" stroke-width="2" fill="none" />
<polyline points="45.0,37.0,65.0,37.0,85.0,35.0,104.5,42.5" stroke="black" stroke-width="2" fill="none" />
<polyline points="111.0,54.5,96.5,49.0,79.0,21.5,59.0,24.0,39.0,26.5" stroke="black" stroke-width="2" fill="none" />
<polyline points="35.0,26.5,27.5,33.5" stroke="black" stroke-width="2" fill="none" />
<polyline points="14.0,56.0,1.5,56.0,14.5,38.0,14.0,58.0,51.5,80.0,49.0,92.5,69.0,79.5,79.5,69.5,94.5,69.0,121.5,67.0,141.5,77.0,152.0,57.0,172.0,42.0,197.0,56.5,182.0,76.5,182.0,96.5,162.0,106.5,166.5,121.5,164.0,126.5,179.0,129.5,186.5,110.0,216.5,109.5,218.5,144.5,218.5,152.0,208.5,186.5,203.5,219.0,201.0,241.5,221.0,251.5,223.5,264.0,215.5,284.5,233.0,277.0,215.5,292.0,208.5,312.5,181.5,333.0,184.0,330.5,204.5,321.0,232.0,308.0,252.5,323.0,265.0,320.5,285.0,308.0" stroke="black" stroke-width="2" fill="none" />
<polyline points="96.0,127.5,76.0,127.5" stroke="black" stroke-width="2" fill="none" />
<polyline points="20.5,92.5,13.0,93.5,5.0,94.5" stroke="black" stroke-width="2" fill="none" />
<polyline points="6.0,87.5,14.0,86.5" stroke="black" stroke-width="2" fill="none" />
<polyline points="2.5,62.0,10.0,87.0,7.5,102.0,17.5,89.5,37.5,89.5,57.5,79.5,77.5,64.5" stroke="black" stroke-width="2" fill="none" />
<polyline points="69.5,64.0,49.5,54.0,36.5,61.5,16.0,59.0" stroke="black" stroke-width="2" fill="none" />
<polyline points="61.0,48.5,103.5,55.5,116.0,82.5,113.0,87.0,133.0,91.5,153.0,99.0,155.0,81.0,174.5,68.0,196.5,68.0,208.5,81.0,225.5,68.5,246.0,71.0" stroke="black" stroke-width="2" fill="none" />
<polyline points="28.5,2.5,20.0,3.0,12.0,4.0,4.0,4.0" stroke="black" stroke-width="2" fill="none" />
<polyline points="3.0,128.0,23.0,118.0,42.5,110.5,62.5,105.5,82.5,105.0,77.0,130.0,49.5,139.5,47.0,157.0,52.0,182.0,32.0,192.5,51.5,192.5,71.5,192.5,92.0,185.0,100.0,195.5,110.5,188.0,130.5,186.0,143.0,188.5,153.0,156.0,183.5,166.0,191.0,193.0,211.0,188.0,230.5,183.0,253.0,175.5,272.5,165.0,297.0,170.5,317.0,157.5,334.5,152.5" stroke="black" stroke-width="2" fill="none" />
<polyline points="74.5,209.0,54.0,214.0,33.5,213.5,13.0,211.0" stroke="black" stroke-width="2" fill="none" />
<polyline points="14.0,202.5,34.0,200.0" stroke="black" stroke-width="2" fill="none" />
</svg>