<svg xmlns="http://www.w3.org/2000/svg" version="1.1"><polyline points="262.5,1.0,250.5,3.5,260.5,19.5,287.0,33.0,293.0,25.5,309.0,15.5,325.0,14.0,341.0,24.0,357.0,20.5,355.0,14.5,371.5,6.5,387.0,6.5,402.5,4.0" stroke="black" stroke-width="2" fill="none" />
<polyline points="373.5,10.0,357.5,12.0,342.0,13.0" stroke="black" stroke-width="2" fill="none" />
<polyline points="340.0,8.5,320.0,28.5,318.0,24.5,308.0,30.5,292.0,44.5,282.0,42.5,266.0,30.5,249.5,28.5,233.0,40.0,217.5,62.0,210.0,46.0,195.5,50.0,191.5,66.5,181.5,80.5,179.5,92.0,163.5,93.5,147.5,101.5,131.5,101.5,115.5,83.5,116.0,67.5,106.5,52.0,121.0,38.0,102.5,22.5,74.5,6.5" stroke="black" stroke-width="2" fill="none" />
<polyline points="69.5,17.5,99.5,33.0,109.5,54.5,125.0,68.0,129.0,71.5,139.0,77.5,154.5,73.0,162.0,60.5,175.5,50.5,191.0,45.0,196.5,39.0" stroke="black" stroke-width="2" fill="none" />
<polyline points="199.0,37.0,215.0,20.0,231.0,4.5" stroke="black" stroke-width="2" fill="none" />
<polyline points="236.0,4.0,245.5,6.0,241.5,14.0,247.5,30.0,227.5,46.0,217.5,62.0,225.5,78.0,220.0,90.5,226.0,98.5,226.5,114.0,220.5,118.0,210.0,128.0,216.0,146.0,219.5,150.0,193.0,164.0,187.0,180.0,193.0,191.5,179.0,210.0,143.5,220.0,137.5,230.0,105.5,246.0,77.5,243.5,79.5,257.5,71.5,274.0,67.5,290.0,47.5,308.0,45.5,324.5,35.5,348.0,39.5,346.0,43.0,351.5" stroke="black" stroke-width="2" fill="none" />
<polyline points="40.0,341.5,24.0,357.0" stroke="black" stroke-width="2" fill="none" />
<polyline points="19.5,341.0,4.5,356.5" stroke="black" stroke-width="2" fill="none" />
<polyline points="4.5,350.5,21.5,350.0,39.0,349.0,55.5,347.5,71.0,345.5,87.0,345.0" stroke="black" stroke-width="2" fill="none" />
<polyline points="75.5,338.0,91.5,336.5,107.5,328.5" stroke="black" stroke-width="2" fill="none" />
<polyline points="100.5,325.5,117.0,326.0,133.0,327.5,149.0,328.5,166.0,329.0,182.5,329.0" stroke="black" stroke-width="2" fill="none" />
<polyline points="184.5,341.0,200.5,339.0" stroke="black" stroke-width="2" fill="none" />
<polyline points="200.5,335.0,217.0,334.5,233.0,333.5,249.0,332.0,265.0,329.5,282.0,327.5,297.0,326.5,313.0,325.5,329.5,324.0,346.0,322.5" stroke="black" stroke-width="2" fill="none" />
<polyline points="340.5,312.0,323.5,311.5,306.5,312.0,291.0,312.5,276.0,313.0,261.0,312.5,245.5,312.5,230.0,312.5,213.5,313.5" stroke="black" stroke-width="2" fill="none" />
<polyline points="231.5,322.5,215.5,337.5,199.5,353.0" stroke="black" stroke-width="2" fill="none" />
<polyline points="200.0,355.5,216.5,355.5,233.5,354.5,250.0,353.0" stroke="black" stroke-width="2" fill="none" />
<polyline points="247.0,362.0,263.0,347.0" stroke="black" stroke-width="2" fill="none" />
<polyline points="261.0,327.5,246.0,343.0,230.5,357.5" stroke="black" stroke-width="2" fill="none" />
<polyline points="214.5,358.5,231.5,342.5,248.5,326.5" stroke="black" stroke-width="2" fill="none" />
<polyline points="263.0,323.0,279.5,333.5,289.5,345.5,306.0,354.0,311.5,342.0,328.0,343.5,344.0,346.0" stroke="black" stroke-width="2" fill="none" />
<polyline points="341.5,333.5,326.0,327.0" stroke="black" stroke-width="2" fill="none" />
<polyline points="319.0,321.0,329.0,309.5,321.5,325.5,323.5,348.0,342.0,349.5" stroke="black" stroke-width="2" fill="none" />
<polyline points="332.0,349.5,316.0,341.5" stroke="black" stroke-width="2" fill="none" />
<polyline points="326.0,308.0,341.5,310.0,357.0,314.0,371.0,308.0,374.5,324.0,390.5,326.0" stroke="black" stroke-width="2" fill="none" />
<polyline points="410.0,318.0,426.5,317.0" stroke="black" stroke-width="2" fill="none" />
<polyline points="433.0,303.0,449.0,303.0,465.0,305.5" stroke="black" stroke-width="2" fill="none" />
<polyline points="469.0,297.0,485.5,296.5,502.0,295.5,518.0,295.0" stroke="black" stroke-width="2" fill="none" />
<polyline points="516.5,294.5,501.0,309.5" stroke="black" stroke-width="2" fill="none" />
<polyline points="498.5,292.5,514.0,276.0" stroke="black" stroke-width="2" fill="none" />
<polyline points="515.0,264.0,499.5,279.0,483.5,294.5" stroke="black" stroke-width="2" fill="none" />
<polyline points="484.5,279.5,500.5,264.0" stroke="black" stroke-width="2" fill="none" />
<polyline points="486.5,263.5,470.5,279.5" stroke="black" stroke-width="2" fill="none" />
<polyline points="470.5,283.0,489.0,299.0" stroke="black" stroke-width="2" fill="none" />
<polyline points="473.5,328.5,489.0,327.5,503.5,328.0,519.0,328.5" stroke="black" stroke-width="2" fill="none" />
<polyline points="520.5,343.5,505.0,343.5,489.0,343.5" stroke="black" stroke-width="2" fill="none" />
<polyline points="518.5,311.0,501.5,312.0,485.5,312.5,469.5,312.5,453.5,312.5" stroke="black" stroke-width="2" fill="none" />
<polyline points="454.0,297.0,438.0,299.0,422.0,311.0,429.5,295.5,429.5,281.5,413.5,277.5" stroke="black" stroke-width="2" fill="none" />
<polyline points="407.5,284.5,423.5,284.0" stroke="black" stroke-width="2" fill="none" />
<polyline points="422.5,266.0,405.0,267.0" stroke="black" stroke-width="2" fill="none" />
<polyline points="403.5,259.0,419.5,243.0" stroke="black" stroke-width="2" fill="none" />
<polyline points="420.5,258.0,437.5,242.5,454.5,226.5,471.5,211.5,488.0,197.5,504.0,182.0" stroke="black" stroke-width="2" fill="none" />
<polyline points="504.5,194.5,520.5,194.0" stroke="black" stroke-width="2" fill="none" />
<polyline points="516.0,202.5,500.0,217.5" stroke="black" stroke-width="2" fill="none" />
<polyline points="487.0,216.5,470.0,231.5,454.0,246.5,438.0,262.5" stroke="black" stroke-width="2" fill="none" />
<polyline points="438.0,266.0,454.0,265.5,470.0,265.0,486.0,264.0,502.5,263.0,519.5,262.5" stroke="black" stroke-width="2" fill="none" />
<polyline points="499.5,232.5,515.0,218.0" stroke="black" stroke-width="2" fill="none" />
<polyline points="501.5,199.5,517.0,183.5" stroke="black" stroke-width="2" fill="none" />
<polyline points="521.0,171.0,504.0,171.0,487.0,171.0,470.0,171.5,453.5,171.5,437.5,171.5" stroke="black" stroke-width="2" fill="none" />
<polyline points="434.5,183.0,419.5,198.0" stroke="black" stroke-width="2" fill="none" />
<polyline points="408.0,198.0,424.5,183.0" stroke="black" stroke-width="2" fill="none" />
<polyline points="413.0,174.5,429.0,174.0,445.0,170.0" stroke="black" stroke-width="2" fill="none" />
<polyline points="453.0,169.5,468.5,153.5" stroke="black" stroke-width="2" fill="none" />
<polyline points="475.0,152.0,460.0,151.5" stroke="black" stroke-width="2" fill="none" />
<polyline points="458.0,134.0,475.0,134.0" stroke="black" stroke-width="2" fill="none" />
<polyline points="463.0,133.0,463.0,149.0,463.0,165.0,465.5,182.5,471.5,177.0,487.5,169.0,504.0,171.0" stroke="black" stroke-width="2" fill="none" />
<polyline points="519.5,170.0,503.5,169.5,488.0,169.0,472.5,171.0,457.0,173.0,441.0,174.5,425.5,175.5,409.0,177.0,392.0,177.0,375.0,177.0,358.0,177.5,341.5,177.5,325.5,177.5,309.0,178.5,293.0,179.0,277.5,179.0,262.0,179.5,246.0,179.5,229.5,179.5,213.0,180.0,196.5,180.0,180.5,180.5,164.0,181.0,148.0,182.0,132.0,183.0,116.5,184.5,101.5,186.0,86.5,187.5,70.0,188.0,53.0,188.0,37.5,187.5,22.5,187.5,7.0,188.0" stroke="black" stroke-width="2" fill="none" />
<polyline points="8.5,191.0,25.0,195.0,41.0,195.0,57.0,197.0" stroke="black" stroke-width="2" fill="none" />
<polyline points="55.5,197.5,73.0,182.5,88.5,167.5" stroke="black" stroke-width="2" fill="none" />
<polyline points="89.5,181.5,73.5,197.5,57.5,214.0" stroke="black" stroke-width="2" fill="none" />
<polyline points="71.5,213.0,87.5,196.5,104.0,180.0" stroke="black" stroke-width="2" fill="none" />
<polyline points="117.5,186.5,102.0,201.5" stroke="black" stroke-width="2" fill="none" />
<polyline points="118.5,212.0,134.5,196.0,150.0,180.0,165.5,165.0,181.5,149.0" stroke="black" stroke-width="2" fill="none" />
<polyline points="167.0,149.0,151.0,164.5,135.5,180.0,119.5,196.0" stroke="black" stroke-width="2" fill="none" />
<polyline points="133.0,197.0,150.0,196.0,166.0,194.5,182.5,194.0" stroke="black" stroke-width="2" fill="none" />
<polyline points="187.5,183.0,172.0,198.5,155.0,213.0" stroke="black" stroke-width="2" fill="none" />
<polyline points="151.5,209.5,164.0,197.5,148.0,204.0,140.0,215.5,124.0,223.5,108.5,227.0,99.0,233.0,79.0,231.0,98.5,233.5,114.5,218.0,98.0,222.5,82.5,228.5,66.0,232.5,50.0,232.0,34.0,236.0,17.5,240.0,1.5,244.0" stroke="black" stroke-width="2" fill="none" />
<polyline points="8.5,238.0,24.5,237.0,40.5,236.5,56.5,235.5,73.0,234.0,89.0,232.5,104.5,231.5,120.5,231.0,136.5,231.0,152.0,231.0,168.0,230.5,184.5,230.5,201.5,229.5" stroke="black" stroke-width="2" fill="none" />
<polyline points="203.0,218.0,223.0,232.5,223.5,248.5,209.5,252.5" stroke="black" stroke-width="2" fill="none" />
<polyline points="201.0,267.5,216.5,267.0,231.5,266.0,247.0,265.0,262.5,264.5,279.0,264.5,295.0,263.5,311.0,263.0" stroke="black" stroke-width="2" fill="none" />
<polyline points="309.0,277.5,293.0,277.5,277.5,278.5,262.5,280.0,247.0,281.0,231.5,281.0,215.5,281.5" stroke="black" stroke-width="2" fill="none" />
<polyline points="232.5,299.5,248.0,299.0,264.0,299.5" stroke="black" stroke-width="2" fill="none" />
<polyline points="277.0,294.0,261.0,298.5,257.0,312.5" stroke="black" stroke-width="2" fill="none" />
<polyline points="294.0,299.5,310.0,299.5,326.5,298.5,343.0,297.5,360.0,297.0" stroke="black" stroke-width="2" fill="none" />
<polyline points="377.0,317.0,360.5,327.0,344.0,319.0,327.5,307.0" stroke="black" stroke-width="2" fill="none" />
<polyline points="334.0,269.5,318.5,275.5,302.5,275.0" stroke="black" stroke-width="2" fill="none" />
<polyline points="325.0,247.5,309.0,248.0,293.5,248.0,278.0,248.5,262.0,248.5,245.5,248.5,229.0,249.0,212.5,249.0,196.5,249.5,180.0,250.0" stroke="black" stroke-width="2" fill="none" />
<polyline points="174.0,256.0,158.5,275.5,142.5,277.5,126.0,296.0,108.0,304.0,96.5,310.0,80.5,318.0,64.5,326.0,49.0,322.0,25.0,322.5,39.0,312.0,56.5,310.0,40.5,314.0" stroke="black" stroke-width="2" fill="none" />
<polyline points="35.5,318.5,52.0,317.5,68.5,316.5" stroke="black" stroke-width="2" fill="none" />
<polyline points="70.5,330.5,86.0,324.5" stroke="black" stroke-width="2" fill="none" />
<polyline points="101.5,313.5,117.5,313.0,133.5,314.0,150.0,313.5,167.5,312.5,184.0,312.0" stroke="black" stroke-width="2" fill="none" />
<polyline points="166.5,326.0,183.0,330.0,199.0,326.0,215.5,322.0" stroke="black" stroke-width="2" fill="none" />
<polyline points="201.0,346.0,185.0,360.5" stroke="black" stroke-width="2" fill="none" />
<polyline points="170.0,359.5,185.5,344.5" stroke="black" stroke-width="2" fill="none" />
<polyline points="164.0,340.0,148.5,356.5" stroke="black" stroke-width="2" fill="none" />
<polyline points="138.5,357.5,155.0,342.5" stroke="black" stroke-width="2" fill="none" />
<polyline points="165.0,332.5,167.0,320.5,183.0,322.0,199.0,319.5" stroke="black" stroke-width="2" fill="none" />
<polyline points="151.5,326.0,134.5,341.5" stroke="black" stroke-width="2" fill="none" />
<polyline points="104.5,347.0,121.0,346.5,136.5,345.5,152.0,345.0,168.5,344.5,184.5,345.0,201.0,344.5,217.0,344.5,233.0,343.5,248.5,342.0,264.0,341.5,280.5,341.5,297.5,341.5,314.0,341.5,329.5,340.0,344.5,339.0,360.5,339.0,376.0,338.5" stroke="black" stroke-width="2" fill="none" />
<polyline points="419.5,340.0,437.5,333.0,417.5,344.5,397.5,350.5,381.5,350.5,373.5,334.5,357.5,346.5,342.0,347.0,296.0,349.5,284.5,344.0,274.5,328.5,290.5,306.5,292.5,291.0,288.5,285.0,284.5,276.5,294.0,256.5,306.0,240.5,300.0,226.5,300.0,210.0,305.5,201.5,295.5,198.0,301.5,172.0,329.5,164.0,339.5,154.0,329.5,150.0,321.5,150.0,317.0,149.5,317.0,133.5,317.0,117.5,315.5,102.0,325.5,80.5,337.5,58.5,349.0,42.0,369.0,26.0,363.0,32.5,359.0,26.5,343.0,28.0,325.5,30.0,310.0,36.5,294.0,24.5,290.0,16.0,304.0,8.0,292.0,11.5,276.0,15.5,260.5,17.0" stroke="black" stroke-width="2" fill="none" />
<polyline points="263.5,24.5,247.0,25.5,230.5,26.5,214.5,27.5,199.0,28.5,183.5,28.5,167.0,28.5,150.5,28.5,134.5,28.5,119.0,27.5,103.5,27.0" stroke="black" stroke-width="2" fill="none" />
<polyline points="116.5,27.0,132.5,10.5" stroke="black" stroke-width="2" fill="none" />
<polyline points="136.5,25.5,153.0,11.0" stroke="black" stroke-width="2" fill="none" />
<polyline points="162.5,10.0,178.5,8.0,194.5,9.5" stroke="black" stroke-width="2" fill="none" />
<polyline points="182.0,7.5,165.5,23.0,148.0,37.5,131.0,53.0" stroke="black" stroke-width="2" fill="none" />
<polyline points="123.0,60.5,139.0,60.5,155.5,59.5,172.0,59.0,187.0,58.5" stroke="black" stroke-width="2" fill="none" />
<polyline points="186.0,61.0,170.5,77.0,162.5,105.0,160.5,121.0,182.5,101.0,186.5,111.0,212.5,109.0" stroke="black" stroke-width="2" fill="none" />
<polyline points="211.5,129.0,205.5,133.0" stroke="black" stroke-width="2" fill="none" />
<polyline points="213.0,151.5,197.0,153.5" stroke="black" stroke-width="2" fill="none" />
<polyline points="182.0,164.5,167.0,180.0,152.5,195.0,137.5,210.5" stroke="black" stroke-width="2" fill="none" />
<polyline points="150.0,230.0,166.5,215.5,183.0,201.0,199.5,186.0" stroke="black" stroke-width="2" fill="none" />
<polyline points="214.0,182.5,198.5,198.5,183.5,214.0,168.0,229.5" stroke="black" stroke-width="2" fill="none" />
<polyline points="177.5,222.5,193.5,204.5,209.5,202.5,225.5,200.0,241.0,190.0,256.5,187.5,272.0,188.0,288.0,196.0,302.0,206.5,318.0,212.5,330.0,223.0,348.0,213.0,360.0,210.5,355.5,214.0,371.5,214.5,387.5,220.5,403.5,222.5,420.0,228.5,424.0,238.5,440.0,240.5,456.0,242.5,473.5,246.5,489.5,250.0,505.5,248.5" stroke="black" stroke-width="2" fill="none" />
<polyline points="473.5,243.5,457.0,259.5" stroke="black" stroke-width="2" fill="none" />
<polyline points="460.0,265.0,476.0,273.0,492.0,279.0,508.0,281.5" stroke="black" stroke-width="2" fill="none" />
<polyline points="472.5,262.0,456.5,277.5" stroke="black" stroke-width="2" fill="none" />
<polyline points="453.5,280.0,468.5,280.0,485.0,279.5,501.5,279.5,518.0,279.5" stroke="black" stroke-width="2" fill="none" />
<polyline points="519.0,245.0,503.0,245.5,487.5,247.0,472.0,248.5,456.0,248.5,440.0,248.5,423.5,249.0,406.5,250.0,390.0,250.5" stroke="black" stroke-width="2" fill="none" />
<polyline points="391.5,244.0,407.0,228.0" stroke="black" stroke-width="2" fill="none" />
<polyline points="426.0,214.5,410.0,217.0,390.0,207.0,388.0,213.0" stroke="black" stroke-width="2" fill="none" />
<polyline points="390.0,196.0,405.5,180.0" stroke="black" stroke-width="2" fill="none" />
<polyline points="392.0,183.0,376.0,198.5" stroke="black" stroke-width="2" fill="none" />
<polyline points="362.0,194.5,345.5,194.5,328.5,194.5,312.0,194.5" stroke="black" stroke-width="2" fill="none" />
<polyline points="311.5,199.5,327.0,182.5,344.0,167.5" stroke="black" stroke-width="2" fill="none" />
<polyline points="350.5,169.0,354.5,158.5,370.5,158.5,380.0,146.5" stroke="black" stroke-width="2" fill="none" />
<polyline points="391.5,151.0,375.5,152.0,360.5,153.0,346.0,154.0,332.0,154.5,316.5,155.0" stroke="black" stroke-width="2" fill="none" />
<polyline points="328.0,165.5,311.5,181.5,295.5,198.0" stroke="black" stroke-width="2" fill="none" />
<polyline points="293.5,203.0,309.5,202.5,325.5,202.5,342.0,202.5,358.0,201.5,373.5,200.5,390.0,199.5,406.0,198.5,422.5,197.0,439.5,195.5,456.5,194.5,472.5,195.0,488.5,196.5,503.5,197.5,518.5,198.5" stroke="black" stroke-width="2" fill="none" />
<polyline points="488.0,184.0,472.0,199.0,456.0,214.5,440.0,230.5" stroke="black" stroke-width="2" fill="none" />
<polyline points="441.5,216.0,458.0,201.5,473.5,187.0" stroke="black" stroke-width="2" fill="none" />
<polyline points="473.0,194.5,457.5,195.0" stroke="black" stroke-width="2" fill="none" />
<polyline points="465.0,201.0,461.0,199.0,471.0,217.0,469.5,232.5,479.0,256.5,491.5,262.5,507.5,259.0" stroke="black" stroke-width="2" fill="none" />
<polyline points="519.0,224.5,503.0,225.0,488.5,225.5,472.5,226.0,457.5,226.5,441.5,227.0,426.0,228.0,411.0,229.0,394.5,229.0,378.5,228.5,362.0,229.5,344.5,231.0,327.0,231.5,310.0,233.5,293.5,234.5,277.0,235.5,261.5,236.5,245.5,237.0" stroke="black" stroke-width="2" fill="none" />
<polyline points="235.5,251.5,251.5,241.0,253.5,231.5,270.0,205.5,282.0,202.5" stroke="black" stroke-width="2" fill="none" />
<polyline points="279.0,218.0,261.5,218.5,245.0,219.0" stroke="black" stroke-width="2" fill="none" />
<polyline points="229.5,203.0,229.0,209.0,241.0,231.0,242.5,246.5,232.0,251.0,230.0,266.5,236.0,286.5" stroke="black" stroke-width="2" fill="none" />
<polyline points="208.5,315.0,200.0,319.0,206.0,303.5,203.5,283.0,205.5,267.0,195.0,264.5,194.5,248.0,194.5,232.0,204.5,220.0,219.0,211.5,227.0,195.5,225.0,167.5,221.0,161.5,249.0,153.5,261.0,138.0,265.0,122.0,261.5,116.0,245.5,116.5" stroke="black" stroke-width="2" fill="none" />
<polyline points="260.0,124.5,276.5,123.5" stroke="black" stroke-width="2" fill="none" />
<polyline points="256.5,123.5,260.5,139.0,244.5,159.5,228.5,155.5,214.5,167.5,210.5,195.0,198.0,181.0,178.0,175.5,177.5,159.5,179.5,149.5,161.5,145.5,145.5,135.0" stroke="black" stroke-width="2" fill="none" />
<polyline points="148.5,137.5,165.5,137.0" stroke="black" stroke-width="2" fill="none" />
<polyline points="147.5,131.5,163.5,135.5,185.5,143.5,189.5,159.5,183.5,167.5,187.5,171.5,193.5,199.5,203.0,189.5,219.5,185.0,235.5,181.0,239.0,175.0,255.0,175.5,271.5,165.5" stroke="black" stroke-width="2" fill="none" />
<polyline points="281.0,174.0,298.0,173.5,314.5,173.0,330.5,172.0,346.5,171.0,361.5,170.0,378.5,169.0,395.5,168.5,411.5,168.5,426.5,168.5" stroke="black" stroke-width="2" fill="none" />
<polyline points="458.5,177.5,474.5,177.0" stroke="black" stroke-width="2" fill="none" />
<polyline points="472.5,169.5,456.5,185.0,440.5,200.0" stroke="black" stroke-width="2" fill="none" />
<polyline points="464.5,202.0,480.5,198.0,486.0,203.5,496.0,205.5" stroke="black" stroke-width="2" fill="none" />
<polyline points="517.5,211.0,501.5,211.0,485.0,211.0,468.5,211.5,451.5,212.0,436.5,212.5,422.5,213.0,408.0,213.5,392.5,213.5,376.0,214.5,359.5,216.0,343.0,217.0,326.5,218.0,310.5,218.0,295.0,218.0" stroke="black" stroke-width="2" fill="none" />
<polyline points="303.0,226.0,305.0,219.5,314.5,211.5,314.5,227.5,318.5,229.0,318.0,245.0,310.0,246.5,298.0,262.5,290.0,270.5,308.0,261.0,308.0,251.0,308.0,269.0" stroke="black" stroke-width="2" fill="none" />
<polyline points="285.0,250.0,282.5,240.0,282.0,224.0,286.0,224.0,278.0,222.0" stroke="black" stroke-width="2" fill="none" />
<polyline points="308.5,214.5,324.5,198.5,340.0,183.0,355.0,168.0" stroke="black" stroke-width="2" fill="none" />
<polyline points="342.0,180.0,326.0,180.0" stroke="black" stroke-width="2" fill="none" />
<polyline points="337.5,196.0,345.5,212.0,339.5,228.0,341.0,243.5,341.0,259.5,325.5,265.5,347.5,285.5,335.5,303.5,339.5,318.0,347.5,340.0,357.5,352.0" stroke="black" stroke-width="2" fill="none" />
<polyline points="387.0,290.0,371.0,290.0,355.0,282.0,339.0,285.5,323.5,289.5,307.5,294.0,305.5,286.5,293.5,292.0,277.5,290.0,276.0,286.0,260.0,287.5,242.5,289.5,242.5,271.5,230.0,277.0,223.5,287.5,211.5,292.0,189.0,276.5,185.5,296.5,175.5,300.5,171.5,300.0,172.0,277.5,172.0,259.5,170.0,245.5,176.5,230.0,190.5,226.0,186.0,220.0,206.0,210.0,213.5,188.0,205.5,174.0,200.0,168.0,196.0,152.0,196.0,136.0,196.0,120.5,198.0,104.0,207.5,92.0,201.5,88.0,203.0,72.0,199.0,86.0" stroke="black" stroke-width="2" fill="none" />
<polyline points="204.5,83.0,220.5,83.0,236.5,81.0,253.0,79.0,261.0,85.0,273.0,85.0,281.0,85.0,297.5,79.0,300.0,89.5,316.5,87.5" stroke="black" stroke-width="2" fill="none" />
<polyline points="314.0,79.0,329.5,78.0,344.5,76.5,360.5,75.5" stroke="black" stroke-width="2" fill="none" />
<polyline points="359.0,59.5,375.0,49.5,390.5,45.5,404.0,57.5,397.5,73.5,381.0,90.0" stroke="black" stroke-width="2" fill="none" />
<polyline points="400.5,101.0,384.0,103.5,368.0,108.0,352.0,110.0" stroke="black" stroke-width="2" fill="none" />
<polyline points="347.0,131.5,347.5,116.0,351.5,94.0,335.5,90.0" stroke="black" stroke-width="2" fill="none" />
<polyline points="335.5,93.5,339.0,109.5,341.0,125.5,335.0,141.0,333.0,138.5,358.5,124.5,374.5,116.5,390.0,119.0,406.0,121.5" stroke="black" stroke-width="2" fill="none" />
<polyline points="412.0,125.5,408.0,118.0,393.5,106.0,407.5,85.5,404.0,68.0,398.0,60.0" stroke="black" stroke-width="2" fill="none" />
<polyline points="412.0,54.5,396.0,54.5,370.0,68.5,366.5,74.5,382.5,58.0" stroke="black" stroke-width="2" fill="none" />
<polyline points="396.5,42.0,404.5,52.0,419.0,56.5,429.5,75.0,423.5,91.0,424.0,103.5,414.0,119.0,418.5,107.0,422.5,99.0" stroke="black" stroke-width="2" fill="none" />
<polyline points="436.5,76.0,453.0,76.0" stroke="black" stroke-width="2" fill="none" />
<polyline points="440.0,60.5,455.5,59.5,470.5,58.0,487.0,58.0,503.5,58.0,519.5,57.5" stroke="black" stroke-width="2" fill="none" />
<polyline points="519.0,42.0,502.5,43.5,485.0,44.5,469.0,45.0" stroke="black" stroke-width="2" fill="none" />
<polyline points="491.0,26.0,506.0,25.0,521.5,24.0" stroke="black" stroke-width="2" fill="none" />
<polyline points="476.0,13.0,471.5,5.0,455.5,3.0" stroke="black" stroke-width="2" fill="none" />
<polyline points="452.5,2.0,480.0,18.0,461.5,34.0,435.0,44.0,423.0,62.0,439.0,64.0,443.0,70.5,459.0,70.5" stroke="black" stroke-width="2" fill="none" />
<polyline points="500.5,75.0,488.5,89.0,500.5,89.0" stroke="black" stroke-width="2" fill="none" />
<polyline points="454.5,132.0,470.5,122.0,486.5,108.0,484.5,109.5,468.5,125.0,455.0,141.0,447.0,157.5,441.0,171.5,423.0,196.0,438.5,200.0,438.5,211.5,454.5,212.0,455.0,224.0,471.0,226.5,486.5,224.5,502.5,227.0,504.0,239.0" stroke="black" stroke-width="2" fill="none" />
<polyline points="499.5,231.0,491.5,237.0,475.5,235.0" stroke="black" stroke-width="2" fill="none" />
<polyline points="468.5,212.0,485.0,212.0,481.5,222.0,498.0,216.0" stroke="black" stroke-width="2" fill="none" />
<polyline points="504.5,187.0,488.5,181.0" stroke="black" stroke-width="2" fill="none" />
<polyline points="393.0,166.5,377.5,182.5,361.0,198.5,344.0,215.0,328.0,231.5" stroke="black" stroke-width="2" fill="none" />
<polyline points="330.0,232.5,330.0,248.5,300.5,268.0,316.0,266.5" stroke="black" stroke-width="2" fill="none" />
<polyline points="289.0,263.0,267.0,273.0,242.5,267.5,220.0,273.5,200.0,262.0,184.0,277.5,171.5,280.0,166.0,294.0,153.5,293.5,137.5,299.5,121.0,305.0,107.0,297.0,95.5,288.5,79.5,298.5,77.5,298.5,91.0,286.0,105.5,281.5,106.5,267.5,113.0,251.0,121.0,246.5,105.0,260.5" stroke="black" stroke-width="2" fill="none" />
<polyline points="99.5,272.0,115.5,261.5,113.5,287.5,109.5,301.5,98.0,313.5,90.0,327.5,68.0,345.5,72.0,354.5,88.0,347.0,103.5,341.0,119.5,335.0,135.5,333.0,151.5,334.5,168.0,338.5,184.5,336.5,200.5,330.5,216.5,332.5,232.5,326.5" stroke="black" stroke-width="2" fill="none" />
<polyline points="165.0,296.0,147.5,296.0,131.0,296.5" stroke="black" stroke-width="2" fill="none" />
<polyline points="116.5,295.5,100.5,296.5,85.0,297.5,69.5,298.5,54.0,299.5" stroke="black" stroke-width="2" fill="none" />
<polyline points="74.0,296.0,90.0,280.5" stroke="black" stroke-width="2" fill="none" />
<polyline points="97.0,291.5,97.5,307.5,72.0,317.5,54.0,315.5" stroke="black" stroke-width="2" fill="none" />
<polyline points="41.5,334.5,57.5,334.5,73.5,336.0,89.5,327.5" stroke="black" stroke-width="2" fill="none" />
<polyline points="69.5,344.0,53.5,358.5" stroke="black" stroke-width="2" fill="none" />
<polyline points="42.5,362.0,59.0,347.0" stroke="black" stroke-width="2" fill="none" />
<polyline points="71.5,333.0,56.0,333.0,40.5,333.0,25.0,332.5" stroke="black" stroke-width="2" fill="none" />
<polyline points="1.0,318.5,5.0,310.5,9.5,300.0,25.5,294.0,29.5,280.0,37.5,286.0,54.0,279.5,54.5,267.5,71.0,263.0,87.0,253.0,102.5,247.0,118.5,233.0,134.5,233.0,140.0,237.5" stroke="black" stroke-width="2" fill="none" />
<polyline points="120.5,262.5,104.5,262.5,88.5,263.5,72.0,265.0,56.0,265.5,40.0,266.0,24.5,267.0,9.0,267.5" stroke="black" stroke-width="2" fill="none" />
<polyline points="7.5,271.5,3.5,287.5,10.0,289.0,13.5,275.0,29.5,268.5,39.5,260.5,55.5,256.0,72.0,250.0,80.0,251.5,95.5,240.0,113.5,242.0,124.0,228.0,140.0,224.0,146.0,227.5,164.0,215.5,166.0,225.5" stroke="black" stroke-width="2" fill="none" />
<polyline points="172.0,214.5,166.0,230.0,158.0,242.0,164.0,258.0" stroke="black" stroke-width="2" fill="none" />
<polyline points="180.0,234.0,182.0,250.5,190.0,276.5,192.0,289.0" stroke="black" stroke-width="2" fill="none" />
<polyline points="141.5,278.5,127.5,294.5,111.5,322.0,110.0,338.0,97.5,340.0,87.0,354.0,103.5,350.5,108.0,332.5,124.0,346.5" stroke="black" stroke-width="2" fill="none" />
<polyline points="71.0,276.0,54.5,292.0" stroke="black" stroke-width="2" fill="none" />
<polyline points="25.5,296.5,8.5,297.0" stroke="black" stroke-width="2" fill="none" />
<polyline points="8.5,292.0,24.5,275.5" stroke="black" stroke-width="2" fill="none" />
<polyline points="28.5,265.0,12.5,280.0" stroke="black" stroke-width="2" fill="none" />
<polyline points="11.0,281.5,26.5,280.5,42.5,280.0,58.0,278.5,73.5,276.5,88.5,275.5,104.0,275.5,119.0,277.0" stroke="black" stroke-width="2" fill="none" />
<polyline points="121.5,248.5,106.0,248.5,90.0,249.0,73.5,250.5,57.0,251.5,40.5,252.0,23.5,252.5,7.5,253.5" stroke="black" stroke-width="2" fill="none" />
<polyline points="16.0,236.0,31.5,230.5,48.0,228.0,72.0,224.0,88.5,218.0,92.5,211.5,108.0,213.5,124.0,208.0,125.5,214.0" stroke="black" stroke-width="2" fill="none" />
<polyline points="123.5,172.5,138.5,172.0,153.0,170.5,168.0,169.0,184.0,168.0,199.0,167.5,214.5,167.0,231.0,166.5,247.0,166.5" stroke="black" stroke-width="2" fill="none" />
<polyline points="263.5,177.0,279.5,175.0,295.5,166.5" stroke="black" stroke-width="2" fill="none" />
<polyline points="274.5,183.0,291.0,185.0,306.5,192.5" stroke="black" stroke-width="2" fill="none" />
<polyline points="327.0,212.0,343.5,211.0" stroke="black" stroke-width="2" fill="none" />
<polyline points="339.0,196.5,355.0,200.5,365.0,190.0,381.0,190.0,385.0,196.0" stroke="black" stroke-width="2" fill="none" />
<polyline points="362.0,184.5,378.0,184.5,394.0,184.5,410.0,185.0,425.5,183.5,441.5,182.0,443.5,188.5,453.5,202.5,475.0,193.0,491.0,195.0,506.5,195.0" stroke="black" stroke-width="2" fill="none" />
<polyline points="442.0,278.5,426.0,270.0,410.5,258.0" stroke="black" stroke-width="2" fill="none" />
<polyline points="408.5,253.5,424.0,259.5,440.0,268.0,456.0,282.5,472.0,285.0,488.0,291.0,504.0,299.0" stroke="black" stroke-width="2" fill="none" />
<polyline points="508.5,263.5,498.5,259.0,484.5,255.0,469.0,255.5,453.0,251.5,435.0,251.5,447.0,237.5,435.5,237.5,417.5,232.0,402.0,232.0,386.0,226.0,370.0,220.0" stroke="black" stroke-width="2" fill="none" />
<polyline points="374.5,230.0,390.0,232.0,406.0,238.0" stroke="black" stroke-width="2" fill="none" />
<polyline points="383.0,240.5,399.0,256.5,397.5,272.5,401.5,288.5,401.5,304.5,401.0,320.5,414.5,326.5,430.5,320.5,446.5,330.5,462.0,340.5,478.0,342.5" stroke="black" stroke-width="2" fill="none" />
<polyline points="477.0,347.5,445.0,331.5" stroke="black" stroke-width="2" fill="none" />
<polyline points="504.0,303.0,498.0,295.0,482.5,277.0,458.5,261.0,434.5,254.5,414.5,246.5,379.0,232.0,381.0,218.0,365.0,198.5,368.5,191.0,348.5,187.5,346.5,176.0,346.0,160.5,352.0,141.0,353.5,117.5,367.5,93.0,369.5,89.0,361.5,93.0,357.5,78.5,341.0,84.5,325.0,80.5,309.0,78.5,292.5,74.0,278.5,68.0,261.0,68.0,245.0,66.0,229.5,66.0,208.0,58.0,195.5,76.0,189.5,76.0,175.5,69.5,159.5,81.5,160.0,63.5,152.0,58.0,146.0,41.5,158.0,39.5,152.5,45.0,151.0,59.0" stroke="black" stroke-width="2" fill="none" />
<polyline points="153.0,58.5,137.5,73.5" stroke="black" stroke-width="2" fill="none" />
<polyline points="135.5,77.0,151.0,76.0,167.0,75.5,182.5,75.0" stroke="black" stroke-width="2" fill="none" />
<polyline points="200.0,56.5,190.0,72.5,181.5,80.5,185.5,82.5,183.5,99.0,176.0,103.0,173.5,118.5,167.0,118.5,165.0,134.0,163.0,150.0,165.0,165.5,165.0,187.5,151.5,209.5,145.5,234.0,137.5,238.0,133.5,250.0,109.5,276.0,117.5,270.0" stroke="black" stroke-width="2" fill="none" />
<polyline points="49.5,260.0,58.0,282.0,56.0,297.5,24.5,303.5,40.5,296.0" stroke="black" stroke-width="2" fill="none" />
<polyline points="1.5,272.5,17.5,264.5,23.5,250.5,39.5,244.5,45.5,248.0,58.0,243.5,68.5,243.5,75.0,237.5,93.0,245.5" stroke="black" stroke-width="2" fill="none" />
<polyline points="83.5,196.0,68.0,196.5,52.5,197.0" stroke="black" stroke-width="2" fill="none" />
<polyline points="37.5,196.0,53.5,180.0,69.5,165.0" stroke="black" stroke-width="2" fill="none" />
<polyline points="70.5,151.5,53.5,167.0" stroke="black" stroke-width="2" fill="none" />
<polyline points="37.5,180.0,22.0,196.0" stroke="black" stroke-width="2" fill="none" />
<polyline points="18.0,189.0,34.0,187.0,49.5,189.0" stroke="black" stroke-width="2" fill="none" />
<polyline points="25.5,183.5,10.0,199.0" stroke="black" stroke-width="2" fill="none" />
<polyline points="9.0,203.5,24.5,203.5,39.5,203.5,55.5,203.5,71.0,203.0,86.5,203.5,103.0,202.5,119.5,202.0,135.5,201.0,152.0,200.0,169.0,198.5,184.5,198.0,199.5,197.0,215.0,196.0,230.5,195.5" stroke="black" stroke-width="2" fill="none" />
<polyline points="217.5,196.5,233.5,181.0" stroke="black" stroke-width="2" fill="none" />
<polyline points="259.0,194.5,261.0,210.5,259.0,226.5,257.0,242.5,253.5,256.5,271.5,248.5,285.5,234.5,304.0,234.5" stroke="black" stroke-width="2" fill="none" />
<polyline points="321.5,232.5,321.5,248.5" stroke="black" stroke-width="2" fill="none" />
<polyline points="341.5,235.0,358.0,220.0" stroke="black" stroke-width="2" fill="none" />
<polyline points="366.0,231.5,392.0,233.5,410.0,260.0,413.5,276.0,411.5,292.5,411.5,308.5,405.5,322.5,404.0,332.5,406.0,346.5,412.0,352.5" stroke="black" stroke-width="2" fill="none" />
<polyline points="440.0,284.5,436.0,280.5,416.0,264.5" stroke="black" stroke-width="2" fill="none" />
<polyline points="419.5,258.5,451.0,274.5,458.5,290.0,462.5,294.0,476.5,289.5" stroke="black" stroke-width="2" fill="none" />
<polyline points="435.5,206.0,419.5,202.0,400.0,195.5,390.0,192.0,408.0,170.0,401.5,156.0,385.5,158.0" stroke="black" stroke-width="2" fill="none" />
<polyline points="378.5,170.0,362.5,185.5,346.0,202.0,329.5,218.5" stroke="black" stroke-width="2" fill="none" />
<polyline points="348.0,231.0,364.0,231.0,380.0,242.5,395.5,246.0,397.5,240.5,413.5,246.5,429.5,254.5,438.0,256.5,454.0,258.5,458.0,262.5,474.0,268.5,489.5,274.5,505.5,288.0" stroke="black" stroke-width="2" fill="none" />
<polyline points="378.0,253.0,362.0,237.0" stroke="black" stroke-width="2" fill="none" />
<polyline points="363.0,239.0,367.0,255.0,368.5,277.0,376.5,289.0,368.5,304.5,376.0,318.5,374.0,336.0,376.0,354.0" stroke="black" stroke-width="2" fill="none" />
<polyline points="388.0,263.5,372.0,263.5,356.0,257.0" stroke="black" stroke-width="2" fill="none" />
<polyline points="353.5,242.0,370.0,256.0,386.0,260.0" stroke="black" stroke-width="2" fill="none" />
<polyline points="362.5,272.0,346.5,266.0,348.5,252.0,348.5,236.0" stroke="black" stroke-width="2" fill="none" />
<polyline points="263.5,188.5,253.5,204.0,253.0,220.0,253.0,236.5,245.0,253.0,235.0,265.0,225.0,269.0,218.0,277.0,208.0,279.0,228.5,289.0,224.5,305.0" stroke="black" stroke-width="2" fill="none" />
<polyline points="256.0,350.0,260.0,352.0,260.0,336.5,254.0,312.5,266.0,296.0,256.0,279.5,254.0,262.0,263.5,256.0,275.5,239.5,278.0,224.0,268.0,214.0,290.0,197.5,286.0,169.5,305.5,153.5,287.0,141.5,289.0,125.5,277.5,113.5,286.0,107.5,274.0,104.0,268.5,92.0,252.5,98.0" stroke="black" stroke-width="2" fill="none" />
<polyline points="238.0,99.0,244.0,111.0,240.0,127.0,248.0,107.0,264.0,107.0,274.0,103.0,283.5,103.5,292.0,92.0,304.0,108.5,316.0,101.0,322.0,97.0,338.0,109.0,354.0,105.0,370.0,96.5,386.0,90.5,400.0,88.5" stroke="black" stroke-width="2" fill="none" />
<polyline points="388.5,120.5,392.5,137.0,376.5,153.0,382.0,161.0,384.0,177.0,364.5,165.0,372.0,174.5,389.5,164.5,401.5,166.0,409.5,170.0,417.5,158.0,441.5,158.0" stroke="black" stroke-width="2" fill="none" />
<polyline points="382.5,114.0,358.5,118.0,373.0,118.0" stroke="black" stroke-width="2" fill="none" />
<polyline points="327.5,67.5,343.5,59.5,359.5,53.5,336.0,67.5,340.0,55.5,356.0,48.0,372.0,42.5,388.5,38.5,400.5,37.0,409.0,49.0,425.0,55.5,441.0,49.0,449.0,40.5,464.5,34.5,480.5,22.5,488.5,4.5,504.0,8.5" stroke="black" stroke-width="2" fill="none" />
<polyline points="357.0,28.0,341.5,29.0,327.0,29.5,311.5,29.5" stroke="black" stroke-width="2" fill="none" />
<polyline points="322.5,39.0,306.5,55.0" stroke="black" stroke-width="2" fill="none" />
<polyline points="293.5,58.5,309.5,58.5,325.0,58.0,341.0,57.5" stroke="black" stroke-width="2" fill="none" />
<polyline points="327.0,54.5,311.0,69.5" stroke="black" stroke-width="2" fill="none" />
<polyline points="296.5,43.5,312.0,42.0,327.0,41.0,343.0,40.5" stroke="black" stroke-width="2" fill="none" />
<polyline points="346.5,32.0,331.0,40.0,321.0,52.5,327.0,36.5" stroke="black" stroke-width="2" fill="none" />
<polyline points="293.5,29.0,276.5,29.0" stroke="black" stroke-width="2" fill="none" />
<polyline points="270.5,25.0,286.5,25.0" stroke="black" stroke-width="2" fill="none" />
<polyline points="255.0,33.5,275.0,37.5,289.0,54.0,287.0,70.0,273.0,96.0,268.5,112.5,277.0,128.5,270.5,144.5,274.5,154.0,264.0,163.5,260.5,167.5,270.0,149.5,290.0,152.0,308.0,138.5" stroke="black" stroke-width="2" fill="none" />
<polyline points="299.5,129.0,301.0,113.0" stroke="black" stroke-width="2" fill="none" />
<polyline points="240.5,71.5,224.5,75.5" stroke="black" stroke-width="2" fill="none" />
<polyline points="214.5,42.0,230.0,41.0,247.0,40.0" stroke="black" stroke-width="2" fill="none" />
<polyline points="231.0,39.0,247.5,22.5" stroke="black" stroke-width="2" fill="none" />
<polyline points="246.5,3.5,230.5,19.5,215.0,36.5" stroke="black" stroke-width="2" fill="none" />
<polyline points="217.0,31.5,233.0,31.0,247.5,31.0" stroke="black" stroke-width="2" fill="none" />
<polyline points="233.5,17.5,218.5,18.5" stroke="black" stroke-width="2" fill="none" />
<polyline points="215.5,13.0,199.0,28.0,183.0,43.0" stroke="black" stroke-width="2" fill="none" />
<polyline points="166.0,36.0,182.5,20.0" stroke="black" stroke-width="2" fill="none" />
<polyline points="168.5,4.5,152.5,20.5,135.5,36.0" stroke="black" stroke-width="2" fill="none" />
<polyline points="145.0,44.0,160.5,34.0,176.5,34.0,192.5,31.5,208.0,35.5,224.0,43.5" stroke="black" stroke-width="2" fill="none" />
<polyline points="184.0,43.0,168.5,44.0,153.0,45.0,137.5,46.0,121.5,46.5" stroke="black" stroke-width="2" fill="none" />
<polyline points="153.0,49.5,169.0,47.5,185.0,41.5,165.0,51.5" stroke="black" stroke-width="2" fill="none" />
<polyline points="192.5,15.0,180.5,5.0,160.5,5.0" stroke="black" stroke-width="2" fill="none" />
<polyline points="133.0,19.5,117.0,11.5" stroke="black" stroke-width="2" fill="none" />
<polyline points="107.5,3.0,117.5,11.0,139.0,28.0" stroke="black" stroke-width="2" fill="none" />
<polyline points="87.5,12.5,103.5,11.5,120.0,10.5,135.5,10.5,150.5,10.5,166.0,9.5,182.0,9.0,198.5,8.5,214.0,7.0,230.5,6.0,247.0,5.0" stroke="black" stroke-width="2" fill="none" />
<polyline points="334.0,1.5,332.0,17.5,304.5,31.5,296.5,40.0,298.5,66.0,293.0,84.5,286.5,101.0,298.5,116.5,310.5,122.5,294.0,144.5,296.0,170.5,312.0,162.5,328.0,158.5,346.0,144.5,348.0,124.5,364.0,112.5,380.0,110.5,399.5,92.5,405.5,82.0,421.5,92.0,439.5,88.0,456.0,88.0,472.0,89.5,488.5,79.5,504.5,74.0" stroke="black" stroke-width="2" fill="none" />
<polyline points="196.5,155.5,182.0,156.5,166.5,157.5,150.0,158.5,133.5,159.5" stroke="black" stroke-width="2" fill="none" />
<polyline points="145.5,158.5,171.5,154.5,170.0,170.5" stroke="black" stroke-width="2" fill="none" />
<polyline points="159.5,127.0,143.5,131.0" stroke="black" stroke-width="2" fill="none" />
<polyline points="155.5,121.5,139.5,121.0,123.5,123.5,108.0,121.5,97.5,127.5,89.5,103.0,73.5,105.0,57.5,105.0,42.0,109.5,26.0,113.5,10.0,119.5,2.0,139.5" stroke="black" stroke-width="2" fill="none" />
<polyline points="8.5,141.0,25.0,139.5,41.5,138.5,56.5,137.5,71.0,136.0,86.0,134.5" stroke="black" stroke-width="2" fill="none" />
<polyline points="86.5,123.0,70.0,124.0" stroke="black" stroke-width="2" fill="none" />
<polyline points="68.5,125.5,72.5,141.5,74.0,157.0,72.0,173.0,81.5,174.5,81.5,170.5,97.5,174.5,113.5,176.5,129.5,166.5,131.5,174.5" stroke="black" stroke-width="2" fill="none" />
<polyline points="102.5,105.0,87.5,105.5" stroke="black" stroke-width="2" fill="none" />
<polyline points="76.0,114.0,60.0,113.5,44.0,119.5,28.5,120.0,12.5,120.0" stroke="black" stroke-width="2" fill="none" />
<polyline points="2.0,129.5,18.0,125.5,34.0,135.5,50.5,153.0" stroke="black" stroke-width="2" fill="none" />
<polyline points="57.0,140.5,55.0,156.5,53.0,172.5" stroke="black" stroke-width="2" fill="none" />
<polyline points="34.0,147.5,18.5,163.5,3.0,179.0" stroke="black" stroke-width="2" fill="none" />
<polyline points="10.5,173.0,26.0,171.5,41.5,170.5,56.5,170.0,72.0,170.5,87.0,170.5,102.0,169.0" stroke="black" stroke-width="2" fill="none" />
<polyline points="90.0,150.5,74.5,151.5,59.0,153.5,43.5,155.5,28.0,158.0,12.0,159.5" stroke="black" stroke-width="2" fill="none" />
<polyline points="5.0,167.0,20.0,151.5,36.0,135.5" stroke="black" stroke-width="2" fill="none" />
<polyline points="26.0,136.5,10.0,152.0" stroke="black" stroke-width="2" fill="none" />
<polyline points="1.5,151.5,15.5,149.5,7.5,165.5,19.5,171.5,3.0,184.0,11.0,200.0,8.5,208.0,27.0,204.0,43.5,206.5,71.5,194.5,87.5,190.5,101.5,190.5,118.0,188.5" stroke="black" stroke-width="2" fill="none" />
<polyline points="145.0,188.0,145.0,171.5,145.0,155.5,135.0,149.5,145.0,146.0,131.0,130.0,105.0,118.5,103.0,103.0,103.0,87.0,107.5,71.0,103.5,61.0,87.0,55.0,71.0,51.0" stroke="black" stroke-width="2" fill="none" />
<polyline points="71.5,61.5,56.5,63.0,40.5,63.5" stroke="black" stroke-width="2" fill="none" />
<polyline points="51.5,76.0,67.5,76.0,84.0,75.0,100.5,75.0" stroke="black" stroke-width="2" fill="none" />
<polyline points="99.5,90.5,84.0,90.5,69.5,91.0,53.5,92.0" stroke="black" stroke-width="2" fill="none" />
<polyline points="56.0,79.0,52.0,94.5,68.5,98.5" stroke="black" stroke-width="2" fill="none" />
<polyline points="90.5,88.0,88.5,104.0,86.5,118.0,90.5,134.0,104.5,142.0,100.5,157.5,94.5,179.5,78.5,187.5,74.5,199.5,68.5,215.0,64.5,225.0,52.5,243.0,32.0,263.0,40.5,267.5,26.5,275.5,39.0,286.0,12.5,311.5,22.5,319.5,14.5,321.5,12.5,338.0,9.0,336.0,12.5,316.0,24.5,312.0,40.5,307.5,56.0,297.5,70.0,295.5,78.0,293.5,94.0,284.0,104.0,292.0,122.0,287.5,128.0,282.0,144.0,272.0,160.0,266.0" stroke="black" stroke-width="2" fill="none" />
<polyline points="201.0,216.5,185.0,217.5,168.5,218.0,153.0,218.5,138.0,218.5,122.0,218.0,104.5,219.0,88.0,219.5,72.0,220.5,56.0,220.5,40.5,221.5,24.0,222.0,7.0,223.0" stroke="black" stroke-width="2" fill="none" />
<polyline points="13.5,214.0,29.5,216.0,45.5,216.0,59.5,220.5,75.5,212.0,85.5,200.0,101.5,198.0,103.5,201.5,124.0,193.5" stroke="black" stroke-width="2" fill="none" />
<polyline points="46.0,176.5,44.0,166.5,44.0,148.5,48.0,142.5,60.0,126.5,60.0,124.5" stroke="black" stroke-width="2" fill="none" />
<polyline points="22.5,90.5,8.0,90.5" stroke="black" stroke-width="2" fill="none" />
<polyline points="2.5,91.0,18.5,89.0,32.0,89.0,48.5,81.5,68.5,81.5,85.0,84.0,90.5,93.5,108.5,93.5,124.5,91.5,138.5,92.0,155.0,94.0" stroke="black" stroke-width="2" fill="none" />
<polyline points="130.5,102.5,136.5,86.5,134.5,70.5,113.0,88.0,97.0,72.0,87.5,61.0,71.5,65.0,65.5,53.0,55.0,51.0,53.0,61.0,36.5,61.5,30.5,53.5,20.5,61.5,17.0,60.0,19.0,42.0,6.5,42.5,2.5,36.0" stroke="black" stroke-width="2" fill="none" />
<polyline points="2.5,27.5,18.5,41.5" stroke="black" stroke-width="2" fill="none" />
<polyline points="20.5,38.0,36.5,23.0" stroke="black" stroke-width="2" fill="none" />
<polyline points="40.5,7.5,24.5,8.5,8.5,8.0" stroke="black" stroke-width="2" fill="none" />
<polyline points="2.5,4.0,26.5,4.0,40.0,20.0" stroke="black" stroke-width="2" fill="none" />
<polyline points="41.5,38.5,57.5,38.5,74.0,38.5,90.5,37.0,107.0,43.0" stroke="black" stroke-width="2" fill="none" />
<polyline points="56.5,42.5,41.0,42.5,25.5,43.5" stroke="black" stroke-width="2" fill="none" />
<polyline points="42.0,42.5,58.0,44.0,74.0,44.0,90.0,50.0,106.0,51.5,121.5,46.0" stroke="black" stroke-width="2" fill="none" />
<polyline points="89.5,26.0,73.0,25.5,56.5,24.5,40.0,25.0,23.5,25.0,7.5,24.5" stroke="black" stroke-width="2" fill="none" />
<polyline points="28.0,4.0,43.5,14.0,59.0,14.0,74.5,18.0,90.0,29.5,106.0,35.5" stroke="black" stroke-width="2" fill="none" />
<polyline points="100.0,19.5,84.0,12.0,76.0,6.0,59.5,4.0" stroke="black" stroke-width="2" fill="none" />
<polyline points="73.0,71.0,57.0,67.0,50.5,71.5,34.5,69.5,18.5,82.0,3.0,74.0" stroke="black" stroke-width="2" fill="none" />
<polyline points="3.5,102.5,19.5,101.0" stroke="black" stroke-width="2" fill="none" />
<polyline points="31.5,156.0,25.5,142.0,17.5,158.0,13.5,174.0" stroke="black" stroke-width="2" fill="none" />
<polyline points="21.0,177.5,36.5,177.0" stroke="black" stroke-width="2" fill="none" />
<polyline points="48.0,182.0,32.0,182.0,16.0,183.5" stroke="black" stroke-width="2" fill="none" />
<polyline points="22.5,218.5,18.5,230.0,2.5,234.0" stroke="black" stroke-width="2" fill="none" />
<polyline points="211.5,234.0,217.5,249.5,217.5,233.5" stroke="black" stroke-width="2" fill="none" />
<polyline points="148.5,165.5,157.0,159.5,159.0,150.0,173.0,141.5,187.0,125.5,186.5,109.5" stroke="black" stroke-width="2" fill="none" />
</svg>