<svg xmlns="http://www.w3.org/2000/svg" version="1.1"><polyline points="455.0,1.0,477.5,21.5,442.5,41.5,418.0,58.5,430.5,79.0,418.0,104.0,405.5,109.5,393.0,127.0,378.0,140.0,380.5,150.0,363.5,170.0,390.5,180.0,400.0,172.0,420.0,172.0,440.0,169.0,469.5,174.0,489.5,164.0,489.5,179.0" stroke="black" stroke-width="2" fill="none" />
<polyline points="488.0,184.0,472.0,199.0,456.0,214.5,440.0,230.5" stroke="black" stroke-width="2" fill="none" />
<polyline points="441.0,244.5,451.0,252.0,429.0,252.0,474.0,272.0" stroke="black" stroke-width="2" fill="none" />
<polyline points="470.5,279.5,486.5,263.5" stroke="black" stroke-width="2" fill="none" />
<polyline points="500.5,264.0,484.5,279.5" stroke="black" stroke-width="2" fill="none" />
<polyline points="498.5,292.5,514.0,276.0" stroke="black" stroke-width="2" fill="none" />
<polyline points="515.0,264.0,499.5,279.0,483.5,294.5" stroke="black" stroke-width="2" fill="none" />
<polyline points="469.0,297.0,485.5,296.5,502.0,295.5,518.0,295.0" stroke="black" stroke-width="2" fill="none" />
<polyline points="516.5,294.5,501.0,309.5" stroke="black" stroke-width="2" fill="none" />
<polyline points="519.0,328.5,503.5,328.0,489.0,327.5,473.5,328.5" stroke="black" stroke-width="2" fill="none" />
<polyline points="489.0,343.5,505.0,343.5,520.5,343.5" stroke="black" stroke-width="2" fill="none" />
<polyline points="518.5,311.0,501.5,312.0,485.5,312.5,469.5,312.5,453.5,312.5" stroke="black" stroke-width="2" fill="none" />
<polyline points="453.5,280.0,468.5,280.0,485.0,279.5,501.5,279.5,518.0,279.5" stroke="black" stroke-width="2" fill="none" />
<polyline points="472.5,262.0,456.5,277.5" stroke="black" stroke-width="2" fill="none" />
<polyline points="457.0,259.5,473.5,243.5" stroke="black" stroke-width="2" fill="none" />
<polyline points="466.0,245.0,498.5,255.0,493.5,262.5" stroke="black" stroke-width="2" fill="none" />
<polyline points="499.5,232.5,515.0,218.0" stroke="black" stroke-width="2" fill="none" />
<polyline points="500.0,217.5,516.0,202.5" stroke="black" stroke-width="2" fill="none" />
<polyline points="520.5,194.0,504.5,194.5" stroke="black" stroke-width="2" fill="none" />
<polyline points="501.5,199.5,517.0,183.5" stroke="black" stroke-width="2" fill="none" />
<polyline points="504.0,182.0,488.0,197.5,471.5,211.5,454.5,226.5,437.5,242.5,420.5,258.0" stroke="black" stroke-width="2" fill="none" />
<polyline points="419.0,264.5,424.0,284.5,421.5,304.5,428.5,299.0,433.5,306.5" stroke="black" stroke-width="2" fill="none" />
<polyline points="426.5,317.0,410.0,318.0" stroke="black" stroke-width="2" fill="none" />
<polyline points="407.5,284.5,423.5,284.0" stroke="black" stroke-width="2" fill="none" />
<polyline points="415.0,273.5,435.0,293.5" stroke="black" stroke-width="2" fill="none" />
<polyline points="438.0,266.0,454.0,265.5,470.0,265.0,486.0,264.0,502.5,263.0,519.5,262.5" stroke="black" stroke-width="2" fill="none" />
<polyline points="487.0,216.5,470.0,231.5,454.0,246.5,438.0,262.5" stroke="black" stroke-width="2" fill="none" />
<polyline points="438.5,249.0,458.5,249.0,479.0,244.0,499.0,244.0" stroke="black" stroke-width="2" fill="none" />
<polyline points="519.0,245.0,503.0,245.5,487.5,247.0,472.0,248.5,456.0,248.5,440.0,248.5,423.5,249.0,406.5,250.0,390.0,250.5" stroke="black" stroke-width="2" fill="none" />
<polyline points="403.5,259.0,419.5,243.0" stroke="black" stroke-width="2" fill="none" />
<polyline points="413.5,255.0,451.0,275.0,461.0,295.0" stroke="black" stroke-width="2" fill="none" />
<polyline points="476.5,263.5,456.5,256.0" stroke="black" stroke-width="2" fill="none" />
<polyline points="468.5,225.5,488.0,223.0,508.0,225.5" stroke="black" stroke-width="2" fill="none" />
<polyline points="473.5,187.0,458.0,201.5,441.5,216.0" stroke="black" stroke-width="2" fill="none" />
<polyline points="440.5,200.0,456.5,185.0,472.5,169.5" stroke="black" stroke-width="2" fill="none" />
<polyline points="474.5,177.0,458.5,177.5" stroke="black" stroke-width="2" fill="none" />
<polyline points="453.0,169.5,468.5,153.5" stroke="black" stroke-width="2" fill="none" />
<polyline points="475.0,152.0,460.0,151.5" stroke="black" stroke-width="2" fill="none" />
<polyline points="458.0,134.0,475.0,134.0" stroke="black" stroke-width="2" fill="none" />
<polyline points="467.5,121.5,487.5,104.0,507.0,92.0" stroke="black" stroke-width="2" fill="none" />
<polyline points="519.0,42.0,502.5,43.5,485.0,44.5,469.0,45.0" stroke="black" stroke-width="2" fill="none" />
<polyline points="491.0,26.0,506.0,25.0,521.5,24.0" stroke="black" stroke-width="2" fill="none" />
<polyline points="519.5,57.5,503.5,58.0,487.0,58.0,470.5,58.0,455.5,59.5,440.0,60.5" stroke="black" stroke-width="2" fill="none" />
<polyline points="453.0,3.5,473.0,3.5" stroke="black" stroke-width="2" fill="none" />
<polyline points="373.5,10.0,357.5,12.0,342.0,13.0" stroke="black" stroke-width="2" fill="none" />
<polyline points="357.0,28.0,341.5,29.0,327.0,29.5,311.5,29.5" stroke="black" stroke-width="2" fill="none" />
<polyline points="322.5,39.0,306.5,55.0" stroke="black" stroke-width="2" fill="none" />
<polyline points="293.5,58.5,309.5,58.5,325.0,58.0,341.0,57.5" stroke="black" stroke-width="2" fill="none" />
<polyline points="344.0,71.5,364.0,71.5,379.0,44.0,396.5,64.0,386.5,84.0,401.5,96.5,391.5,106.5,401.0,126.5" stroke="black" stroke-width="2" fill="none" />
<polyline points="391.5,151.0,375.5,152.0,360.5,153.0,346.0,154.0,332.0,154.5,316.5,155.0" stroke="black" stroke-width="2" fill="none" />
<polyline points="328.0,165.5,311.5,181.5,295.5,198.0" stroke="black" stroke-width="2" fill="none" />
<polyline points="293.5,203.0,309.5,202.5,325.5,202.5,342.0,202.5,358.0,201.5,373.5,200.5,390.0,199.5,406.0,198.5,422.5,197.0,439.5,195.5,456.5,194.5,472.5,195.0,488.5,196.5,503.5,197.5,518.5,198.5" stroke="black" stroke-width="2" fill="none" />
<polyline points="473.0,194.5,457.5,195.0" stroke="black" stroke-width="2" fill="none" />
<polyline points="434.5,183.0,419.5,198.0" stroke="black" stroke-width="2" fill="none" />
<polyline points="408.0,198.0,424.5,183.0" stroke="black" stroke-width="2" fill="none" />
<polyline points="437.5,171.5,453.5,171.5,470.0,171.5,487.0,171.0,504.0,171.0,521.0,171.0" stroke="black" stroke-width="2" fill="none" />
<polyline points="517.5,211.0,501.5,211.0,485.0,211.0,468.5,211.5,451.5,212.0,436.5,212.5,422.5,213.0,408.0,213.5,392.5,213.5,376.0,214.5,359.5,216.0,343.0,217.0,326.5,218.0,310.5,218.0,295.0,218.0" stroke="black" stroke-width="2" fill="none" />
<polyline points="298.0,219.0,303.5,211.5" stroke="black" stroke-width="2" fill="none" />
<polyline points="308.5,214.5,324.5,198.5,340.0,183.0,355.0,168.0" stroke="black" stroke-width="2" fill="none" />
<polyline points="344.0,167.5,327.0,182.5,311.5,199.5" stroke="black" stroke-width="2" fill="none" />
<polyline points="312.0,194.5,328.5,194.5,345.5,194.5,362.0,194.5" stroke="black" stroke-width="2" fill="none" />
<polyline points="376.0,198.5,392.0,183.0" stroke="black" stroke-width="2" fill="none" />
<polyline points="390.0,196.0,405.5,180.0" stroke="black" stroke-width="2" fill="none" />
<polyline points="393.0,166.5,377.5,182.5,361.0,198.5,344.0,215.0,328.0,231.5" stroke="black" stroke-width="2" fill="none" />
<polyline points="329.5,218.5,346.0,202.0,362.5,185.5,378.5,170.0" stroke="black" stroke-width="2" fill="none" />
<polyline points="367.5,175.5,380.0,155.5" stroke="black" stroke-width="2" fill="none" />
<polyline points="387.0,136.5,372.5,153.5,352.5,153.5,345.0,164.0,330.0,154.5,345.0,134.5,344.5,114.5,347.0,95.0,359.0,77.5,339.0,90.0" stroke="black" stroke-width="2" fill="none" />
<polyline points="360.5,75.5,344.5,76.5,329.5,78.0,314.0,79.0" stroke="black" stroke-width="2" fill="none" />
<polyline points="311.0,69.5,327.0,54.5" stroke="black" stroke-width="2" fill="none" />
<polyline points="325.5,64.0,345.5,49.0,365.5,42.0,385.5,44.5,405.5,52.5,405.5,75.0,413.0,108.0,423.5,98.0,443.5,80.5,445.5,88.0,465.0,88.0,485.5,88.0,502.5,85.0,487.5,105.0,467.5,125.0,450.0,142.0,450.0,161.5,427.5,179.5,437.5,192.0,460.0,192.0,452.5,212.0,462.5,227.0,482.5,232.0,505.0,251.5" stroke="black" stroke-width="2" fill="none" />
<polyline points="422.5,266.0,405.0,267.0" stroke="black" stroke-width="2" fill="none" />
<polyline points="413.5,272.5,433.5,275.0" stroke="black" stroke-width="2" fill="none" />
<polyline points="391.5,244.0,407.0,228.0" stroke="black" stroke-width="2" fill="none" />
<polyline points="405.0,209.5,425.5,212.0" stroke="black" stroke-width="2" fill="none" />
<polyline points="426.5,168.5,411.5,168.5,395.5,168.5,378.5,169.0,361.5,170.0,346.5,171.0,330.5,172.0,314.5,173.0,298.0,173.5,281.0,174.0" stroke="black" stroke-width="2" fill="none" />
<polyline points="284.0,189.5,304.0,205.0,309.0,207.5,317.0,227.5,322.5,240.0,317.5,258.0,305.5,267.5,297.5,287.5,290.0,297.0,275.0,316.5" stroke="black" stroke-width="2" fill="none" />
<polyline points="261.0,327.5,246.0,343.0,230.5,357.5" stroke="black" stroke-width="2" fill="none" />
<polyline points="247.0,362.0,263.0,347.0" stroke="black" stroke-width="2" fill="none" />
<polyline points="250.0,353.0,233.5,354.5,216.5,355.5,200.0,355.5" stroke="black" stroke-width="2" fill="none" />
<polyline points="199.5,353.0,215.5,337.5,231.5,322.5" stroke="black" stroke-width="2" fill="none" />
<polyline points="248.5,326.5,231.5,342.5,214.5,358.5" stroke="black" stroke-width="2" fill="none" />
<polyline points="201.0,346.0,185.0,360.5" stroke="black" stroke-width="2" fill="none" />
<polyline points="170.0,359.5,185.5,344.5" stroke="black" stroke-width="2" fill="none" />
<polyline points="200.5,335.0,217.0,334.5,233.0,333.5,249.0,332.0,265.0,329.5,282.0,327.5,297.0,326.5,313.0,325.5,329.5,324.0,346.0,322.5" stroke="black" stroke-width="2" fill="none" />
<polyline points="340.5,312.0,323.5,311.5,306.5,312.0,291.0,312.5,276.0,313.0,261.0,312.5,245.5,312.5,230.0,312.5,213.5,313.5" stroke="black" stroke-width="2" fill="none" />
<polyline points="199.5,309.0,179.5,319.0,159.0,321.5,171.5,297.0,186.5,277.0,196.5,257.0,194.0,237.5,181.5,225.0,193.5,212.5,208.5,197.0,178.5,177.5,176.0,157.0,188.5,152.0,173.5,137.0,186.5,117.5,174.0,112.5,169.0,98.0,176.5,78.0,184.5,60.5,154.5,65.5" stroke="black" stroke-width="2" fill="none" />
<polyline points="153.0,58.5,137.5,73.5" stroke="black" stroke-width="2" fill="none" />
<polyline points="135.5,77.0,151.0,76.0,167.0,75.5,182.5,75.0" stroke="black" stroke-width="2" fill="none" />
<polyline points="174.0,79.5,193.5,62.0" stroke="black" stroke-width="2" fill="none" />
<polyline points="199.0,37.0,215.0,20.0,231.0,4.5" stroke="black" stroke-width="2" fill="none" />
<polyline points="234.0,5.0,239.0,10.0,247.0,30.0,225.0,50.5,223.0,70.5,225.5,103.5,220.5,126.0,195.5,146.0,201.0,166.0,208.5,175.5,188.5,183.0,178.0,218.0,155.5,230.5,162.5,247.5,169.5,268.0,192.0,265.0,204.5,262.5,224.5,257.0" stroke="black" stroke-width="2" fill="none" />
<polyline points="201.0,267.5,216.5,267.0,231.5,266.0,247.0,265.0,262.5,264.5,279.0,264.5,295.0,263.5,311.0,263.0" stroke="black" stroke-width="2" fill="none" />
<polyline points="309.0,277.5,293.0,277.5,277.5,278.5,262.5,280.0,247.0,281.0,231.5,281.0,215.5,281.5" stroke="black" stroke-width="2" fill="none" />
<polyline points="209.5,289.5,202.0,270.0" stroke="black" stroke-width="2" fill="none" />
<polyline points="180.0,250.0,196.5,249.5,212.5,249.0,229.0,249.0,245.5,248.5,262.0,248.5,278.0,248.5,293.5,248.0,309.0,248.0,325.0,247.5" stroke="black" stroke-width="2" fill="none" />
<polyline points="308.5,238.0,303.5,238.0,298.5,258.0,284.0,285.0,304.0,283.0,316.5,288.0,337.0,283.0,357.0,283.0,361.5,265.0,381.0,270.0,396.0,280.0,398.5,300.0,391.5,319.5,386.5,347.0" stroke="black" stroke-width="2" fill="none" />
<polyline points="360.0,297.0,343.0,297.5,326.5,298.5,310.0,299.5,294.0,299.5" stroke="black" stroke-width="2" fill="none" />
<polyline points="264.0,299.5,248.0,299.0,232.5,299.5" stroke="black" stroke-width="2" fill="none" />
<polyline points="229.5,304.5,227.0,325.0" stroke="black" stroke-width="2" fill="none" />
<polyline points="259.0,331.5,259.0,341.5" stroke="black" stroke-width="2" fill="none" />
<polyline points="323.5,321.0,343.5,328.5" stroke="black" stroke-width="2" fill="none" />
<polyline points="347.5,349.5,359.5,324.0,322.0,324.0,324.0,304.0,351.5,278.5,364.0,271.0,339.5,251.0,354.5,241.0,354.5,229.0,342.5,209.0,357.5,193.5,345.0,181.5,305.0,166.5,322.5,141.5,340.0,118.5,327.0,98.5,347.0,76.5,326.5,66.5,346.5,46.5,351.5,29.0,336.5,38.5" stroke="black" stroke-width="2" fill="none" />
<polyline points="343.0,40.5,327.0,41.0,312.0,42.0,296.5,43.5" stroke="black" stroke-width="2" fill="none" />
<polyline points="296.5,37.0,316.5,31.5,336.5,21.5,356.5,16.5,344.5,1.5,322.0,11.5,322.0,44.0,329.5,55.0,339.5,30.5,359.0,25.5,374.0,33.0,396.5,38.0,399.0,42.5,419.5,55.0,440.0,45.0,450.0,37.5,470.0,30.0,482.5,15.0,504.5,10.5,506.5,13.5" stroke="black" stroke-width="2" fill="none" />
<polyline points="451.0,132.0,461.0,137.5,461.5,157.5,484.0,175.0,481.5,184.5,484.0,197.0,504.0,207.0" stroke="black" stroke-width="2" fill="none" />
<polyline points="519.0,224.5,503.0,225.0,488.5,225.5,472.5,226.0,457.5,226.5,441.5,227.0,426.0,228.0,411.0,229.0,394.5,229.0,378.5,228.5,362.0,229.5,344.5,231.0,327.0,231.5,310.0,233.5,293.5,234.5,277.0,235.5,261.5,236.5,245.5,237.0" stroke="black" stroke-width="2" fill="none" />
<polyline points="245.0,219.0,261.5,218.5,279.0,218.0" stroke="black" stroke-width="2" fill="none" />
<polyline points="261.5,207.0,259.5,197.0,257.0,217.0,252.0,221.5,249.5,241.5,249.5,241.5,264.5,251.5,286.5,236.5,304.0,214.0,311.5,209.5,321.5,217.5,339.0,207.0,353.5,207.0,358.5,222.0,378.5,221.5,398.5,229.0,418.5,236.5,433.5,244.0,443.5,234.0,448.0,259.5,468.0,269.5,488.0,277.0,498.5,282.5" stroke="black" stroke-width="2" fill="none" />
<polyline points="519.5,170.0,503.5,169.5,488.0,169.0,472.5,171.0,457.0,173.0,441.0,174.5,425.5,175.5,409.0,177.0,392.0,177.0,375.0,177.0,358.0,177.5,341.5,177.5,325.5,177.5,309.0,178.5,293.0,179.0,277.5,179.0,262.0,179.5,246.0,179.5,229.5,179.5,213.0,180.0,196.5,180.0,180.5,180.5,164.0,181.0,148.0,182.0,132.0,183.0,116.5,184.5,101.5,186.0,86.5,187.5,70.0,188.0,53.0,188.0,37.5,187.5,22.5,187.5,7.0,188.0" stroke="black" stroke-width="2" fill="none" />
<polyline points="3.0,179.0,18.5,163.5,34.0,147.5" stroke="black" stroke-width="2" fill="none" />
<polyline points="25.5,147.0,45.0,147.0" stroke="black" stroke-width="2" fill="none" />
<polyline points="36.0,135.5,20.0,151.5,5.0,167.0" stroke="black" stroke-width="2" fill="none" />
<polyline points="10.5,173.0,26.0,171.5,41.5,170.5,56.5,170.0,72.0,170.5,87.0,170.5,102.0,169.0" stroke="black" stroke-width="2" fill="none" />
<polyline points="104.0,180.0,87.5,196.5,71.5,213.0" stroke="black" stroke-width="2" fill="none" />
<polyline points="57.5,214.0,73.5,197.5,89.5,181.5" stroke="black" stroke-width="2" fill="none" />
<polyline points="88.5,167.5,73.0,182.5,55.5,197.5" stroke="black" stroke-width="2" fill="none" />
<polyline points="52.5,197.0,68.0,196.5,83.5,196.0" stroke="black" stroke-width="2" fill="none" />
<polyline points="102.0,201.5,117.5,186.5" stroke="black" stroke-width="2" fill="none" />
<polyline points="119.5,196.0,135.5,180.0,151.0,164.5,167.0,149.0" stroke="black" stroke-width="2" fill="none" />
<polyline points="181.5,149.0,165.5,165.0,150.0,180.0,134.5,196.0,118.5,212.0" stroke="black" stroke-width="2" fill="none" />
<polyline points="137.5,210.5,152.5,195.0,167.0,180.0,182.0,164.5" stroke="black" stroke-width="2" fill="none" />
<polyline points="187.5,183.0,172.0,198.5,155.0,213.0" stroke="black" stroke-width="2" fill="none" />
<polyline points="170.0,214.0,165.5,234.0,173.0,254.0" stroke="black" stroke-width="2" fill="none" />
<polyline points="159.0,240.0,139.0,252.5,116.5,239.5,96.5,242.5,89.0,250.0,84.0,259.5,76.5,257.0,56.5,264.5,49.0,279.5,29.0,289.5,9.0,296.5,33.5,294.0,16.0,304.0" stroke="black" stroke-width="2" fill="none" />
<polyline points="8.5,297.0,25.5,296.5" stroke="black" stroke-width="2" fill="none" />
<polyline points="34.5,311.5,54.5,311.5" stroke="black" stroke-width="2" fill="none" />
<polyline points="54.0,299.5,69.5,298.5,85.0,297.5,100.5,296.5,116.5,295.5" stroke="black" stroke-width="2" fill="none" />
<polyline points="131.0,296.5,147.5,296.0,165.0,296.0" stroke="black" stroke-width="2" fill="none" />
<polyline points="151.5,326.0,134.5,341.5" stroke="black" stroke-width="2" fill="none" />
<polyline points="148.5,356.5,164.0,340.0" stroke="black" stroke-width="2" fill="none" />
<polyline points="155.0,342.5,138.5,357.5" stroke="black" stroke-width="2" fill="none" />
<polyline points="104.5,347.0,121.0,346.5,136.5,345.5,152.0,345.0,168.5,344.5,184.5,345.0,201.0,344.5,217.0,344.5,233.0,343.5,248.5,342.0,264.0,341.5,280.5,341.5,297.5,341.5,314.0,341.5,329.5,340.0,344.5,339.0,360.5,339.0,376.0,338.5" stroke="black" stroke-width="2" fill="none" />
<polyline points="362.5,291.0,382.5,286.0" stroke="black" stroke-width="2" fill="none" />
<polyline points="380.5,237.5,400.5,240.0,420.5,242.0,470.5,264.0,493.0,299.0" stroke="black" stroke-width="2" fill="none" />
<polyline points="462.0,334.0,442.0,324.0,422.0,316.5,410.0,316.5,410.0,296.5,413.0,276.5,408.0,256.5,378.0,249.0,358.0,244.0" stroke="black" stroke-width="2" fill="none" />
<polyline points="347.5,236.0,347.5,256.0,367.0,260.5,387.0,263.0,419.0,255.0,439.0,267.5,441.5,277.5,466.5,280.0,486.5,287.5,506.5,297.5,506.5,310.0" stroke="black" stroke-width="2" fill="none" />
<polyline points="484.0,214.5,476.5,209.5,456.5,219.0,436.5,209.0,429.5,201.5,419.5,217.0,412.0,221.5,392.0,216.5,372.5,213.5,353.0,211.0" stroke="black" stroke-width="2" fill="none" />
<polyline points="358.0,220.0,341.5,235.0" stroke="black" stroke-width="2" fill="none" />
<polyline points="343.5,223.0,339.0,233.0,339.5,245.5,327.0,262.5,302.0,269.5,322.0,269.5" stroke="black" stroke-width="2" fill="none" />
<polyline points="328.0,292.0,335.0,299.5,355.0,312.0,370.0,304.0" stroke="black" stroke-width="2" fill="none" />
<polyline points="389.0,321.5,369.0,323.5,349.0,321.0,329.0,303.5" stroke="black" stroke-width="2" fill="none" />
<polyline points="327.0,212.0,343.5,211.0" stroke="black" stroke-width="2" fill="none" />
<polyline points="342.0,180.0,326.0,180.0" stroke="black" stroke-width="2" fill="none" />
<polyline points="284.5,170.0,264.5,175.0" stroke="black" stroke-width="2" fill="none" />
<polyline points="260.0,189.5,252.5,209.5,240.0,229.5,245.0,247.0,245.0,267.0,272.5,281.5,292.5,276.5,295.0,261.5,310.0,234.0,312.5,256.0,330.0,241.0" stroke="black" stroke-width="2" fill="none" />
<polyline points="378.0,222.0,397.5,249.5,377.5,269.5,367.5,302.0,402.5,327.5,412.5,349.5" stroke="black" stroke-width="2" fill="none" />
<polyline points="359.0,342.5,404.0,342.5,426.5,332.5,428.5,330.0,409.0,339.5,401.5,345.0,381.5,345.0,359.5,350.0,354.5,349.5,344.5,342.0,324.5,344.0,324.5,339.5,297.0,349.5,262.0,340.0,282.0,342.5,259.5,325.0,252.0,305.0,259.5,285.0,259.5,265.5,272.0,245.5,274.5,225.5,289.5,220.5,292.0,200.0,279.5,172.0,296.5,151.5,317.0,138.5,304.5,136.0,317.0,133.5,309.5,121.0,304.5,118.5,294.5,98.5,312.0,79.0,292.0,69.0,289.5,59.0,274.5,39.0,255.0,24.5,282.5,24.5,290.0,24.0,292.0,9.0,272.0,14.5,251.5,27.0" stroke="black" stroke-width="2" fill="none" />
<polyline points="247.5,22.5,231.0,39.0" stroke="black" stroke-width="2" fill="none" />
<polyline points="217.0,31.5,233.0,31.0,247.5,31.0" stroke="black" stroke-width="2" fill="none" />
<polyline points="247.0,40.0,230.0,41.0,214.5,42.0" stroke="black" stroke-width="2" fill="none" />
<polyline points="215.0,36.5,230.5,19.5,246.5,3.5" stroke="black" stroke-width="2" fill="none" />
<polyline points="233.5,17.5,218.5,18.5" stroke="black" stroke-width="2" fill="none" />
<polyline points="215.5,13.0,199.0,28.0,183.0,43.0" stroke="black" stroke-width="2" fill="none" />
<polyline points="166.0,36.0,182.5,20.0" stroke="black" stroke-width="2" fill="none" />
<polyline points="182.0,7.5,165.5,23.0,148.0,37.5,131.0,53.0" stroke="black" stroke-width="2" fill="none" />
<polyline points="123.0,60.5,139.0,60.5,155.5,59.5,172.0,59.0,187.0,58.5" stroke="black" stroke-width="2" fill="none" />
<polyline points="184.0,43.0,168.5,44.0,153.0,45.0,137.5,46.0,121.5,46.5" stroke="black" stroke-width="2" fill="none" />
<polyline points="135.5,36.0,152.5,20.5,168.5,4.5" stroke="black" stroke-width="2" fill="none" />
<polyline points="173.0,11.0,192.5,5.5" stroke="black" stroke-width="2" fill="none" />
<polyline points="202.5,35.0,185.0,55.0,150.5,59.5,160.0,39.5,184.5,54.0,204.0,46.5,204.0,56.5,224.0,49.0,244.0,31.5,259.0,4.5" stroke="black" stroke-width="2" fill="none" />
<polyline points="276.5,29.0,293.5,29.0" stroke="black" stroke-width="2" fill="none" />
<polyline points="270.5,33.0,290.5,38.0,298.5,23.0,318.5,15.5,340.5,8.0,365.5,8.0,385.5,5.0,405.5,4.5" stroke="black" stroke-width="2" fill="none" />
<polyline points="370.0,92.0,390.0,82.0,410.0,84.0,430.0,74.5,450.5,74.5,475.5,82.0,495.5,74.5" stroke="black" stroke-width="2" fill="none" />
<polyline points="393.5,114.5,374.0,116.5,355.0,119.0,323.0,96.0,320.5,93.0,300.5,105.5" stroke="black" stroke-width="2" fill="none" />
<polyline points="276.5,123.5,260.0,124.5" stroke="black" stroke-width="2" fill="none" />
<polyline points="266.5,125.0,246.5,115.0" stroke="black" stroke-width="2" fill="none" />
<polyline points="239.5,120.0,259.5,104.5,264.5,109.5,274.5,129.5,274.5,149.0" stroke="black" stroke-width="2" fill="none" />
<polyline points="247.0,166.5,231.0,166.5,214.5,167.0,199.0,167.5,184.0,168.0,168.0,169.0,153.0,170.5,138.5,172.0,123.5,172.5" stroke="black" stroke-width="2" fill="none" />
<polyline points="133.5,159.5,150.0,158.5,166.5,157.5,182.0,156.5,196.5,155.5" stroke="black" stroke-width="2" fill="none" />
<polyline points="199.5,186.0,183.0,201.0,166.5,215.5,150.0,230.0" stroke="black" stroke-width="2" fill="none" />
<polyline points="168.0,229.5,183.5,214.0,198.5,198.5,214.0,182.5" stroke="black" stroke-width="2" fill="none" />
<polyline points="217.5,196.5,233.5,181.0" stroke="black" stroke-width="2" fill="none" />
<polyline points="230.5,195.5,215.0,196.0,199.5,197.0,184.5,198.0,169.0,198.5,152.0,200.0,135.5,201.0,119.5,202.0,103.0,202.5,86.5,203.5,71.0,203.0,55.5,203.5,39.5,203.5,24.5,203.5,9.0,203.5" stroke="black" stroke-width="2" fill="none" />
<polyline points="10.0,199.0,25.5,183.5" stroke="black" stroke-width="2" fill="none" />
<polyline points="20.0,176.0,40.0,168.5" stroke="black" stroke-width="2" fill="none" />
<polyline points="37.5,180.0,22.0,196.0" stroke="black" stroke-width="2" fill="none" />
<polyline points="14.0,202.5,34.0,200.0" stroke="black" stroke-width="2" fill="none" />
<polyline points="37.5,196.0,53.5,180.0,69.5,165.0" stroke="black" stroke-width="2" fill="none" />
<polyline points="70.5,151.5,53.5,167.0" stroke="black" stroke-width="2" fill="none" />
<polyline points="26.0,136.5,10.0,152.0" stroke="black" stroke-width="2" fill="none" />
<polyline points="12.0,159.5,28.0,158.0,43.5,155.5,59.0,153.5,74.5,151.5,90.0,150.5" stroke="black" stroke-width="2" fill="none" />
<polyline points="86.0,134.5,71.0,136.0,56.5,137.5,41.5,138.5,25.0,139.5,8.5,141.0" stroke="black" stroke-width="2" fill="none" />
<polyline points="3.0,128.0,23.0,118.0,42.5,110.5,62.5,105.5,82.5,105.0,77.0,130.0,49.5,139.5,47.0,157.0,52.0,182.0,32.0,192.5,51.5,192.5,71.5,192.5,92.0,185.0,100.0,195.5,110.5,188.0,130.5,186.0,143.0,188.5,153.0,156.0,183.5,166.0,191.0,193.0,211.0,188.0,230.5,183.0,253.0,175.5,272.5,165.0,297.0,170.5,317.0,157.5,334.5,152.5" stroke="black" stroke-width="2" fill="none" />
<polyline points="369.5,117.5,344.5,145.0,351.5,165.0,364.0,162.5,384.0,155.5,399.5,165.5,416.5,157.5" stroke="black" stroke-width="2" fill="none" />
<polyline points="409.5,155.5,412.0,157.5,430.0,180.0" stroke="black" stroke-width="2" fill="none" />
<polyline points="397.5,100.0,377.5,102.5,365.0,97.5,362.5,112.0,353.0,129.5,325.5,137.5,303.0,135.0,283.0,152.5,255.5,139.5,242.5,159.5,245.0,155.0,257.0,135.0,239.5,127.5,247.0,107.0,282.0,97.0,289.5,82.5,270.0,100.0" stroke="black" stroke-width="2" fill="none" />
<polyline points="243.0,79.5,223.5,89.5,204.0,89.5,181.5,99.5,155.5,94.5,135.0,84.5,129.5,82.0,102.0,59.5,81.5,54.5,61.5,46.5,41.5,49.0,21.5,40.5,1.5,23.0" stroke="black" stroke-width="2" fill="none" />
<polyline points="7.5,24.5,23.5,25.0,40.0,25.0,56.5,24.5,73.0,25.5,89.5,26.0" stroke="black" stroke-width="2" fill="none" />
<polyline points="84.0,25.0,104.0,35.5" stroke="black" stroke-width="2" fill="none" />
<polyline points="103.5,27.0,119.0,27.5,134.5,28.5,150.5,28.5,167.0,28.5,183.5,28.5,199.0,28.5,214.5,27.5,230.5,26.5,247.0,25.5,263.5,24.5" stroke="black" stroke-width="2" fill="none" />
<polyline points="247.0,5.0,230.5,6.0,214.0,7.0,198.5,8.5,182.0,9.0,166.0,9.5,150.5,10.5,135.5,10.5,120.0,10.5,103.5,11.5,87.5,12.5" stroke="black" stroke-width="2" fill="none" />
<polyline points="104.0,4.5,124.0,17.0" stroke="black" stroke-width="2" fill="none" />
<polyline points="117.0,11.5,127.0,31.5,150.0,34.0,170.0,34.5,190.0,29.5,210.5,37.5,230.0,65.5,250.0,65.0,270.0,65.0,297.0,70.0,317.0,80.0,337.0,85.0,339.5,62.5,359.5,57.5,379.5,52.5,424.5,67.5,444.5,70.0,464.0,60.0" stroke="black" stroke-width="2" fill="none" />
<polyline points="497.0,191.5,477.0,189.0,454.5,199.0,432.0,196.5,412.0,193.5,397.0,183.5,377.0,183.5,367.0,188.5,347.0,193.0,319.5,188.0,289.5,183.0,269.5,186.0,250.0,186.0,230.0,191.5,210.0,196.5,190.5,199.0,168.0,212.0,155.5,229.5,140.5,221.5,132.5,236.5,137.5,234.0,147.0,231.5,144.5,219.0,164.0,186.5,156.5,158.5,164.0,156.0,149.0,133.5,116.5,121.0,101.5,101.0,102.0,78.5,115.0,58.5,108.0,46.0,108.0,26.0,77.5,8.5,57.0,11.5,37.0,14.0,32.0,21.5" stroke="black" stroke-width="2" fill="none" />
<polyline points="36.5,23.0,20.5,38.0" stroke="black" stroke-width="2" fill="none" />
<polyline points="25.5,43.5,41.0,42.5,56.5,42.5" stroke="black" stroke-width="2" fill="none" />
<polyline points="61.0,48.5,103.5,55.5,116.0,82.5,113.0,87.0,133.0,91.5,153.0,99.0,155.0,81.0,174.5,68.0,196.5,68.0,208.5,81.0,225.5,68.5,246.0,71.0" stroke="black" stroke-width="2" fill="none" />
<polyline points="195.5,112.5,195.5,132.5,193.0,137.0,212.5,147.0" stroke="black" stroke-width="2" fill="none" />
<polyline points="165.5,137.0,148.5,137.5" stroke="black" stroke-width="2" fill="none" />
<polyline points="142.0,148.0,142.5,168.0,142.5,188.0,160.0,208.0" stroke="black" stroke-width="2" fill="none" />
<polyline points="182.5,194.0,166.0,194.5,150.0,196.0,133.0,197.0" stroke="black" stroke-width="2" fill="none" />
<polyline points="121.5,248.5,106.0,248.5,90.0,249.0,73.5,250.5,57.0,251.5,40.5,252.0,23.5,252.5,7.5,253.5" stroke="black" stroke-width="2" fill="none" />
<polyline points="3.5,242.5,23.0,237.5,42.5,232.0,62.5,229.5,82.5,229.0,102.0,219.0,64.5,236.5,29.5,249.0,7.0,259.5,26.5,260.0,49.0,245.0,56.5,252.5,74.0,249.5,94.0,236.5,114.5,234.0,129.5,218.5" stroke="black" stroke-width="2" fill="none" />
<polyline points="152.5,197.5,132.5,202.5,113.0,210.0,93.5,215.0,73.5,222.5,43.5,227.5,23.0,230.0,3.0,230.0" stroke="black" stroke-width="2" fill="none" />
<polyline points="7.0,223.0,24.0,222.0,40.5,221.5,56.0,220.5,72.0,220.5,88.0,219.5,104.5,219.0,122.0,218.0,138.0,218.5,153.0,218.5,168.5,218.0,185.0,217.5,201.0,216.5" stroke="black" stroke-width="2" fill="none" />
<polyline points="205.0,217.0,220.0,237.0,205.5,237.0" stroke="black" stroke-width="2" fill="none" />
<polyline points="201.5,229.5,184.5,230.5,168.0,230.5,152.0,231.0,136.5,231.0,120.5,231.0,104.5,231.5,89.0,232.5,73.0,234.0,56.5,235.5,40.5,236.5,24.5,237.0,8.5,238.0" stroke="black" stroke-width="2" fill="none" />
<polyline points="22.5,242.0,42.5,240.0" stroke="black" stroke-width="2" fill="none" />
<polyline points="28.5,265.0,12.5,280.0" stroke="black" stroke-width="2" fill="none" />
<polyline points="11.0,281.5,26.5,280.5,42.5,280.0,58.0,278.5,73.5,276.5,88.5,275.5,104.0,275.5,119.0,277.0" stroke="black" stroke-width="2" fill="none" />
<polyline points="120.5,262.5,104.5,262.5,88.5,263.5,72.0,265.0,56.0,265.5,40.0,266.0,24.5,267.0,9.0,267.5" stroke="black" stroke-width="2" fill="none" />
<polyline points="24.5,275.5,8.5,292.0" stroke="black" stroke-width="2" fill="none" />
<polyline points="35.5,318.5,52.0,317.5,68.5,316.5" stroke="black" stroke-width="2" fill="none" />
<polyline points="74.0,296.0,90.0,280.5" stroke="black" stroke-width="2" fill="none" />
<polyline points="84.5,291.5,79.5,271.5" stroke="black" stroke-width="2" fill="none" />
<polyline points="71.0,276.0,54.5,292.0" stroke="black" stroke-width="2" fill="none" />
<polyline points="59.5,272.5,57.0,292.5,52.5,304.5,44.5,325.0,47.0,345.0,46.5,342.5,66.5,320.0,87.0,315.0,99.5,324.5,124.5,327.0,137.0,319.0,144.5,327.0,164.5,334.5,184.5,339.5,204.5,334.0,225.0,326.5" stroke="black" stroke-width="2" fill="none" />
<polyline points="182.5,329.0,166.0,329.0,149.0,328.5,133.0,327.5,117.0,326.0,100.5,325.5" stroke="black" stroke-width="2" fill="none" />
<polyline points="101.5,313.5,117.5,313.0,133.5,314.0,150.0,313.5,167.5,312.5,184.0,312.0" stroke="black" stroke-width="2" fill="none" />
<polyline points="236.5,284.5,226.5,275.0,214.0,295.0,186.5,293.0,179.5,283.0,159.5,290.0,140.0,295.0,120.0,302.5,105.0,288.0,87.5,293.0,67.0,295.5,49.5,290.5,44.5,300.5,24.5,310.5,22.0,325.5,2.0,332.5,5.0,312.0,27.5,288.5,32.5,273.5,47.0,253.5,32.0,274.0,29.0,264.0,9.0,274.5,16.5,269.5,66.5,262.0,94.0,242.5,109.0,242.0,124.0,247.0,104.0,254.5" stroke="black" stroke-width="2" fill="none" />
<polyline points="114.0,247.5,101.5,267.0,68.5,272.0,68.5,292.5,83.5,315.5,46.0,333.0,66.0,333.0,87.0,333.0,92.0,320.5" stroke="black" stroke-width="2" fill="none" />
<polyline points="69.5,344.0,53.5,358.5" stroke="black" stroke-width="2" fill="none" />
<polyline points="42.5,362.0,59.0,347.0" stroke="black" stroke-width="2" fill="none" />
<polyline points="40.0,341.5,24.0,357.0" stroke="black" stroke-width="2" fill="none" />
<polyline points="19.5,341.0,4.5,356.5" stroke="black" stroke-width="2" fill="none" />
<polyline points="4.5,350.5,21.5,350.0,39.0,349.0,55.5,347.5,71.0,345.5,87.0,345.0" stroke="black" stroke-width="2" fill="none" />
<polyline points="71.5,333.0,56.0,333.0,40.5,333.0,25.0,332.5" stroke="black" stroke-width="2" fill="none" />
<polyline points="22.0,335.0,2.0,342.5" stroke="black" stroke-width="2" fill="none" />
<polyline points="102.5,274.5,122.5,284.5,124.5,279.0,144.5,269.0" stroke="black" stroke-width="2" fill="none" />
<polyline points="102.5,268.0,105.5,278.0,95.5,298.0,93.0,320.5,93.0,340.0,80.5,347.5,100.5,337.5,116.0,347.5,136.0,345.0" stroke="black" stroke-width="2" fill="none" />
<polyline points="202.0,330.5,204.5,300.5,175.0,273.0,180.0,253.0,180.0,232.5" stroke="black" stroke-width="2" fill="none" />
<polyline points="169.5,159.5,154.0,142.5,134.5,142.0" stroke="black" stroke-width="2" fill="none" />
<polyline points="127.0,126.5,134.5,142.0,132.0,162.0" stroke="black" stroke-width="2" fill="none" />
<polyline points="102.5,105.0,87.5,105.5" stroke="black" stroke-width="2" fill="none" />
<polyline points="86.5,123.0,70.0,124.0" stroke="black" stroke-width="2" fill="none" />
<polyline points="76.0,127.5,96.0,127.5" stroke="black" stroke-width="2" fill="none" />
<polyline points="99.5,90.5,84.0,90.5,69.5,91.0,53.5,92.0" stroke="black" stroke-width="2" fill="none" />
<polyline points="51.5,76.0,67.5,76.0,84.0,75.0,100.5,75.0" stroke="black" stroke-width="2" fill="none" />
<polyline points="116.5,27.0,132.5,10.5" stroke="black" stroke-width="2" fill="none" />
<polyline points="136.5,25.5,153.0,11.0" stroke="black" stroke-width="2" fill="none" />
<polyline points="162.5,34.5,147.0,39.5,164.0,64.5,128.5,92.0" stroke="black" stroke-width="2" fill="none" />
<polyline points="71.5,61.5,56.5,63.0,40.5,63.5" stroke="black" stroke-width="2" fill="none" />
<polyline points="16.0,59.0,36.5,61.5,49.5,54.0,69.5,64.0" stroke="black" stroke-width="2" fill="none" />
<polyline points="45.0,37.0,65.0,37.0,85.0,35.0,104.5,42.5" stroke="black" stroke-width="2" fill="none" />
<polyline points="104.5,22.0,84.5,12.0,79.0,22.0,59.0,12.0" stroke="black" stroke-width="2" fill="none" />
<polyline points="40.5,7.5,24.5,8.5,8.5,8.0" stroke="black" stroke-width="2" fill="none" />
<polyline points="39.0,26.5,59.0,24.0,79.0,21.5,96.5,49.0,111.0,54.5" stroke="black" stroke-width="2" fill="none" />
<polyline points="59.0,122.5,69.0,132.5,71.5,152.5,71.5,172.5,79.0,164.5,99.5,171.5,120.0,171.5,133.0,179.0" stroke="black" stroke-width="2" fill="none" />
<polyline points="160.0,116.5,140.5,122.0,120.0,121.5,87.5,109.0,67.0,108.5,47.5,113.5,27.5,118.5" stroke="black" stroke-width="2" fill="none" />
<polyline points="20.0,127.0,42.5,145.0,24.5,147.5,9.5,162.5,7.0,187.5,9.5,190.5,29.5,185.5,39.5,175.0" stroke="black" stroke-width="2" fill="none" />
<polyline points="40.0,139.5,20.0,127.0" stroke="black" stroke-width="2" fill="none" />
<polyline points="22.5,90.5,8.0,90.5" stroke="black" stroke-width="2" fill="none" />
<polyline points="2.5,62.0,10.0,87.0,7.5,102.0,17.5,89.5,37.5,89.5,57.5,79.5,77.5,64.5" stroke="black" stroke-width="2" fill="none" />
<polyline points="14.0,56.0,1.5,56.0,14.5,38.0,14.0,58.0,51.5,80.0,49.0,92.5,69.0,79.5,79.5,69.5,94.5,69.0,121.5,67.0,141.5,77.0,152.0,57.0,172.0,42.0,197.0,56.5,182.0,76.5,182.0,96.5,162.0,106.5,166.5,121.5,164.0,126.5,179.0,129.5,186.5,110.0,216.5,109.5,218.5,144.5,218.5,152.0,208.5,186.5,203.5,219.0,201.0,241.5,221.0,251.5,223.5,264.0,215.5,284.5,233.0,277.0,215.5,292.0,208.5,312.5,181.5,333.0,184.0,330.5,204.5,321.0,232.0,308.0,252.5,323.0,265.0,320.5,285.0,308.0" stroke="black" stroke-width="2" fill="none" />
<polyline points="74.5,209.0,54.0,214.0,33.5,213.5,13.0,211.0" stroke="black" stroke-width="2" fill="none" />
</svg>