<svg xmlns="http://www.w3.org/2000/svg" version="1.1"><polyline points="4.0,4.0,12.0,4.0,20.0,3.0,28.5,2.5" stroke="black" stroke-width="2" fill="none" />
<polyline points="26.5,12.0,18.5,19.5,11.0,27.0" stroke="black" stroke-width="2" fill="none" />
<polyline points="4.0,30.5,12.5,29.5,20.5,28.5,28.0,28.0,35.5,27.0,43.0,26.0,50.5,25.5,58.5,25.0,66.5,25.0,74.5,25.0,82.5,25.5,91.0,24.5" stroke="black" stroke-width="2" fill="none" />
<polyline points="91.5,14.0,99.5,13.5,107.5,13.5,115.5,12.5,123.5,12.0,131.5,11.5,139.5,10.5,147.5,10.0,155.5,9.5,164.0,9.0,172.0,8.5,180.5,8.0,187.5,7.0,195.0,6.0,202.0,5.5,210.0,5.0,218.0,4.5,227.0,4.0,235.0,3.5,243.5,3.5,251.5,3.0" stroke="black" stroke-width="2" fill="none" />
<polyline points="244.0,2.0,235.5,9.5,227.0,17.5,219.0,25.5,210.5,33.5" stroke="black" stroke-width="2" fill="none" />
<polyline points="204.0,34.5,212.0,26.5,220.0,19.0,228.0,11.0,236.0,3.5" stroke="black" stroke-width="2" fill="none" />
<polyline points="226.5,2.5,218.5,10.0,211.0,17.5,203.0,25.0,195.0,32.5" stroke="black" stroke-width="2" fill="none" />
<polyline points="194.5,26.5,202.5,19.0,210.5,11.5,219.0,3.5" stroke="black" stroke-width="2" fill="none" />
<polyline points="210.0,2.5,202.0,10.0,194.0,17.5,186.0,25.5,178.0,33.5" stroke="black" stroke-width="2" fill="none" />
<polyline points="172.0,34.5,180.0,27.0,188.0,19.0" stroke="black" stroke-width="2" fill="none" />
<polyline points="188.0,11.5,179.5,19.0,171.5,26.5,163.5,34.0" stroke="black" stroke-width="2" fill="none" />
<polyline points="171.5,23.5,163.5,24.0,155.5,24.0,148.0,24.0" stroke="black" stroke-width="2" fill="none" />
<polyline points="154.5,16.5,146.5,17.0,139.0,17.5" stroke="black" stroke-width="2" fill="none" />
<polyline points="129.0,18.5,137.0,11.0,145.0,4.0" stroke="black" stroke-width="2" fill="none" />
<polyline points="141.5,6.5,133.5,13.5,125.0,20.5" stroke="black" stroke-width="2" fill="none" />
<polyline points="124.5,33.0,132.0,25.0,140.0,17.0,148.0,9.5,156.0,2.0" stroke="black" stroke-width="2" fill="none" />
<polyline points="165.5,3.0,157.0,11.0,148.5,18.5,140.5,26.0,132.0,33.5,124.0,41.0" stroke="black" stroke-width="2" fill="none" />
<polyline points="122.0,47.5,130.0,40.0,138.5,32.0,146.5,25.0,154.5,17.0,162.5,9.0,170.0,1.5" stroke="black" stroke-width="2" fill="none" />
<polyline points="172.0,12.0,163.5,19.5,155.0,27.0,146.5,34.0,138.5,41.5,131.0,48.5,123.0,55.5" stroke="black" stroke-width="2" fill="none" />
<polyline points="117.5,53.0,125.0,52.0,132.5,51.5,140.5,51.0,148.0,50.5,156.0,50.0,163.5,49.5" stroke="black" stroke-width="2" fill="none" />
<polyline points="147.0,52.5,139.0,59.5,131.0,67.5" stroke="black" stroke-width="2" fill="none" />
<polyline points="124.5,69.5,133.0,69.0,141.5,68.5,149.5,68.0,157.5,68.0,165.5,68.0,173.5,67.5,181.0,66.5,189.0,66.0" stroke="black" stroke-width="2" fill="none" />
<polyline points="204.5,84.5,212.5,84.0" stroke="black" stroke-width="2" fill="none" />
<polyline points="219.5,90.0,211.5,90.5,203.5,91.0" stroke="black" stroke-width="2" fill="none" />
<polyline points="195.5,100.0,187.5,100.5" stroke="black" stroke-width="2" fill="none" />
<polyline points="186.0,108.0,194.0,108.0" stroke="black" stroke-width="2" fill="none" />
<polyline points="194.5,117.0,187.0,117.5" stroke="black" stroke-width="2" fill="none" />
<polyline points="187.0,124.0,195.0,123.5" stroke="black" stroke-width="2" fill="none" />
<polyline points="194.5,132.0,186.5,132.5" stroke="black" stroke-width="2" fill="none" />
<polyline points="187.0,140.0,195.5,139.5" stroke="black" stroke-width="2" fill="none" />
<polyline points="181.5,157.5,173.0,165.0,164.0,172.5,155.5,179.5,146.5,186.5,138.5,194.0,130.0,201.5,122.0,209.5" stroke="black" stroke-width="2" fill="none" />
<polyline points="133.0,216.0,141.5,208.0,149.5,201.0,157.5,194.0,165.0,187.0,172.5,180.0,180.5,172.5" stroke="black" stroke-width="2" fill="none" />
<polyline points="181.5,165.5,173.5,172.5,165.0,180.0,157.0,187.5,148.5,195.0,140.0,202.0,131.5,210.0" stroke="black" stroke-width="2" fill="none" />
<polyline points="132.0,200.5,140.0,200.0" stroke="black" stroke-width="2" fill="none" />
<polyline points="141.0,194.0,149.0,193.5,156.5,192.5,164.5,192.0,172.5,192.0,180.0,191.5,188.0,191.0" stroke="black" stroke-width="2" fill="none" />
<polyline points="196.5,202.0,204.0,194.5,211.5,186.5,219.5,179.0,227.5,171.5" stroke="black" stroke-width="2" fill="none" />
<polyline points="235.5,171.0,227.5,178.5,220.0,186.0" stroke="black" stroke-width="2" fill="none" />
<polyline points="226.5,186.0,234.5,179.0" stroke="black" stroke-width="2" fill="none" />
<polyline points="236.0,186.5,244.0,179.0" stroke="black" stroke-width="2" fill="none" />
<polyline points="249.5,182.0,241.5,189.0" stroke="black" stroke-width="2" fill="none" />
<polyline points="244.0,190.0,252.0,189.0,260.0,188.5,268.0,188.5" stroke="black" stroke-width="2" fill="none" />
<polyline points="274.5,186.5,282.0,179.5,290.0,172.5" stroke="black" stroke-width="2" fill="none" />
<polyline points="290.0,179.5,298.5,179.0" stroke="black" stroke-width="2" fill="none" />
<polyline points="299.0,185.0,307.0,184.0,315.0,183.5,323.0,183.0,331.5,183.0,339.5,183.0,347.5,182.5" stroke="black" stroke-width="2" fill="none" />
<polyline points="355.5,186.0,364.0,185.5,372.0,185.0,380.0,184.5" stroke="black" stroke-width="2" fill="none" />
<polyline points="380.5,187.0,388.0,179.5" stroke="black" stroke-width="2" fill="none" />
<polyline points="389.5,171.5,381.0,179.0,373.0,187.0,365.0,195.0" stroke="black" stroke-width="2" fill="none" />
<polyline points="381.0,194.5,389.5,187.5,397.5,180.0" stroke="black" stroke-width="2" fill="none" />
<polyline points="395.5,184.5,403.0,184.0" stroke="black" stroke-width="2" fill="none" />
<polyline points="411.5,179.0,404.0,186.5,396.0,194.5" stroke="black" stroke-width="2" fill="none" />
<polyline points="420.0,185.0,428.0,177.5" stroke="black" stroke-width="2" fill="none" />
<polyline points="421.0,180.5,413.0,188.5" stroke="black" stroke-width="2" fill="none" />
<polyline points="428.0,192.0,435.5,184.5,443.0,176.5,450.5,169.5,458.5,162.5,466.5,155.0" stroke="black" stroke-width="2" fill="none" />
<polyline points="466.0,148.5,458.5,155.5,450.5,163.0" stroke="black" stroke-width="2" fill="none" />
<polyline points="451.0,158.0,459.5,157.5,467.5,157.5" stroke="black" stroke-width="2" fill="none" />
<polyline points="467.5,163.0,459.0,170.0,451.5,178.0,443.5,185.5,436.0,192.5" stroke="black" stroke-width="2" fill="none" />
<polyline points="445.0,193.0,452.5,186.0,460.0,178.5,468.0,170.5" stroke="black" stroke-width="2" fill="none" />
<polyline points="469.0,179.5,461.0,187.0,453.0,194.5,444.5,202.0,436.5,209.5" stroke="black" stroke-width="2" fill="none" />
<polyline points="453.5,208.5,461.0,201.0,468.5,193.5,476.5,186.0,484.5,177.5,493.0,170.0" stroke="black" stroke-width="2" fill="none" />
<polyline points="501.0,172.0,493.0,179.5,484.5,187.0,477.0,194.5,469.0,202.0,461.0,209.5" stroke="black" stroke-width="2" fill="none" />
<polyline points="460.0,218.0,468.5,211.0,476.5,203.0" stroke="black" stroke-width="2" fill="none" />
<polyline points="483.5,203.0,475.5,210.5,468.5,218.5,461.0,226.0,452.5,234.0,444.5,241.5,436.5,249.5,428.5,256.5" stroke="black" stroke-width="2" fill="none" />
<polyline points="428.5,259.5,436.5,258.5,444.5,259.0,452.0,259.0,459.0,259.0,467.0,258.5,474.5,259.0,482.0,258.5,490.0,258.5,498.5,258.0,506.5,258.0,514.5,257.0" stroke="black" stroke-width="2" fill="none" />
<polyline points="516.0,258.0,508.5,265.5,501.0,273.0,493.5,280.5,486.0,288.0" stroke="black" stroke-width="2" fill="none" />
<polyline points="492.5,288.5,500.5,288.0,508.0,287.5" stroke="black" stroke-width="2" fill="none" />
<polyline points="515.5,290.5,507.5,298.0" stroke="black" stroke-width="2" fill="none" />
<polyline points="508.0,297.5,515.5,297.0" stroke="black" stroke-width="2" fill="none" />
<polyline points="515.0,282.0,507.5,289.5,499.5,297.5" stroke="black" stroke-width="2" fill="none" />
<polyline points="500.0,289.0,508.0,281.5,516.5,274.0" stroke="black" stroke-width="2" fill="none" />
<polyline points="517.5,267.0,509.5,274.5,501.5,282.0,493.5,290.0" stroke="black" stroke-width="2" fill="none" />
<polyline points="484.0,280.0,492.5,273.0,501.0,265.5,509.0,258.0,517.0,250.0" stroke="black" stroke-width="2" fill="none" />
<polyline points="516.0,243.5,508.0,251.5" stroke="black" stroke-width="2" fill="none" />
<polyline points="500.5,259.0,492.5,266.0,485.0,273.0,476.5,280.5" stroke="black" stroke-width="2" fill="none" />
<polyline points="474.5,283.0,482.5,282.0,491.0,281.0" stroke="black" stroke-width="2" fill="none" />
<polyline points="491.0,259.0,483.0,266.0,475.0,273.5,467.0,281.0,459.0,288.5" stroke="black" stroke-width="2" fill="none" />
<polyline points="459.5,283.5,467.5,283.0" stroke="black" stroke-width="2" fill="none" />
<polyline points="460.5,281.5,468.0,274.0,476.0,266.5,484.5,259.0" stroke="black" stroke-width="2" fill="none" />
<polyline points="476.0,259.5,468.0,267.0,460.0,274.5" stroke="black" stroke-width="2" fill="none" />
<polyline points="459.0,274.5,467.5,274.0" stroke="black" stroke-width="2" fill="none" />
<polyline points="452.0,273.5,460.0,266.0,468.0,259.0,475.5,252.0" stroke="black" stroke-width="2" fill="none" />
<polyline points="468.5,253.0,460.5,260.5,453.0,268.0" stroke="black" stroke-width="2" fill="none" />
<polyline points="443.0,271.0,450.5,270.0,458.5,270.0,466.5,269.5,475.0,269.0,482.5,268.5,490.5,267.5,498.0,266.5,506.0,266.0,514.0,265.5" stroke="black" stroke-width="2" fill="none" />
<polyline points="508.5,226.5,516.5,219.5" stroke="black" stroke-width="2" fill="none" />
<polyline points="516.5,211.0,508.5,219.0,500.5,226.0" stroke="black" stroke-width="2" fill="none" />
<polyline points="499.5,217.5,507.5,209.5,516.0,202.0" stroke="black" stroke-width="2" fill="none" />
<polyline points="514.5,193.5,507.0,201.0,499.0,208.5" stroke="black" stroke-width="2" fill="none" />
<polyline points="498.5,203.0,506.5,195.5,514.5,188.0" stroke="black" stroke-width="2" fill="none" />
<polyline points="514.0,182.0,506.0,189.0,498.5,197.0" stroke="black" stroke-width="2" fill="none" />
<polyline points="502.0,194.0,510.0,194.0,517.5,193.5" stroke="black" stroke-width="2" fill="none" />
<polyline points="512.5,184.0,504.5,185.0" stroke="black" stroke-width="2" fill="none" />
<polyline points="500.5,180.0,492.5,187.5,484.5,195.0" stroke="black" stroke-width="2" fill="none" />
<polyline points="491.0,193.5,499.5,185.5,507.5,178.0,515.5,170.5" stroke="black" stroke-width="2" fill="none" />
<polyline points="492.5,201.5,484.5,209.0" stroke="black" stroke-width="2" fill="none" />
<polyline points="492.0,210.5,484.0,218.0,475.5,225.0" stroke="black" stroke-width="2" fill="none" />
<polyline points="483.0,225.5,491.0,217.5" stroke="black" stroke-width="2" fill="none" />
<polyline points="490.5,232.5,482.5,240.5" stroke="black" stroke-width="2" fill="none" />
<polyline points="475.5,234.5,467.5,241.5,459.5,249.0,451.0,256.5,442.5,265.0" stroke="black" stroke-width="2" fill="none" />
<polyline points="433.0,256.5,441.0,248.5,449.5,241.0,457.5,233.0,466.0,225.0,474.0,217.0" stroke="black" stroke-width="2" fill="none" />
<polyline points="467.5,235.5,459.5,243.0,451.5,251.0,443.5,258.0,435.5,265.5" stroke="black" stroke-width="2" fill="none" />
<polyline points="418.5,256.0,426.5,248.5,434.5,241.5,442.5,234.5,451.0,227.5" stroke="black" stroke-width="2" fill="none" />
<polyline points="452.0,218.0,444.0,225.5,436.0,233.5,427.5,241.0,419.5,248.5" stroke="black" stroke-width="2" fill="none" />
<polyline points="411.5,237.0,403.5,244.5" stroke="black" stroke-width="2" fill="none" />
<polyline points="403.5,249.5,411.5,249.0" stroke="black" stroke-width="2" fill="none" />
<polyline points="404.0,256.5,412.0,250.0,420.5,243.0,428.0,235.5" stroke="black" stroke-width="2" fill="none" />
<polyline points="421.0,234.0,413.0,242.0,404.5,250.0" stroke="black" stroke-width="2" fill="none" />
<polyline points="394.5,254.0,402.5,253.5,411.0,253.0,419.0,252.5,426.5,252.0,434.5,251.5,443.0,250.5,451.0,249.5,459.5,249.0,467.5,248.5,475.0,248.5,483.5,248.0,491.5,247.5,500.0,247.0,508.5,246.5,516.5,246.5" stroke="black" stroke-width="2" fill="none" />
<polyline points="514.0,298.5,505.5,299.0,498.0,299.0,490.0,299.0,481.5,299.5,473.0,300.0,465.0,300.5" stroke="black" stroke-width="2" fill="none" />
<polyline points="466.0,292.0,474.0,291.5,481.5,291.0,489.0,290.5,497.0,290.5,505.0,291.0,513.0,290.5" stroke="black" stroke-width="2" fill="none" />
<polyline points="516.0,347.5,507.0,348.5,498.5,349.0,490.5,349.5,482.0,350.0" stroke="black" stroke-width="2" fill="none" />
<polyline points="482.0,343.5,490.5,342.5,499.5,342.5,508.0,341.5,517.0,340.5" stroke="black" stroke-width="2" fill="none" />
<polyline points="514.5,329.5,506.5,329.5,498.5,331.0,490.5,331.5,482.5,332.0,475.0,332.5,467.5,333.0" stroke="black" stroke-width="2" fill="none" />
<polyline points="451.0,324.0,458.5,323.5,466.5,323.5,474.5,323.5,482.5,323.5,490.5,323.5,499.5,323.0,508.0,323.0,517.0,322.5" stroke="black" stroke-width="2" fill="none" />
<polyline points="517.5,306.5,509.5,306.5,501.0,307.0,492.5,307.5,484.5,307.5,476.0,308.0,467.5,308.5,459.5,309.0,451.0,309.5" stroke="black" stroke-width="2" fill="none" />
<polyline points="436.5,320.5,444.5,319.5,452.5,319.0,460.5,318.0,468.5,317.5,476.0,317.0,484.0,316.5,492.0,315.5,500.0,314.5,508.0,313.5,515.5,313.0" stroke="black" stroke-width="2" fill="none" />
<polyline points="517.0,282.5,509.0,282.5,501.5,282.0,493.0,282.0,485.0,282.0,476.0,282.0,467.0,282.5,458.5,283.0,450.5,284.0" stroke="black" stroke-width="2" fill="none" />
<polyline points="451.5,278.5,459.0,278.0,467.0,276.5,475.0,275.5,483.0,274.5,491.0,274.0,499.5,273.5,508.0,273.5,516.0,273.0" stroke="black" stroke-width="2" fill="none" />
<polyline points="466.5,257.5,458.0,258.0" stroke="black" stroke-width="2" fill="none" />
<polyline points="437.0,218.5,445.0,211.0,453.5,203.5,461.5,196.5,469.0,189.0,477.0,181.5" stroke="black" stroke-width="2" fill="none" />
<polyline points="467.5,194.0,459.5,194.5,451.5,194.5" stroke="black" stroke-width="2" fill="none" />
<polyline points="450.5,185.5,458.5,185.0,466.5,184.5,475.5,184.0" stroke="black" stroke-width="2" fill="none" />
<polyline points="466.5,176.5,458.0,177.5,450.0,178.5" stroke="black" stroke-width="2" fill="none" />
<polyline points="450.0,170.5,458.0,170.0" stroke="black" stroke-width="2" fill="none" />
<polyline points="468.5,164.5,460.5,165.0,452.5,166.0,444.0,166.5" stroke="black" stroke-width="2" fill="none" />
<polyline points="449.5,156.0,457.5,149.0,465.5,141.5" stroke="black" stroke-width="2" fill="none" />
<polyline points="458.5,140.5,467.0,133.5" stroke="black" stroke-width="2" fill="none" />
<polyline points="466.5,125.5,458.0,126.0" stroke="black" stroke-width="2" fill="none" />
<polyline points="452.5,133.0,460.5,133.0,468.5,132.5" stroke="black" stroke-width="2" fill="none" />
<polyline points="466.5,149.0,459.0,149.5,451.0,150.0" stroke="black" stroke-width="2" fill="none" />
<polyline points="450.5,142.0,459.0,142.0,466.5,141.5" stroke="black" stroke-width="2" fill="none" />
<polyline points="467.0,100.0,475.0,99.0" stroke="black" stroke-width="2" fill="none" />
<polyline points="475.5,92.0,467.0,92.5" stroke="black" stroke-width="2" fill="none" />
<polyline points="458.5,90.5,450.5,90.5" stroke="black" stroke-width="2" fill="none" />
<polyline points="451.0,61.0,459.0,60.5,467.0,59.0,475.0,58.5,482.5,58.5,490.5,58.5,499.0,58.0,508.0,57.5,516.0,57.0" stroke="black" stroke-width="2" fill="none" />
<polyline points="516.0,28.5,508.0,28.5,500.0,29.0,492.0,29.5,483.5,30.0" stroke="black" stroke-width="2" fill="none" />
<polyline points="484.5,19.5,492.5,19.0,499.5,19.5,507.0,20.0,514.0,19.5" stroke="black" stroke-width="2" fill="none" />
<polyline points="515.5,12.5,508.0,13.0" stroke="black" stroke-width="2" fill="none" />
<polyline points="497.5,12.0,489.5,12.0" stroke="black" stroke-width="2" fill="none" />
<polyline points="490.0,4.0,481.5,4.5" stroke="black" stroke-width="2" fill="none" />
<polyline points="468.5,38.0,476.5,37.5,484.5,37.0,492.5,36.0,500.5,35.5,509.0,34.5,516.5,34.0" stroke="black" stroke-width="2" fill="none" />
<polyline points="515.0,66.5,507.0,67.0,499.0,67.5,490.5,68.5,482.5,69.5,475.0,69.5" stroke="black" stroke-width="2" fill="none" />
<polyline points="449.0,44.0,457.0,43.5,465.5,43.5,474.0,43.0,482.0,42.5,489.5,42.0,498.0,41.5,506.0,41.0,514.0,40.5" stroke="black" stroke-width="2" fill="none" />
<polyline points="444.0,63.5,436.5,64.0" stroke="black" stroke-width="2" fill="none" />
<polyline points="435.0,53.5,443.5,53.0,451.5,52.5,459.5,52.5,467.5,52.5,475.5,52.0,482.5,51.0,490.5,50.0,498.0,49.0,505.5,48.0,513.5,47.5" stroke="black" stroke-width="2" fill="none" />
<polyline points="410.0,125.0,402.5,125.0" stroke="black" stroke-width="2" fill="none" />
<polyline points="395.0,133.5,387.0,134.5,379.0,134.5" stroke="black" stroke-width="2" fill="none" />
<polyline points="371.5,125.5,379.5,125.0,387.5,125.0,395.0,124.5" stroke="black" stroke-width="2" fill="none" />
<polyline points="395.0,156.0,403.0,155.5" stroke="black" stroke-width="2" fill="none" />
<polyline points="388.5,163.5,380.5,171.5,372.5,178.5,364.5,185.5,356.5,192.5" stroke="black" stroke-width="2" fill="none" />
<polyline points="356.0,178.5,364.0,178.0" stroke="black" stroke-width="2" fill="none" />
<polyline points="363.5,172.5,355.5,180.0,347.0,186.5,338.5,193.5,330.0,200.5,322.0,207.5,314.0,214.5" stroke="black" stroke-width="2" fill="none" />
<polyline points="313.0,211.5,321.0,211.0,330.0,210.5" stroke="black" stroke-width="2" fill="none" />
<polyline points="331.0,202.0,339.0,201.5" stroke="black" stroke-width="2" fill="none" />
<polyline points="332.5,193.5,340.0,193.0,348.0,192.5" stroke="black" stroke-width="2" fill="none" />
<polyline points="350.5,205.5,342.0,213.0,333.5,220.5" stroke="black" stroke-width="2" fill="none" />
<polyline points="323.5,216.5,331.0,209.5,339.0,201.5,347.0,193.5,355.0,185.5,363.0,178.5,371.5,171.0" stroke="black" stroke-width="2" fill="none" />
<polyline points="362.5,162.5,354.5,170.0,347.5,177.0,340.0,184.0,332.0,191.5,324.0,199.0,316.0,207.5,308.0,215.0" stroke="black" stroke-width="2" fill="none" />
<polyline points="308.5,209.5,316.5,202.0,325.0,195.5,333.0,188.5,341.5,181.5,349.5,173.5" stroke="black" stroke-width="2" fill="none" />
<polyline points="349.0,164.0,341.5,172.0,333.0,180.0,324.5,188.0,315.5,195.0,307.5,202.0" stroke="black" stroke-width="2" fill="none" />
<polyline points="300.0,205.5,307.5,205.0,315.5,205.0,323.5,205.0,331.5,205.0,339.5,204.5,347.5,204.0,355.5,203.0,363.5,202.5,371.5,202.5,379.5,202.0,387.5,201.0,395.0,200.5,402.5,200.0,410.0,199.5,418.0,199.0,426.0,198.5,434.0,198.0,442.0,197.5,450.0,196.5,458.0,196.0,466.5,195.5,474.0,194.5,482.0,194.0,490.5,193.5,499.0,193.5,507.0,193.0,515.5,193.0" stroke="black" stroke-width="2" fill="none" />
<polyline points="436.5,179.0,428.5,187.0" stroke="black" stroke-width="2" fill="none" />
<polyline points="411.5,171.5,403.5,178.5,396.0,185.5" stroke="black" stroke-width="2" fill="none" />
<polyline points="372.0,218.0,364.0,225.5" stroke="black" stroke-width="2" fill="none" />
<polyline points="357.0,210.0,348.5,218.0,339.5,226.5" stroke="black" stroke-width="2" fill="none" />
<polyline points="333.0,227.5,341.0,220.5,349.0,213.0" stroke="black" stroke-width="2" fill="none" />
<polyline points="380.5,234.5,388.5,227.0" stroke="black" stroke-width="2" fill="none" />
<polyline points="389.5,236.0,398.0,228.5" stroke="black" stroke-width="2" fill="none" />
<polyline points="396.0,235.5,388.0,243.0" stroke="black" stroke-width="2" fill="none" />
<polyline points="393.5,243.5,402.0,243.0,410.0,242.5,418.5,242.5,427.0,243.0,435.0,242.5,443.0,241.5,451.0,241.0,459.0,240.0,467.0,240.0,474.5,239.0,482.5,238.0,491.0,237.5,500.0,237.0,509.0,237.0,517.0,237.0" stroke="black" stroke-width="2" fill="none" />
<polyline points="404.0,233.5,396.0,240.5" stroke="black" stroke-width="2" fill="none" />
<polyline points="379.5,237.5,387.5,237.0,395.0,236.0,402.5,235.0,410.0,235.0,418.5,235.0,426.5,234.5,434.0,234.5,442.0,234.0,450.0,234.0,458.0,233.5,466.0,232.5,474.5,231.5,483.0,230.5,492.5,230.0,501.0,229.0,509.0,228.5,517.0,227.5" stroke="black" stroke-width="2" fill="none" />
<polyline points="410.0,277.0,401.5,277.5" stroke="black" stroke-width="2" fill="none" />
<polyline points="401.5,287.0,409.5,286.5" stroke="black" stroke-width="2" fill="none" />
<polyline points="409.5,293.5,402.0,294.5" stroke="black" stroke-width="2" fill="none" />
<polyline points="403.0,301.0,411.0,301.0" stroke="black" stroke-width="2" fill="none" />
<polyline points="411.0,307.0,403.5,307.0" stroke="black" stroke-width="2" fill="none" />
<polyline points="405.0,315.5,413.0,315.0" stroke="black" stroke-width="2" fill="none" />
<polyline points="412.5,324.5,404.5,325.0" stroke="black" stroke-width="2" fill="none" />
<polyline points="395.5,351.0,403.5,350.0,411.0,349.5,418.5,349.0" stroke="black" stroke-width="2" fill="none" />
<polyline points="378.5,350.5,370.5,351.0" stroke="black" stroke-width="2" fill="none" />
<polyline points="358.0,334.0,365.5,333.5,373.5,333.0,381.0,332.5" stroke="black" stroke-width="2" fill="none" />
<polyline points="404.5,267.5,412.5,266.5,420.0,266.0" stroke="black" stroke-width="2" fill="none" />
<polyline points="410.0,261.5,402.5,262.0,394.5,263.0" stroke="black" stroke-width="2" fill="none" />
<polyline points="346.5,176.5,338.0,176.5,329.5,177.0" stroke="black" stroke-width="2" fill="none" />
<polyline points="329.5,169.0,337.5,168.0,345.5,167.0" stroke="black" stroke-width="2" fill="none" />
<polyline points="355.0,162.5,363.0,155.0" stroke="black" stroke-width="2" fill="none" />
<polyline points="350.0,157.0,342.0,164.0,334.0,171.5,325.5,179.0,317.0,186.0,308.5,193.5" stroke="black" stroke-width="2" fill="none" />
<polyline points="301.0,194.0,309.0,186.5,317.0,179.0,325.0,171.5,333.0,163.5,340.5,155.5" stroke="black" stroke-width="2" fill="none" />
<polyline points="339.5,150.5,347.5,150.0,355.5,149.0" stroke="black" stroke-width="2" fill="none" />
<polyline points="324.5,162.0,316.5,169.5,309.0,177.0,301.0,185.0,292.0,193.0" stroke="black" stroke-width="2" fill="none" />
<polyline points="292.5,197.0,300.0,196.5,307.0,196.0,314.5,195.5,322.5,194.5,331.0,194.0,339.0,193.0,347.0,192.5,355.5,192.5,363.5,192.5,372.0,192.0,379.5,191.5,387.0,191.5,395.0,191.5,403.0,191.0,411.0,191.0,419.5,191.0,427.0,190.5,435.0,189.5,443.0,188.5,450.5,187.5,458.5,187.0,466.5,186.5,475.5,186.0,484.0,185.5,493.0,184.5,500.5,184.0,508.5,182.5,517.0,182.0" stroke="black" stroke-width="2" fill="none" />
<polyline points="403.0,92.5,395.5,92.5,388.0,93.0" stroke="black" stroke-width="2" fill="none" />
<polyline points="355.5,61.0,347.5,61.0" stroke="black" stroke-width="2" fill="none" />
<polyline points="326.0,66.5,318.0,74.0" stroke="black" stroke-width="2" fill="none" />
<polyline points="315.5,78.0,323.5,77.5,331.5,77.0,339.0,76.5,347.0,75.5,354.5,75.0" stroke="black" stroke-width="2" fill="none" />
<polyline points="322.5,60.5,314.5,68.0" stroke="black" stroke-width="2" fill="none" />
<polyline points="309.5,58.5,317.5,51.0,325.0,43.0,333.5,35.0" stroke="black" stroke-width="2" fill="none" />
<polyline points="322.0,36.0,314.0,43.5,305.5,50.0,298.0,57.0" stroke="black" stroke-width="2" fill="none" />
<polyline points="298.0,50.5,306.0,44.0,313.5,36.5" stroke="black" stroke-width="2" fill="none" />
<polyline points="320.5,52.5,313.0,59.5,305.5,66.5" stroke="black" stroke-width="2" fill="none" />
<polyline points="299.5,67.5,306.5,67.0,314.5,66.5,322.5,66.5,331.0,66.5,338.5,66.0,346.5,66.0,354.0,66.0,362.0,65.5" stroke="black" stroke-width="2" fill="none" />
<polyline points="364.0,12.5,356.0,13.0,348.0,14.0,340.0,14.5" stroke="black" stroke-width="2" fill="none" />
<polyline points="347.0,5.0,355.0,4.5,362.5,4.0,370.5,3.0,378.0,2.0,385.5,1.0" stroke="black" stroke-width="2" fill="none" />
<polyline points="346.0,19.5,337.5,20.0,329.0,21.0" stroke="black" stroke-width="2" fill="none" />
<polyline points="323.0,18.0,315.0,18.5,307.0,19.0" stroke="black" stroke-width="2" fill="none" />
<polyline points="283.5,37.5,291.5,37.0,300.0,37.0,308.0,36.5,316.0,36.0,324.0,35.5,331.5,35.0,339.0,34.5,347.0,34.5" stroke="black" stroke-width="2" fill="none" />
<polyline points="341.0,59.5,332.5,60.0,324.5,60.5,316.0,61.0,307.5,61.5,299.0,62.5,291.0,63.0" stroke="black" stroke-width="2" fill="none" />
<polyline points="291.5,54.5,299.5,54.0,308.0,53.0,316.0,52.5,324.0,51.5,332.0,50.5,340.0,50.0" stroke="black" stroke-width="2" fill="none" />
<polyline points="309.0,85.0,301.5,85.0,293.5,85.5" stroke="black" stroke-width="2" fill="none" />
<polyline points="292.5,92.5,300.5,92.5" stroke="black" stroke-width="2" fill="none" />
<polyline points="307.0,115.5,315.0,114.5" stroke="black" stroke-width="2" fill="none" />
<polyline points="306.5,157.0,314.5,156.5,323.0,156.5,331.0,156.0,338.5,156.0,346.5,156.0,354.0,155.5,362.0,155.5,369.5,155.0,377.5,154.5,385.5,154.0" stroke="black" stroke-width="2" fill="none" />
<polyline points="314.0,161.5,306.5,169.5,299.0,177.5,291.0,185.5" stroke="black" stroke-width="2" fill="none" />
<polyline points="284.0,188.0,292.0,180.0,300.0,172.0" stroke="black" stroke-width="2" fill="none" />
<polyline points="306.5,177.5,314.5,177.5,322.5,176.5" stroke="black" stroke-width="2" fill="none" />
<polyline points="322.5,170.5,314.5,170.5" stroke="black" stroke-width="2" fill="none" />
<polyline points="293.0,166.0,301.0,165.5,309.0,165.5,316.5,165.0,323.5,164.5,331.0,164.0,339.0,164.0,347.0,163.5,355.0,163.0,363.0,162.5,371.0,161.5,379.0,161.5,387.0,160.5,394.5,159.5,402.5,158.5,410.5,157.5" stroke="black" stroke-width="2" fill="none" />
<polyline points="516.0,215.5,508.5,216.0,500.5,216.5,492.0,217.5,484.5,218.5,476.0,219.5,467.5,220.0,459.0,220.5,451.0,220.5,443.5,221.0,436.0,221.5,428.0,222.5,420.0,222.5,412.0,223.0,403.5,223.0,395.5,223.5,387.5,224.0,379.5,224.5,371.5,225.0,364.0,225.0,356.0,225.5,347.5,226.0,340.0,226.0,331.5,226.5,323.5,227.5,315.0,228.0,306.5,228.5,298.0,229.0" stroke="black" stroke-width="2" fill="none" />
<polyline points="301.0,214.0,308.5,213.5,316.5,213.0,324.0,213.0,331.5,213.0,339.5,212.5,348.0,212.0,355.5,211.5,363.0,210.5,370.5,209.0,378.5,208.0,386.0,208.0,394.0,208.0,402.0,207.0,410.0,206.5,417.5,205.5,425.5,205.5,434.0,205.0,442.0,205.0,450.0,204.5,458.0,204.0,466.5,203.5,474.5,203.0,482.5,202.5,490.0,202.0,498.0,201.5,506.5,201.0,515.0,200.5" stroke="black" stroke-width="2" fill="none" />
<polyline points="354.0,295.5,347.0,296.5,339.5,296.5,332.5,297.5,324.5,297.5,316.5,298.0,308.5,298.0,301.0,298.0,293.0,298.5" stroke="black" stroke-width="2" fill="none" />
<polyline points="293.0,292.5,300.5,292.5,308.0,291.5,315.5,290.5,323.0,289.5,330.5,289.5,338.5,289.0,346.5,289.0" stroke="black" stroke-width="2" fill="none" />
<polyline points="300.5,285.0,292.5,285.5" stroke="black" stroke-width="2" fill="none" />
<polyline points="283.0,310.5,291.0,310.0,299.0,309.0,307.0,308.5,314.5,307.5,321.5,307.0,330.0,306.5,338.5,306.0" stroke="black" stroke-width="2" fill="none" />
<polyline points="283.5,331.5,275.5,339.0" stroke="black" stroke-width="2" fill="none" />
<polyline points="269.0,332.0,261.0,339.5,253.0,346.5,245.0,353.5" stroke="black" stroke-width="2" fill="none" />
<polyline points="235.5,354.5,243.0,347.0,251.0,339.0,258.5,331.5,267.0,324.5" stroke="black" stroke-width="2" fill="none" />
<polyline points="259.0,323.5,251.0,331.0,243.0,338.0,235.0,345.0,227.0,352.5" stroke="black" stroke-width="2" fill="none" />
<polyline points="219.0,354.5,227.0,347.0,235.0,339.5,243.0,332.0,250.5,324.5" stroke="black" stroke-width="2" fill="none" />
<polyline points="242.5,323.5,234.0,331.0,226.0,339.0,218.0,346.5,210.0,354.0" stroke="black" stroke-width="2" fill="none" />
<polyline points="204.0,351.5,211.5,344.5,219.5,337.0,227.0,330.0,234.5,322.5,242.5,315.0" stroke="black" stroke-width="2" fill="none" />
<polyline points="228.5,299.5,236.5,299.5,244.5,299.5,252.5,299.0,260.0,298.5" stroke="black" stroke-width="2" fill="none" />
<polyline points="268.0,291.5,260.5,292.0,252.5,292.5,244.5,293.5,237.0,294.5,228.5,295.5" stroke="black" stroke-width="2" fill="none" />
<polyline points="228.0,286.5,236.0,286.0,244.0,285.5,252.0,284.0,259.5,283.0,267.5,281.5,276.0,281.0,284.0,280.5" stroke="black" stroke-width="2" fill="none" />
<polyline points="260.5,257.5,268.5,249.5,276.5,242.0" stroke="black" stroke-width="2" fill="none" />
<polyline points="249.5,222.0,257.5,221.0,265.5,220.5,274.0,220.0,282.0,219.5,290.5,219.0,298.5,218.5,305.5,218.0,313.0,217.0,321.0,216.5,329.0,216.0,337.5,215.0,346.0,214.5,354.5,214.5,363.0,214.5,372.0,213.5,380.0,213.0,388.0,212.5,396.5,212.0,404.5,211.5,412.5,211.0,420.5,210.5,428.0,210.0,435.5,209.0,443.5,208.0,451.0,207.0,458.5,207.0,466.0,207.5,474.0,207.0,482.5,207.0,491.0,206.5,498.5,206.5,506.5,205.5,515.0,204.5" stroke="black" stroke-width="2" fill="none" />
<polyline points="513.5,174.0,506.0,174.5,498.0,175.0,490.0,175.5,481.5,176.0,474.0,176.5,466.0,177.0,457.5,177.5,449.0,177.5,441.0,178.0,433.0,178.5,425.0,179.5,417.0,180.0,409.0,180.0,401.5,180.0,394.0,181.0,386.5,182.0,378.5,183.0,371.0,183.5,363.0,184.0,355.0,184.5,347.0,184.5,339.5,185.0,331.5,185.5,324.0,186.5,315.5,187.5,307.5,188.5,299.5,189.0,292.0,189.5,284.5,190.0" stroke="black" stroke-width="2" fill="none" />
<polyline points="276.0,179.0,268.0,186.5" stroke="black" stroke-width="2" fill="none" />
<polyline points="267.0,181.5,258.5,189.0" stroke="black" stroke-width="2" fill="none" />
<polyline points="252.5,186.5,260.5,178.5" stroke="black" stroke-width="2" fill="none" />
<polyline points="266.0,185.0,258.5,185.5,250.5,185.5" stroke="black" stroke-width="2" fill="none" />
<polyline points="250.0,207.0,258.0,206.5,266.0,205.5,274.0,205.0" stroke="black" stroke-width="2" fill="none" />
<polyline points="281.0,213.5,273.5,213.5,265.5,213.5,257.5,214.0,249.5,215.0" stroke="black" stroke-width="2" fill="none" />
<polyline points="243.5,230.0,251.0,229.5,259.0,228.5,267.0,228.5,274.5,228.0,282.5,227.5" stroke="black" stroke-width="2" fill="none" />
<polyline points="243.0,237.5,251.0,237.5,259.0,237.0,267.0,236.0,275.5,235.5,283.5,234.5,291.5,234.0,299.5,233.5,307.5,232.0,315.0,231.5,323.0,230.5,331.0,229.5,338.5,229.5,346.0,229.0,354.0,229.0" stroke="black" stroke-width="2" fill="none" />
<polyline points="332.5,240.0,324.5,240.5,317.0,241.0,308.5,241.5,300.5,242.0,292.5,242.0,285.0,242.0,278.0,242.0,269.5,242.0,261.0,243.0,252.5,244.0,244.0,244.5,236.0,245.0" stroke="black" stroke-width="2" fill="none" />
<polyline points="225.0,253.5,233.5,252.5,242.5,252.5,251.0,251.5,259.5,251.0,267.5,250.0,276.0,249.0,284.5,248.5,292.5,248.0,300.5,248.0,309.0,247.5" stroke="black" stroke-width="2" fill="none" />
<polyline points="309.0,269.5,300.5,270.0,292.5,271.5,284.0,273.0,276.0,274.5,267.5,275.5,259.5,277.0,251.0,278.0,242.5,278.5,234.5,278.5,226.0,278.5" stroke="black" stroke-width="2" fill="none" />
<polyline points="218.5,287.0,211.0,288.0" stroke="black" stroke-width="2" fill="none" />
<polyline points="204.0,277.0,211.5,277.0,219.0,276.5" stroke="black" stroke-width="2" fill="none" />
<polyline points="203.5,269.0,211.5,269.0,219.0,268.5,226.5,267.5,234.5,266.5,242.0,266.0,249.5,266.0,257.5,265.0,265.5,264.5,273.0,263.5,281.0,263.0,289.0,263.0,297.5,262.5,305.5,262.5" stroke="black" stroke-width="2" fill="none" />
<polyline points="243.5,334.5,235.5,335.0,227.5,335.5,219.5,336.0" stroke="black" stroke-width="2" fill="none" />
<polyline points="217.5,330.0,210.0,338.0,202.0,345.5,194.5,353.5" stroke="black" stroke-width="2" fill="none" />
<polyline points="185.0,354.0,193.0,346.5,200.5,339.0" stroke="black" stroke-width="2" fill="none" />
<polyline points="195.5,339.5,187.5,347.0,179.5,354.5" stroke="black" stroke-width="2" fill="none" />
<polyline points="172.5,354.5,181.0,347.5,189.0,340.5" stroke="black" stroke-width="2" fill="none" />
<polyline points="188.5,334.0,197.0,333.5,205.0,332.5,213.0,332.0,220.5,331.5,228.5,331.0,236.5,330.0,244.5,330.0,252.5,330.0,260.0,329.5,268.0,329.0,276.0,328.0,284.0,327.5,292.0,327.5,300.0,327.0,308.0,326.5,316.0,326.0,324.0,325.0,331.5,324.0,339.0,323.5,346.0,323.0" stroke="black" stroke-width="2" fill="none" />
<polyline points="259.5,349.5,251.5,356.5" stroke="black" stroke-width="2" fill="none" />
<polyline points="251.5,343.0,243.5,343.5,235.5,344.0,227.0,345.0,219.0,345.5,211.5,346.5,203.5,347.5" stroke="black" stroke-width="2" fill="none" />
<polyline points="202.5,325.5,211.0,325.0,219.0,324.0,227.5,323.5,235.0,323.0,243.0,322.5,250.5,322.5,258.5,322.5,266.5,322.5,274.5,322.0,282.5,321.0,290.5,320.5,298.5,320.0,306.5,319.0,315.0,317.5,323.5,317.0,331.5,316.5,339.5,316.5,348.0,316.5" stroke="black" stroke-width="2" fill="none" />
<polyline points="260.0,307.0,252.0,306.5,243.5,306.5,235.0,307.0,227.0,307.5,218.5,308.0" stroke="black" stroke-width="2" fill="none" />
<polyline points="213.0,319.0,221.0,318.5,229.0,318.5,236.5,318.5,244.5,318.5,252.5,318.0,260.5,317.0,268.0,316.0,275.5,315.0,283.0,314.5,291.0,314.0,299.0,313.5,307.5,312.5,316.0,312.0,324.5,311.5,332.5,311.0,341.0,310.5" stroke="black" stroke-width="2" fill="none" />
<polyline points="218.0,253.0,209.5,254.0" stroke="black" stroke-width="2" fill="none" />
<polyline points="212.0,245.5,219.5,245.0" stroke="black" stroke-width="2" fill="none" />
<polyline points="219.5,236.5,212.0,236.5" stroke="black" stroke-width="2" fill="none" />
<polyline points="211.5,221.0,219.5,220.5" stroke="black" stroke-width="2" fill="none" />
<polyline points="217.0,213.0,209.0,213.5" stroke="black" stroke-width="2" fill="none" />
<polyline points="201.0,204.0,209.0,196.5" stroke="black" stroke-width="2" fill="none" />
<polyline points="211.0,183.5,203.0,183.5" stroke="black" stroke-width="2" fill="none" />
<polyline points="196.0,173.0,188.0,180.5,180.5,188.0,173.0,195.0,165.5,202.5" stroke="black" stroke-width="2" fill="none" />
<polyline points="162.0,215.0,170.0,208.0,177.5,201.0,185.0,194.0,193.0,187.0,201.0,179.5,209.5,171.5" stroke="black" stroke-width="2" fill="none" />
<polyline points="201.5,169.5,194.0,177.0,186.0,185.0,178.5,193.0,171.0,201.0,163.0,208.5,155.0,216.5" stroke="black" stroke-width="2" fill="none" />
<polyline points="158.0,213.5,150.0,221.0" stroke="black" stroke-width="2" fill="none" />
<polyline points="154.5,232.5,162.5,225.0,170.5,217.0,178.0,209.5,186.5,202.0,195.0,193.5,203.5,186.0,212.0,178.0,219.5,170.5" stroke="black" stroke-width="2" fill="none" />
<polyline points="220.0,165.5,228.0,165.0" stroke="black" stroke-width="2" fill="none" />
<polyline points="257.0,148.0,265.0,148.0" stroke="black" stroke-width="2" fill="none" />
<polyline points="267.0,133.0,275.0,132.5" stroke="black" stroke-width="2" fill="none" />
<polyline points="274.5,125.5,266.5,126.0" stroke="black" stroke-width="2" fill="none" />
<polyline points="275.0,115.0,266.5,116.0,258.0,117.5,250.0,118.0" stroke="black" stroke-width="2" fill="none" />
<polyline points="252.0,109.0,260.0,108.5,267.5,107.0" stroke="black" stroke-width="2" fill="none" />
<polyline points="233.5,67.0,225.5,67.5" stroke="black" stroke-width="2" fill="none" />
<polyline points="228.5,53.0,220.5,53.0" stroke="black" stroke-width="2" fill="none" />
<polyline points="226.0,41.0,234.0,33.5,242.5,25.5,250.0,18.0" stroke="black" stroke-width="2" fill="none" />
<polyline points="244.5,18.5,237.0,26.0,229.5,33.5,221.5,41.5" stroke="black" stroke-width="2" fill="none" />
<polyline points="219.5,33.0,227.0,25.5,235.0,18.0,243.0,10.5" stroke="black" stroke-width="2" fill="none" />
<polyline points="236.0,16.5,228.0,17.5" stroke="black" stroke-width="2" fill="none" />
<polyline points="242.0,36.0,249.5,28.0" stroke="black" stroke-width="2" fill="none" />
<polyline points="266.0,29.0,274.5,28.5,282.5,28.0,290.5,27.5,298.5,27.5,307.0,27.0,315.0,27.0,322.5,26.0,330.0,25.0,338.0,24.0,345.5,24.0" stroke="black" stroke-width="2" fill="none" />
<polyline points="347.0,42.5,339.0,42.0,331.0,42.5,322.5,43.0,314.0,43.5,306.0,44.0,298.0,44.5,290.0,45.5" stroke="black" stroke-width="2" fill="none" />
<polyline points="284.0,23.0,276.0,23.5" stroke="black" stroke-width="2" fill="none" />
<polyline points="235.0,44.0,227.5,44.0,219.5,44.0,211.5,43.5,203.5,44.0" stroke="black" stroke-width="2" fill="none" />
<polyline points="203.0,37.0,211.0,37.0,219.5,36.5,228.0,36.0,236.0,35.0,243.5,34.0" stroke="black" stroke-width="2" fill="none" />
<polyline points="236.5,24.0,228.0,25.5,219.5,27.0,211.5,27.5,203.5,28.5" stroke="black" stroke-width="2" fill="none" />
<polyline points="204.5,19.0,212.5,18.0" stroke="black" stroke-width="2" fill="none" />
<polyline points="219.0,9.0,211.5,10.0,203.5,11.0" stroke="black" stroke-width="2" fill="none" />
<polyline points="196.0,8.0,204.0,0.5" stroke="black" stroke-width="2" fill="none" />
<polyline points="180.5,13.5,172.5,21.0,164.5,28.0,156.0,35.0,147.5,41.5,139.0,48.5,130.5,56.0,122.0,63.5" stroke="black" stroke-width="2" fill="none" />
<polyline points="116.5,59.5,124.5,59.5,132.0,59.0,139.5,59.0,147.5,59.5,155.5,59.5,163.5,58.5,170.5,58.0,178.5,57.0,186.5,56.0,194.5,55.5" stroke="black" stroke-width="2" fill="none" />
<polyline points="140.0,84.0,132.0,83.5,124.0,83.5" stroke="black" stroke-width="2" fill="none" />
<polyline points="126.0,78.5,134.0,77.5,142.0,77.0,149.5,76.0,157.0,75.0" stroke="black" stroke-width="2" fill="none" />
<polyline points="178.5,33.0,170.5,33.5,162.5,33.5,155.0,34.5,147.5,35.0,139.5,35.5,131.5,35.5,124.5,35.5,116.5,36.0" stroke="black" stroke-width="2" fill="none" />
<polyline points="114.5,28.5,122.5,28.0,131.0,27.0,139.0,26.5,147.0,26.5,155.0,26.5,162.5,26.0,170.0,25.0,178.0,24.0,186.0,23.5,194.0,23.0,202.0,23.0,210.5,23.0,219.0,22.5,227.0,22.0,235.0,21.5,242.5,21.0,250.0,21.0" stroke="black" stroke-width="2" fill="none" />
<polyline points="133.0,4.0,125.0,11.5" stroke="black" stroke-width="2" fill="none" />
<polyline points="124.0,3.5,116.0,11.0" stroke="black" stroke-width="2" fill="none" />
<polyline points="115.5,5.0,107.5,12.5" stroke="black" stroke-width="2" fill="none" />
<polyline points="106.5,20.0,114.0,19.5,122.5,19.0,130.5,19.0,139.0,18.5,147.5,18.0,156.0,18.0,164.5,17.5,173.0,17.0,181.0,16.5,189.5,16.0,197.0,15.5,204.5,15.0,212.0,14.0,220.0,13.0,227.5,12.5,235.5,11.5,243.5,10.5,251.5,10.5,259.0,10.0" stroke="black" stroke-width="2" fill="none" />
<polyline points="180.5,139.5,171.5,140.0,163.0,139.5,154.5,139.5,146.5,139.5,138.5,140.5" stroke="black" stroke-width="2" fill="none" />
<polyline points="139.5,152.0,147.0,151.5" stroke="black" stroke-width="2" fill="none" />
<polyline points="148.5,146.5,141.0,154.0" stroke="black" stroke-width="2" fill="none" />
<polyline points="138.5,162.0,146.5,161.0" stroke="black" stroke-width="2" fill="none" />
<polyline points="141.0,163.5,149.0,155.0,156.5,147.5" stroke="black" stroke-width="2" fill="none" />
<polyline points="164.5,148.5,156.5,156.0,148.5,164.0,141.0,172.0,133.0,179.5,125.5,187.0" stroke="black" stroke-width="2" fill="none" />
<polyline points="122.0,180.0,114.5,187.0,106.0,194.5" stroke="black" stroke-width="2" fill="none" />
<polyline points="108.0,203.5,116.0,196.0" stroke="black" stroke-width="2" fill="none" />
<polyline points="115.5,202.5,123.0,195.0" stroke="black" stroke-width="2" fill="none" />
<polyline points="117.0,186.0,125.0,185.5,133.0,184.5,141.0,183.5,149.0,182.5" stroke="black" stroke-width="2" fill="none" />
<polyline points="156.5,187.5,164.0,186.5,172.0,185.5,179.5,184.5" stroke="black" stroke-width="2" fill="none" />
<polyline points="189.5,173.0,181.0,179.5,173.0,186.5,164.5,193.5,156.0,201.0,148.0,209.0,139.5,216.5" stroke="black" stroke-width="2" fill="none" />
<polyline points="148.5,235.5,140.5,243.0" stroke="black" stroke-width="2" fill="none" />
<polyline points="148.0,243.5,140.0,251.5" stroke="black" stroke-width="2" fill="none" />
<polyline points="133.5,247.5,141.0,246.5,148.5,245.5" stroke="black" stroke-width="2" fill="none" />
<polyline points="156.5,239.0,164.5,238.5,172.5,237.5,180.5,236.5,188.5,236.0,196.5,234.5,204.0,234.0" stroke="black" stroke-width="2" fill="none" />
<polyline points="203.0,250.5,195.5,251.5,188.0,252.0,180.0,252.0" stroke="black" stroke-width="2" fill="none" />
<polyline points="181.5,245.0,189.0,244.5,196.5,244.0" stroke="black" stroke-width="2" fill="none" />
<polyline points="189.5,261.5,198.0,261.0,205.5,260.0,213.0,259.0,220.5,257.5,228.5,257.0,236.5,256.5,244.5,256.5,252.5,256.5,260.0,256.5,268.0,256.0,276.0,255.5,284.5,255.0,293.0,254.0,301.5,253.0" stroke="black" stroke-width="2" fill="none" />
<polyline points="181.0,219.0,173.0,226.0,164.5,232.5" stroke="black" stroke-width="2" fill="none" />
<polyline points="172.0,236.5,163.5,244.0" stroke="black" stroke-width="2" fill="none" />
<polyline points="163.5,245.0,171.0,244.5" stroke="black" stroke-width="2" fill="none" />
<polyline points="146.5,235.0,138.5,235.5,130.0,236.0,121.5,236.5" stroke="black" stroke-width="2" fill="none" />
<polyline points="106.5,212.0,114.5,212.0,122.5,211.5,130.5,211.0,139.0,210.5,147.5,209.5,156.0,209.0,164.0,209.0,172.0,208.5,180.5,208.0,188.0,207.0,196.0,207.0,203.5,206.5" stroke="black" stroke-width="2" fill="none" />
<polyline points="171.5,157.5,163.5,165.0,155.5,172.0,147.0,179.0,139.0,186.0,130.5,193.0,123.0,200.0,115.0,207.5" stroke="black" stroke-width="2" fill="none" />
<polyline points="99.0,195.5,107.0,188.0,114.5,181.0" stroke="black" stroke-width="2" fill="none" />
<polyline points="107.5,181.0,99.5,188.5,92.0,196.0" stroke="black" stroke-width="2" fill="none" />
<polyline points="84.5,202.5,76.0,210.0" stroke="black" stroke-width="2" fill="none" />
<polyline points="68.0,211.0,76.5,204.0,85.0,196.5,93.5,188.5,101.5,180.5" stroke="black" stroke-width="2" fill="none" />
<polyline points="92.5,180.0,84.0,187.5,75.5,195.0,67.5,203.0,59.5,210.5" stroke="black" stroke-width="2" fill="none" />
<polyline points="51.0,211.0,59.5,203.0,67.5,195.0,75.0,187.0,82.5,179.5" stroke="black" stroke-width="2" fill="none" />
<polyline points="82.5,171.0,74.5,179.0,66.0,186.5,58.0,194.5" stroke="black" stroke-width="2" fill="none" />
<polyline points="59.5,193.0,67.0,192.5,75.0,192.5" stroke="black" stroke-width="2" fill="none" />
<polyline points="75.0,200.5,67.0,201.5,59.0,201.5" stroke="black" stroke-width="2" fill="none" />
<polyline points="51.5,194.5,59.5,187.5,67.5,180.5,76.0,173.0" stroke="black" stroke-width="2" fill="none" />
<polyline points="75.5,163.5,67.5,171.5,59.5,179.0,51.5,186.5,44.0,193.5" stroke="black" stroke-width="2" fill="none" />
<polyline points="37.5,192.0,44.5,184.5,51.5,177.0,59.0,169.5,67.0,162.0,75.0,154.5" stroke="black" stroke-width="2" fill="none" />
<polyline points="74.5,146.5,66.0,154.0,58.5,161.5" stroke="black" stroke-width="2" fill="none" />
<polyline points="60.5,163.0,69.0,162.5" stroke="black" stroke-width="2" fill="none" />
<polyline points="75.5,168.0,68.0,168.5,60.0,169.5" stroke="black" stroke-width="2" fill="none" />
<polyline points="58.5,177.0,66.5,177.0,74.5,176.5" stroke="black" stroke-width="2" fill="none" />
<polyline points="91.0,183.5,83.0,184.5,74.5,184.5,66.5,185.0,58.5,185.5" stroke="black" stroke-width="2" fill="none" />
<polyline points="41.5,180.0,34.0,187.0,26.5,194.5" stroke="black" stroke-width="2" fill="none" />
<polyline points="19.5,194.5,27.5,186.5,35.5,178.5" stroke="black" stroke-width="2" fill="none" />
<polyline points="28.5,179.5,20.5,187.0" stroke="black" stroke-width="2" fill="none" />
<polyline points="22.0,181.0,13.5,188.5" stroke="black" stroke-width="2" fill="none" />
<polyline points="5.0,187.5,13.0,180.0,20.5,172.5" stroke="black" stroke-width="2" fill="none" />
<polyline points="13.0,169.5,5.5,177.5" stroke="black" stroke-width="2" fill="none" />
<polyline points="4.0,176.5,12.5,176.0" stroke="black" stroke-width="2" fill="none" />
<polyline points="5.5,172.5,13.0,172.0,21.0,171.5,29.0,170.5,36.5,169.0,44.0,168.5,52.0,168.0,59.5,168.5,67.0,168.5,75.0,168.5,83.0,168.0,91.0,167.0,99.5,166.5,108.0,165.5" stroke="black" stroke-width="2" fill="none" />
<polyline points="116.0,173.0,124.0,172.5,132.0,172.0,140.5,171.5,149.0,171.5,157.0,171.0,165.0,170.0,172.5,169.5,180.0,168.5,187.0,167.5,195.0,167.0,203.5,166.5,212.0,166.0,220.5,165.5,229.0,165.0,237.0,165.0,245.0,164.5,252.5,164.0,260.5,163.5,268.5,162.5,276.5,161.5,284.5,161.5,292.5,161.5,300.5,161.0,308.0,160.5,316.0,159.5,324.0,159.5,332.0,159.5,340.0,159.0,348.0,158.5,356.0,158.5,363.5,158.0,371.5,158.0,379.5,158.0,387.5,158.0,395.5,157.5,403.5,157.0,411.5,156.0,419.5,155.5,427.5,155.5,435.5,155.0,443.5,154.0,451.0,153.5,458.5,153.0,466.0,152.5,474.0,152.0,482.0,151.5,490.0,151.0,498.0,150.5,506.0,149.5,514.0,149.0" stroke="black" stroke-width="2" fill="none" />
<polyline points="171.5,149.0,164.0,157.0,156.5,164.0,149.0,171.0,141.0,177.0,132.5,183.5" stroke="black" stroke-width="2" fill="none" />
<polyline points="140.5,176.5,148.5,176.5" stroke="black" stroke-width="2" fill="none" />
<polyline points="148.5,169.0,140.0,169.5" stroke="black" stroke-width="2" fill="none" />
<polyline points="130.5,164.0,139.0,163.5,147.0,163.0,155.5,162.0,164.0,162.0,172.5,161.5,180.5,160.5,188.0,160.0,196.0,159.5,204.0,158.5,211.5,158.0" stroke="black" stroke-width="2" fill="none" />
<polyline points="204.0,152.0,195.0,152.0,186.5,152.5,178.0,152.5,170.0,153.0,162.0,153.5,153.5,154.0,145.5,155.0,137.0,155.5,129.0,155.5" stroke="black" stroke-width="2" fill="none" />
<polyline points="130.0,149.5,138.0,149.5,146.5,149.0,154.5,148.5,162.5,147.5,170.5,147.0,179.0,146.0,187.0,145.0,195.0,144.5" stroke="black" stroke-width="2" fill="none" />
<polyline points="170.0,42.0,162.5,42.5,154.5,43.0,146.5,43.0,138.0,43.0,131.0,43.0,124.0,43.0,117.0,43.0,109.5,42.5,101.0,43.0" stroke="black" stroke-width="2" fill="none" />
<polyline points="69.0,27.5,61.0,34.5" stroke="black" stroke-width="2" fill="none" />
<polyline points="57.5,27.0,49.5,34.5" stroke="black" stroke-width="2" fill="none" />
<polyline points="44.0,37.5,36.0,44.5" stroke="black" stroke-width="2" fill="none" />
<polyline points="36.0,52.0,43.5,44.0" stroke="black" stroke-width="2" fill="none" />
<polyline points="37.5,37.0,45.5,29.0" stroke="black" stroke-width="2" fill="none" />
<polyline points="35.0,26.5,27.5,33.5" stroke="black" stroke-width="2" fill="none" />
<polyline points="18.0,34.5,26.0,27.5,33.5,20.5" stroke="black" stroke-width="2" fill="none" />
<polyline points="28.0,19.0,20.0,26.5" stroke="black" stroke-width="2" fill="none" />
<polyline points="13.0,17.0,21.0,10.0" stroke="black" stroke-width="2" fill="none" />
<polyline points="3.5,12.0,11.5,12.0,20.0,12.0,28.0,11.5,36.5,11.5,44.5,11.5" stroke="black" stroke-width="2" fill="none" />
<polyline points="51.0,43.0,42.5,43.5,33.5,43.5,25.5,44.0" stroke="black" stroke-width="2" fill="none" />
<polyline points="18.5,39.5,27.0,39.0,35.0,38.0,43.0,37.5,50.0,36.5,58.0,35.5,66.5,34.5,75.0,33.5,83.0,33.0,91.0,32.5,98.5,32.5,107.0,31.5" stroke="black" stroke-width="2" fill="none" />
<polyline points="83.0,5.0,91.0,4.5,99.5,4.0,108.0,3.5,116.0,3.0,124.0,3.0,131.5,2.0,139.5,1.0,147.5,0.5,155.5,-0.5,163.5,-1.0,171.0,-1.5,179.0,-2.0,187.5,-2.5,195.5,-3.0,203.0,-3.5,211.0,-3.5,219.0,-3.0,227.0,-3.0,235.5,-2.5,243.5,-2.5,251.5,-3.5" stroke="black" stroke-width="2" fill="none" />
<polyline points="107.5,75.5,99.5,76.0,91.0,76.5,82.5,77.5" stroke="black" stroke-width="2" fill="none" />
<polyline points="67.0,94.0,75.0,93.5,83.5,93.0,92.5,93.0,100.5,93.5,108.5,93.0" stroke="black" stroke-width="2" fill="none" />
<polyline points="101.0,110.0,93.0,111.0" stroke="black" stroke-width="2" fill="none" />
<polyline points="92.0,118.0,99.5,117.5" stroke="black" stroke-width="2" fill="none" />
<polyline points="76.0,139.0,68.0,147.0,59.5,154.5" stroke="black" stroke-width="2" fill="none" />
<polyline points="58.0,154.5,66.5,154.0" stroke="black" stroke-width="2" fill="none" />
<polyline points="59.0,147.0,67.5,139.5" stroke="black" stroke-width="2" fill="none" />
<polyline points="60.5,138.0,68.0,130.5" stroke="black" stroke-width="2" fill="none" />
<polyline points="74.5,132.5,66.0,133.5,58.0,134.0" stroke="black" stroke-width="2" fill="none" />
<polyline points="58.5,126.5,66.5,126.0,74.5,125.0" stroke="black" stroke-width="2" fill="none" />
<polyline points="67.5,102.0,75.5,101.0,83.0,100.0,91.0,99.5,99.0,99.0" stroke="black" stroke-width="2" fill="none" />
<polyline points="66.5,77.0,58.5,77.5" stroke="black" stroke-width="2" fill="none" />
<polyline points="52.5,83.5,60.5,83.0,67.5,83.0,76.0,82.5,84.5,83.0,93.0,82.5,100.5,82.0,108.5,81.0" stroke="black" stroke-width="2" fill="none" />
<polyline points="59.0,92.0,51.0,93.0" stroke="black" stroke-width="2" fill="none" />
<polyline points="53.0,69.0,60.5,68.5,68.0,67.5,76.5,66.5,84.5,66.0,93.0,65.5,101.0,65.0" stroke="black" stroke-width="2" fill="none" />
<polyline points="100.5,57.0,92.5,57.5,85.0,58.5,76.5,59.5,68.5,61.0,60.5,62.0,52.5,63.0,44.0,63.5" stroke="black" stroke-width="2" fill="none" />
<polyline points="26.0,52.5,34.5,52.0,43.0,51.5,51.5,51.0,59.5,50.5,68.0,50.5" stroke="black" stroke-width="2" fill="none" />
<polyline points="20.5,92.5,13.0,93.5,5.0,94.5" stroke="black" stroke-width="2" fill="none" />
<polyline points="6.0,87.5,14.0,86.5" stroke="black" stroke-width="2" fill="none" />
<polyline points="13.5,126.0,21.0,125.5,28.5,124.5" stroke="black" stroke-width="2" fill="none" />
<polyline points="27.5,129.5,19.0,137.5,10.5,145.5,2.5,153.0" stroke="black" stroke-width="2" fill="none" />
<polyline points="3.5,151.5,12.0,150.5,20.0,150.0,28.0,149.5,36.0,149.0,44.0,148.5,52.0,148.0,61.0,147.0,69.0,147.0,76.5,147.0" stroke="black" stroke-width="2" fill="none" />
<polyline points="75.0,155.0,67.5,156.0,59.5,156.0,51.5,156.5" stroke="black" stroke-width="2" fill="none" />
<polyline points="42.0,150.0,34.5,157.0" stroke="black" stroke-width="2" fill="none" />
<polyline points="37.0,146.0,28.5,153.5,21.0,161.5" stroke="black" stroke-width="2" fill="none" />
<polyline points="20.0,153.5,27.5,146.0,35.0,138.5" stroke="black" stroke-width="2" fill="none" />
<polyline points="27.5,139.0,19.5,146.5,11.5,154.0,3.5,161.5" stroke="black" stroke-width="2" fill="none" />
<polyline points="4.0,159.0,12.0,158.0,20.0,157.5,28.0,157.0,36.5,156.0,44.5,155.0" stroke="black" stroke-width="2" fill="none" />
<polyline points="12.5,163.5,5.0,171.0" stroke="black" stroke-width="2" fill="none" />
<polyline points="4.5,169.5,12.0,169.0" stroke="black" stroke-width="2" fill="none" />
<polyline points="3.5,166.5,11.5,166.0,20.0,165.5,28.5,165.0,36.5,164.0,45.0,163.0,53.0,162.5,60.5,162.5,68.5,161.5,77.0,161.0,85.0,160.0" stroke="black" stroke-width="2" fill="none" />
<polyline points="90.5,221.5,98.5,221.5,107.0,221.0,115.5,220.5,124.0,220.5,132.5,220.0,140.5,219.0,148.5,218.5,156.5,217.5,164.0,216.0,172.0,215.0,179.5,215.0,187.5,215.0,195.5,214.5,203.5,214.5" stroke="black" stroke-width="2" fill="none" />
<polyline points="155.0,294.5,146.5,295.0" stroke="black" stroke-width="2" fill="none" />
<polyline points="122.0,301.5,130.0,300.5,138.5,300.0,147.0,299.5,155.0,299.5,163.5,299.5,171.5,298.5,179.5,298.0" stroke="black" stroke-width="2" fill="none" />
<polyline points="156.5,331.0,148.5,338.5,140.5,346.5,132.5,354.0" stroke="black" stroke-width="2" fill="none" />
<polyline points="141.0,353.0,149.0,345.0,157.5,337.5" stroke="black" stroke-width="2" fill="none" />
<polyline points="164.5,339.5,156.5,347.0,149.0,354.5" stroke="black" stroke-width="2" fill="none" />
<polyline points="146.0,355.0,154.0,355.0,163.0,355.0,171.0,354.5,179.0,354.0,187.0,353.5,195.0,353.0,203.5,352.5,212.0,352.0,221.0,351.0,229.0,350.0,237.0,349.5,245.0,349.5,252.5,349.5" stroke="black" stroke-width="2" fill="none" />
<polyline points="180.0,339.0,172.5,346.5,164.0,353.5" stroke="black" stroke-width="2" fill="none" />
<polyline points="155.5,355.5,163.5,348.5,171.5,341.5" stroke="black" stroke-width="2" fill="none" />
<polyline points="148.0,330.5,140.0,338.5,132.5,346.0" stroke="black" stroke-width="2" fill="none" />
<polyline points="132.0,341.0,139.5,333.5" stroke="black" stroke-width="2" fill="none" />
<polyline points="134.0,332.5,125.5,340.0" stroke="black" stroke-width="2" fill="none" />
<polyline points="106.5,342.5,114.5,342.0,123.0,341.0,131.5,340.0,140.0,339.0,148.0,338.5,156.5,338.0,164.0,336.5,172.0,336.0,179.5,336.0,187.5,335.5,195.5,335.0,203.5,334.5,211.5,334.0,219.5,333.5,227.0,333.0,235.0,333.0,242.5,332.5,250.0,331.0,258.0,330.0,265.5,329.5,273.5,329.0,282.0,328.5,290.5,328.0,298.0,327.0,306.5,326.5,315.0,326.5,323.5,326.5,332.0,326.5,340.0,326.5,348.5,326.5,356.5,326.0,364.5,325.0" stroke="black" stroke-width="2" fill="none" />
<polyline points="364.5,334.0,357.0,334.5,349.0,334.5,341.0,335.0,332.5,335.5,324.5,335.5,316.0,336.0,308.0,336.5,300.0,337.0,292.0,336.5,283.5,336.5,275.0,337.0,267.0,337.5,258.5,338.0,251.0,338.5,244.0,339.5,236.5,340.5,229.0,341.0,221.0,341.5,212.5,342.5,204.0,343.0,195.5,343.5,187.0,343.5,179.5,344.0,171.5,344.5,163.5,345.0,155.5,345.5,147.5,346.0,139.0,346.0,131.5,346.5,124.0,347.5,116.5,348.0,108.5,349.0,100.5,349.5" stroke="black" stroke-width="2" fill="none" />
<polyline points="101.0,324.5,109.0,324.0,117.0,324.0,125.0,324.0,133.0,324.0,141.0,323.5,149.0,323.5,157.5,323.5,165.5,323.0,173.0,322.5" stroke="black" stroke-width="2" fill="none" />
<polyline points="164.0,315.0,156.0,315.0,148.0,315.5,140.0,316.0,132.5,316.0,125.0,316.0,117.0,316.0,109.5,315.5,102.0,315.5" stroke="black" stroke-width="2" fill="none" />
<polyline points="73.0,339.0,65.5,347.0,57.5,354.5" stroke="black" stroke-width="2" fill="none" />
<polyline points="52.0,356.0,59.5,348.0,67.0,340.5" stroke="black" stroke-width="2" fill="none" />
<polyline points="60.0,338.0,51.5,345.5" stroke="black" stroke-width="2" fill="none" />
<polyline points="51.0,339.5,43.0,346.5,35.0,354.0" stroke="black" stroke-width="2" fill="none" />
<polyline points="27.0,353.5,34.5,346.0,43.0,339.0" stroke="black" stroke-width="2" fill="none" />
<polyline points="42.5,331.5,34.5,339.0,27.0,346.0,19.5,353.5" stroke="black" stroke-width="2" fill="none" />
<polyline points="12.5,355.0,20.0,347.5,27.0,340.0,35.0,332.0" stroke="black" stroke-width="2" fill="none" />
<polyline points="18.5,326.5,27.0,325.5,35.0,324.5,43.0,324.0,50.5,323.5" stroke="black" stroke-width="2" fill="none" />
<polyline points="44.0,309.5,52.0,309.5,60.5,308.5,69.0,307.5,76.5,307.0,84.5,306.0,92.5,305.0,100.5,304.5,109.0,304.0,117.5,303.5,126.0,302.5,133.5,302.5,141.0,303.0,149.0,303.0,156.5,303.0,164.0,303.0,172.0,302.5,180.0,302.0,188.0,302.0" stroke="black" stroke-width="2" fill="none" />
<polyline points="74.5,283.0,66.5,290.5" stroke="black" stroke-width="2" fill="none" />
<polyline points="60.0,293.0,68.0,293.0,76.5,292.5,85.0,292.5,92.5,291.5,100.0,290.5,108.0,290.5,116.0,290.0" stroke="black" stroke-width="2" fill="none" />
<polyline points="74.0,275.0,66.0,282.5,58.5,290.0" stroke="black" stroke-width="2" fill="none" />
<polyline points="59.0,282.5,66.5,275.0,74.5,268.0" stroke="black" stroke-width="2" fill="none" />
<polyline points="67.5,268.5,59.5,275.5,51.0,283.0" stroke="black" stroke-width="2" fill="none" />
<polyline points="62.0,281.5,70.0,281.0" stroke="black" stroke-width="2" fill="none" />
<polyline points="61.0,263.5,68.5,262.5,76.0,261.5,84.0,261.0,92.0,260.5,99.5,260.0,107.0,259.0" stroke="black" stroke-width="2" fill="none" />
<polyline points="91.0,229.0,99.0,228.5,107.0,228.0,115.0,227.0,123.0,226.5,131.5,226.0,139.5,226.0,147.5,226.5,155.0,226.5,162.5,226.5,170.5,226.0,179.0,225.5,187.0,224.5,195.5,224.0,204.0,223.0" stroke="black" stroke-width="2" fill="none" />
<polyline points="74.5,221.5,67.0,222.5" stroke="black" stroke-width="2" fill="none" />
<polyline points="74.5,230.0,67.5,230.5,59.5,230.5" stroke="black" stroke-width="2" fill="none" />
<polyline points="36.5,237.5,44.0,237.0,51.5,236.5,59.5,235.5,67.0,235.0,75.5,235.0,83.5,234.0,91.5,233.5,99.5,233.5,107.5,232.5,115.0,232.0" stroke="black" stroke-width="2" fill="none" />
<polyline points="107.0,297.0,99.0,298.5,91.0,299.0,83.0,300.0,75.5,300.5,68.0,301.0,60.0,301.0,52.0,301.5" stroke="black" stroke-width="2" fill="none" />
<polyline points="26.5,286.0,18.5,293.5,10.5,300.5" stroke="black" stroke-width="2" fill="none" />
<polyline points="4.5,299.5,13.0,292.0,21.5,284.0" stroke="black" stroke-width="2" fill="none" />
<polyline points="27.0,292.0,18.5,292.5,10.5,292.0,2.5,292.5" stroke="black" stroke-width="2" fill="none" />
<polyline points="1.5,290.5,10.0,283.0,18.5,275.5,26.0,267.5,34.5,260.0" stroke="black" stroke-width="2" fill="none" />
<polyline points="27.5,259.5,19.0,267.5,11.0,275.5,2.5,283.0" stroke="black" stroke-width="2" fill="none" />
<polyline points="3.5,285.5,11.5,285.5,19.0,285.5,27.0,285.5,35.5,285.0,43.5,285.0,51.5,284.5,59.0,284.0,67.0,283.0,75.5,282.5,83.5,281.5,91.5,281.5,98.5,281.0,106.5,280.0" stroke="black" stroke-width="2" fill="none" />
<polyline points="114.0,266.0,105.5,266.0,97.0,266.5,89.5,267.0,82.0,267.5,74.5,267.5,66.5,267.5,59.0,268.0,50.5,268.5" stroke="black" stroke-width="2" fill="none" />
<polyline points="22.0,259.5,13.5,267.5,5.0,275.5" stroke="black" stroke-width="2" fill="none" />
<polyline points="3.5,276.5,11.0,276.0,19.0,276.0,27.0,276.0,34.5,276.0,42.5,275.5,50.5,275.5,59.0,275.0,67.5,274.0,75.0,273.5,83.0,272.5,91.0,272.5,99.0,271.5,107.5,271.0" stroke="black" stroke-width="2" fill="none" />
<polyline points="67.0,315.0,58.5,315.0,50.5,315.5,42.0,316.0,34.0,316.5,26.0,317.0" stroke="black" stroke-width="2" fill="none" />
<polyline points="11.5,334.5,19.5,333.5,27.5,333.0,35.0,332.5,43.0,332.5,51.5,331.5,59.0,331.0,66.5,330.5,74.5,329.5,82.5,329.0,91.0,328.0,99.0,327.5,107.5,327.0,116.0,326.5,124.0,326.0,132.0,326.0,139.5,325.0,147.5,324.0,155.5,323.5,163.5,322.5,171.5,322.0,179.0,321.5" stroke="black" stroke-width="2" fill="none" />
<polyline points="12.5,346.0,5.0,353.5" stroke="black" stroke-width="2" fill="none" />
<polyline points="5.5,350.0,13.5,350.0,21.5,349.0,30.0,348.5,37.5,348.0,45.0,347.5,52.5,347.0,60.5,346.5,68.0,346.0,75.5,345.5,83.5,345.0" stroke="black" stroke-width="2" fill="none" />
<polyline points="99.5,336.0,91.0,336.5,83.0,337.0,75.0,337.5,67.5,337.5,59.5,338.0,51.5,338.5,43.5,339.5,36.0,340.5,28.0,341.0,20.5,342.0,12.5,342.5,4.5,343.0" stroke="black" stroke-width="2" fill="none" />
<polyline points="4.0,309.5,12.5,309.0" stroke="black" stroke-width="2" fill="none" />
<polyline points="10.5,298.5,2.0,298.5" stroke="black" stroke-width="2" fill="none" />
<polyline points="3.5,270.0,11.5,269.5,20.0,268.5,27.5,268.5,35.0,268.0,43.0,267.5" stroke="black" stroke-width="2" fill="none" />
<polyline points="43.5,258.5,35.5,259.0,27.5,260.0,19.5,260.5,11.0,261.0,3.0,262.0" stroke="black" stroke-width="2" fill="none" />
<polyline points="3.0,253.5,10.5,253.0,18.5,252.0,26.0,251.5,34.0,250.5,42.0,250.0,50.5,249.5,58.5,249.5,66.5,249.0,74.5,248.5,82.5,248.0,90.5,248.0,98.5,247.5,106.5,247.0,114.5,246.5" stroke="black" stroke-width="2" fill="none" />
<polyline points="124.0,238.0,115.5,238.0,107.5,238.5,99.5,239.0,92.0,239.5,84.0,240.5,76.0,241.0,67.5,242.0,59.5,242.5,51.0,243.0,42.5,243.5,34.0,244.0,26.0,245.0,17.5,245.5,10.0,246.0,2.0,246.5" stroke="black" stroke-width="2" fill="none" />
<polyline points="2.5,230.0,10.5,229.0,18.0,228.5,25.5,228.5,33.5,228.5,41.5,228.5,50.0,228.0" stroke="black" stroke-width="2" fill="none" />
<polyline points="59.0,219.5,51.0,220.0,42.5,221.0,34.5,221.0,26.0,220.5,18.0,221.0,9.5,221.5,1.5,222.0" stroke="black" stroke-width="2" fill="none" />
<polyline points="1.5,215.0,10.0,214.5,18.0,213.5,26.5,213.0,35.0,213.0,43.0,212.5,51.0,212.0,59.0,211.0,66.5,210.5,74.0,210.0,82.0,209.0,90.0,208.5,98.5,207.5" stroke="black" stroke-width="2" fill="none" />
<polyline points="4.5,198.0,12.0,198.0,20.0,198.0,27.5,197.5,35.5,197.0,44.0,196.0,51.5,195.5,59.0,194.5,66.5,193.5,74.5,193.0,82.5,192.5,90.5,192.0,99.5,191.5,107.5,191.0,115.5,191.5,124.0,191.0,131.5,190.0,140.0,188.5,148.0,187.5,156.5,186.5,164.5,186.0,172.5,185.5,179.5,185.5,187.5,185.5,195.5,185.0,203.0,184.5,210.5,183.5,218.5,183.5,226.5,183.0" stroke="black" stroke-width="2" fill="none" />
<polyline points="21.0,130.0,12.5,138.0,4.5,146.0" stroke="black" stroke-width="2" fill="none" />
<polyline points="4.5,141.5,12.0,141.5,19.5,141.0,27.5,141.0,35.5,140.5,43.0,140.5,51.5,139.5,59.5,139.0,67.5,138.5,76.0,137.5" stroke="black" stroke-width="2" fill="none" />
<polyline points="12.0,132.5,4.5,139.5" stroke="black" stroke-width="2" fill="none" />
<polyline points="3.5,134.0,11.0,133.5,18.5,133.0,26.5,133.0,35.0,133.0" stroke="black" stroke-width="2" fill="none" />
<polyline points="2.0,183.0,10.5,182.5,19.5,182.0,27.5,181.0,35.5,179.5,43.5,179.0,51.5,178.5,59.5,178.0,67.0,177.0,75.0,176.5,82.5,175.5,91.0,175.0,98.5,174.5,106.5,174.5,114.0,174.5,121.5,174.0,129.0,173.5,137.5,173.0,146.0,173.0,154.5,173.0,162.5,172.5,170.5,172.0,179.0,171.0,187.5,170.0,196.0,169.0,204.0,168.5,212.5,168.0,220.0,166.5,228.0,166.0,235.5,166.0,243.5,165.5,251.5,165.0,259.5,164.5,267.5,164.0,275.5,163.5,283.0,163.0,291.0,163.0,298.5,162.5,306.0,161.0,314.0,160.0,321.5,159.5,329.5,159.0,338.0,158.5,346.5,158.0,354.0,157.0,362.5,156.5,371.0,156.5,379.5,156.5,388.0,156.5,396.0,156.5,404.5,156.5,412.5,156.0,420.5,155.0,428.5,154.5,436.0,154.0,443.5,153.5,451.5,152.5,459.0,151.5,467.0,150.5,475.0,150.0,483.0,150.0,491.0,149.5,499.0,149.5,508.0,149.0,516.5,148.5" stroke="black" stroke-width="2" fill="none" />
<polyline points="219.5,191.0,211.5,191.5,204.0,192.0,196.0,192.5,188.5,193.0,180.5,193.5,173.0,194.0,165.5,195.0,157.0,195.0,149.0,195.0,141.0,196.0,132.0,197.0,123.5,197.5,115.0,198.5,106.5,199.5,98.5,200.0,90.5,201.0,82.5,201.5,74.5,202.0,66.5,202.0,58.5,202.5,50.5,203.0,43.0,204.0,34.5,204.5,27.0,205.5,19.5,206.0,12.0,207.0,4.0,207.5" stroke="black" stroke-width="2" fill="none" />
<polyline points="4.5,189.5,12.5,189.0,20.0,188.5,28.0,188.0,36.0,188.0,44.0,187.0,52.0,187.0,60.5,186.0,68.5,185.5,76.5,185.0,84.0,184.5,92.0,184.0,100.0,184.0,107.5,183.5,115.0,183.0,123.0,182.0,131.0,181.5,139.0,180.0,146.5,179.5,154.5,179.0,162.5,178.5,170.5,178.0,179.0,177.0,187.0,176.5,195.0,176.5,203.0,176.5,210.5,176.0,218.0,175.0,226.0,174.0,234.0,173.5" stroke="black" stroke-width="2" fill="none" />
<polyline points="74.5,18.5,66.5,18.5,58.0,19.0,50.0,19.0,42.0,19.0,33.5,19.5,26.0,19.5,18.5,20.0,11.0,21.0,4.0,21.0" stroke="black" stroke-width="2" fill="none" />
</svg>