<svg xmlns="http://www.w3.org/2000/svg" version="1.1"><polyline points="8.5,8.0,24.5,8.5,40.5,7.5" stroke="black" stroke-width="2" fill="none" />
<polyline points="36.5,23.0,20.5,38.0" stroke="black" stroke-width="2" fill="none" />
<polyline points="25.5,43.5,41.0,42.5,56.5,42.5" stroke="black" stroke-width="2" fill="none" />
<polyline points="71.5,61.5,56.5,63.0,40.5,63.5" stroke="black" stroke-width="2" fill="none" />
<polyline points="51.5,76.0,67.5,76.0,84.0,75.0,100.5,75.0" stroke="black" stroke-width="2" fill="none" />
<polyline points="123.0,60.5,139.0,60.5,155.5,59.5,172.0,59.0,187.0,58.5" stroke="black" stroke-width="2" fill="none" />
<polyline points="199.0,37.0,215.0,20.0,231.0,4.5" stroke="black" stroke-width="2" fill="none" />
<polyline points="246.5,3.5,230.5,19.5,215.0,36.5" stroke="black" stroke-width="2" fill="none" />
<polyline points="217.0,31.5,233.0,31.0,247.5,31.0" stroke="black" stroke-width="2" fill="none" />
<polyline points="247.5,22.5,231.0,39.0" stroke="black" stroke-width="2" fill="none" />
<polyline points="247.0,40.0,230.0,41.0,214.5,42.0" stroke="black" stroke-width="2" fill="none" />
<polyline points="218.5,18.5,233.5,17.5" stroke="black" stroke-width="2" fill="none" />
<polyline points="215.5,13.0,199.0,28.0,183.0,43.0" stroke="black" stroke-width="2" fill="none" />
<polyline points="166.0,36.0,182.5,20.0" stroke="black" stroke-width="2" fill="none" />
<polyline points="182.0,7.5,165.5,23.0,148.0,37.5,131.0,53.0" stroke="black" stroke-width="2" fill="none" />
<polyline points="121.5,46.5,137.5,46.0,153.0,45.0,168.5,44.0,184.0,43.0" stroke="black" stroke-width="2" fill="none" />
<polyline points="153.0,58.5,137.5,73.5" stroke="black" stroke-width="2" fill="none" />
<polyline points="135.5,77.0,151.0,76.0,167.0,75.5,182.5,75.0" stroke="black" stroke-width="2" fill="none" />
<polyline points="135.5,36.0,152.5,20.5,168.5,4.5" stroke="black" stroke-width="2" fill="none" />
<polyline points="153.0,11.0,136.5,25.5" stroke="black" stroke-width="2" fill="none" />
<polyline points="132.5,10.5,116.5,27.0" stroke="black" stroke-width="2" fill="none" />
<polyline points="103.5,27.0,119.0,27.5,134.5,28.5,150.5,28.5,167.0,28.5,183.5,28.5,199.0,28.5,214.5,27.5,230.5,26.5,247.0,25.5,263.5,24.5" stroke="black" stroke-width="2" fill="none" />
<polyline points="276.5,29.0,293.5,29.0" stroke="black" stroke-width="2" fill="none" />
<polyline points="296.5,43.5,312.0,42.0,327.0,41.0,343.0,40.5" stroke="black" stroke-width="2" fill="none" />
<polyline points="322.5,39.0,306.5,55.0" stroke="black" stroke-width="2" fill="none" />
<polyline points="293.5,58.5,309.5,58.5,325.0,58.0,341.0,57.5" stroke="black" stroke-width="2" fill="none" />
<polyline points="327.0,54.5,311.0,69.5" stroke="black" stroke-width="2" fill="none" />
<polyline points="314.0,79.0,329.5,78.0,344.5,76.5,360.5,75.5" stroke="black" stroke-width="2" fill="none" />
<polyline points="342.0,13.0,357.5,12.0,373.5,10.0" stroke="black" stroke-width="2" fill="none" />
<polyline points="357.0,28.0,341.5,29.0,327.0,29.5,311.5,29.5" stroke="black" stroke-width="2" fill="none" />
<polyline points="276.5,123.5,260.0,124.5" stroke="black" stroke-width="2" fill="none" />
<polyline points="281.0,174.0,298.0,173.5,314.5,173.0,330.5,172.0,346.5,171.0,361.5,170.0,378.5,169.0,395.5,168.5,411.5,168.5,426.5,168.5" stroke="black" stroke-width="2" fill="none" />
<polyline points="437.5,171.5,453.5,171.5,470.0,171.5,487.0,171.0,504.0,171.0,521.0,171.0" stroke="black" stroke-width="2" fill="none" />
<polyline points="517.0,183.5,501.5,199.5" stroke="black" stroke-width="2" fill="none" />
<polyline points="504.5,194.5,520.5,194.0" stroke="black" stroke-width="2" fill="none" />
<polyline points="516.0,202.5,500.0,217.5" stroke="black" stroke-width="2" fill="none" />
<polyline points="487.0,216.5,470.0,231.5,454.0,246.5,438.0,262.5" stroke="black" stroke-width="2" fill="none" />
<polyline points="438.0,266.0,454.0,265.5,470.0,265.0,486.0,264.0,502.5,263.0,519.5,262.5" stroke="black" stroke-width="2" fill="none" />
<polyline points="515.0,264.0,499.5,279.0,483.5,294.5" stroke="black" stroke-width="2" fill="none" />
<polyline points="469.0,297.0,485.5,296.5,502.0,295.5,518.0,295.0" stroke="black" stroke-width="2" fill="none" />
<polyline points="516.5,294.5,501.0,309.5" stroke="black" stroke-width="2" fill="none" />
<polyline points="498.5,292.5,514.0,276.0" stroke="black" stroke-width="2" fill="none" />
<polyline points="500.5,264.0,484.5,279.5" stroke="black" stroke-width="2" fill="none" />
<polyline points="470.5,279.5,486.5,263.5" stroke="black" stroke-width="2" fill="none" />
<polyline points="472.5,262.0,456.5,277.5" stroke="black" stroke-width="2" fill="none" />
<polyline points="453.5,280.0,468.5,280.0,485.0,279.5,501.5,279.5,518.0,279.5" stroke="black" stroke-width="2" fill="none" />
<polyline points="499.5,232.5,515.0,218.0" stroke="black" stroke-width="2" fill="none" />
<polyline points="504.0,182.0,488.0,197.5,471.5,211.5,454.5,226.5,437.5,242.5,420.5,258.0" stroke="black" stroke-width="2" fill="none" />
<polyline points="419.5,243.0,403.5,259.0" stroke="black" stroke-width="2" fill="none" />
<polyline points="405.0,267.0,422.5,266.0" stroke="black" stroke-width="2" fill="none" />
<polyline points="423.5,284.0,407.5,284.5" stroke="black" stroke-width="2" fill="none" />
<polyline points="410.0,318.0,426.5,317.0" stroke="black" stroke-width="2" fill="none" />
<polyline points="453.5,312.5,469.5,312.5,485.5,312.5,501.5,312.0,518.5,311.0" stroke="black" stroke-width="2" fill="none" />
<polyline points="520.5,343.5,505.0,343.5,489.0,343.5" stroke="black" stroke-width="2" fill="none" />
<polyline points="473.5,328.5,489.0,327.5,503.5,328.0,519.0,328.5" stroke="black" stroke-width="2" fill="none" />
<polyline points="457.0,259.5,473.5,243.5" stroke="black" stroke-width="2" fill="none" />
<polyline points="440.0,230.5,456.0,214.5,472.0,199.0,488.0,184.0" stroke="black" stroke-width="2" fill="none" />
<polyline points="473.5,187.0,458.0,201.5,441.5,216.0" stroke="black" stroke-width="2" fill="none" />
<polyline points="440.5,200.0,456.5,185.0,472.5,169.5" stroke="black" stroke-width="2" fill="none" />
<polyline points="474.5,177.0,458.5,177.5" stroke="black" stroke-width="2" fill="none" />
<polyline points="453.0,169.5,468.5,153.5" stroke="black" stroke-width="2" fill="none" />
<polyline points="475.0,152.0,460.0,151.5" stroke="black" stroke-width="2" fill="none" />
<polyline points="458.0,134.0,475.0,134.0" stroke="black" stroke-width="2" fill="none" />
<polyline points="473.0,194.5,457.5,195.0" stroke="black" stroke-width="2" fill="none" />
<polyline points="434.5,183.0,419.5,198.0" stroke="black" stroke-width="2" fill="none" />
<polyline points="408.0,198.0,424.5,183.0" stroke="black" stroke-width="2" fill="none" />
<polyline points="405.5,180.0,390.0,196.0" stroke="black" stroke-width="2" fill="none" />
<polyline points="392.0,183.0,376.0,198.5" stroke="black" stroke-width="2" fill="none" />
<polyline points="358.0,220.0,341.5,235.0" stroke="black" stroke-width="2" fill="none" />
<polyline points="328.0,231.5,344.0,215.0,361.0,198.5,377.5,182.5,393.0,166.5" stroke="black" stroke-width="2" fill="none" />
<polyline points="378.5,170.0,362.5,185.5,346.0,202.0,329.5,218.5" stroke="black" stroke-width="2" fill="none" />
<polyline points="327.0,212.0,343.5,211.0" stroke="black" stroke-width="2" fill="none" />
<polyline points="308.5,214.5,324.5,198.5,340.0,183.0,355.0,168.0" stroke="black" stroke-width="2" fill="none" />
<polyline points="344.0,167.5,327.0,182.5,311.5,199.5" stroke="black" stroke-width="2" fill="none" />
<polyline points="312.0,194.5,328.5,194.5,345.5,194.5,362.0,194.5" stroke="black" stroke-width="2" fill="none" />
<polyline points="342.0,180.0,326.0,180.0" stroke="black" stroke-width="2" fill="none" />
<polyline points="328.0,165.5,311.5,181.5,295.5,198.0" stroke="black" stroke-width="2" fill="none" />
<polyline points="293.5,203.0,309.5,202.5,325.5,202.5,342.0,202.5,358.0,201.5,373.5,200.5,390.0,199.5,406.0,198.5,422.5,197.0,439.5,195.5,456.5,194.5,472.5,195.0,488.5,196.5,503.5,197.5,518.5,198.5" stroke="black" stroke-width="2" fill="none" />
<polyline points="407.0,228.0,391.5,244.0" stroke="black" stroke-width="2" fill="none" />
<polyline points="390.0,250.5,406.5,250.0,423.5,249.0,440.0,248.5,456.0,248.5,472.0,248.5,487.5,247.0,503.0,245.5,519.0,245.0" stroke="black" stroke-width="2" fill="none" />
<polyline points="519.5,57.5,503.5,58.0,487.0,58.0,470.5,58.0,455.5,59.5,440.0,60.5" stroke="black" stroke-width="2" fill="none" />
<polyline points="469.0,45.0,485.0,44.5,502.5,43.5,519.0,42.0" stroke="black" stroke-width="2" fill="none" />
<polyline points="521.5,24.0,506.0,25.0,491.0,26.0" stroke="black" stroke-width="2" fill="none" />
<polyline points="391.5,151.0,375.5,152.0,360.5,153.0,346.0,154.0,332.0,154.5,316.5,155.0" stroke="black" stroke-width="2" fill="none" />
<polyline points="295.0,218.0,310.5,218.0,326.5,218.0,343.0,217.0,359.5,216.0,376.0,214.5,392.5,213.5,408.0,213.5,422.5,213.0,436.5,212.5,451.5,212.0,468.5,211.5,485.0,211.0,501.5,211.0,517.5,211.0" stroke="black" stroke-width="2" fill="none" />
<polyline points="360.0,297.0,343.0,297.5,326.5,298.5,310.0,299.5,294.0,299.5" stroke="black" stroke-width="2" fill="none" />
<polyline points="261.0,327.5,246.0,343.0,230.5,357.5" stroke="black" stroke-width="2" fill="none" />
<polyline points="247.0,362.0,263.0,347.0" stroke="black" stroke-width="2" fill="none" />
<polyline points="248.5,326.5,231.5,342.5,214.5,358.5" stroke="black" stroke-width="2" fill="none" />
<polyline points="200.0,355.5,216.5,355.5,233.5,354.5,250.0,353.0" stroke="black" stroke-width="2" fill="none" />
<polyline points="231.5,322.5,215.5,337.5,199.5,353.0" stroke="black" stroke-width="2" fill="none" />
<polyline points="201.0,346.0,185.0,360.5" stroke="black" stroke-width="2" fill="none" />
<polyline points="170.0,359.5,185.5,344.5" stroke="black" stroke-width="2" fill="none" />
<polyline points="200.5,335.0,217.0,334.5,233.0,333.5,249.0,332.0,265.0,329.5,282.0,327.5,297.0,326.5,313.0,325.5,329.5,324.0,346.0,322.5" stroke="black" stroke-width="2" fill="none" />
<polyline points="264.0,299.5,248.0,299.0,232.5,299.5" stroke="black" stroke-width="2" fill="none" />
<polyline points="213.5,313.5,230.0,312.5,245.5,312.5,261.0,312.5,276.0,313.0,291.0,312.5,306.5,312.0,323.5,311.5,340.5,312.0" stroke="black" stroke-width="2" fill="none" />
<polyline points="245.5,237.0,261.5,236.5,277.0,235.5,293.5,234.5,310.0,233.5,327.0,231.5,344.5,231.0,362.0,229.5,378.5,228.5,394.5,229.0,411.0,229.0,426.0,228.0,441.5,227.0,457.5,226.5,472.5,226.0,488.5,225.5,503.0,225.0,519.0,224.5" stroke="black" stroke-width="2" fill="none" />
<polyline points="279.0,218.0,261.5,218.5,245.0,219.0" stroke="black" stroke-width="2" fill="none" />
<polyline points="217.5,196.5,233.5,181.0" stroke="black" stroke-width="2" fill="none" />
<polyline points="214.0,182.5,198.5,198.5,183.5,214.0,168.0,229.5" stroke="black" stroke-width="2" fill="none" />
<polyline points="150.0,230.0,166.5,215.5,183.0,201.0,199.5,186.0" stroke="black" stroke-width="2" fill="none" />
<polyline points="187.5,183.0,172.0,198.5,155.0,213.0" stroke="black" stroke-width="2" fill="none" />
<polyline points="137.5,210.5,152.5,195.0,167.0,180.0,182.0,164.5" stroke="black" stroke-width="2" fill="none" />
<polyline points="181.5,149.0,165.5,165.0,150.0,180.0,134.5,196.0,118.5,212.0" stroke="black" stroke-width="2" fill="none" />
<polyline points="119.5,196.0,135.5,180.0,151.0,164.5,167.0,149.0" stroke="black" stroke-width="2" fill="none" />
<polyline points="165.5,137.0,148.5,137.5" stroke="black" stroke-width="2" fill="none" />
<polyline points="133.5,159.5,150.0,158.5,166.5,157.5,182.0,156.5,196.5,155.5" stroke="black" stroke-width="2" fill="none" />
<polyline points="182.5,194.0,166.0,194.5,150.0,196.0,133.0,197.0" stroke="black" stroke-width="2" fill="none" />
<polyline points="117.5,186.5,102.0,201.5" stroke="black" stroke-width="2" fill="none" />
<polyline points="104.0,180.0,87.5,196.5,71.5,213.0" stroke="black" stroke-width="2" fill="none" />
<polyline points="57.5,214.0,73.5,197.5,89.5,181.5" stroke="black" stroke-width="2" fill="none" />
<polyline points="88.5,167.5,73.0,182.5,55.5,197.5" stroke="black" stroke-width="2" fill="none" />
<polyline points="52.5,197.0,68.0,196.5,83.5,196.0" stroke="black" stroke-width="2" fill="none" />
<polyline points="69.5,165.0,53.5,180.0,37.5,196.0" stroke="black" stroke-width="2" fill="none" />
<polyline points="22.0,196.0,37.5,180.0" stroke="black" stroke-width="2" fill="none" />
<polyline points="25.5,183.5,10.0,199.0" stroke="black" stroke-width="2" fill="none" />
<polyline points="9.0,203.5,24.5,203.5,39.5,203.5,55.5,203.5,71.0,203.0,86.5,203.5,103.0,202.5,119.5,202.0,135.5,201.0,152.0,200.0,169.0,198.5,184.5,198.0,199.5,197.0,215.0,196.0,230.5,195.5" stroke="black" stroke-width="2" fill="none" />
<polyline points="180.0,250.0,196.5,249.5,212.5,249.0,229.0,249.0,245.5,248.5,262.0,248.5,278.0,248.5,293.5,248.0,309.0,248.0,325.0,247.5" stroke="black" stroke-width="2" fill="none" />
<polyline points="309.0,277.5,293.0,277.5,277.5,278.5,262.5,280.0,247.0,281.0,231.5,281.0,215.5,281.5" stroke="black" stroke-width="2" fill="none" />
<polyline points="201.0,267.5,216.5,267.0,231.5,266.0,247.0,265.0,262.5,264.5,279.0,264.5,295.0,263.5,311.0,263.0" stroke="black" stroke-width="2" fill="none" />
<polyline points="164.0,340.0,148.5,356.5" stroke="black" stroke-width="2" fill="none" />
<polyline points="138.5,357.5,155.0,342.5" stroke="black" stroke-width="2" fill="none" />
<polyline points="151.5,326.0,134.5,341.5" stroke="black" stroke-width="2" fill="none" />
<polyline points="104.5,347.0,121.0,346.5,136.5,345.5,152.0,345.0,168.5,344.5,184.5,345.0,201.0,344.5,217.0,344.5,233.0,343.5,248.5,342.0,264.0,341.5,280.5,341.5,297.5,341.5,314.0,341.5,329.5,340.0,344.5,339.0,360.5,339.0,376.0,338.5" stroke="black" stroke-width="2" fill="none" />
<polyline points="165.0,296.0,147.5,296.0,131.0,296.5" stroke="black" stroke-width="2" fill="none" />
<polyline points="101.5,313.5,117.5,313.0,133.5,314.0,150.0,313.5,167.5,312.5,184.0,312.0" stroke="black" stroke-width="2" fill="none" />
<polyline points="182.5,329.0,166.0,329.0,149.0,328.5,133.0,327.5,117.0,326.0,100.5,325.5" stroke="black" stroke-width="2" fill="none" />
<polyline points="69.5,344.0,53.5,358.5" stroke="black" stroke-width="2" fill="none" />
<polyline points="42.5,362.0,59.0,347.0" stroke="black" stroke-width="2" fill="none" />
<polyline points="40.0,341.5,24.0,357.0" stroke="black" stroke-width="2" fill="none" />
<polyline points="19.5,341.0,4.5,356.5" stroke="black" stroke-width="2" fill="none" />
<polyline points="4.5,350.5,21.5,350.0,39.0,349.0,55.5,347.5,71.0,345.5,87.0,345.0" stroke="black" stroke-width="2" fill="none" />
<polyline points="74.0,296.0,90.0,280.5" stroke="black" stroke-width="2" fill="none" />
<polyline points="71.0,276.0,54.5,292.0" stroke="black" stroke-width="2" fill="none" />
<polyline points="54.0,299.5,69.5,298.5,85.0,297.5,100.5,296.5,116.5,295.5" stroke="black" stroke-width="2" fill="none" />
<polyline points="68.5,316.5,52.0,317.5,35.5,318.5" stroke="black" stroke-width="2" fill="none" />
<polyline points="25.0,332.5,40.5,333.0,56.0,333.0,71.5,333.0" stroke="black" stroke-width="2" fill="none" />
<polyline points="25.5,296.5,8.5,297.0" stroke="black" stroke-width="2" fill="none" />
<polyline points="8.5,292.0,24.5,275.5" stroke="black" stroke-width="2" fill="none" />
<polyline points="28.5,265.0,12.5,280.0" stroke="black" stroke-width="2" fill="none" />
<polyline points="11.0,281.5,26.5,280.5,42.5,280.0,58.0,278.5,73.5,276.5,88.5,275.5,104.0,275.5,119.0,277.0" stroke="black" stroke-width="2" fill="none" />
<polyline points="123.5,172.5,138.5,172.0,153.0,170.5,168.0,169.0,184.0,168.0,199.0,167.5,214.5,167.0,231.0,166.5,247.0,166.5" stroke="black" stroke-width="2" fill="none" />
<polyline points="102.5,105.0,87.5,105.5" stroke="black" stroke-width="2" fill="none" />
<polyline points="86.5,123.0,70.0,124.0" stroke="black" stroke-width="2" fill="none" />
<polyline points="70.5,151.5,53.5,167.0" stroke="black" stroke-width="2" fill="none" />
<polyline points="34.0,147.5,18.5,163.5,3.0,179.0" stroke="black" stroke-width="2" fill="none" />
<polyline points="10.5,173.0,26.0,171.5,41.5,170.5,56.5,170.0,72.0,170.5,87.0,170.5,102.0,169.0" stroke="black" stroke-width="2" fill="none" />
<polyline points="36.0,135.5,20.0,151.5,5.0,167.0" stroke="black" stroke-width="2" fill="none" />
<polyline points="12.0,159.5,28.0,158.0,43.5,155.5,59.0,153.5,74.5,151.5,90.0,150.5" stroke="black" stroke-width="2" fill="none" />
<polyline points="26.0,136.5,10.0,152.0" stroke="black" stroke-width="2" fill="none" />
<polyline points="8.5,141.0,25.0,139.5,41.5,138.5,56.5,137.5,71.0,136.0,86.0,134.5" stroke="black" stroke-width="2" fill="none" />
<polyline points="99.5,90.5,84.0,90.5,69.5,91.0,53.5,92.0" stroke="black" stroke-width="2" fill="none" />
<polyline points="22.5,90.5,8.0,90.5" stroke="black" stroke-width="2" fill="none" />
<polyline points="7.5,24.5,23.5,25.0,40.0,25.0,56.5,24.5,73.0,25.5,89.5,26.0" stroke="black" stroke-width="2" fill="none" />
<polyline points="87.5,12.5,103.5,11.5,120.0,10.5,135.5,10.5,150.5,10.5,166.0,9.5,182.0,9.0,198.5,8.5,214.0,7.0,230.5,6.0,247.0,5.0" stroke="black" stroke-width="2" fill="none" />
<polyline points="120.5,262.5,104.5,262.5,88.5,263.5,72.0,265.0,56.0,265.5,40.0,266.0,24.5,267.0,9.0,267.5" stroke="black" stroke-width="2" fill="none" />
<polyline points="7.5,253.5,23.5,252.5,40.5,252.0,57.0,251.5,73.5,250.5,90.0,249.0,106.0,248.5,121.5,248.5" stroke="black" stroke-width="2" fill="none" />
<polyline points="201.5,229.5,184.5,230.5,168.0,230.5,152.0,231.0,136.5,231.0,120.5,231.0,104.5,231.5,89.0,232.5,73.0,234.0,56.5,235.5,40.5,236.5,24.5,237.0,8.5,238.0" stroke="black" stroke-width="2" fill="none" />
<polyline points="7.0,223.0,24.0,222.0,40.5,221.5,56.0,220.5,72.0,220.5,88.0,219.5,104.5,219.0,122.0,218.0,138.0,218.5,153.0,218.5,168.5,218.0,185.0,217.5,201.0,216.5" stroke="black" stroke-width="2" fill="none" />
<polyline points="7.0,188.0,22.5,187.5,37.5,187.5,53.0,188.0,70.0,188.0,86.5,187.5,101.5,186.0,116.5,184.5,132.0,183.0,148.0,182.0,164.0,181.0,180.5,180.5,196.5,180.0,213.0,180.0,229.5,179.5,246.0,179.5,262.0,179.5,277.5,179.0,293.0,179.0,309.0,178.5,325.5,177.5,341.5,177.5,358.0,177.5,375.0,177.0,392.0,177.0,409.0,177.0,425.5,175.5,441.0,174.5,457.0,173.0,472.5,171.0,488.0,169.0,503.5,169.5,519.5,170.0" stroke="black" stroke-width="2" fill="none" />
</svg>