<svg xmlns="http://www.w3.org/2000/svg" version="1.1"><polyline points="3.5,12.0,11.0,12.0,19.0,11.5,26.5,10.5" stroke="black" stroke-width="2" fill="none" />
<polyline points="18.5,4.0,26.0,3.5,34.0,3.0" stroke="black" stroke-width="2" fill="none" />
<polyline points="57.5,6.5,66.0,5.5" stroke="black" stroke-width="2" fill="none" />
<polyline points="74.5,13.5,82.5,13.0,90.0,12.5,98.0,12.0,106.5,11.5" stroke="black" stroke-width="2" fill="none" />
<polyline points="113.0,13.0,121.0,5.5" stroke="black" stroke-width="2" fill="none" />
<polyline points="131.0,3.5,123.0,10.5,115.0,18.0" stroke="black" stroke-width="2" fill="none" />
<polyline points="114.0,13.5,122.5,12.5" stroke="black" stroke-width="2" fill="none" />
<polyline points="132.5,21.5,140.5,21.5,148.0,21.5" stroke="black" stroke-width="2" fill="none" />
<polyline points="141.0,30.0,132.5,30.5" stroke="black" stroke-width="2" fill="none" />
<polyline points="110.0,20.0,102.0,27.0" stroke="black" stroke-width="2" fill="none" />
<polyline points="107.5,30.0,99.0,30.0,90.5,30.5" stroke="black" stroke-width="2" fill="none" />
<polyline points="84.5,20.0,92.0,19.5,99.5,19.5,107.5,19.5" stroke="black" stroke-width="2" fill="none" />
<polyline points="91.5,5.0,99.5,4.5,107.0,4.0,114.5,4.0,122.0,3.5,130.0,2.5" stroke="black" stroke-width="2" fill="none" />
<polyline points="171.5,20.5,179.5,20.0" stroke="black" stroke-width="2" fill="none" />
<polyline points="179.5,14.5,188.0,14.0,196.0,13.0,203.5,12.5,210.5,11.5,218.5,11.0" stroke="black" stroke-width="2" fill="none" />
<polyline points="226.0,5.5,234.0,5.0,242.0,4.0,250.0,3.5" stroke="black" stroke-width="2" fill="none" />
<polyline points="258.0,5.5,266.0,5.0" stroke="black" stroke-width="2" fill="none" />
<polyline points="276.0,13.5,283.5,13.0,291.5,12.5" stroke="black" stroke-width="2" fill="none" />
<polyline points="307.5,3.5,315.5,3.0,323.5,2.5" stroke="black" stroke-width="2" fill="none" />
<polyline points="321.5,12.5,330.0,12.0" stroke="black" stroke-width="2" fill="none" />
<polyline points="333.0,21.0,324.5,22.0" stroke="black" stroke-width="2" fill="none" />
<polyline points="332.5,26.5,324.5,26.5,316.0,26.5" stroke="black" stroke-width="2" fill="none" />
<polyline points="317.0,35.0,325.0,34.5" stroke="black" stroke-width="2" fill="none" />
<polyline points="326.0,51.5,333.5,51.5" stroke="black" stroke-width="2" fill="none" />
<polyline points="355.5,39.5,363.0,38.5,370.5,37.0,378.5,36.0,386.0,35.0,394.0,33.5,402.0,33.0,410.5,33.0" stroke="black" stroke-width="2" fill="none" />
<polyline points="418.5,27.5,427.0,27.0" stroke="black" stroke-width="2" fill="none" />
<polyline points="428.0,13.5,435.5,13.0,443.5,13.0" stroke="black" stroke-width="2" fill="none" />
<polyline points="459.0,15.0,467.5,14.0" stroke="black" stroke-width="2" fill="none" />
<polyline points="460.0,22.0,468.0,21.5,476.5,21.5" stroke="black" stroke-width="2" fill="none" />
<polyline points="482.5,14.0,491.0,13.5" stroke="black" stroke-width="2" fill="none" />
<polyline points="491.0,5.0,483.0,5.5" stroke="black" stroke-width="2" fill="none" />
<polyline points="493.5,38.0,501.5,37.0" stroke="black" stroke-width="2" fill="none" />
<polyline points="452.0,43.0,444.0,50.5,436.5,58.0" stroke="black" stroke-width="2" fill="none" />
<polyline points="434.0,56.0,442.0,55.0,450.5,53.5" stroke="black" stroke-width="2" fill="none" />
<polyline points="451.5,68.5,460.0,68.5,468.5,67.5" stroke="black" stroke-width="2" fill="none" />
<polyline points="459.0,77.0,467.5,76.5,475.5,76.0,484.0,76.0" stroke="black" stroke-width="2" fill="none" />
<polyline points="483.5,91.0,475.5,91.5,467.0,91.5" stroke="black" stroke-width="2" fill="none" />
<polyline points="461.5,99.0,453.5,99.5" stroke="black" stroke-width="2" fill="none" />
<polyline points="459.0,108.0,467.0,107.5" stroke="black" stroke-width="2" fill="none" />
<polyline points="474.5,117.0,482.5,116.5" stroke="black" stroke-width="2" fill="none" />
<polyline points="483.5,108.5,491.0,108.0,499.0,108.5,507.0,108.5" stroke="black" stroke-width="2" fill="none" />
<polyline points="498.5,107.0,490.5,114.5" stroke="black" stroke-width="2" fill="none" />
<polyline points="491.5,117.0,499.5,116.5,508.0,116.0" stroke="black" stroke-width="2" fill="none" />
<polyline points="492.5,97.5,484.5,105.0" stroke="black" stroke-width="2" fill="none" />
<polyline points="483.0,103.0,491.5,102.5" stroke="black" stroke-width="2" fill="none" />
<polyline points="501.5,143.0,509.5,142.5,517.0,141.5" stroke="black" stroke-width="2" fill="none" />
<polyline points="514.5,153.5,506.5,161.5" stroke="black" stroke-width="2" fill="none" />
<polyline points="509.0,159.0,516.5,158.0" stroke="black" stroke-width="2" fill="none" />
<polyline points="517.0,162.5,508.5,170.0,500.0,177.5" stroke="black" stroke-width="2" fill="none" />
<polyline points="501.0,173.0,492.5,180.5" stroke="black" stroke-width="2" fill="none" />
<polyline points="484.0,180.5,492.0,180.5,499.0,180.5,507.0,180.0,515.0,179.0" stroke="black" stroke-width="2" fill="none" />
<polyline points="515.5,179.0,507.0,186.5" stroke="black" stroke-width="2" fill="none" />
<polyline points="509.0,177.0,517.5,169.5" stroke="black" stroke-width="2" fill="none" />
<polyline points="491.5,161.0,483.0,168.5,475.5,176.5" stroke="black" stroke-width="2" fill="none" />
<polyline points="482.0,178.5,490.0,170.5" stroke="black" stroke-width="2" fill="none" />
<polyline points="491.0,175.0,483.0,175.0" stroke="black" stroke-width="2" fill="none" />
<polyline points="475.0,164.5,482.5,164.0,491.0,164.0,499.5,164.0,507.0,164.0,515.5,164.0" stroke="black" stroke-width="2" fill="none" />
<polyline points="514.5,196.5,506.5,197.0,499.0,197.5,491.0,198.0" stroke="black" stroke-width="2" fill="none" />
<polyline points="489.0,189.0,497.0,188.0,505.5,188.0,513.5,188.0" stroke="black" stroke-width="2" fill="none" />
<polyline points="517.0,230.0,509.0,230.0,501.0,230.5" stroke="black" stroke-width="2" fill="none" />
<polyline points="500.0,244.5,492.5,245.0,484.5,245.5" stroke="black" stroke-width="2" fill="none" />
<polyline points="477.0,244.0,468.5,244.5" stroke="black" stroke-width="2" fill="none" />
<polyline points="460.0,245.5,452.0,246.0" stroke="black" stroke-width="2" fill="none" />
<polyline points="460.5,252.0,452.0,252.5,443.5,252.5" stroke="black" stroke-width="2" fill="none" />
<polyline points="441.5,246.5,434.0,247.0" stroke="black" stroke-width="2" fill="none" />
<polyline points="426.5,251.0,418.5,258.5,410.5,265.5" stroke="black" stroke-width="2" fill="none" />
<polyline points="410.5,261.5,402.5,269.0,395.0,276.0" stroke="black" stroke-width="2" fill="none" />
<polyline points="395.0,262.0,386.5,269.5,378.0,276.5,370.0,283.5" stroke="black" stroke-width="2" fill="none" />
<polyline points="370.0,282.5,362.0,282.5" stroke="black" stroke-width="2" fill="none" />
<polyline points="355.5,275.5,348.0,283.0,339.5,290.0" stroke="black" stroke-width="2" fill="none" />
<polyline points="338.0,289.5,346.5,289.0,355.5,288.5" stroke="black" stroke-width="2" fill="none" />
<polyline points="355.0,289.0,362.5,281.5,370.0,274.0,378.0,267.0,385.5,259.5" stroke="black" stroke-width="2" fill="none" />
<polyline points="379.0,258.5,371.5,266.0,363.0,273.0,355.0,280.5,347.5,288.0,339.5,295.5" stroke="black" stroke-width="2" fill="none" />
<polyline points="331.0,289.5,339.0,282.0,346.5,274.5" stroke="black" stroke-width="2" fill="none" />
<polyline points="338.5,274.0,331.0,281.5,323.0,289.5" stroke="black" stroke-width="2" fill="none" />
<polyline points="315.5,282.5,307.5,290.0,299.5,298.5" stroke="black" stroke-width="2" fill="none" />
<polyline points="299.5,301.0,307.0,300.5,314.5,300.0,322.0,300.0,329.5,299.5,337.0,300.0,345.0,299.5" stroke="black" stroke-width="2" fill="none" />
<polyline points="347.0,318.0,354.5,317.0,362.5,316.5" stroke="black" stroke-width="2" fill="none" />
<polyline points="363.0,325.0,370.5,325.0" stroke="black" stroke-width="2" fill="none" />
<polyline points="379.5,324.0,387.0,323.5" stroke="black" stroke-width="2" fill="none" />
<polyline points="393.0,318.5,401.0,318.5,409.5,318.5,418.0,318.0" stroke="black" stroke-width="2" fill="none" />
<polyline points="408.5,317.0,401.0,324.5" stroke="black" stroke-width="2" fill="none" />
<polyline points="404.5,326.0,412.5,325.5" stroke="black" stroke-width="2" fill="none" />
<polyline points="404.5,314.0,412.5,306.0,421.0,298.5" stroke="black" stroke-width="2" fill="none" />
<polyline points="425.0,303.5,433.0,302.5,441.5,302.0,449.5,301.0,457.5,299.5,465.5,298.0,474.0,297.5,482.5,297.0,490.5,296.5,499.0,296.0" stroke="black" stroke-width="2" fill="none" />
<polyline points="508.0,287.5,516.5,286.5" stroke="black" stroke-width="2" fill="none" />
<polyline points="498.5,276.0,491.0,283.0" stroke="black" stroke-width="2" fill="none" />
<polyline points="492.0,285.5,500.5,285.0" stroke="black" stroke-width="2" fill="none" />
<polyline points="501.5,277.5,493.5,277.0,486.0,277.0" stroke="black" stroke-width="2" fill="none" />
<polyline points="485.5,271.5,493.0,271.0,500.5,270.0" stroke="black" stroke-width="2" fill="none" />
<polyline points="500.0,263.5,508.0,262.5,516.0,261.5" stroke="black" stroke-width="2" fill="none" />
<polyline points="517.0,253.5,509.0,254.0" stroke="black" stroke-width="2" fill="none" />
<polyline points="516.0,219.5,508.5,220.0,500.0,220.0,492.0,220.5,483.0,221.0,475.0,222.0" stroke="black" stroke-width="2" fill="none" />
<polyline points="467.5,212.0,476.0,211.5,484.0,211.0,492.5,210.5,501.0,210.0,509.0,210.0" stroke="black" stroke-width="2" fill="none" />
<polyline points="477.5,204.0,470.0,204.5" stroke="black" stroke-width="2" fill="none" />
<polyline points="468.0,177.0,460.0,178.0" stroke="black" stroke-width="2" fill="none" />
<polyline points="460.0,178.0,467.5,170.5" stroke="black" stroke-width="2" fill="none" />
<polyline points="458.5,171.0,450.0,178.5" stroke="black" stroke-width="2" fill="none" />
<polyline points="444.0,179.0,451.5,171.0,459.0,163.5" stroke="black" stroke-width="2" fill="none" />
<polyline points="453.0,165.5,445.0,173.0,437.0,180.0" stroke="black" stroke-width="2" fill="none" />
<polyline points="435.5,181.5,443.0,181.0,451.0,180.5,459.0,180.0,467.5,180.0,475.5,180.0" stroke="black" stroke-width="2" fill="none" />
<polyline points="482.5,148.5,490.0,148.0,498.0,147.5,506.0,146.5,514.5,145.5" stroke="black" stroke-width="2" fill="none" />
<polyline points="468.0,140.0,460.0,141.0,452.5,141.5" stroke="black" stroke-width="2" fill="none" />
<polyline points="443.5,147.0,435.5,154.5,427.5,162.0,419.5,170.0" stroke="black" stroke-width="2" fill="none" />
<polyline points="420.0,172.5,428.0,172.5,436.0,172.0,444.5,171.5,452.5,171.0,460.5,171.0,468.5,170.5,476.5,170.0,484.0,170.0,492.0,169.5,500.0,169.0,508.0,168.5,516.5,168.5" stroke="black" stroke-width="2" fill="none" />
<polyline points="444.0,161.5,435.5,169.0,428.0,177.0" stroke="black" stroke-width="2" fill="none" />
<polyline points="426.5,170.0,435.0,162.0,443.0,154.0" stroke="black" stroke-width="2" fill="none" />
<polyline points="437.0,149.5,428.5,157.0" stroke="black" stroke-width="2" fill="none" />
<polyline points="427.5,154.5,435.0,153.5" stroke="black" stroke-width="2" fill="none" />
<polyline points="433.5,160.0,442.0,159.5" stroke="black" stroke-width="2" fill="none" />
<polyline points="444.5,168.0,437.0,168.5" stroke="black" stroke-width="2" fill="none" />
<polyline points="437.0,177.5,445.0,177.0" stroke="black" stroke-width="2" fill="none" />
<polyline points="450.5,190.5,442.5,191.5" stroke="black" stroke-width="2" fill="none" />
<polyline points="441.0,198.5,449.5,198.0,458.0,197.5" stroke="black" stroke-width="2" fill="none" />
<polyline points="450.5,214.0,442.0,214.5" stroke="black" stroke-width="2" fill="none" />
<polyline points="434.0,197.0,426.0,197.0" stroke="black" stroke-width="2" fill="none" />
<polyline points="420.0,204.0,428.5,203.5,436.0,203.5,444.0,203.0,452.0,202.5,460.0,202.5" stroke="black" stroke-width="2" fill="none" />
<polyline points="429.5,213.0,421.0,213.5" stroke="black" stroke-width="2" fill="none" />
<polyline points="421.0,228.5,413.0,236.0" stroke="black" stroke-width="2" fill="none" />
<polyline points="419.0,235.5,411.5,242.5" stroke="black" stroke-width="2" fill="none" />
<polyline points="403.0,236.0,395.5,243.0" stroke="black" stroke-width="2" fill="none" />
<polyline points="395.0,237.5,387.5,245.0" stroke="black" stroke-width="2" fill="none" />
<polyline points="381.0,243.5,388.5,236.0,396.5,228.5" stroke="black" stroke-width="2" fill="none" />
<polyline points="387.0,227.5,379.0,235.0,370.5,242.5" stroke="black" stroke-width="2" fill="none" />
<polyline points="378.5,244.5,386.5,244.0" stroke="black" stroke-width="2" fill="none" />
<polyline points="379.5,252.0,387.5,251.5,395.5,251.0,403.5,251.0,411.5,251.0,420.0,251.0,428.0,250.0,436.5,249.5" stroke="black" stroke-width="2" fill="none" />
<polyline points="426.5,258.0,418.0,265.5" stroke="black" stroke-width="2" fill="none" />
<polyline points="403.5,259.0,395.5,266.5,387.5,274.0,379.5,281.5" stroke="black" stroke-width="2" fill="none" />
<polyline points="381.5,284.0,389.5,284.0,397.0,283.0,405.5,283.0,413.5,283.0,421.5,282.5" stroke="black" stroke-width="2" fill="none" />
<polyline points="433.0,294.0,441.5,293.5,449.0,293.5" stroke="black" stroke-width="2" fill="none" />
<polyline points="458.5,294.5,466.5,294.0,475.0,293.5,483.0,293.0,491.5,292.5,500.5,292.0,508.5,291.5" stroke="black" stroke-width="2" fill="none" />
<polyline points="508.0,308.5,499.5,308.5,492.0,308.5,484.0,308.5,475.5,309.0" stroke="black" stroke-width="2" fill="none" />
<polyline points="466.0,308.5,458.0,309.0" stroke="black" stroke-width="2" fill="none" />
<polyline points="459.5,325.0,467.0,324.5,474.5,324.5,482.0,324.0,490.5,323.5,499.0,323.0,507.0,323.5,515.0,323.5" stroke="black" stroke-width="2" fill="none" />
<polyline points="515.0,331.5,507.0,332.0,499.0,332.5" stroke="black" stroke-width="2" fill="none" />
<polyline points="491.5,330.5,483.5,331.0,475.5,331.5,467.5,332.0" stroke="black" stroke-width="2" fill="none" />
<polyline points="445.0,330.5,437.5,337.5" stroke="black" stroke-width="2" fill="none" />
<polyline points="434.0,334.0,442.0,333.5" stroke="black" stroke-width="2" fill="none" />
<polyline points="434.0,327.0,442.0,326.5,450.0,325.5" stroke="black" stroke-width="2" fill="none" />
<polyline points="442.5,314.5,450.5,314.5,458.5,315.0,467.5,315.0,476.0,315.5,484.5,315.5,492.5,315.5,500.5,315.0,508.5,315.0" stroke="black" stroke-width="2" fill="none" />
<polyline points="458.5,283.5,450.5,284.0,442.5,284.5" stroke="black" stroke-width="2" fill="none" />
<polyline points="450.5,309.0,442.5,309.5,434.5,310.5,426.0,311.0" stroke="black" stroke-width="2" fill="none" />
<polyline points="402.5,300.5,395.0,307.5" stroke="black" stroke-width="2" fill="none" />
<polyline points="394.0,312.0,402.0,311.5,410.0,310.5,418.5,310.0" stroke="black" stroke-width="2" fill="none" />
<polyline points="403.0,290.0,395.0,297.5" stroke="black" stroke-width="2" fill="none" />
<polyline points="385.5,302.0,394.0,301.5,402.5,301.0,411.0,300.5,419.0,300.0" stroke="black" stroke-width="2" fill="none" />
<polyline points="418.5,290.5,410.0,291.0,401.5,292.0,393.5,292.5,385.0,293.0" stroke="black" stroke-width="2" fill="none" />
<polyline points="381.0,315.5,389.0,315.5" stroke="black" stroke-width="2" fill="none" />
<polyline points="387.0,272.5,378.5,273.5,370.5,274.5" stroke="black" stroke-width="2" fill="none" />
<polyline points="371.0,266.5,379.0,266.0,387.5,264.5,395.5,263.5,403.0,262.5,411.0,261.5,419.5,261.5,427.5,261.0" stroke="black" stroke-width="2" fill="none" />
<polyline points="370.0,261.0,362.0,268.5" stroke="black" stroke-width="2" fill="none" />
<polyline points="363.5,261.5,372.0,261.0,379.0,261.0,386.5,260.5,394.5,260.0,402.5,259.5,410.5,259.0,418.0,259.5,426.0,259.5,434.0,259.5" stroke="black" stroke-width="2" fill="none" />
<polyline points="380.0,226.5,371.5,234.0" stroke="black" stroke-width="2" fill="none" />
<polyline points="370.0,232.5,378.5,232.5,386.5,232.5" stroke="black" stroke-width="2" fill="none" />
<polyline points="371.5,231.0,380.0,230.5,388.0,230.0,396.0,229.5,404.0,229.0,412.0,229.0,420.0,228.0,428.0,227.0,436.5,226.0,444.5,225.5,452.5,225.5,460.0,225.0" stroke="black" stroke-width="2" fill="none" />
<polyline points="412.5,190.5,405.0,191.0" stroke="black" stroke-width="2" fill="none" />
<polyline points="403.0,182.5,395.5,183.0" stroke="black" stroke-width="2" fill="none" />
<polyline points="394.5,172.0,402.0,164.5" stroke="black" stroke-width="2" fill="none" />
<polyline points="395.0,163.5,387.0,171.5" stroke="black" stroke-width="2" fill="none" />
<polyline points="378.5,164.0,387.0,163.5,395.0,163.5,403.0,163.5,411.5,163.5,420.0,163.5,428.0,163.5,436.5,163.0,445.0,162.5,454.0,162.0,462.0,162.0,469.5,160.5" stroke="black" stroke-width="2" fill="none" />
<polyline points="442.0,133.5,433.5,134.5" stroke="black" stroke-width="2" fill="none" />
<polyline points="422.0,149.5,429.5,149.0,437.0,148.5,444.5,148.5,452.0,148.5,460.0,148.5,467.5,148.0,475.5,146.5" stroke="black" stroke-width="2" fill="none" />
<polyline points="491.0,154.5,483.0,154.5,475.0,154.5,467.5,154.5,459.5,154.5,451.5,155.0,444.0,155.0,437.0,155.5,429.0,156.0,421.0,156.0" stroke="black" stroke-width="2" fill="none" />
<polyline points="412.5,133.5,405.0,134.0" stroke="black" stroke-width="2" fill="none" />
<polyline points="395.5,131.5,387.5,132.5" stroke="black" stroke-width="2" fill="none" />
<polyline points="388.5,123.5,396.5,123.0" stroke="black" stroke-width="2" fill="none" />
<polyline points="412.0,117.5,420.5,117.0" stroke="black" stroke-width="2" fill="none" />
<polyline points="422.0,103.0,429.5,101.5,437.0,100.5" stroke="black" stroke-width="2" fill="none" />
<polyline points="443.5,93.5,451.5,93.0" stroke="black" stroke-width="2" fill="none" />
<polyline points="428.0,93.5,420.5,94.5" stroke="black" stroke-width="2" fill="none" />
<polyline points="420.0,69.5,412.0,70.0" stroke="black" stroke-width="2" fill="none" />
<polyline points="419.0,62.0,410.5,62.0,402.0,62.5" stroke="black" stroke-width="2" fill="none" />
<polyline points="412.5,54.5,420.0,54.0,428.5,54.0" stroke="black" stroke-width="2" fill="none" />
<polyline points="427.5,51.0,435.5,43.5" stroke="black" stroke-width="2" fill="none" />
<polyline points="420.0,45.5,428.5,44.5,436.5,44.0,445.0,43.0,452.5,42.0" stroke="black" stroke-width="2" fill="none" />
<polyline points="449.5,36.0,457.5,35.5,466.5,35.5" stroke="black" stroke-width="2" fill="none" />
<polyline points="458.0,28.0,450.5,28.5" stroke="black" stroke-width="2" fill="none" />
<polyline points="419.5,12.5,411.0,20.0" stroke="black" stroke-width="2" fill="none" />
<polyline points="403.5,20.0,411.5,12.0" stroke="black" stroke-width="2" fill="none" />
<polyline points="419.0,14.5,411.0,15.0,403.0,15.5" stroke="black" stroke-width="2" fill="none" />
<polyline points="402.0,22.5,410.5,21.5,419.0,20.5,427.0,20.0" stroke="black" stroke-width="2" fill="none" />
<polyline points="419.5,4.0,427.5,3.5,435.0,3.0,442.5,3.0,450.5,3.0,458.0,2.5" stroke="black" stroke-width="2" fill="none" />
<polyline points="410.0,7.0,402.0,8.0" stroke="black" stroke-width="2" fill="none" />
<polyline points="388.0,4.0,380.0,11.5" stroke="black" stroke-width="2" fill="none" />
<polyline points="379.5,2.5,371.0,10.5" stroke="black" stroke-width="2" fill="none" />
<polyline points="370.5,2.5,362.5,10.5" stroke="black" stroke-width="2" fill="none" />
<polyline points="345.5,6.5,353.5,6.0,361.5,5.0,370.5,4.5,379.5,3.5,387.5,2.5,396.0,2.0" stroke="black" stroke-width="2" fill="none" />
<polyline points="385.0,45.5,377.0,46.0" stroke="black" stroke-width="2" fill="none" />
<polyline points="387.0,28.5,378.5,29.5,369.5,30.0,361.0,30.5,353.0,31.0" stroke="black" stroke-width="2" fill="none" />
<polyline points="387.0,84.5,395.0,83.5" stroke="black" stroke-width="2" fill="none" />
<polyline points="389.0,100.0,397.0,99.5,405.0,99.5" stroke="black" stroke-width="2" fill="none" />
<polyline points="386.5,109.5,379.0,110.0" stroke="black" stroke-width="2" fill="none" />
<polyline points="372.0,116.0,380.0,115.5,388.5,116.0" stroke="black" stroke-width="2" fill="none" />
<polyline points="380.0,124.0,372.0,125.0" stroke="black" stroke-width="2" fill="none" />
<polyline points="371.0,142.0,379.0,141.5,387.5,140.5,395.5,140.0,403.5,139.5,411.0,139.5,419.5,139.0,428.0,138.0,436.5,137.5,445.0,137.5" stroke="black" stroke-width="2" fill="none" />
<polyline points="411.0,155.5,403.0,156.0,395.0,156.0,387.0,156.5" stroke="black" stroke-width="2" fill="none" />
<polyline points="381.0,149.0,388.5,148.5,396.5,148.0" stroke="black" stroke-width="2" fill="none" />
<polyline points="379.0,173.5,371.0,174.5" stroke="black" stroke-width="2" fill="none" />
<polyline points="363.0,157.5,354.5,158.0" stroke="black" stroke-width="2" fill="none" />
<polyline points="362.0,163.5,354.0,164.5,345.5,165.5" stroke="black" stroke-width="2" fill="none" />
<polyline points="348.0,172.0,355.5,171.0,363.5,170.5" stroke="black" stroke-width="2" fill="none" />
<polyline points="371.5,198.0,380.0,197.5" stroke="black" stroke-width="2" fill="none" />
<polyline points="387.0,196.0,395.5,196.0,403.0,196.0" stroke="black" stroke-width="2" fill="none" />
<polyline points="403.0,204.0,395.5,204.0,388.0,204.5" stroke="black" stroke-width="2" fill="none" />
<polyline points="373.5,212.0,365.5,212.5" stroke="black" stroke-width="2" fill="none" />
<polyline points="363.0,227.5,355.5,227.5" stroke="black" stroke-width="2" fill="none" />
<polyline points="354.5,242.0,347.0,249.5" stroke="black" stroke-width="2" fill="none" />
<polyline points="348.5,250.5,356.0,249.5" stroke="black" stroke-width="2" fill="none" />
<polyline points="365.0,243.5,357.0,244.0,348.5,245.0,340.5,245.5" stroke="black" stroke-width="2" fill="none" />
<polyline points="339.5,259.0,331.5,266.5,323.5,274.0" stroke="black" stroke-width="2" fill="none" />
<polyline points="321.5,267.5,329.5,267.0,338.0,266.5" stroke="black" stroke-width="2" fill="none" />
<polyline points="340.5,268.0,332.5,275.5,324.5,283.0,316.5,290.5,308.0,298.0" stroke="black" stroke-width="2" fill="none" />
<polyline points="309.5,308.5,317.5,308.0,325.0,308.0,332.0,307.5,339.5,307.0,347.0,307.0" stroke="black" stroke-width="2" fill="none" />
<polyline points="347.5,327.0,339.5,327.0" stroke="black" stroke-width="2" fill="none" />
<polyline points="338.0,334.0,346.5,334.0" stroke="black" stroke-width="2" fill="none" />
<polyline points="339.5,316.5,331.5,317.0,323.0,318.0,315.0,318.5" stroke="black" stroke-width="2" fill="none" />
<polyline points="298.5,293.0,307.0,292.5,314.5,291.5,322.5,291.5,329.5,292.0,337.5,292.0,345.5,291.5,354.0,290.5" stroke="black" stroke-width="2" fill="none" />
<polyline points="331.5,258.5,323.5,266.0" stroke="black" stroke-width="2" fill="none" />
<polyline points="325.0,259.5,316.5,267.0" stroke="black" stroke-width="2" fill="none" />
<polyline points="316.0,259.5,307.5,266.5,299.0,273.5" stroke="black" stroke-width="2" fill="none" />
<polyline points="300.0,273.0,307.0,272.5" stroke="black" stroke-width="2" fill="none" />
<polyline points="309.0,276.0,300.5,284.0" stroke="black" stroke-width="2" fill="none" />
<polyline points="298.0,282.5,306.5,282.0" stroke="black" stroke-width="2" fill="none" />
<polyline points="299.5,290.5,307.5,290.0,315.5,289.5" stroke="black" stroke-width="2" fill="none" />
<polyline points="315.5,275.0,307.0,282.5,298.5,290.5" stroke="black" stroke-width="2" fill="none" />
<polyline points="292.0,284.5,284.0,292.5" stroke="black" stroke-width="2" fill="none" />
<polyline points="281.0,283.5,273.0,291.0,265.5,298.5" stroke="black" stroke-width="2" fill="none" />
<polyline points="265.0,292.0,273.0,291.5,282.0,291.0" stroke="black" stroke-width="2" fill="none" />
<polyline points="281.0,276.5,273.5,284.0,265.5,292.0,257.5,299.5" stroke="black" stroke-width="2" fill="none" />
<polyline points="250.5,298.5,258.5,290.5,266.0,283.0" stroke="black" stroke-width="2" fill="none" />
<polyline points="257.5,284.0,249.5,291.5" stroke="black" stroke-width="2" fill="none" />
<polyline points="250.0,288.5,258.0,287.5" stroke="black" stroke-width="2" fill="none" />
<polyline points="253.0,282.0,245.0,290.0" stroke="black" stroke-width="2" fill="none" />
<polyline points="243.0,294.5,251.0,294.0,259.5,294.0,267.5,293.5,276.0,292.5,284.0,292.0,292.0,291.5" stroke="black" stroke-width="2" fill="none" />
<polyline points="293.5,274.0,302.0,266.5" stroke="black" stroke-width="2" fill="none" />
<polyline points="314.0,256.0,322.5,255.5" stroke="black" stroke-width="2" fill="none" />
<polyline points="317.0,252.5,324.5,245.0" stroke="black" stroke-width="2" fill="none" />
<polyline points="322.5,238.0,330.5,237.0,338.5,236.5,347.0,235.5,355.0,235.0,363.5,234.5,371.0,234.0,379.0,233.5,387.0,233.5,395.5,233.5,403.5,233.0,412.0,232.5,420.0,231.5,428.5,231.0,437.0,230.0,444.5,230.0,452.5,229.5,460.5,229.5,468.5,229.0,476.0,228.5,484.5,228.0,492.5,227.5,501.0,227.0,508.5,226.5,516.0,225.0" stroke="black" stroke-width="2" fill="none" />
<polyline points="363.5,196.0,355.5,196.0,348.0,196.5" stroke="black" stroke-width="2" fill="none" />
<polyline points="338.5,190.0,346.5,189.5,355.5,189.5,363.5,189.0,371.0,188.5" stroke="black" stroke-width="2" fill="none" />
<polyline points="355.5,211.0,347.5,211.5,339.5,212.5" stroke="black" stroke-width="2" fill="none" />
<polyline points="331.5,221.0,339.0,221.0,347.0,220.5,355.0,221.0,363.5,221.0,372.0,220.5,379.5,220.0,387.5,218.5,395.0,217.5,402.5,216.5,410.0,215.5,418.5,215.5" stroke="black" stroke-width="2" fill="none" />
<polyline points="354.5,252.0,345.5,253.0,337.5,254.0,329.5,254.5" stroke="black" stroke-width="2" fill="none" />
<polyline points="316.0,242.0,308.0,249.5" stroke="black" stroke-width="2" fill="none" />
<polyline points="294.0,252.0,285.5,259.5" stroke="black" stroke-width="2" fill="none" />
<polyline points="276.5,257.0,284.5,249.5,292.0,242.5,300.0,235.0" stroke="black" stroke-width="2" fill="none" />
<polyline points="307.5,229.5,300.0,229.5,291.5,230.0" stroke="black" stroke-width="2" fill="none" />
<polyline points="281.5,236.5,273.5,244.0,265.5,251.0" stroke="black" stroke-width="2" fill="none" />
<polyline points="266.0,253.0,274.0,252.0,282.0,251.5,290.5,251.0,299.0,250.5,307.0,250.5" stroke="black" stroke-width="2" fill="none" />
<polyline points="281.5,244.5,273.5,252.0" stroke="black" stroke-width="2" fill="none" />
<polyline points="268.5,242.0,276.5,234.5" stroke="black" stroke-width="2" fill="none" />
<polyline points="275.5,229.5,267.5,236.5" stroke="black" stroke-width="2" fill="none" />
<polyline points="259.5,235.0,251.0,243.0,243.0,251.0,234.5,259.0,226.5,266.0,218.5,273.5,211.0,280.5" stroke="black" stroke-width="2" fill="none" />
<polyline points="211.5,281.0,203.5,281.5" stroke="black" stroke-width="2" fill="none" />
<polyline points="203.0,281.5,211.0,274.0,219.0,266.5,227.0,258.5" stroke="black" stroke-width="2" fill="none" />
<polyline points="221.0,259.5,213.5,267.0,205.5,274.5,197.0,282.0" stroke="black" stroke-width="2" fill="none" />
<polyline points="195.0,273.0,203.5,265.5,211.5,258.0" stroke="black" stroke-width="2" fill="none" />
<polyline points="203.5,257.5,195.5,264.5,188.0,272.0,180.0,280.0" stroke="black" stroke-width="2" fill="none" />
<polyline points="173.0,278.0,181.0,278.0,189.0,277.5,197.0,277.5,204.5,277.0,212.5,276.5,220.0,276.0,227.5,276.0,235.0,275.5,242.5,275.0,250.5,274.0,258.5,273.5,266.5,272.5,275.0,271.5,283.5,270.5,291.5,269.5,300.0,269.0,308.0,268.5,315.5,268.0,323.5,267.0,331.5,266.5,339.5,266.0,347.5,266.0,356.0,266.0,364.0,266.0,372.0,266.0,379.5,265.0,387.0,265.0" stroke="black" stroke-width="2" fill="none" />
<polyline points="346.5,228.5,338.5,229.0,330.5,229.0" stroke="black" stroke-width="2" fill="none" />
<polyline points="323.0,189.0,315.5,189.0" stroke="black" stroke-width="2" fill="none" />
<polyline points="316.0,180.0,324.5,173.0" stroke="black" stroke-width="2" fill="none" />
<polyline points="324.0,177.5,332.0,170.0" stroke="black" stroke-width="2" fill="none" />
<polyline points="324.5,179.5,332.5,179.0,340.5,179.0" stroke="black" stroke-width="2" fill="none" />
<polyline points="315.0,171.5,307.5,178.5" stroke="black" stroke-width="2" fill="none" />
<polyline points="299.5,171.5,307.0,164.0" stroke="black" stroke-width="2" fill="none" />
<polyline points="306.5,156.5,298.5,163.5,291.0,170.5" stroke="black" stroke-width="2" fill="none" />
<polyline points="292.0,174.5,300.5,174.0,308.5,173.5,316.5,173.0,325.0,172.0,332.5,171.0,340.0,171.0" stroke="black" stroke-width="2" fill="none" />
<polyline points="340.5,146.5,332.0,147.0,324.0,147.5,316.5,148.0" stroke="black" stroke-width="2" fill="none" />
<polyline points="307.0,140.5,299.0,148.0" stroke="black" stroke-width="2" fill="none" />
<polyline points="291.5,146.5,283.5,154.5,276.0,162.5,268.0,170.5" stroke="black" stroke-width="2" fill="none" />
<polyline points="267.5,163.0,275.0,156.0,283.0,148.5" stroke="black" stroke-width="2" fill="none" />
<polyline points="275.0,149.0,267.0,156.0,260.0,163.5" stroke="black" stroke-width="2" fill="none" />
<polyline points="260.0,161.0,267.5,161.0,275.5,160.5" stroke="black" stroke-width="2" fill="none" />
<polyline points="260.5,152.5,268.5,145.0,276.5,137.0" stroke="black" stroke-width="2" fill="none" />
<polyline points="276.0,131.0,268.0,138.5" stroke="black" stroke-width="2" fill="none" />
<polyline points="268.0,141.0,276.0,140.5,284.5,140.0,292.5,139.0,300.5,138.5,308.5,138.0" stroke="black" stroke-width="2" fill="none" />
<polyline points="309.0,131.5,301.0,139.0" stroke="black" stroke-width="2" fill="none" />
<polyline points="300.5,136.5,308.0,136.5" stroke="black" stroke-width="2" fill="none" />
<polyline points="315.5,131.5,324.0,123.5" stroke="black" stroke-width="2" fill="none" />
<polyline points="324.0,129.0,332.0,121.5" stroke="black" stroke-width="2" fill="none" />
<polyline points="333.5,131.0,325.5,131.5" stroke="black" stroke-width="2" fill="none" />
<polyline points="317.0,116.0,309.0,123.5,300.5,130.5,292.0,138.0" stroke="black" stroke-width="2" fill="none" />
<polyline points="301.0,128.5,309.0,128.5" stroke="black" stroke-width="2" fill="none" />
<polyline points="300.5,122.5,308.5,115.5" stroke="black" stroke-width="2" fill="none" />
<polyline points="301.5,115.0,310.0,108.0" stroke="black" stroke-width="2" fill="none" />
<polyline points="298.5,107.5,291.0,115.0" stroke="black" stroke-width="2" fill="none" />
<polyline points="290.5,117.5,298.5,117.0,307.0,116.0,315.5,115.0,324.0,114.5,332.5,113.5" stroke="black" stroke-width="2" fill="none" />
<polyline points="364.0,107.5,372.0,107.5" stroke="black" stroke-width="2" fill="none" />
<polyline points="372.0,100.0,363.5,100.5" stroke="black" stroke-width="2" fill="none" />
<polyline points="372.0,92.5,380.0,92.0" stroke="black" stroke-width="2" fill="none" />
<polyline points="324.5,91.0,316.5,91.5,308.5,92.0" stroke="black" stroke-width="2" fill="none" />
<polyline points="321.0,106.0,313.5,107.0,305.5,108.0,297.0,109.0,289.0,109.0" stroke="black" stroke-width="2" fill="none" />
<polyline points="286.0,123.0,293.5,122.5,301.0,122.5,308.0,122.5,315.5,122.5,323.0,122.5,330.5,121.5" stroke="black" stroke-width="2" fill="none" />
<polyline points="308.5,120.5,300.0,121.5" stroke="black" stroke-width="2" fill="none" />
<polyline points="266.0,125.5,258.0,132.5" stroke="black" stroke-width="2" fill="none" />
<polyline points="251.0,139.0,243.5,146.5" stroke="black" stroke-width="2" fill="none" />
<polyline points="243.0,145.5,251.5,145.0" stroke="black" stroke-width="2" fill="none" />
<polyline points="258.0,147.0,266.0,147.0,274.0,146.5,282.0,146.5,290.5,146.5,298.5,147.0,306.5,147.0" stroke="black" stroke-width="2" fill="none" />
<polyline points="293.5,165.0,301.5,164.5,309.5,164.5,317.5,164.0,326.0,164.0,334.0,163.0,341.5,162.5" stroke="black" stroke-width="2" fill="none" />
<polyline points="266.0,117.5,258.5,118.0" stroke="black" stroke-width="2" fill="none" />
<polyline points="251.5,124.5,259.5,124.0,267.5,124.0" stroke="black" stroke-width="2" fill="none" />
<polyline points="250.5,141.5,242.5,142.0" stroke="black" stroke-width="2" fill="none" />
<polyline points="236.0,149.0,243.5,148.5,251.5,148.5" stroke="black" stroke-width="2" fill="none" />
<polyline points="252.0,159.0,259.5,159.0,267.5,158.0,275.0,157.5,283.5,157.5,291.5,157.0,299.5,156.0,307.5,155.5,315.5,154.5,323.5,154.0,331.5,153.5,339.5,153.0" stroke="black" stroke-width="2" fill="none" />
<polyline points="252.0,178.5,244.0,186.0" stroke="black" stroke-width="2" fill="none" />
<polyline points="245.0,179.5,237.0,187.0" stroke="black" stroke-width="2" fill="none" />
<polyline points="237.5,180.5,230.0,187.5" stroke="black" stroke-width="2" fill="none" />
<polyline points="227.0,189.0,235.0,188.0,243.0,188.0,251.0,187.5,259.0,187.0,267.0,186.5" stroke="black" stroke-width="2" fill="none" />
<polyline points="259.5,207.5,251.5,208.0" stroke="black" stroke-width="2" fill="none" />
<polyline points="253.0,214.0,261.0,214.0,268.0,213.5,275.5,213.0" stroke="black" stroke-width="2" fill="none" />
<polyline points="259.5,229.0,251.0,236.5,243.0,243.5,235.0,250.5" stroke="black" stroke-width="2" fill="none" />
<polyline points="234.0,250.0,242.0,249.0" stroke="black" stroke-width="2" fill="none" />
<polyline points="244.0,242.5,252.0,242.0" stroke="black" stroke-width="2" fill="none" />
<polyline points="258.5,244.0,250.5,251.5" stroke="black" stroke-width="2" fill="none" />
<polyline points="245.5,259.0,237.0,267.0,228.5,275.0,220.5,282.0" stroke="black" stroke-width="2" fill="none" />
<polyline points="229.0,284.5,237.0,276.5" stroke="black" stroke-width="2" fill="none" />
<polyline points="243.0,283.5,235.0,290.5" stroke="black" stroke-width="2" fill="none" />
<polyline points="227.5,293.0,219.5,293.5" stroke="black" stroke-width="2" fill="none" />
<polyline points="226.5,301.5,218.5,301.5,211.0,302.0" stroke="black" stroke-width="2" fill="none" />
<polyline points="211.0,310.5,219.0,310.5,227.0,310.0" stroke="black" stroke-width="2" fill="none" />
<polyline points="227.0,316.0,219.0,316.5" stroke="black" stroke-width="2" fill="none" />
<polyline points="227.0,331.5,235.0,331.5" stroke="black" stroke-width="2" fill="none" />
<polyline points="244.5,332.5,252.5,332.0,260.5,331.5,268.5,331.5" stroke="black" stroke-width="2" fill="none" />
<polyline points="267.5,330.5,275.0,323.0" stroke="black" stroke-width="2" fill="none" />
<polyline points="269.0,323.5,260.5,331.0" stroke="black" stroke-width="2" fill="none" />
<polyline points="250.5,325.0,258.5,324.5,266.5,324.5,274.5,324.0,282.5,323.0,290.5,323.0,298.5,322.0" stroke="black" stroke-width="2" fill="none" />
<polyline points="291.0,314.0,282.5,315.0,274.5,315.5,266.5,316.0,258.5,317.0,251.0,317.5" stroke="black" stroke-width="2" fill="none" />
<polyline points="249.0,309.0,257.5,309.0,265.5,308.5,274.5,308.0,283.5,307.0" stroke="black" stroke-width="2" fill="none" />
<polyline points="274.0,276.5,281.5,269.0" stroke="black" stroke-width="2" fill="none" />
<polyline points="251.0,270.5,259.5,269.5,267.5,268.0,276.0,267.5,283.5,267.0,292.0,266.0,300.0,265.5,308.0,264.5,316.0,264.0,323.5,263.0,331.5,262.5,339.5,262.0,347.5,261.5,356.0,261.5,364.0,261.0,372.0,261.0,379.5,261.0,387.0,261.0,395.0,261.5,403.5,262.0,411.5,261.5,419.0,260.5,426.5,259.0,434.5,258.0,442.0,257.0" stroke="black" stroke-width="2" fill="none" />
<polyline points="252.5,226.0,244.0,233.0,236.0,241.0" stroke="black" stroke-width="2" fill="none" />
<polyline points="235.0,255.0,243.0,254.5" stroke="black" stroke-width="2" fill="none" />
<polyline points="234.0,273.0,226.0,273.5" stroke="black" stroke-width="2" fill="none" />
<polyline points="217.5,266.0,209.5,266.5" stroke="black" stroke-width="2" fill="none" />
<polyline points="202.5,251.5,194.5,259.0,186.0,266.0" stroke="black" stroke-width="2" fill="none" />
<polyline points="189.0,263.0,197.0,263.0" stroke="black" stroke-width="2" fill="none" />
<polyline points="194.5,253.5,186.5,261.0,178.5,268.5,171.0,276.0" stroke="black" stroke-width="2" fill="none" />
<polyline points="166.0,284.0,173.5,284.0,181.5,284.0,189.0,283.5,196.0,283.0,203.5,282.5,211.0,281.5,219.5,281.0,227.5,280.0,235.5,279.5,244.0,279.5,251.0,279.0,258.5,278.5,266.0,278.0,274.0,277.5,282.5,277.0,290.5,277.0,299.0,277.5,308.0,277.5,316.0,277.0,324.0,276.5,332.0,276.0,339.5,275.0,347.0,274.0,354.5,273.5,362.5,272.5,370.5,272.5" stroke="black" stroke-width="2" fill="none" />
<polyline points="293.5,298.5,285.0,299.0,277.5,299.5,269.5,300.5,261.5,301.0,253.5,301.5,246.0,302.5" stroke="black" stroke-width="2" fill="none" />
<polyline points="218.5,244.0,227.0,243.5,235.0,243.5,243.0,243.0,250.5,242.0,258.0,241.5,266.0,241.0,274.5,241.0,282.5,240.5,290.0,240.0,298.0,239.5,306.0,238.5,314.0,238.0,322.5,237.5,331.5,236.5" stroke="black" stroke-width="2" fill="none" />
<polyline points="259.5,220.0,250.5,220.5,242.0,220.5,233.5,221.0" stroke="black" stroke-width="2" fill="none" />
<polyline points="227.5,219.5,219.0,220.5" stroke="black" stroke-width="2" fill="none" />
<polyline points="209.5,230.5,217.5,229.5,225.5,229.0,233.5,228.0,242.5,228.0,250.5,227.5,259.0,227.0,267.0,226.5,275.5,226.5" stroke="black" stroke-width="2" fill="none" />
<polyline points="292.0,194.0,283.5,195.0,275.5,196.0,267.0,196.0,259.0,196.0,250.5,196.5,243.0,196.5,235.0,197.0" stroke="black" stroke-width="2" fill="none" />
<polyline points="229.5,176.5,237.5,168.5" stroke="black" stroke-width="2" fill="none" />
<polyline points="236.5,164.5,244.0,164.0,252.0,163.5,260.0,163.0,268.0,163.0,275.5,162.5,283.5,163.0" stroke="black" stroke-width="2" fill="none" />
<polyline points="315.0,129.0,307.0,129.0,299.0,129.5,291.0,129.5,283.0,130.0,274.5,130.0,266.5,131.0,258.0,131.5,249.5,132.0,241.5,132.5" stroke="black" stroke-width="2" fill="none" />
<polyline points="227.5,115.5,219.5,123.0,211.0,131.0" stroke="black" stroke-width="2" fill="none" />
<polyline points="213.0,128.0,204.5,128.5" stroke="black" stroke-width="2" fill="none" />
<polyline points="203.0,131.0,211.5,124.0" stroke="black" stroke-width="2" fill="none" />
<polyline points="203.5,120.5,211.5,113.0" stroke="black" stroke-width="2" fill="none" />
<polyline points="220.5,115.0,228.5,108.0" stroke="black" stroke-width="2" fill="none" />
<polyline points="236.5,99.5,245.0,99.0,252.5,99.0" stroke="black" stroke-width="2" fill="none" />
<polyline points="268.5,94.5,276.5,93.5" stroke="black" stroke-width="2" fill="none" />
<polyline points="277.0,86.5,269.0,87.0" stroke="black" stroke-width="2" fill="none" />
<polyline points="251.5,91.5,243.5,91.5,235.5,92.5" stroke="black" stroke-width="2" fill="none" />
<polyline points="219.5,99.5,211.5,107.0" stroke="black" stroke-width="2" fill="none" />
<polyline points="202.5,117.0,195.0,124.0,187.5,132.0" stroke="black" stroke-width="2" fill="none" />
<polyline points="187.5,138.5,196.0,131.5" stroke="black" stroke-width="2" fill="none" />
<polyline points="205.0,140.5,196.5,148.5" stroke="black" stroke-width="2" fill="none" />
<polyline points="196.5,150.0,204.5,149.5,212.5,148.5,220.5,147.5,228.0,147.0" stroke="black" stroke-width="2" fill="none" />
<polyline points="226.5,140.5,218.5,141.0" stroke="black" stroke-width="2" fill="none" />
<polyline points="212.0,141.5,204.0,149.0,196.0,156.0" stroke="black" stroke-width="2" fill="none" />
<polyline points="195.5,159.0,203.5,158.5,211.5,158.5,219.0,157.5" stroke="black" stroke-width="2" fill="none" />
<polyline points="220.5,163.5,212.5,171.0" stroke="black" stroke-width="2" fill="none" />
<polyline points="210.5,164.0,202.5,171.0" stroke="black" stroke-width="2" fill="none" />
<polyline points="204.0,170.0,212.0,169.5" stroke="black" stroke-width="2" fill="none" />
<polyline points="202.5,164.5,211.0,157.0" stroke="black" stroke-width="2" fill="none" />
<polyline points="211.0,149.0,202.5,157.0,194.5,164.0" stroke="black" stroke-width="2" fill="none" />
<polyline points="194.5,166.5,202.5,166.5,211.0,165.5,219.0,165.0,226.5,163.5" stroke="black" stroke-width="2" fill="none" />
<polyline points="225.0,172.0,217.5,179.5" stroke="black" stroke-width="2" fill="none" />
<polyline points="219.0,180.5,227.0,180.0,235.5,179.5,243.5,179.5,251.5,179.0,259.0,179.5" stroke="black" stroke-width="2" fill="none" />
<polyline points="243.5,156.0,235.5,156.5" stroke="black" stroke-width="2" fill="none" />
<polyline points="236.5,175.5,228.5,176.0" stroke="black" stroke-width="2" fill="none" />
<polyline points="242.5,171.0,234.5,171.5,226.5,172.5,218.5,173.0,210.5,174.5,202.5,175.0" stroke="black" stroke-width="2" fill="none" />
<polyline points="196.5,188.0,188.5,195.5,180.5,203.0,173.0,210.5" stroke="black" stroke-width="2" fill="none" />
<polyline points="173.0,214.5,181.5,214.0,189.5,214.0,197.5,214.0,205.5,214.0,213.0,213.0" stroke="black" stroke-width="2" fill="none" />
<polyline points="195.5,211.0,187.0,219.0,179.5,226.5" stroke="black" stroke-width="2" fill="none" />
<polyline points="180.5,228.0,188.5,227.0" stroke="black" stroke-width="2" fill="none" />
<polyline points="188.0,224.5,195.5,217.0" stroke="black" stroke-width="2" fill="none" />
<polyline points="195.5,228.5,188.0,236.5" stroke="black" stroke-width="2" fill="none" />
<polyline points="189.0,234.0,196.5,233.0" stroke="black" stroke-width="2" fill="none" />
<polyline points="202.0,228.0,194.5,235.5,186.5,243.0,178.0,250.5,169.5,258.0,161.5,265.0" stroke="black" stroke-width="2" fill="none" />
<polyline points="157.0,268.0,165.0,260.5,173.0,253.5" stroke="black" stroke-width="2" fill="none" />
<polyline points="164.0,252.5,156.0,260.5" stroke="black" stroke-width="2" fill="none" />
<polyline points="140.0,258.0,148.5,251.0,156.5,244.0,164.5,236.5,172.5,229.0" stroke="black" stroke-width="2" fill="none" />
<polyline points="180.0,218.5,188.0,211.0,196.0,204.0,204.0,196.5" stroke="black" stroke-width="2" fill="none" />
<polyline points="196.5,197.5,204.5,196.5,211.5,195.5,219.0,195.0" stroke="black" stroke-width="2" fill="none" />
<polyline points="197.0,195.0,188.5,196.0" stroke="black" stroke-width="2" fill="none" />
<polyline points="187.5,203.5,180.0,211.0" stroke="black" stroke-width="2" fill="none" />
<polyline points="165.0,210.5,156.5,218.0" stroke="black" stroke-width="2" fill="none" />
<polyline points="153.5,211.5,161.5,204.0,170.0,197.0,178.5,189.5" stroke="black" stroke-width="2" fill="none" />
<polyline points="178.0,195.5,186.0,188.5" stroke="black" stroke-width="2" fill="none" />
<polyline points="173.0,186.0,165.5,193.5,157.0,201.5" stroke="black" stroke-width="2" fill="none" />
<polyline points="155.5,199.5,163.5,199.5,171.0,199.0" stroke="black" stroke-width="2" fill="none" />
<polyline points="171.0,191.5,162.5,191.0,154.5,191.0" stroke="black" stroke-width="2" fill="none" />
<polyline points="155.5,185.5,164.0,185.0" stroke="black" stroke-width="2" fill="none" />
<polyline points="164.0,177.5,156.0,185.0" stroke="black" stroke-width="2" fill="none" />
<polyline points="148.0,181.5,155.5,180.5,163.5,179.5,172.0,179.0,180.0,179.0,188.0,178.0,196.5,177.5" stroke="black" stroke-width="2" fill="none" />
<polyline points="173.0,180.5,164.5,188.0,156.5,195.0,148.5,202.5" stroke="black" stroke-width="2" fill="none" />
<polyline points="138.0,203.5,130.5,211.0,122.0,218.5,114.0,226.0" stroke="black" stroke-width="2" fill="none" />
<polyline points="115.0,223.0,123.0,222.0,131.0,221.5,139.0,221.0,147.0,220.0,156.0,219.0,164.0,218.0,172.5,217.0,181.0,216.5,189.5,216.0,198.0,215.0,205.5,215.0" stroke="black" stroke-width="2" fill="none" />
<polyline points="219.0,236.0,227.5,236.0,235.5,235.5,243.5,235.0,251.5,234.5,259.5,234.5,267.5,234.5,275.0,234.0,283.0,234.0,291.0,234.0,299.0,233.5,307.5,232.5,315.5,231.0" stroke="black" stroke-width="2" fill="none" />
<polyline points="197.5,245.0,189.5,252.5,180.5,260.0" stroke="black" stroke-width="2" fill="none" />
<polyline points="180.5,240.5,188.5,239.5,196.5,238.5,204.5,237.0" stroke="black" stroke-width="2" fill="none" />
<polyline points="197.5,240.5,189.5,241.0" stroke="black" stroke-width="2" fill="none" />
<polyline points="164.5,242.5,156.5,250.5,148.0,258.0" stroke="black" stroke-width="2" fill="none" />
<polyline points="147.5,241.5,139.5,249.0,131.5,257.5" stroke="black" stroke-width="2" fill="none" />
<polyline points="125.5,257.0,133.5,257.0,141.5,257.0,149.0,256.5,157.0,256.0,165.0,255.0" stroke="black" stroke-width="2" fill="none" />
<polyline points="171.5,234.5,163.5,235.0,155.5,235.5,147.0,235.5" stroke="black" stroke-width="2" fill="none" />
<polyline points="139.5,235.5,131.5,243.0,124.0,250.0,115.5,257.5" stroke="black" stroke-width="2" fill="none" />
<polyline points="108.5,259.0,100.5,267.0" stroke="black" stroke-width="2" fill="none" />
<polyline points="100.0,256.5,107.5,249.0" stroke="black" stroke-width="2" fill="none" />
<polyline points="101.5,252.0,94.0,259.5" stroke="black" stroke-width="2" fill="none" />
<polyline points="98.0,256.5,106.0,256.5" stroke="black" stroke-width="2" fill="none" />
<polyline points="90.5,251.5,82.0,259.5" stroke="black" stroke-width="2" fill="none" />
<polyline points="84.5,243.5,92.5,236.5,100.5,228.5" stroke="black" stroke-width="2" fill="none" />
<polyline points="101.0,236.5,92.5,244.0" stroke="black" stroke-width="2" fill="none" />
<polyline points="84.0,236.0,92.0,228.5" stroke="black" stroke-width="2" fill="none" />
<polyline points="91.5,232.0,99.5,232.0" stroke="black" stroke-width="2" fill="none" />
<polyline points="92.5,222.0,85.0,228.5" stroke="black" stroke-width="2" fill="none" />
<polyline points="83.5,225.0,91.5,224.5" stroke="black" stroke-width="2" fill="none" />
<polyline points="81.5,219.5,74.0,226.5" stroke="black" stroke-width="2" fill="none" />
<polyline points="76.0,216.5,83.5,216.5" stroke="black" stroke-width="2" fill="none" />
<polyline points="82.5,210.5,74.5,218.0,67.0,225.0,59.5,232.5,52.0,240.5" stroke="black" stroke-width="2" fill="none" />
<polyline points="52.5,246.0,60.0,245.5,67.5,245.0,75.0,244.5,83.0,244.0,91.0,243.0,99.0,242.5,106.5,241.5,114.5,241.0,123.0,240.5,131.0,240.0,138.5,239.5,147.0,239.5,155.5,239.0,163.5,238.0,171.5,237.5,179.0,237.0,187.0,236.0,195.0,235.0,203.0,234.5" stroke="black" stroke-width="2" fill="none" />
<polyline points="148.5,219.0,140.5,226.5,132.0,234.5,124.0,242.5" stroke="black" stroke-width="2" fill="none" />
<polyline points="124.5,234.0,133.0,226.5,141.5,220.0,150.0,213.0" stroke="black" stroke-width="2" fill="none" />
<polyline points="132.5,218.5,124.0,226.0" stroke="black" stroke-width="2" fill="none" />
<polyline points="114.5,229.5,122.5,229.0,130.5,228.5,139.0,228.0,146.5,228.0,154.5,227.5,163.0,226.5,171.5,225.0,180.0,224.0,188.0,223.5,196.0,223.0,204.0,222.5" stroke="black" stroke-width="2" fill="none" />
<polyline points="161.0,170.5,153.5,178.0,146.0,185.5" stroke="black" stroke-width="2" fill="none" />
<polyline points="145.0,179.5,153.0,178.5" stroke="black" stroke-width="2" fill="none" />
<polyline points="146.0,178.5,154.0,171.0,161.5,163.5" stroke="black" stroke-width="2" fill="none" />
<polyline points="156.0,164.5,147.5,172.0,139.5,179.0" stroke="black" stroke-width="2" fill="none" />
<polyline points="133.5,179.5,141.5,171.5,149.5,164.0" stroke="black" stroke-width="2" fill="none" />
<polyline points="156.0,169.5,164.0,169.5" stroke="black" stroke-width="2" fill="none" />
<polyline points="165.0,157.5,157.0,158.0" stroke="black" stroke-width="2" fill="none" />
<polyline points="148.0,147.0,156.0,139.0" stroke="black" stroke-width="2" fill="none" />
<polyline points="155.0,131.5,146.5,139.0" stroke="black" stroke-width="2" fill="none" />
<polyline points="145.0,131.5,153.5,124.0" stroke="black" stroke-width="2" fill="none" />
<polyline points="152.5,130.0,144.0,131.0" stroke="black" stroke-width="2" fill="none" />
<polyline points="130.0,140.0,122.5,147.5" stroke="black" stroke-width="2" fill="none" />
<polyline points="123.0,154.0,131.5,146.5" stroke="black" stroke-width="2" fill="none" />
<polyline points="139.5,147.5,132.0,155.0" stroke="black" stroke-width="2" fill="none" />
<polyline points="132.0,153.5,124.0,154.0" stroke="black" stroke-width="2" fill="none" />
<polyline points="115.5,147.0,123.5,139.0" stroke="black" stroke-width="2" fill="none" />
<polyline points="121.0,133.0,113.0,140.5" stroke="black" stroke-width="2" fill="none" />
<polyline points="116.5,137.0,124.5,137.0" stroke="black" stroke-width="2" fill="none" />
<polyline points="124.0,130.5,116.5,131.0" stroke="black" stroke-width="2" fill="none" />
<polyline points="116.0,123.5,108.0,131.0" stroke="black" stroke-width="2" fill="none" />
<polyline points="106.0,124.5,114.0,124.0,122.5,124.0,131.0,123.5,140.0,123.0,148.5,122.0,157.0,122.5,165.0,122.5,173.0,122.5,181.0,122.0,189.0,121.0,197.0,120.5,205.0,120.0,212.5,119.5,220.5,118.5" stroke="black" stroke-width="2" fill="none" />
<polyline points="221.0,91.5,213.0,92.0,205.0,93.0,197.0,93.5" stroke="black" stroke-width="2" fill="none" />
<polyline points="185.5,111.0,194.0,110.5,202.5,110.0,211.0,109.5,218.5,109.0,227.0,108.0,235.0,107.5" stroke="black" stroke-width="2" fill="none" />
<polyline points="185.0,124.0,177.0,131.5" stroke="black" stroke-width="2" fill="none" />
<polyline points="180.5,132.0,188.5,131.0" stroke="black" stroke-width="2" fill="none" />
<polyline points="179.5,125.5,171.5,132.5" stroke="black" stroke-width="2" fill="none" />
<polyline points="173.5,133.0,181.5,133.0,189.5,132.5,197.5,132.0,205.0,131.0,212.0,130.5" stroke="black" stroke-width="2" fill="none" />
<polyline points="212.0,141.0,203.0,142.0,195.0,143.0,187.5,143.5" stroke="black" stroke-width="2" fill="none" />
<polyline points="139.5,163.5,131.5,171.0,124.0,178.5" stroke="black" stroke-width="2" fill="none" />
<polyline points="126.0,186.0,117.5,193.5" stroke="black" stroke-width="2" fill="none" />
<polyline points="117.0,183.0,124.5,182.0,132.5,181.5" stroke="black" stroke-width="2" fill="none" />
<polyline points="139.0,188.5,147.0,188.0,154.5,188.0,162.5,187.5,170.5,186.5,178.5,186.0,186.5,186.5,195.0,186.5,203.0,186.5,211.0,186.5" stroke="black" stroke-width="2" fill="none" />
<polyline points="125.5,202.5,117.5,210.5" stroke="black" stroke-width="2" fill="none" />
<polyline points="116.0,212.5,124.0,211.5,132.0,211.5,140.0,211.5,148.0,212.0,156.0,212.0,164.0,212.0" stroke="black" stroke-width="2" fill="none" />
<polyline points="123.5,209.5,116.0,217.5" stroke="black" stroke-width="2" fill="none" />
<polyline points="116.0,217.5,124.0,217.0" stroke="black" stroke-width="2" fill="none" />
<polyline points="115.0,204.5,123.0,204.0,131.0,203.5,139.5,203.0,147.5,202.5,155.5,202.5,163.0,202.0,171.0,202.0,178.5,201.5,186.5,200.0,194.5,199.5,202.5,199.5,211.0,199.0" stroke="black" stroke-width="2" fill="none" />
<polyline points="172.0,162.0,163.5,163.5,155.5,164.0,147.5,165.0,139.0,166.0,131.5,166.5,123.5,167.0" stroke="black" stroke-width="2" fill="none" />
<polyline points="106.0,163.0,98.5,170.5" stroke="black" stroke-width="2" fill="none" />
<polyline points="89.0,168.5,96.5,161.5,104.5,154.0" stroke="black" stroke-width="2" fill="none" />
<polyline points="97.5,156.5,89.5,164.5" stroke="black" stroke-width="2" fill="none" />
<polyline points="92.0,161.0,84.0,161.0" stroke="black" stroke-width="2" fill="none" />
<polyline points="84.0,161.0,92.0,153.5,100.0,145.5,107.5,138.0,115.0,130.5,123.0,123.0" stroke="black" stroke-width="2" fill="none" />
<polyline points="100.0,120.5,108.5,113.0,117.0,106.0,125.0,98.0,132.5,90.0,141.0,82.5" stroke="black" stroke-width="2" fill="none" />
<polyline points="139.0,90.5,131.0,97.5" stroke="black" stroke-width="2" fill="none" />
<polyline points="131.0,96.0,139.0,95.5,147.0,95.0" stroke="black" stroke-width="2" fill="none" />
<polyline points="148.0,92.0,139.5,99.5" stroke="black" stroke-width="2" fill="none" />
<polyline points="146.5,99.0,154.5,92.0" stroke="black" stroke-width="2" fill="none" />
<polyline points="163.0,93.0,155.5,100.5" stroke="black" stroke-width="2" fill="none" />
<polyline points="141.0,88.5,132.5,89.5" stroke="black" stroke-width="2" fill="none" />
<polyline points="123.0,79.0,130.5,79.0,138.5,78.0,147.0,77.0,155.5,76.5" stroke="black" stroke-width="2" fill="none" />
<polyline points="155.5,70.5,163.5,70.0" stroke="black" stroke-width="2" fill="none" />
<polyline points="165.5,76.5,173.5,76.0" stroke="black" stroke-width="2" fill="none" />
<polyline points="172.5,62.5,164.5,63.0" stroke="black" stroke-width="2" fill="none" />
<polyline points="162.5,52.5,170.5,52.5,179.0,52.0,187.0,51.5,194.5,51.5,203.0,51.5,211.0,51.0" stroke="black" stroke-width="2" fill="none" />
<polyline points="204.5,49.0,212.5,42.0" stroke="black" stroke-width="2" fill="none" />
<polyline points="204.5,37.5,212.5,37.0,221.0,36.0,228.5,35.5,236.0,35.5,243.5,35.5" stroke="black" stroke-width="2" fill="none" />
<polyline points="244.0,44.0,236.0,44.5,227.5,45.0" stroke="black" stroke-width="2" fill="none" />
<polyline points="212.0,28.5,219.0,28.0,226.5,27.5,234.0,27.0,242.0,26.5" stroke="black" stroke-width="2" fill="none" />
<polyline points="252.0,12.0,260.0,11.0,268.0,11.0" stroke="black" stroke-width="2" fill="none" />
<polyline points="269.0,21.5,277.5,21.0,285.5,20.0" stroke="black" stroke-width="2" fill="none" />
<polyline points="285.5,29.5,277.0,30.5,269.0,31.5" stroke="black" stroke-width="2" fill="none" />
<polyline points="292.0,61.0,300.0,60.5" stroke="black" stroke-width="2" fill="none" />
<polyline points="243.5,12.5,235.5,13.0,227.5,13.5" stroke="black" stroke-width="2" fill="none" />
<polyline points="218.5,23.0,226.5,22.5,234.5,21.5,243.0,20.5" stroke="black" stroke-width="2" fill="none" />
<polyline points="202.0,5.0,194.0,12.0" stroke="black" stroke-width="2" fill="none" />
<polyline points="196.5,9.0,204.5,8.5" stroke="black" stroke-width="2" fill="none" />
<polyline points="197.0,2.0,189.0,10.0" stroke="black" stroke-width="2" fill="none" />
<polyline points="187.0,7.5,195.0,7.0,203.0,6.0,211.5,5.0" stroke="black" stroke-width="2" fill="none" />
<polyline points="220.0,44.5,212.5,45.0,204.5,45.0,196.5,45.0" stroke="black" stroke-width="2" fill="none" />
<polyline points="129.5,69.0,121.0,70.0" stroke="black" stroke-width="2" fill="none" />
<polyline points="107.5,89.5,99.0,97.0,91.0,104.5" stroke="black" stroke-width="2" fill="none" />
<polyline points="90.5,105.0,98.0,105.0" stroke="black" stroke-width="2" fill="none" />
<polyline points="100.0,115.0,108.5,107.5,116.5,100.5" stroke="black" stroke-width="2" fill="none" />
<polyline points="99.0,85.5,107.5,85.0,115.5,84.5,123.5,84.0,130.5,83.5,138.0,83.0,146.0,82.5,154.5,82.5,163.0,82.0,172.0,81.0" stroke="black" stroke-width="2" fill="none" />
<polyline points="99.5,76.5,91.0,77.0,83.5,78.0" stroke="black" stroke-width="2" fill="none" />
<polyline points="84.5,69.5,93.0,68.5,100.5,68.0" stroke="black" stroke-width="2" fill="none" />
<polyline points="78.0,92.5,70.0,100.0" stroke="black" stroke-width="2" fill="none" />
<polyline points="76.5,98.5,69.0,106.5,61.0,114.0" stroke="black" stroke-width="2" fill="none" />
<polyline points="68.0,113.5,60.5,121.5,52.0,129.0" stroke="black" stroke-width="2" fill="none" />
<polyline points="44.0,125.0,51.5,124.5,59.5,124.0,67.0,123.5,74.5,122.5,82.5,122.5,90.5,122.0,99.0,122.5" stroke="black" stroke-width="2" fill="none" />
<polyline points="84.0,122.5,76.0,130.0,68.0,137.5,59.5,145.0,51.0,153.5" stroke="black" stroke-width="2" fill="none" />
<polyline points="43.0,153.0,51.0,153.0,59.0,153.0" stroke="black" stroke-width="2" fill="none" />
<polyline points="60.5,156.5,52.5,163.5" stroke="black" stroke-width="2" fill="none" />
<polyline points="42.0,162.5,33.5,170.0" stroke="black" stroke-width="2" fill="none" />
<polyline points="28.5,168.5,36.5,161.0,45.0,153.5,53.5,146.0,61.5,138.5,69.0,131.0,76.5,123.5" stroke="black" stroke-width="2" fill="none" />
<polyline points="78.0,115.5,69.5,123.0,61.0,130.5" stroke="black" stroke-width="2" fill="none" />
<polyline points="66.5,138.0,75.0,137.5" stroke="black" stroke-width="2" fill="none" />
<polyline points="67.0,144.5,74.5,137.0,82.5,129.5" stroke="black" stroke-width="2" fill="none" />
<polyline points="91.5,140.0,83.0,147.0" stroke="black" stroke-width="2" fill="none" />
<polyline points="76.0,150.5,84.0,150.0,91.5,149.5,99.0,149.0,106.5,148.0,114.5,148.0,123.0,147.0,131.0,146.5,139.0,146.0" stroke="black" stroke-width="2" fill="none" />
<polyline points="91.5,147.5,83.5,155.5,75.5,163.5" stroke="black" stroke-width="2" fill="none" />
<polyline points="75.0,164.5,83.5,164.5,91.0,164.0,98.5,164.0,106.5,163.5,114.5,162.5" stroke="black" stroke-width="2" fill="none" />
<polyline points="106.5,186.5,114.5,186.5,122.5,186.5,130.5,186.5" stroke="black" stroke-width="2" fill="none" />
<polyline points="99.0,197.0,106.5,196.5,115.0,196.5,123.5,196.0,131.5,195.0,139.5,194.5,147.0,194.0,155.0,193.0,163.0,192.0,171.0,191.5,179.0,190.5,187.5,190.5" stroke="black" stroke-width="2" fill="none" />
<polyline points="131.5,250.5,124.0,258.0" stroke="black" stroke-width="2" fill="none" />
<polyline points="123.5,260.5,131.5,259.5,140.0,259.0,148.0,258.5,155.5,258.5,163.0,258.0,171.0,258.0,178.5,257.5,186.0,257.0,194.0,257.0,202.5,256.5,210.0,256.0,217.5,255.0,225.5,254.5,234.0,253.5,243.0,253.0,251.5,252.0,259.5,252.0,267.5,251.5,275.0,251.0,283.0,250.5,291.5,249.5,300.5,249.0,308.5,249.0,317.0,249.0,325.0,249.5,333.0,249.0,340.5,248.5,349.0,248.5,357.0,248.0" stroke="black" stroke-width="2" fill="none" />
<polyline points="180.0,300.5,172.0,300.5" stroke="black" stroke-width="2" fill="none" />
<polyline points="174.0,292.5,181.5,292.0,189.0,291.5" stroke="black" stroke-width="2" fill="none" />
<polyline points="178.0,309.0,170.5,309.5" stroke="black" stroke-width="2" fill="none" />
<polyline points="172.0,323.5,164.0,324.0" stroke="black" stroke-width="2" fill="none" />
<polyline points="163.0,331.0,155.0,332.0" stroke="black" stroke-width="2" fill="none" />
<polyline points="145.0,324.0,137.0,324.5" stroke="black" stroke-width="2" fill="none" />
<polyline points="138.0,292.5,146.0,292.5" stroke="black" stroke-width="2" fill="none" />
<polyline points="147.0,286.5,155.0,285.5" stroke="black" stroke-width="2" fill="none" />
<polyline points="155.5,277.5,147.5,278.0,139.5,279.0" stroke="black" stroke-width="2" fill="none" />
<polyline points="122.0,292.5,114.0,293.0" stroke="black" stroke-width="2" fill="none" />
<polyline points="122.5,284.0,114.5,284.5,106.5,285.0,98.5,285.5" stroke="black" stroke-width="2" fill="none" />
<polyline points="90.5,283.5,83.0,284.0,75.0,284.5" stroke="black" stroke-width="2" fill="none" />
<polyline points="74.5,277.5,82.5,277.5,90.0,276.5,98.0,276.0,106.5,275.5,115.0,275.5,122.5,275.5,130.5,275.5" stroke="black" stroke-width="2" fill="none" />
<polyline points="109.0,324.5,101.0,325.0,93.0,325.0" stroke="black" stroke-width="2" fill="none" />
<polyline points="83.0,315.5,91.5,315.5,99.5,315.0,107.5,315.0,115.0,315.0" stroke="black" stroke-width="2" fill="none" />
<polyline points="73.5,309.0,65.5,309.5" stroke="black" stroke-width="2" fill="none" />
<polyline points="58.5,325.0,49.5,326.0" stroke="black" stroke-width="2" fill="none" />
<polyline points="37.0,320.0,44.5,319.0,52.5,318.5,60.0,318.0,67.5,317.5" stroke="black" stroke-width="2" fill="none" />
<polyline points="58.5,309.5,50.5,310.5,42.5,311.0" stroke="black" stroke-width="2" fill="none" />
<polyline points="41.5,303.0,49.5,302.0,58.0,301.5,67.0,300.5,75.5,299.0,84.5,298.0" stroke="black" stroke-width="2" fill="none" />
<polyline points="60.0,277.0,52.0,277.5" stroke="black" stroke-width="2" fill="none" />
<polyline points="54.0,269.5,61.5,268.5,69.0,267.5,76.5,266.5,84.0,266.0,92.0,266.0,99.5,265.5,106.5,265.5,114.5,265.0,122.5,265.0,130.5,264.5,138.5,264.0,146.5,263.5,154.5,263.0,162.5,262.5,171.0,262.5,179.5,262.5,187.5,262.0,195.5,261.5,203.5,261.0,211.5,260.5,219.5,260.0,228.0,259.0,236.0,258.5,244.5,257.5" stroke="black" stroke-width="2" fill="none" />
<polyline points="98.5,204.0,90.5,205.0" stroke="black" stroke-width="2" fill="none" />
<polyline points="75.0,204.0,67.0,211.5,59.0,219.0" stroke="black" stroke-width="2" fill="none" />
<polyline points="58.5,225.5,66.5,218.0,74.5,210.5" stroke="black" stroke-width="2" fill="none" />
<polyline points="67.5,195.0,75.0,187.5" stroke="black" stroke-width="2" fill="none" />
<polyline points="86.0,182.0,93.5,181.5,101.5,181.0,109.0,180.5" stroke="black" stroke-width="2" fill="none" />
<polyline points="138.0,154.0,130.0,154.0,122.0,154.0,114.5,154.5,106.0,155.0,98.5,155.5,91.0,156.0,83.5,156.5,76.0,156.5" stroke="black" stroke-width="2" fill="none" />
<polyline points="75.5,182.0,67.5,182.5,59.5,182.5" stroke="black" stroke-width="2" fill="none" />
<polyline points="50.0,179.5,42.0,187.5,34.5,195.5" stroke="black" stroke-width="2" fill="none" />
<polyline points="33.5,191.0,42.0,190.5" stroke="black" stroke-width="2" fill="none" />
<polyline points="34.5,180.0,42.5,173.0" stroke="black" stroke-width="2" fill="none" />
<polyline points="26.5,171.5,35.0,171.0,43.0,171.0,51.0,171.0,59.0,171.0,66.5,171.0,74.5,170.5,82.5,170.0,91.0,169.5,99.5,168.5,108.0,167.5,115.5,167.5,123.0,167.0,130.5,166.5,138.0,166.0,146.5,165.5,154.0,165.0,162.0,165.0,170.0,165.0,178.5,164.0" stroke="black" stroke-width="2" fill="none" />
<polyline points="74.0,197.5,66.0,198.0,57.5,199.0" stroke="black" stroke-width="2" fill="none" />
<polyline points="74.0,204.0,65.5,204.5,58.0,204.5,50.0,205.0,42.0,205.0,33.5,205.5" stroke="black" stroke-width="2" fill="none" />
<polyline points="27.0,205.5,19.5,206.0" stroke="black" stroke-width="2" fill="none" />
<polyline points="18.5,199.0,26.5,198.0,34.5,197.5,42.5,196.5" stroke="black" stroke-width="2" fill="none" />
<polyline points="28.5,187.5,36.5,187.5,44.5,187.5,52.0,187.5,60.0,187.0,67.5,186.0,75.5,186.0,83.0,185.5,91.0,184.5,99.0,184.5" stroke="black" stroke-width="2" fill="none" />
<polyline points="67.0,144.5,58.5,145.0,50.0,145.0" stroke="black" stroke-width="2" fill="none" />
<polyline points="51.0,140.0,43.0,147.5" stroke="black" stroke-width="2" fill="none" />
<polyline points="42.0,132.5,50.0,132.0,58.5,132.0,66.5,131.5,74.5,131.0,83.0,130.0,90.5,130.0,98.5,129.5,106.5,129.5,114.5,128.5,122.5,128.0,130.0,128.0,138.5,127.5,147.0,127.0,155.0,126.5,163.0,126.5" stroke="black" stroke-width="2" fill="none" />
<polyline points="69.0,91.0,60.5,98.5,52.0,106.5,44.0,114.5,35.5,122.5" stroke="black" stroke-width="2" fill="none" />
<polyline points="43.5,124.5,51.5,117.0" stroke="black" stroke-width="2" fill="none" />
<polyline points="45.0,111.0,53.0,110.5,60.5,109.5,68.5,109.0,76.5,108.0,84.0,107.0,92.0,106.5,100.0,106.0,108.0,105.5,115.5,104.5,123.5,104.0" stroke="black" stroke-width="2" fill="none" />
<polyline points="73.5,77.5,65.5,78.0" stroke="black" stroke-width="2" fill="none" />
<polyline points="58.0,91.5,50.0,98.5" stroke="black" stroke-width="2" fill="none" />
<polyline points="45.0,102.5,53.0,102.0,61.0,102.0,68.5,101.5,75.5,101.0,83.5,99.5,91.0,99.0,99.0,97.5,107.5,96.5,115.5,95.5,123.0,94.5,131.5,94.5,139.5,94.0,147.5,94.0,155.0,94.0,163.5,93.5,171.5,93.0,179.5,92.0,187.0,91.5,195.0,91.0,203.0,90.0,211.0,89.5,219.0,89.0" stroke="black" stroke-width="2" fill="none" />
<polyline points="259.5,240.5,251.5,240.5,243.5,241.5,235.5,241.5,227.5,242.5,219.0,243.5,211.0,244.5,203.0,244.5,195.5,244.5,188.0,245.0,180.0,244.5,172.0,245.0,164.0,246.0,155.5,246.5,147.0,247.0,138.0,247.5,130.0,247.5,122.0,248.0,114.0,248.5,106.5,249.0,99.0,249.5,91.0,250.0,83.5,250.5,75.0,251.5,67.0,252.0,59.5,253.0,51.5,254.0" stroke="black" stroke-width="2" fill="none" />
<polyline points="60.0,258.0,68.5,250.5" stroke="black" stroke-width="2" fill="none" />
<polyline points="37.0,257.0,28.5,265.0" stroke="black" stroke-width="2" fill="none" />
<polyline points="20.0,261.0,28.0,260.5,36.0,261.0,43.5,261.0,51.5,261.0,59.5,260.5,67.0,260.0,74.5,259.5,82.0,259.0,89.5,258.5,97.5,258.0,106.0,257.0" stroke="black" stroke-width="2" fill="none" />
<polyline points="85.5,291.5,77.0,292.0,69.0,293.0,60.5,293.5,51.5,294.0,43.0,295.0,34.5,296.0" stroke="black" stroke-width="2" fill="none" />
<polyline points="36.0,286.0,44.0,285.5,51.5,285.5,59.0,285.0" stroke="black" stroke-width="2" fill="none" />
<polyline points="26.5,277.0,18.5,277.5" stroke="black" stroke-width="2" fill="none" />
<polyline points="11.0,268.5,18.5,268.0,26.0,267.5" stroke="black" stroke-width="2" fill="none" />
<polyline points="11.0,263.5,3.0,263.5" stroke="black" stroke-width="2" fill="none" />
<polyline points="10.5,291.5,18.5,291.0" stroke="black" stroke-width="2" fill="none" />
<polyline points="17.5,300.5,10.0,308.0" stroke="black" stroke-width="2" fill="none" />
<polyline points="2.0,311.0,10.0,310.5,18.5,309.5,27.5,309.0,36.0,308.0" stroke="black" stroke-width="2" fill="none" />
<polyline points="35.5,332.5,27.5,333.0,19.5,333.5,11.0,334.5,2.5,335.5" stroke="black" stroke-width="2" fill="none" />
<polyline points="2.5,303.0,11.0,302.5,19.5,302.5" stroke="black" stroke-width="2" fill="none" />
<polyline points="36.0,236.5,43.5,236.5,51.5,236.0,59.0,235.5,66.5,235.5,74.5,235.0,83.0,234.0,91.5,233.5,99.5,233.5,107.5,233.0,115.5,233.0,123.0,232.0,131.5,231.5,139.5,230.5" stroke="black" stroke-width="2" fill="none" />
<polyline points="108.5,225.0,100.5,225.5,92.0,226.0,83.5,227.0,75.5,228.0,67.0,228.0,58.0,228.0,50.0,228.5,41.5,229.5,33.0,230.0" stroke="black" stroke-width="2" fill="none" />
<polyline points="33.5,224.0,41.5,223.0,50.0,222.5,58.5,221.5,67.0,221.0,75.5,220.5,83.5,219.0,92.0,217.5,100.0,216.5,108.0,215.5" stroke="black" stroke-width="2" fill="none" />
<polyline points="91.5,210.5,83.5,210.5,75.0,211.0,66.5,212.0,58.5,212.5,51.0,213.0,43.5,213.0,36.0,213.5,28.5,214.0,20.5,214.5" stroke="black" stroke-width="2" fill="none" />
<polyline points="19.5,222.5,11.0,223.0,3.0,223.5" stroke="black" stroke-width="2" fill="none" />
<polyline points="4.0,213.0,11.5,212.5" stroke="black" stroke-width="2" fill="none" />
<polyline points="10.5,203.0,3.0,203.0" stroke="black" stroke-width="2" fill="none" />
<polyline points="4.0,197.5,12.0,197.0" stroke="black" stroke-width="2" fill="none" />
<polyline points="13.0,190.0,5.5,190.5" stroke="black" stroke-width="2" fill="none" />
<polyline points="18.0,180.0,26.0,180.0,34.0,179.5,42.0,179.0,50.0,178.5" stroke="black" stroke-width="2" fill="none" />
<polyline points="27.0,155.0,18.5,162.5" stroke="black" stroke-width="2" fill="none" />
<polyline points="19.0,155.0,27.0,147.5" stroke="black" stroke-width="2" fill="none" />
<polyline points="17.5,149.5,9.5,157.5,2.0,164.5" stroke="black" stroke-width="2" fill="none" />
<polyline points="4.0,167.0,12.0,167.0,20.0,166.5,27.5,165.5,35.5,164.5,43.5,163.5,51.5,162.0,59.0,160.5" stroke="black" stroke-width="2" fill="none" />
<polyline points="17.5,139.0,10.0,146.5" stroke="black" stroke-width="2" fill="none" />
<polyline points="4.5,149.5,12.0,149.0,20.0,149.0,28.0,149.0,36.0,149.0,44.0,148.0,52.5,147.0,60.0,145.5,67.5,144.0" stroke="black" stroke-width="2" fill="none" />
<polyline points="25.5,124.0,17.5,131.5,9.5,138.5,1.5,146.0" stroke="black" stroke-width="2" fill="none" />
<polyline points="5.5,141.5,13.5,141.0,22.0,140.0,29.5,139.5,37.5,138.5,45.5,137.5,52.5,136.5,60.5,136.0,68.0,135.5,75.5,135.0,83.5,134.5,91.5,134.0,99.5,133.5,107.5,133.5,115.5,133.5,123.5,133.5,131.5,133.5,139.5,133.5,147.5,133.5,156.0,133.0" stroke="black" stroke-width="2" fill="none" />
<polyline points="26.0,109.5,18.5,117.0,10.5,124.0" stroke="black" stroke-width="2" fill="none" />
<polyline points="11.0,129.0,18.5,121.5" stroke="black" stroke-width="2" fill="none" />
<polyline points="21.0,114.5,12.5,115.0" stroke="black" stroke-width="2" fill="none" />
<polyline points="12.0,115.5,20.0,108.0" stroke="black" stroke-width="2" fill="none" />
<polyline points="19.0,101.0,11.5,108.5,3.5,116.0" stroke="black" stroke-width="2" fill="none" />
<polyline points="5.0,117.0,12.5,116.0,20.0,115.5,27.5,115.0,35.0,114.5,43.0,114.5,51.0,114.0,59.5,114.0,68.0,114.0,76.0,114.0,84.0,113.5,92.0,113.0,99.5,112.5,108.0,112.5,116.0,112.0,124.0,111.5,131.5,111.5,139.0,110.5,147.0,109.5,154.5,108.5,162.5,108.0,171.0,107.5,179.0,107.0,187.5,106.0,195.5,105.0,203.5,104.5,212.0,103.5,219.5,103.0,227.5,102.5" stroke="black" stroke-width="2" fill="none" />
<polyline points="42.0,67.0,34.5,67.0" stroke="black" stroke-width="2" fill="none" />
<polyline points="27.5,59.5,35.5,59.0,43.5,58.5" stroke="black" stroke-width="2" fill="none" />
<polyline points="43.0,44.5,36.0,44.5,28.0,45.0" stroke="black" stroke-width="2" fill="none" />
<polyline points="28.0,37.0,36.0,37.0" stroke="black" stroke-width="2" fill="none" />
<polyline points="29.0,34.5,37.0,27.5" stroke="black" stroke-width="2" fill="none" />
<polyline points="36.0,30.0,28.0,30.5" stroke="black" stroke-width="2" fill="none" />
<polyline points="35.0,52.5,27.0,52.5,19.0,53.0,11.0,53.0,3.0,53.5" stroke="black" stroke-width="2" fill="none" />
<polyline points="3.5,60.5,12.0,52.5" stroke="black" stroke-width="2" fill="none" />
<polyline points="9.5,69.0,17.5,68.5" stroke="black" stroke-width="2" fill="none" />
<polyline points="19.5,76.5,11.5,84.0" stroke="black" stroke-width="2" fill="none" />
<polyline points="10.0,82.0,18.5,81.5" stroke="black" stroke-width="2" fill="none" />
<polyline points="20.0,89.5,12.5,90.5" stroke="black" stroke-width="2" fill="none" />
<polyline points="10.5,99.5,18.5,92.0,27.0,84.5" stroke="black" stroke-width="2" fill="none" />
<polyline points="27.5,76.5,19.5,84.0,12.0,91.0" stroke="black" stroke-width="2" fill="none" />
<polyline points="3.5,93.5,11.5,93.0,20.0,92.0,28.5,91.5,36.0,91.5,44.0,91.0,52.5,90.5,61.0,90.5,69.0,90.5,77.0,89.5,84.5,89.5,92.5,89.0,100.0,88.5,107.5,88.0,115.0,88.0,122.5,87.5,130.5,87.0,139.0,86.0,147.5,85.5,155.5,85.5,163.5,84.5,171.5,84.5,179.5,84.0" stroke="black" stroke-width="2" fill="none" />
<polyline points="21.0,136.5,13.0,137.5" stroke="black" stroke-width="2" fill="none" />
<polyline points="5.5,132.5,13.5,132.0,21.0,132.0,29.0,131.5,36.5,131.0" stroke="black" stroke-width="2" fill="none" />
<polyline points="59.0,153.0,51.0,154.5,42.5,156.0,34.5,156.5,26.0,157.0,17.5,157.5,10.0,158.0,2.0,158.5" stroke="black" stroke-width="2" fill="none" />
<polyline points="11.5,173.5,20.0,172.5" stroke="black" stroke-width="2" fill="none" />
<polyline points="2.5,125.0,11.0,124.0,20.0,123.5,28.5,123.5,37.0,123.0" stroke="black" stroke-width="2" fill="none" />
<polyline points="35.5,107.5,28.5,108.0,21.0,109.0,13.5,109.5,5.5,110.0" stroke="black" stroke-width="2" fill="none" />
<polyline points="4.5,101.5,12.5,100.5,19.5,100.0,27.5,99.5" stroke="black" stroke-width="2" fill="none" />
<polyline points="4.0,86.5,12.0,86.0,19.5,85.0,27.5,84.5,35.5,84.5,43.5,84.0,51.0,84.0,59.0,83.0,67.0,82.5,75.5,82.0" stroke="black" stroke-width="2" fill="none" />
<polyline points="49.5,73.0,41.5,73.5,34.5,74.5,26.5,75.5,18.5,77.0,11.0,77.0" stroke="black" stroke-width="2" fill="none" />
<polyline points="3.5,20.5,11.5,20.0,20.0,19.0,28.0,18.5,35.5,18.5" stroke="black" stroke-width="2" fill="none" />
</svg>