<svg xmlns="http://www.w3.org/2000/svg" version="1.1"><polyline points="7.0,8.5,22.5,8.5,38.0,8.0" stroke="black" stroke-width="2" fill="none" />
<polyline points="36.0,29.0,20.5,29.0" stroke="black" stroke-width="2" fill="none" />
<polyline points="24.5,46.5,40.5,46.5" stroke="black" stroke-width="2" fill="none" />
<polyline points="42.5,60.5,27.0,61.0" stroke="black" stroke-width="2" fill="none" />
<polyline points="7.5,73.0,23.5,72.5,40.0,71.5,56.0,71.0" stroke="black" stroke-width="2" fill="none" />
<polyline points="68.5,101.0,52.5,117.0" stroke="black" stroke-width="2" fill="none" />
<polyline points="53.5,130.0,69.0,113.5" stroke="black" stroke-width="2" fill="none" />
<polyline points="84.5,119.0,69.0,134.0,54.0,149.0,38.5,165.0" stroke="black" stroke-width="2" fill="none" />
<polyline points="37.0,151.5,21.5,166.5" stroke="black" stroke-width="2" fill="none" />
<polyline points="10.0,170.0,25.5,169.0,40.0,168.5,55.0,168.0,70.5,167.0,86.0,167.5,102.0,167.0,119.0,167.5,136.0,168.0,152.5,168.5,168.0,168.5,184.0,168.0" stroke="black" stroke-width="2" fill="none" />
<polyline points="185.5,183.5,169.5,200.0,152.0,216.0,136.0,232.0" stroke="black" stroke-width="2" fill="none" />
<polyline points="132.0,246.0,116.5,261.5" stroke="black" stroke-width="2" fill="none" />
<polyline points="151.5,260.0,167.5,245.0" stroke="black" stroke-width="2" fill="none" />
<polyline points="152.5,248.0,136.0,264.0" stroke="black" stroke-width="2" fill="none" />
<polyline points="178.0,277.0,194.0,261.5" stroke="black" stroke-width="2" fill="none" />
<polyline points="199.0,275.5,214.0,259.5" stroke="black" stroke-width="2" fill="none" />
<polyline points="217.5,278.5,234.0,263.5,250.0,248.0,266.5,232.5" stroke="black" stroke-width="2" fill="none" />
<polyline points="261.5,243.0,277.5,226.5" stroke="black" stroke-width="2" fill="none" />
<polyline points="294.5,244.0,278.5,259.0" stroke="black" stroke-width="2" fill="none" />
<polyline points="279.5,275.5,263.0,291.5" stroke="black" stroke-width="2" fill="none" />
<polyline points="264.0,279.0,248.0,295.5" stroke="black" stroke-width="2" fill="none" />
<polyline points="248.0,297.0,263.5,297.5,279.0,297.0,294.0,297.0,309.5,297.0,325.0,297.0,342.0,295.5,359.0,295.0" stroke="black" stroke-width="2" fill="none" />
<polyline points="362.0,296.5,378.0,280.5,394.5,264.5" stroke="black" stroke-width="2" fill="none" />
<polyline points="395.0,276.5,412.0,261.0" stroke="black" stroke-width="2" fill="none" />
<polyline points="424.5,261.5,408.5,277.5" stroke="black" stroke-width="2" fill="none" />
<polyline points="392.5,275.0,376.5,275.5" stroke="black" stroke-width="2" fill="none" />
<polyline points="363.0,278.5,347.0,295.0" stroke="black" stroke-width="2" fill="none" />
<polyline points="343.0,277.0,327.5,293.0" stroke="black" stroke-width="2" fill="none" />
<polyline points="311.0,291.5,328.5,275.5,344.5,260.5" stroke="black" stroke-width="2" fill="none" />
<polyline points="326.5,234.5,342.5,234.5,358.5,235.0,375.0,234.5,392.0,233.5,408.5,232.5,424.0,232.0,439.5,231.5,454.5,230.0,469.0,229.0,485.0,229.0,501.5,227.5,516.5,226.5" stroke="black" stroke-width="2" fill="none" />
<polyline points="519.0,200.5,503.5,200.5" stroke="black" stroke-width="2" fill="none" />
<polyline points="502.0,186.5,518.0,171.0" stroke="black" stroke-width="2" fill="none" />
<polyline points="505.0,173.0,489.0,188.0" stroke="black" stroke-width="2" fill="none" />
<polyline points="485.0,186.5,500.5,186.5,517.5,186.0" stroke="black" stroke-width="2" fill="none" />
<polyline points="473.0,172.0,457.5,186.5" stroke="black" stroke-width="2" fill="none" />
<polyline points="457.5,172.0,441.5,187.0" stroke="black" stroke-width="2" fill="none" />
<polyline points="441.0,184.5,456.5,184.0,471.5,184.0" stroke="black" stroke-width="2" fill="none" />
<polyline points="470.5,215.0,487.0,215.5,503.5,215.5,519.0,215.5" stroke="black" stroke-width="2" fill="none" />
<polyline points="501.5,280.5,485.0,282.0" stroke="black" stroke-width="2" fill="none" />
<polyline points="471.0,330.5,487.0,330.0,502.5,329.5,517.5,329.5" stroke="black" stroke-width="2" fill="none" />
<polyline points="456.0,330.5,440.0,330.5" stroke="black" stroke-width="2" fill="none" />
<polyline points="439.5,316.0,454.5,315.0,471.0,314.0,487.5,313.0,504.5,310.5,520.0,309.5" stroke="black" stroke-width="2" fill="none" />
<polyline points="458.0,202.0,441.5,203.0" stroke="black" stroke-width="2" fill="none" />
<polyline points="424.0,183.5,440.0,168.5,455.5,153.5" stroke="black" stroke-width="2" fill="none" />
<polyline points="437.0,151.5,420.0,166.5" stroke="black" stroke-width="2" fill="none" />
<polyline points="424.0,169.0,439.0,169.5,454.5,169.5,469.5,169.5,484.5,169.5,499.5,170.0,516.0,169.0" stroke="black" stroke-width="2" fill="none" />
<polyline points="502.0,109.0,485.5,109.5" stroke="black" stroke-width="2" fill="none" />
<polyline points="471.0,105.5,455.0,106.5" stroke="black" stroke-width="2" fill="none" />
<polyline points="460.0,76.0,475.5,75.5" stroke="black" stroke-width="2" fill="none" />
<polyline points="454.0,56.5,438.5,57.0" stroke="black" stroke-width="2" fill="none" />
<polyline points="424.5,45.5,440.0,45.0,455.5,44.5" stroke="black" stroke-width="2" fill="none" />
<polyline points="421.0,59.0,405.5,59.5" stroke="black" stroke-width="2" fill="none" />
<polyline points="403.0,27.5,419.5,27.0" stroke="black" stroke-width="2" fill="none" />
<polyline points="405.0,12.5,422.0,12.0,438.5,11.0,455.0,10.0" stroke="black" stroke-width="2" fill="none" />
<polyline points="389.0,42.5,372.5,42.5" stroke="black" stroke-width="2" fill="none" />
<polyline points="389.5,108.5,373.5,110.0,357.0,110.0" stroke="black" stroke-width="2" fill="none" />
<polyline points="377.0,124.0,392.0,124.0" stroke="black" stroke-width="2" fill="none" />
<polyline points="406.5,137.5,391.0,139.0,375.0,140.0" stroke="black" stroke-width="2" fill="none" />
<polyline points="387.5,156.0,405.0,154.5" stroke="black" stroke-width="2" fill="none" />
<polyline points="422.5,153.0,439.0,153.5,454.5,153.5,469.5,153.5,485.0,153.0,501.0,152.0,516.5,151.5" stroke="black" stroke-width="2" fill="none" />
<polyline points="454.0,137.0,439.5,137.5,424.5,137.5" stroke="black" stroke-width="2" fill="none" />
<polyline points="404.0,172.0,387.5,173.0" stroke="black" stroke-width="2" fill="none" />
<polyline points="391.0,205.5,407.0,206.0" stroke="black" stroke-width="2" fill="none" />
<polyline points="421.0,219.5,437.0,219.5" stroke="black" stroke-width="2" fill="none" />
<polyline points="394.0,233.0,379.0,249.0" stroke="black" stroke-width="2" fill="none" />
<polyline points="380.0,219.0,395.0,217.5,410.5,216.0" stroke="black" stroke-width="2" fill="none" />
<polyline points="355.5,221.0,339.5,222.5" stroke="black" stroke-width="2" fill="none" />
<polyline points="324.5,185.5,340.5,185.0,357.0,185.5,373.5,185.0" stroke="black" stroke-width="2" fill="none" />
<polyline points="332.0,116.5,315.0,133.0,299.0,149.0,282.5,164.5" stroke="black" stroke-width="2" fill="none" />
<polyline points="279.5,151.0,264.0,167.0" stroke="black" stroke-width="2" fill="none" />
<polyline points="243.5,155.0,260.0,154.5,276.0,155.0,292.0,155.0,307.5,155.0,324.0,154.5,340.5,153.0" stroke="black" stroke-width="2" fill="none" />
<polyline points="309.5,117.0,293.5,133.5" stroke="black" stroke-width="2" fill="none" />
<polyline points="298.5,126.0,314.0,126.0,329.5,124.5,345.5,123.5" stroke="black" stroke-width="2" fill="none" />
<polyline points="330.0,109.0,314.0,109.0,298.5,109.5" stroke="black" stroke-width="2" fill="none" />
<polyline points="281.5,127.0,266.5,128.5" stroke="black" stroke-width="2" fill="none" />
<polyline points="243.5,134.5,260.0,134.0,277.0,134.5,293.5,134.5,310.0,135.0,326.5,136.0" stroke="black" stroke-width="2" fill="none" />
<polyline points="276.0,218.5,259.5,220.0,242.0,220.5" stroke="black" stroke-width="2" fill="none" />
<polyline points="243.5,208.5,259.5,207.0,276.5,206.0" stroke="black" stroke-width="2" fill="none" />
<polyline points="246.0,233.0,230.5,247.5" stroke="black" stroke-width="2" fill="none" />
<polyline points="247.0,265.5,231.5,280.5" stroke="black" stroke-width="2" fill="none" />
<polyline points="231.0,295.0,215.0,295.5" stroke="black" stroke-width="2" fill="none" />
<polyline points="213.5,311.0,230.0,311.0" stroke="black" stroke-width="2" fill="none" />
<polyline points="248.0,316.0,264.0,315.5,279.0,316.0,294.5,315.5" stroke="black" stroke-width="2" fill="none" />
<polyline points="312.0,314.5,327.5,313.5,343.0,313.5" stroke="black" stroke-width="2" fill="none" />
<polyline points="387.0,316.5,403.0,316.0,420.5,314.5" stroke="black" stroke-width="2" fill="none" />
<polyline points="387.5,302.5,404.0,301.0,420.0,300.0,436.5,299.0,452.5,299.0,469.5,298.5,486.5,297.5,502.5,297.0" stroke="black" stroke-width="2" fill="none" />
<polyline points="315.5,277.5,299.0,292.5" stroke="black" stroke-width="2" fill="none" />
<polyline points="280.5,297.5,297.0,282.0,313.0,266.0" stroke="black" stroke-width="2" fill="none" />
<polyline points="279.0,333.0,262.0,335.0,245.0,336.0" stroke="black" stroke-width="2" fill="none" />
<polyline points="181.0,301.0,165.0,302.0" stroke="black" stroke-width="2" fill="none" />
<polyline points="164.0,327.5,149.0,328.0" stroke="black" stroke-width="2" fill="none" />
<polyline points="121.5,316.0,106.0,317.5,89.5,318.5" stroke="black" stroke-width="2" fill="none" />
<polyline points="71.0,318.0,54.5,317.5,37.0,318.0" stroke="black" stroke-width="2" fill="none" />
<polyline points="38.0,303.5,54.0,303.5,69.5,303.0,86.0,302.0" stroke="black" stroke-width="2" fill="none" />
<polyline points="51.0,282.5,67.5,282.0,85.0,282.0,102.0,282.0,119.0,282.5,135.5,282.0,151.5,281.5,168.0,281.5,185.0,281.0,202.0,281.0,218.5,281.0,234.0,281.0,249.5,279.5,265.5,278.5,281.0,277.0,296.0,276.0,312.5,275.5,328.5,275.0,344.0,274.0,359.5,273.0,375.0,272.5,391.0,272.0,406.5,271.5" stroke="black" stroke-width="2" fill="none" />
<polyline points="261.0,182.0,244.5,182.5,229.0,182.5" stroke="black" stroke-width="2" fill="none" />
<polyline points="200.0,170.5,216.5,171.0,233.0,172.0,249.5,172.5,265.0,172.0,280.5,172.0,295.5,171.0,310.5,171.0,325.0,169.5,339.5,167.5" stroke="black" stroke-width="2" fill="none" />
<polyline points="216.0,151.5,199.5,165.5" stroke="black" stroke-width="2" fill="none" />
<polyline points="200.0,157.5,216.0,157.0,231.5,156.5" stroke="black" stroke-width="2" fill="none" />
<polyline points="210.0,139.0,194.5,154.0" stroke="black" stroke-width="2" fill="none" />
<polyline points="193.5,137.0,208.5,122.0" stroke="black" stroke-width="2" fill="none" />
<polyline points="201.0,119.0,186.0,134.0" stroke="black" stroke-width="2" fill="none" />
<polyline points="184.5,138.5,200.5,138.0,216.0,139.5" stroke="black" stroke-width="2" fill="none" />
<polyline points="185.0,109.0,201.0,108.5,216.0,108.0,231.0,107.5,246.5,108.0" stroke="black" stroke-width="2" fill="none" />
<polyline points="245.0,41.5,229.5,42.5,213.5,43.0,197.5,43.5" stroke="black" stroke-width="2" fill="none" />
<polyline points="216.5,26.5,232.0,26.0,246.5,26.5" stroke="black" stroke-width="2" fill="none" />
<polyline points="233.0,7.0,249.5,8.0,265.0,8.5" stroke="black" stroke-width="2" fill="none" />
<polyline points="214.0,10.5,198.5,11.5,183.0,12.5" stroke="black" stroke-width="2" fill="none" />
<polyline points="180.0,56.5,164.5,56.5" stroke="black" stroke-width="2" fill="none" />
<polyline points="149.5,70.5,133.0,71.0" stroke="black" stroke-width="2" fill="none" />
<polyline points="146.5,88.0,131.5,103.0" stroke="black" stroke-width="2" fill="none" />
<polyline points="120.0,101.0,104.0,116.0" stroke="black" stroke-width="2" fill="none" />
<polyline points="89.0,138.0,72.0,154.0" stroke="black" stroke-width="2" fill="none" />
<polyline points="104.0,164.0,120.0,150.5,136.0,135.5" stroke="black" stroke-width="2" fill="none" />
<polyline points="134.5,154.0,118.5,169.0" stroke="black" stroke-width="2" fill="none" />
<polyline points="106.0,154.0,89.5,169.0" stroke="black" stroke-width="2" fill="none" />
<polyline points="106.0,203.5,122.0,202.0,137.0,201.0,153.0,200.5,169.5,200.5,184.5,200.5,199.5,201.5,215.0,202.5" stroke="black" stroke-width="2" fill="none" />
<polyline points="198.0,196.5,182.5,212.0" stroke="black" stroke-width="2" fill="none" />
<polyline points="185.5,201.5,170.0,217.0" stroke="black" stroke-width="2" fill="none" />
<polyline points="182.0,229.0,198.5,213.5" stroke="black" stroke-width="2" fill="none" />
<polyline points="199.5,234.0,183.5,248.5" stroke="black" stroke-width="2" fill="none" />
<polyline points="196.5,245.5,180.5,261.5" stroke="black" stroke-width="2" fill="none" />
<polyline points="133.5,215.5,117.5,230.5" stroke="black" stroke-width="2" fill="none" />
<polyline points="119.5,219.5,136.0,218.0,151.5,217.0,167.0,215.5,182.0,215.0,197.5,215.0,212.5,215.5" stroke="black" stroke-width="2" fill="none" />
<polyline points="171.0,182.5,155.0,199.0" stroke="black" stroke-width="2" fill="none" />
<polyline points="151.0,186.0,167.0,170.0" stroke="black" stroke-width="2" fill="none" />
<polyline points="150.5,170.5,133.5,186.5" stroke="black" stroke-width="2" fill="none" />
<polyline points="89.5,214.5,73.5,230.5" stroke="black" stroke-width="2" fill="none" />
<polyline points="86.5,245.0,102.0,229.0" stroke="black" stroke-width="2" fill="none" />
<polyline points="52.5,254.5,68.5,253.5,85.5,252.5,103.0,252.0,120.5,250.5,136.5,250.0,153.0,250.0,169.0,251.0,185.5,251.5,201.5,252.0,218.5,251.5,233.5,250.0,249.0,249.5,264.0,248.5,279.5,248.0,295.5,247.0,311.5,244.5,327.5,243.0,343.0,242.0,358.5,241.0,375.0,240.5,391.0,239.5,407.0,238.5,423.5,237.5,441.0,236.5,457.5,235.5" stroke="black" stroke-width="2" fill="none" />
<polyline points="149.5,24.5,134.0,25.0" stroke="black" stroke-width="2" fill="none" />
<polyline points="101.0,27.5,84.0,28.0" stroke="black" stroke-width="2" fill="none" />
<polyline points="86.5,10.5,101.5,10.5,117.5,8.5,133.0,7.0" stroke="black" stroke-width="2" fill="none" />
<polyline points="104.0,76.0,89.0,77.0" stroke="black" stroke-width="2" fill="none" />
<polyline points="26.5,102.5,10.5,118.5" stroke="black" stroke-width="2" fill="none" />
<polyline points="7.5,123.0,23.5,122.5,40.0,121.5,57.0,121.0,72.5,121.0,88.5,120.5,105.5,120.0,122.0,120.5,138.5,121.0,154.0,120.0,169.0,120.0,185.0,119.5,200.0,119.0,215.0,118.5,230.5,119.0" stroke="black" stroke-width="2" fill="none" />
<polyline points="22.5,119.5,7.5,135.0" stroke="black" stroke-width="2" fill="none" />
<polyline points="9.0,139.0,25.0,138.0,39.5,137.0,55.0,137.0,70.5,137.5,86.5,137.0,102.0,136.5,119.0,136.0,135.5,135.0,152.5,133.5,168.5,133.5" stroke="black" stroke-width="2" fill="none" />
<polyline points="22.5,134.5,5.5,150.0" stroke="black" stroke-width="2" fill="none" />
<polyline points="11.0,156.0,27.0,156.0,42.5,155.0,57.0,154.0,71.0,153.5,86.0,154.0,102.5,153.0,118.5,152.0,134.0,151.5,149.5,151.0" stroke="black" stroke-width="2" fill="none" />
<polyline points="102.0,216.5,85.5,217.0,70.0,217.0,55.5,217.5,40.0,218.0" stroke="black" stroke-width="2" fill="none" />
<polyline points="38.5,239.0,54.5,239.0,71.0,238.5,87.5,237.5,103.0,236.5,119.5,235.5,135.5,234.5,151.5,233.5,168.0,231.5,184.0,229.5,200.0,228.0,215.5,228.5,231.0,228.0,246.0,228.0,261.5,228.0,277.0,228.0,294.0,226.5,311.0,226.0" stroke="black" stroke-width="2" fill="none" />
<polyline points="438.5,254.0,423.0,253.5,407.5,253.5,391.0,253.5,374.5,253.0,359.0,255.0,343.0,256.0,326.5,257.5,310.5,260.0,295.0,261.0,279.5,263.0,265.0,263.5,250.0,264.0,234.0,264.0,218.5,264.5,202.5,264.5,186.0,265.0,170.0,266.0,153.5,266.5,136.0,267.0,119.5,267.5,103.5,268.0,87.0,268.5,70.5,270.0,53.0,271.0" stroke="black" stroke-width="2" fill="none" />
<polyline points="37.5,262.5,22.0,262.5" stroke="black" stroke-width="2" fill="none" />
<polyline points="27.5,298.5,11.5,299.5" stroke="black" stroke-width="2" fill="none" />
<polyline points="9.0,315.0,24.5,315.0" stroke="black" stroke-width="2" fill="none" />
<polyline points="27.0,217.0,11.0,217.5" stroke="black" stroke-width="2" fill="none" />
<polyline points="5.5,202.0,22.5,200.5,40.0,200.5,57.0,200.5,74.0,200.5,91.5,201.0" stroke="black" stroke-width="2" fill="none" />
<polyline points="24.0,187.5,40.5,186.5,56.0,185.5,71.5,184.0,87.0,183.0,103.0,182.0,118.5,182.0,133.5,182.0,148.5,182.0,163.5,182.0,179.5,182.0,196.0,181.5" stroke="black" stroke-width="2" fill="none" />
<polyline points="20.5,149.5,4.5,165.5" stroke="black" stroke-width="2" fill="none" />
<polyline points="8.0,109.5,24.0,109.0,39.5,107.5,55.5,107.0,71.5,107.0,87.0,106.5,102.5,107.0,118.5,106.0,134.0,105.5" stroke="black" stroke-width="2" fill="none" />
<polyline points="181.0,88.0,165.0,89.0,148.5,89.5,133.0,90.0,117.5,90.5,101.5,91.0,86.0,90.5,70.5,91.0,54.0,91.0,38.5,91.0,22.5,91.0,6.5,91.5" stroke="black" stroke-width="2" fill="none" />
</svg>